<svg width="153" height="34" viewBox="0 0 153 34" fill="none" xmlns="http://www.w3.org/2000/svg">
<path d="M19.9676 8.65789C25.5756 8.65789 30.1639 13.2415 30.1639 18.9285C30.1639 24.5307 25.5756 29.1143 19.9676 29.1143C14.2747 29.1143 9.68639 24.5307 9.68639 18.9285C9.68639 18.0797 9.77136 17.3158 9.9413 16.5519H5.77782C5.60788 17.3158 5.60788 18.1646 5.60788 18.9285C5.60788 26.8225 11.9806 33.2735 19.9676 33.2735C27.8698 33.2735 34.2424 26.8225 34.2424 18.9285C34.2424 11.0346 27.8698 4.58359 19.9676 4.58359C19.1179 4.58359 18.2683 4.66847 17.4186 4.83823V8.99742C18.2683 8.82766 19.033 8.65789 19.9676 8.65789Z" fill="#001233"/>
<path d="M11.8956 18.8437V18.9285C11.8956 23.2575 15.4643 26.8225 19.7977 26.8225C24.1311 26.8225 27.6148 23.2575 27.6148 18.9285C27.6148 17.3158 27.19 15.8728 26.3403 14.5996C24.9808 12.4776 22.5167 11.0346 19.7977 11.0346H19.7127H15.4643V10.016V4.75336H5.60794V14.5996H9.85639H11.8956L11.8956 18.8437ZM19.7977 14.5996C22.1768 14.5996 24.0461 16.5519 24.0461 18.9285C24.0461 21.3052 22.1768 23.2575 19.7977 23.2575C17.4185 23.2575 15.4643 21.3052 15.4643 18.9285C15.4643 18.9285 15.4643 18.9285 15.4643 18.8437V14.5996H19.7127C19.7127 14.5996 19.7127 14.5996 19.7977 14.5996ZM11.8956 8.31837V11.0346H9.17655V8.31837H11.8956Z" fill="#FD5D07"/>
<path d="M5.60794 0V2.80109H8.32695V0H5.60794Z" fill="#FD5D07"/>
<path d="M0 4.75336V8.31838H3.5687V4.75336H0Z" fill="#FD5D07"/>
<g clip-path="url(#clip0_6_3270)">
<path d="M57.326 23.0006V26.0315H47.4012V23.0006H57.326ZM48.6562 7.17293V26.0315H44.8144V7.17293H48.6562ZM56.0326 14.8537V17.8068H47.4012V14.8537H56.0326ZM57.3131 7.17293V10.2167H47.4012V7.17293H57.3131ZM63.2295 6.13675V26.0315H59.5286V6.13675H63.2295ZM70.1705 12.0171V26.0315H66.4694V12.0171H70.1705ZM66.239 8.36454C66.239 7.82055 66.4268 7.37154 66.8024 7.01751C67.1781 6.66348 67.6818 6.48646 68.3135 6.48646C68.9368 6.48646 69.4362 6.66348 69.8118 7.01751C70.196 7.37154 70.3881 7.82055 70.3881 8.36454C70.3881 8.90854 70.196 9.35755 69.8118 9.71159C69.4362 10.0656 68.9368 10.2426 68.3135 10.2426C67.6818 10.2426 67.1781 10.0656 66.8024 9.71159C66.4268 9.35755 66.239 8.90854 66.239 8.36454ZM80.0055 12.0171V14.6594H71.9377V12.0171H80.0055ZM73.9354 8.55883H77.6236V21.809C77.6236 22.2149 77.6748 22.5257 77.7772 22.7416C77.8882 22.9575 78.0504 23.1086 78.2638 23.1949C78.4772 23.2726 78.7462 23.3115 79.0706 23.3115C79.3011 23.3115 79.506 23.3028 79.6853 23.2856C79.8732 23.2597 80.0311 23.2338 80.1592 23.2079L80.1719 25.9538C79.856 26.0574 79.5145 26.1395 79.1475 26.1998C78.7804 26.2603 78.3749 26.2906 77.9309 26.2906C77.1198 26.2906 76.4112 26.1567 75.8051 25.889C75.2074 25.6127 74.7465 25.1724 74.422 24.5679C74.0976 23.9634 73.9354 23.1691 73.9354 22.1846V8.55883ZM88.4831 26.2906C87.4074 26.2906 86.4427 26.1178 85.5889 25.7724C84.7352 25.4184 84.0095 24.9305 83.4119 24.3088C82.8228 23.6871 82.3703 22.9661 82.0545 22.1458C81.7386 21.3169 81.5806 20.4361 81.5806 19.5036V18.9854C81.5806 17.9234 81.73 16.9519 82.0288 16.0712C82.3277 15.1904 82.7545 14.4262 83.3094 13.7786C83.8729 13.131 84.5559 12.6345 85.3584 12.2891C86.1609 11.9351 87.0659 11.7581 88.0733 11.7581C89.0551 11.7581 89.9259 11.9221 90.6857 12.2502C91.4455 12.5784 92.0815 13.0446 92.5938 13.6491C93.1147 14.2535 93.5073 14.9789 93.772 15.8251C94.0366 16.6627 94.169 17.5952 94.169 18.6228V20.177H83.1558V17.6902H90.5449V17.4052C90.5449 16.8872 90.451 16.4252 90.2631 16.0194C90.0838 15.6049 89.8106 15.2768 89.4436 15.035C89.0764 14.7932 88.6069 14.6723 88.0348 14.6723C87.5482 14.6723 87.1299 14.7802 86.7799 14.9961C86.4299 15.212 86.1439 15.5142 85.9218 15.9028C85.7084 16.2914 85.5462 16.749 85.4352 17.2757C85.3328 17.7938 85.2816 18.3637 85.2816 18.9854V19.5036C85.2816 20.0648 85.3584 20.5829 85.512 21.0578C85.6743 21.5327 85.9005 21.9429 86.1908 22.2883C86.4897 22.6337 86.8482 22.9014 87.2665 23.0913C87.6934 23.2813 88.1757 23.3763 88.7136 23.3763C89.3795 23.3763 89.9985 23.2468 90.5704 22.9877C91.151 22.72 91.6504 22.3185 92.0687 21.7831L93.8616 23.7519C93.5713 24.175 93.1743 24.5808 92.6707 24.9694C92.1755 25.3579 91.5779 25.6775 90.8778 25.9278C90.1778 26.1696 89.3795 26.2906 88.4831 26.2906ZM108.934 14.8537V17.8845H99.2018V14.8537H108.934ZM100.341 7.17293V26.0315H96.4997V7.17293H100.341ZM111.675 7.17293V26.0315H107.846V7.17293H111.675ZM114.198 19.1668V18.8948C114.198 17.8672 114.343 16.9217 114.633 16.0582C114.923 15.1861 115.346 14.4305 115.901 13.7916C116.456 13.1526 117.139 12.6561 117.95 12.302C118.761 11.9394 119.691 11.7581 120.742 11.7581C121.792 11.7581 122.726 11.9394 123.546 12.302C124.366 12.6561 125.053 13.1526 125.608 13.7916C126.171 14.4305 126.598 15.1861 126.888 16.0582C127.179 16.9217 127.324 17.8672 127.324 18.8948V19.1668C127.324 20.1856 127.179 21.1312 126.888 22.0034C126.598 22.8668 126.171 23.6223 125.608 24.2699C125.053 24.909 124.37 25.4055 123.559 25.7595C122.748 26.1135 121.817 26.2906 120.767 26.2906C119.717 26.2906 118.782 26.1135 117.963 25.7595C117.152 25.4055 116.464 24.909 115.901 24.2699C115.346 23.6223 114.923 22.8668 114.633 22.0034C114.343 21.1312 114.198 20.1856 114.198 19.1668ZM117.886 18.8948V19.1668C117.886 19.7539 117.937 20.3022 118.039 20.8117C118.142 21.3212 118.304 21.7701 118.526 22.1588C118.757 22.5386 119.055 22.8366 119.423 23.0525C119.79 23.2683 120.238 23.3763 120.767 23.3763C121.279 23.3763 121.719 23.2683 122.086 23.0525C122.453 22.8366 122.748 22.5386 122.97 22.1588C123.192 21.7701 123.354 21.3212 123.456 20.8117C123.567 20.3022 123.623 19.7539 123.623 19.1668V18.8948C123.623 18.3248 123.567 17.7895 123.456 17.2886C123.354 16.7792 123.188 16.3302 122.957 15.9416C122.735 15.5444 122.44 15.2336 122.073 15.0091C121.706 14.7846 121.262 14.6723 120.742 14.6723C120.221 14.6723 119.777 14.7846 119.41 15.0091C119.051 15.2336 118.757 15.5444 118.526 15.9416C118.304 16.3302 118.142 16.7792 118.039 17.2886C117.937 17.7895 117.886 18.3248 117.886 18.8948ZM137.082 22.1588C137.082 21.8911 137.005 21.6493 136.852 21.4334C136.698 21.2175 136.412 21.0189 135.994 20.8376C135.584 20.6476 134.99 20.475 134.213 20.3195C133.513 20.1641 132.86 19.9698 132.254 19.7367C131.657 19.4948 131.136 19.2056 130.692 18.8688C130.256 18.5321 129.915 18.1349 129.667 17.6772C129.42 17.2109 129.296 16.6799 129.296 16.0841C129.296 15.4969 129.42 14.9443 129.667 14.4262C129.923 13.9081 130.286 13.4505 130.756 13.0533C131.234 12.6474 131.814 12.3323 132.497 12.1078C133.189 11.8746 133.966 11.7581 134.828 11.7581C136.032 11.7581 137.065 11.9523 137.927 12.3409C138.798 12.7295 139.464 13.2648 139.925 13.947C140.395 14.6205 140.629 15.389 140.629 16.2525H136.941C136.941 15.8898 136.864 15.566 136.711 15.2811C136.566 14.9875 136.335 14.7587 136.019 14.5946C135.712 14.4219 135.311 14.3356 134.815 14.3356C134.406 14.3356 134.051 14.409 133.753 14.5557C133.454 14.6939 133.223 14.8839 133.061 15.1256C132.907 15.3588 132.83 15.6178 132.83 15.9028C132.83 16.1187 132.873 16.3129 132.959 16.4856C133.052 16.6497 133.202 16.8008 133.407 16.939C133.612 17.0771 133.876 17.2066 134.201 17.3275C134.534 17.4398 134.943 17.5434 135.43 17.6383C136.429 17.8457 137.321 18.1176 138.107 18.4544C138.892 18.7825 139.515 19.2316 139.976 19.8014C140.437 20.3627 140.668 21.101 140.668 22.0163C140.668 22.638 140.531 23.2079 140.258 23.726C139.985 24.2441 139.592 24.6974 139.08 25.0859C138.568 25.4659 137.953 25.7638 137.236 25.9796C136.527 26.1869 135.729 26.2906 134.841 26.2906C133.552 26.2906 132.459 26.0573 131.563 25.5911C130.675 25.1248 130 24.5333 129.539 23.8166C129.087 23.0913 128.861 22.3487 128.861 21.5889H132.357C132.374 22.0983 132.502 22.5085 132.741 22.8194C132.988 23.1302 133.3 23.3546 133.676 23.4928C134.06 23.631 134.474 23.7 134.918 23.7C135.396 23.7 135.793 23.6353 136.109 23.5057C136.425 23.3676 136.664 23.1863 136.826 22.9618C136.997 22.7286 137.082 22.4609 137.082 22.1588ZM149.85 12.0171V14.6594H141.782V12.0171H149.85ZM143.78 8.55883H147.468V21.809C147.468 22.2149 147.519 22.5257 147.621 22.7416C147.732 22.9575 147.895 23.1086 148.108 23.1949C148.322 23.2726 148.59 23.3115 148.915 23.3115C149.145 23.3115 149.35 23.3028 149.53 23.2856C149.717 23.2597 149.875 23.2338 150.003 23.2079L150.016 25.9538C149.7 26.0574 149.359 26.1395 148.992 26.1998C148.625 26.2603 148.219 26.2906 147.775 26.2906C146.964 26.2906 146.256 26.1567 145.649 25.889C145.052 25.6127 144.591 25.1724 144.266 24.5679C143.942 23.9634 143.78 23.1691 143.78 22.1846V8.55883Z" fill="#001233"/>
</g>
<defs>
<clipPath id="clip0_6_3270">
<rect width="106" height="21" fill="white" transform="translate(44.2424 6.13675)"/>
</clipPath>
</defs>
</svg>
