<svg width="50" height="31" viewBox="0 0 50 31" fill="none" xmlns="http://www.w3.org/2000/svg">
<path d="M49.5842 29.3393C49.5842 30.2487 48.8329 31 47.9235 31H1.66071C0.751268 31 0 30.2487 0 29.3393V1.66071C0 0.751274 0.751268 0 1.66071 0H47.963C48.8724 0 49.6237 0.751274 49.6237 1.66071V29.3393H49.5842Z" fill="#862165"/>
<path d="M33.5692 11.4275L36.0208 10.9925V20.4823H33.5692V11.4275ZM37.1675 11.4275V20.4428H39.619V10.953L37.1675 11.4275ZM30.0501 20.4823H32.5017V13.5627H30.0501V20.4823ZM13.7198 14.5117C13.4034 14.4721 12.6917 14.4326 12.6917 13.7999C12.6917 13.0091 13.7198 13.0091 14.1152 13.0091C14.7874 13.0091 15.6968 13.2068 16.3295 13.4045C16.3295 13.4045 16.6853 13.5232 17.0017 13.6418H17.0412V13.6022V11.467H17.0017C16.2504 11.1902 15.3805 10.953 13.7593 10.953C10.9915 10.953 10.0029 12.5742 10.0029 13.9581C10.0029 14.7489 10.3588 16.6469 13.5221 16.8446C13.7989 16.8446 14.5106 16.8841 14.5106 17.5563C14.5106 18.1099 13.9175 18.4262 12.929 18.4262C11.8614 18.4262 10.7938 18.1494 10.1611 17.8726V20.0869C11.1101 20.3242 12.1777 20.4428 13.443 20.4428C16.1713 20.4428 17.3971 18.9007 17.3971 17.3982C17.3575 15.8165 16.0131 14.6698 13.7198 14.5117ZM28.6662 13.4441C26.3728 13.5232 25.2261 14.5512 25.2261 16.5678V20.4823H27.7172V17.3191C27.7172 16.0933 27.8754 15.5793 29.3384 15.5397V13.5231C29.0616 13.4441 28.6662 13.4441 28.6662 13.4441ZM21.9443 13.5231C21.9047 13.6813 21.5093 14.7885 20.5208 15.9351V10.9925L17.9902 11.5066V20.4823H20.5208V17.7145C21.2721 18.8216 21.6279 20.4823 21.6279 20.4823H24.6726C24.3562 19.217 23.0514 16.9237 23.0514 16.9237C24.2376 15.4211 24.7517 13.7999 24.8307 13.5627H21.9443V13.5231ZM31.2759 12.8905C31.9481 12.8905 32.5017 12.3369 32.5017 11.6647C32.5017 10.9925 31.9481 10.439 31.2759 10.439C30.6037 10.439 30.0501 10.9925 30.0501 11.6647C30.0501 12.3369 30.6037 12.8905 31.2759 12.8905Z" fill="white"/>
</svg>
