<svg width="60" height="58" viewBox="0 0 60 58" fill="none" xmlns="http://www.w3.org/2000/svg">
<path d="M42.2171 14.0928C42.5832 14.4589 42.5832 15.0525 42.2171 15.4186C42.0341 15.6016 41.7941 15.6931 41.5542 15.6931C41.3142 15.6931 41.0743 15.6016 40.8913 15.4186C34.8859 9.41316 25.1142 9.41316 19.1088 15.4186C18.7426 15.7848 18.1492 15.7848 17.783 15.4186C17.4169 15.0525 17.4169 14.4589 17.783 14.0928C24.5195 7.35629 35.4805 7.35629 42.2171 14.0928ZM30 13.3897C26.5489 13.3897 23.3042 14.7336 20.8639 17.1739C20.4978 17.54 20.4978 18.1336 20.8639 18.4996C21.2301 18.8659 21.8236 18.8659 22.1898 18.4996C24.276 16.4135 27.0497 15.2646 29.9999 15.2646C32.9501 15.2646 35.7238 16.4135 37.8099 18.4996C37.993 18.6827 38.2329 18.7742 38.4729 18.7742C38.7128 18.7742 38.9528 18.6827 39.1358 18.4996C39.5019 18.1336 39.5019 17.54 39.1358 17.1739C36.6956 14.7336 33.451 13.3897 30 13.3897ZM30 17.747C27.7126 17.747 25.5624 18.6377 23.945 20.255C23.5789 20.6211 23.5789 21.2146 23.945 21.5807C24.3112 21.947 24.9047 21.9467 25.2709 21.5807C26.5339 20.3176 28.2135 19.622 29.9999 19.622C31.7863 19.622 33.4657 20.3176 34.7289 21.5807C34.9119 21.7638 35.1519 21.8553 35.3918 21.8553C35.6318 21.8553 35.8717 21.7638 36.0547 21.5807C36.4208 21.2146 36.4208 20.6211 36.0547 20.255C34.4375 18.6377 32.2872 17.747 30 17.747ZM33.2267 25.331C33.2267 27.1102 31.7791 28.5579 30 28.5579C28.2208 28.5579 26.7732 27.1102 26.7732 25.331C26.7732 23.5517 28.2208 22.1042 30 22.1042C31.7791 22.1042 33.2267 23.5518 33.2267 25.331ZM31.3517 25.331C31.3517 24.5857 30.7453 23.9792 30 23.9792C29.2547 23.9792 28.6482 24.5855 28.6482 25.331C28.6482 26.0764 29.2547 26.6829 30 26.6829C30.7453 26.6829 31.3517 26.0764 31.3517 25.331ZM59.7548 47.4328V55.5168C59.7548 56.7267 58.7706 57.7109 57.5607 57.7109H42.9787C41.769 57.7109 40.7847 56.7267 40.7847 55.5168V45.5018C40.7847 44.292 41.7689 43.3078 42.9787 43.3078H45.1553C45.3664 43.3078 45.5715 43.379 45.7371 43.5102L47.9212 45.2388H49.3324V39.3813H30.9375V45.2388H37.291C38.5008 45.2388 39.4851 46.223 39.4851 47.4329V55.517C39.4851 56.7268 38.5009 57.7111 37.291 57.7111H22.7089C21.4992 57.7111 20.5149 56.7268 20.5149 55.517V45.5019C20.5149 44.2921 21.4991 43.3079 22.7089 43.3079H24.8855C25.0966 43.3079 25.3017 43.3791 25.4673 43.5103L27.6514 45.2389H29.0625V39.3814H10.6676V45.2389H17.0211C18.2308 45.2389 19.2152 46.2232 19.2152 47.433V55.5171C19.2152 56.7269 18.231 57.7112 17.0211 57.7112H2.43901C1.22928 57.7112 0.245026 56.7269 0.245026 55.5171V45.502C0.245026 44.2923 1.22917 43.308 2.43901 43.308H4.61553C4.82671 43.308 5.03178 43.3793 5.19737 43.5104L7.38151 45.239H8.79256V38.444C8.79256 37.9263 9.21233 37.5065 9.73006 37.5065H29.0625V33.0534H17.3955C11.4246 33.0534 6.56694 28.1957 6.56694 22.2249C6.56694 19.6658 7.48768 17.1754 9.1596 15.2127C10.6589 13.4526 12.6733 12.2206 14.8959 11.6902C15.2318 5.34687 20.4982 0.289062 26.9236 0.289062C30.4671 0.289062 33.8464 1.87227 36.1243 4.56195C37.0915 4.06789 38.1614 3.80996 39.2628 3.80996C43.0748 3.80996 46.1762 6.91121 46.1762 10.7233C46.1762 11.1429 46.1387 11.5589 46.0642 11.9677C48.0166 12.6329 49.769 13.8609 51.0694 15.4903C52.5936 17.4001 53.433 19.7919 53.433 22.2249C53.433 28.1957 48.5754 33.0534 42.6044 33.0534H30.9375V37.5065H50.2699C50.7876 37.5065 51.2074 37.9263 51.2074 38.444V45.239H57.5608C58.7706 45.2388 59.7548 46.223 59.7548 47.4328ZM17.3955 31.1782H42.6043C47.5414 31.1782 51.5579 27.1617 51.5579 22.2247C51.5579 18.0843 48.7425 14.5066 44.7112 13.5241C44.4566 13.462 44.2397 13.2963 44.1129 13.067C43.9861 12.8376 43.961 12.5657 44.0439 12.3171C44.2146 11.8045 44.3011 11.2682 44.3011 10.7232C44.3011 7.94504 42.0409 5.68484 39.2627 5.68484C38.2438 5.68484 37.2623 5.98754 36.4244 6.56C36.0068 6.84547 35.4375 6.74797 35.1387 6.33922C33.2276 3.72488 30.1564 2.16406 26.9236 2.16406C21.3159 2.16406 16.7539 6.72617 16.7539 12.3337L16.7555 12.4508C16.7605 12.9145 16.4258 13.3122 15.968 13.3863C11.6775 14.0816 8.44194 17.8811 8.44194 22.2246C8.44194 27.1617 12.4584 31.1782 17.3955 31.1782ZM17.0211 47.1138H7.05538C6.84421 47.1138 6.63913 47.0425 6.47354 46.9114L4.2894 45.1828H2.43901C2.26604 45.1828 2.12003 45.3289 2.12003 45.5018V55.5168C2.12003 55.6898 2.26604 55.8359 2.43901 55.8359H17.0211C17.1941 55.8359 17.3402 55.6898 17.3402 55.5168V47.4328C17.3402 47.2598 17.1941 47.1138 17.0211 47.1138ZM37.291 47.1138H27.3253C27.1141 47.1138 26.909 47.0425 26.7435 46.9114L24.5593 45.1828H22.7089C22.536 45.1828 22.3899 45.3289 22.3899 45.5018V55.5168C22.3899 55.6898 22.536 55.8359 22.7089 55.8359H37.291C37.464 55.8359 37.6101 55.6898 37.6101 55.5168V47.4328C37.61 47.2598 37.4639 47.1138 37.291 47.1138ZM57.8798 47.4328C57.8798 47.2598 57.7337 47.1137 57.5607 47.1137H47.595C47.3838 47.1137 47.1787 47.0424 47.0131 46.9113L44.829 45.1827H42.9786C42.8056 45.1827 42.6596 45.3288 42.6596 45.5016V55.5167C42.6596 55.6897 42.8056 55.8358 42.9786 55.8358H57.5607C57.7337 55.8358 57.8798 55.6897 57.8798 55.5167V47.4328Z" fill="#FD5D07"/>
</svg>
