<svg width="60" height="59" viewBox="0 0 60 59" fill="none" xmlns="http://www.w3.org/2000/svg">
<path d="M55.9576 34.5849C55.9386 34.5659 55.9292 34.547 55.9102 34.5375C53.3512 31.533 49.7306 29.7038 45.8257 29.3815V20.2827C45.8257 18.9937 44.7737 17.9417 43.4752 17.9417H41.0678V15.7523H43.4752C44.7737 15.7523 45.8257 14.7002 45.8257 13.4018V2.35052C45.8257 1.05205 44.7737 0 43.4752 0H2.35052C1.05205 0 0 1.05205 0 2.35052V13.3923C0 14.6908 1.05205 15.7428 2.35052 15.7428H4.75791V17.9322H2.35052C1.05205 17.9322 0 18.9843 0 20.2733V31.3245C0 32.623 1.05205 33.675 2.35052 33.675H4.75791V35.8739H2.35052C1.05205 35.8739 0 36.9259 0 38.2244V49.2662C0 50.5647 1.05205 51.6262 2.35052 51.6262H31.8079C33.3243 54.2231 35.6085 56.3557 38.4424 57.6541C38.9732 57.9006 39.5418 58.128 40.12 58.3081C41.5701 58.7631 43.0771 59 44.6125 59C46.2806 59 47.9108 58.7251 49.4652 58.1849H49.4747C50.2424 57.9195 51.0101 57.5783 51.7494 57.1802C51.7684 57.1708 51.7968 57.1518 51.8157 57.1423C56.5168 54.5169 59.4455 49.56 59.4455 44.1765C59.4455 41.3521 58.6493 38.6035 57.1423 36.2341C56.8011 35.6559 56.3936 35.1062 55.9576 34.5849ZM50.83 56.0334C50.4509 56.2325 50.0623 56.4125 49.6643 56.5642L43.4183 39.1059H46.2143L49.8538 51.1049C49.9486 51.4082 50.2235 51.6072 50.5362 51.6072H50.5457C50.8585 51.6072 51.1333 51.3987 51.2186 51.0954L53.7587 42.2431C53.8156 42.0345 53.7777 41.8071 53.6545 41.627C53.0858 40.8403 51.702 38.4803 52.138 37.0492C52.356 36.3383 52.8014 35.8076 53.408 35.5611C53.9104 35.3526 54.4696 35.381 54.9719 35.6085C55.3036 36.0066 55.6069 36.4236 55.8818 36.8501C56.3083 38.8974 55.133 42.3189 55.1141 42.3757L50.83 56.0334ZM39.8925 56.6874C39.703 56.6116 39.5039 56.5452 39.3144 56.4599L33.476 38.0728H35.9687L41.0299 53.1711L39.8925 56.6874ZM41.7502 50.8395L37.4757 38.0728H37.8263C38.2149 38.0728 38.5372 37.7505 38.5372 37.3619C38.5372 36.9733 38.2149 36.6511 37.8263 36.6511H36.49H33.4949C35.9782 32.9737 40.1295 30.7369 44.6125 30.7369C47.9014 30.7369 51.0291 31.95 53.4554 34.092C53.2564 34.13 53.0574 34.1868 52.8583 34.2626C51.8537 34.6702 51.1144 35.5232 50.7732 36.6511C50.1476 38.6888 51.702 41.2858 52.2991 42.1862L50.5173 48.3942L47.7023 39.1059H48.0341C48.4226 39.1059 48.7449 38.7836 48.7449 38.395C48.7449 38.0064 48.4226 37.6842 48.0341 37.6842H41.2289C40.8403 37.6842 40.5181 38.0064 40.5181 38.395C40.5181 38.7836 40.8403 39.1059 41.2289 39.1059H41.9208L43.769 44.2713L41.7502 50.8395ZM1.42169 13.3923V2.35052C1.42169 1.83871 1.83871 1.42169 2.35052 1.42169H43.4847C43.9965 1.42169 44.4135 1.83871 44.4135 2.35052V13.3923C44.4135 13.9041 43.9965 14.3211 43.4847 14.3211H2.35052C1.83871 14.3211 1.42169 13.9041 1.42169 13.3923ZM6.17012 15.7428H39.6461V17.9322H6.17012V15.7428ZM1.42169 31.334V20.2827C1.42169 19.7709 1.83871 19.3634 2.35052 19.3634H5.4498H5.45928H5.46876H40.3475H40.3569H40.3664H43.4752C43.987 19.3634 44.404 19.7804 44.404 20.2827V29.3247C41.2289 29.372 38.2244 30.4241 35.7602 32.2628H2.35052C1.83871 32.2533 1.42169 31.8363 1.42169 31.334ZM6.17012 33.675H34.1015C33.4381 34.3385 32.8315 35.0778 32.2912 35.8739H6.17012V33.675ZM2.35052 50.195C1.83871 50.195 1.42169 49.778 1.42169 49.2567V38.2244C1.42169 37.7126 1.83871 37.2956 2.35052 37.2956H31.4572C30.3577 39.3997 29.7796 41.7597 29.7796 44.1481C29.7796 46.2712 30.244 48.3184 31.0781 50.195H2.35052ZM31.1918 44.1481C31.1918 42.3473 31.5709 40.5749 32.2628 38.9353L37.5325 55.5406C33.6371 53.1142 31.1918 48.8112 31.1918 44.1481ZM41.2384 57.1329L42.4516 53.3891V53.3796L44.5462 46.5271L48.3089 57.0381C46.0247 57.692 43.551 57.7205 41.2384 57.1329ZM52.6877 54.8582L56.4599 42.8307C56.4978 42.7359 56.9907 41.2858 57.2466 39.6177C57.7679 41.0583 58.0333 42.5843 58.0333 44.1481C58.0333 48.3942 56.0239 52.3465 52.6877 54.8582Z" fill="#FD5D07"/>
</svg>
