<svg width="63" height="50" viewBox="0 0 63 50" fill="none" xmlns="http://www.w3.org/2000/svg">
<path d="M62.9411 27.7817C62.7189 25.6314 61.8452 23.6003 60.4368 21.9604C59.0284 20.3204 57.1527 19.1499 55.0606 18.6054C55.5358 16.089 55.0617 13.4857 53.7299 11.2984C52.3981 9.111 50.3031 7.49469 47.8494 6.76154C45.4639 6.05483 42.9042 6.22554 40.6337 7.24277C39.7944 6.02815 38.7985 4.92957 37.6718 3.97546C30.5894 -2.01876 19.9507 -1.13346 13.9564 5.94908C12.5184 7.64791 11.4319 9.61528 10.7599 11.7372C10.0879 13.859 9.84374 16.0932 10.0416 18.3101C7.31497 18.5003 4.87255 19.5469 3.0761 21.3147C1.09226 23.2661 0 25.9504 0 28.8739C0.00450961 31.3098 0.842917 33.6707 2.37574 35.5638C3.72012 37.2163 5.7058 39.1427 9.15608 39.3735C9.20087 39.3766 9.21588 39.3776 12.076 39.3786C12.2819 39.381 12.4833 39.3181 12.6513 39.199C12.8193 39.0799 12.9453 38.9107 13.0112 38.7156C13.0619 38.5668 13.0765 38.4081 13.0537 38.2525C13.0308 38.097 12.9713 37.9491 12.88 37.8212C12.7886 37.6932 12.6681 37.5889 12.5284 37.5168C12.3887 37.4447 12.2339 37.4069 12.0767 37.4065C11.0384 37.4065 9.48129 37.4054 9.26202 37.4042C6.60181 37.2171 5.06191 35.7406 3.90677 34.3207C2.65891 32.7793 1.97632 30.8571 1.97252 28.8739C1.97252 26.4839 2.85561 24.299 4.45912 22.7217C6.14482 21.0637 8.45239 20.2088 11.1365 20.2541L11.2561 20.256C11.3851 20.2581 11.5131 20.2319 11.631 20.1793C11.7489 20.1267 11.8538 20.049 11.9385 19.9516C12.0232 19.8541 12.0856 19.7394 12.1214 19.6154C12.1571 19.4913 12.1652 19.361 12.1453 19.2334L12.1267 19.1152C11.5941 15.7242 12.2526 12.2535 13.9902 9.29334C15.7279 6.33317 18.4374 4.06639 21.6578 2.8786C24.8783 1.6908 28.4108 1.65536 31.6544 2.77828C34.898 3.90121 37.6525 6.11316 39.4492 9.03786L39.5 9.12055C39.62 9.31552 39.8109 9.45646 40.0325 9.51381C40.2542 9.57116 40.4894 9.54046 40.689 9.42816L40.7735 9.38054C41.7552 8.83036 42.8371 8.48248 43.9555 8.35746C45.0739 8.23243 46.2059 8.33279 47.2849 8.65261C48.3428 8.96549 49.3281 9.4855 50.1833 10.1824C51.0386 10.8794 51.7469 11.7393 52.2669 12.7123C53.3206 14.704 53.5428 17.0318 52.8851 19.1869L52.8835 19.1923C52.8474 19.3135 52.8376 19.441 52.8548 19.5663C52.8721 19.6916 52.9159 19.8117 52.9835 19.9186C53.051 20.0255 53.1407 20.1167 53.2464 20.1861C53.3521 20.2555 53.4715 20.3015 53.5964 20.3209C55.1069 20.5449 56.5339 21.1556 57.7388 22.0937C58.6372 22.8028 59.3857 23.6833 59.9408 24.6842C60.496 25.685 60.8466 26.7862 60.9725 27.9238C61.0983 29.0614 60.9968 30.2126 60.6739 31.3106C60.3509 32.4086 59.813 33.4314 59.0913 34.3197C57.6239 36.1234 56.1549 37.3384 53.7578 37.404C53.5928 37.404 51.4164 37.406 50.5743 37.4065C50.4171 37.4069 50.2622 37.4447 50.1225 37.5169C49.9828 37.5891 49.8623 37.6935 49.7709 37.8215C49.6796 37.9495 49.6201 38.0975 49.5974 38.2531C49.5747 38.4086 49.5893 38.5674 49.6402 38.7162C49.7061 38.9113 49.8321 39.0805 50.0001 39.1996C50.168 39.3187 50.3694 39.3815 50.5753 39.3792C53.7622 39.377 53.782 39.3765 53.7991 39.3761C57.1494 39.2881 59.1276 37.3999 60.621 35.5641C61.5032 34.4848 62.1625 33.2412 62.5607 31.9053C62.959 30.5694 63.0883 29.1678 62.9411 27.7817Z" fill="#FD5D07"/>
<path d="M46.4727 17.4286H16.5249C16.3192 17.4286 16.1154 17.4691 15.9254 17.5478C15.7353 17.6266 15.5626 17.742 15.4171 17.8875C15.2716 18.033 15.1562 18.2057 15.0774 18.3958C14.9987 18.5858 14.9582 18.7896 14.9582 18.9953V25.3434C14.9582 25.5491 14.9987 25.7529 15.0774 25.943C15.1562 26.133 15.2716 26.3058 15.4171 26.4512C15.5626 26.5967 15.7353 26.7121 15.9254 26.7909C16.1154 26.8696 16.3192 26.9101 16.5249 26.9101H46.4729C46.6786 26.9101 46.8823 26.8696 47.0724 26.7909C47.2625 26.7121 47.4352 26.5967 47.5807 26.4512C47.7262 26.3058 47.8416 26.133 47.9203 25.943C47.9991 25.7529 48.0396 25.5491 48.0396 25.3434V18.9954C48.0396 18.5799 47.8745 18.1813 47.5807 17.8875C47.2868 17.5937 46.8883 17.4286 46.4727 17.4286ZM46.0667 24.9376H16.931V19.4006H46.0678L46.0667 24.9376Z" fill="#FD5D07"/>
<path d="M20.0375 23.1558H32.359C32.6135 23.1591 32.8599 23.066 33.0486 22.8953C33.2374 22.7245 33.3547 22.4888 33.377 22.2352C33.3859 22.1004 33.3671 21.9653 33.3217 21.8381C33.2763 21.7109 33.2053 21.5943 33.113 21.4957C33.0207 21.3971 32.9091 21.3185 32.7852 21.2647C32.6613 21.211 32.5277 21.1833 32.3926 21.1833H20.0713C19.8168 21.1801 19.5705 21.2731 19.3817 21.4439C19.1929 21.6146 19.0757 21.8504 19.0534 22.1039C19.0444 22.2387 19.0632 22.3738 19.1086 22.501C19.154 22.6282 19.225 22.7447 19.3173 22.8433C19.4095 22.942 19.5211 23.0206 19.645 23.0743C19.7688 23.1281 19.9025 23.1558 20.0375 23.1558Z" fill="#FD5D07"/>
<path d="M37.2102 23.1558H37.7422C37.9967 23.1591 38.243 23.066 38.4318 22.8953C38.6206 22.7245 38.7378 22.4888 38.7601 22.2352C38.7691 22.1004 38.7503 21.9653 38.7049 21.8381C38.6595 21.7109 38.5884 21.5943 38.4961 21.4957C38.4038 21.3971 38.2923 21.3185 38.1684 21.2647C38.0444 21.211 37.9108 21.1833 37.7757 21.1833H37.2437C36.9892 21.1801 36.7429 21.2731 36.5541 21.4439C36.3653 21.6146 36.248 21.8504 36.2258 22.1039C36.2168 22.2387 36.2356 22.3739 36.281 22.5011C36.3264 22.6283 36.3975 22.7449 36.4898 22.8435C36.5821 22.9421 36.6936 23.0207 36.8176 23.0744C36.9415 23.1282 37.0752 23.1559 37.2102 23.1558Z" fill="#FD5D07"/>
<path d="M40.9049 23.1558H41.4371C41.6916 23.159 41.9379 23.066 42.1266 22.8952C42.3154 22.7245 42.4327 22.4887 42.4549 22.2352C42.4639 22.1004 42.4451 21.9653 42.3997 21.838C42.3543 21.7108 42.2833 21.5943 42.191 21.4957C42.0987 21.397 41.9871 21.3184 41.8632 21.2647C41.7393 21.211 41.6056 21.1833 41.4706 21.1833H40.9385C40.684 21.1801 40.4377 21.2731 40.2489 21.4439C40.0601 21.6146 39.9428 21.8504 39.9206 22.1039C39.9116 22.2387 39.9304 22.3739 39.9758 22.5011C40.0212 22.6283 40.0923 22.7448 40.1845 22.8434C40.2768 22.9421 40.3884 23.0207 40.5123 23.0744C40.6362 23.1281 40.7699 23.1559 40.9049 23.1558Z" fill="#FD5D07"/>
<path d="M46.4727 28.6327H16.5249C16.3192 28.6327 16.1154 28.6732 15.9254 28.7519C15.7353 28.8307 15.5626 28.9461 15.4171 29.0916C15.2716 29.2371 15.1562 29.4098 15.0774 29.5999C14.9987 29.7899 14.9582 29.9937 14.9582 30.1994V36.5475C14.9582 36.7532 14.9987 36.957 15.0774 37.1471C15.1562 37.3371 15.2716 37.5099 15.4171 37.6553C15.5626 37.8008 15.7353 37.9162 15.9254 37.995C16.1154 38.0737 16.3192 38.1142 16.5249 38.1142H46.4729C46.6786 38.1142 46.8823 38.0737 47.0724 37.995C47.2625 37.9162 47.4352 37.8008 47.5807 37.6553C47.7262 37.5099 47.8416 37.3371 47.9203 37.1471C47.9991 36.957 48.0396 36.7532 48.0396 36.5475V30.1994C48.0395 29.7839 47.8745 29.3854 47.5806 29.0916C47.2868 28.7978 46.8883 28.6327 46.4727 28.6327ZM46.0667 36.1417H16.931V30.6047H46.0678L46.0667 36.1417Z" fill="#FD5D07"/>
<path d="M20.0375 34.3597H32.359C32.6135 34.3629 32.8598 34.2699 33.0486 34.0991C33.2374 33.9284 33.3547 33.6926 33.3769 33.4391C33.3859 33.3043 33.3671 33.1691 33.3217 33.0419C33.2763 32.9147 33.2052 32.7982 33.1129 32.6996C33.0207 32.601 32.9091 32.5224 32.7852 32.4686C32.6613 32.4149 32.5277 32.3872 32.3926 32.3872H20.0713C19.8168 32.3839 19.5704 32.477 19.3817 32.6478C19.1929 32.8185 19.0756 33.0543 19.0534 33.3079C19.0444 33.4426 19.0632 33.5778 19.1086 33.705C19.154 33.8321 19.225 33.9486 19.3173 34.0472C19.4096 34.1458 19.5211 34.2245 19.645 34.2782C19.7689 34.3319 19.9025 34.3597 20.0375 34.3597Z" fill="#FD5D07"/>
<path d="M37.2102 34.3597H37.7421C37.9967 34.3629 38.243 34.2699 38.4318 34.0991C38.6205 33.9284 38.7378 33.6926 38.7601 33.4391C38.7691 33.3043 38.7502 33.1691 38.7048 33.0419C38.6594 32.9147 38.5884 32.7982 38.4961 32.6996C38.4038 32.601 38.2922 32.5224 38.1683 32.4686C38.0444 32.4149 37.9108 32.3872 37.7757 32.3872H37.2437C36.9892 32.3839 36.7428 32.477 36.554 32.6478C36.3652 32.8185 36.248 33.0543 36.2257 33.3079C36.2168 33.4427 36.2356 33.5778 36.281 33.7051C36.3264 33.8323 36.3975 33.9488 36.4898 34.0474C36.5821 34.146 36.6937 34.2246 36.8176 34.2783C36.9415 34.332 37.0752 34.3597 37.2102 34.3597Z" fill="#FD5D07"/>
<path d="M40.9049 34.3597H41.4371C41.6916 34.3629 41.9379 34.2698 42.1266 34.0991C42.3154 33.9284 42.4326 33.6926 42.4549 33.4391C42.4639 33.3043 42.4451 33.1691 42.3997 33.0419C42.3543 32.9147 42.2832 32.7982 42.1909 32.6996C42.0987 32.6009 41.9871 32.5223 41.8632 32.4686C41.7393 32.4148 41.6056 32.3871 41.4706 32.3872H40.9385C40.684 32.3839 40.4376 32.477 40.2489 32.6478C40.0601 32.8185 39.9428 33.0543 39.9206 33.3079C39.9116 33.4427 39.9304 33.5778 39.9758 33.705C40.0212 33.8322 40.0923 33.9487 40.1846 34.0473C40.2769 34.1459 40.3884 34.2245 40.5123 34.2783C40.6362 34.332 40.7699 34.3597 40.9049 34.3597Z" fill="#FD5D07"/>
<path d="M46.4729 39.8368H16.5249C16.1095 39.8372 15.7113 40.0025 15.4176 40.2962C15.1239 40.5899 14.9586 40.9881 14.9582 41.4035V47.7516C14.9586 48.167 15.1239 48.5652 15.4176 48.8589C15.7113 49.1527 16.1095 49.3179 16.5249 49.3183H46.4729C46.8882 49.3179 47.2865 49.1527 47.5802 48.8589C47.8739 48.5652 48.0391 48.167 48.0396 47.7516V41.4035C48.0391 40.9881 47.8739 40.5899 47.5802 40.2962C47.2865 40.0025 46.8882 39.8372 46.4729 39.8368ZM46.0668 47.3458H16.931V41.8088H46.0678L46.0668 47.3458Z" fill="#FD5D07"/>
<path d="M20.0374 45.5636H32.3927C32.5231 45.5651 32.6526 45.5407 32.7735 45.4918C32.8944 45.4428 33.0045 45.3704 33.0972 45.2787C33.19 45.187 33.2636 45.0778 33.3139 44.9574C33.3641 44.837 33.39 44.7078 33.39 44.5774C33.39 44.4469 33.3641 44.3178 33.3139 44.1974C33.2636 44.077 33.19 43.9678 33.0972 43.8761C33.0045 43.7843 32.8944 43.7119 32.7735 43.663C32.6526 43.6141 32.5231 43.5897 32.3927 43.5911H20.0374C19.7778 43.594 19.5297 43.6992 19.3471 43.8839C19.1645 44.0685 19.0621 44.3177 19.0621 44.5774C19.0621 44.8371 19.1645 45.0863 19.3471 45.2709C19.5297 45.4556 19.7778 45.5607 20.0374 45.5636Z" fill="#FD5D07"/>
<path d="M37.2103 45.5636H37.7763C38.036 45.5607 38.284 45.4556 38.4666 45.2709C38.6492 45.0863 38.7516 44.8371 38.7516 44.5774C38.7516 44.3177 38.6492 44.0685 38.4666 43.8839C38.284 43.6992 38.036 43.594 37.7763 43.5911H37.2103C37.0798 43.5897 36.9504 43.6141 36.8295 43.663C36.7085 43.7119 36.5985 43.7843 36.5057 43.8761C36.413 43.9678 36.3393 44.077 36.2891 44.1974C36.2388 44.3178 36.213 44.4469 36.213 44.5774C36.213 44.7078 36.2388 44.837 36.2891 44.9574C36.3393 45.0778 36.413 45.187 36.5057 45.2787C36.5985 45.3704 36.7085 45.4428 36.8295 45.4918C36.9504 45.5407 37.0798 45.5651 37.2103 45.5636Z" fill="#FD5D07"/>
<path d="M40.9049 45.5636H41.4709C41.6014 45.5651 41.7308 45.5407 41.8518 45.4918C41.9727 45.4428 42.0827 45.3704 42.1755 45.2787C42.2682 45.187 42.3419 45.0778 42.3921 44.9574C42.4424 44.837 42.4683 44.7078 42.4683 44.5774C42.4683 44.4469 42.4424 44.3178 42.3921 44.1974C42.3419 44.077 42.2682 43.9678 42.1755 43.8761C42.0827 43.7843 41.9727 43.7119 41.8518 43.663C41.7308 43.6141 41.6014 43.5897 41.4709 43.5911H40.9049C40.6453 43.594 40.3972 43.6992 40.2146 43.8839C40.032 44.0685 39.9296 44.3177 39.9296 44.5774C39.9296 44.8371 40.032 45.0863 40.2146 45.2709C40.3972 45.4556 40.6453 45.5607 40.9049 45.5636Z" fill="#FD5D07"/>
</svg>
