<svg width="56" height="59" viewBox="0 0 56 59" fill="none" xmlns="http://www.w3.org/2000/svg">
<path d="M17.9662 52.3459H5.54512C4.93256 52.3459 4.4361 52.8424 4.4361 53.455C4.4361 54.0675 4.93256 54.564 5.54512 54.564H17.9662C18.5787 54.564 19.0752 54.0675 19.0752 53.455C19.0752 52.8424 18.5787 52.3459 17.9662 52.3459Z" fill="#FD5D07"/>
<path d="M9.09399 38.1504H5.54512C4.93256 38.1504 4.4361 38.6469 4.4361 39.2594C4.4361 39.872 4.93256 40.3684 5.54512 40.3684H9.09399C9.70655 40.3684 10.203 39.872 10.203 39.2594C10.203 38.6469 9.70655 38.1504 9.09399 38.1504Z" fill="#FD5D07"/>
<path d="M17.9662 38.1504H14.4173C13.8047 38.1504 13.3083 38.6469 13.3083 39.2594C13.3083 39.872 13.8047 40.3684 14.4173 40.3684H17.9662C18.5787 40.3684 19.0752 39.872 19.0752 39.2594C19.0752 38.6469 18.5787 38.1504 17.9662 38.1504Z" fill="#FD5D07"/>
<path d="M51.6805 33.7143H43.6955C43.4013 33.7143 43.1193 33.8313 42.9114 34.0392L38.7283 38.2222C38.6152 38.1834 38.4985 38.1504 38.3722 38.1504H30.609V30.609H46.3571C50.3929 30.609 53.6767 27.3253 53.6767 23.2895C53.6767 19.6271 50.9726 16.5842 47.4501 16.0522C47.1542 10.7142 42.8234 6.43407 37.4646 6.21919C36.5666 2.61227 33.301 0 29.5 0C25.6669 0 22.4243 2.60533 21.5332 6.22525C21.3816 6.21573 21.2274 6.21053 21.0714 6.21053C17.4779 6.21053 14.5195 8.98135 14.2202 12.4982C10.9477 14.0906 8.87218 17.3796 8.87218 21.0714C8.87218 26.1521 12.8417 30.337 17.9025 30.5986L17.916 30.5989C17.9336 30.5997 17.9484 30.609 17.9662 30.609H28.391V38.1504H23.5113V37.485C23.5113 35.4055 21.8196 33.7143 19.7406 33.7143H3.77068C1.69169 33.7143 0 35.4055 0 37.485V41.0338C0 43.0373 1.57478 44.6647 3.54887 44.7821V47.9322C1.57478 48.0496 0 49.677 0 51.6805V55.2293C0 57.3087 1.69169 59 3.77068 59H19.7406C21.8196 59 23.5113 57.3087 23.5113 55.2293V51.6805C23.5113 49.677 21.9365 48.0496 19.9624 47.9322V44.7821C21.9365 44.6647 23.5113 43.0373 23.5113 41.0338V40.3684H36.5821L35.8136 41.1369C35.6057 41.3449 35.4887 41.6273 35.4887 41.9211V55.2293C35.4887 57.3087 37.1804 59 39.2594 59H51.6805C53.7594 59 55.4511 57.3087 55.4511 55.2293V37.485C55.4511 35.4055 53.7594 33.7143 51.6805 33.7143ZM11.0902 21.0714C11.0902 18.0442 12.9075 15.3704 15.7204 14.2605C16.2182 14.0638 16.5045 13.5405 16.4014 13.0154C16.4075 13.0449 16.4127 13.0787 16.4135 13.0865C16.4135 10.5184 18.5029 8.42858 21.0714 8.42858C21.4618 8.42858 21.8252 8.47276 22.1519 8.56028C22.4642 8.64432 22.8004 8.5854 23.0681 8.40085C23.3354 8.2163 23.5082 7.92345 23.5412 7.60028C23.8526 4.53227 26.4142 2.21805 29.5 2.21805C32.5177 2.21805 35.0728 4.47335 35.4437 7.46425C35.5151 8.04302 36.0263 8.4615 36.6047 8.43552C36.7264 8.42859 36.8542 8.42859 36.9829 8.42859C41.5264 8.42079 45.2481 12.0901 45.2481 16.6354C45.2481 16.7645 45.2485 16.8866 45.2412 17.0157C45.2239 17.3198 45.3369 17.6187 45.5466 17.8406C45.7558 18.0624 46.0522 18.188 46.3571 18.188C49.17 18.188 51.4586 20.4762 51.4586 23.2895C51.4586 26.1028 49.17 28.391 46.3571 28.391H34.1579V19.9624H37.0283C37.4512 19.9624 37.8372 19.7224 38.0234 19.3429C38.2101 18.9634 38.1647 18.5112 37.9065 18.1759L30.3781 8.41646C29.9579 7.87235 29.0421 7.87235 28.6219 8.41646L21.0935 18.1759C20.8353 18.5112 20.7898 18.9634 20.9765 19.3429C21.1628 19.7224 21.5488 19.9624 21.9716 19.9624H24.8421V28.391H18.4098C18.2913 28.3918 18.1764 28.3908 18.0529 28.3846L18.0298 28.3841H18.0233C14.1357 28.1831 11.0902 24.9703 11.0902 21.0714ZM25.9511 17.7444H24.2278L29.5 10.91L34.7722 17.7444H33.0489C32.4363 17.7444 31.9398 18.2408 31.9398 18.8534V28.391H27.0602V18.8534C27.0602 18.2408 26.5637 17.7444 25.9511 17.7444ZM17.7444 47.9098H5.76692V44.8045H17.7444V47.9098ZM21.2932 51.6805V55.2293C21.2932 56.0854 20.5966 56.782 19.7406 56.782H3.77068C2.91465 56.782 2.21805 56.0854 2.21805 55.2293V51.6805C2.21805 50.8244 2.91465 50.1278 3.77068 50.1278H19.7406C20.5966 50.1278 21.2932 50.8244 21.2932 51.6805ZM21.2932 41.0338C21.2932 41.8899 20.5966 42.5865 19.7406 42.5865H3.77068C2.91465 42.5865 2.21805 41.8899 2.21805 41.0338V37.485C2.21805 36.6289 2.91465 35.9323 3.77068 35.9323H19.7406C20.5966 35.9323 21.2932 36.6289 21.2932 37.485V41.0338ZM53.2331 55.2293C53.2331 56.0854 52.5365 56.782 51.6805 56.782H39.2594C38.4034 56.782 37.7068 56.0854 37.7068 55.2293V42.3803L44.1547 35.9323H51.6805C52.5365 35.9323 53.2331 36.6289 53.2331 37.485V55.2293Z" fill="#FD5D07"/>
<path d="M49.0188 51.4586H41.921C41.3085 51.4586 40.812 51.9551 40.812 52.5676C40.812 53.1802 41.3085 53.6767 41.921 53.6767H49.0188C49.6314 53.6767 50.1278 53.1802 50.1278 52.5676C50.1278 51.9551 49.6314 51.4586 49.0188 51.4586Z" fill="#FD5D07"/>
<path d="M49.0188 46.1353H41.921C41.3085 46.1353 40.812 46.6317 40.812 47.2443C40.812 47.8568 41.3085 48.3533 41.921 48.3533H49.0188C49.6314 48.3533 50.1278 47.8568 50.1278 47.2443C50.1278 46.6317 49.6314 46.1353 49.0188 46.1353Z" fill="#FD5D07"/>
</svg>
