<svg width="51" height="51" viewBox="0 0 51 51" fill="none" xmlns="http://www.w3.org/2000/svg">
<g clip-path="url(#clip0_50_144)">
<path d="M8.92501 5.52502C6.81616 5.52502 5.10001 7.24117 5.10001 9.35002C5.10001 11.4589 6.81616 13.175 8.92501 13.175C11.0339 13.175 12.75 11.4589 12.75 9.35002C12.75 7.24117 11.0339 5.52502 8.92501 5.52502ZM8.92501 11.475C7.75371 11.475 6.80001 10.5222 6.80001 9.35002C6.80001 8.17787 7.75371 7.22502 8.92501 7.22502C10.0963 7.22502 11.05 8.17787 11.05 9.35002C11.05 10.5222 10.0963 11.475 8.92501 11.475Z" fill="#FD5D07"/>
<path d="M42.5 8.9251C42.9694 8.9251 43.35 8.54454 43.35 8.0751C43.35 7.60566 42.9694 7.2251 42.5 7.2251C42.0306 7.2251 41.65 7.60566 41.65 8.0751C41.65 8.54454 42.0306 8.9251 42.5 8.9251Z" fill="#FD5D07"/>
<path d="M39.1 8.9251C39.5694 8.9251 39.95 8.54454 39.95 8.0751C39.95 7.60566 39.5694 7.2251 39.1 7.2251C38.6306 7.2251 38.25 7.60566 38.25 8.0751C38.25 8.54454 38.6306 8.9251 39.1 8.9251Z" fill="#FD5D07"/>
<path d="M44.2 11.475C44.6694 11.475 45.05 11.0945 45.05 10.625C45.05 10.1556 44.6694 9.77502 44.2 9.77502C43.7306 9.77502 43.35 10.1556 43.35 10.625C43.35 11.0945 43.7306 11.475 44.2 11.475Z" fill="#FD5D07"/>
<path d="M40.8 11.475C41.2694 11.475 41.65 11.0945 41.65 10.625C41.65 10.1556 41.2694 9.77502 40.8 9.77502C40.3306 9.77502 39.95 10.1556 39.95 10.625C39.95 11.0945 40.3306 11.475 40.8 11.475Z" fill="#FD5D07"/>
<path d="M35.7 8.9251C36.1694 8.9251 36.55 8.54454 36.55 8.0751C36.55 7.60566 36.1694 7.2251 35.7 7.2251C35.2306 7.2251 34.85 7.60566 34.85 8.0751C34.85 8.54454 35.2306 8.9251 35.7 8.9251Z" fill="#FD5D07"/>
<path d="M37.4 11.475C37.8694 11.475 38.25 11.0945 38.25 10.625C38.25 10.1556 37.8694 9.77502 37.4 9.77502C36.9306 9.77502 36.55 10.1556 36.55 10.625C36.55 11.0945 36.9306 11.475 37.4 11.475Z" fill="#FD5D07"/>
<path d="M32.3 8.9251C32.7694 8.9251 33.15 8.54454 33.15 8.0751C33.15 7.60566 32.7694 7.2251 32.3 7.2251C31.8306 7.2251 31.45 7.60566 31.45 8.0751C31.45 8.54454 31.8306 8.9251 32.3 8.9251Z" fill="#FD5D07"/>
<path d="M34 11.475C34.4694 11.475 34.85 11.0945 34.85 10.625C34.85 10.1556 34.4694 9.77502 34 9.77502C33.5306 9.77502 33.15 10.1556 33.15 10.625C33.15 11.0945 33.5306 11.475 34 11.475Z" fill="#FD5D07"/>
<path d="M28.9 8.9251C29.3694 8.9251 29.75 8.54454 29.75 8.0751C29.75 7.60566 29.3694 7.2251 28.9 7.2251C28.4306 7.2251 28.05 7.60566 28.05 8.0751C28.05 8.54454 28.4306 8.9251 28.9 8.9251Z" fill="#FD5D07"/>
<path d="M30.6 11.475C31.0694 11.475 31.45 11.0945 31.45 10.625C31.45 10.1556 31.0694 9.77502 30.6 9.77502C30.1306 9.77502 29.75 10.1556 29.75 10.625C29.75 11.0945 30.1306 11.475 30.6 11.475Z" fill="#FD5D07"/>
<path d="M51 14.3582V4.34185C51 2.182 49.243 0.425049 47.0832 0.425049H3.9168C1.75695 0.425049 0 2.182 0 4.34185V14.3574C0 15.606 0.59755 16.7068 1.51045 17.4242C0.59755 18.1424 0 19.244 0 20.4918V30.5074C0 31.756 0.59755 32.8568 1.51045 33.5742C0.59755 34.2924 0 35.3941 0 36.6418V46.6574C0 48.8181 1.75695 50.575 3.9168 50.575H47.0824C49.2422 50.575 50.9992 48.8181 50.9992 46.6582V36.6418C50.9992 35.3932 50.4016 34.2924 49.4887 33.575C50.4025 32.8576 51 31.756 51 30.5082V20.4918C51 19.2432 50.4025 18.1424 49.4896 17.425C50.4025 16.7076 51 15.606 51 14.3582ZM49.3 36.6418V46.6574C49.3 47.8797 48.3055 48.8742 47.0832 48.8742H3.9168C2.6945 48.875 1.7 47.8805 1.7 46.6582V36.6418C1.7 35.4195 2.6945 34.425 3.9168 34.425H47.0824C48.3055 34.425 49.3 35.4195 49.3 36.6418ZM49.3 20.4918V30.5074C49.3 31.7297 48.3055 32.7242 47.0832 32.7242H3.9168C2.6945 32.725 1.7 31.7305 1.7 30.5082V20.4918C1.7 19.2695 2.6945 18.275 3.9168 18.275H47.0824C48.3055 18.275 49.3 19.2695 49.3 20.4918ZM3.9168 16.575C2.6945 16.575 1.7 15.5805 1.7 14.3582V4.34185C1.7 3.11955 2.6945 2.12505 3.9168 2.12505H47.0824C48.3055 2.12505 49.3 3.11955 49.3 4.34185V14.3574C49.3 15.5797 48.3055 16.5742 47.0832 16.5742L3.9168 16.575Z" fill="#FD5D07"/>
<path d="M8.92501 29.325C11.0339 29.325 12.75 27.6089 12.75 25.5C12.75 23.3912 11.0339 21.675 8.92501 21.675C6.81616 21.675 5.10001 23.3912 5.10001 25.5C5.10001 27.6089 6.81616 29.325 8.92501 29.325ZM8.92501 23.375C10.0963 23.375 11.05 24.3279 11.05 25.5C11.05 26.6722 10.0963 27.625 8.92501 27.625C7.75371 27.625 6.80001 26.6722 6.80001 25.5C6.80001 24.3279 7.75371 23.375 8.92501 23.375Z" fill="#FD5D07"/>
<path d="M42.5 25.075C42.9694 25.075 43.35 24.6944 43.35 24.225C43.35 23.7556 42.9694 23.375 42.5 23.375C42.0306 23.375 41.65 23.7556 41.65 24.225C41.65 24.6944 42.0306 25.075 42.5 25.075Z" fill="#FD5D07"/>
<path d="M39.1 25.075C39.5694 25.075 39.95 24.6944 39.95 24.225C39.95 23.7556 39.5694 23.375 39.1 23.375C38.6306 23.375 38.25 23.7556 38.25 24.225C38.25 24.6944 38.6306 25.075 39.1 25.075Z" fill="#FD5D07"/>
<path d="M44.2 27.625C44.6694 27.625 45.05 27.2445 45.05 26.775C45.05 26.3056 44.6694 25.925 44.2 25.925C43.7306 25.925 43.35 26.3056 43.35 26.775C43.35 27.2445 43.7306 27.625 44.2 27.625Z" fill="#FD5D07"/>
<path d="M40.8 27.625C41.2694 27.625 41.65 27.2445 41.65 26.775C41.65 26.3056 41.2694 25.925 40.8 25.925C40.3306 25.925 39.95 26.3056 39.95 26.775C39.95 27.2445 40.3306 27.625 40.8 27.625Z" fill="#FD5D07"/>
<path d="M35.7 25.075C36.1694 25.075 36.55 24.6944 36.55 24.225C36.55 23.7556 36.1694 23.375 35.7 23.375C35.2306 23.375 34.85 23.7556 34.85 24.225C34.85 24.6944 35.2306 25.075 35.7 25.075Z" fill="#FD5D07"/>
<path d="M37.4 27.625C37.8694 27.625 38.25 27.2445 38.25 26.775C38.25 26.3056 37.8694 25.925 37.4 25.925C36.9306 25.925 36.55 26.3056 36.55 26.775C36.55 27.2445 36.9306 27.625 37.4 27.625Z" fill="#FD5D07"/>
<path d="M32.3 25.075C32.7694 25.075 33.15 24.6944 33.15 24.225C33.15 23.7556 32.7694 23.375 32.3 23.375C31.8306 23.375 31.45 23.7556 31.45 24.225C31.45 24.6944 31.8306 25.075 32.3 25.075Z" fill="#FD5D07"/>
<path d="M34 27.625C34.4694 27.625 34.85 27.2445 34.85 26.775C34.85 26.3056 34.4694 25.925 34 25.925C33.5306 25.925 33.15 26.3056 33.15 26.775C33.15 27.2445 33.5306 27.625 34 27.625Z" fill="#FD5D07"/>
<path d="M28.9 25.075C29.3694 25.075 29.75 24.6944 29.75 24.225C29.75 23.7556 29.3694 23.375 28.9 23.375C28.4306 23.375 28.05 23.7556 28.05 24.225C28.05 24.6944 28.4306 25.075 28.9 25.075Z" fill="#FD5D07"/>
<path d="M30.6 27.625C31.0694 27.625 31.45 27.2445 31.45 26.775C31.45 26.3056 31.0694 25.925 30.6 25.925C30.1306 25.925 29.75 26.3056 29.75 26.775C29.75 27.2445 30.1306 27.625 30.6 27.625Z" fill="#FD5D07"/>
<path d="M8.92501 45.4751C11.0339 45.4751 12.75 43.7589 12.75 41.6501C12.75 39.5412 11.0339 37.8251 8.92501 37.8251C6.81616 37.8251 5.10001 39.5412 5.10001 41.6501C5.10001 43.7589 6.81616 45.4751 8.92501 45.4751ZM8.92501 39.5251C10.0963 39.5251 11.05 40.4779 11.05 41.6501C11.05 42.8222 10.0963 43.7751 8.92501 43.7751C7.75371 43.7751 6.80001 42.8222 6.80001 41.6501C6.80001 40.4779 7.75371 39.5251 8.92501 39.5251Z" fill="#FD5D07"/>
<path d="M42.5 41.225C42.9694 41.225 43.35 40.8445 43.35 40.375C43.35 39.9056 42.9694 39.525 42.5 39.525C42.0306 39.525 41.65 39.9056 41.65 40.375C41.65 40.8445 42.0306 41.225 42.5 41.225Z" fill="#FD5D07"/>
<path d="M39.1 41.225C39.5694 41.225 39.95 40.8445 39.95 40.375C39.95 39.9056 39.5694 39.525 39.1 39.525C38.6306 39.525 38.25 39.9056 38.25 40.375C38.25 40.8445 38.6306 41.225 39.1 41.225Z" fill="#FD5D07"/>
<path d="M44.2 43.7751C44.6694 43.7751 45.05 43.3945 45.05 42.9251C45.05 42.4556 44.6694 42.0751 44.2 42.0751C43.7306 42.0751 43.35 42.4556 43.35 42.9251C43.35 43.3945 43.7306 43.7751 44.2 43.7751Z" fill="#FD5D07"/>
<path d="M40.8 43.7751C41.2694 43.7751 41.65 43.3945 41.65 42.9251C41.65 42.4556 41.2694 42.0751 40.8 42.0751C40.3306 42.0751 39.95 42.4556 39.95 42.9251C39.95 43.3945 40.3306 43.7751 40.8 43.7751Z" fill="#FD5D07"/>
<path d="M35.7 41.225C36.1694 41.225 36.55 40.8445 36.55 40.375C36.55 39.9056 36.1694 39.525 35.7 39.525C35.2306 39.525 34.85 39.9056 34.85 40.375C34.85 40.8445 35.2306 41.225 35.7 41.225Z" fill="#FD5D07"/>
<path d="M37.4 43.7751C37.8694 43.7751 38.25 43.3945 38.25 42.9251C38.25 42.4556 37.8694 42.0751 37.4 42.0751C36.9306 42.0751 36.55 42.4556 36.55 42.9251C36.55 43.3945 36.9306 43.7751 37.4 43.7751Z" fill="#FD5D07"/>
<path d="M32.3 41.225C32.7694 41.225 33.15 40.8445 33.15 40.375C33.15 39.9056 32.7694 39.525 32.3 39.525C31.8306 39.525 31.45 39.9056 31.45 40.375C31.45 40.8445 31.8306 41.225 32.3 41.225Z" fill="#FD5D07"/>
<path d="M34 43.7751C34.4694 43.7751 34.85 43.3945 34.85 42.9251C34.85 42.4556 34.4694 42.0751 34 42.0751C33.5306 42.0751 33.15 42.4556 33.15 42.9251C33.15 43.3945 33.5306 43.7751 34 43.7751Z" fill="#FD5D07"/>
<path d="M28.9 41.225C29.3694 41.225 29.75 40.8445 29.75 40.375C29.75 39.9056 29.3694 39.525 28.9 39.525C28.4306 39.525 28.05 39.9056 28.05 40.375C28.05 40.8445 28.4306 41.225 28.9 41.225Z" fill="#FD5D07"/>
<path d="M30.6 43.7751C31.0694 43.7751 31.45 43.3945 31.45 42.9251C31.45 42.4556 31.0694 42.0751 30.6 42.0751C30.1306 42.0751 29.75 42.4556 29.75 42.9251C29.75 43.3945 30.1306 43.7751 30.6 43.7751Z" fill="#FD5D07"/>
</g>
<defs>
<clipPath id="clip0_50_144">
<rect width="51" height="51" fill="white"/>
</clipPath>
</defs>
</svg>
