<svg width="65" height="55" viewBox="0 0 65 55" fill="none" xmlns="http://www.w3.org/2000/svg">
<path d="M17.2839 49.1075H15.1786C14.4852 49.1075 13.9179 48.5409 13.9179 47.8484C13.9179 47.1559 14.4852 46.5894 15.1786 46.5894H17.2839C17.9773 46.5894 18.5446 47.1559 18.5446 47.8484C18.5446 48.5409 17.9773 49.1075 17.2839 49.1075Z" fill="#FD5D07"/>
<path d="M34.8074 49.1075H23.436C22.7427 49.1075 22.1754 48.5409 22.1754 47.8484C22.1754 47.1559 22.7427 46.5894 23.436 46.5894H34.8074C35.5007 46.5894 36.068 47.1559 36.068 47.8484C36.068 48.5409 35.5007 49.1075 34.8074 49.1075Z" fill="#FD5D07"/>
<path d="M17.2839 30.964H15.1786C14.4852 30.964 13.9179 30.3974 13.9179 29.7049C13.9179 29.0124 14.4852 28.4458 15.1786 28.4458H17.2839C17.9773 28.4458 18.5446 29.0124 18.5446 29.7049C18.5446 30.3974 17.9773 30.964 17.2839 30.964Z" fill="#FD5D07"/>
<path d="M38.9676 36.8566H4.13503C1.8532 36.8566 0 35.0057 0 32.7268V26.4817C0 24.2028 1.8532 22.3519 4.13503 22.3519H20.007C20.4986 22.3519 20.9525 22.6415 21.1542 23.0822C22.5914 26.1921 25.7304 28.2067 29.1469 28.2067H41.8545C42.5479 28.2067 43.1152 28.7733 43.1152 29.4658V32.7268C43.1152 35.0057 41.2494 36.8566 38.9676 36.8566ZM4.13503 24.8701C3.23994 24.8701 2.52136 25.6004 2.52136 26.4817V32.7268C2.52136 33.6207 3.25255 34.3384 4.13503 34.3384H38.9676C39.8627 34.3384 40.5812 33.6082 40.5812 32.7268V30.7248H29.1469C25.0119 30.7248 21.2046 28.4459 19.2253 24.8701H4.13503Z" fill="#FD5D07"/>
<path d="M38.9676 55H4.13503C1.8532 55 0 53.1492 0 50.8702V44.6252C0 42.3462 1.8532 40.4954 4.13503 40.4954H38.9676C41.2494 40.4954 43.1026 42.3462 43.1026 44.6252V50.8702C43.1152 53.1492 41.2494 55 38.9676 55ZM4.13503 43.0135C3.23994 43.0135 2.52136 43.7438 2.52136 44.6252V50.8702C2.52136 51.7642 3.25255 52.4819 4.13503 52.4819H38.9676C39.8627 52.4819 40.5812 51.7516 40.5812 50.8702V44.6252C40.5812 43.7312 39.8501 43.0135 38.9676 43.0135H4.13503Z" fill="#FD5D07"/>
<path d="M37.1396 43.0136H5.76129C5.06792 43.0136 4.50061 42.447 4.50061 41.7545V35.5976C4.50061 34.9051 5.06792 34.3385 5.76129 34.3385H37.1396C37.833 34.3385 38.4003 34.9051 38.4003 35.5976V41.7545C38.4003 42.447 37.833 43.0136 37.1396 43.0136ZM7.02197 40.4954H35.8789V36.8567H7.02197V40.4954Z" fill="#FD5D07"/>
<path d="M8.88778 49.0067C8.81214 49.0067 8.72389 48.9941 8.64825 48.9815C8.57261 48.9689 8.48436 48.9437 8.40872 48.906C8.33308 48.8682 8.25744 48.8304 8.19441 48.7926C8.11877 48.7423 8.05573 48.6919 8.00531 48.629C7.95488 48.566 7.89185 48.5031 7.85402 48.4401C7.8036 48.3771 7.76578 48.3016 7.74056 48.2261C7.70274 48.1505 7.69014 48.075 7.66492 47.9868C7.65232 47.8987 7.63971 47.8231 7.63971 47.735C7.63971 47.6469 7.65232 47.5713 7.66492 47.4832C7.67753 47.4076 7.70274 47.3195 7.74056 47.244C7.77838 47.1684 7.8162 47.0929 7.85402 47.0299C7.90445 46.967 7.95488 46.8914 8.00531 46.8411C8.05573 46.7907 8.13137 46.7277 8.19441 46.69C8.25744 46.6396 8.33308 46.6018 8.40872 46.5766C8.48436 46.5389 8.56 46.5263 8.64825 46.5011C8.81214 46.4633 8.97603 46.4633 9.13992 46.5011C9.21556 46.5137 9.30381 46.5389 9.37945 46.5766C9.45509 46.6144 9.53073 46.6522 9.59376 46.69C9.6568 46.7403 9.73244 46.7907 9.78286 46.8411C9.8459 46.904 9.89632 46.967 9.94675 47.0299C9.99718 47.0929 10.035 47.1684 10.0602 47.244C10.098 47.3195 10.1106 47.3951 10.1359 47.4832C10.1485 47.5587 10.1611 47.6469 10.1611 47.735C10.1611 47.8231 10.1485 47.8987 10.1359 47.9868C10.1232 48.0624 10.098 48.1505 10.0602 48.2261C10.0224 48.3016 9.98457 48.3771 9.94675 48.4401C9.89632 48.5031 9.8459 48.5786 9.78286 48.629C9.71983 48.6919 9.6568 48.7423 9.59376 48.7926C9.53073 48.843 9.45509 48.8808 9.37945 48.906C9.30381 48.9437 9.22816 48.9563 9.13992 48.9815C9.05167 49.0067 8.96342 49.0067 8.88778 49.0067Z" fill="#FD5D07"/>
<path d="M8.88778 30.9639C8.81214 30.9639 8.72389 30.9514 8.64825 30.9388C8.57261 30.9262 8.48436 30.901 8.40872 30.8632C8.33308 30.8254 8.25744 30.7877 8.19441 30.7499C8.11877 30.6995 8.05573 30.6492 8.00531 30.5862C7.95488 30.5233 7.89185 30.4603 7.85402 30.3974C7.8036 30.3344 7.76578 30.2589 7.74056 30.1833C7.70274 30.1078 7.69014 30.0322 7.66492 29.9441C7.65232 29.8685 7.63971 29.7804 7.63971 29.6923C7.63971 29.6167 7.65232 29.5286 7.66492 29.453C7.67753 29.3775 7.70274 29.2894 7.74056 29.2138C7.77838 29.1383 7.8162 29.0627 7.85402 28.9998C7.90445 28.9368 7.95488 28.8613 8.00531 28.8109C8.05573 28.7605 8.13137 28.6976 8.19441 28.6598C8.25744 28.6095 8.33308 28.5717 8.40872 28.5465C8.48436 28.5087 8.56 28.4961 8.64825 28.471C8.81214 28.4332 8.97603 28.4332 9.13992 28.471C9.21556 28.4835 9.30381 28.5087 9.37945 28.5465C9.45509 28.5843 9.53073 28.622 9.59376 28.6598C9.6568 28.7102 9.73244 28.7605 9.78286 28.8109C9.8459 28.8739 9.89632 28.9368 9.94675 28.9998C9.99718 29.0627 10.035 29.1383 10.0602 29.2138C10.0854 29.2894 10.1106 29.3649 10.1359 29.453C10.1485 29.5286 10.1611 29.6167 10.1611 29.6923C10.1611 29.7804 10.1485 29.856 10.1359 29.9441C10.1232 30.0196 10.098 30.1078 10.0602 30.1833C10.0224 30.2589 9.99718 30.3344 9.94675 30.3974C9.89632 30.4603 9.8459 30.5359 9.78286 30.5862C9.71983 30.6492 9.6568 30.6995 9.59376 30.7499C9.53073 30.8003 9.45509 30.838 9.37945 30.8632C9.30381 30.901 9.22816 30.9136 9.13992 30.9388C9.05167 30.9514 8.96342 30.9639 8.88778 30.9639Z" fill="#FD5D07"/>
<path d="M47.994 36.8565C47.8175 36.8565 47.641 36.8187 47.4772 36.7432C47.0233 36.5417 46.7334 36.0885 46.7334 35.5974V30.7248H29.1469C22.9065 30.7248 17.826 25.6506 17.826 19.4182C17.826 13.1857 22.9065 8.11158 29.1469 8.11158C29.3234 8.11158 29.5125 8.11158 29.7016 8.12417C31.3783 5.00163 34.0635 2.54642 37.3539 1.17401C37.9968 0.909606 38.7406 1.21179 39.0054 1.85392C39.2701 2.49605 38.9676 3.23891 38.3246 3.50332C35.3368 4.74982 32.9415 7.04135 31.5926 9.98761C31.3657 10.4912 30.8362 10.7808 30.2815 10.7053C29.9033 10.6549 29.5251 10.6297 29.1469 10.6297C24.2933 10.6297 20.3473 14.5707 20.3473 19.4182C20.3473 24.2656 24.2933 28.2066 29.1469 28.2066H47.994C48.6874 28.2066 49.2547 28.7732 49.2547 29.4657V32.7896L54.0579 28.5214C54.2848 28.3199 54.5874 28.2066 54.9025 28.2066H55.6337C59.1636 28.2066 62.038 25.3359 62.038 21.8104C62.038 18.8138 59.9957 16.2579 57.0835 15.5905C56.5414 15.4646 56.1506 14.9988 56.1128 14.4574C55.7724 9.66025 52.6711 5.35418 48.221 3.51591C47.578 3.2515 47.2754 2.50864 47.5402 1.86651C47.8049 1.22438 48.5487 0.922197 49.1917 1.1866C51.8013 2.26942 54.0579 4.04473 55.722 6.32367C57.2474 8.41376 58.2181 10.8438 58.5459 13.3871C60.1218 13.9286 61.5463 14.9106 62.6053 16.2327C63.8786 17.8065 64.5846 19.7959 64.5846 21.823C64.5846 26.7334 60.5882 30.7373 55.659 30.7373H55.4068L48.8639 36.5543C48.5992 36.7558 48.2966 36.8565 47.994 36.8565Z" fill="#FD5D07"/>
<path d="M50.5784 24.1777C49.2043 24.1777 47.9184 23.6237 47.0485 22.6668C46.582 22.1506 46.6199 21.3573 47.1367 20.8915C47.6536 20.4256 48.4478 20.4634 48.9143 20.9796C49.3051 21.4077 49.9228 21.6721 50.5784 21.6721C51.1457 21.6721 51.5113 21.3322 51.5617 21.0929C51.5995 20.8915 51.2844 20.6271 50.7927 20.4508C49.6329 20.0227 48.5865 19.5569 48.5487 19.5443C48.4857 19.5191 48.4352 19.4813 48.3722 19.4435C47.4771 18.8644 47.0233 17.8445 47.1746 16.7743C47.3384 15.6537 48.1579 14.7346 49.3051 14.3946C51.0701 13.8658 52.7089 14.7094 53.3897 15.2886L51.7634 17.215L51.776 17.2275C51.7634 17.215 50.9188 16.5476 50.0237 16.812C49.8094 16.875 49.6833 16.9883 49.6581 17.1394C49.6455 17.215 49.6707 17.2653 49.6959 17.3031C49.9985 17.4416 50.8053 17.7815 51.6626 18.0963C53.7301 18.8644 54.247 20.3753 54.0326 21.5462C53.7553 23.0697 52.3055 24.1777 50.5784 24.1777Z" fill="#FD5D07"/>
<path d="M32.3994 24.1775C31.7943 24.1775 31.2522 23.7998 31.0505 23.2332L28.4913 15.8928C28.2644 15.238 28.6174 14.5204 29.2729 14.2937C29.9285 14.0671 30.6471 14.4196 30.874 15.0744L32.3616 19.3678L33.7862 15.0995C34.0005 14.4448 34.7191 14.0797 35.3746 14.3063C36.0302 14.5204 36.3958 15.238 36.1689 15.8928L33.7357 23.208C33.5466 23.7872 33.0045 24.1775 32.3994 24.1775Z" fill="#FD5D07"/>
<path d="M39.7114 24.1776C39.018 24.1776 38.4507 23.611 38.4507 22.9185V15.4773C38.4507 14.7849 39.018 14.2183 39.7114 14.2183C40.4048 14.2183 40.9721 14.7849 40.9721 15.4773V22.9185C40.9721 23.6236 40.4048 24.1776 39.7114 24.1776Z" fill="#FD5D07"/>
<path d="M39.724 20.9544C39.3963 20.9544 39.0685 20.8284 38.8416 20.5892C38.602 20.35 38.4634 20.0352 38.4634 19.6953C38.4634 19.6953 38.4507 18.1592 38.4507 17.58C38.4507 17.1015 38.4507 15.4899 38.4507 15.4899C38.4507 15.15 38.5768 14.8352 38.8163 14.596C39.0559 14.3567 39.371 14.2308 39.7114 14.2308H41.7915C43.67 14.2308 45.1954 15.7417 45.1954 17.5926C45.1954 19.4434 43.67 20.9544 41.7915 20.9544C41.2116 20.9418 39.7366 20.9544 39.724 20.9544C39.7366 20.9544 39.7366 20.9544 39.724 20.9544ZM40.9721 16.7364C40.9721 17.0764 40.9721 17.4037 40.9721 17.58C40.9721 17.7815 40.9721 18.0962 40.9721 18.4236C41.2873 18.4236 41.5772 18.4236 41.7789 18.4236C42.258 18.4236 42.6614 18.0333 42.6614 17.58C42.6614 17.1267 42.258 16.7364 41.7789 16.7364H40.9721Z" fill="#FD5D07"/>
<path d="M43.2665 2.53391C43.1782 2.53391 43.1026 2.52132 43.0143 2.50873C42.9387 2.49614 42.8505 2.47096 42.7748 2.43318C42.6992 2.39541 42.6235 2.35764 42.5605 2.31986C42.4849 2.2695 42.4218 2.21914 42.3714 2.15618C42.1319 1.91696 42.0058 1.60219 42.0058 1.26223C42.0058 0.92228 42.1445 0.607509 42.3714 0.368283C42.4344 0.305328 42.4975 0.254965 42.5605 0.217192C42.6235 0.166829 42.6992 0.129056 42.7748 0.103875C42.8505 0.066102 42.9261 0.0409203 43.0143 0.0283294C43.1782 -0.00944314 43.3421 -0.00944314 43.506 0.0283294C43.5816 0.0409203 43.6699 0.066102 43.7455 0.103875C43.8212 0.141647 43.8968 0.17942 43.9599 0.217192C44.0229 0.267556 44.0859 0.317919 44.149 0.368283C44.212 0.431237 44.2624 0.494191 44.3002 0.557145C44.3507 0.6201 44.3885 0.695645 44.4137 0.77119C44.4515 0.846735 44.4641 0.92228 44.4893 1.01042C44.5019 1.08596 44.5145 1.1741 44.5145 1.26223C44.5145 1.5896 44.3759 1.91696 44.149 2.15618C44.0859 2.21914 44.0229 2.2695 43.9599 2.31986C43.8968 2.37023 43.8212 2.408 43.7455 2.43318C43.6699 2.47096 43.5943 2.48355 43.506 2.50873C43.4304 2.52132 43.3547 2.53391 43.2665 2.53391Z" fill="#FD5D07"/>
</svg>
