<svg width="60" height="56" viewBox="0 0 60 56" fill="none" xmlns="http://www.w3.org/2000/svg">
<path d="M24.7336 22.0187C24.7336 19.345 22.5584 17.1698 19.8847 17.1698C17.2092 17.1698 15.0325 19.345 15.0325 22.0187C15.0325 24.6942 17.2092 26.8709 19.8847 26.8709C22.5584 26.8708 24.7336 24.6942 24.7336 22.0187ZM19.8847 25.4646C17.9846 25.4646 16.4387 23.9188 16.4387 22.0186C16.4387 20.1202 17.9845 18.5759 19.8847 18.5759C21.783 18.5759 23.3273 20.1202 23.3273 22.0186C23.3273 23.9188 21.7829 25.4646 19.8847 25.4646ZM53.9954 37.7979C53.9954 37.4096 54.3103 37.0947 54.6986 37.0947H55.4029C55.7911 37.0947 56.106 37.4096 56.106 37.7979C56.106 38.1861 55.7911 38.501 55.4029 38.501H54.6986C54.3103 38.501 53.9954 38.1862 53.9954 37.7979ZM51.2947 37.7979C51.2947 37.4096 51.6096 37.0947 51.9979 37.0947H52.6988C53.087 37.0947 53.4019 37.4096 53.4019 37.7979C53.4019 38.1861 53.087 38.501 52.6988 38.501H51.9979C51.6095 38.501 51.2947 38.1862 51.2947 37.7979ZM40.8008 37.7979C40.8008 37.4096 41.1157 37.0947 41.5039 37.0947H49.9948C50.383 37.0947 50.6979 37.4096 50.6979 37.7979C50.6979 38.1861 50.383 38.501 49.9948 38.501H41.5039C41.1156 38.501 40.8008 38.1862 40.8008 37.7979ZM40.8008 44.4384C40.8008 44.0502 41.1157 43.7353 41.5039 43.7353H49.9948C50.383 43.7353 50.6979 44.0502 50.6979 44.4384C50.6979 44.8266 50.383 45.1415 49.9948 45.1415H41.5039C41.1156 45.1415 40.8008 44.8266 40.8008 44.4384ZM53.9954 44.4384C53.9954 44.0502 54.3103 43.7353 54.6986 43.7353H55.4029C55.7911 43.7353 56.106 44.0502 56.106 44.4384C56.106 44.8266 55.7911 45.1415 55.4029 45.1415H54.6986C54.3103 45.1415 53.9954 44.8266 53.9954 44.4384ZM51.2947 44.4384C51.2947 44.0502 51.6096 43.7353 51.9979 43.7353H52.6988C53.087 43.7353 53.4019 44.0502 53.4019 44.4384C53.4019 44.8266 53.087 45.1415 52.6988 45.1415H51.9979C51.6095 45.1415 51.2947 44.8266 51.2947 44.4384ZM50.6979 51.0789C50.6979 51.4672 50.383 51.7821 49.9948 51.7821H41.5039C41.1157 51.7821 40.8008 51.4672 40.8008 51.0789C40.8008 50.6907 41.1157 50.3758 41.5039 50.3758H49.9948C50.383 50.3758 50.6979 50.6907 50.6979 51.0789ZM53.4019 51.0789C53.4019 51.4672 53.087 51.7821 52.6988 51.7821H51.9979C51.6096 51.7821 51.2947 51.4672 51.2947 51.0789C51.2947 50.6907 51.6096 50.3758 51.9979 50.3758H52.6988C53.0871 50.3758 53.4019 50.6907 53.4019 51.0789ZM56.106 51.0789C56.106 51.4672 55.7911 51.7821 55.4029 51.7821H54.6986C54.3103 51.7821 53.9954 51.4672 53.9954 51.0789C53.9954 50.6907 54.3103 50.3758 54.6986 50.3758H55.4029C55.7911 50.3758 56.106 50.6907 56.106 51.0789ZM59.0625 36.0771C59.0625 34.8065 58.0288 33.7728 56.7581 33.7728H49.1564V18.6204C49.1564 17.13 47.9423 15.9174 46.4501 15.9174H38.7984C38.4418 11.9859 35.1289 8.89484 31.1061 8.89484C31.095 8.89484 31.0838 8.89484 31.0725 8.89484C29.8654 6.07074 27.073 4.20746 23.9673 4.20746C22.9145 4.20746 21.8688 4.42508 20.905 4.84109C19.5461 2.42234 16.9747 0.895508 14.1676 0.895508C9.90762 0.895508 6.44191 4.36121 6.44191 8.62121C6.44191 8.81949 6.4493 9.01707 6.46418 9.21277C3.22582 10.1715 0.9375 13.1892 0.9375 16.6205C0.9375 20.8805 4.4032 24.3463 8.6632 24.3463H10.1409L11.7164 24.6795L12.2271 25.9125L11.3091 27.3263C11.1284 27.6048 11.1669 27.9717 11.4016 28.2064L13.6971 30.5019C13.932 30.7365 14.2988 30.7752 14.5772 30.5945L15.9911 29.6764L17.2245 30.1872L17.5759 31.8355C17.645 32.1601 17.9318 32.392 18.2636 32.392H19.1815V37.982C17.3341 38.0459 12.8033 38.4076 12.8033 40.4156V52.0955C12.8033 54.474 19.1598 54.5427 19.8846 54.5427C20.6094 54.5427 26.9659 54.474 26.9659 52.0955V45.517H37.8408V46.1592C37.8408 46.7812 38.0896 47.3454 38.4915 47.7603C38.0896 48.1753 37.8408 48.7395 37.8408 49.3614V52.7996C37.8408 54.0703 38.8745 55.104 40.1452 55.104H56.7581C58.0287 55.104 59.0625 54.0703 59.0625 52.7996V49.3614C59.0625 48.7394 58.8137 48.1753 58.4118 47.7603C58.8137 47.3454 59.0625 46.7811 59.0625 46.1592V42.7176C59.0625 42.0956 58.8137 41.5314 58.4118 41.1164C58.8137 40.7014 59.0625 40.1371 59.0625 39.5152V36.0771ZM57.6562 36.0771V39.5152C57.6562 40.0105 57.2534 40.4132 56.7581 40.4132H40.1452C39.6499 40.4132 39.247 40.0104 39.247 39.5152V36.0771C39.247 35.5818 39.6499 35.1791 40.1452 35.1791H56.7581C57.2534 35.1791 57.6562 35.5818 57.6562 36.0771ZM57.6562 42.7176V46.1592C57.6562 46.6544 57.2534 47.0573 56.7581 47.0573H40.1452C39.6499 47.0573 39.247 46.6544 39.247 46.1592V42.7176C39.247 42.2224 39.6499 41.8195 40.1452 41.8195H56.7581C57.2534 41.8195 57.6562 42.2224 57.6562 42.7176ZM2.34375 16.6205C2.34375 13.6353 4.46039 11.033 7.37648 10.4328C7.74586 10.3568 7.98949 10.0029 7.92867 9.63055C7.87523 9.30406 7.84816 8.96457 7.84816 8.62133C7.84816 5.13676 10.683 2.30187 14.1676 2.30187C16.6636 2.30187 18.9318 3.7782 19.9462 6.06301C20.0262 6.24289 20.1778 6.38105 20.3643 6.44398C20.5507 6.5068 20.7551 6.48875 20.9276 6.39395C21.8561 5.88359 22.9071 5.61383 23.9673 5.61383C26.6514 5.61383 29.0493 7.31481 29.9341 9.84652C30.0377 10.1431 30.325 10.3339 30.6391 10.3164C30.8152 10.3061 30.968 10.3011 31.1061 10.3011C34.5907 10.3011 37.4256 13.136 37.4256 16.6205C37.4256 20.1051 34.5907 22.94 31.1061 22.94H30.2579V20.3976C30.2579 20.0657 30.026 19.7792 29.7014 19.71L28.0532 19.3584L27.5422 18.125L28.4603 16.7111C28.6411 16.4326 28.6024 16.0654 28.3675 15.8307L26.0721 13.5385C25.8373 13.304 25.4706 13.2655 25.1924 13.4463L23.7791 14.364L22.5451 13.8508L22.1936 12.2019C22.1244 11.8773 21.8377 11.6454 21.5059 11.6454H18.2637C17.9318 11.6454 17.6452 11.8773 17.576 12.2019L17.2245 13.8508L15.9906 14.364L14.5773 13.4463C14.299 13.2655 13.9323 13.304 13.6976 13.5385L11.4021 15.8307C11.1671 16.0653 11.1284 16.4326 11.3093 16.7111L12.2273 18.125L11.7164 19.3584L10.0682 19.71C9.74367 19.7792 9.51164 20.0659 9.51164 20.3976V22.94H8.66344C5.17863 22.94 2.34375 20.1051 2.34375 16.6205ZM18.5228 29.5324C18.4745 29.3061 18.3179 29.118 18.1042 29.0294L16.1875 28.2355C15.9735 28.1469 15.7296 28.1694 15.5355 28.2954L14.2889 29.1048L12.7986 27.6145L13.608 26.3679C13.7341 26.1737 13.7565 25.9298 13.6679 25.7159L12.874 23.7992C12.7853 23.585 12.5967 23.4283 12.3698 23.3804L10.9177 23.0731V20.9666L12.3709 20.6566C12.5972 20.6083 12.7853 20.4518 12.8739 20.238L13.6678 18.3213C13.7564 18.1074 13.734 17.8636 13.6079 17.6694L12.7987 16.4231L14.2884 14.9356L15.5354 15.7453C15.7298 15.8715 15.9742 15.8939 16.1884 15.8048L18.1051 15.0076C18.3184 14.9189 18.4746 14.731 18.5228 14.505L18.8326 13.0517H20.9368L21.2467 14.505C21.2948 14.731 21.4511 14.9189 21.6643 15.0076L23.5811 15.8048C23.7953 15.8939 24.0396 15.8715 24.234 15.7453L25.481 14.9356L26.9707 16.4231L26.1615 17.6694C26.0354 17.8636 26.013 18.1074 26.1016 18.3213L26.8956 20.238C26.9842 20.4519 27.1723 20.6083 27.3986 20.6566L28.8518 20.9666V23.0731L27.3996 23.3804C27.1727 23.4284 26.9843 23.5851 26.8955 23.7992L26.1015 25.7159C26.0129 25.9298 26.0353 26.1737 26.1614 26.3679L26.9708 27.6145L25.4805 29.1048L24.2339 28.2954C24.0397 28.1694 23.7959 28.1469 23.582 28.2355L21.6653 29.0294C21.4514 29.118 21.295 29.3061 21.2467 29.5324L20.9368 30.9856H18.8326L18.5228 29.5324ZM25.5596 48.1473C25.2663 48.5524 23.1847 49.243 19.8846 49.243C16.5837 49.243 14.5022 48.5524 14.2096 48.1474V45.8939C16.1258 46.7254 19.3784 46.7592 19.8846 46.7592C20.3909 46.7592 23.6434 46.7254 25.5596 45.8939V48.1473ZM14.2097 42.0007C16.1259 42.8322 19.3785 42.866 19.8847 42.866C20.391 42.866 23.6435 42.8322 25.5598 42.0007V44.2541C25.2669 44.6602 23.1851 45.3529 19.8847 45.3529C16.5837 45.3529 14.5022 44.6602 14.2097 44.2543V42.0007ZM19.8847 41.4597C16.7249 41.4597 14.6834 40.8267 14.257 40.4166C14.6832 40.0073 16.7255 39.3746 19.8847 39.3746C23.0429 39.3746 25.0853 40.0073 25.5122 40.4166C25.085 40.8268 23.0434 41.4597 19.8847 41.4597ZM19.8847 53.1363C16.5888 53.1363 14.5075 52.4476 14.2097 52.0423V49.7851C16.1259 50.6155 19.3785 50.6492 19.8847 50.6492C20.391 50.6492 23.6435 50.6155 25.5598 49.7851V52.0421C25.2614 52.4475 23.1798 53.1363 19.8847 53.1363ZM26.9659 44.1106V40.4155C26.9659 38.4073 22.4351 38.0457 20.5877 37.9818V32.3919H21.5057C21.8375 32.3919 22.1242 32.16 22.1933 31.8354L22.5448 30.1872L23.7783 29.6763L25.1922 30.5943C25.4706 30.7752 25.8375 30.7365 26.0722 30.5018L28.3676 28.2063C28.6023 27.9716 28.6409 27.6046 28.4602 27.3262L27.5421 25.9123L28.0528 24.6794L29.6283 24.3461H31.106C35.1288 24.3461 38.4417 21.2551 38.7983 17.3236H46.45C47.1668 17.3236 47.75 17.9053 47.75 18.6202V33.7727H40.145C38.8744 33.7727 37.8407 34.8064 37.8407 36.077V39.5151C37.8407 40.137 38.0895 40.7013 38.4914 41.1163C38.0895 41.5312 37.8407 42.0955 37.8407 42.7175V44.1105H26.9659V44.1106ZM57.6562 52.7997C57.6562 53.295 57.2534 53.6979 56.7581 53.6979H40.1452C39.6499 53.6979 39.247 53.295 39.247 52.7997V49.3616C39.247 48.8663 39.6499 48.4636 40.1452 48.4636H56.7581C57.2534 48.4636 57.6562 48.8664 57.6562 49.3616V52.7997Z" fill="#FD5D07"/>
</svg>
