<svg width="57" height="56" viewBox="0 0 57 56" fill="none" xmlns="http://www.w3.org/2000/svg">
<path d="M8.37484 17.625V20.9866L6.77441 22.5871L8.10027 23.9129L12.319 19.6942C12.5162 19.497 12.7835 19.3863 13.0623 19.3863C13.3411 19.3863 13.6085 19.497 13.8057 19.6942C14.0028 19.8913 14.1136 20.1587 14.1136 20.4375C14.1136 20.7163 14.0028 20.9837 13.8057 21.1808L9.58691 25.3996C9.49985 25.4866 9.43079 25.59 9.38368 25.7037C9.33656 25.8175 9.31231 25.9394 9.31231 26.0625C9.31231 26.1856 9.33656 26.3075 9.38368 26.4213C9.43079 26.535 9.49985 26.6384 9.58691 26.7254C10.4044 27.5449 10.8634 28.6551 10.8634 29.8125C10.8634 30.9699 10.4044 32.0801 9.58691 32.8996L4.89941 37.5871L6.22527 38.9129L8.37484 36.7634V43.875C8.37596 44.8692 8.77141 45.8224 9.47443 46.5254C10.1774 47.2284 11.1306 47.6239 12.1248 47.625H33.6873V45.75H16.8123V43.875H33.6873V42H12.1248C11.6277 41.9994 11.1512 41.8017 10.7997 41.4502C10.4482 41.0987 10.2504 40.6221 10.2498 40.125V34.8884L10.9128 34.2254C11.9681 33.1697 12.6102 31.7707 12.7229 30.2822C12.8355 28.7937 12.4111 27.3141 11.5266 26.1116L15.1315 22.5067C15.6764 21.9571 15.9814 21.214 15.9797 20.4401C15.9781 19.6662 15.6699 18.9244 15.1226 18.3772C14.5754 17.83 13.8337 17.5218 13.0597 17.5201C12.2858 17.5185 11.5428 17.8234 10.9932 18.3683L10.2498 19.1116V8.25C10.2504 7.7529 10.4482 7.27633 10.7997 6.92483C11.1512 6.57332 11.6277 6.37559 12.1248 6.375H51.4998C51.9969 6.37559 52.4735 6.57332 52.825 6.92483C53.1765 7.27633 53.3743 7.7529 53.3748 8.25V34.5H55.2498V8.25C55.2487 7.25578 54.8533 6.3026 54.1503 5.59958C53.4472 4.89656 52.4941 4.50112 51.4998 4.5H12.1248C11.1306 4.50112 10.1774 4.89656 9.47443 5.59958C8.77141 6.3026 8.37596 7.25578 8.37484 8.25V15.75H5.56234C4.56812 15.7511 3.61495 16.1466 2.91193 16.8496C2.20891 17.5526 1.81346 18.5058 1.81234 19.5V27.5493L0.211914 29.1496L1.53777 30.4754L3.41277 28.6004C3.49983 28.5134 3.56888 28.41 3.61599 28.2963C3.6631 28.1825 3.68735 28.0606 3.68734 27.9375V19.5C3.68793 19.0029 3.88567 18.5263 4.23717 18.1748C4.58867 17.8233 5.06524 17.6256 5.56234 17.625H8.37484ZM12.1248 43.875H14.9373V45.75H12.1248C11.6277 45.7494 11.1512 45.5517 10.7997 45.2002C10.4482 44.8487 10.2504 44.3721 10.2498 43.875V43.3711C10.8193 43.7018 11.4663 43.8757 12.1248 43.875Z" fill="#FD5D07"/>
<path d="M53.3747 36.375C53.0553 36.3749 52.7382 36.4294 52.4372 36.5363V36.375C52.4376 35.8837 52.3092 35.4009 52.0648 34.9748C51.8204 34.5486 51.4686 34.1939 51.0444 33.9461C50.6202 33.6983 50.1385 33.566 49.6472 33.5624C49.1559 33.5589 48.6723 33.6842 48.2446 33.9258C47.9035 33.3897 47.3907 32.9851 46.79 32.7781C46.1893 32.5712 45.5361 32.574 44.9372 32.7863V31.6875C44.9372 30.9416 44.6409 30.2262 44.1134 29.6988C43.586 29.1713 42.8706 28.875 42.1247 28.875C41.3788 28.875 40.6634 29.1713 40.136 29.6988C39.6085 30.2262 39.3122 30.9416 39.3122 31.6875V39.5456L38.3304 40.0365C37.5461 40.4284 36.8784 41.0195 36.3944 41.7505C35.9103 42.4816 35.6268 43.327 35.5722 44.202C35.5176 45.0771 35.6939 45.9512 36.0833 46.7367C36.4728 47.5223 37.0618 48.1917 37.7913 48.678L40.3488 50.3831C40.6067 50.5544 40.8182 50.7868 40.9645 51.0597C41.1108 51.3325 41.1873 51.6373 41.1872 51.9469V55.125H43.0622V51.9469C43.0626 51.3287 42.9101 50.7201 42.6183 50.1752C42.3264 49.6302 41.9043 49.166 41.3896 48.8237L39.831 47.7813L38.8311 47.1179C38.1549 46.6676 37.6806 45.9717 37.5085 45.1777C37.3364 44.3837 37.4801 43.5539 37.9091 42.864C38.2132 42.37 38.6499 41.9712 39.1695 41.7132L39.3127 41.6416V44.8125H41.1877V31.6875C41.1877 31.4389 41.2864 31.2004 41.4623 31.0246C41.6381 30.8488 41.8765 30.75 42.1252 30.75C42.3738 30.75 42.6123 30.8488 42.7881 31.0246C42.9639 31.2004 43.0627 31.4389 43.0627 31.6875V39.1875H44.9377V35.4375C44.9377 35.1889 45.0364 34.9504 45.2123 34.7746C45.3881 34.5988 45.6265 34.5 45.8752 34.5C46.1238 34.5 46.3623 34.5988 46.5381 34.7746C46.7139 34.9504 46.8127 35.1889 46.8127 35.4375V40.125H48.6877V36.375C48.6877 36.1264 48.7864 35.8879 48.9623 35.7121C49.1381 35.5363 49.3765 35.4375 49.6252 35.4375C49.8738 35.4375 50.1123 35.5363 50.2881 35.7121C50.4639 35.8879 50.5627 36.1264 50.5627 36.375V41.0625H52.4377V39.1875C52.4377 38.9389 52.5364 38.7004 52.7123 38.5246C52.8881 38.3488 53.1265 38.25 53.3752 38.25C53.6238 38.25 53.8623 38.3488 54.0381 38.5246C54.2139 38.7004 54.3127 38.9389 54.3127 39.1875V42.4949C54.3096 45.1062 53.7018 47.6813 52.5367 50.0183C52.4714 50.1484 52.4374 50.2919 52.4372 50.4375V55.125H54.3122V50.6557C55.5429 48.111 56.1838 45.3215 56.1872 42.4949V39.1875C56.1863 38.4418 55.8897 37.727 55.3625 37.1997C54.8352 36.6725 54.1204 36.3759 53.3747 36.375Z" fill="#FD5D07"/>
<path d="M41.4646 14.4297C40.7777 14.4297 40.1062 14.6334 39.5351 15.015C38.964 15.3966 38.5189 15.939 38.2561 16.5735C37.9932 17.2081 37.9244 17.9064 38.0584 18.5801C38.1924 19.2537 38.5232 19.8725 39.0089 20.3582C39.4946 20.8439 40.1134 21.1747 40.787 21.3087C41.4607 21.4427 42.159 21.3739 42.7936 21.111C43.4281 20.8482 43.9705 20.4031 44.3521 19.832C44.7337 19.2608 44.9374 18.5894 44.9374 17.9025C44.9364 16.9818 44.5702 16.0991 43.9191 15.448C43.268 14.7969 42.3853 14.4307 41.4646 14.4297ZM41.4646 19.5004C41.1485 19.5004 40.8396 19.4067 40.5768 19.2311C40.3141 19.0555 40.1093 18.806 39.9883 18.514C39.8674 18.222 39.8357 17.9008 39.8974 17.5908C39.9591 17.2809 40.1112 16.9962 40.3347 16.7727C40.5582 16.5492 40.8429 16.397 41.1528 16.3354C41.4628 16.2737 41.7841 16.3054 42.076 16.4263C42.368 16.5473 42.6175 16.7521 42.7931 17.0148C42.9687 17.2776 43.0624 17.5865 43.0624 17.9025C43.0619 18.3262 42.8934 18.7323 42.5939 19.0319C42.2943 19.3314 41.8882 19.4999 41.4646 19.5004Z" fill="#FD5D07"/>
<path d="M50.2528 16.3255C50.3965 16.1958 50.4965 16.0248 50.5392 15.836C50.5818 15.6471 50.5649 15.4497 50.4908 15.2709L49.7076 13.3799C49.6344 13.2005 49.5069 13.0484 49.343 12.9449C49.1792 12.8413 48.9871 12.7915 48.7936 12.8024L47.024 12.8927L46.4733 12.3419L46.5636 10.5723C46.5735 10.379 46.5233 10.1873 46.4199 10.0236C46.3164 9.85998 46.1649 9.73235 45.986 9.65828L44.0951 8.87523C43.9162 8.80103 43.7188 8.78407 43.5299 8.82667C43.3411 8.86927 43.17 8.96934 43.0404 9.11312L41.8535 10.4278H41.0744L39.8879 9.11347C39.7582 8.96978 39.5872 8.86977 39.3983 8.82717C39.2095 8.78458 39.0121 8.80149 38.8332 8.87558L36.9423 9.65863C36.7634 9.73272 36.6119 9.86036 36.5085 10.024C36.4051 10.1877 36.3549 10.3794 36.3648 10.5727L36.455 12.3422L35.9042 12.893L34.1347 12.8028C33.9412 12.7917 33.749 12.8414 33.5851 12.945C33.4212 13.0485 33.2938 13.2007 33.2206 13.3803L32.4376 15.2712C32.3635 15.4501 32.3466 15.6475 32.3892 15.8363C32.4318 16.0251 32.5318 16.1962 32.6755 16.3259L33.9902 17.5128V18.2918L32.6758 19.4784C32.5321 19.6081 32.4321 19.7791 32.3895 19.968C32.3469 20.1568 32.3639 20.3542 32.4379 20.533L33.221 22.424C33.2945 22.6033 33.422 22.7553 33.5858 22.8588C33.7496 22.9623 33.9416 23.0122 34.1351 23.0016L35.9046 22.9112L36.4554 23.462L36.3651 25.2316C36.3552 25.4249 36.4054 25.6166 36.5088 25.7802C36.6122 25.9439 36.7638 26.0715 36.9426 26.1456L38.8336 26.9288C39.0124 27.0029 39.2098 27.0198 39.3987 26.9771C39.5875 26.9345 39.7585 26.8345 39.8883 26.6908L41.0751 25.3762H41.8542L43.0411 26.6908C43.1708 26.8345 43.3418 26.9345 43.5306 26.9771C43.7195 27.0198 43.9169 27.0029 44.0958 26.9288L45.9867 26.1456C46.1656 26.0716 46.3171 25.9439 46.4206 25.7803C46.524 25.6166 46.5742 25.4249 46.5643 25.2316L46.474 23.462L47.0247 22.9112L48.7943 23.0016C48.9877 23.0118 49.1795 22.9618 49.3433 22.8583C49.507 22.7548 49.6346 22.6031 49.7083 22.424L50.4915 20.533C50.5656 20.3542 50.5825 20.1568 50.5399 19.9679C50.4972 19.7791 50.3972 19.6081 50.2535 19.4784L48.9389 18.2915V17.5124L50.2528 16.3255ZM47.3724 19.4042L48.5053 20.4269L48.2285 21.0948L46.7041 21.017C46.5731 21.0104 46.4422 21.0313 46.3198 21.0784C46.1974 21.1254 46.0862 21.1976 45.9934 21.2903L44.8531 22.4305C44.7604 22.5233 44.6882 22.6345 44.6411 22.7569C44.594 22.8793 44.5732 23.0103 44.5799 23.1413L44.6577 24.6657L43.9897 24.9425L42.967 23.8096C42.8791 23.7122 42.7717 23.6344 42.6518 23.5811C42.532 23.5278 42.4022 23.5003 42.271 23.5003H40.6585C40.5274 23.5003 40.3977 23.5279 40.2778 23.5811C40.1579 23.6344 40.0506 23.7122 39.9627 23.8096L38.9399 24.9425L38.2719 24.6657L38.3497 23.1413C38.3565 23.0103 38.3356 22.8793 38.2886 22.7569C38.2415 22.6344 38.1692 22.5233 38.0764 22.4305L36.9363 21.2903C36.8435 21.1976 36.7323 21.1254 36.6098 21.0783C36.4874 21.0313 36.3565 21.0104 36.2254 21.017L34.7012 21.0948L34.4243 20.4269L35.5571 19.4042C35.6545 19.3163 35.7324 19.2089 35.7857 19.089C35.839 18.9691 35.8665 18.8394 35.8665 18.7082V17.0957C35.8665 16.9645 35.8389 16.8348 35.7856 16.7149C35.7324 16.5951 35.6545 16.4877 35.5571 16.3998L34.4243 15.377L34.7012 14.7091L36.2254 14.7869C36.3565 14.7936 36.4874 14.7728 36.6099 14.7257C36.7324 14.6787 36.8436 14.6064 36.9363 14.5136L38.0764 13.3735C38.1692 13.2807 38.2414 13.1695 38.2885 13.047C38.3356 12.9246 38.3564 12.7936 38.3497 12.6626L38.2719 11.1384L38.9399 10.8614L39.9627 11.9943C40.0506 12.0917 40.1579 12.1695 40.2778 12.2228C40.3976 12.2761 40.5274 12.3037 40.6585 12.3037H42.271C42.4022 12.3037 42.532 12.2761 42.6519 12.2228C42.7717 12.1696 42.8791 12.0917 42.967 11.9943L43.9897 10.8614L44.6577 11.1384L44.5799 12.6626C44.5731 12.7936 44.594 12.9246 44.6411 13.047C44.6881 13.1695 44.7604 13.2807 44.8531 13.3735L45.9934 14.5136C46.0861 14.6063 46.1973 14.6786 46.3198 14.7256C46.4422 14.7727 46.5731 14.7936 46.7041 14.7869L48.2285 14.7091L48.5053 15.377L47.3724 16.3998C47.2751 16.4877 47.1972 16.5951 47.144 16.715C47.0907 16.8348 47.0632 16.9645 47.0632 17.0957V18.7082C47.0632 18.8394 47.0907 18.9691 47.144 19.089C47.1972 19.2089 47.2751 19.3163 47.3724 19.4042Z" fill="#FD5D07"/>
<path d="M14.9375 36.375V38.25H35.5625V36.375H33.6875V33.5625H31.8125V36.375H29.9375V31.6875H28.0625V36.375H26.1875V28.875H24.3125V36.375H22.4375V31.6875H20.5625V36.375H18.6875V33.5625H16.8125V36.375H14.9375Z" fill="#FD5D07"/>
<path d="M15.875 10.125H17.75V12H15.875V10.125Z" fill="#FD5D07"/>
<path d="M19.625 10.125H29V12H19.625V10.125Z" fill="#FD5D07"/>
<path d="M14 13.875H29V15.75H14V13.875Z" fill="#FD5D07"/>
<path d="M17.75 17.625H29V19.5H17.75V17.625Z" fill="#FD5D07"/>
<path d="M17.75 21.375H27.125V23.25H17.75V21.375Z" fill="#FD5D07"/>
<path d="M16.8125 0.75H41.1875V2.625H16.8125V0.75Z" fill="#FD5D07"/>
<path d="M43.0625 0.75H44.9375V2.625H43.0625V0.75Z" fill="#FD5D07"/>
</svg>
