<svg width="51" height="50" viewBox="0 0 51 50" fill="none" xmlns="http://www.w3.org/2000/svg">
<g clip-path="url(#clip0_400_7772)">
<path d="M0.161034 4.5865L3.55215 10.4217C3.66654 10.6189 3.858 10.7616 4.08188 10.8168L7.24563 11.5945L18.0966 22.2646L19.2955 21.086L8.27475 10.2492C8.16629 10.1422 8.03029 10.0664 7.88138 10.0297L4.84143 9.27977L1.95424 4.30874L4.42958 1.87466L9.48696 4.71647L10.25 7.70575C10.287 7.85252 10.3644 7.9866 10.4728 8.09325L21.4936 18.9304L22.6922 17.7514L11.8413 7.08128L11.0503 3.97198C10.9942 3.75148 10.8491 3.56287 10.6486 3.45005L4.71414 0.115795C4.38319 -0.0693847 3.9668 -0.0145168 3.69688 0.249878L0.306109 3.58448C0.0333963 3.84819 -0.025889 4.25833 0.161034 4.5865Z" fill="#FD5D07"/>
<path d="M35.4062 16.4296L16.7561 34.7692L15.5571 33.5903L34.2076 15.251L35.4062 16.4296Z" fill="#FD5D07"/>
<path d="M13.4916 35.418C13.3381 35.167 13.0626 35.0137 12.7648 35.0137H7.67846C7.38098 35.0137 7.10513 35.167 6.95204 35.418L4.4087 39.5859C4.24723 39.8499 4.24723 40.1802 4.4087 40.4446L6.95204 44.6125C7.10513 44.8632 7.38098 45.0168 7.67846 45.0168H12.7648C13.0626 45.0168 13.3381 44.8632 13.4916 44.6125L16.0345 40.4446C16.196 40.1802 16.196 39.8499 16.0345 39.5859L13.4916 35.418ZM12.2853 43.3495H8.15832L6.12379 40.0152L8.15832 36.6806H12.2853L14.3198 40.0152L12.2853 43.3495Z" fill="#FD5D07"/>
<path d="M40.7402 20.0083C46.3391 20.0268 50.8937 15.5784 50.9125 10.0727C50.9153 9.2346 50.8106 8.39992 50.6011 7.58753C50.4881 7.1407 50.0281 6.86876 49.5737 6.97987C49.4244 7.01656 49.2884 7.09235 49.1796 7.199L43.9025 12.3847L39.7156 11.0127L38.3192 6.89654L43.5963 1.70637C43.9273 1.3806 43.9269 0.852835 43.5956 0.527399C43.4865 0.420064 43.3491 0.343934 43.1988 0.307584C37.7689 -1.04457 32.253 2.1875 30.8779 7.52649C30.669 8.33648 30.5647 9.1691 30.5675 10.0048C30.5696 10.6612 30.6383 11.3155 30.7736 11.9581L12.2079 30.2141C11.5544 30.0813 10.889 30.0138 10.2218 30.0114C4.60333 30.0114 0.0488281 34.49 0.0488281 40.0148C0.0488281 45.5394 4.60333 50.018 10.2218 50.018C15.84 50.018 20.3945 45.5394 20.3945 40.0148C20.3924 39.3585 20.3234 38.7042 20.1884 38.0615L24.633 33.691L26.5769 35.6024C26.9082 35.9279 27.4446 35.9279 27.7759 35.6024L28.1996 35.1854C28.5713 34.8223 29.1722 34.8223 29.544 35.1854C29.9154 35.5496 29.9161 36.1408 29.5457 36.506C29.5454 36.5064 29.5447 36.5071 29.544 36.5078L29.1202 36.9244C28.7893 37.2498 28.7893 37.7776 29.1202 38.103L39.2329 48.0472C41.8927 50.6867 46.2248 50.7059 48.909 48.0904C51.5929 45.4749 51.6124 41.2147 48.9526 38.5756C48.9383 38.5612 48.9236 38.5468 48.909 38.5324L38.7963 28.5886C38.4654 28.2632 37.9286 28.2632 37.5977 28.5886L37.174 29.0052C36.8019 29.3687 36.2014 29.3687 35.8293 29.0052C35.4582 28.6411 35.4571 28.0499 35.8275 27.685C35.8282 27.6843 35.8289 27.684 35.8293 27.6833L36.2533 27.2663C36.5843 26.9408 36.5843 26.4131 36.2533 26.0876L34.3095 24.1762L38.7541 19.8056C39.4076 19.9383 40.073 20.0062 40.7402 20.0083ZM44.071 48.351C43.4551 48.35 42.8444 48.2406 42.268 48.0276L48.8888 41.5169C49.8879 44.1303 48.5435 47.0451 45.8858 48.0276C45.3058 48.242 44.691 48.3517 44.071 48.351ZM34.4671 26.6854C33.5283 27.7865 33.6755 29.4277 34.7952 30.3505C35.7794 31.1616 37.2137 31.1609 38.1968 30.3481L47.7104 39.7114C47.8136 39.8132 47.9102 39.9205 48.0037 40.0296L40.7555 47.1569C40.6443 47.0654 40.5351 46.9704 40.4315 46.8685L30.9107 37.5057C31.8495 36.4045 31.7023 34.7633 30.5825 33.8405C29.5984 33.0291 28.1637 33.0302 27.1806 33.8425L25.8243 32.5089L33.1105 25.3548L34.4671 26.6854ZM37.8903 18.3012L18.6592 37.208C18.4482 37.4151 18.3635 37.7159 18.4353 38.0002C19.5983 42.4914 16.8384 47.0595 12.2707 48.2029C7.70326 49.3465 3.05773 46.6326 1.89469 42.141C0.732004 37.6497 3.49191 33.0816 8.05967 31.9379C9.44136 31.5923 10.889 31.5923 12.2707 31.9379C12.5598 32.0076 12.8649 31.9242 13.0763 31.7181L32.3028 12.811C32.5135 12.6038 32.5982 12.3031 32.5257 12.0192C31.3706 7.58033 34.0936 3.06127 38.6076 1.92516C39.4607 1.71083 40.343 1.62853 41.2218 1.68237L36.7499 6.08141C36.5229 6.30431 36.4434 6.63455 36.5449 6.93392L38.2401 11.9358C38.3248 12.1844 38.5236 12.3799 38.7768 12.4626L43.8635 14.1299C44.1676 14.2296 44.5034 14.1518 44.7304 13.9289L49.2023 9.53158C49.2124 9.69069 49.2176 9.84809 49.2176 10.0048C49.2413 14.5853 45.4847 18.3173 40.8267 18.341C40.1065 18.3444 39.3888 18.2573 38.6913 18.0817C38.4022 18.0107 38.0964 18.0937 37.8858 18.3008H37.8903V18.3012Z" fill="#FD5D07"/>
<path d="M43.8836 41.9257L42.6846 43.1046L34.2075 34.7688L35.4061 33.5898L43.8836 41.9257Z" fill="#FD5D07"/>
</g>
<defs>
<clipPath id="clip0_400_7772">
<rect width="50.8475" height="50" fill="white"/>
</clipPath>
</defs>
</svg>
