<svg width="50" height="50" viewBox="0 0 50 50" fill="none" xmlns="http://www.w3.org/2000/svg">
<g clip-path="url(#clip0_400_7778)">
<path d="M47.5806 41.9352H46.7742V15.3223C46.7742 13.0989 44.9653 11.29 42.7419 11.29H40.3226V12.9029H42.7419C44.0758 12.9029 45.1613 13.9884 45.1613 15.3223V41.9352H4.83871V15.3223C4.83871 13.9884 5.92419 12.9029 7.25806 12.9029H9.67742V11.29H7.25806C5.03468 11.29 3.22581 13.0989 3.22581 15.3223V41.9352H2.41935C1.08548 41.9352 0 43.0207 0 44.3546C0 47.4666 2.53306 49.9997 5.64516 49.9997H44.3548C47.4669 49.9997 50 47.4666 50 44.3546C50 43.0207 48.9145 41.9352 47.5806 41.9352ZM20.1613 43.5481H29.8387V44.3546C29.8387 44.7997 29.4774 45.161 29.0323 45.161H20.9677C20.5226 45.161 20.1613 44.7997 20.1613 44.3546V43.5481ZM37.0968 48.3868H35.4839V46.7739H37.0968V48.3868ZM43.5484 48.3868H41.9355V46.7739H43.5484V48.3868ZM45.1613 48.3054V45.161H40.3226V48.3868H38.7097V45.161H33.871V48.3868H5.64516C3.42177 48.3868 1.6129 46.5779 1.6129 44.3546C1.6129 43.9094 1.97419 43.5481 2.41935 43.5481H18.5484V44.3546C18.5484 45.6884 19.6339 46.7739 20.9677 46.7739H29.0323C30.3661 46.7739 31.4516 45.6884 31.4516 44.3546V43.5481H47.5806C48.0258 43.5481 48.3871 43.9094 48.3871 44.3546C48.3871 46.3013 46.9992 47.9304 45.1613 48.3054Z" fill="#FD5D07"/>
<path d="M17.742 16.1295V14.5166H8.06456C7.17505 14.5166 6.45166 15.24 6.45166 16.1295V38.7101C6.45166 39.5997 7.17505 40.3231 8.06456 40.3231H41.9355C42.825 40.3231 43.5484 39.5997 43.5484 38.7101V16.1295C43.5484 15.24 42.825 14.5166 41.9355 14.5166H32.2581V16.1295H41.9355V38.7101H38.7097V34.09L36.5049 33.3835C36.3041 32.7602 36.0557 32.1577 35.7638 31.586L36.8218 29.5303L32.5686 25.2771L30.5129 26.3351C29.9404 26.0432 29.3388 25.7948 28.7154 25.594L28.0073 23.3876H21.992L21.2855 25.5924C20.6621 25.7932 20.0597 26.0416 19.488 26.3335L17.4323 25.2755L13.1791 29.5287L14.2371 31.5843C13.9452 32.1569 13.6968 32.7585 13.496 33.3819L11.2904 34.09V38.7101H8.06456V16.1295H17.742ZM17.742 37.0972C17.742 33.0948 20.9976 29.8392 25 29.8392C29.0025 29.8392 32.2581 33.0948 32.2581 37.0972C32.2581 37.6448 32.1775 38.1819 32.0573 38.7101H28.6928C28.9129 38.2061 29.0323 37.6585 29.0323 37.0972C29.0323 34.8739 27.2234 33.065 25 33.065C22.7767 33.065 20.9678 34.8739 20.9678 37.0972C20.9678 37.6585 21.0871 38.2061 21.3073 38.7101H17.9436C17.8234 38.1819 17.742 37.6448 17.742 37.0972ZM22.5807 37.0972C22.5807 35.7634 23.6662 34.6779 25 34.6779C26.3339 34.6779 27.4194 35.7634 27.4194 37.0972C27.4194 37.6989 27.1839 38.2674 26.7839 38.7101H23.2154C22.8162 38.2674 22.5807 37.6989 22.5807 37.0972ZM12.9033 35.2658L14.8033 34.6577L14.921 34.2408C15.146 33.444 15.4589 32.6843 15.8509 31.9851L16.0621 31.6069L15.1509 29.8376L17.7412 27.2472L19.5105 28.1585L19.8888 27.9472C20.588 27.5553 21.3476 27.2424 22.1444 27.0174L22.5613 26.8997L23.1686 25.0005H26.8307L27.4388 26.9005L27.8557 27.0182C28.6525 27.2432 29.4121 27.5561 30.1113 27.9481L30.4896 28.1593L32.2589 27.2481L34.8492 29.8384L33.938 31.6077L34.1492 31.986C34.5412 32.6851 34.8541 33.4448 35.0791 34.2416L35.1968 34.6585L37.0968 35.2658V38.7101H33.7186C33.8162 38.1803 33.871 37.6416 33.871 37.0972C33.871 32.2061 29.8912 28.2263 25 28.2263C20.1089 28.2263 16.1291 32.2061 16.1291 37.0972C16.1291 37.6416 16.1847 38.1803 16.2815 38.7101H12.9033V35.2658Z" fill="#FD5D07"/>
<path d="M10.4839 3.22559H13.7097V4.83849H10.4839V3.22559Z" fill="#FD5D07"/>
<path d="M23.3872 3.22559H26.613V4.83849H23.3872V3.22559Z" fill="#FD5D07"/>
<path d="M36.2905 3.22559H39.5163V4.83849H36.2905V3.22559Z" fill="#FD5D07"/>
<path d="M24.1934 21.7742H25.8063V8.06452H29.8386V0H20.1611V8.06452H24.1934V21.7742ZM21.774 1.6129H28.2256V6.45161H21.774V1.6129Z" fill="#FD5D07"/>
<path d="M37.0967 11.2903H29.0322V21.7742H30.6451V12.9032H38.7096V8.06452H42.7419V0H33.0645V8.06452H37.0967V11.2903ZM34.6774 1.6129H41.129V6.45161H34.6774V1.6129Z" fill="#FD5D07"/>
<path d="M11.2906 12.9032H19.3551V21.7742H20.968V11.2903H12.9035V8.06452H16.9357V0H7.2583V8.06452H11.2906V12.9032ZM8.8712 1.6129H15.3228V6.45161H8.8712V1.6129Z" fill="#FD5D07"/>
</g>
<defs>
<clipPath id="clip0_400_7778">
<rect width="50" height="50" fill="white"/>
</clipPath>
</defs>
</svg>
