<svg width="50" height="50" viewBox="0 0 50 50" fill="none" xmlns="http://www.w3.org/2000/svg">
<g clip-path="url(#clip0_338_4679)">
<path d="M34.1992 26.0903C34.0879 25.987 33.949 25.9185 33.7993 25.893C33.6497 25.8674 33.4958 25.8861 33.3566 25.9466C33.2174 26.0071 33.0988 26.1068 33.0154 26.2336C32.9319 26.3604 32.8872 26.5088 32.8867 26.6606V47.9106C32.8869 48.0402 32.9194 48.1677 32.9811 48.2817C33.0429 48.3957 33.1321 48.4924 33.2406 48.5634C33.3491 48.6343 33.4735 48.6771 33.6027 48.6879C33.7318 48.6987 33.8617 48.6773 33.9805 48.6254L38.1953 46.7895L39.3672 49.5239C39.4525 49.7112 39.6082 49.8572 39.8006 49.9304C39.9929 50.0035 40.2064 49.9978 40.3945 49.9145L46.0937 47.4575C46.281 47.3722 46.4271 47.2164 46.5003 47.0241C46.5734 46.8317 46.5677 46.6183 46.4844 46.4301L45.3125 43.6957L49.5273 41.8598C49.6463 41.8079 49.7504 41.7272 49.8304 41.625C49.9103 41.5228 49.9635 41.4023 49.9852 41.2744C50.0069 41.1465 49.9965 41.0152 49.9547 40.8923C49.9129 40.7695 49.8413 40.6589 49.7461 40.5707L34.1992 26.0903ZM43.9648 42.5707C43.7775 42.656 43.6315 42.8117 43.5583 43.0041C43.4852 43.1965 43.4909 43.4099 43.5742 43.5981L44.7461 46.3325L40.4805 48.1879L39.3086 45.4536C39.2233 45.2663 39.0676 45.1202 38.8752 45.047C38.6829 44.9739 38.4694 44.9796 38.2812 45.0629L34.4414 46.7348V28.4731L47.8086 40.9184L43.9648 42.5707Z" fill="#FD5D07"/>
<path d="M30.4688 45.3125C30.676 45.3125 30.8747 45.2302 31.0212 45.0837C31.1677 44.9372 31.25 44.7384 31.25 44.5312C31.25 44.3241 31.1677 44.1253 31.0212 43.9788C30.8747 43.8323 30.676 43.75 30.4688 43.75H4.71875C3.88166 43.75 3.07886 43.4175 2.48694 42.8256C1.89503 42.2336 1.5625 41.4308 1.5625 40.5938V14.0625H43.75V32.4219C43.75 32.6291 43.8323 32.8278 43.9788 32.9743C44.1253 33.1208 44.3241 33.2031 44.5312 33.2031C44.7384 33.2031 44.9372 33.1208 45.0837 32.9743C45.2302 32.8278 45.3125 32.6291 45.3125 32.4219V4.71875C45.3115 3.46758 44.814 2.26795 43.9293 1.38323C43.0446 0.498519 41.8449 0.00103446 40.5938 0L4.71875 0C3.46758 0.00103446 2.26795 0.498519 1.38323 1.38323C0.498519 2.26795 0.00103446 3.46758 0 4.71875L0 40.5977C0.00206822 41.8482 0.500009 43.0468 1.38461 43.9306C2.26921 44.8145 3.46825 45.3115 4.71875 45.3125H30.4688ZM4.71875 1.5625H40.5977C41.4341 1.56354 42.2359 1.89652 42.8269 2.48832C43.418 3.08012 43.75 3.88234 43.75 4.71875V12.5H1.5625V4.71875C1.5625 3.88166 1.89503 3.07886 2.48694 2.48694C3.07886 1.89503 3.88166 1.5625 4.71875 1.5625Z" fill="#FD5D07"/>
<path d="M38.2813 9.375C38.7448 9.375 39.1979 9.23754 39.5834 8.98001C39.9688 8.72247 40.2692 8.35643 40.4466 7.92817C40.624 7.4999 40.6704 7.02865 40.58 6.57401C40.4895 6.11937 40.2663 5.70175 39.9385 5.37397C39.6108 5.04619 39.1931 4.82297 38.7385 4.73254C38.2838 4.6421 37.8126 4.68852 37.3843 4.86591C36.9561 5.0433 36.59 5.34371 36.3325 5.72913C36.075 6.11456 35.9375 6.5677 35.9375 7.03125C35.9375 7.65285 36.1844 8.24899 36.624 8.68853C37.0635 9.12807 37.6596 9.375 38.2813 9.375ZM38.2813 6.25C38.4358 6.25 38.5868 6.29582 38.7153 6.38167C38.8438 6.46751 38.9439 6.58952 39.003 6.73228C39.0622 6.87503 39.0776 7.03212 39.0475 7.18367C39.0173 7.33521 38.9429 7.47442 38.8337 7.58368C38.7244 7.69294 38.5852 7.76734 38.4337 7.79749C38.2821 7.82763 38.125 7.81216 37.9823 7.75303C37.8395 7.6939 37.7175 7.59377 37.6317 7.46529C37.5458 7.33681 37.5 7.18577 37.5 7.03125C37.5 6.82405 37.5823 6.62534 37.7288 6.47882C37.8753 6.33231 38.074 6.25 38.2813 6.25Z" fill="#FD5D07"/>
<path d="M32.0313 9.375C32.4948 9.375 32.9479 9.23754 33.3334 8.98001C33.7188 8.72247 34.0192 8.35643 34.1966 7.92817C34.374 7.4999 34.4204 7.02865 34.33 6.57401C34.2395 6.11937 34.0163 5.70175 33.6885 5.37397C33.3608 5.04619 32.9431 4.82297 32.4885 4.73254C32.0338 4.6421 31.5626 4.68852 31.1343 4.86591C30.7061 5.0433 30.34 5.34371 30.0825 5.72913C29.825 6.11456 29.6875 6.5677 29.6875 7.03125C29.6875 7.65285 29.9344 8.24899 30.374 8.68853C30.8135 9.12807 31.4096 9.375 32.0313 9.375ZM32.0313 6.25C32.1858 6.25 32.3368 6.29582 32.4653 6.38167C32.5938 6.46751 32.6939 6.58952 32.753 6.73228C32.8122 6.87503 32.8276 7.03212 32.7975 7.18367C32.7673 7.33521 32.6929 7.47442 32.5837 7.58368C32.4744 7.69294 32.3352 7.76734 32.1837 7.79749C32.0321 7.82763 31.875 7.81216 31.7323 7.75303C31.5895 7.6939 31.4675 7.59377 31.3817 7.46529C31.2958 7.33681 31.25 7.18577 31.25 7.03125C31.25 6.82405 31.3323 6.62534 31.4788 6.47882C31.6253 6.33231 31.824 6.25 32.0313 6.25Z" fill="#FD5D07"/>
<path d="M25.7813 9.375C26.2448 9.375 26.6979 9.23754 27.0834 8.98001C27.4688 8.72247 27.7692 8.35643 27.9466 7.92817C28.124 7.4999 28.1704 7.02865 28.08 6.57401C27.9895 6.11937 27.7663 5.70175 27.4385 5.37397C27.1108 5.04619 26.6931 4.82297 26.2385 4.73254C25.7838 4.6421 25.3126 4.68852 24.8843 4.86591C24.4561 5.0433 24.09 5.34371 23.8325 5.72913C23.575 6.11456 23.4375 6.5677 23.4375 7.03125C23.4375 7.65285 23.6844 8.24899 24.124 8.68853C24.5635 9.12807 25.1596 9.375 25.7813 9.375ZM25.7813 6.25C25.9358 6.25 26.0868 6.29582 26.2153 6.38167C26.3438 6.46751 26.4439 6.58952 26.503 6.73228C26.5622 6.87503 26.5776 7.03212 26.5475 7.18367C26.5173 7.33521 26.4429 7.47442 26.3337 7.58368C26.2244 7.69294 26.0852 7.76734 25.9337 7.79749C25.7821 7.82763 25.625 7.81216 25.4823 7.75303C25.3395 7.6939 25.2175 7.59377 25.1317 7.46529C25.0458 7.33681 25 7.18577 25 7.03125C25 6.82405 25.0823 6.62534 25.2288 6.47882C25.3753 6.33231 25.574 6.25 25.7813 6.25Z" fill="#FD5D07"/>
<path d="M28.9062 20.3125H13.9844C13.8051 19.4295 13.326 18.6356 12.6283 18.0653C11.9307 17.4951 11.0573 17.1836 10.1562 17.1836C9.25519 17.1836 8.38184 17.4951 7.68417 18.0653C6.98651 18.6356 6.50743 19.4295 6.32813 20.3125H5.46875C5.26155 20.3125 5.06284 20.3948 4.91632 20.5413C4.76981 20.6878 4.6875 20.8866 4.6875 21.0938C4.6875 21.301 4.76981 21.4997 4.91632 21.6462C5.06284 21.7927 5.26155 21.875 5.46875 21.875H6.32813C6.50743 22.758 6.98651 23.5519 7.68417 24.1222C8.38184 24.6924 9.25519 25.0039 10.1562 25.0039C11.0573 25.0039 11.9307 24.6924 12.6283 24.1222C13.326 23.5519 13.8051 22.758 13.9844 21.875H28.9062C29.1135 21.875 29.3122 21.7927 29.4587 21.6462C29.6052 21.4997 29.6875 21.301 29.6875 21.0938C29.6875 20.8866 29.6052 20.6878 29.4587 20.5413C29.3122 20.3948 29.1135 20.3125 28.9062 20.3125ZM10.1562 23.4375C9.6927 23.4375 9.23956 23.3001 8.85413 23.0425C8.4687 22.785 8.1683 22.4189 7.99091 21.9907C7.81351 21.5624 7.7671 21.0912 7.85753 20.6365C7.94797 20.1819 8.17119 19.7643 8.49897 19.4365C8.82675 19.1087 9.24436 18.8855 9.69901 18.795C10.1537 18.7046 10.6249 18.751 11.0532 18.9284C11.4814 19.1058 11.8475 19.4062 12.105 19.7916C12.3625 20.1771 12.5 20.6302 12.5 21.0938C12.5 21.7154 12.2531 22.3115 11.8135 22.751C11.374 23.1906 10.7779 23.4375 10.1562 23.4375Z" fill="#FD5D07"/>
<path d="M21.0156 35.9375C20.8363 35.0545 20.3572 34.2606 19.6596 33.6903C18.9619 33.1201 18.0886 32.8086 17.1875 32.8086C16.2864 32.8086 15.4131 33.1201 14.7154 33.6903C14.0178 34.2606 13.5387 35.0545 13.3594 35.9375H5.46875C5.26155 35.9375 5.06284 36.0198 4.91632 36.1663C4.76981 36.3128 4.6875 36.5116 4.6875 36.7188C4.6875 36.926 4.76981 37.1247 4.91632 37.2712C5.06284 37.4177 5.26155 37.5 5.46875 37.5H13.3594C13.5387 38.383 14.0178 39.1769 14.7154 39.7472C15.4131 40.3174 16.2864 40.6289 17.1875 40.6289C18.0886 40.6289 18.9619 40.3174 19.6596 39.7472C20.3572 39.1769 20.8363 38.383 21.0156 37.5H28.9062C29.1135 37.5 29.3122 37.4177 29.4587 37.2712C29.6052 37.1247 29.6875 36.926 29.6875 36.7188C29.6875 36.5116 29.6052 36.3128 29.4587 36.1663C29.3122 36.0198 29.1135 35.9375 28.9062 35.9375H21.0156ZM17.1875 39.0625C16.724 39.0625 16.2708 38.9251 15.8854 38.6675C15.5 38.41 15.1995 38.0439 15.0222 37.6157C14.8448 37.1874 14.7984 36.7162 14.8888 36.2615C14.9792 35.8069 15.2024 35.3893 15.5302 35.0615C15.858 34.7337 16.2756 34.5105 16.7303 34.42C17.1849 34.3296 17.6561 34.376 18.0844 34.5534C18.5127 34.7308 18.8787 35.0312 19.1363 35.4166C19.3938 35.8021 19.5312 36.2552 19.5312 36.7188C19.5312 37.3404 19.2843 37.9365 18.8448 38.376C18.4052 38.8156 17.8091 39.0625 17.1875 39.0625Z" fill="#FD5D07"/>
<path d="M25.7812 25C24.8807 24.9998 24.0078 25.3108 23.3102 25.8802C22.6126 26.4497 22.1332 27.2427 21.9531 28.125H5.46875C5.26155 28.125 5.06284 28.2073 4.91632 28.3538C4.76981 28.5003 4.6875 28.699 4.6875 28.9062C4.6875 29.1135 4.76981 29.3122 4.91632 29.4587C5.06284 29.6052 5.26155 29.6875 5.46875 29.6875H21.9531C22.1009 30.4117 22.4512 31.079 22.9631 31.6121C23.4751 32.1451 24.1278 32.522 24.8454 32.6989C25.563 32.8759 26.316 32.8456 27.0171 32.6116C27.7182 32.3776 28.3385 31.9495 28.806 31.3771C29.2735 30.8046 29.569 30.1113 29.6582 29.3776C29.7473 28.6439 29.6266 27.9 29.3098 27.2322C28.9931 26.5645 28.4934 26.0002 27.8688 25.6051C27.2442 25.21 26.5203 25.0002 25.7812 25ZM25.7812 31.25C25.3177 31.25 24.8646 31.1125 24.4791 30.855C24.0937 30.5975 23.7933 30.2314 23.6159 29.8032C23.4385 29.3749 23.3921 28.9037 23.4825 28.449C23.573 27.9944 23.7962 27.5767 24.124 27.249C24.4517 26.9212 24.8694 26.698 25.324 26.6075C25.7787 26.5171 26.2499 26.5635 26.6782 26.7409C27.1064 26.9183 27.4725 27.2187 27.73 27.6041C27.9875 27.9896 28.125 28.4427 28.125 28.9062C28.125 29.5279 27.8781 30.124 27.4385 30.5635C26.999 31.0031 26.4029 31.25 25.7812 31.25Z" fill="#FD5D07"/>
</g>
<defs>
<clipPath id="clip0_338_4679">
<rect width="50" height="50" fill="white"/>
</clipPath>
</defs>
</svg>
