<svg width="51" height="53" viewBox="0 0 51 53" fill="none" xmlns="http://www.w3.org/2000/svg">
<path d="M12.9351 21.5747C13.1251 21.7647 13.3742 21.8597 13.6232 21.8597C13.8723 21.8597 14.1213 21.7647 14.3113 21.5747C14.6914 21.1947 14.6914 20.5785 14.3113 20.1985L8.69248 14.5796C11.4876 12.07 14.8573 10.6365 18.2785 10.5191L22.3458 10.668C22.8827 10.6883 23.3342 10.2682 23.3539 9.73119C23.3735 9.19408 22.9541 8.74274 22.417 8.72306L18.3158 8.57286C18.2937 8.5721 18.2714 8.5721 18.2492 8.57269C14.0268 8.70729 9.89318 10.5897 6.60975 13.8731C6.22969 14.2531 6.22969 14.8693 6.60975 15.2493L12.9351 21.5747Z" fill="#FD5D07"/>
<path d="M50.0487 3.38004C49.9679 1.58119 48.4952 0.108898 46.6959 0.0281893C42.1762 -0.174165 33.5295 0.549137 26.4016 7.67461C20.1791 13.8949 13.4871 23.794 10.8354 30.7008L10.6089 31.2909L18.7753 39.4545L19.3651 39.2282C26.0154 36.6768 35.8578 29.9272 42.2594 23.5277C45.4614 20.327 47.7204 16.5253 48.9738 12.2284C50.0282 8.6136 50.1403 5.42139 50.0487 3.38004ZM19.2522 37.1792L12.884 30.8133C13.3162 29.7524 13.8405 28.6255 14.4392 27.4574L22.5913 35.6095C21.4221 36.2201 20.2999 36.7502 19.2522 37.1792ZM40.8835 22.1513C36.3155 26.7176 29.9684 31.4587 24.3721 34.6381L15.399 25.6649C18.5934 19.9267 23.3064 13.5206 27.7775 9.05104C29.9039 6.92538 32.1788 5.41585 34.4263 4.35136C36.1174 9.82694 39.9272 13.4652 45.7717 15.1875C44.6889 17.514 43.1269 19.9087 40.8835 22.1513ZM46.5276 13.379C41.1721 11.8529 37.7134 8.56346 36.2298 3.58572C40.3037 2.04974 44.1258 1.86106 46.6087 1.97255C47.3847 2.00729 48.0696 2.69182 48.1044 3.46734C48.1923 5.42524 48.0846 9.18835 46.5276 13.379Z" fill="#FD5D07"/>
<path d="M32.5993 12.1289C29.6481 12.1289 27.2471 14.5299 27.2471 17.4811C27.2471 20.4324 29.6481 22.8333 32.5993 22.8333C35.5505 22.8333 37.9515 20.4324 37.9515 17.4811C37.9515 14.5299 35.5505 12.1289 32.5993 12.1289ZM32.5993 20.8871C30.7212 20.8871 29.1933 19.3592 29.1933 17.4811C29.1933 15.603 30.7212 14.0752 32.5993 14.0752C34.4773 14.0752 36.0052 15.6031 36.0052 17.4811C36.0053 19.3592 34.4773 20.8871 32.5993 20.8871Z" fill="#FD5D07"/>
<path d="M2.95703 20.2557L9.55155 26.4607C9.73947 26.6376 9.97907 26.7252 10.2182 26.7252C10.4772 26.7252 10.7357 26.6224 10.9271 26.4189C11.2954 26.0275 11.2767 25.4117 10.8853 25.0434L4.31244 18.8587L6.02743 17.2085C6.41471 16.8359 6.42663 16.2199 6.05397 15.8326C5.68132 15.4453 5.06531 15.4334 4.67803 15.8061L2.94919 17.4694C2.94465 17.4738 2.94016 17.4782 2.93573 17.4827C2.17702 18.2415 2.17702 19.4762 2.93573 20.235C2.94272 20.242 2.94983 20.2489 2.95703 20.2557Z" fill="#FD5D07"/>
<path d="M40.4006 26.7257C40.3952 26.7256 40.3899 26.7256 40.3845 26.7256C39.8545 26.7256 39.4205 27.151 39.4118 27.683L39.3491 31.5631C39.2447 34.7687 37.7889 37.9082 35.0192 40.9061L29.8819 35.7688C29.5019 35.3888 28.8858 35.3888 28.5057 35.7688C28.1257 36.1488 28.1257 36.765 28.5057 37.145L34.3445 42.9838C34.5346 43.1738 34.7836 43.2688 35.0326 43.2688C35.2817 43.2688 35.5307 43.1738 35.7207 42.9838C39.2424 39.4621 41.1698 35.5318 41.2945 31.6177C41.2947 31.6126 41.2948 31.6076 41.2949 31.6025L41.3578 27.7145C41.3666 27.1771 40.938 26.7344 40.4006 26.7257Z" fill="#FD5D07"/>
<path d="M32.8635 43.5764L31.0085 45.5557L24.5252 39.1695C24.1423 38.7923 23.5262 38.797 23.149 39.1799C22.7718 39.5627 22.7765 40.1789 23.1594 40.556L29.6327 46.9323C30.0121 47.3116 30.5105 47.5014 31.0089 47.5014C31.5073 47.5014 32.0057 47.3117 32.3851 46.9322C32.3926 46.9248 34.2836 44.9074 34.2836 44.9074C34.6511 44.5152 34.6312 43.8994 34.2391 43.5319C33.8469 43.1643 33.231 43.1843 32.8635 43.5764Z" fill="#FD5D07"/>
<path d="M13.3393 35.7684C12.9593 35.3884 12.3431 35.3884 11.9631 35.7684L2.2318 45.4997C1.85177 45.8797 1.85177 46.4959 2.2318 46.8759C2.4218 47.0659 2.67085 47.1609 2.91989 47.1609C3.16893 47.1609 3.41798 47.0659 3.60798 46.8759L13.3393 37.1446C13.7193 36.7646 13.7193 36.1484 13.3393 35.7684Z" fill="#FD5D07"/>
<path d="M15.8554 40.1473L4.66442 51.3383C4.28439 51.7183 4.28439 52.3345 4.66442 52.7145C4.85443 52.9045 5.10347 52.9996 5.3525 52.9996C5.60154 52.9996 5.8506 52.9045 6.04059 52.7145L17.2316 41.5235C17.6117 41.1435 17.6117 40.5273 17.2316 40.1473C16.8516 39.7673 16.2354 39.7673 15.8554 40.1473Z" fill="#FD5D07"/>
<path d="M9.44629 31.3895C9.06622 31.0095 8.4501 31.0095 8.07005 31.3895L0.285008 39.1745C-0.0950025 39.5546 -0.0950025 40.1707 0.285008 40.5507C0.475044 40.7407 0.724081 40.8358 0.973138 40.8358C1.22217 40.8358 1.47123 40.7407 1.66127 40.5507L9.44631 32.7657C9.82632 32.3857 9.82632 31.7695 9.44629 31.3895Z" fill="#FD5D07"/>
</svg>
