<svg width="50" height="50" viewBox="0 0 50 50" fill="none" xmlns="http://www.w3.org/2000/svg">
<g clip-path="url(#clip0_338_4688)">
<path d="M46.8143 13.2893C46.8143 12.7677 46.5337 12.2818 46.0818 12.0207L25.4882 0.130884C25.186 -0.0436279 24.8138 -0.0436279 24.5116 0.130884L3.67383 12.1616C3.37168 12.3361 3.18555 12.6585 3.18555 13.0073V37.0688C3.18555 37.4176 3.37168 37.7401 3.67383 37.9145L24.2673 49.8041C24.4932 49.9347 24.7466 49.9999 25 49.9999C25.2532 49.9999 25.5065 49.9347 25.7323 49.8042L46.0816 38.0555C46.5335 37.7948 46.8143 37.3086 46.8143 36.7868V26.8127C46.8143 26.2734 46.377 25.8362 45.8377 25.8362C45.2984 25.8362 44.8611 26.2735 44.8611 26.8127V29.6911L36.3929 34.3541C35.8715 33.8693 35.1734 33.5719 34.407 33.5719C32.7974 33.5719 31.4879 34.8814 31.4879 36.491C31.4879 38.1007 32.7974 39.4102 34.407 39.4102C36.0167 39.4102 37.3262 38.1007 37.3262 36.491C37.3262 36.3534 37.3159 36.2183 37.2974 36.0858L44.8611 31.9208V36.505L25.9113 47.4457V35.2451L33.3481 31.3846C33.996 31.0482 34.3984 30.3858 34.3984 29.6559L34.3955 26.781L36.6985 25.5856C37.2179 26.0603 37.9087 26.3503 38.666 26.3503C40.2757 26.3503 41.5852 25.0408 41.5852 23.4312C41.5852 21.8215 40.2757 20.512 38.666 20.512C37.0563 20.512 35.7469 21.8215 35.7469 23.4312C35.7469 23.5777 35.758 23.7215 35.7789 23.8622L33.4957 25.0474C32.8478 25.3836 32.4452 26.0461 32.4452 26.7762L32.448 29.6512L25.9112 33.0446V32.1907C25.9112 32.1896 25.9112 32.1884 25.9112 32.1871V24.4508L44.861 14.6147V17.9142C44.861 18.4535 45.2983 18.8907 45.8376 18.8907C46.3769 18.8907 46.8142 18.4534 46.8142 17.9142V13.2893H46.8143ZM34.407 37.4571C33.8744 37.4571 33.441 37.0237 33.441 36.491C33.441 35.9584 33.8744 35.525 34.407 35.525C34.9396 35.525 35.373 35.9584 35.373 36.491C35.373 37.0238 34.9396 37.4571 34.407 37.4571ZM38.6661 22.4652C39.1987 22.4652 39.6321 22.8986 39.6321 23.4312C39.6321 23.9638 39.1987 24.3972 38.6661 24.3972C38.1335 24.3972 37.7001 23.9638 37.7001 23.4312C37.7001 22.8986 38.1335 22.4652 38.6661 22.4652ZM24.9999 2.10432L43.8057 12.9618L37.9619 15.9951C37.9168 15.9571 37.8681 15.9221 37.8148 15.8918L30.6335 11.8092C30.6661 11.6347 30.684 11.4551 30.684 11.2713C30.684 9.66165 29.3745 8.35217 27.7648 8.35217C26.1552 8.35217 24.8457 9.66165 24.8457 11.2713C24.8457 12.881 26.1552 14.1905 27.7648 14.1905C28.4832 14.1905 29.1414 13.9291 29.6505 13.4972L35.9141 17.058L24.9359 22.7564L6.18945 12.9646L10.9186 10.2342L15.1035 12.4201C15.0957 12.507 15.0911 12.5946 15.0911 12.6833C15.0911 14.293 16.4006 15.6025 18.0103 15.6025C19.6199 15.6025 20.9294 14.293 20.9294 12.6833C20.9294 11.0737 19.6199 9.76418 18.0103 9.76418C17.1932 9.76418 16.4538 10.1021 15.9234 10.6448L12.9223 9.07727L24.9999 2.10432ZM28.7309 11.2713C28.7309 11.8039 28.2975 12.2373 27.7648 12.2373C27.2322 12.2373 26.7988 11.8039 26.7988 11.2713C26.7988 10.7387 27.2322 10.3053 27.7648 10.3053C28.2975 10.3053 28.7309 10.7387 28.7309 11.2713ZM18.0102 11.7173C18.5428 11.7173 18.9762 12.1507 18.9762 12.6833C18.9762 13.2159 18.5428 13.6493 18.0102 13.6493C17.4775 13.6493 17.0441 13.2159 17.0441 12.6833C17.0441 12.1507 17.4775 11.7173 18.0102 11.7173ZM5.13867 32.2246L14.4603 37.0935C14.4471 37.2057 14.4396 37.3197 14.4396 37.4354C14.4396 39.045 15.749 40.3545 17.3587 40.3545C18.9684 40.3545 20.2778 39.045 20.2778 37.4354C20.2778 35.8257 18.9684 34.5162 17.3587 34.5162C16.5693 34.5162 15.8525 34.8317 15.3266 35.3426L5.13867 30.0212V14.6192L23.9582 24.4489V30.5914L13.678 25.2219C13.692 25.1065 13.7 24.9892 13.7 24.87C13.7 23.2604 12.3905 21.9509 10.7809 21.9509C9.17119 21.9509 7.86172 23.2604 7.86172 24.87C7.86172 26.4797 9.17119 27.7892 10.7809 27.7892C11.5667 27.7892 12.2805 27.4765 12.8058 26.9698L23.9582 32.7949V47.3704L5.13867 36.505V32.2246ZM17.3587 36.4695C17.8913 36.4695 18.3247 36.9029 18.3247 37.4355C18.3247 37.9681 17.8913 38.4015 17.3587 38.4015C16.8261 38.4015 16.3927 37.9681 16.3927 37.4355C16.3927 36.9029 16.8261 36.4695 17.3587 36.4695ZM11.7469 24.8701C11.7469 25.4028 11.3135 25.8362 10.7809 25.8362C10.2482 25.8362 9.81484 25.4028 9.81484 24.8701C9.81484 24.3375 10.2482 23.9041 10.7809 23.9041C11.3135 23.9041 11.7469 24.3375 11.7469 24.8701Z" fill="#FD5D07"/>
<path d="M45.7705 23.3477C46.3098 23.3477 46.7471 22.9104 46.7471 22.3711C46.7471 21.8318 46.3098 21.3945 45.7705 21.3945C45.2312 21.3945 44.7939 21.8318 44.7939 22.3711C44.7939 22.9104 45.2312 23.3477 45.7705 23.3477Z" fill="#FD5D07"/>
</g>
<defs>
<clipPath id="clip0_338_4688">
<rect width="50" height="50" fill="white"/>
</clipPath>
</defs>
</svg>
