<svg width="50" height="50" viewBox="0 0 50 50" fill="none" xmlns="http://www.w3.org/2000/svg">
<g clip-path="url(#clip0_352_2891)">
<path d="M22.5806 36.29V33.0642C22.5806 31.7304 21.4952 30.6449 20.1613 30.6449V29.032C21.4952 29.032 22.5806 27.9465 22.5806 26.6126V23.3868C22.5806 22.0529 21.4952 20.9675 20.1613 20.9675V19.3546C21.4952 19.3546 22.5806 18.2691 22.5806 16.9352V13.7094C22.5806 12.3755 21.4952 11.29 20.1613 11.29H2.41935C1.08548 11.29 0 12.3755 0 13.7094V16.9352C0 18.2691 1.08548 19.3546 2.41935 19.3546V20.9675C1.08548 20.9675 0 22.0529 0 23.3868V26.6126C0 27.9465 1.08548 29.032 2.41935 29.032V30.6449C1.08548 30.6449 0 31.7304 0 33.0642V36.29C0 37.6239 1.08548 38.7094 2.41935 38.7094H20.1613C21.4952 38.7094 22.5806 37.6239 22.5806 36.29ZM1.6129 16.9352V13.7094C1.6129 13.2642 1.97419 12.9029 2.41935 12.9029H20.1613C20.6065 12.9029 20.9677 13.2642 20.9677 13.7094V16.9352C20.9677 17.3804 20.6065 17.7417 20.1613 17.7417H2.41935C1.97419 17.7417 1.6129 17.3804 1.6129 16.9352ZM4.03226 19.3546H18.5484V20.9675H4.03226V19.3546ZM1.6129 26.6126V23.3868C1.6129 22.9416 1.97419 22.5804 2.41935 22.5804H20.1613C20.6065 22.5804 20.9677 22.9416 20.9677 23.3868V26.6126C20.9677 27.0578 20.6065 27.4191 20.1613 27.4191H2.41935C1.97419 27.4191 1.6129 27.0578 1.6129 26.6126ZM4.03226 29.032H18.5484V30.6449H4.03226V29.032ZM1.6129 36.29V33.0642C1.6129 32.6191 1.97419 32.2578 2.41935 32.2578H20.1613C20.6065 32.2578 20.9677 32.6191 20.9677 33.0642V36.29C20.9677 36.7352 20.6065 37.0965 20.1613 37.0965H2.41935C1.97419 37.0965 1.6129 36.7352 1.6129 36.29Z" fill="#FD5D07"/>
<path d="M50.0006 16.9352V13.7094C50.0006 12.3755 48.9151 11.29 47.5812 11.29H29.8393C28.5054 11.29 27.4199 12.3755 27.4199 13.7094V16.9352C27.4199 18.2691 28.5054 19.3546 29.8393 19.3546V20.9675C28.5054 20.9675 27.4199 22.0529 27.4199 23.3868V26.6126C27.4199 27.9465 28.5054 29.032 29.8393 29.032V30.6449C28.5054 30.6449 27.4199 31.7304 27.4199 33.0642V36.29C27.4199 37.6239 28.5054 38.7094 29.8393 38.7094H47.5812C48.9151 38.7094 50.0006 37.6239 50.0006 36.29V33.0642C50.0006 31.7304 48.9151 30.6449 47.5812 30.6449V29.032C48.9151 29.032 50.0006 27.9465 50.0006 26.6126V23.3868C50.0006 22.0529 48.9151 20.9675 47.5812 20.9675V19.3546C48.9151 19.3546 50.0006 18.2691 50.0006 16.9352ZM29.0328 16.9352V13.7094C29.0328 13.2642 29.3941 12.9029 29.8393 12.9029H47.5812C48.0264 12.9029 48.3877 13.2642 48.3877 13.7094V16.9352C48.3877 17.3804 48.0264 17.7417 47.5812 17.7417H29.8393C29.3941 17.7417 29.0328 17.3804 29.0328 16.9352ZM48.3877 33.0642V36.29C48.3877 36.7352 48.0264 37.0965 47.5812 37.0965H29.8393C29.3941 37.0965 29.0328 36.7352 29.0328 36.29V33.0642C29.0328 32.6191 29.3941 32.2578 29.8393 32.2578H47.5812C48.0264 32.2578 48.3877 32.6191 48.3877 33.0642ZM45.9683 30.6449H31.4522V29.032H45.9683V30.6449ZM48.3877 23.3868V26.6126C48.3877 27.0578 48.0264 27.4191 47.5812 27.4191H29.8393C29.3941 27.4191 29.0328 27.0578 29.0328 26.6126V23.3868C29.0328 22.9416 29.3941 22.5804 29.8393 22.5804H47.5812C48.0264 22.5804 48.3877 22.9416 48.3877 23.3868ZM45.9683 20.9675H31.4522V19.3546H45.9683V20.9675Z" fill="#FD5D07"/>
<path d="M36.2903 3.22596V2.26225L40.4136 4.83886L36.2903 7.41547V6.45176C36.2903 6.0058 35.9298 5.64531 35.4838 5.64531H9.67736V7.25821H34.6774V8.87112C34.6774 9.16386 34.8362 9.43402 35.0935 9.57676C35.2145 9.6437 35.3491 9.67757 35.4838 9.67757C35.633 9.67757 35.7806 9.63644 35.9112 9.55499L42.3628 5.52273C42.5983 5.37515 42.7419 5.11709 42.7419 4.83886C42.7419 4.56063 42.5983 4.30257 42.3628 4.15499L35.9112 0.122731C35.6612 -0.0337208 35.3483 -0.0401724 35.0927 0.100957C34.8362 0.243699 34.6774 0.51386 34.6774 0.806602V2.41951H8.06445V4.03241H35.4838C35.9298 4.03241 36.2903 3.67192 36.2903 3.22596Z" fill="#FD5D07"/>
<path d="M13.7094 46.774V47.7377L9.58604 45.1611L13.7094 42.5845V43.5482C13.7094 43.9942 14.0699 44.3547 14.5159 44.3547H40.3223V42.7418H15.3223V41.1289C15.3223 40.8361 15.1635 40.566 14.9062 40.4232C14.6514 40.2821 14.3368 40.2885 14.0877 40.445L7.63604 44.4773C7.40136 44.6248 7.25781 44.8829 7.25781 45.1611C7.25781 45.4394 7.40136 45.6974 7.63684 45.845L14.0885 49.8773C14.2191 49.9587 14.3667 49.9998 14.5159 49.9998C14.6506 49.9998 14.7852 49.966 14.9062 49.899C15.1635 49.7563 15.3223 49.4861 15.3223 49.1934V47.5805H41.9352V45.9676H14.5159C14.0699 45.9676 13.7094 46.3281 13.7094 46.774Z" fill="#FD5D07"/>
<path d="M41.9355 42.7422H43.5485V44.3551H41.9355V42.7422Z" fill="#FD5D07"/>
<path d="M45.1621 42.7422H46.775V44.3551H45.1621V42.7422Z" fill="#FD5D07"/>
<path d="M6.45117 5.64551H8.06407V7.25841H6.45117V5.64551Z" fill="#FD5D07"/>
<path d="M3.22656 5.64551H4.83947V7.25841H3.22656V5.64551Z" fill="#FD5D07"/>
</g>
<defs>
<clipPath id="clip0_352_2891">
<rect width="50" height="50" fill="white"/>
</clipPath>
</defs>
</svg>
