<svg width="54" height="54" viewBox="0 0 54 54" fill="none" xmlns="http://www.w3.org/2000/svg">
<path d="M6.75 44.7188H7.59375V47.25C7.59375 47.4738 7.68264 47.6884 7.84088 47.8466C7.99911 48.0049 8.21372 48.0938 8.4375 48.0938H13.5C13.7238 48.0938 13.9384 48.0049 14.0966 47.8466C14.2549 47.6884 14.3438 47.4738 14.3438 47.25V44.7188H19.4062V47.25C19.4062 47.4738 19.4951 47.6884 19.6534 47.8466C19.8116 48.0049 20.0262 48.0938 20.25 48.0938H25.3125C25.5363 48.0938 25.7509 48.0049 25.9091 47.8466C26.0674 47.6884 26.1562 47.4738 26.1562 47.25V44.7188H27C27.2238 44.7188 27.4384 44.6299 27.5966 44.4716C27.7549 44.3134 27.8438 44.0988 27.8438 43.875V21.0938H37.9688V34.5938H32.0625C31.8387 34.5938 31.6241 34.6826 31.4659 34.8409C31.3076 34.9991 31.2188 35.2137 31.2188 35.4375V43.6756L29.6202 46.8726C29.5559 47.0013 29.5256 47.1442 29.532 47.2879C29.5385 47.4316 29.5816 47.5712 29.6572 47.6936C29.7329 47.8159 29.8385 47.9169 29.9641 47.9869C30.0897 48.057 30.2312 48.0937 30.375 48.0938H47.25C47.3938 48.0937 47.5353 48.057 47.6609 47.9869C47.7865 47.9169 47.8922 47.8159 47.9678 47.6936C48.0434 47.5712 48.0865 47.4316 48.093 47.2879C48.0994 47.1442 48.0691 47.0013 48.0048 46.8726L46.4062 43.6756V35.4375C46.4062 35.2137 46.3174 34.9991 46.1591 34.8409C46.0009 34.6826 45.7863 34.5938 45.5625 34.5938H39.6562V20.25C39.6562 20.0262 39.5674 19.8116 39.4091 19.6534C39.2509 19.4951 39.0363 19.4062 38.8125 19.4062H27.8438V6.75C27.8438 6.52622 27.7549 6.31161 27.5966 6.15338C27.4384 5.99515 27.2238 5.90625 27 5.90625H6.75C6.52622 5.90625 6.31161 5.99515 6.15338 6.15338C5.99515 6.31161 5.90625 6.52622 5.90625 6.75V43.875C5.90625 44.0988 5.99515 44.3134 6.15338 44.4716C6.31161 44.6299 6.52622 44.7188 6.75 44.7188ZM45.8847 46.4062H31.7403L32.5841 44.7188H45.0409L45.8847 46.4062ZM44.7188 36.2812V43.0312H32.9062V36.2812H44.7188ZM12.6562 46.4062H9.28125V44.7188H12.6562V46.4062ZM24.4688 46.4062H21.0938V44.7188H24.4688V46.4062ZM7.59375 7.59375H26.1562V43.0312H7.59375V7.59375Z" fill="#FD5D07"/>
<path d="M10.125 14.3438H23.625C23.8488 14.3438 24.0634 14.2549 24.2216 14.0966C24.3799 13.9384 24.4688 13.7238 24.4688 13.5V10.125C24.4688 9.90122 24.3799 9.68661 24.2216 9.52838C24.0634 9.37015 23.8488 9.28125 23.625 9.28125H10.125C9.90122 9.28125 9.68661 9.37015 9.52838 9.52838C9.37015 9.68661 9.28125 9.90122 9.28125 10.125V13.5C9.28125 13.7238 9.37015 13.9384 9.52838 14.0966C9.68661 14.2549 9.90122 14.3438 10.125 14.3438ZM10.9688 10.9688H22.7812V12.6562H10.9688V10.9688Z" fill="#FD5D07"/>
<path d="M10.125 21.0938H23.625C23.8488 21.0938 24.0634 21.0049 24.2216 20.8466C24.3799 20.6884 24.4688 20.4738 24.4688 20.25V16.875C24.4688 16.6512 24.3799 16.4366 24.2216 16.2784C24.0634 16.1201 23.8488 16.0312 23.625 16.0312H10.125C9.90122 16.0312 9.68661 16.1201 9.52838 16.2784C9.37015 16.4366 9.28125 16.6512 9.28125 16.875V20.25C9.28125 20.4738 9.37015 20.6884 9.52838 20.8466C9.68661 21.0049 9.90122 21.0938 10.125 21.0938ZM10.9688 17.7188H22.7812V19.4062H10.9688V17.7188Z" fill="#FD5D07"/>
<path d="M10.125 27.8438H23.625C23.8488 27.8438 24.0634 27.7549 24.2216 27.5966C24.3799 27.4384 24.4688 27.2238 24.4688 27V23.625C24.4688 23.4012 24.3799 23.1866 24.2216 23.0284C24.0634 22.8701 23.8488 22.7812 23.625 22.7812H10.125C9.90122 22.7812 9.68661 22.8701 9.52838 23.0284C9.37015 23.1866 9.28125 23.4012 9.28125 23.625V27C9.28125 27.2238 9.37015 27.4384 9.52838 27.5966C9.68661 27.7549 9.90122 27.8438 10.125 27.8438ZM10.9688 24.4688H22.7812V26.1562H10.9688V24.4688Z" fill="#FD5D07"/>
<path d="M16.875 31.2188C16.0406 31.2188 15.225 31.4662 14.5312 31.9297C13.8374 32.3933 13.2967 33.0522 12.9774 33.8231C12.6581 34.5939 12.5745 35.4422 12.7373 36.2605C12.9001 37.0789 13.3019 37.8306 13.8919 38.4206C14.4819 39.0106 15.2336 39.4124 16.052 39.5752C16.8703 39.738 17.7186 39.6544 18.4894 39.3351C19.2603 39.0158 19.9192 38.4751 20.3828 37.7813C20.8463 37.0875 21.0938 36.2719 21.0938 35.4375C21.0924 34.319 20.6475 33.2467 19.8567 32.4558C19.0658 31.665 17.9935 31.2201 16.875 31.2188ZM16.875 37.9688C16.3744 37.9688 15.885 37.8203 15.4687 37.5422C15.0525 37.264 14.728 36.8687 14.5364 36.4062C14.3448 35.9436 14.2947 35.4347 14.3924 34.9437C14.4901 34.4527 14.7311 34.0016 15.0851 33.6476C15.4391 33.2936 15.8902 33.0526 16.3812 32.9549C16.8722 32.8572 17.3811 32.9073 17.8437 33.0989C18.3062 33.2905 18.7015 33.615 18.9797 34.0312C19.2578 34.4475 19.4063 34.9369 19.4063 35.4375C19.4055 36.1086 19.1386 36.752 18.6641 37.2266C18.1895 37.7011 17.5461 37.968 16.875 37.9688Z" fill="#FD5D07"/>
</svg>
