<svg width="53" height="53" viewBox="0 0 53 53" fill="none" xmlns="http://www.w3.org/2000/svg">
<g clip-path="url(#clip0_352_2907)">
<path d="M30.0378 23.933C30.0378 21.9668 28.443 20.3672 26.4828 20.3672C24.5225 20.3672 22.9277 21.9668 22.9277 23.933C22.9277 25.5867 24.0558 26.9806 25.5805 27.3823L25.5985 31.1607C25.6008 31.6596 26.006 32.0496 26.5043 32.0496H26.5087C27.0091 32.0496 27.4127 31.6575 27.4104 31.1572L27.3924 27.3802C28.9135 26.976 30.0378 25.584 30.0378 23.933ZM26.4829 25.687C25.5218 25.687 24.7398 24.9002 24.7398 23.933C24.7398 22.9659 25.5217 22.1792 26.4829 22.1792C27.4439 22.1792 28.2259 22.9659 28.2259 23.933C28.2259 24.9002 27.4439 25.687 26.4829 25.687Z" fill="#FD5D07"/>
<path d="M49.5993 22.8769C48.0382 22.8769 46.7203 23.8955 46.3223 25.3677H40.2242C40.5819 23.669 40.842 21.9703 41.0443 20.1583H45.4691C45.9695 20.1583 46.3184 19.7879 46.3184 19.2875V10.6354C47.7906 10.2398 48.8464 8.92197 48.8464 7.36062C48.8464 5.48762 47.3351 3.96387 45.4598 3.96387C43.5847 3.96387 42.0379 5.48762 42.0379 7.36062C42.0379 8.91846 43.1474 10.2338 44.5064 10.6327V18.3463H41.2316C41.3633 16.9874 41.4683 15.5236 41.5658 14.0808C41.6049 13.5024 41.0838 13.0615 40.5226 13.1487C39.4467 13.3545 38.3589 13.5095 37.2614 13.5095C33.6159 13.5093 30.2663 11.8563 27.0755 8.50658C26.6219 8.12006 26.1757 8.12833 25.737 8.53138C22.3487 12.5065 17.647 14.159 12.4781 13.1484C11.9148 13.0382 11.3611 13.5023 11.4003 14.081C11.4996 15.5467 11.6042 16.9874 11.7318 18.3463H8.72009V10.6327C10.0791 10.2338 11.2003 8.91857 11.2003 7.36062C11.2003 5.48762 9.67001 3.96387 7.79485 3.96387C5.91969 3.96387 4.40126 5.48762 4.40126 7.36062C4.40126 8.92209 5.4359 10.2398 6.90812 10.6354V19.2874C6.90812 19.7878 7.29452 20.1582 7.79485 20.1582H11.915C12.1153 21.9702 12.3706 23.6689 12.7229 25.3676H6.67777C6.27971 23.8954 4.96196 22.8768 3.40083 22.8768C1.52556 22.8769 0 24.4008 0 26.2738C0 28.1467 1.52556 29.6705 3.40072 29.6705C4.96184 29.6705 6.27959 28.6519 6.67766 27.1797H13.155C13.6401 28.9956 14.326 30.6799 15.0901 32.3891H7.79485C7.29452 32.3891 6.90812 32.7596 6.90812 33.26V42.3663C5.4359 42.7635 4.40387 44.0801 4.40387 45.6398C4.40387 47.5128 5.92456 49.0365 7.79972 49.0365C9.67499 49.0365 11.2077 47.5128 11.2077 45.6398C11.2077 44.0801 10.1923 42.7635 8.72009 42.3663V34.201H16.1272C18.4474 37.825 21.7643 40.3774 26.1792 42.0238C26.3923 42.0876 26.6058 42.0882 26.8194 42.0253C31.1933 40.3519 34.4869 37.7117 36.7997 34.201H44.5064V42.3663C43.1474 42.7635 42.04 44.0801 42.04 45.6398C42.04 47.5128 43.5797 49.0365 45.455 49.0365C47.3302 49.0365 48.8344 47.5128 48.8344 45.6398C48.8344 44.0801 47.7906 42.7635 46.3184 42.3663V33.2601C46.3184 32.7597 45.9695 32.3892 45.4691 32.3892H37.8428C38.6216 30.6852 39.3056 28.9935 39.7898 27.1798H46.3222C46.7203 28.652 48.038 29.6706 49.5992 29.6706C51.4744 29.6705 53 28.1467 53 26.2737C53 24.4007 51.4744 22.8769 49.5993 22.8769ZM43.8854 7.36062C43.8854 6.48669 44.598 5.77583 45.474 5.77583C46.35 5.77583 47.0628 6.48669 47.0628 7.36062C47.0628 8.23456 46.35 8.94541 45.474 8.94541C44.598 8.94541 43.8854 8.23456 43.8854 7.36062ZM6.20123 7.36062C6.20123 6.48669 6.91401 5.77583 7.78998 5.77583C8.66595 5.77583 9.37874 6.48669 9.37874 7.36062C9.37874 8.23456 8.66595 8.94541 7.78998 8.94541C6.91401 8.94541 6.20123 8.23456 6.20123 7.36062ZM3.40072 27.8585C2.52475 27.8585 1.81197 27.1476 1.81197 26.2738C1.81197 25.3999 2.52475 24.689 3.40072 24.689C4.27669 24.689 4.98947 25.3999 4.98947 26.2738C4.98959 27.1476 4.27681 27.8585 3.40072 27.8585ZM9.38361 45.6398C9.38361 46.5137 8.67082 47.2246 7.79485 47.2246C6.91888 47.2246 6.20621 46.5137 6.20621 45.6398C6.20621 44.7658 6.91888 44.055 7.79485 44.055C8.67082 44.055 9.38361 44.7658 9.38361 45.6398ZM47.0579 45.6398C47.0579 46.5137 46.3451 47.2246 45.4691 47.2246C44.5932 47.2246 43.8804 46.5137 43.8804 45.6398C43.8804 44.7658 44.5932 44.055 45.4691 44.055C46.3451 44.055 47.0579 44.7658 47.0579 45.6398ZM13.2881 15.114C18.1764 15.744 23.1709 14.2212 26.4615 10.4551C30.0228 13.908 34.6672 15.9429 39.6788 15.1071C38.8318 26.75 37.0865 35.9647 26.4916 40.1862C15.8904 36.064 14.1409 26.8164 13.2881 15.114ZM49.5993 27.8585C48.7233 27.8585 48.0105 27.1476 48.0105 26.2738C48.0105 25.3999 48.7233 24.689 49.5993 24.689C50.4753 24.689 51.188 25.3999 51.188 26.2738C51.188 27.1476 50.4753 27.8585 49.5993 27.8585Z" fill="#FD5D07"/>
</g>
<defs>
<clipPath id="clip0_352_2907">
<rect width="53" height="53" fill="white"/>
</clipPath>
</defs>
</svg>
