<svg width="50" height="50" viewBox="0 0 50 50" fill="none" xmlns="http://www.w3.org/2000/svg">
<path d="M49.2188 28.9219C49.2188 39.963 40.2361 48.9456 29.1949 48.9456C25.0717 48.9456 21.0484 47.6655 17.6957 45.3136L18.0004 46.3815C18.1187 46.7965 17.8783 47.2288 17.4635 47.3473C17.3919 47.3677 17.3196 47.3774 17.2487 47.3774C16.9087 47.3774 16.5957 47.1536 16.4979 46.8103L15.5238 43.3964C15.4579 43.1655 15.502 42.9171 15.6432 42.7229C15.7844 42.5286 16.0071 42.4101 16.2472 42.4014L19.7948 42.2739C20.2286 42.2606 20.5881 42.5955 20.6036 43.0267C20.619 43.4578 20.282 43.8199 19.8509 43.8354L18.3876 43.888C21.5188 46.1496 25.3086 47.3832 29.1949 47.3832C39.3745 47.3831 47.6562 39.1014 47.6562 28.9219C47.6562 25.656 46.7923 22.4469 45.1578 19.6417C44.9405 19.2689 45.0667 18.7906 45.4395 18.5734C45.8123 18.3561 46.2906 18.4823 46.5078 18.8552C48.2812 21.8988 49.2188 25.3799 49.2188 28.9219ZM31.7475 29.3546C31.7475 30.7621 30.6023 31.9072 29.1949 31.9072C27.7875 31.9072 26.6424 30.7621 26.6424 29.3546C26.6424 27.9472 27.7875 26.802 29.1949 26.802C30.6023 26.802 31.7475 27.9472 31.7475 29.3546ZM30.185 29.3546C30.185 28.8087 29.7408 28.3645 29.1949 28.3645C28.649 28.3645 28.2049 28.8087 28.2049 29.3546C28.2049 29.9006 28.649 30.3447 29.1949 30.3447C29.7408 30.3447 30.185 29.9006 30.185 29.3546ZM26.7113 20.5361H31.6784C32.1099 20.5361 32.4597 20.1863 32.4597 19.7549C32.4597 19.3234 32.1099 18.9736 31.6784 18.9736H26.7113C26.2799 18.9736 25.9301 19.3234 25.9301 19.7549C25.9301 20.1863 26.2799 20.5361 26.7113 20.5361ZM26.7113 24.11H31.6784C32.1099 24.11 32.4597 23.7602 32.4597 23.3287C32.4597 22.8973 32.1099 22.5475 31.6784 22.5475H26.7113C26.2799 22.5475 25.9301 22.8973 25.9301 23.3287C25.9301 23.7602 26.2799 24.11 26.7113 24.11ZM17.0416 38.0928C16.5146 42.0904 13.0871 45.1867 8.94775 45.1867C4.44482 45.1867 0.781348 41.5232 0.781348 37.0203C0.781348 32.5173 4.44482 28.8538 8.94775 28.8538C9.02295 28.8538 9.09727 28.8574 9.17197 28.8595C9.18584 24.3623 10.6897 20.2098 13.215 16.8698H5.50381C2.8998 16.8698 0.78125 14.7513 0.78125 12.1473C0.78125 10.4071 1.72646 8.83672 3.22988 8.01074C3.296 4.16338 6.44639 1.05371 10.3092 1.05371C11.9973 1.05371 13.6029 1.64473 14.8802 2.72695C15.4405 2.57178 16.0198 2.49336 16.6079 2.49336C19.7468 2.49336 22.3948 4.72207 22.9639 7.75537C23.7787 8.07979 24.4958 8.63135 25.0223 9.33672C26.3687 9.0502 27.7644 8.89814 29.1949 8.89814C33.3278 8.89814 37.3411 10.1768 40.6941 12.5298L40.3895 11.4623C40.2712 11.0474 40.5116 10.615 40.9265 10.4966C41.3412 10.3781 41.7737 10.6187 41.8922 11.0335L42.8662 14.4473C42.9321 14.6782 42.8881 14.9267 42.7469 15.1209C42.6057 15.3151 42.3829 15.4337 42.1429 15.4424L38.5951 15.5698C38.5855 15.5701 38.5761 15.5703 38.5666 15.5703C38.148 15.5703 37.8015 15.2388 37.7863 14.8171C37.7709 14.3859 38.1079 14.0238 38.5391 14.0083L40.0045 13.9557C36.8721 11.6921 33.091 10.4605 29.1949 10.4605C19.0154 10.4605 10.7337 18.7423 10.7337 28.9219C10.7337 28.9658 10.735 29.0094 10.7353 29.0532C11.9056 29.3157 12.9814 29.8292 13.9034 30.5354V19.7639C13.9034 19.3324 14.2532 18.9826 14.6847 18.9826H23.3911V15.8613C23.3911 15.4299 23.7409 15.0801 24.1724 15.0801H34.2175C34.6489 15.0801 34.9987 15.4299 34.9987 15.8613V18.9826H43.7052C44.1366 18.9826 44.4864 19.3324 44.4864 19.7639V37.3115C44.4864 37.743 44.1366 38.0928 43.7052 38.0928H33.6603C33.2288 38.0928 32.879 37.743 32.879 37.3115V34.1902H25.511V37.3115C25.511 37.743 25.1612 38.0928 24.7298 38.0928H17.0416ZM14.5264 15.3073C16.8928 12.7595 19.9122 10.8267 23.3164 9.7792C22.9547 9.46074 22.5234 9.22393 22.0565 9.09697C21.7463 9.0126 21.5194 8.74678 21.4849 8.42715C21.2151 5.93506 19.1186 4.05586 16.608 4.05586C16.0393 4.05586 15.4822 4.15215 14.9522 4.34219C14.6721 4.44268 14.3593 4.3752 14.1453 4.16826C13.1108 3.16748 11.7485 2.61621 10.3093 2.61621C7.2667 2.61621 4.79141 5.0915 4.79141 8.13398C4.79141 8.23633 4.79453 8.34355 4.80088 8.45303C4.81982 8.78594 4.62549 9.09414 4.31699 9.22051C3.11826 9.71123 2.34375 10.8602 2.34375 12.1473C2.34375 13.8897 3.76143 15.3073 5.50381 15.3073H14.5264ZM42.924 20.5451H34.4415V36.5303H42.924V20.5451ZM24.9536 16.6426V19.0156C25.2759 19.1119 25.5109 19.4104 25.5109 19.7639V32.6278H32.8789V19.7639C32.8789 19.4103 33.114 19.1119 33.4362 19.0156V16.6426H24.9536ZM15.4659 20.5451V32.1069C16.4075 33.3529 16.9998 34.8761 17.0982 36.5303H23.9484V20.5451H15.4659ZM4.76719 42.1282L6.99004 39.9054C7.2125 39.6831 7.54658 39.6157 7.83779 39.7346C8.93418 40.1821 10.1835 39.9306 11.0207 39.0933C11.4326 38.6813 11.7036 38.1707 11.8186 37.6259L10.3893 39.0552C10.1918 39.2525 9.9042 39.3298 9.63457 39.2573L7.76426 38.7563C7.49463 38.6841 7.28408 38.4734 7.21182 38.2038L6.71064 36.3335C6.63848 36.0639 6.71553 35.7763 6.91289 35.5788L8.34219 34.1495C7.79727 34.2644 7.28672 34.5354 6.8749 34.9473C6.0377 35.7845 5.78594 37.0338 6.2335 38.1303C6.35244 38.4214 6.28506 38.7555 6.0627 38.978L3.83975 41.2008C4.11768 41.5396 4.42842 41.8504 4.76719 42.1282ZM15.5518 37.0203C15.5518 33.3789 12.5893 30.4163 8.94775 30.4163C5.30635 30.4163 2.34385 33.3789 2.34385 37.0203C2.34385 38.0321 2.57324 38.9911 2.98164 39.8491L4.61465 38.2162C4.18584 36.6679 4.61357 34.9987 5.77002 33.8425C6.97402 32.6383 8.72822 32.2195 10.3479 32.7492C10.606 32.8336 10.8016 33.046 10.8647 33.3101C10.9279 33.5742 10.8494 33.8521 10.6573 34.0442L8.33662 36.3648L8.6043 37.3638L9.60322 37.6313L11.9238 35.3106C12.1159 35.1187 12.3937 35.0401 12.658 35.1033C12.9221 35.1664 13.1345 35.3621 13.2188 35.6202C13.7485 37.2398 13.3297 38.994 12.1256 40.1981C10.9694 41.3543 9.3 41.7818 7.75186 41.3535L6.11895 42.9863C6.97695 43.3948 7.93594 43.6241 8.94775 43.6241C12.5893 43.6242 15.5518 40.6617 15.5518 37.0203ZM22.2597 33.2571C22.2597 34.6646 21.1145 35.8097 19.7071 35.8097C18.2997 35.8097 17.1546 34.6646 17.1546 33.2571C17.1546 31.8497 18.2997 30.7046 19.7071 30.7046C21.1145 30.7046 22.2597 31.8497 22.2597 33.2571ZM20.6972 33.2571C20.6972 32.7112 20.253 32.2671 19.7071 32.2671C19.1612 32.2671 18.7171 32.7112 18.7171 33.2571C18.7171 33.803 19.1612 34.2472 19.7071 34.2472C20.253 34.2472 20.6972 33.8029 20.6972 33.2571ZM17.2236 24.4387H22.1907C22.6222 24.4387 22.972 24.0889 22.972 23.6574C22.972 23.226 22.6222 22.8762 22.1907 22.8762H17.2236C16.7922 22.8762 16.4424 23.226 16.4424 23.6574C16.4424 24.0889 16.7922 24.4387 17.2236 24.4387ZM17.2236 28.0124H22.1907C22.6222 28.0124 22.972 27.6626 22.972 27.2312C22.972 26.7997 22.6222 26.4499 22.1907 26.4499H17.2236C16.7922 26.4499 16.4424 26.7997 16.4424 27.2312C16.4424 27.6626 16.7922 28.0124 17.2236 28.0124ZM41.2353 33.2571C41.2353 34.6646 40.0901 35.8097 38.6827 35.8097C37.2753 35.8097 36.1302 34.6646 36.1302 33.2571C36.1302 31.8497 37.2753 30.7046 38.6827 30.7046C40.0901 30.7046 41.2353 31.8497 41.2353 33.2571ZM39.6728 33.2571C39.6728 32.7112 39.2286 32.2671 38.6827 32.2671C38.1368 32.2671 37.6927 32.7112 37.6927 33.2571C37.6927 33.803 38.1368 34.2472 38.6827 34.2472C39.2286 34.2472 39.6728 33.8029 39.6728 33.2571ZM36.1992 24.4387H41.1663C41.5978 24.4387 41.9476 24.0889 41.9476 23.6574C41.9476 23.226 41.5978 22.8762 41.1663 22.8762H36.1992C35.7678 22.8762 35.418 23.226 35.418 23.6574C35.418 24.0889 35.7678 24.4387 36.1992 24.4387ZM36.1992 28.0124H41.1663C41.5978 28.0124 41.9476 27.6626 41.9476 27.2312C41.9476 26.7997 41.5978 26.4499 41.1663 26.4499H36.1992C35.7678 26.4499 35.418 26.7997 35.418 27.2312C35.418 27.6626 35.7678 28.0124 36.1992 28.0124ZM15.958 9.29678C16.1121 9.46553 16.3231 9.55107 16.535 9.55107C16.7231 9.55107 16.9118 9.4835 17.0617 9.34658C17.3804 9.05557 17.4026 8.56143 17.1116 8.24287C15.8633 6.87637 14.1977 6.12383 12.4217 6.12383C10.6457 6.12383 8.97998 6.87637 7.73164 8.24287C7.44062 8.56143 7.46289 9.05547 7.78154 9.34658C8.1 9.6376 8.59414 9.61533 8.88525 9.29668C9.83398 8.2582 11.0899 7.68633 12.4218 7.68633C13.7533 7.68643 15.0093 8.2583 15.958 9.29678ZM15.4965 10.0106C14.6793 9.11641 13.5873 8.62383 12.4217 8.62383C11.2561 8.62383 10.164 9.11641 9.34678 10.0106C9.05586 10.3292 9.07803 10.8233 9.39658 11.1145C9.71514 11.4054 10.2092 11.3832 10.5004 11.0646C11.0179 10.4982 11.7002 10.1863 12.4218 10.1863C13.1433 10.1863 13.8256 10.4982 14.3431 11.0646C14.4972 11.2333 14.7083 11.3189 14.92 11.3189C15.1082 11.3189 15.297 11.2514 15.4469 11.1145C15.7652 10.8233 15.7874 10.3291 15.4965 10.0106ZM12.4216 11.4227C11.8232 11.4227 11.338 11.9078 11.338 12.5062C11.338 13.1047 11.8231 13.5898 12.4216 13.5898C13.02 13.5898 13.5052 13.1047 13.5052 12.5062C13.5052 11.9078 13.02 11.4227 12.4216 11.4227Z" fill="#FD5D07"/>
</svg>
