<svg width="50" height="50" viewBox="0 0 50 50" fill="none" xmlns="http://www.w3.org/2000/svg">
<path d="M40.5185 43.5483L38.6516 37.9467C37.9992 35.9911 36.3347 34.5475 34.3056 34.1782L28.9161 33.1975V32.7798C29.854 32.2354 30.6702 31.5072 31.3202 30.6451H32.9484C34.2823 30.6451 35.3677 29.5596 35.3677 28.2257V18.5483C35.3677 12.7677 30.6645 8.06445 24.8839 8.06445C19.1032 8.06445 14.4 12.7677 14.4 18.5483V24.1935C14.4 25.7483 15.5056 27.0491 16.9718 27.3524C17.4242 29.6701 18.8726 31.6314 20.8516 32.7798V33.1975L15.4613 34.1782C13.4331 34.5475 11.7677 35.9911 11.1161 37.9467L10.7935 38.9153L8.04677 36.1685C7.73226 35.854 7.73226 35.3419 8.04677 35.0274L11.2323 31.8427L5.25323 25.8636L1.65323 29.4636C0.587097 30.5298 0 31.9475 0 33.4556C0 34.9636 0.587097 36.3806 1.65323 37.4467L12.5524 48.3459C13.6185 49.412 15.0363 49.9999 16.5444 49.9999C18.0524 49.9999 19.4694 49.412 20.5105 48.3701L24.4387 44.7709L23.2137 43.5483H40.5185ZM33.7548 28.2257C33.7548 28.6709 33.3927 29.0322 32.9484 29.0322H32.2702C32.504 28.4991 32.6814 27.937 32.796 27.3524C33.1411 27.2806 33.4589 27.1435 33.7548 26.9709V28.2257ZM32.9484 25.5822V22.8048C33.4282 23.0846 33.7548 23.5991 33.7548 24.1935C33.7548 24.7878 33.4282 25.3024 32.9484 25.5822ZM16.8194 25.5822C16.3395 25.3024 16.0129 24.7878 16.0129 24.1935C16.0129 23.5991 16.3395 23.0846 16.8194 22.8048V25.5822ZM16.8194 20.1612V21.0822C16.5323 21.1572 16.2629 21.2701 16.0129 21.4161V18.5483C16.0129 13.6572 19.9927 9.67736 24.8839 9.67736C29.775 9.67736 33.7548 13.6572 33.7548 18.5483V21.4161C33.5048 21.2701 33.2355 21.1564 32.9484 21.0822V20.1612H32.1419C29.7573 20.1612 27.5153 19.2322 25.8282 17.5459L24.8839 16.6016L23.9395 17.5459C22.2524 19.2322 20.0105 20.1612 17.6258 20.1612H16.8194ZM18.4323 25.8064V21.7435C20.854 21.5612 23.1121 20.562 24.8839 18.8774C26.6556 20.562 28.9137 21.562 31.3355 21.7435V25.8064C31.3355 26.9822 31.0145 28.0822 30.4629 29.0322H24.8839V30.6451H29.1371C28 31.6459 26.5137 32.258 24.8839 32.258C21.3266 32.258 18.4323 29.3636 18.4323 25.8064ZM27.3032 33.4991V33.537L24.8839 35.9564L22.4645 33.537V33.4991C23.229 33.7395 24.0411 33.8709 24.8839 33.8709C25.7266 33.8709 26.5387 33.7395 27.3032 33.4991ZM12.6452 38.4564C13.1105 37.0596 14.3 36.0282 15.7492 35.7636L21.3863 34.7395L24.8839 38.237L28.3806 34.7403L34.0169 35.7645C35.4661 36.029 36.6556 37.0596 37.121 38.4572L38.2815 41.9354H21.6008L18.4597 38.7943L14.9694 41.9515C14.6653 42.2572 14.1339 42.2572 13.829 41.9515L12.0677 40.1903L12.6452 38.4564ZM5.25242 28.1443L8.95081 31.8427L8.075 32.7185L4.37661 29.0201L5.25242 28.1443ZM19.3935 47.2072C18.6323 47.9669 17.6194 48.387 16.5427 48.387C15.4661 48.387 14.4532 47.9669 13.6911 47.2056L2.79194 36.3072C2.03064 35.5459 1.61129 34.533 1.61129 33.4564C1.61129 32.379 2.03064 31.3661 2.79194 30.6048L3.23548 30.1612L6.93387 33.8596L6.90484 33.8886C5.9621 34.8322 5.9621 36.3669 6.90484 37.3104L12.6879 43.0935C13.1452 43.5499 13.7524 43.8024 14.3992 43.8024C15.046 43.8024 15.6532 43.5507 16.0806 43.1217L16.1411 43.0677L19.8564 46.783L19.3935 47.2072ZM21.0468 45.6911L17.3395 41.9838L18.4048 41.0209L22.1056 44.7217L21.0468 45.6911Z" fill="#FD5D07"/>
<path d="M47.4636 0H36.1733C34.8394 0 33.7539 1.08548 33.7539 2.41935V8.87097C33.7539 10.2048 34.8394 11.2903 36.1733 11.2903H38.3273L37.4934 16.154L45.2757 11.2903H47.4636C48.7975 11.2903 49.8829 10.2048 49.8829 8.87097V2.41935C49.8829 1.08548 48.7975 0 47.4636 0ZM48.27 8.87097C48.27 9.31532 47.9079 9.67742 47.4636 9.67742H44.8128L39.691 12.8782L40.2402 9.67742H36.1733C35.7289 9.67742 35.3668 9.31532 35.3668 8.87097V2.41935C35.3668 1.975 35.7289 1.6129 36.1733 1.6129H47.4636C47.9079 1.6129 48.27 1.975 48.27 2.41935V8.87097Z" fill="#FD5D07"/>
<path d="M46.6579 3.22559H36.9805V4.83849H46.6579V3.22559Z" fill="#FD5D07"/>
<path d="M43.4321 6.45117H36.9805V8.06407H43.4321V6.45117Z" fill="#FD5D07"/>
<path d="M46.6598 6.45117H45.0469V8.06407H46.6598V6.45117Z" fill="#FD5D07"/>
<path d="M24.8847 2.41895C14.3476 2.41895 5.27097 9.70765 2.91129 19.8746L1.38306 17.327L0 18.1568L2.83468 22.8802L7.55806 20.0456L6.72823 18.6625L4.54274 19.9738C6.82823 10.673 15.1919 4.03185 24.8847 4.03185C27.0032 4.03185 29.0935 4.34636 31.0976 4.96733L31.575 3.42701C29.4161 2.75765 27.1653 2.41895 24.8847 2.41895Z" fill="#FD5D07"/>
<path d="M49.4927 17.8562L44.7693 15.0215L41.9355 19.7457L43.3185 20.5755L44.7298 18.2231C45.4726 20.3965 45.8524 22.6699 45.8524 24.9997C45.8524 29.7957 44.1911 34.4844 41.1758 38.2013L42.4282 39.2175C45.6766 35.2142 47.4653 30.1642 47.4653 24.9997C47.4653 22.5328 47.0677 20.1239 46.2927 17.8175L48.6629 19.2392L49.4927 17.8562Z" fill="#FD5D07"/>
</svg>
