<svg width="55" height="55" viewBox="0 0 55 55" fill="none" xmlns="http://www.w3.org/2000/svg">
<path d="M22.8062 26.7363C20.6457 26.7363 18.888 28.4941 18.888 30.6547C18.888 32.8152 20.6456 34.573 22.8062 34.573C24.9668 34.573 26.7245 32.8152 26.7245 30.6547C26.7245 28.4941 24.9667 26.7363 22.8062 26.7363ZM22.8062 32.4244C21.8304 32.4244 21.0364 31.6305 21.0364 30.6545C21.0364 29.6786 21.8304 28.8847 22.8062 28.8847C23.7821 28.8847 24.5761 29.6786 24.5761 30.6545C24.5761 31.6305 23.7821 32.4244 22.8062 32.4244Z" fill="#FD5D07"/>
<path d="M34.6389 26.7363C32.4785 26.7363 30.7206 28.4941 30.7206 30.6547C30.7206 32.8152 32.4784 34.573 34.6389 34.573C36.7978 34.573 38.554 32.8152 38.554 30.6547C38.554 28.4941 36.7978 26.7363 34.6389 26.7363ZM34.6389 32.4244C33.663 32.4244 32.869 31.6305 32.869 30.6545C32.869 29.6786 33.663 28.8847 34.6389 28.8847C35.613 28.8847 36.4056 29.6786 36.4056 30.6545C36.4056 31.6305 35.613 32.4244 34.6389 32.4244Z" fill="#FD5D07"/>
<path d="M50.6555 2.10791H40.2295C39.6363 2.10791 39.1553 2.58895 39.1553 3.18213C39.1553 3.77531 39.6363 4.25635 40.2295 4.25635H50.6555C51.8664 4.25635 52.8516 5.24012 52.8516 6.44947V18.2978C52.8516 19.5071 51.8664 20.4909 50.6555 20.4909H20.154C18.9447 20.4909 17.9609 19.5071 17.9609 18.2978V6.44947C17.9609 5.24012 18.9447 4.25635 20.154 4.25635H30.583C31.1762 4.25635 31.6572 3.77531 31.6572 3.18213C31.6572 2.58895 31.1762 2.10791 30.583 2.10791H20.154C17.7601 2.10791 15.8125 4.05558 15.8125 6.44947V10.0495H8.63489C6.72966 10.0495 5.17956 11.5996 5.17956 13.5049V15.2292H3.45533C1.5501 15.2292 0 16.7792 0 18.6846V42.6248C0 44.5301 1.5501 46.0802 3.45533 46.0802H6.67756V51.8178C6.67756 52.197 6.87747 52.5482 7.2035 52.7416C7.37226 52.8419 7.56196 52.892 7.75178 52.892C7.9287 52.892 8.10595 52.8484 8.26644 52.7607L20.5043 46.0802H42.157C44.0622 46.0802 45.6123 44.5301 45.6123 42.6248V40.9005H47.3364C49.2418 40.9005 50.7919 39.3504 50.7919 37.4451V22.6359C53.1245 22.5635 55 20.646 55 18.2978V6.44947C55 4.05558 53.051 2.10791 50.6555 2.10791ZM7.328 13.5049C7.328 12.7842 7.91431 12.1979 8.63489 12.1979H15.8125V15.2292H7.328V13.5049ZM43.4639 42.6248C43.4639 43.3332 42.8654 43.9318 42.157 43.9318H20.2301C20.0503 43.9318 19.8733 43.9769 19.7155 44.0631L8.826 50.0075V45.0059C8.826 44.4127 8.34496 43.9317 7.75178 43.9317H3.45533C2.73475 43.9317 2.14844 43.3453 2.14844 42.6247V18.6846C2.14844 17.9639 2.73475 17.3776 3.45533 17.3776H15.8125V18.2978C15.8125 20.6917 17.7601 22.6393 20.154 22.6393H43.4639V42.6248ZM47.3364 38.7521H45.6123V22.6393H48.6434V37.4451C48.6434 38.1535 48.045 38.7521 47.3364 38.7521Z" fill="#FD5D07"/>
<path d="M22.5717 6.93115C21.9785 6.93115 21.4975 7.41219 21.4975 8.00537V16.7325C21.4975 17.2472 21.8625 17.6896 22.3678 17.7872C22.4543 17.8039 22.5143 17.8156 23.4875 17.8156C23.9564 17.8156 24.6375 17.8129 25.6355 17.8068C26.2286 17.8031 26.7068 17.3192 26.703 16.7259C26.6994 16.1348 26.2191 15.6583 25.6289 15.6583C25.6267 15.6583 25.6244 15.6583 25.6221 15.6583C25.0169 15.6621 24.2513 15.6654 23.6459 15.6662V8.00537C23.6459 7.41219 23.165 6.93115 22.5717 6.93115Z" fill="#FD5D07"/>
<path d="M29.5143 6.93115C28.9211 6.93115 28.4401 7.41219 28.4401 8.00537V16.7417C28.4401 17.3349 28.9211 17.8159 29.5143 17.8159C30.1075 17.8159 30.5885 17.3349 30.5885 16.7417V8.00537C30.5885 7.41219 30.1075 6.93115 29.5143 6.93115Z" fill="#FD5D07"/>
<path d="M48.2408 9.15918C48.834 9.15918 49.315 8.67814 49.315 8.08496C49.315 7.49178 48.834 7.01074 48.2408 7.01074H44.593C43.9998 7.01074 43.5188 7.49178 43.5188 8.08496V16.7421C43.5188 17.3353 43.9998 17.8163 44.593 17.8163H48.2408C48.834 17.8163 49.315 17.3353 49.315 16.7421C49.315 16.1489 48.834 15.6679 48.2408 15.6679H45.6672V13.4861H47.9729C48.5661 13.4861 49.0471 13.0051 49.0471 12.4119C49.0471 11.8187 48.5661 11.3377 47.9729 11.3377H45.6672V9.15918H48.2408Z" fill="#FD5D07"/>
<path d="M36.1923 16.9665C36.3705 17.4743 36.8518 17.8147 37.3905 17.8147H37.3943C37.9352 17.813 38.417 17.4685 38.5929 16.9575C38.5942 16.9537 38.5954 16.9501 38.5967 16.9463L41.4499 8.35921C41.6369 7.79621 41.3322 7.18821 40.7692 7.00097C40.2063 6.81406 39.5983 7.1187 39.4109 7.6817L37.3727 13.8159L35.2334 7.65291C35.0389 7.0926 34.4271 6.79579 33.8663 6.99033C33.3057 7.18498 33.0091 7.79697 33.2037 8.35749L36.1923 16.9665Z" fill="#FD5D07"/>
<path d="M10.9734 26.7363C8.8145 26.7363 7.05826 28.4941 7.05826 30.6547C7.05826 32.8152 8.81461 34.573 10.9734 34.573C13.1338 34.573 14.8917 32.8152 14.8917 30.6547C14.8917 28.4941 13.1339 26.7363 10.9734 26.7363ZM10.9734 32.4244C9.99925 32.4244 9.2067 31.6305 9.2067 30.6545C9.2067 29.6786 9.99925 28.8847 10.9734 28.8847C11.9493 28.8847 12.7432 29.6786 12.7432 30.6545C12.7432 31.6305 11.9493 32.4244 10.9734 32.4244Z" fill="#FD5D07"/>
<path d="M35.4064 4.25635H35.4125C36.0057 4.25635 36.4837 3.77531 36.4837 3.18213C36.4837 2.58895 35.9996 2.10791 35.4065 2.10791C34.8133 2.10791 34.3322 2.58895 34.3322 3.18213C34.3322 3.77531 34.8131 4.25635 35.4064 4.25635Z" fill="#FD5D07"/>
</svg>
