<svg width="59" height="59" viewBox="0 0 59 59" fill="none" xmlns="http://www.w3.org/2000/svg">
<path d="M5.37546 52.1709L29.3147 57.0772C29.3765 57.0901 29.4392 57.0965 29.5 57.0965C29.5608 57.0965 29.6235 57.0901 29.6853 57.0772L53.6245 52.1709C54.0532 52.0834 54.3611 51.7063 54.3611 51.2684V14.8765C54.3611 14.5999 54.2367 14.3372 54.0219 14.162C53.808 13.9878 53.5287 13.9177 53.254 13.9731L41.4309 16.3976C41.5793 15.6324 41.6632 14.8544 41.6632 14.0689C41.6632 10.7852 40.3744 7.70799 38.0329 5.40238C35.7374 3.14194 32.7127 1.90479 29.4945 1.90479C29.4299 1.90479 29.3636 1.90479 29.2981 1.90571C22.9436 2.01264 17.5838 7.26364 17.3488 13.6117C17.3147 14.5575 17.3995 15.4877 17.5765 16.3967L5.74697 13.9721C5.47133 13.9177 5.19293 13.9869 4.97905 14.1611C4.76425 14.3363 4.6398 14.599 4.6398 14.8756V51.2675C4.6398 51.7054 4.94771 52.0824 5.37638 52.17L5.37546 52.1709ZM29.4889 27.8565C29.4889 27.8565 29.4945 27.8583 29.4982 27.8583C29.5018 27.8583 29.5037 27.8565 29.5074 27.8565H33.3175L33.3627 31.9432L25.6936 31.91V27.8565H29.4889ZM27.4663 33.7869H31.5337V33.998C31.5337 34.5272 31.1078 34.9577 30.5841 34.9577H28.4159C27.8923 34.9577 27.4663 34.5272 27.4663 33.998V33.7869ZM52.5174 50.5153L30.4219 55.0435V36.8005H30.5841C32.1246 36.8005 33.3774 35.5431 33.3774 33.9971V33.7841C34.3564 33.7749 35.1511 32.9379 35.1511 31.909V26.9337C35.1511 26.9245 35.1465 26.918 35.1465 26.9088C35.2147 25.6744 35.7863 24.5405 36.6851 23.8758C38.6026 22.4737 40.0333 20.5847 40.864 18.3962L52.5174 16.0067V50.5153ZM29.3267 3.74946C32.1449 3.70797 34.7501 4.75983 36.7376 6.71513C38.7243 8.67135 39.8186 11.283 39.8186 14.068C39.8186 15.1724 39.6452 16.2621 39.3023 17.3066C38.6303 19.3467 37.3488 21.1038 35.5899 22.3907C34.4459 23.2388 33.6752 24.5128 33.4005 26.0118H30.4219V19.7818C30.4219 19.7818 30.42 19.7763 30.42 19.7726V17.384C30.42 16.8751 30.008 16.4621 29.4982 16.4621C28.9884 16.4621 28.5763 16.8751 28.5763 17.384V26.0118H25.6208C25.3857 24.5396 24.6288 23.2656 23.4894 22.4543C21.7203 21.1701 20.3762 19.343 19.7051 17.3038C19.3188 16.145 19.1464 14.9253 19.1898 13.679C19.3898 8.2943 23.9365 3.8398 29.3267 3.74946ZM6.48263 16.0058L18.1471 18.3962C18.9851 20.5884 20.4767 22.5474 22.4126 23.9514C23.2681 24.5608 23.7918 25.5924 23.8489 26.7373V31.909C23.8489 32.9415 24.6436 33.7823 25.6226 33.786V33.998C25.6226 35.544 26.8754 36.8014 28.4159 36.8014H28.5781V55.0444L6.48263 50.5162V16.0058Z" fill="#FD5D07"/>
<path d="M33.2262 7.84886C35.164 9.06204 36.2666 10.8256 36.5053 13.0897C36.5551 13.5636 36.9543 13.9157 37.4207 13.9157C37.453 13.9157 37.4853 13.9139 37.5175 13.9111C38.0246 13.8576 38.3915 13.4041 38.338 12.898C38.0421 10.0816 36.6123 7.79539 34.2043 6.2872C33.7757 6.01893 33.2041 6.148 32.934 6.57943C32.6639 7.01087 32.7948 7.57967 33.2262 7.84978V7.84886Z" fill="#FD5D07"/>
<path d="M30.3684 6.68896C30.3915 6.69265 30.6136 6.73413 30.9584 6.83554C31.0451 6.86043 31.1317 6.87334 31.2165 6.87334C31.6166 6.87334 31.9835 6.61152 32.1015 6.20959C32.2444 5.72099 31.9642 5.20935 31.4747 5.06646C30.9842 4.92357 30.68 4.87287 30.68 4.87287C30.173 4.7899 29.7047 5.12823 29.6198 5.62696C29.535 6.12662 29.8697 6.60138 30.3684 6.68896Z" fill="#FD5D07"/>
</svg>
