<svg width="49" height="49" viewBox="0 0 49 49" fill="none" xmlns="http://www.w3.org/2000/svg">
<path d="M12.5 15.625H14.0625V17.1875H12.5V15.625Z" fill="#FD5D07"/>
<path d="M18.75 15.625H20.3125V17.1875H18.75V15.625Z" fill="#FD5D07"/>
<path d="M15.625 15.625H17.1875V17.1875H15.625V15.625Z" fill="#FD5D07"/>
<path d="M17.1875 9.375H18.75V10.9375H17.1875V9.375Z" fill="#FD5D07"/>
<path d="M23.4375 9.375H25V10.9375H23.4375V9.375Z" fill="#FD5D07"/>
<path d="M20.3125 9.375H21.875V10.9375H20.3125V9.375Z" fill="#FD5D07"/>
<path d="M12.5 3.125H14.0625V4.6875H12.5V3.125Z" fill="#FD5D07"/>
<path d="M15.625 3.125H17.1875V4.6875H15.625V3.125Z" fill="#FD5D07"/>
<path d="M18.75 3.125H20.3125V4.6875H18.75V3.125Z" fill="#FD5D07"/>
<path d="M47.2375 41.4453L35.1562 29.3641L34.375 30.1453L31.6938 27.4641C33.3836 24.9609 34.375 21.9609 34.375 18.75C34.375 13.8523 32.0438 9.22266 28.125 6.27344V2.34375C28.125 1.05156 27.0734 0 25.7812 0H11.7188C10.4266 0 9.375 1.05156 9.375 2.34375V6.27344C5.45625 9.22266 3.125 13.8523 3.125 18.75C3.125 21.6711 3.96484 24.5289 5.49453 26.9914C5.025 27.0711 4.57656 27.2875 4.22031 27.6437L2.64375 29.2203C1.87891 29.9852 1.73125 31.1672 2.29297 32.1133C2.42031 32.3266 2.43828 32.5945 2.33281 32.8453C2.23672 33.0758 2.03672 33.25 1.77891 33.3156C0.732031 33.582 0 34.5227 0 35.6039V37.8336C0 38.9148 0.732031 39.8555 1.79766 40.1273C2.03047 40.1867 2.21953 40.3453 2.32187 40.5648L2.33984 40.6102C2.43828 40.8438 2.42109 41.1117 2.28437 41.3414C1.73203 42.2711 1.87969 43.4539 2.64453 44.2188L4.22109 45.7953C4.98438 46.5602 6.16719 46.7078 7.11406 46.1461C7.32734 46.0187 7.59531 46 7.84609 46.1063L7.85859 46.1109C8.08594 46.2109 8.25078 46.4039 8.31641 46.6602C8.58203 47.7055 9.52266 48.4375 10.6039 48.4375H12.8336C13.9148 48.4375 14.8555 47.7055 15.1273 46.6398C15.1867 46.407 15.3453 46.218 15.5648 46.1156L15.6102 46.0977C15.843 45.9984 16.1117 46.0172 16.3414 46.1531C17.2695 46.7062 18.4531 46.5578 19.2188 45.793L20.7953 44.2164C21.5602 43.4516 21.7078 42.2695 21.1461 41.3234C21.0187 41.1102 21.0008 40.8422 21.1063 40.5914L21.1109 40.5789C21.2109 40.3516 21.4039 40.1867 21.6602 40.1211C22.7055 39.8555 23.4375 38.9148 23.4375 37.8336V35.6039C23.4375 34.9188 23.1422 34.2922 22.6562 33.8539C24.4016 33.4047 26.0242 32.6727 27.4688 31.6984L30.1453 34.375L29.3641 35.1562L41.4461 47.2391C42.2203 48.0117 43.2484 48.4375 44.3422 48.4375C46.6 48.4375 48.4375 46.6 48.4375 44.3422C48.4375 43.2477 48.0109 42.2188 47.2375 41.4453ZM32.8125 18.75C32.8125 25.6453 27.7898 31.4906 21.0438 32.6C21.0266 32.4305 21.0602 32.2555 21.1539 32.0977C21.3711 31.732 21.4758 31.3281 21.482 30.9258C27.1852 29.6609 31.25 24.668 31.25 18.75C31.25 15.7117 30.1367 12.8047 28.125 10.5172V8.28984C31.0828 10.9438 32.8125 14.7484 32.8125 18.75ZM9.87344 25.1195C8.52812 23.2539 7.8125 21.068 7.8125 18.75C7.8125 16.7594 8.36172 14.8336 9.375 13.1492V17.9688C9.375 19.2609 10.4266 20.3125 11.7188 20.3125H25.7812C27.0734 20.3125 28.125 19.2609 28.125 17.9688V13.1484C29.1383 14.8328 29.6875 16.7586 29.6875 18.75C29.6875 23.9844 26.0516 28.3914 20.9742 29.4352C20.9164 29.3617 20.8602 29.2875 20.793 29.2203L19.2164 27.6437C18.4516 26.8789 17.268 26.7313 16.3242 27.293C16.1094 27.4188 15.8422 27.4367 15.5914 27.3328L15.5789 27.3281C15.3516 27.2281 15.1867 27.0352 15.1211 26.7789C14.8555 25.732 13.9148 25 12.8336 25H10.6039C10.35 25 10.1055 25.0438 9.87344 25.1195ZM10.9375 14.0625H26.5625V17.9688C26.5625 18.4 26.2125 18.75 25.7812 18.75H11.7188C11.2875 18.75 10.9375 18.4 10.9375 17.9688V14.0625ZM26.5625 12.5H10.9375V7.8125H26.5625V12.5ZM11.7188 1.5625H25.7812C26.2125 1.5625 26.5625 1.9125 26.5625 2.34375V6.25H10.9375V2.34375C10.9375 1.9125 11.2875 1.5625 11.7188 1.5625ZM9.375 8.28984V10.518C7.36328 12.8055 6.25 15.7125 6.25 18.75C6.25 21.3742 7.09766 23.9422 8.63281 26.0656C8.48906 26.2844 8.37891 26.5305 8.31094 26.7977C8.25156 27.0305 8.09297 27.2195 7.87344 27.3219L7.82891 27.3398C7.77656 27.3617 7.72266 27.3758 7.66719 27.3859C5.74922 24.9266 4.6875 21.8773 4.6875 18.75C4.6875 14.7484 6.41719 10.9438 9.375 8.28984ZM21.875 37.8336C21.875 38.1992 21.6273 38.518 21.2555 38.6133C20.543 38.7938 19.9469 39.3094 19.6617 39.9906L19.6422 40.0406C19.3695 40.7203 19.4289 41.4969 19.8109 42.1383C19.9977 42.4531 19.9477 42.8539 19.6891 43.1125L18.1125 44.6891C17.8531 44.9484 17.4523 44.9984 17.1234 44.8023C16.4969 44.4289 15.7195 44.3711 15.0406 44.643L14.9906 44.6625C14.3094 44.9477 13.7945 45.5438 13.6086 46.2734C13.518 46.6273 13.1992 46.875 12.8336 46.875H10.6039C10.2383 46.875 9.91953 46.6273 9.82422 46.2555C9.64375 45.543 9.12813 44.9469 8.44688 44.6617L8.39688 44.6422C7.71875 44.3687 6.94141 44.4273 6.29922 44.8109C5.98438 44.9984 5.58437 44.9484 5.325 44.6891L3.74844 43.1125C3.48984 42.8539 3.43906 42.4531 3.63516 42.1234C4.00859 41.4961 4.06719 40.7203 3.79453 40.0406L3.775 39.9906C3.48984 39.3094 2.89375 38.7945 2.16406 38.6086C1.81016 38.518 1.5625 38.1992 1.5625 37.8336V35.6039C1.5625 35.2383 1.81016 34.9195 2.18203 34.8242C2.89531 34.6437 3.49141 34.1281 3.78047 33.4344C4.07031 32.7453 4.01641 31.9531 3.62734 31.3C3.44063 30.9852 3.49062 30.5844 3.74922 30.3258L5.32578 28.7492C5.58516 28.4898 5.98516 28.4406 6.31562 28.6359C6.95312 29.0148 7.74453 29.0688 8.36094 28.8063L8.44766 28.7758C9.12891 28.4906 9.64375 27.8945 9.82969 27.1648C9.91953 26.8102 10.2383 26.5625 10.6039 26.5625H12.8336C13.1992 26.5625 13.518 26.8102 13.6133 27.182C13.7937 27.8945 14.3094 28.4906 15.0039 28.7805C15.6914 29.0703 16.4844 29.0172 17.1375 28.6273C17.4531 28.4414 17.8531 28.4906 18.1117 28.7492L19.6883 30.3258C19.9469 30.5844 19.9977 30.9852 19.8016 31.3148C19.4219 31.9531 19.3672 32.7461 19.6625 33.4469C19.9461 34.1289 20.5422 34.6437 21.2727 34.8297C21.6273 34.9195 21.875 35.2383 21.875 35.6039V37.8336ZM28.7281 30.7484C29.4625 30.1367 30.1375 29.4602 30.7477 28.7273L33.2703 31.25L31.25 33.2703L28.7281 30.7484ZM44.3422 46.875C43.6664 46.875 43.0297 46.6117 42.5508 46.1336L31.5734 35.1562L35.1562 31.5734L46.1328 42.55C46.6109 43.0289 46.875 43.6656 46.875 44.3422C46.875 45.7391 45.7391 46.875 44.3422 46.875Z" fill="#FD5D07"/>
<path d="M11.7188 29.6875C7.84141 29.6875 4.6875 32.8414 4.6875 36.7188C4.6875 40.5961 7.84141 43.75 11.7188 43.75C15.5961 43.75 18.75 40.5961 18.75 36.7188C18.75 32.8414 15.5961 29.6875 11.7188 29.6875ZM11.7188 42.1875C8.70391 42.1875 6.25 39.7336 6.25 36.7188C6.25 33.7039 8.70391 31.25 11.7188 31.25C14.7336 31.25 17.1875 33.7039 17.1875 36.7188C17.1875 39.7336 14.7336 42.1875 11.7188 42.1875Z" fill="#FD5D07"/>
<path d="M10.1539 37.9574L9.14375 36.9473L8.03906 38.052L10.1539 40.1668L15.3938 34.927L14.2891 33.8223L10.1539 37.9574Z" fill="#FD5D07"/>
<path d="M44.5312 45.3125C44.9627 45.3125 45.3125 44.9627 45.3125 44.5312C45.3125 44.0998 44.9627 43.75 44.5312 43.75C44.0998 43.75 43.75 44.0998 43.75 44.5312C43.75 44.9627 44.0998 45.3125 44.5312 45.3125Z" fill="#FD5D07"/>
<path d="M38.2812 7.03125H39.8438V8.59375H38.2812V7.03125Z" fill="#FD5D07"/>
<path d="M38.2812 10.1562H39.8438V11.7188H38.2812V10.1562Z" fill="#FD5D07"/>
<path d="M39.8438 8.59375H41.4062V10.1562H39.8438V8.59375Z" fill="#FD5D07"/>
<path d="M36.7188 8.59375H38.2812V10.1562H36.7188V8.59375Z" fill="#FD5D07"/>
<path d="M43.75 1.5625H45.3125V3.125H43.75V1.5625Z" fill="#FD5D07"/>
<path d="M43.75 4.6875H45.3125V6.25H43.75V4.6875Z" fill="#FD5D07"/>
<path d="M45.3125 3.125H46.875V4.6875H45.3125V3.125Z" fill="#FD5D07"/>
<path d="M42.1875 3.125H43.75V4.6875H42.1875V3.125Z" fill="#FD5D07"/>
<path d="M42.9688 21.875H44.5312V23.4375H42.9688V21.875Z" fill="#FD5D07"/>
<path d="M42.9688 25H44.5312V26.5625H42.9688V25Z" fill="#FD5D07"/>
<path d="M44.5312 23.4375H46.0938V25H44.5312V23.4375Z" fill="#FD5D07"/>
<path d="M41.4062 23.4375H42.9688V25H41.4062V23.4375Z" fill="#FD5D07"/>
<path d="M25.7812 40.625H27.3438V42.1875H25.7812V40.625Z" fill="#FD5D07"/>
<path d="M25.7812 43.75H27.3438V45.3125H25.7812V43.75Z" fill="#FD5D07"/>
<path d="M27.3438 42.1875H28.9062V43.75H27.3438V42.1875Z" fill="#FD5D07"/>
<path d="M24.2188 42.1875H25.7812V43.75H24.2188V42.1875Z" fill="#FD5D07"/>
</svg>
