<svg width="49" height="49" viewBox="0 0 49 49" fill="none" xmlns="http://www.w3.org/2000/svg">
<path d="M13.2812 10.9375C13.7127 10.9375 14.0625 10.5877 14.0625 10.1562C14.0625 9.72478 13.7127 9.375 13.2812 9.375C12.8498 9.375 12.5 9.72478 12.5 10.1562C12.5 10.5877 12.8498 10.9375 13.2812 10.9375Z" fill="#FD5D07"/>
<path d="M42.1875 0V20.3125H40.625V4.6875H34.375V20.3125H32.8125V9.375H26.5625V20.3125H25V14.0625H18.75V21.875H33.2703L27.95 27.1953C27.35 27.7945 26.5531 28.125 25.7047 28.125C24.9359 28.125 24.193 27.8461 23.6148 27.3398L20.6445 24.7406C19.1133 23.4008 17.2359 22.5586 15.2164 22.3062L12.5 21.9664V20.1719L12.8508 20.2422C13.0844 20.2891 13.3234 20.3125 13.5625 20.3125C15.5609 20.3125 17.1875 18.6859 17.1875 16.6875V13.6047L19.0734 11.7188L18.5211 11.1664C17.6609 10.3063 17.1875 9.16328 17.1875 7.94609V7.01094C18.1305 6.29766 18.75 5.17734 18.75 3.90625C18.75 1.75234 16.9977 0 14.8438 0H7.88984C5.35703 0 3.13984 1.70391 2.46094 4.11016C0.972656 4.78828 0 6.27578 0 7.93906C0 11.5289 1.71406 14.957 4.58594 17.1109L6.25 18.3594V22.0461L4.73438 22.425C1.94687 23.1219 0 25.6156 0 28.4883V32.0312C0 35.0852 1.96094 37.6836 4.6875 38.6523V48.4375H18.75V42.1875H20.3125C21.1742 42.1875 21.875 41.4867 21.875 40.625V33.3961C23.0727 34.0312 24.4172 34.375 25.7812 34.375C28.0055 34.375 30.0953 33.5094 31.668 31.9367L38.1883 25.4164C38.7523 24.8531 39.0625 24.1008 39.0625 23.2617C39.0625 22.7672 38.9289 22.2984 38.7016 21.875H48.4375V0H42.1875ZM23.4375 20.3125H20.3125V15.625H23.4375V20.3125ZM35.9375 6.25H39.0625V20.3125H36.0719H35.9375V6.25ZM28.125 10.9375H31.25V20.3125H28.125V10.9375ZM13.0742 23.6133L12.7156 25.4062L11.2969 24.6969L12.1008 23.4914L13.0742 23.6133ZM16.8984 11.6844L15.625 12.9578V15.625H14.0625C13.2008 15.625 12.5 14.9242 12.5 14.0625H10.9375C10.9375 15.7859 12.3391 17.1875 14.0625 17.1875H15.557C15.332 18.0828 14.5273 18.75 13.5633 18.75C13.4273 18.75 13.2914 18.7367 13.1586 18.7102L9.52891 17.9844L9.22188 19.5164L10.9375 19.8594V22.4195L9.96406 23.8797L7.8125 22.2656V13.7391L6.47891 12.4055C6.33125 12.2578 6.25 12.0609 6.25 11.8523V11.7188C6.25 11.2883 6.60078 10.9375 7.03125 10.9375H7.8125V9.375C7.8125 7.65156 9.21406 6.25 10.9375 6.25H11.0813C11.4047 7.15703 12.2641 7.8125 13.2812 7.8125H14.8438C15.1109 7.8125 15.3727 7.78516 15.625 7.73359V7.94609C15.625 9.31641 16.0727 10.618 16.8984 11.6844ZM5.52344 15.8617C3.04375 14.0008 1.5625 11.0398 1.5625 7.93906C1.5625 6.79844 2.28984 5.78984 3.37188 5.42891L3.80156 5.28516L3.89062 4.84063C4.27109 2.94141 5.95312 1.5625 7.88984 1.5625H14.8438C16.1359 1.5625 17.1875 2.61406 17.1875 3.90625C17.1875 5.19844 16.1359 6.25 14.8438 6.25H13.2812C12.8508 6.25 12.5 5.89922 12.5 5.46875C12.5 5.03828 12.8508 4.6875 13.2812 4.6875H14.0625V3.125H13.2812C12.2641 3.125 11.4047 3.78047 11.0813 4.6875H10.9375C8.35234 4.6875 6.25 6.78984 6.25 9.375V9.50859C5.34062 9.83125 4.6875 10.7 4.6875 11.7188V11.8523C4.6875 12.4781 4.93125 13.0672 5.37422 13.5102L6.25 14.3859V16.4062L5.52344 15.8617ZM6.86016 23.5047L8.96719 25.0852L7.86562 26.1867L5.84219 23.7594L6.86016 23.5047ZM7.03125 39.0625H10.9375V40.625H6.25V39.0164C6.50703 39.0453 6.76719 39.0625 7.03125 39.0625ZM12.5 34.375C13.3617 34.375 14.0625 35.0758 14.0625 35.9375C14.0625 36.7992 13.3617 37.5 12.5 37.5H10.9375V34.375H12.5ZM17.1875 46.875H12.5V43.75H10.9375V46.875H6.25V42.1875H17.1875V46.875ZM20.3125 40.625H12.5V39.0625C13.7609 39.0625 14.8438 38.3078 15.3375 37.2297C15.6594 37.3969 16.0195 37.5 16.4062 37.5C17.6984 37.5 18.75 36.4484 18.75 35.1562C18.75 33.8641 17.6984 32.8125 16.4062 32.8125C15.6875 32.8125 15.0508 33.1445 14.6203 33.6562C14.0625 33.1367 13.3203 32.8125 12.5 32.8125V29.6875H20.3125V40.625ZM15.625 35.1562C15.625 34.7258 15.9758 34.375 16.4062 34.375C16.8367 34.375 17.1875 34.7258 17.1875 35.1562C17.1875 35.5867 16.8367 35.9375 16.4062 35.9375C15.9758 35.9375 15.625 35.5867 15.625 35.1562ZM30.5633 30.832C29.2859 32.1094 27.5883 32.8125 25.7812 32.8125C24.3844 32.8125 23.0133 32.368 21.875 31.5633V29.6875C21.875 28.8258 21.1742 28.125 20.3125 28.125H12.5C11.6383 28.125 10.9375 28.8258 10.9375 29.6875V32.8125H7.03125C6.60078 32.8125 6.25 32.4617 6.25 32.0312V29.6875H4.6875V32.0312C4.6875 33.3234 5.73906 34.375 7.03125 34.375H9.375V37.5H7.03125C4.01562 37.5 1.5625 35.0469 1.5625 32.0312V28.4883C1.5625 26.6531 2.62734 25.0328 4.23203 24.2672L7.75938 28.5008L10.3102 25.95L13.8461 27.718L14.6281 23.8062L15.0219 23.8555C16.7313 24.0695 18.3195 24.782 19.6148 25.9156L22.5859 28.5156C23.45 29.2719 24.557 29.6875 25.7055 29.6875C26.9711 29.6875 28.1609 29.1945 29.0555 28.3L32.8133 24.5422L34.8328 26.5625L30.5633 30.832ZM37.0938 22.2812C37.3555 22.543 37.5 22.8922 37.5 23.2969C37.5 23.6828 37.3523 24.043 37.0844 24.3109L35.9375 25.4578L33.9172 23.4375L35.0617 22.293C35.3313 22.0234 35.6898 21.875 36.1133 21.875C36.4836 21.875 36.832 22.0195 37.0938 22.2812ZM46.875 20.3125H43.75V1.5625H46.875V20.3125Z" fill="#FD5D07"/>
<path d="M29.6875 35.9375C26.2414 35.9375 23.4375 38.7414 23.4375 42.1875C23.4375 45.6336 26.2414 48.4375 29.6875 48.4375C33.1336 48.4375 35.9375 45.6336 35.9375 42.1875C35.9375 38.7414 33.1336 35.9375 29.6875 35.9375ZM28.9062 37.5703V41.7359L25.2984 43.8188C25.1086 43.3102 25 42.7617 25 42.1875C25 39.8695 26.693 37.9445 28.9062 37.5703ZM29.6875 46.875C28.2367 46.875 26.9383 46.2125 26.0773 45.1742L29.6875 43.0898L33.2977 45.1742C32.4367 46.2125 31.1383 46.875 29.6875 46.875ZM34.0766 43.8195L30.4688 41.7359V37.5703C32.682 37.9438 34.375 39.8688 34.375 42.1875C34.375 42.7617 34.2664 43.3102 34.0766 43.8195Z" fill="#FD5D07"/>
<path d="M37.5 46.875H39.0625V48.4375H37.5V46.875Z" fill="#FD5D07"/>
<path d="M40.625 46.875H48.4375V48.4375H40.625V46.875Z" fill="#FD5D07"/>
<path d="M37.5 43.75H39.0625V45.3125H37.5V43.75Z" fill="#FD5D07"/>
<path d="M40.625 43.75H48.4375V45.3125H40.625V43.75Z" fill="#FD5D07"/>
<path d="M37.5 40.625H39.0625V42.1875H37.5V40.625Z" fill="#FD5D07"/>
<path d="M40.625 40.625H48.4375V42.1875H40.625V40.625Z" fill="#FD5D07"/>
<path d="M37.5 37.5H39.0625V39.0625H37.5V37.5Z" fill="#FD5D07"/>
<path d="M40.625 37.5H48.4375V39.0625H40.625V37.5Z" fill="#FD5D07"/>
<path d="M35.9375 34.375H46.875V35.9375H35.9375V34.375Z" fill="#FD5D07"/>
<path d="M35.9375 31.25H46.875V32.8125H35.9375V31.25Z" fill="#FD5D07"/>
<path d="M37.5 28.125H40.625V29.6875H37.5V28.125Z" fill="#FD5D07"/>
<path d="M42.1875 28.125H46.875V29.6875H42.1875V28.125Z" fill="#FD5D07"/>
</svg>
