<svg width="50" height="51" viewBox="0 0 50 51" fill="none" xmlns="http://www.w3.org/2000/svg">
<path d="M27.5418 27.6694C30.1855 27.6694 32.3364 25.5186 32.3364 22.8747C32.3364 20.2309 30.1855 18.0801 27.5418 18.0801C24.898 18.0801 22.7471 20.2309 22.7471 22.8747C22.7471 25.5186 24.8979 27.6694 27.5418 27.6694ZM27.5418 19.6783C29.3043 19.6783 30.7382 21.1122 30.7382 22.8747C30.7382 24.6373 29.3043 26.0712 27.5418 26.0712C25.7793 26.0712 24.3454 24.6373 24.3454 22.8747C24.3454 21.1122 25.7793 19.6783 27.5418 19.6783Z" fill="#FD5D07"/>
<path d="M15.5974 41.2546C16.2991 41.2546 16.9589 40.9813 17.4552 40.485L18.0047 39.9355C18.4674 40.2702 19.0286 40.4555 19.6078 40.4555C20.0977 40.4555 20.5732 40.3241 20.9895 40.08C20.8637 40.9343 20.6654 41.7772 20.3912 42.6001L19.945 43.9391L23.4209 43.1666C25.0372 42.8074 26.4979 41.8984 27.534 40.6069C28.57 39.3153 29.1405 37.6922 29.1405 36.0366C29.1405 35.1709 29.0016 34.3156 28.7279 33.4944L28.6503 33.2615L29.7394 32.2813C34.4373 28.0531 37.1316 22.0032 37.1316 15.683C37.1316 14.3612 36.0561 13.2857 34.7342 13.2857H34.4063C28.933 13.2857 23.6179 15.3302 19.5512 18.947V13.2857C19.5512 12.4045 18.8342 11.6875 17.9529 11.6875H6.7654C5.88418 11.6875 5.16718 12.4045 5.16718 13.2857V21.2768C5.16718 22.158 5.88418 22.875 6.7654 22.875H9.59495C8.63262 23.6013 7.83042 24.552 7.26585 25.6812L5.47234 29.2679H8.17493C8.80024 29.2679 9.41465 29.3546 10.0105 29.5229C9.97832 29.6915 9.96174 29.8642 9.96174 30.0389V30.1183C9.96174 30.672 10.1284 31.2068 10.4367 31.6584L9.99361 32.1015C9.4577 32.6374 9.16263 33.3499 9.16263 34.1077C9.16263 34.4453 9.22307 34.7778 9.33824 35.0899C5.23061 35.9418 1.95616 39.0957 0.993433 43.2676L0.167053 46.8483H4.99168C8.99472 46.8483 12.595 44.4265 14.1555 40.8231C14.5793 41.1016 15.0788 41.2546 15.5974 41.2546ZM15.5974 39.6563C15.2965 39.6563 15.0117 39.5253 14.8159 39.2969L11.0592 34.9141C10.8668 34.6897 10.761 34.4033 10.761 34.1077C10.761 33.7768 10.8899 33.4655 11.1238 33.2316L11.4944 32.861L16.8871 38.7929L16.3252 39.3549C16.1307 39.5493 15.8723 39.6563 15.5974 39.6563ZM14.2619 33.5292L18.7568 29.5337C18.9496 29.3623 19.198 29.2679 19.4559 29.2679H19.5833C19.8643 29.2679 20.1286 29.3774 20.3274 29.5762L20.8411 30.0899C21.0398 30.2886 21.1493 30.5529 21.1493 30.8339C21.1493 31.1342 21.0205 31.4208 20.7961 31.6203L16.2224 35.6859L14.2619 33.5292ZM27.5423 36.0366C27.5423 38.7315 25.7049 41.0218 23.0742 41.6065L22.2879 41.7812C22.5415 40.7344 22.69 39.6653 22.7333 38.5867L27.3405 34.4404C27.4738 34.9615 27.5423 35.4964 27.5423 36.0366ZM34.7342 14.8839C35.1749 14.8839 35.5334 15.2424 35.5334 15.683C35.5334 17.0562 35.3946 18.4151 35.1289 19.7423L30.6233 15.2367C31.8645 15.0046 33.1306 14.8839 34.4063 14.8839H34.7342ZM28.7923 15.6659L34.6816 21.5552C33.6053 25.1935 31.5408 28.5098 28.6703 31.0933L20.3677 38.5657C20.1587 38.7537 19.8889 38.8572 19.608 38.8572C19.2888 38.8572 18.9825 38.7218 18.7677 38.4854L17.2978 36.8684L21.8581 32.8148C22.4235 32.3123 22.7477 31.5902 22.7477 30.8338C22.7477 30.1258 22.472 29.4602 21.9714 28.9596L21.4576 28.4458C20.957 27.9452 20.2914 27.6696 19.5835 27.6696H19.4561C18.8063 27.6696 18.1809 27.9073 17.6952 28.3391L13.1869 32.3464L11.8555 30.8818C11.6651 30.6724 11.5603 30.4012 11.5603 30.1181V30.0387C11.5603 29.7469 11.6707 29.4695 11.8714 29.2577L19.3558 21.3575C21.9396 18.6301 25.2219 16.6747 28.7923 15.6659ZM6.7654 21.2768V13.2857H17.9529V20.5144L16.859 21.6692C16.0612 21.4094 15.2319 21.2768 14.3923 21.2768H6.7654ZM8.05836 27.6697L8.69515 26.396C9.78114 24.2242 11.9641 22.875 14.3923 22.875C14.801 22.875 15.2066 22.915 15.6054 22.9924L10.7785 28.0874C9.93837 27.8116 9.06554 27.6697 8.17493 27.6697H8.05836ZM4.99168 45.2501H2.17612L2.5507 43.6269C3.42422 39.8416 6.52967 37.0397 10.3476 36.5397L12.9326 39.5555C11.7898 42.9286 8.58388 45.2501 4.99168 45.2501Z" fill="#FD5D07"/>
<path d="M6.63554 42.0532H6.19933C6.56991 40.9024 7.45762 40.001 8.61613 39.6149L8.1107 38.0986C6.34906 38.6859 5.02833 40.112 4.57793 41.9136L4.14362 43.6514H6.63564C8.49167 43.6514 10.133 42.4685 10.7199 40.7076L9.20368 40.2023C8.83459 41.3095 7.80254 42.0532 6.63554 42.0532Z" fill="#FD5D07"/>
<path d="M34.5968 46.8481C33.195 46.8481 31.8635 47.3061 30.7733 48.1513C29.9011 47.3102 28.7571 46.8481 27.542 46.8481C26.3771 46.8481 25.2774 47.2729 24.4201 48.0491C23.328 46.8581 21.8092 46.138 20.1768 46.0567L20.1602 45.9904C19.6982 44.1429 18.0456 42.8525 16.1412 42.8525C15.0346 42.8525 13.9943 43.2834 13.2117 44.0659L12.5928 44.6848L13.723 45.8148L14.3418 45.196C14.8224 44.7154 15.4613 44.4508 16.1411 44.4508C17.3108 44.4508 18.3258 45.2434 18.6095 46.3781L18.9269 47.6472H19.866C21.4023 47.6472 22.8283 48.4104 23.6806 49.6887L24.2213 50.4997L25.3787 49.3423C25.9564 48.7646 26.7247 48.4463 27.5419 48.4463C28.3591 48.4463 29.1274 48.7646 29.7052 49.3424L30.7383 50.3756L31.3034 49.8105C32.1831 48.9308 33.3527 48.4463 34.5968 48.4463H34.871C36.1151 48.4463 37.2847 48.9308 38.1643 49.8104L39.2945 48.6803C38.113 47.4989 36.5421 46.8481 34.871 46.8481H34.5968Z" fill="#FD5D07"/>
<path d="M36.7543 43.6519H35.8643L35.6303 43.4179C34.7506 42.5382 33.581 42.0537 32.3369 42.0537C31.0928 42.0537 29.9231 42.5382 29.0436 43.4178L28.5754 43.886L29.7055 45.0161L30.1736 44.5478C30.7514 43.9701 31.5196 43.6518 32.3368 43.6518C33.154 43.6518 33.9224 43.9701 34.5001 44.5479L35.2023 45.25H36.7543C38.654 45.25 40.3619 46.3056 41.2115 48.0048L42.641 47.29C41.5189 45.046 39.2632 43.6519 36.7543 43.6519Z" fill="#FD5D07"/>
<path d="M49.6638 46.9527C49.3217 46.2683 48.8629 45.6718 48.3187 45.1804V2.09822C48.3187 1.217 47.6017 0.5 46.7205 0.5H3.56857C2.68735 0.5 1.97035 1.217 1.97035 2.09822V27.9374C1.46691 27.7638 0.928811 27.6697 0.372131 27.6697V29.268C1.88674 29.268 3.20118 30.2942 3.56857 31.7637L3.74378 32.4644H4.9781C5.77561 32.4644 6.49271 32.9076 6.84932 33.6209L8.27882 32.9061C7.64972 31.6478 6.38493 30.8662 4.9781 30.8662H4.96192C4.66984 30.0735 4.18438 29.3878 3.56847 28.8566V8.4911H46.7204V44.1495C46.1227 43.8888 45.478 43.7245 44.8073 43.6711C43.6365 41.6962 41.5423 40.4806 39.2234 40.4559L39.1864 40.3821C38.2234 38.4557 36.287 37.259 34.1333 37.259C32.2399 37.259 30.4827 38.1996 29.4326 39.7748L29.2743 40.0122L30.6041 40.8989L30.7624 40.6615C31.5154 39.5317 32.7756 38.8573 34.1333 38.8573C35.6778 38.8573 37.0664 39.7154 37.7571 41.0969L38.2356 42.0537H39.1512C41.0509 42.0537 42.7588 43.1092 43.6085 44.8084L43.8293 45.2501H44.3232C45.9901 45.2501 47.4888 46.1763 48.2344 47.6675L48.4031 48.0049L49.8326 47.2901L49.6638 46.9527ZM3.56857 6.89288V2.09822H46.7205V6.89288H3.56857Z" fill="#FD5D07"/>
<path d="M5.16718 3.69629H6.76539V5.29451H5.16718V3.69629Z" fill="#FD5D07"/>
<path d="M8.36334 3.69629H9.96156V5.29451H8.36334V3.69629Z" fill="#FD5D07"/>
<path d="M11.5596 3.69629H13.1579V5.29451H11.5596V3.69629Z" fill="#FD5D07"/>
<path d="M35.5338 30.8662C34.6526 30.8662 33.9356 31.5832 33.9356 32.4644V34.0626C33.9356 34.9439 34.6526 35.6609 35.5338 35.6609H43.5249C44.4061 35.6609 45.1231 34.9439 45.1231 34.0626V32.4644C45.1231 31.5832 44.4061 30.8662 43.5249 30.8662H35.5338ZM35.5338 32.4644H38.7303V34.0626H35.5338V32.4644ZM43.5249 34.0626H40.3285V32.4644H43.5249L43.5259 34.0626C43.5259 34.0626 43.5255 34.0626 43.5249 34.0626Z" fill="#FD5D07"/>
<path d="M37.1319 26.0713H45.123V27.6695H37.1319V26.0713Z" fill="#FD5D07"/>
<path d="M38.7296 21.2773H45.1224V22.8756H38.7296V21.2773Z" fill="#FD5D07"/>
<path d="M38.7298 16.4824H45.1227V18.0806H38.7298V16.4824Z" fill="#FD5D07"/>
</svg>
