<svg width="55" height="55" viewBox="0 0 55 55" fill="none" xmlns="http://www.w3.org/2000/svg">
<path d="M55 23.4285C55 23.1814 54.7852 23.0632 54.71 22.988L50.542 19.4216C55.333 15.9519 56.4072 9.24878 52.9375 4.45776C48.4902 -1.99829 38.1025 -1.14966 34.7188 5.88647L28.0371 0.203857C27.7256 -0.0646973 27.2637 -0.0646973 26.9629 0.203857L17.6279 8.17456H10.001C9.53906 8.17456 9.16309 8.55054 9.17383 9.01245V15.3933L0.290039 22.988C0 23.1707 0.0107422 23.5037 0.0107422 23.6326C0.0644531 24.0515 0 53.5281 0 54.4734C0 54.7312 0.161133 54.9998 0.6875 55.0105C1.36426 55.0212 53.6572 54.9998 54.4199 54.9998C54.8281 54.9998 55.0107 54.4089 55 54.1941H55.0107C54.9033 53.7107 55 24.2341 55 23.4285ZM53.335 25.4373V52.3464L37.5762 38.8972L53.335 25.4373ZM52.8838 23.6326L45.8369 29.6482V21.3337C46.9434 21.1834 48.0283 20.8503 49.0273 20.3455L52.8838 23.6326ZM44.2686 1.66479C56.2246 1.96558 56.2246 19.4968 44.2686 19.7976C32.3018 19.4861 32.3232 1.98706 44.2686 1.66479ZM27.4893 1.94409L34.0205 7.53003C33.9561 7.72339 33.9131 7.94897 33.8486 8.17456H20.1846L27.4893 1.94409ZM33.5801 9.85034C33.0322 16.0164 37.9736 21.4304 44.1719 21.4519V31.0769L36.3086 37.8015L28.0371 30.7332C27.7256 30.4861 27.2744 30.4861 26.9629 30.7332L18.7021 37.8015L10.8389 31.0769V9.85034H33.5801ZM17.4131 38.8972L1.6543 52.3464V25.4373L17.4131 38.8972ZM9.16309 29.6482L2.11621 23.6326L9.16309 17.5955V29.6482ZM3.09375 53.3347L27.4893 32.4627L51.9062 53.3347H3.09375Z" fill="#FD5D07"/>
<path d="M43.2266 16.3816C43.5811 16.8328 44.3653 16.7576 44.6124 16.2313L49.4571 6.85333C49.6719 6.40216 49.4571 6.00469 49.1241 5.80059C48.7588 5.58575 48.2432 5.60723 47.9747 6.09063L43.71 14.3514L40.4551 10.3875C40.1114 9.9793 39.6172 10.033 39.295 10.2908C38.9727 10.5486 38.8223 11.0213 39.1553 11.4402C39.1661 11.451 43.2159 16.3709 43.2266 16.3816Z" fill="#FD5D07"/>
<path d="M15.834 22.2686H34.1602C34.6973 22.2578 34.9766 21.8496 34.9766 21.4414C34.9766 21.0332 34.708 20.625 34.1602 20.6143H15.834C15.2969 20.625 15.0176 21.0332 15.0176 21.4414C15.0176 21.8496 15.2861 22.2578 15.834 22.2686Z" fill="#FD5D07"/>
<path d="M15.8339 16.865H29.9921C30.5614 16.8758 30.8514 16.4568 30.8514 16.0379C30.8514 15.6189 30.5722 15.1893 29.9921 15.2107H15.8339C14.8026 15.2537 14.7919 16.8113 15.8339 16.865Z" fill="#FD5D07"/>
<path d="M15.8341 27.6826H39.1768C39.6925 27.6611 39.9503 27.2637 39.9503 26.8555C39.9503 26.4473 39.6925 26.0498 39.1768 26.0283H15.8341C15.3184 26.0498 15.0606 26.458 15.0606 26.8555C15.0499 27.2637 15.3077 27.6611 15.8341 27.6826Z" fill="#FD5D07"/>
</svg>
