<svg width="50" height="50" viewBox="0 0 50 50" fill="none" xmlns="http://www.w3.org/2000/svg">
<path d="M48.4377 46.094H25.0002V45.3127C25.0002 45.1055 24.9179 44.9068 24.7714 44.7603C24.6248 44.6138 24.4261 44.5315 24.2189 44.5315H20.3127V42.969C20.3127 42.7618 20.2304 42.5631 20.0839 42.4165C19.9373 42.27 19.7386 42.1877 19.5314 42.1877H18.7502V40.6252H29.2971C30.022 40.6244 30.717 40.3361 31.2297 39.8235C31.7423 39.3108 32.0306 38.6158 32.0314 37.8909V33.9846C32.0317 33.6206 31.9589 33.2602 31.8175 32.9247C31.6761 32.5892 31.4689 32.2855 31.2082 32.0315C31.4689 31.7774 31.6761 31.4737 31.8175 31.1382C31.9589 30.8028 32.0317 30.4424 32.0314 30.0783V26.1721C32.0316 25.9613 32.007 25.7512 31.9582 25.5461C34.5844 26.0638 37.3075 25.7248 39.7267 24.5791C42.1458 23.4333 44.1333 21.5413 45.3967 19.1814C46.66 16.8215 47.1325 14.1184 46.7446 11.4698C46.3567 8.82132 45.1288 6.36726 43.2418 4.4688C41.3547 2.57034 38.9081 1.32775 36.2619 0.923879C33.6158 0.520012 30.9099 0.976202 28.5424 2.22532C26.175 3.47443 24.271 5.4505 23.1107 7.86272C21.9504 10.2749 21.595 12.9959 22.0969 15.6252H6.64081C5.91585 15.626 5.22082 15.9144 4.7082 16.427C4.19558 16.9396 3.90723 17.6346 3.90643 18.3596V22.2658C3.90621 22.6299 3.97895 22.9903 4.12035 23.3257C4.26174 23.6612 4.46893 23.9649 4.72968 24.219C4.46893 24.473 4.26174 24.7767 4.12035 25.1122C3.97895 25.4477 3.90621 25.8081 3.90643 26.1721V30.0783C3.90621 30.4424 3.97895 30.8028 4.12035 31.1382C4.26174 31.4737 4.46893 31.7774 4.72968 32.0315C4.46893 32.2855 4.26174 32.5892 4.12035 32.9247C3.97895 33.2602 3.90621 33.6206 3.90643 33.9846V37.8909C3.90723 38.6158 4.19558 39.3108 4.7082 39.8235C5.22082 40.3361 5.91585 40.6244 6.64081 40.6252H17.1877V42.1877H16.4064C16.1992 42.1877 16.0005 42.27 15.854 42.4165C15.7075 42.5631 15.6252 42.7618 15.6252 42.969V44.5315H11.7189C11.5117 44.5315 11.313 44.6138 11.1665 44.7603C11.02 44.9068 10.9377 45.1055 10.9377 45.3127V46.094H1.56268C1.35548 46.094 1.15677 46.1763 1.01026 46.3228C0.863743 46.4693 0.781433 46.668 0.781433 46.8752C0.781433 47.0824 0.863743 47.2811 1.01026 47.4277C1.15677 47.5742 1.35548 47.6565 1.56268 47.6565H10.9377V48.4377C10.9377 48.6449 11.02 48.8436 11.1665 48.9902C11.313 49.1367 11.5117 49.219 11.7189 49.219H24.2189C24.4261 49.219 24.6248 49.1367 24.7714 48.9902C24.9179 48.8436 25.0002 48.6449 25.0002 48.4377V47.6565H48.4377C48.6449 47.6565 48.8436 47.5742 48.9901 47.4277C49.1366 47.2811 49.2189 47.0824 49.2189 46.8752C49.2189 46.668 49.1366 46.4693 48.9901 46.3228C48.8436 46.1763 48.6449 46.094 48.4377 46.094ZM27.3439 39.0627H26.5627V32.8127H27.3439V39.0627ZM27.3439 31.2502H26.5627V25.0002H27.3439V31.2502ZM30.4689 37.8909C30.4687 38.2016 30.3451 38.4995 30.1254 38.7192C29.9057 38.9389 29.6078 39.0625 29.2971 39.0627H28.9064V32.8127H29.2971C29.6078 32.813 29.9057 32.9365 30.1254 33.1562C30.3451 33.376 30.4687 33.6739 30.4689 33.9846V37.8909ZM30.4689 30.0783C30.4687 30.3891 30.3451 30.687 30.1254 30.9067C29.9057 31.1264 29.6078 31.25 29.2971 31.2502H28.9064V25.0002H29.2971C29.6078 25.0005 29.9057 25.124 30.1254 25.3437C30.3451 25.5635 30.4687 25.8614 30.4689 26.1721V30.0783ZM34.3752 2.34397C36.5384 2.34397 38.6531 2.98545 40.4517 4.18728C42.2504 5.3891 43.6523 7.09731 44.4801 9.09587C45.3079 11.0944 45.5245 13.2936 45.1025 15.4153C44.6805 17.5369 43.6388 19.4858 42.1092 21.0155C40.5795 22.5451 38.6307 23.5868 36.509 24.0088C34.3873 24.4308 32.1882 24.2142 30.1896 23.3864C28.191 22.5586 26.4828 21.1567 25.281 19.358C24.0792 17.5594 23.4377 15.4447 23.4377 13.2815C23.4409 10.3816 24.5942 7.6015 26.6447 5.55101C28.6952 3.50052 31.4754 2.34715 34.3752 2.34397ZM5.46893 18.3596C5.46919 18.0489 5.59274 17.751 5.81245 17.5312C6.03217 17.3115 6.33009 17.188 6.64081 17.1877H22.5012C22.6769 17.7225 22.8894 18.2446 23.1369 18.7502H18.7502C18.543 18.7502 18.3443 18.8325 18.1978 18.979C18.0512 19.1256 17.9689 19.3243 17.9689 19.5315C17.9689 19.7387 18.0512 19.9374 18.1978 20.0839C18.3443 20.2304 18.543 20.3127 18.7502 20.3127H23.4377C23.6167 20.3131 23.7903 20.2513 23.9289 20.1379C24.7745 21.4221 25.8482 22.5405 27.0969 23.4377H6.64081C6.33009 23.4375 6.03217 23.3139 5.81245 23.0942C5.59274 22.8745 5.46919 22.5766 5.46893 22.2658V18.3596ZM5.46893 26.1721C5.46919 25.8614 5.59274 25.5635 5.81245 25.3437C6.03217 25.124 6.33009 25.0005 6.64081 25.0002H25.0002V31.2502H6.64081C6.33009 31.25 6.03217 31.1264 5.81245 30.9067C5.59274 30.687 5.46919 30.3891 5.46893 30.0783V26.1721ZM6.64081 39.0627C6.33009 39.0625 6.03217 38.9389 5.81245 38.7192C5.59274 38.4995 5.46919 38.2016 5.46893 37.8909V33.9846C5.46919 33.6739 5.59274 33.376 5.81245 33.1562C6.03217 32.9365 6.33009 32.813 6.64081 32.8127H25.0002V39.0627H6.64081ZM17.1877 43.7502H18.7502V44.5315H17.1877V43.7502ZM23.4377 47.6565H12.5002V46.094H23.4377V47.6565Z" fill="#FD5D07"/>
<path d="M8.59393 33.5938C8.13038 33.5938 7.67724 33.7312 7.29182 33.9887C6.90639 34.2463 6.60598 34.6123 6.42859 35.0406C6.2512 35.4689 6.20478 35.9401 6.29522 36.3947C6.38565 36.8494 6.60887 37.267 6.93665 37.5948C7.26443 37.9226 7.68205 38.1458 8.13669 38.2362C8.59133 38.3266 9.06258 38.2802 9.49085 38.1028C9.91911 37.9254 10.2852 37.625 10.5427 37.2396C10.8002 36.8542 10.9377 36.401 10.9377 35.9375C10.937 35.3161 10.6898 34.7204 10.2504 34.281C9.81103 33.8416 9.21531 33.5945 8.59393 33.5938ZM8.59393 36.7187C8.43942 36.7187 8.28837 36.6729 8.15989 36.5871C8.03142 36.5012 7.93128 36.3792 7.87215 36.2365C7.81302 36.0937 7.79755 35.9366 7.8277 35.7851C7.85784 35.6335 7.93225 35.4943 8.04151 35.3851C8.15077 35.2758 8.28997 35.2014 8.44152 35.1713C8.59307 35.1411 8.75015 35.1566 8.89291 35.2157C9.03566 35.2749 9.15768 35.375 9.24352 35.5035C9.32936 35.6319 9.37518 35.783 9.37518 35.9375C9.37495 36.1446 9.29257 36.3432 9.1461 36.4897C8.99964 36.6361 8.80106 36.7185 8.59393 36.7187Z" fill="#FD5D07"/>
<path d="M14.0627 33.5938C13.5991 33.5938 13.146 33.7312 12.7606 33.9887C12.3751 34.2463 12.0747 34.6123 11.8973 35.0406C11.7199 35.4689 11.6735 35.9401 11.764 36.3947C11.8544 36.8494 12.0776 37.267 12.4054 37.5948C12.7332 37.9226 13.1508 38.1458 13.6054 38.2362C14.0601 38.3266 14.5313 38.2802 14.9596 38.1028C15.3879 37.9254 15.7539 37.625 16.0114 37.2396C16.269 36.8542 16.4064 36.401 16.4064 35.9375C16.4057 35.3161 16.1585 34.7204 15.7192 34.281C15.2798 33.8416 14.6841 33.5945 14.0627 33.5938ZM14.0627 36.7187C13.9082 36.7187 13.7571 36.6729 13.6286 36.5871C13.5002 36.5012 13.4 36.3792 13.3409 36.2365C13.2818 36.0937 13.2663 35.9366 13.2964 35.7851C13.3266 35.6335 13.401 35.4943 13.5103 35.3851C13.6195 35.2758 13.7587 35.2014 13.9103 35.1713C14.0618 35.1411 14.2189 35.1566 14.3617 35.2157C14.5044 35.2749 14.6264 35.375 14.7123 35.5035C14.7981 35.6319 14.8439 35.783 14.8439 35.9375C14.8437 36.1446 14.7613 36.3432 14.6149 36.4897C14.4684 36.6361 14.2698 36.7185 14.0627 36.7187Z" fill="#FD5D07"/>
<path d="M18.7502 35.9375H23.4377C23.6449 35.9375 23.8436 35.8552 23.9901 35.7087C24.1366 35.5622 24.2189 35.3635 24.2189 35.1562C24.2189 34.949 24.1366 34.7503 23.9901 34.6038C23.8436 34.4573 23.6449 34.375 23.4377 34.375H18.7502C18.543 34.375 18.3443 34.4573 18.1978 34.6038C18.0512 34.7503 17.9689 34.949 17.9689 35.1562C17.9689 35.3635 18.0512 35.5622 18.1978 35.7087C18.3443 35.8552 18.543 35.9375 18.7502 35.9375Z" fill="#FD5D07"/>
<path d="M8.59393 25.7812C8.13038 25.7812 7.67724 25.9187 7.29182 26.1762C6.90639 26.4338 6.60598 26.7998 6.42859 27.2281C6.2512 27.6564 6.20478 28.1276 6.29522 28.5822C6.38565 29.0369 6.60887 29.4545 6.93665 29.7823C7.26443 30.1101 7.68205 30.3333 8.13669 30.4237C8.59133 30.5141 9.06258 30.4677 9.49085 30.2903C9.91911 30.1129 10.2852 29.8125 10.5427 29.4271C10.8002 29.0417 10.9377 28.5885 10.9377 28.125C10.937 27.5036 10.6898 26.9079 10.2504 26.4685C9.81103 26.0291 9.21531 25.782 8.59393 25.7812ZM8.59393 28.9062C8.43942 28.9062 8.28837 28.8604 8.15989 28.7746C8.03142 28.6887 7.93128 28.5667 7.87215 28.424C7.81302 28.2812 7.79755 28.1241 7.8277 27.9726C7.85784 27.821 7.93225 27.6818 8.04151 27.5726C8.15077 27.4633 8.28997 27.3889 8.44152 27.3588C8.59307 27.3286 8.75015 27.3441 8.89291 27.4032C9.03566 27.4624 9.15768 27.5625 9.24352 27.691C9.32936 27.8194 9.37518 27.9705 9.37518 28.125C9.37495 28.3321 9.29257 28.5307 9.1461 28.6772C8.99964 28.8236 8.80106 28.906 8.59393 28.9062Z" fill="#FD5D07"/>
<path d="M14.0627 25.7812C13.5991 25.7812 13.146 25.9187 12.7606 26.1762C12.3751 26.4338 12.0747 26.7998 11.8973 27.2281C11.7199 27.6564 11.6735 28.1276 11.764 28.5822C11.8544 29.0369 12.0776 29.4545 12.4054 29.7823C12.7332 30.1101 13.1508 30.3333 13.6054 30.4237C14.0601 30.5141 14.5313 30.4677 14.9596 30.2903C15.3879 30.1129 15.7539 29.8125 16.0114 29.4271C16.269 29.0417 16.4064 28.5885 16.4064 28.125C16.4057 27.5036 16.1585 26.9079 15.7192 26.4685C15.2798 26.0291 14.6841 25.782 14.0627 25.7812ZM14.0627 28.9062C13.9082 28.9062 13.7571 28.8604 13.6286 28.7746C13.5002 28.6887 13.4 28.5667 13.3409 28.424C13.2818 28.2812 13.2663 28.1241 13.2964 27.9726C13.3266 27.821 13.401 27.6818 13.5103 27.5726C13.6195 27.4633 13.7587 27.3889 13.9103 27.3588C14.0618 27.3286 14.2189 27.3441 14.3617 27.4032C14.5044 27.4624 14.6264 27.5625 14.7123 27.691C14.7981 27.8194 14.8439 27.9705 14.8439 28.125C14.8437 28.3321 14.7613 28.5307 14.6149 28.6772C14.4684 28.8236 14.2698 28.906 14.0627 28.9062Z" fill="#FD5D07"/>
<path d="M23.4377 26.5625H18.7502C18.543 26.5625 18.3443 26.6448 18.1978 26.7913C18.0512 26.9378 17.9689 27.1365 17.9689 27.3438C17.9689 27.551 18.0512 27.7497 18.1978 27.8962C18.3443 28.0427 18.543 28.125 18.7502 28.125H23.4377C23.6449 28.125 23.8436 28.0427 23.9901 27.8962C24.1366 27.7497 24.2189 27.551 24.2189 27.3438C24.2189 27.1365 24.1366 26.9378 23.9901 26.7913C23.8436 26.6448 23.6449 26.5625 23.4377 26.5625Z" fill="#FD5D07"/>
<path d="M8.59393 17.9688C8.13038 17.9688 7.67724 18.1062 7.29182 18.3637C6.90639 18.6213 6.60598 18.9873 6.42859 19.4156C6.2512 19.8439 6.20478 20.3151 6.29522 20.7697C6.38565 21.2244 6.60887 21.642 6.93665 21.9698C7.26443 22.2976 7.68205 22.5208 8.13669 22.6112C8.59133 22.7016 9.06258 22.6552 9.49085 22.4778C9.91911 22.3004 10.2852 22 10.5427 21.6146C10.8002 21.2292 10.9377 20.7761 10.9377 20.3125C10.937 19.6911 10.6898 19.0954 10.2504 18.656C9.81103 18.2166 9.21531 17.9695 8.59393 17.9688ZM8.59393 21.0938C8.43942 21.0938 8.28837 21.0479 8.15989 20.9621C8.03142 20.8762 7.93128 20.7542 7.87215 20.6115C7.81302 20.4687 7.79755 20.3116 7.8277 20.1601C7.85784 20.0085 7.93225 19.8693 8.04151 19.7601C8.15077 19.6508 8.28997 19.5764 8.44152 19.5463C8.59307 19.5161 8.75015 19.5316 8.89291 19.5907C9.03566 19.6499 9.15768 19.75 9.24352 19.8785C9.32936 20.0069 9.37518 20.158 9.37518 20.3125C9.37495 20.5196 9.29257 20.7182 9.1461 20.8647C8.99964 21.0111 8.80106 21.0935 8.59393 21.0938Z" fill="#FD5D07"/>
<path d="M14.0627 17.9688C13.5991 17.9688 13.146 18.1062 12.7606 18.3637C12.3751 18.6213 12.0747 18.9873 11.8973 19.4156C11.7199 19.8439 11.6735 20.3151 11.764 20.7697C11.8544 21.2244 12.0776 21.642 12.4054 21.9698C12.7332 22.2976 13.1508 22.5208 13.6054 22.6112C14.0601 22.7016 14.5313 22.6552 14.9596 22.4778C15.3879 22.3004 15.7539 22 16.0114 21.6146C16.269 21.2292 16.4064 20.7761 16.4064 20.3125C16.4057 19.6911 16.1585 19.0954 15.7192 18.656C15.2798 18.2166 14.6841 17.9695 14.0627 17.9688ZM14.0627 21.0938C13.9082 21.0938 13.7571 21.0479 13.6286 20.9621C13.5002 20.8762 13.4 20.7542 13.3409 20.6115C13.2818 20.4687 13.2663 20.3116 13.2964 20.1601C13.3266 20.0085 13.401 19.8693 13.5103 19.7601C13.6195 19.6508 13.7587 19.5764 13.9103 19.5463C14.0618 19.5161 14.2189 19.5316 14.3617 19.5907C14.5044 19.6499 14.6264 19.75 14.7123 19.8785C14.7981 20.0069 14.8439 20.158 14.8439 20.3125C14.8437 20.5196 14.7613 20.7182 14.6149 20.8647C14.4684 21.0111 14.2698 21.0935 14.0627 21.0938Z" fill="#FD5D07"/>
<path d="M23.4377 36.7188H21.8752C21.668 36.7188 21.4693 36.8011 21.3228 36.9476C21.1762 37.0941 21.0939 37.2928 21.0939 37.5C21.0939 37.7072 21.1762 37.9059 21.3228 38.0524C21.4693 38.1989 21.668 38.2812 21.8752 38.2812H23.4377C23.6449 38.2812 23.8436 38.1989 23.9901 38.0524C24.1366 37.9059 24.2189 37.7072 24.2189 37.5C24.2189 37.2928 24.1366 37.0941 23.9901 36.9476C23.8436 36.8011 23.6449 36.7188 23.4377 36.7188Z" fill="#FD5D07"/>
<path d="M34.3752 23.4375C36.3839 23.4375 38.3475 22.8419 40.0177 21.7259C41.6879 20.6099 42.9896 19.0237 43.7583 17.1679C44.527 15.3121 44.7282 13.27 44.3363 11.2999C43.9444 9.32975 42.9771 7.52008 41.5567 6.0997C40.1364 4.67932 38.3267 3.71204 36.3566 3.32015C34.3864 2.92827 32.3444 3.1294 30.4886 3.8981C28.6327 4.66681 27.0466 5.96856 25.9306 7.63874C24.8146 9.30893 24.2189 11.2725 24.2189 13.2813C24.222 15.9739 25.293 18.5554 27.197 20.4594C29.101 22.3634 31.6825 23.4345 34.3752 23.4375ZM34.3752 4.6875C36.0749 4.6875 37.7364 5.19152 39.1496 6.13581C40.5628 7.08011 41.6643 8.42227 42.3148 9.99257C42.9652 11.5629 43.1354 13.2908 42.8038 14.9578C42.4722 16.6248 41.6537 18.1561 40.4519 19.358C39.25 20.5598 37.7188 21.3783 36.0517 21.7099C34.3847 22.0415 32.6568 21.8713 31.0865 21.2208C29.5162 20.5704 28.174 19.4689 27.2297 18.0557C26.2854 16.6425 25.7814 14.9809 25.7814 13.2813C25.784 11.0028 26.6903 8.81849 28.3013 7.20741C29.9124 5.59633 32.0968 4.69009 34.3752 4.6875Z" fill="#FD5D07"/>
<path d="M30.1195 15.5427L33.2445 17.1052C33.3912 17.1785 33.5572 17.2038 33.7191 17.1775C33.881 17.1512 34.0304 17.0747 34.1464 16.9587L39.6151 11.49C39.7616 11.3434 39.844 11.1447 39.844 10.9375C39.844 10.7303 39.7616 10.5316 39.6151 10.3851C39.4686 10.2386 39.2699 10.1563 39.0627 10.1562C38.8555 10.1562 38.6568 10.2386 38.5102 10.3851L33.4396 15.4559L30.8183 14.1452C30.6333 14.0545 30.4198 14.0405 30.2245 14.1065C30.0292 14.1724 29.8678 14.3129 29.7756 14.4973C29.6834 14.6816 29.6678 14.895 29.7323 15.0908C29.7967 15.2866 29.9359 15.4491 30.1195 15.5427Z" fill="#FD5D07"/>
</svg>
