<svg width="50" height="51" viewBox="0 0 50 51" fill="none" xmlns="http://www.w3.org/2000/svg">
<g clip-path="url(#clip0_44_32538)">
<path fill-rule="evenodd" clip-rule="evenodd" d="M16.5047 3.6252H10.9375C9.64219 3.6252 8.59375 4.67441 8.59375 5.96895V9.8752H3.90625C1.74922 9.8752 0 11.6244 0 13.7814V18.4689C0 20.0705 0.964062 21.4471 2.34375 22.0502V24.2627C0.964062 24.8658 0 26.2424 0 27.8439V32.5314C0 34.133 0.964062 35.5096 2.34375 36.1127V38.3252C0.964062 38.9283 0 40.3049 0 41.9064V46.5939C0 48.751 1.74922 50.5002 3.90625 50.5002H28.9062C30.5078 50.5002 31.8844 49.5361 32.4875 48.1564H44.5312C45.8266 48.1564 46.875 47.1072 46.875 45.8127V32.433C48.2227 32.0861 49.2187 30.8627 49.2187 29.4064C49.2187 27.6807 47.8195 26.2814 46.0937 26.2814C44.368 26.2814 42.9687 27.6807 42.9687 29.4064C42.9687 30.8627 43.9648 32.0861 45.3125 32.433V45.8127C45.3125 46.2447 44.9633 46.5939 44.5312 46.5939H32.8125V43.4689H38.2812C39.5766 43.4689 40.625 42.4197 40.625 41.1252V37.1205C41.9727 36.7736 42.9687 35.5502 42.9687 34.0939C42.9687 32.3682 41.5695 30.9689 39.8437 30.9689C38.118 30.9689 36.7187 32.3682 36.7187 34.0939C36.7187 35.5502 37.7148 36.7736 39.0625 37.1205V41.1252C39.0625 41.5572 38.7133 41.9064 38.2812 41.9064H32.8125C32.8125 40.3049 31.8484 38.9283 30.4687 38.3252V36.1127C31.8484 35.5096 32.8125 34.133 32.8125 32.5314V30.9689C32.8125 30.5377 32.4625 30.1877 32.0312 30.1877C31.6 30.1877 31.25 30.5377 31.25 30.9689V32.5314C31.25 33.826 30.2008 34.8752 28.9062 34.8752H3.90625C2.61172 34.8752 1.5625 33.826 1.5625 32.5314V27.8439C1.5625 26.5494 2.61172 25.5002 3.90625 25.5002H25C25.4312 25.5002 25.7812 25.1502 25.7812 24.7189C25.7812 24.2877 25.4312 23.9377 25 23.9377H3.90625V22.3752H23.4375C23.8687 22.3752 24.2187 22.0252 24.2187 21.5939C24.2187 21.1627 23.8687 20.8127 23.4375 20.8127H3.90625C2.61172 20.8127 1.5625 19.7635 1.5625 18.4689V13.7814C1.5625 12.4869 2.61172 11.4377 3.90625 11.4377H20.3125C20.7437 11.4377 21.0937 11.0877 21.0937 10.6564C21.0937 10.2252 20.7437 9.8752 20.3125 9.8752H10.1562V5.96895C10.1562 5.53691 10.5055 5.1877 10.9375 5.1877H16.5047C16.8523 6.53457 18.0766 7.53145 19.5312 7.53145C21.2562 7.53145 22.6562 6.13144 22.6562 4.40645C22.6562 2.68145 21.2562 1.28145 19.5312 1.28145C18.0766 1.28145 16.8523 2.27832 16.5047 3.6252ZM28.9062 48.9377H3.90625C2.61172 48.9377 1.5625 47.8885 1.5625 46.5939V41.9064C1.5625 40.6119 2.61172 39.5627 3.90625 39.5627H28.9062C30.2008 39.5627 31.25 40.6119 31.25 41.9064V46.5939C31.25 47.8885 30.2008 48.9377 28.9062 48.9377ZM7.8125 44.2502C7.8125 42.9564 6.7625 41.9064 5.46875 41.9064C4.175 41.9064 3.125 42.9564 3.125 44.2502C3.125 45.5439 4.175 46.5939 5.46875 46.5939C6.7625 46.5939 7.8125 45.5439 7.8125 44.2502ZM17.1875 44.2502C17.1875 42.9564 16.1375 41.9064 14.8437 41.9064C13.55 41.9064 12.5 42.9564 12.5 44.2502C12.5 45.5439 13.55 46.5939 14.8437 46.5939C16.1375 46.5939 17.1875 45.5439 17.1875 44.2502ZM12.5 44.2502C12.5 42.9564 11.45 41.9064 10.1562 41.9064C8.8625 41.9064 7.8125 42.9564 7.8125 44.2502C7.8125 45.5439 8.8625 46.5939 10.1562 46.5939C11.45 46.5939 12.5 45.5439 12.5 44.2502ZM19.5312 45.0314H28.125C28.5562 45.0314 28.9062 44.6814 28.9062 44.2502C28.9062 43.8189 28.5562 43.4689 28.125 43.4689H19.5312C19.1 43.4689 18.75 43.8189 18.75 44.2502C18.75 44.6814 19.1 45.0314 19.5312 45.0314ZM6.25 44.2502C6.25 44.6814 5.9 45.0314 5.46875 45.0314C5.0375 45.0314 4.6875 44.6814 4.6875 44.2502C4.6875 43.8189 5.0375 43.4689 5.46875 43.4689C5.9 43.4689 6.25 43.8189 6.25 44.2502ZM15.625 44.2502C15.625 44.6814 15.275 45.0314 14.8437 45.0314C14.4125 45.0314 14.0625 44.6814 14.0625 44.2502C14.0625 43.8189 14.4125 43.4689 14.8437 43.4689C15.275 43.4689 15.625 43.8189 15.625 44.2502ZM10.9375 44.2502C10.9375 44.6814 10.5875 45.0314 10.1562 45.0314C9.725 45.0314 9.375 44.6814 9.375 44.2502C9.375 43.8189 9.725 43.4689 10.1562 43.4689C10.5875 43.4689 10.9375 43.8189 10.9375 44.2502ZM28.9062 36.4377H3.90625V38.0002H28.9062V36.4377ZM39.8437 35.6564C38.9805 35.6564 38.2812 34.9572 38.2812 34.0939C38.2812 33.2307 38.9805 32.5314 39.8437 32.5314C40.707 32.5314 41.4062 33.2307 41.4062 34.0939C41.4062 34.9572 40.707 35.6564 39.8437 35.6564ZM7.8125 30.1877C7.8125 28.8939 6.7625 27.8439 5.46875 27.8439C4.175 27.8439 3.125 28.8939 3.125 30.1877C3.125 31.4814 4.175 32.5314 5.46875 32.5314C6.7625 32.5314 7.8125 31.4814 7.8125 30.1877ZM17.1875 30.1877C17.1875 28.8939 16.1375 27.8439 14.8437 27.8439C13.55 27.8439 12.5 28.8939 12.5 30.1877C12.5 31.4814 13.55 32.5314 14.8437 32.5314C16.1375 32.5314 17.1875 31.4814 17.1875 30.1877ZM12.5 30.1877C12.5 28.8939 11.45 27.8439 10.1562 27.8439C8.8625 27.8439 7.8125 28.8939 7.8125 30.1877C7.8125 31.4814 8.8625 32.5314 10.1562 32.5314C11.45 32.5314 12.5 31.4814 12.5 30.1877ZM10.9375 30.1877C10.9375 30.6189 10.5875 30.9689 10.1562 30.9689C9.725 30.9689 9.375 30.6189 9.375 30.1877C9.375 29.7564 9.725 29.4064 10.1562 29.4064C10.5875 29.4064 10.9375 29.7564 10.9375 30.1877ZM6.25 30.1877C6.25 30.6189 5.9 30.9689 5.46875 30.9689C5.0375 30.9689 4.6875 30.6189 4.6875 30.1877C4.6875 29.7564 5.0375 29.4064 5.46875 29.4064C5.9 29.4064 6.25 29.7564 6.25 30.1877ZM15.625 30.1877C15.625 30.6189 15.275 30.9689 14.8437 30.9689C14.4125 30.9689 14.0625 30.6189 14.0625 30.1877C14.0625 29.7564 14.4125 29.4064 14.8437 29.4064C15.275 29.4064 15.625 29.7564 15.625 30.1877ZM46.0937 30.9689C45.2305 30.9689 44.5312 30.2697 44.5312 29.4064C44.5312 28.5432 45.2305 27.8439 46.0937 27.8439C46.957 27.8439 47.6562 28.5432 47.6562 29.4064C47.6562 30.2697 46.957 30.9689 46.0937 30.9689ZM19.5312 30.9689H28.125C28.5562 30.9689 28.9062 30.6189 28.9062 30.1877C28.9062 29.7564 28.5562 29.4064 28.125 29.4064H19.5312C19.1 29.4064 18.75 29.7564 18.75 30.1877C18.75 30.6189 19.1 30.9689 19.5312 30.9689ZM37.1 30.0885L38.9492 29.0564C46.6164 24.7775 50.8852 16.5986 49.8461 8.2166C49.8156 7.97129 49.6711 7.75566 49.457 7.63379L37.1055 0.602539C36.8656 0.46582 36.5719 0.46582 36.3328 0.602539L23.9812 7.63379C23.7664 7.75566 23.6227 7.97129 23.5922 8.2166C22.5531 16.5986 26.8211 24.7775 34.4883 29.0564L36.3383 30.0885C36.575 30.2205 36.8633 30.2205 37.1 30.0885ZM38.1875 27.6924L36.7187 28.5119L35.25 27.6924C28.2695 23.7963 24.3133 16.4189 25.0992 8.79551C25.0992 8.79473 36.7187 2.17988 36.7187 2.17988L48.3391 8.79473C49.1242 16.4189 45.168 23.7963 38.1875 27.6924ZM36.0219 26.333L36.0203 26.3322C36.0203 26.3322 36.2867 26.4814 36.3297 26.5057C36.5562 26.6322 36.718 26.6088 36.718 26.6088C36.718 26.6088 36.8797 26.6322 37.1062 26.5057C37.1492 26.4814 37.4164 26.333 37.4164 26.333H37.4148L37.4258 26.3275C43.4867 22.9447 47.0656 16.7283 46.8664 10.1861C46.8578 9.91348 46.7086 9.66504 46.4719 9.53066L37.1047 4.19863C36.8648 4.06191 36.5711 4.06191 36.332 4.19863L26.9656 9.53066C26.7289 9.66504 26.5797 9.91348 26.5711 10.1861C26.3719 16.7283 29.9508 22.9447 36.0117 26.3275L36.0219 26.333ZM36.7187 24.9322C31.35 21.9119 28.1117 16.4619 28.1258 10.6682L36.7187 5.77676L45.3117 10.6682C45.3258 16.4619 42.0875 21.9119 36.7187 24.9322ZM7.8125 16.1252C7.8125 14.8314 6.7625 13.7814 5.46875 13.7814C4.175 13.7814 3.125 14.8314 3.125 16.1252C3.125 17.4189 4.175 18.4689 5.46875 18.4689C6.7625 18.4689 7.8125 17.4189 7.8125 16.1252ZM17.1875 16.1252C17.1875 14.8314 16.1375 13.7814 14.8437 13.7814C13.55 13.7814 12.5 14.8314 12.5 16.1252C12.5 17.4189 13.55 18.4689 14.8437 18.4689C16.1375 18.4689 17.1875 17.4189 17.1875 16.1252ZM12.5 16.1252C12.5 14.8314 11.45 13.7814 10.1562 13.7814C8.8625 13.7814 7.8125 14.8314 7.8125 16.1252C7.8125 17.4189 8.8625 18.4689 10.1562 18.4689C11.45 18.4689 12.5 17.4189 12.5 16.1252ZM35.9375 15.9916V17.6541C35.9375 18.0846 36.2875 18.4346 36.7187 18.4354C37.15 18.4354 37.5 18.0846 37.5 17.6541V15.9916C38.4102 15.6697 39.0625 14.801 39.0625 13.7814C39.0625 12.4877 38.0125 11.4377 36.7187 11.4377C35.425 11.4377 34.375 12.4877 34.375 13.7814C34.375 14.801 35.0273 15.6697 35.9375 15.9916ZM19.5312 16.9064H21.0937C21.525 16.9064 21.875 16.5564 21.875 16.1252C21.875 15.6939 21.525 15.3439 21.0937 15.3439H19.5312C19.1 15.3439 18.75 15.6939 18.75 16.1252C18.75 16.5564 19.1 16.9064 19.5312 16.9064ZM10.9375 16.1252C10.9375 16.5564 10.5875 16.9064 10.1562 16.9064C9.725 16.9064 9.375 16.5564 9.375 16.1252C9.375 15.6939 9.725 15.3439 10.1562 15.3439C10.5875 15.3439 10.9375 15.6939 10.9375 16.1252ZM6.25 16.1252C6.25 16.5564 5.9 16.9064 5.46875 16.9064C5.0375 16.9064 4.6875 16.5564 4.6875 16.1252C4.6875 15.6939 5.0375 15.3439 5.46875 15.3439C5.9 15.3439 6.25 15.6939 6.25 16.1252ZM15.625 16.1252C15.625 16.5564 15.275 16.9064 14.8437 16.9064C14.4125 16.9064 14.0625 16.5564 14.0625 16.1252C14.0625 15.6939 14.4125 15.3439 14.8437 15.3439C15.275 15.3439 15.625 15.6939 15.625 16.1252ZM36.7359 14.5627C37.1594 14.5533 37.5 14.2064 37.5 13.7814C37.5 13.3502 37.15 13.0002 36.7187 13.0002C36.2875 13.0002 35.9375 13.3502 35.9375 13.7814C35.9375 14.2064 36.2781 14.5533 36.7016 14.5627H36.7187C36.7242 14.5619 36.7305 14.5627 36.7359 14.5627ZM17.9687 4.40645C17.9687 3.54395 18.6687 2.84395 19.5312 2.84395C20.3937 2.84395 21.0937 3.54395 21.0937 4.40645C21.0937 5.26895 20.3937 5.96895 19.5312 5.96895C18.6687 5.96895 17.9687 5.26895 17.9687 4.40645Z" fill="#FD5D07"/>
</g>
<defs>
<clipPath id="clip0_44_32538">
<rect width="50" height="50" fill="white" transform="translate(0 0.5)"/>
</clipPath>
</defs>
</svg>
