<svg width="40" height="40" viewBox="0 0 40 40" fill="none" xmlns="http://www.w3.org/2000/svg">
<path d="M19.8331 0C30.7867 0 39.6664 8.87969 39.6664 19.8333C39.6664 30.787 30.7867 39.6667 19.8331 39.6667C8.87941 39.6667 -0.000282288 30.787 -0.000282288 19.8333C-0.000282288 8.87969 8.87941 0 19.8331 0ZM19.8331 2.08772C10.0324 2.08772 2.08744 10.0327 2.08744 19.8333C2.08744 29.634 10.0324 37.579 19.8331 37.579C29.6337 37.579 37.5787 29.634 37.5787 19.8333C37.5787 10.0327 29.6337 2.08772 19.8331 2.08772ZM31.0098 8.65662C31.3861 9.03291 31.4539 9.71168 31.0098 10.1329L23.4304 17.7122C23.7977 18.3339 24.0085 19.059 24.0085 19.8333C24.0085 22.1394 22.1391 24.0088 19.8331 24.0088C17.527 24.0088 15.6576 22.1394 15.6576 19.8333C15.6576 17.5273 17.527 15.6579 19.8331 15.6579C20.6074 15.6579 21.3325 15.8687 21.9542 16.236L29.5335 8.65662C29.9412 8.24897 30.6021 8.24897 31.0098 8.65662ZM19.8331 17.7456C18.68 17.7456 17.7453 18.6803 17.7453 19.8333C17.7453 20.9864 18.68 21.9211 19.8331 21.9211C20.9861 21.9211 21.9208 20.9864 21.9208 19.8333C21.9208 18.6803 20.9861 17.7456 19.8331 17.7456ZM32.169 14.1715C32.9785 15.9325 33.4032 17.8539 33.4032 19.8333C33.4032 20.4098 32.9359 20.8772 32.3594 20.8772C31.7829 20.8772 31.3155 20.4098 31.3155 19.8333C31.3155 18.1565 30.9565 16.5323 30.2721 15.0435C30.0313 14.5197 30.2608 13.8998 30.7846 13.659C31.3084 13.4183 31.9282 13.6477 32.169 14.1715ZM19.8331 6.26316C21.8308 6.26316 23.7693 6.6958 25.5433 7.51973C26.0661 7.76258 26.2931 8.38331 26.0503 8.90617C25.8074 9.42904 25.1867 9.65604 24.6638 9.41319C23.164 8.71657 21.5254 8.35088 19.8331 8.35088C13.4915 8.35088 8.3506 13.4918 8.3506 19.8333C8.3506 20.4098 7.88324 20.8772 7.30674 20.8772C6.73023 20.8772 6.26288 20.4098 6.26288 19.8333C6.26288 12.3387 12.3385 6.26316 19.8331 6.26316Z" fill="#FD5D07"/>
</svg>
