<svg width="50" height="50" viewBox="0 0 50 50" fill="none" xmlns="http://www.w3.org/2000/svg">
<path d="M21.4033 14.2559H11.1084C10.7851 14.2559 10.5224 14.5186 10.5224 14.8418V28.6377C10.5224 28.9609 10.7851 29.2236 11.1084 29.2236H21.4043C21.7275 29.2236 21.9902 28.9609 21.9902 28.6377V14.8418C21.9892 14.5176 21.7275 14.2559 21.4033 14.2559ZM20.8174 28.0518H11.6933V15.4277H20.8174V28.0518ZM24.4707 14.8574C24.4707 14.5342 24.7334 14.2715 25.0566 14.2715H34.6084C34.9316 14.2715 35.1943 14.5342 35.1943 14.8574C35.1943 15.1807 34.9316 15.4434 34.6084 15.4434H25.0566C24.7324 15.4434 24.4707 15.1807 24.4707 14.8574ZM24.4707 19.4453C24.4707 19.1221 24.7334 18.8594 25.0566 18.8594H34.6084C34.9316 18.8594 35.1943 19.1221 35.1943 19.4453C35.1943 19.7686 34.9316 20.0312 34.6084 20.0312H25.0566C24.7324 20.0312 24.4707 19.7686 24.4707 19.4453ZM33.7353 24.0332C33.7353 24.3564 33.4726 24.6191 33.1494 24.6191H25.0556C24.7324 24.6191 24.4697 24.3564 24.4697 24.0332C24.4697 23.71 24.7324 23.4473 25.0556 23.4473H33.1494C33.4726 23.4473 33.7353 23.71 33.7353 24.0332ZM33.1621 28.6211C33.1621 28.9443 32.8994 29.207 32.5761 29.207H25.0556C24.7324 29.207 24.4697 28.9443 24.4697 28.6211C24.4697 28.2978 24.7324 28.0352 25.0556 28.0352H32.5761C32.8994 28.0352 33.1621 28.2978 33.1621 28.6211ZM10.7597 7.63281C11.8144 7.63281 12.6718 6.77539 12.6718 5.7207C12.6718 4.66602 11.8144 3.80859 10.7597 3.80859C9.70505 3.80859 8.84763 4.66699 8.84763 5.7207C8.84763 6.77441 9.70505 7.63281 10.7597 7.63281ZM10.7597 4.98047C11.1679 4.98047 11.5 5.3125 11.5 5.7207C11.5 6.12891 11.1679 6.46094 10.7597 6.46094C10.3515 6.46094 10.0195 6.12891 10.0195 5.7207C10.0195 5.3125 10.3515 4.98047 10.7597 4.98047ZM15.3613 7.63281C16.416 7.63281 17.2734 6.77539 17.2734 5.7207C17.2734 4.66602 16.416 3.80859 15.3613 3.80859C14.3066 3.80859 13.4492 4.66602 13.4492 5.7207C13.4492 6.77539 14.3066 7.63281 15.3613 7.63281ZM15.3613 4.98047C15.7695 4.98047 16.1015 5.3125 16.1015 5.7207C16.1015 6.12891 15.7695 6.46094 15.3613 6.46094C14.9531 6.46094 14.6211 6.12891 14.6211 5.7207C14.6211 5.3125 14.9531 4.98047 15.3613 4.98047ZM19.9629 7.63281C21.0175 7.63281 21.875 6.77539 21.875 5.7207C21.875 4.66602 21.0175 3.80859 19.9629 3.80859C18.9082 3.80859 18.0508 4.66602 18.0508 5.7207C18.0508 6.77539 18.9091 7.63281 19.9629 7.63281ZM19.9629 4.98047C20.3711 4.98047 20.7031 5.3125 20.7031 5.7207C20.7031 6.12891 20.3711 6.46094 19.9629 6.46094C19.5547 6.46094 19.2226 6.12891 19.2226 5.7207C19.2226 5.3125 19.5547 4.98047 19.9629 4.98047ZM46.6689 33.7646C46.4052 33.7646 46.1533 33.8223 45.9238 33.9238C45.7304 33.0986 44.9912 32.4824 44.1084 32.4824C43.8447 32.4824 43.5937 32.5391 43.3652 32.6406C43.1806 31.834 42.4736 31.2275 41.6201 31.1943C43.1289 30.2822 44.1064 28.6211 44.1064 26.8057C44.1064 24.1807 42.1201 22.0117 39.5722 21.7197V4.89551C39.5722 3.00391 38.0332 1.46484 36.1416 1.46484H9.57614C7.68454 1.46484 6.14548 3.00391 6.14548 4.89551V26.3623C4.20212 26.5303 2.67184 28.165 2.67184 30.1514V31.6182C1.9902 31.7178 1.46481 32.3037 1.46481 33.0107V38.1953C1.46481 38.9727 2.09665 39.6045 2.87399 39.6045H10.0761C10.8535 39.6045 11.4853 38.9727 11.4853 38.1953V34.6729H36.1416C36.4756 34.6729 36.8047 34.624 37.1201 34.5293V38.0332L35.7675 36.6084C34.9902 35.79 33.7822 35.6943 32.957 36.3877C32.124 37.0869 32.0097 38.3545 32.7021 39.2129L37.8496 45.5938V46.6992C37.8496 46.7295 37.8515 46.7598 37.8564 46.79C38.1103 48.4082 41.7295 48.5342 42.833 48.5342C43.9365 48.5342 47.5556 48.4082 47.8095 46.79C47.8144 46.7598 47.8164 46.7295 47.8164 46.6992V44.5195C47.8164 44.1162 47.9043 43.7803 48.1006 43.4287C48.3974 42.8994 48.5351 42.3711 48.5351 41.7637V35.6289C48.5351 34.6016 47.6982 33.7646 46.6689 33.7646ZM37.2158 27.4951C37.1318 27.2793 37.0869 27.0459 37.0869 26.8047C37.0869 25.7578 37.9384 24.9062 38.9853 24.9062C40.0322 24.9062 40.8838 25.7578 40.8838 26.8047C40.8838 27.0459 40.8388 27.2793 40.7549 27.4951C40.5068 26.7539 39.8086 26.2188 38.9853 26.2188C38.1621 26.2188 37.4638 26.7549 37.2158 27.4951ZM42.9336 26.8047C42.9336 28.2695 42.1074 29.6055 40.8515 30.2842V29.2412C41.6006 28.6641 42.0556 27.7598 42.0556 26.8047C42.0556 25.1113 40.6787 23.7344 38.9853 23.7344C37.292 23.7344 35.915 25.1113 35.915 26.8047C35.915 27.7598 36.3691 28.6641 37.1191 29.2412V30.2842C35.8633 29.6055 35.0371 28.2705 35.0371 26.8047C35.0371 24.6279 36.8086 22.8564 38.9853 22.8564C41.1621 22.8564 42.9336 24.627 42.9336 26.8047ZM9.57614 2.63672H36.1406C37.3867 2.63672 38.3994 3.65039 38.3994 4.89551V8.80469H7.31638V4.89551C7.31638 3.65039 8.33005 2.63672 9.57614 2.63672ZM6.1445 27.541V31.2422C6.1445 31.3633 6.15134 31.4834 6.16403 31.6025H3.84274V30.1523C3.84274 28.8125 4.8486 27.7041 6.1445 27.541ZM10.3125 38.1963C10.3125 38.3252 10.2041 38.4336 10.0752 38.4336H2.87399C2.74509 38.4336 2.63669 38.3252 2.63669 38.1963V33.0117C2.63669 32.8828 2.74509 32.7744 2.87399 32.7744H10.0761C10.205 32.7744 10.3134 32.8828 10.3134 33.0117V38.1963H10.3125ZM36.1406 33.501H11.4843V33.0107C11.4843 32.2334 10.8525 31.6016 10.0752 31.6016H7.34665C7.32712 31.4834 7.31735 31.3633 7.31735 31.2412V27.6572C8.35641 28.0088 9.10739 28.9932 9.10739 30.1504C9.10739 30.4736 9.37009 30.7363 9.69333 30.7363C10.0166 30.7363 10.2793 30.4736 10.2793 30.1504C10.2793 28.3428 9.01071 26.8262 7.31735 26.4414V9.97754H38.4004V21.7188C35.8525 22.0107 33.8662 24.1797 33.8662 26.8047C33.8662 28.9121 35.1836 30.8135 37.1201 31.5732V33.2754C36.8144 33.4238 36.4814 33.501 36.1406 33.501ZM47.3633 41.7656C47.3633 42.1689 47.2754 42.5059 47.0781 42.8574C46.7822 43.3857 46.6435 43.9141 46.6435 44.5205V46.6172C46.4785 46.8799 45.2041 47.3633 42.832 47.3633C40.4599 47.3633 39.1855 46.8799 39.0205 46.6172V45.3877C39.0205 45.2539 38.9746 45.124 38.8906 45.0195L33.6133 38.4775C33.3183 38.1123 33.3613 37.5771 33.709 37.2852C34.0527 36.9961 34.5722 37.0518 34.916 37.415L37.2793 39.9053C37.4443 40.0791 37.6982 40.1348 37.9218 40.0459C38.1445 39.957 38.291 39.7412 38.291 39.502V28.085C38.291 27.7021 38.6025 27.3906 38.9853 27.3906C39.3681 27.3906 39.6797 27.7021 39.6797 28.085V36.0195C39.6797 36.3428 39.9424 36.6055 40.2656 36.6055C40.5888 36.6055 40.8515 36.3428 40.8515 36.0195V33.0381C40.8515 33.0371 40.8515 33.0361 40.8515 33.0342C40.8633 32.6631 41.1738 32.3604 41.5459 32.3604C41.9287 32.3604 42.2402 32.6719 42.2402 33.0547V36.8096C42.2402 37.1328 42.5029 37.3955 42.8261 37.3955C43.1494 37.3955 43.4121 37.1328 43.4121 36.8096V34.3359C43.4121 34.335 43.4121 34.335 43.4121 34.334C43.4199 33.959 43.7314 33.6543 44.1064 33.6543C44.4892 33.6543 44.8008 33.9658 44.8008 34.3486V37.6025C44.8008 37.9258 45.0634 38.1885 45.3867 38.1885C45.7099 38.1885 45.9726 37.9258 45.9726 37.6025V35.6182C45.9726 35.6172 45.9726 35.6162 45.9726 35.6152C45.9814 35.2412 46.2929 34.9375 46.667 34.9375C47.0498 34.9375 47.3613 35.249 47.3613 35.6318V41.7656H47.3633ZM6.47458 33.5322C5.66306 33.5322 5.0029 34.1924 5.0029 35.0039C5.0029 35.6074 5.36813 36.126 5.88864 36.3535V37.0898C5.88864 37.4131 6.15134 37.6758 6.47458 37.6758C6.79782 37.6758 7.06052 37.4131 7.06052 37.0898V36.3535C7.58102 36.127 7.94626 35.6074 7.94626 35.0039C7.94626 34.1924 7.2861 33.5322 6.47458 33.5322ZM6.47458 34.7041C6.63962 34.7041 6.77438 34.8389 6.77438 35.0039C6.77438 35.1689 6.63962 35.3037 6.47458 35.3037C6.30954 35.3037 6.17477 35.1689 6.17477 35.0039C6.17477 34.8389 6.30954 34.7041 6.47458 34.7041Z" fill="#FD5D07"/>
</svg>
