<svg width="51" height="46" viewBox="0 0 51 46" fill="none" xmlns="http://www.w3.org/2000/svg">
<path d="M22.2656 16.75H0.78125C0.3125 16.75 0 16.3594 0 15.9688V10.9688C0 8.78125 1.79687 6.90625 4.0625 6.90625H24.9219C25.3906 6.90625 25.7031 7.29688 25.7031 7.6875C25.7031 8.07813 25.3125 8.46875 24.9219 8.46875H3.98438C2.65625 8.46875 1.5625 9.5625 1.5625 10.8906V15.1094H22.2656C22.7344 15.1094 23.0469 15.5 23.0469 15.8906C23.0469 16.2813 22.7344 16.75 22.2656 16.75Z" fill="#FD5D07"/>
<path d="M3.98437 45.6562C2.89062 45.6562 1.875 45.2656 1.17187 44.4844C0.390625 43.7031 0 42.6875 0 41.5938V15.8906C0 15.4219 0.390625 15.1094 0.78125 15.1094H22.2656C22.7344 15.1094 23.0469 15.5 23.0469 15.8906C23.0469 16.2812 22.6562 16.6719 22.2656 16.6719H1.5625V41.5156C1.5625 42.1406 1.79687 42.7656 2.26562 43.2344C2.73438 43.7031 3.35937 43.9375 3.98437 43.9375H40.625C41.9531 43.9375 43.0469 42.8438 43.0469 41.5156V25.8906C43.0469 25.4219 43.4375 25.1094 43.8281 25.1094C44.2187 25.1094 44.6094 25.5 44.6094 25.8906V41.5156C44.6094 43.7031 42.8125 45.5781 40.5469 45.5781H3.98437V45.6562Z" fill="#FD5D07"/>
<path d="M7.03125 12.6094H5.3125C4.84375 12.6094 4.53125 12.2188 4.53125 11.8281C4.53125 11.4375 4.92188 11.0469 5.3125 11.0469H7.03125C7.5 11.0469 7.8125 11.4375 7.8125 11.8281C7.8125 12.2188 7.5 12.6094 7.03125 12.6094Z" fill="#FD5D07"/>
<path d="M10.8594 12.6094H9.14062C8.67187 12.6094 8.35938 12.2188 8.35938 11.8281C8.35938 11.4375 8.75 11.0469 9.14062 11.0469H10.8594C11.3281 11.0469 11.6406 11.4375 11.6406 11.8281C11.6406 12.2188 11.3281 12.6094 10.8594 12.6094Z" fill="#FD5D07"/>
<path d="M14.6875 12.6094H12.9688C12.5 12.6094 12.1875 12.2188 12.1875 11.8281C12.1875 11.4375 12.5781 11.0469 12.9688 11.0469H14.6875C15.1562 11.0469 15.4687 11.4375 15.4687 11.8281C15.4687 12.2188 15.1562 12.6094 14.6875 12.6094Z" fill="#FD5D07"/>
<path d="M19.2188 30.8906H7.8125C6.48437 30.8906 5.39062 29.7969 5.39062 28.4687V21.6719C5.39062 20.3437 6.48437 19.25 7.8125 19.25H19.2188C20.5469 19.25 21.6406 20.3437 21.6406 21.6719V28.4687C21.6406 29.7969 20.5469 30.8906 19.2188 30.8906ZM19.2188 20.8125H7.8125C7.34375 20.8125 7.03125 21.2031 7.03125 21.5938V28.4687C7.03125 28.9375 7.42187 29.25 7.8125 29.25H19.2188C19.6875 29.25 20 28.8594 20 28.4687V21.6719C20 21.2031 19.6094 20.8125 19.2188 20.8125Z" fill="#FD5D07"/>
<path d="M27.4219 26.0469H26.5625C26.0937 26.0469 25.7812 25.6562 25.7812 25.2656C25.7812 24.875 26.1719 24.4844 26.5625 24.4844H27.4219C27.8906 24.4844 28.2031 24.875 28.2031 25.2656C28.2031 25.6562 27.8125 26.0469 27.4219 26.0469Z" fill="#FD5D07"/>
<path d="M38.9062 31.2031H26.5625C26.0937 31.2031 25.7812 30.8125 25.7812 30.4219C25.7812 30.0312 26.1719 29.6406 26.5625 29.6406H38.9062C39.375 29.6406 39.6875 30.0312 39.6875 30.4219C39.6875 30.8125 39.2969 31.2031 38.9062 31.2031Z" fill="#FD5D07"/>
<path d="M38.9062 36.3594H5.78125C5.3125 36.3594 5 35.9688 5 35.5781C5 35.1875 5.39063 34.7969 5.78125 34.7969H38.9062C39.375 34.7969 39.6875 35.1875 39.6875 35.5781C39.6875 35.9688 39.2969 36.3594 38.9062 36.3594Z" fill="#FD5D07"/>
<path d="M38.9062 41.5156H5.78125C5.3125 41.5156 5 41.125 5 40.7344C5 40.3438 5.39063 39.9531 5.78125 39.9531H38.9062C39.375 39.9531 39.6875 40.3438 39.6875 40.7344C39.6875 41.125 39.2969 41.5156 38.9062 41.5156Z" fill="#FD5D07"/>
<path d="M37.8125 26.3594H36.5625C35.5469 26.3594 34.6875 25.5781 34.5313 24.6406L34.2187 22.6875C34.2187 22.5312 34.0625 22.4531 33.9844 22.375C33.6719 22.2969 33.4375 22.1406 33.125 22.0625C32.9688 21.9844 32.8906 21.9844 32.7344 22.0625L31.1719 23.2344C30.3906 23.7812 29.2188 23.7031 28.5156 23L27.5781 22.0625C26.875 21.3594 26.7969 20.2656 27.3438 19.4062L28.5156 17.8437C28.5938 17.6875 28.5938 17.5312 28.5156 17.4531C28.3594 17.2187 28.2812 16.9062 28.125 16.5937C28.0469 16.4375 27.9687 16.3594 27.8125 16.3594L25.9375 16.0469C24.9219 15.8906 24.2188 15.0312 24.2188 14.0156V12.6875C24.2188 11.6719 24.9219 10.8125 25.9375 10.6562L27.8125 10.3437C27.9687 10.3437 28.0469 10.1875 28.125 10.1094C28.2031 9.79687 28.3594 9.5625 28.5156 9.25C28.5938 9.09375 28.5938 8.9375 28.5156 8.85937L27.3438 7.29687C26.7188 6.51562 26.875 5.42187 27.5 4.64062L28.4375 3.70312C29.1406 3 30.3125 2.92187 31.0937 3.54687L32.5781 4.71875C32.7344 4.875 32.8906 4.79688 32.9688 4.71875C33.2813 4.5625 33.5156 4.48438 33.8281 4.32812C33.9844 4.25 34.0625 4.17187 34.1406 4.01562L34.4531 2.0625C34.6875 1.125 35.5469 0.34375 36.5625 0.34375H37.8125C38.8281 0.34375 39.6875 1.125 39.8438 2.0625L40.1563 4.01562C40.1563 4.17187 40.3125 4.25 40.3906 4.32812C40.7031 4.40625 40.9375 4.5625 41.25 4.64062C41.4062 4.71875 41.4844 4.71875 41.6406 4.64062L43.2031 3.46875C43.9844 2.84375 45.1562 3 45.8594 3.70312L46.7969 4.64062C47.5 5.34375 47.5781 6.4375 47.0312 7.29687L45.8594 8.85937C45.7812 9.01562 45.7812 9.17187 45.8594 9.25C46.0156 9.48437 46.0938 9.79687 46.25 10.1094C46.3281 10.2656 46.4062 10.3437 46.5625 10.3437L48.4375 10.6562C49.4531 10.8125 50.1562 11.6719 50.1562 12.6875V14.0156C50.1562 15.0312 49.4531 15.8906 48.4375 16.0469L46.5625 16.3594C46.4062 16.3594 46.3281 16.5156 46.25 16.5937C46.1719 16.9062 46.0156 17.1406 45.9375 17.4531C45.8594 17.6094 45.8594 17.7656 45.9375 17.9219L47.1094 19.4844C47.6562 20.2656 47.5781 21.3594 46.9531 22.1406L45.7812 23C45.0781 23.7031 43.9062 23.7812 43.125 23.1562L41.6406 21.9844C41.4844 21.8281 41.3281 21.9062 41.25 21.9844C40.9375 22.1406 40.7031 22.2187 40.3906 22.375C40.2344 22.4531 40.1563 22.5312 40.1563 22.6875L39.8438 24.6406C39.6875 25.5781 38.8281 26.3594 37.8125 26.3594ZM32.8906 20.3437C33.2031 20.3437 33.5156 20.4219 33.75 20.5781C33.9844 20.6562 34.2187 20.8125 34.4531 20.8906C35.1562 21.125 35.625 21.75 35.7812 22.4531L36.0938 24.4062C36.0938 24.6406 36.3281 24.7969 36.4844 24.7969H37.7344C37.9687 24.7969 38.125 24.6406 38.125 24.4844L38.4375 22.5312C38.5156 21.8281 39.0625 21.2031 39.7656 20.9687C40 20.8906 40.2344 20.8125 40.4688 20.6562C41.0938 20.3437 41.9531 20.4219 42.5781 20.8906L44.1406 22.0625C44.375 22.2187 44.5312 22.1406 44.6875 21.9844L45.625 21.0469C45.7813 20.8906 45.7813 20.6562 45.625 20.5L44.4531 18.9375C43.9844 18.3125 43.9062 17.5312 44.2187 16.9062C44.2969 16.6719 44.4531 16.4375 44.5312 16.2031C44.7656 15.5 45.3906 14.9531 46.0938 14.875L47.9688 14.5625C48.2031 14.5625 48.2812 14.3281 48.2812 14.1719V12.8437C48.2812 12.6094 48.125 12.4531 47.9688 12.4531L46.0938 12.1406C45.3906 12.0625 44.7656 11.5156 44.5312 10.8125C44.4531 10.5781 44.375 10.3437 44.2187 10.1094C43.9062 9.40625 43.9844 8.625 44.375 8L45.5469 6.4375C45.7031 6.28125 45.625 6.04688 45.5469 5.89062L44.6094 4.95312C44.5312 4.875 44.375 4.79687 44.2969 4.79687C44.2188 4.79687 44.1406 4.79688 44.0625 4.875L42.5781 6.04687C42.0312 6.51562 41.1719 6.59375 40.4688 6.28125C40.2344 6.20312 40 6.04687 39.7656 5.96875C39.0625 5.73437 38.5938 5.10937 38.4375 4.40625L38.125 2.45312C38.125 2.21875 37.8906 2.0625 37.7344 2.0625H36.4844C36.25 2.0625 36.0938 2.21875 36.0938 2.375L35.8594 4.25C35.7813 4.95312 35.2344 5.57812 34.5313 5.8125C34.2969 5.89062 34.0625 5.96875 33.8281 6.125C33.2031 6.4375 32.3437 6.35938 31.7187 5.89062L30.1562 4.71875C29.9219 4.48438 29.7656 4.64062 29.6094 4.79687L28.6719 5.73437C28.5156 5.89062 28.5156 6.125 28.6719 6.28125L29.8438 7.84375C30.2344 8.46875 30.3125 9.25 30 9.875C29.9219 10.1094 29.7656 10.3438 29.6875 10.5781C29.4531 11.2812 28.8281 11.8281 28.125 11.9062L26.25 12.2188C26.0156 12.2188 25.9375 12.4531 25.9375 12.6094V13.9375C25.9375 14.1719 26.0937 14.3281 26.25 14.3281L28.125 14.6406C28.8281 14.7187 29.4531 15.2656 29.6875 15.9687C29.7656 16.2031 29.8438 16.4375 30 16.6719C30.3125 17.375 30.2344 18.1562 29.7656 18.7812L28.5937 20.3437C28.4375 20.5 28.5156 20.7344 28.5937 20.8906L29.5312 21.8281C29.6875 21.9844 29.8438 22.0625 30.0781 21.9062L31.6406 20.7344C32.0312 20.5 32.5 20.3437 32.8906 20.3437Z" fill="#FD5D07"/>
<path d="M37.1875 18.5469C34.2969 18.5469 31.9531 16.2031 31.9531 13.3125C31.9531 10.4219 34.2969 8.07812 37.1875 8.07812C40.0781 8.07812 42.4219 10.4219 42.4219 13.3125C42.4219 16.2031 40.0781 18.5469 37.1875 18.5469ZM37.1875 9.71875C35.1562 9.71875 33.5937 11.3594 33.5937 13.3125C33.5937 15.3438 35.2344 16.9062 37.1875 16.9062C39.1406 16.9062 40.7812 15.2656 40.7812 13.3125C40.7812 11.3594 39.1406 9.71875 37.1875 9.71875Z" fill="#FD5D07"/>
</svg>
