<svg width="384" height="482" viewBox="0 0 384 482" fill="none" xmlns="http://www.w3.org/2000/svg">
<g clip-path="url(#clip0_73_2100)">
<g opacity="0.2">
<path d="M244.975 482C314.946 482 371.669 473.738 371.669 463.547C371.669 453.355 314.946 445.094 244.975 445.094C175.005 445.094 118.282 453.355 118.282 463.547C118.282 473.738 175.005 482 244.975 482Z" fill="#371A45"/>
</g>
<path d="M62.0735 218.053C62.1815 217.576 62.2124 217.314 62.2124 217.314C62.2124 217.314 62.1352 217.576 62.0735 218.053Z" fill="#D8D8D8"/>
<path d="M254.945 218.268L253.803 234.136L253.217 242.216L243.139 381.531C243.139 381.531 252.707 381.685 265.548 380.838C268.064 380.669 270.703 380.484 273.419 380.238C293.652 378.422 318.222 374.066 327.544 363.693C341.481 348.179 343.811 272.443 331.356 242.416C325.661 228.641 296.677 222.654 276.089 220.1C273.79 219.807 271.598 219.561 269.545 219.361C260.918 218.468 254.945 218.268 254.945 218.268Z" fill="white"/>
<path d="M253.803 234.12L253.217 242.2L245.207 352.812L243.123 381.515C243.123 381.515 243.324 381.515 243.71 381.515C243.818 381.515 243.941 381.515 244.08 381.515C244.188 381.515 244.312 381.515 244.435 381.515C244.528 381.515 244.62 381.515 244.713 381.515C244.744 381.515 244.79 381.515 244.821 381.515C244.991 381.515 245.191 381.515 245.392 381.515C245.438 381.515 245.485 381.515 245.531 381.515C245.701 381.515 245.87 381.515 246.056 381.515C246.303 381.515 246.565 381.515 246.843 381.515C247.043 381.515 247.244 381.515 247.445 381.515C247.661 381.515 247.877 381.515 248.093 381.515C248.371 381.515 248.664 381.5 248.973 381.5C249.59 381.484 250.223 381.484 250.917 381.454C251.519 381.454 252.152 381.423 252.815 381.408C253.572 381.392 254.374 381.361 255.208 381.331C258.264 381.223 261.767 381.069 265.548 380.823C266.289 380.777 267.03 380.715 267.801 380.669C268.326 380.638 268.866 380.592 269.406 380.546C270.718 380.438 272.061 380.33 273.419 380.207C293.668 378.391 318.223 374.035 327.544 363.662C339.027 350.888 342.638 297.283 336.604 261.977C337.638 292.681 333.471 325.478 324.813 335.113C320.538 339.869 304.07 322.446 304.579 312.612C305.876 287.279 302.511 254.559 279.515 234.644C278.883 234.136 265.162 235.567 253.803 234.12Z" fill="#D8D8D8"/>
<path d="M245.392 384.316C244.142 384.316 243.355 384.301 243.092 384.301L240.129 384.255L252.352 215.375L255.053 215.467C255.223 215.467 272.308 216.098 290.288 219.407C315.136 223.978 329.828 231.35 333.965 241.323C346.944 272.643 344.274 349.257 329.643 365.54C313.623 383.331 257.662 384.316 245.392 384.316ZM257.538 221.177L246.133 378.73C259.189 378.653 311.463 377.344 325.445 361.815C331.372 355.213 335.739 334.251 336.542 308.395C337.375 281.908 334.397 257.021 328.764 243.462C322.235 227.703 277.478 222.193 257.538 221.177Z" fill="#371A45"/>
<path d="M333.903 306.533L306.401 307.872C303.947 307.995 301.879 309.749 301.369 312.15C299.533 320.938 296.353 341.469 304.795 348.487C311.802 354.32 323.424 353.951 330.384 348.395C338.163 342.177 339.428 322 339.567 311.996C339.613 308.872 337.021 306.379 333.903 306.533Z" fill="white"/>
<path d="M301.369 312.15C299.533 320.938 296.353 341.454 304.795 348.487C311.802 354.32 323.424 353.966 330.384 348.395C335.169 344.563 337.484 335.452 338.595 326.694C337.237 331.05 335.215 334.574 332.73 336.852C318.547 349.903 308.623 333.82 308.623 333.82C308.623 333.82 306.725 337.606 305.289 337.791C299.286 338.545 301.014 319.923 302.125 310.319C301.786 310.842 301.508 311.458 301.369 312.15Z" fill="#D8D8D8"/>
<path d="M317.374 355.505C312.111 355.505 306.91 353.874 302.99 350.627C293.714 342.901 296.261 322.847 298.622 311.581C299.378 307.933 302.527 305.271 306.246 305.086L333.749 303.747C336.017 303.624 338.224 304.471 339.845 306.025C341.465 307.579 342.376 309.78 342.345 312.027C342.144 326.033 340.215 344.086 332.113 350.565C328.007 353.859 322.667 355.505 317.374 355.505ZM334.165 309.319C334.119 309.319 334.073 309.319 334.026 309.319L306.524 310.657C305.336 310.719 304.348 311.566 304.101 312.704C300.582 329.542 301.508 342.116 306.57 346.333C312.373 351.165 322.467 351.119 328.609 346.21C333.471 342.331 336.511 329.511 336.758 311.95C336.774 311.227 336.48 310.55 335.971 310.057C335.477 309.565 334.844 309.319 334.165 309.319Z" fill="#371A45"/>
<path d="M317.158 354.859C306.277 347.256 305.984 332.189 308.33 320.399C308.515 319.599 308.7 318.86 309.04 317.999C309.194 317.614 309.626 317.429 309.997 317.583C310.352 317.722 310.537 318.106 310.429 318.476C309.148 324.339 309.518 330.788 310.598 336.667C311.771 341.931 314.302 346.994 318.763 350.088C319.01 350.257 319.349 350.457 319.457 350.503C322.76 352.012 320.26 356.721 317.158 354.859Z" fill="#371A45"/>
<path d="M289.779 237.768C299.98 236.721 310.166 236.075 320.429 236.475C323.887 236.644 327.344 236.906 330.909 237.599C332.421 237.891 333.424 239.369 333.116 240.877C332.807 242.462 331.202 243.462 329.643 243.047C320.105 240.692 309.904 240.538 300.057 240.446C296.708 240.446 293.328 240.507 289.979 240.646C288.174 240.677 287.942 238.014 289.779 237.768Z" fill="#371A45"/>
<path d="M188.427 221.439L186.729 238.738L186.297 243.109L183.133 275.475C166.311 291.619 137.79 305.702 115.751 299.915C85.4087 291.943 72.0125 240.323 72.0125 240.323C50.7297 239.646 33.1665 219.915 45.6984 213.39C49.6957 211.296 56.7488 210.573 67.7065 212.204C75.9943 213.651 89.9153 207.803 96.1967 211.066C96.9067 211.435 97.6166 211.85 98.3265 212.343C106.367 217.807 114.655 230.442 126.338 247.741C131.184 248.957 147.806 238.322 163.641 230.211C173.102 225.379 182.238 221.439 188.427 221.439Z" fill="white"/>
<g opacity="0.2">
<path d="M188.427 221.439L186.729 238.738L186.297 243.109C177.886 239.692 170.262 235.336 163.672 230.211C173.102 225.379 182.238 221.439 188.427 221.439Z" fill="#371A45"/>
</g>
<path d="M295.011 231.243C285.766 238.137 274.608 243.57 262.184 247.033L248.741 217.437C266.984 220.962 282.324 225.717 295.011 231.243Z" fill="#D8D8D8"/>
<path d="M279.824 240.415C265.456 247.356 248.371 251.373 230.02 251.373C208.398 251.373 188.504 245.771 172.762 236.398C173.889 235.059 175.247 233.028 175.772 230.519C179.676 212.097 190.079 166.787 229.835 174.867C272.416 183.516 278.867 227.918 279.824 240.415Z" fill="#D8D8D8"/>
<path d="M98.3574 212.343C91.613 215.39 81.7664 217.314 70.7778 217.314C61.101 217.314 52.2885 215.821 45.7139 213.374C49.7111 211.281 56.7642 210.542 67.722 212.189C75.9943 213.636 89.9307 207.787 96.2122 211.05C96.9375 211.435 97.6475 211.85 98.3574 212.343Z" fill="#D8D8D8"/>
<g opacity="0.2">
<path d="M186.729 238.738L183.133 275.475C166.311 291.604 137.774 305.702 115.751 299.915C85.4241 291.943 72.0125 240.323 72.0125 240.323C72.0125 240.323 93.4495 282.724 122.403 283.447C156.619 284.293 153.439 245.571 170.262 239.446C175.355 237.583 181.142 237.66 186.729 238.738Z" fill="#371A45"/>
</g>
<path d="M126.678 304.039C122.711 304.039 118.807 303.578 115.041 302.593C86.5818 295.113 72.7225 252.804 69.8673 242.97C56.0235 241.785 44.0471 233.289 40.1579 225.317C38.1361 221.162 38.2596 217.191 40.4974 214.128C44.4021 208.834 53.693 207.264 68.1388 209.419C71.4415 209.988 76.087 209.219 80.5781 208.449C87.0756 207.356 93.2181 206.325 97.5241 208.557C106.445 213.205 115.01 225.871 126.848 243.416L127.913 245.001C131.539 244.478 141.602 238.953 149.118 234.813C162.931 227.225 178.596 218.622 188.412 218.622C189.955 218.622 191.221 219.869 191.221 221.423C191.221 222.978 189.971 224.224 188.412 224.224C180.016 224.224 164.382 232.812 151.819 239.722C137.636 247.51 130.042 251.527 125.675 250.434C125.011 250.265 124.425 249.865 124.039 249.28L122.187 246.541C110.797 229.688 102.586 217.499 94.9158 213.512C92.2767 212.143 86.5509 213.097 81.5041 213.959C76.5346 214.79 71.4107 215.652 67.2282 214.928C50.2051 212.374 45.8991 216.19 45.004 217.422C43.7848 219.084 44.4175 221.3 45.1892 222.855C48.4765 229.58 59.6967 237.091 72.1052 237.491C73.3398 237.537 74.4202 238.384 74.7289 239.584C74.8523 240.092 88.0788 289.711 116.461 297.175C137.049 302.593 164.598 289.326 181.189 273.428C182.3 272.366 184.075 272.397 185.155 273.505C186.236 274.613 186.189 276.383 185.078 277.46C170.648 291.312 147.667 304.039 126.678 304.039Z" fill="#371A45"/>
<path d="M224.758 328.788C225.313 337.145 226.455 362.631 227.69 388.518C229.187 419.792 230.838 451.65 231.842 454.513C234.836 463.101 242.63 463.855 242.63 463.855H273.172C273.172 463.855 282.51 463.839 286.615 458.884C293.359 450.742 286.507 441.892 286.507 441.892C286.507 441.892 287.016 404.986 287.356 371.219C287.495 356.706 287.603 342.762 287.618 332.574L224.758 328.788Z" fill="white"/>
<g opacity="0.2">
<path d="M224.758 328.788C225.313 337.145 226.455 362.631 227.69 388.518C251.102 390.011 270.101 377.929 287.356 371.219C287.495 356.706 287.603 342.762 287.618 332.574L224.758 328.788Z" fill="#371A45"/>
</g>
<g opacity="0.2">
<path d="M230.792 445.109C231.178 450.28 231.533 453.681 231.826 454.528C234.82 463.116 242.614 463.87 242.614 463.87H273.172C273.172 463.87 282.51 463.855 286.615 458.899C289.979 454.836 289.964 450.588 289.084 447.371C289.084 447.371 289.084 447.387 289.069 447.387C284.624 452.743 274.5 452.758 274.5 452.758H241.41C241.41 452.758 234.511 452.096 230.792 445.109Z" fill="#371A45"/>
</g>
<path d="M273.172 466.656H242.63C242.537 466.656 242.444 466.656 242.367 466.64C241.981 466.609 232.737 465.609 229.202 455.436C228.045 452.112 226.563 424.424 223.893 367.479C223.075 350.042 222.365 334.974 221.964 328.972C221.856 327.433 223.029 326.094 224.572 326.002C226.1 325.925 227.459 327.064 227.551 328.603C227.952 334.667 228.662 349.749 229.48 367.233C231.024 400.061 233.339 449.664 234.496 453.651C236.672 459.899 241.951 460.946 242.815 461.084H273.172C275.395 461.069 281.784 460.345 284.454 457.129C289.717 450.788 284.516 443.924 284.285 443.631C283.899 443.139 283.698 442.508 283.698 441.877C283.713 441.123 284.763 366.048 284.825 332.589C284.825 331.05 286.075 329.803 287.634 329.803C289.177 329.803 290.427 331.065 290.427 332.604C290.365 364.093 289.439 432.35 289.316 441.046C292.017 445.124 294.795 453.42 288.776 460.684C283.96 466.471 274.268 466.656 273.172 466.656Z" fill="#371A45"/>
<path d="M157.005 444.94C153.439 449.357 152.961 455.728 157.838 460.207C162.73 464.686 181.142 463.778 181.142 463.778H207.781C207.781 463.778 215.575 463.024 218.569 454.436C220.884 447.772 219.51 420.253 220.343 388.826C220.513 382.146 220.791 375.313 221.223 368.449L154.242 335.913C155.276 348.164 156.418 360.153 157.576 371.404C161.527 409.972 165.524 439.568 165.524 439.568C165.524 439.568 160.06 441.154 157.005 444.94Z" fill="white"/>
<g opacity="0.2">
<path d="M157.838 460.222C162.731 464.701 181.143 463.793 181.143 463.793H207.781C207.781 463.793 215.575 463.039 218.569 454.451C218.939 453.374 219.232 451.758 219.433 449.649C216.022 452.281 212.565 452.619 212.565 452.619H182.454C182.454 452.619 161.65 453.651 156.11 448.587C155.816 448.31 155.539 448.049 155.276 447.756C153.455 451.788 153.918 456.621 157.838 460.222Z" fill="#371A45"/>
</g>
<g opacity="0.2">
<path d="M154.242 335.913C155.276 348.164 156.418 360.153 157.576 371.404C162.067 372.958 167.16 375.082 172.716 377.991C192.177 388.226 212.874 388.949 220.343 388.826C220.513 382.146 220.791 375.313 221.223 368.449L154.242 335.913Z" fill="#371A45"/>
</g>
<path d="M176.867 466.671C170.586 466.671 160.091 466.071 155.94 462.269C150.43 457.221 149.951 449.187 154.813 443.185C157.051 440.415 160.292 438.66 162.468 437.721C161.125 427.517 155.477 383.47 151.464 336.144C151.341 334.605 152.483 333.251 154.026 333.127C155.569 332.989 156.927 334.143 157.051 335.682C161.604 389.303 168.256 438.691 168.317 439.183C168.503 440.553 167.654 441.846 166.326 442.246C166.28 442.262 161.635 443.662 159.181 446.694C156.65 449.818 155.847 454.589 159.736 458.16C162.514 460.699 173.827 461.346 181.004 460.992C181.05 460.992 181.096 460.992 181.143 460.992H207.611C208.413 460.869 213.723 459.838 215.93 453.527C217.226 449.788 217.241 436.675 217.241 421.5C217.241 406.263 217.241 387.302 218.445 368.295C218.538 366.756 219.865 365.586 221.424 365.678C222.967 365.771 224.14 367.094 224.048 368.649C222.859 387.471 222.859 406.34 222.859 421.5C222.859 439.107 222.859 450.742 221.239 455.374C217.689 465.547 208.46 466.548 208.074 466.579C207.981 466.594 207.889 466.594 207.812 466.594H181.251C180.386 466.625 178.843 466.671 176.867 466.671Z" fill="#371A45"/>
<path d="M295.504 326.633C295.427 328.834 295.288 330.988 295.088 333.035C294.563 338.253 293.56 342.916 292.001 346.764C275.333 387.902 192.208 394.274 161.172 361.661C154.489 354.659 150.523 345.625 148.609 335.544C148.069 332.65 147.683 329.68 147.451 326.633C147.235 323.847 147.158 321.015 147.189 318.137C147.528 289.634 159.304 257.437 171.064 238.137C171.064 238.137 174.815 235.105 175.787 230.519C179.692 212.097 190.094 166.787 229.851 174.867C274.777 183.993 279.454 232.92 279.948 242.17C279.994 243.139 279.994 243.678 279.994 243.678C283.358 252.45 286.831 264.07 289.64 276.567C292.572 289.619 294.795 303.608 295.396 316.259C295.566 319.845 295.612 323.324 295.504 326.633Z" fill="white"/>
<g opacity="0.2">
<path d="M295.504 326.633C295.427 328.834 295.288 330.988 295.088 333.035C286.368 337.529 272.894 338.437 266.227 338.607C265.07 338.637 264.02 339.084 263.233 339.822C262.446 340.561 261.906 341.577 261.798 342.716C261.412 346.764 258.001 349.842 253.927 349.826C235.283 349.749 186.39 349.395 179.815 348.01C171.651 346.286 172.855 336.544 172.855 336.544C164.999 337.745 156.079 336.867 148.624 335.544C148.084 332.65 147.698 329.68 147.467 326.633C147.251 323.847 147.173 321.015 147.204 318.137L265.101 316.644C265.101 316.644 303.746 313.104 279.5 282.2C283.158 279.03 286.553 277.275 289.64 276.567C292.572 289.619 294.794 303.608 295.396 316.259C295.566 319.845 295.612 323.324 295.504 326.633Z" fill="#371A45"/>
</g>
<g opacity="0.2">
<path d="M291.893 346.994C275.009 387.918 192.131 394.212 161.172 361.662C155.322 355.521 151.541 347.841 149.411 339.238C151.479 343.147 154.026 346.748 157.082 349.965C187.347 381.762 262.894 379.684 291.893 346.994Z" fill="#371A45"/>
</g>
<g opacity="0.2">
<path d="M279.824 240.415C265.456 247.356 248.371 251.373 230.02 251.373C208.398 251.373 188.504 245.771 172.762 236.398C173.889 235.059 175.247 233.028 175.772 230.519C179.676 212.097 190.079 166.787 229.835 174.867C272.416 183.516 278.867 227.918 279.824 240.415Z" fill="#371A45"/>
</g>
<path d="M281.306 243.17C286.214 253.02 289.424 263.547 292.017 274.151C294.609 284.801 296.631 295.575 297.773 306.487C299.023 320.292 299.764 334.821 294.548 348.041C292.325 353.366 288.868 358.106 284.639 362C282.54 363.909 280.241 365.632 277.71 366.941C277.015 367.295 276.151 367.018 275.796 366.325C275.503 365.771 275.626 365.109 276.058 364.678C279.762 360.907 283.003 356.875 285.781 352.55C291.631 343.901 292.449 333.189 292.464 323.001C292.279 307.01 289.81 291.05 286.445 275.429C284.115 264.948 281.445 254.574 278.682 244.155C278.265 242.631 280.503 241.616 281.306 243.17Z" fill="#371A45"/>
<path d="M196.622 378.483C204.061 379.007 211.361 379.545 218.785 379.638C225.205 379.776 234.481 379.422 240.993 379.191C242.599 379.13 243.015 381.423 241.503 381.946C234.187 384.409 226.409 385.301 218.708 385.24C211.006 385.101 203.243 383.993 196.02 381.238C194.508 380.638 195.017 378.376 196.622 378.483Z" fill="#371A45"/>
<path d="M172.253 238.861C157.776 269.272 143.099 311.966 153.748 345.209C155.693 350.78 158.394 356.075 162.175 360.707C162.669 361.308 162.591 362.2 161.974 362.693C161.419 363.139 160.647 363.093 160.138 362.631C155.955 358.799 152.606 354.012 150.214 348.841C138.994 324.463 145.399 291.081 154.489 266.856C158.378 256.483 163.224 246.371 169.861 237.414C170.864 236.121 172.994 237.26 172.253 238.861Z" fill="#371A45"/>
<path d="M194.323 414.066C183.396 414.066 170.771 412.697 159.968 407.941C158.548 407.31 157.915 405.663 158.533 404.263C159.165 402.847 160.817 402.216 162.221 402.831C185.371 413.035 219.14 406.202 219.479 406.125C220.992 405.817 222.473 406.787 222.797 408.295C223.106 409.803 222.149 411.281 220.621 411.604C219.819 411.758 208.491 414.066 194.323 414.066Z" fill="#371A45"/>
<path d="M254.992 409.449C246.982 409.449 237.799 408.71 227.752 406.633C226.239 406.325 225.267 404.847 225.575 403.324C225.884 401.815 227.381 400.83 228.894 401.154C262.014 407.987 285.828 399.507 286.059 399.414C287.51 398.876 289.115 399.63 289.655 401.077C290.195 402.523 289.455 404.124 288.004 404.663C287.278 404.924 274.7 409.449 254.992 409.449Z" fill="#371A45"/>
<path d="M284.701 444.047C282.432 442.139 279.376 441.477 276.444 440.923C273.188 440.369 269.792 440.153 266.381 440.076C259.544 439.938 252.615 440.338 245.701 440.846C244.929 440.907 244.25 440.322 244.188 439.553C244.126 438.814 244.667 438.168 245.392 438.06C255.84 436.66 266.443 435.136 277.108 436.075C281.059 436.536 284.871 437.183 288.312 439.753C291.245 442.215 287.649 446.525 284.701 444.047Z" fill="#371A45"/>
<path d="M164.876 436.844C172.114 435.659 179.229 436.259 186.328 437.429C188.026 437.737 187.748 440.276 186.02 440.215C179.399 439.999 172.438 440.338 166.188 442.277C162.36 443.324 160.986 437.66 164.876 436.844Z" fill="#371A45"/>
<path d="M113.282 301.238C112.819 301.238 112.356 301.084 111.97 300.792C111.059 300.069 110.905 298.761 111.63 297.852C129.657 275.198 124.363 248.449 124.301 248.187C124.07 247.048 124.795 245.94 125.937 245.709C127.064 245.479 128.19 246.202 128.422 247.325C128.669 248.495 134.209 276.229 114.918 300.453C114.516 300.961 113.899 301.238 113.282 301.238Z" fill="#371A45"/>
<path d="M174.861 331.619C174.861 331.619 154.273 332.989 147.513 327.51C141.494 322.631 140.661 314.49 147.559 310.273C147.559 310.273 155.94 314.69 176.79 312.797" fill="white"/>
<g opacity="0.2">
<path d="M176.79 312.797L174.861 331.619C174.861 331.619 154.273 332.989 147.513 327.51C143.778 324.493 142.049 320.23 142.898 316.413C143.701 317.86 144.843 319.199 146.278 320.353C153.038 325.832 173.611 324.463 173.611 324.463L174.799 312.951C175.463 312.92 176.111 312.858 176.79 312.797Z" fill="#371A45"/>
</g>
<path d="M169.074 334.59C162.051 334.59 150.924 333.866 145.754 329.68C141.803 326.479 139.627 321.954 139.92 317.568C140.182 313.612 142.374 310.165 146.109 307.887C146.957 307.364 148.007 307.333 148.887 307.795C148.948 307.826 157.051 311.781 176.559 310.011C178.118 309.873 179.46 311.011 179.599 312.535C179.738 314.074 178.596 315.429 177.068 315.567C160.554 317.06 151.433 314.69 147.945 313.428C146.479 314.659 145.646 316.183 145.522 317.922C145.352 320.507 146.772 323.278 149.303 325.325C153.594 328.803 167.16 329.311 174.691 328.818C176.235 328.711 177.577 329.88 177.67 331.419C177.778 332.958 176.605 334.297 175.062 334.39C174.383 334.451 172.114 334.59 169.074 334.59Z" fill="#371A45"/>
<path d="M247.985 348.01H185.834C182.516 348.01 179.784 345.301 179.784 341.977V302.069C179.784 298.76 182.501 296.036 185.834 296.036H247.985C251.303 296.036 254.035 298.745 254.035 302.069V341.977C254.035 345.301 251.319 348.01 247.985 348.01Z" fill="white"/>
<g opacity="0.2">
<path d="M254.035 328.787V341.992C254.035 345.317 251.318 348.026 247.985 348.026H185.834C182.516 348.026 179.8 345.317 179.8 341.992V302.085C179.8 298.76 182.516 296.052 185.834 296.052H193.443V322.754C193.443 326.079 196.159 328.787 199.493 328.787H254.035Z" fill="#371A45"/>
</g>
<path d="M247.985 350.811H185.834C180.957 350.811 176.991 346.856 176.991 341.992V302.085C176.991 297.221 180.957 293.266 185.834 293.266H247.985C252.862 293.266 256.828 297.221 256.828 302.085V341.992C256.828 346.856 252.862 350.811 247.985 350.811ZM185.85 298.837C184.059 298.837 182.609 300.284 182.609 302.069V341.977C182.609 343.762 184.059 345.209 185.85 345.209H248C249.791 345.209 251.241 343.762 251.241 341.977V302.069C251.241 300.284 249.791 298.837 248 298.837H185.85Z" fill="#371A45"/>
<path d="M245.299 302.085V341.992C245.299 345.317 242.583 348.026 239.249 348.026H177.099C173.781 348.026 171.064 345.317 171.064 341.992V302.085C171.064 298.76 173.781 296.052 177.099 296.052H239.249C242.583 296.052 245.299 298.76 245.299 302.085Z" fill="white"/>
<g opacity="0.2">
<path d="M245.299 325.232V341.977C245.299 345.301 242.583 348.01 239.249 348.01H177.099C173.781 348.01 171.064 345.301 171.064 341.977V325.478C171.064 325.478 181.775 339.53 200.697 338.422C217.473 337.437 218.013 322.016 218.013 322.016H235.623C235.623 322.016 238.185 335.405 245.269 325.278C245.269 325.263 245.284 325.248 245.299 325.232Z" fill="#371A45"/>
</g>
<path d="M239.25 350.811H177.099C172.222 350.811 168.256 346.856 168.256 341.992V302.085C168.256 297.221 172.222 293.266 177.099 293.266H239.25C244.127 293.266 248.093 297.221 248.093 302.085V341.992C248.093 346.856 244.127 350.811 239.25 350.811ZM177.099 298.837C175.309 298.837 173.858 300.284 173.858 302.069V341.977C173.858 343.762 175.309 345.209 177.099 345.209H239.25C241.04 345.209 242.491 343.762 242.491 341.977V302.069C242.491 300.284 241.04 298.837 239.25 298.837H177.099Z" fill="#371A45"/>
<path d="M254.035 332.666C254.035 332.666 244.682 331.727 245.3 322.877C245.778 316.167 254.035 315.49 254.035 315.49C254.035 315.49 280.38 317.952 294.949 308.872C294.949 308.872 302.11 317.275 295.566 324.801C289.038 332.327 270.518 334.744 254.035 332.666Z" fill="white"/>
<g opacity="0.2">
<path d="M295.566 324.786C289.038 332.312 270.518 334.744 254.035 332.666C254.035 332.666 245.562 331.819 245.284 324.109C247.059 324.878 248.587 325.032 248.587 325.032C265.085 327.11 283.59 324.694 290.118 317.152C292.186 314.767 292.881 312.289 292.865 310.026C293.575 309.657 294.27 309.272 294.933 308.857C294.933 308.857 302.094 317.26 295.566 324.786Z" fill="#371A45"/>
</g>
<path d="M265.286 336.16C261.319 336.16 257.384 335.913 253.711 335.452C249.528 335.021 241.858 331.804 242.49 322.693C243 315.505 250.099 313.012 253.788 312.704C253.958 312.689 254.112 312.689 254.282 312.704C254.529 312.735 279.855 314.967 293.452 306.487C294.625 305.748 296.168 305.994 297.079 307.041C300.088 310.581 304.101 319.215 297.696 326.602C291.77 333.435 278.342 336.16 265.286 336.16ZM254.066 318.291C253.016 318.43 248.355 319.261 248.093 323.078C247.692 328.849 253.217 329.772 254.328 329.896C254.343 329.896 254.374 329.896 254.374 329.896C271.351 332.035 288.158 329.065 293.436 322.97C296.785 319.107 295.366 314.921 294.069 312.566C279.392 320.107 257.044 318.537 254.066 318.291Z" fill="#371A45"/>
<path d="M342.916 338.791V366.787C342.916 370.049 340.261 372.697 336.989 372.697H331.217V348.949H295.983V372.697H290.211C286.939 372.697 284.284 370.049 284.284 366.787V338.791C284.284 335.529 286.939 332.881 290.211 332.881H336.989C340.261 332.881 342.916 335.529 342.916 338.791Z" fill="#7F7F7F"/>
<path d="M335.77 332.881L330.461 348.949H302.187C303.376 343.039 299.023 336.729 295.69 332.881H335.77Z" fill="#606060"/>
<path d="M336.99 375.498H331.217C329.674 375.498 328.409 374.251 328.409 372.697V351.735H298.776V372.697C298.776 374.236 297.526 375.498 295.967 375.498H290.195C285.38 375.498 281.46 371.589 281.46 366.787V338.791C281.46 333.99 285.38 330.08 290.195 330.08H336.959C341.774 330.08 345.694 333.99 345.694 338.791V366.787C345.725 371.589 341.805 375.498 336.99 375.498ZM334.026 369.911H336.99C338.718 369.911 340.107 368.51 340.107 366.802V338.807C340.107 337.083 338.703 335.682 336.99 335.682H290.226C288.498 335.682 287.109 337.083 287.109 338.807V366.802C287.109 368.526 288.513 369.911 290.226 369.911H293.189V348.949C293.189 347.41 294.44 346.148 295.998 346.148H331.233C332.776 346.148 334.042 347.395 334.042 348.949V369.911H334.026Z" fill="#371A45"/>
<path d="M372.95 458.253H254.282C248.185 458.253 243.216 453.312 243.216 447.218V371.85C243.216 365.771 248.17 360.815 254.282 360.815H372.95C379.046 360.815 384.015 365.756 384.015 371.85V447.218C384 453.312 379.046 458.253 372.95 458.253ZM254.266 366.433C251.257 366.433 248.818 368.864 248.818 371.866V447.233C248.818 450.234 251.257 452.666 254.266 452.666H372.934C375.944 452.666 378.382 450.219 378.382 447.233V371.866C378.382 368.864 375.944 366.433 372.934 366.433H254.266Z" fill="#371A45"/>
<path d="M381.206 371.65V447.448C381.206 451.881 377.61 455.467 373.166 455.467H254.05C250.84 455.467 248.077 453.589 246.781 450.896C246.287 449.849 246.009 448.695 246.009 447.464V371.665C246.009 367.248 249.605 363.662 254.05 363.662H373.166C375.944 363.662 378.398 365.063 379.848 367.202C380.697 368.449 381.206 369.988 381.206 371.65Z" fill="#BFBFBF"/>
<path opacity="0.7" d="M336.604 363.632L258.155 450.249C257.662 449.203 257.384 448.049 257.384 446.817V420.93L309.271 363.632H336.604Z" fill="url(#paint0_linear_73_2100)"/>
<path opacity="0.7" d="M379.833 367.172L299.857 455.467H295.952L283.065 443.847L355.71 363.647H373.15C375.944 363.632 378.382 365.048 379.833 367.172Z" fill="url(#paint1_linear_73_2100)"/>
<g opacity="0.7">
<path d="M381.206 371.65V377.191C381.206 372.774 377.61 369.188 373.166 369.188H254.05C249.605 369.188 246.009 372.774 246.009 377.191V371.65C246.009 367.233 249.605 363.647 254.05 363.647H373.166C377.61 363.632 381.206 367.218 381.206 371.65Z" fill="white"/>
</g>
<g opacity="0.7">
<path d="M254.05 363.632H265.085C265.085 365.555 264.792 367.418 264.252 369.172H254.05C249.605 369.172 246.009 372.758 246.009 377.175V371.635C246.009 367.218 249.605 363.632 254.05 363.632Z" fill="white"/>
</g>
<g opacity="0.7">
<path d="M381.206 371.65V377.191C381.206 372.774 377.61 369.188 373.166 369.188H362.964C362.424 367.433 362.131 365.571 362.131 363.647H373.166C377.61 363.632 381.206 367.218 381.206 371.65Z" fill="white"/>
</g>
<path d="M381.206 435.367V447.448C381.206 451.881 377.61 455.467 373.166 455.467H254.05C249.605 455.467 246.009 451.881 246.009 447.448V435.367C246.009 439.799 249.605 443.385 254.05 443.385H373.166C377.61 443.385 381.206 439.799 381.206 435.367Z" fill="#9E9E9E"/>
<path d="M260.748 443.385C263.449 446.663 265.085 450.88 265.085 455.467H254.05C249.605 455.467 246.009 451.881 246.009 447.448V436.444H246.086C246.611 440.369 249.976 443.37 254.05 443.37H260.748V443.385Z" fill="#9E9E9E"/>
<path d="M381.206 436.444V447.448C381.206 451.881 377.61 455.467 373.166 455.467H362.131C362.131 450.88 363.767 446.663 366.467 443.385H373.166C377.24 443.385 380.604 440.369 381.129 436.459H381.206V436.444Z" fill="#9E9E9E"/>
<path d="M373.166 458.253H254.05C248.077 458.253 243.216 453.404 243.216 447.448V371.635C243.216 365.679 248.077 360.831 254.05 360.831H373.166C379.138 360.831 384.015 365.679 384.015 371.635V447.448C384 453.404 379.138 458.253 373.166 458.253ZM254.05 366.433C251.164 366.433 248.818 368.772 248.818 371.65V447.464C248.818 450.342 251.164 452.681 254.05 452.681H373.166C376.052 452.681 378.398 450.342 378.398 447.464V371.65C378.398 368.772 376.052 366.433 373.166 366.433H254.05Z" fill="#371A45"/>
<path d="M265.085 363.632C265.085 374.128 256.55 382.639 246.025 382.639V371.635C246.025 367.202 249.621 363.616 254.065 363.616H265.085V363.632Z" fill="#FFD62C"/>
<path d="M381.206 371.65V382.654C370.665 382.654 362.131 374.143 362.131 363.647H373.166C377.595 363.632 381.206 367.218 381.206 371.65Z" fill="#FFD62C"/>
<g opacity="0.7">
<path d="M265.085 363.632C265.085 365.555 264.792 367.418 264.252 369.172H254.05C249.605 369.172 246.009 372.758 246.009 377.175V371.635C246.009 367.218 249.605 363.632 254.05 363.632H265.085Z" fill="white"/>
</g>
<g opacity="0.7">
<path d="M381.206 371.65V377.191C381.206 372.774 377.61 369.188 373.166 369.188H362.964C362.424 367.433 362.131 365.571 362.131 363.647H373.166C377.61 363.632 381.206 367.218 381.206 371.65Z" fill="white"/>
</g>
<path d="M265.085 455.467H254.05C249.605 455.467 246.009 451.881 246.009 447.448V436.444C256.55 436.444 265.085 444.955 265.085 455.467Z" fill="#FFD62C"/>
<path d="M381.206 436.444V447.448C381.206 451.881 377.61 455.467 373.166 455.467H362.131C362.131 444.955 370.665 436.444 381.206 436.444Z" fill="#FFD62C"/>
<path d="M265.085 455.467H254.05C249.605 455.467 246.009 451.881 246.009 447.448V436.444H246.086C246.611 440.369 249.976 443.37 254.05 443.37H260.748C263.449 446.663 265.085 450.865 265.085 455.467Z" fill="#FF8C2E"/>
<path d="M381.206 436.444V447.448C381.206 451.881 377.61 455.467 373.166 455.467H362.131C362.131 450.88 363.767 446.663 366.467 443.385H373.166C377.24 443.385 380.604 440.369 381.129 436.459H381.206V436.444Z" fill="#FF8C2E"/>
<path d="M246.025 385.44C244.481 385.44 243.216 384.193 243.216 382.639V371.635C243.216 365.679 248.077 360.831 254.05 360.831H265.085C266.628 360.831 267.894 362.077 267.894 363.632C267.894 375.667 258.078 385.44 246.025 385.44ZM254.05 366.433C251.164 366.433 248.818 368.772 248.818 371.65V379.622C255.547 378.453 260.872 373.143 262.045 366.433H254.05Z" fill="#371A45"/>
<path d="M381.206 385.44C369.137 385.44 359.337 375.652 359.337 363.632C359.337 362.093 360.587 360.831 362.146 360.831H373.181C379.154 360.831 384.031 365.679 384.031 371.635V382.639C384 384.193 382.75 385.44 381.206 385.44ZM365.171 366.433C366.344 373.143 371.668 378.453 378.397 379.622V371.65C378.397 368.772 376.052 366.433 373.166 366.433H365.171Z" fill="#371A45"/>
<path d="M265.085 458.252H254.05C248.077 458.252 243.216 453.404 243.216 447.448V436.444C243.216 434.905 244.466 433.643 246.025 433.643C258.078 433.643 267.894 443.431 267.894 455.451C267.894 457.006 266.628 458.252 265.085 458.252ZM248.818 439.476V447.448C248.818 450.326 251.164 452.666 254.05 452.666H262.045C260.872 445.955 255.547 440.646 248.818 439.476Z" fill="#371A45"/>
<path d="M373.166 458.252H362.131C360.587 458.252 359.322 457.006 359.322 455.451C359.322 443.431 369.137 433.643 381.191 433.643C382.734 433.643 384 434.89 384 436.444V447.448C384 453.404 379.138 458.252 373.166 458.252ZM365.171 452.666H373.166C376.052 452.666 378.398 450.326 378.398 447.448V439.476C371.669 440.646 366.344 445.955 365.171 452.666Z" fill="#371A45"/>
<path d="M324.936 417.929C324.936 422.947 321.062 426.81 315.846 428.025V434.074H309.055V427.902C303.777 426.517 299.656 422.346 299.239 421.915L304.085 417.083C304.456 417.498 308.206 421.438 312.574 421.438C315.846 421.438 317.975 419.807 317.975 417.991C317.975 412.543 300.026 411.527 300.026 401.123C300.026 396.106 303.838 392.243 309.055 391.088V385.04H315.846V391.211C321.124 392.597 325.245 396.706 325.661 397.137L320.877 401.969C320.46 401.492 316.633 397.737 312.327 397.737C309.055 397.737 306.925 399.245 306.925 401.061C306.925 406.494 324.936 407.525 324.936 417.929Z" fill="#371A45"/>
<path d="M343.009 332.019C341.651 336.714 339.907 340.376 337.838 342.439C333.826 346.456 311.648 359.168 308.793 348.81C310.506 342.331 305.474 332.235 302.141 331.188C299.471 330.357 295.165 332.774 295.165 332.774C295.165 332.774 293.128 332.666 292.171 330.219C291.754 329.157 291.785 327.802 292.186 326.325C292.742 324.201 294.038 321.815 295.767 319.661C295.782 319.63 295.813 319.615 295.829 319.584C298.174 316.706 301.323 314.29 304.518 313.551C304.518 313.551 301.863 298.483 300.042 295.729C296.986 291.142 285.797 286.248 280.951 284.293C279.546 283.724 278.682 283.401 278.682 283.401L248.71 217.406C301.554 227.61 330.122 248.156 339.86 267.826C347.824 283.862 348.009 314.813 343.009 332.019Z" fill="white"/>
<g opacity="0.2">
<path d="M343.009 332.019C341.651 336.714 339.907 340.376 337.838 342.439C333.826 346.456 311.648 359.168 308.793 348.81C310.506 342.331 305.474 332.235 302.141 331.188C299.471 330.357 295.165 332.774 295.165 332.774C295.165 332.774 293.128 332.666 292.171 330.219C291.754 329.157 291.785 327.802 292.186 326.325C292.233 326.617 292.865 329.803 296.292 328.156C299.872 326.433 303.53 323.447 306.308 323.755C309.086 324.063 305.058 327.387 310.105 334.189C313.824 339.222 312.126 348.287 325.831 344.147C334.381 341.592 339.721 336.698 343.009 332.019Z" fill="#371A45"/>
</g>
<g opacity="0.2">
<path d="M310.028 313.689C309.333 316.183 298.314 316.721 295.844 319.599C298.19 316.721 301.338 314.305 304.533 313.566C304.533 313.566 301.879 298.499 300.057 295.744C297.002 291.158 285.812 286.263 280.966 284.309C289.177 284.771 303.252 286.664 305.49 294.097C308.747 304.948 311.355 308.934 310.028 313.689Z" fill="#371A45"/>
</g>
<g opacity="0.2">
<path d="M295.011 231.243C285.766 238.137 274.608 243.57 262.184 247.033L248.741 217.437C266.984 220.962 282.324 225.717 295.011 231.243Z" fill="#371A45"/>
</g>
<path d="M249.266 214.698C279.963 220.915 314.38 231.627 335.462 256.083C345.108 267.133 348.024 281.477 348.92 295.652C349.66 309.088 349.043 333.035 340.369 343.855C338.625 345.779 336.449 347.118 334.32 348.472C330.245 350.934 326.032 353.058 321.325 354.505C315.846 356.306 307.959 356.506 306.107 349.565C305.968 349.072 305.968 348.58 306.107 348.118C307.033 343.778 305.042 338.284 302.295 334.79C301.971 334.42 301.539 333.99 301.323 333.882C300.026 333.605 297.665 334.636 296.384 335.329C295.967 335.559 295.504 335.636 295.057 335.575C290.288 334.959 288.714 330.419 289.161 327.479C290.195 320.23 296.832 312.658 303.931 310.858L301.801 314.059C301.184 310.581 300.459 307.041 299.594 303.639C298.992 301.469 298.498 299.33 297.603 297.406C295.041 294.236 291.029 292.25 287.464 290.188C284.408 288.464 281.259 286.771 278.25 284.755C277.571 284.324 277.37 283.416 277.818 282.755C278.142 282.277 278.682 282.062 279.222 282.139C286.661 283.309 297.202 287.695 302.156 293.543C302.403 293.867 302.681 294.267 302.882 294.636C304.101 297.068 304.626 299.807 305.212 302.316C305.999 305.933 306.678 309.472 307.342 313.089C307.604 314.551 306.678 315.937 305.258 316.29C300.35 317.614 295.612 323.139 294.748 328.049C294.656 328.849 294.81 329.696 295.52 330.003C295.489 330.003 295.566 330.003 295.365 329.988L293.838 330.342C297.897 328.141 303.252 326.725 306.57 331.142C310.475 336.113 312.975 343.116 311.54 349.534V348.087C312.342 351.165 317.188 349.826 319.735 349.149C323.717 347.933 327.714 345.963 331.403 343.716C333.085 342.654 334.844 341.577 336.202 340.146C343.502 330.419 344.058 308.118 343.364 296.006C342.021 275.998 337.715 263.532 321.88 250.45C308.16 239.169 291.368 231.935 274.422 226.656C265.841 224.009 257.075 221.916 248.232 220.192C244.651 219.423 245.546 214.113 249.266 214.698Z" fill="#371A45"/>
<path d="M339.444 88.5879C339.444 88.5879 364.955 98.2377 367.579 102.947C372.44 111.674 371.53 162.986 358.087 176.375C352.824 181.608 314.148 186.502 314.148 186.502L339.444 88.5879Z" fill="white"/>
<g opacity="0.2">
<path d="M314.133 186.502C314.133 186.502 352.809 181.608 358.072 176.36C363.319 171.142 366.668 160.123 368.489 148.134C368.057 148.518 354.399 160.277 327.143 136.375C327.128 136.36 327.112 136.344 327.097 136.329L314.133 186.502Z" fill="#371A45"/>
</g>
<path d="M228.847 142.147V142.578L228.57 142.362L228.847 142.147Z" fill="#D8D8D8"/>
<path d="M228.57 142.362L228.292 142.578V142.147L228.57 142.362Z" fill="#D8D8D8"/>
<path d="M144.318 186.502C144.318 186.502 105.642 181.608 100.379 176.36C95.1318 171.143 91.7828 160.123 89.9616 148.134C87.1064 129.404 87.9244 108.272 90.8876 102.947C93.5113 98.2377 119.023 88.5879 119.023 88.5879L131.354 136.345L144.318 186.502Z" fill="white"/>
<path d="M144.318 186.502C144.318 186.502 105.642 181.608 100.379 176.36C95.1319 171.142 91.7828 160.123 89.9617 148.134C90.3938 148.518 104.052 160.277 131.308 136.375C131.323 136.36 131.339 136.344 131.354 136.329L144.318 186.502Z" fill="#D8D8D8"/>
<path d="M310.398 189.78L337.514 84.8633L340.447 85.9714C348.41 88.9879 367.224 96.5293 370.033 101.577C375.419 111.258 374.74 163.755 360.078 178.33C354.429 183.963 321.124 188.426 314.503 189.257L310.398 189.78ZM341.357 92.3277L317.883 183.178C335.292 180.777 353.442 177.022 356.096 174.374C368.52 162.016 369.462 112.104 365.109 104.286C363.813 102.147 352.315 96.637 341.357 92.3277Z" fill="#371A45"/>
<path d="M148.069 189.78L143.979 189.257C137.358 188.426 104.068 183.963 98.4038 178.33C83.742 163.74 83.0629 111.243 88.4492 101.577C91.2581 96.5139 110.071 88.9725 118.035 85.9714L120.968 84.8633L148.069 189.78ZM117.094 92.3277C106.136 96.6524 94.6535 102.147 93.3416 104.301C88.9894 112.12 89.9463 162.031 102.355 174.39C105.009 177.037 123.159 180.777 140.568 183.193L117.094 92.3277Z" fill="#371A45"/>
<path d="M229.218 238.676C294.535 238.676 347.484 185.874 347.484 120.738C347.484 55.6034 294.535 2.80103 229.218 2.80103C163.901 2.80103 110.951 55.6034 110.951 120.738C110.951 185.874 163.901 238.676 229.218 238.676Z" fill="white"/>
<g opacity="0.2">
<path d="M347.5 120.738C347.5 185.871 294.548 238.676 229.233 238.676C163.919 238.676 110.951 185.871 110.951 120.738C110.951 113.859 111.538 107.118 112.68 100.562C122.279 156.09 170.802 198.322 229.233 198.322C287.664 198.322 336.187 156.09 345.771 100.562C346.913 107.118 347.5 113.859 347.5 120.738Z" fill="#371A45"/>
</g>
<path d="M229.218 241.477C162.453 241.477 108.142 187.318 108.142 120.739C108.142 54.1592 162.468 0 229.218 0C295.968 0 350.293 54.1592 350.293 120.739C350.293 187.318 295.983 241.477 229.218 241.477ZM229.218 5.58676C165.555 5.58676 113.745 57.2527 113.745 120.739C113.745 184.224 165.539 235.89 229.218 235.89C292.896 235.89 344.691 184.24 344.691 120.739C344.691 57.2373 292.896 5.58676 229.218 5.58676Z" fill="#371A45"/>
<path d="M229.218 241.477C162.453 241.477 108.142 187.318 108.142 120.739C108.142 54.1592 162.468 0 229.218 0C295.968 0 350.293 54.1592 350.293 120.739C350.293 187.318 295.983 241.477 229.218 241.477ZM229.218 5.58676C165.555 5.58676 113.745 57.2527 113.745 120.739C113.745 184.224 165.539 235.89 229.218 235.89C292.896 235.89 344.691 184.24 344.691 120.739C344.691 57.2373 292.896 5.58676 229.218 5.58676Z" fill="#371A45"/>
<path d="M229.218 241.477C162.453 241.477 108.142 187.318 108.142 120.739C108.142 54.1592 162.468 0 229.218 0C295.968 0 350.293 54.1592 350.293 120.739C350.293 187.318 295.983 241.477 229.218 241.477ZM229.218 5.58676C165.555 5.58676 113.745 57.2527 113.745 120.739C113.745 184.224 165.539 235.89 229.218 235.89C292.896 235.89 344.691 184.24 344.691 120.739C344.691 57.2373 292.896 5.58676 229.218 5.58676Z" fill="#371A45"/>
<path d="M229.218 241.477C174.043 241.477 125.891 204.371 112.047 151.212C112.032 151.15 112.001 151.089 111.985 151.012C109.439 141.208 108.142 131.019 108.142 120.739C108.142 116.183 108.405 111.627 108.914 107.21C115.72 46.0946 167.453 0 229.218 0C290.998 0 342.731 46.11 349.537 107.256C350.031 111.689 350.293 116.229 350.293 120.739C350.293 131.004 349.012 141.177 346.466 151.012C346.45 151.089 346.42 151.15 346.404 151.227C332.545 204.371 284.377 241.477 229.218 241.477ZM117.433 149.657C130.583 200.431 176.559 235.89 229.218 235.89C281.877 235.89 327.853 200.431 341.018 149.642C341.033 149.565 341.064 149.488 341.08 149.411C343.472 140.1 344.676 130.45 344.676 120.739C344.676 116.429 344.429 112.104 343.95 107.872C337.484 49.5728 288.143 5.60215 229.218 5.60215C170.308 5.60215 120.983 49.5574 114.485 107.857C114.007 112.074 113.76 116.414 113.76 120.754C113.76 130.496 114.979 140.146 117.372 149.442C117.387 149.503 117.418 149.58 117.433 149.657Z" fill="#371A45"/>
<path d="M343.379 92.6047C342.283 92.6047 341.265 91.9737 340.802 90.9118C322.112 47.649 278.312 19.6845 229.218 19.6845C180.155 19.6845 136.37 47.6182 117.665 90.8502C117.078 92.2046 115.55 92.8663 114.161 92.3738C112.772 91.8967 112.001 90.4193 112.386 89.0033C126.647 36.5986 174.691 0 229.218 0C283.79 0 331.835 36.6294 346.08 89.0803C346.466 90.4962 345.679 91.9737 344.305 92.4508C343.996 92.5585 343.688 92.6047 343.379 92.6047ZM229.218 14.0977C266.274 14.0977 300.443 29.3497 323.964 54.8826C302.805 24.7018 267.709 5.58676 229.218 5.58676C190.742 5.58676 155.662 24.6864 134.503 54.8518C158.023 29.3497 192.193 14.0977 229.218 14.0977Z" fill="#371A45"/>
<path d="M347.484 120.738C347.484 130.942 346.188 140.869 343.75 150.304C343.75 150.304 343.734 150.304 343.734 150.319C323.223 189.842 279.639 223.855 229.218 223.855C178.797 223.855 135.228 189.842 114.702 150.319C114.702 150.304 114.686 150.304 114.686 150.304C112.232 140.854 110.936 130.942 110.936 120.738C110.936 116.275 111.183 111.874 111.677 107.533C127.635 63.5012 174.213 31.6582 229.202 31.6582C284.207 31.6582 330.801 63.532 346.744 107.564C347.238 111.889 347.484 116.291 347.484 120.738Z" fill="#371A45"/>
<g opacity="0.35">
<path d="M347.485 120.754C347.485 130.958 346.188 140.885 343.75 150.319C343.75 150.319 343.734 150.319 343.734 150.335C323.223 189.857 279.639 223.87 229.218 223.87C178.797 223.87 135.228 189.857 114.702 150.335C114.702 150.319 114.686 150.319 114.686 150.319C113.22 144.686 112.171 138.899 111.569 132.974C138.083 162.678 176.652 184.301 219.572 184.301C274.253 184.301 321.88 149.226 346.528 107.01C346.605 107.21 346.682 107.395 346.744 107.58C347.238 111.904 347.485 116.291 347.485 120.754Z" fill="#111A28"/>
</g>
<g opacity="0.5">
<path d="M328.867 118.677C330.729 107.095 325.416 96.6152 316.999 95.2696C308.583 93.9241 300.251 102.222 298.389 113.805C296.527 125.387 301.84 135.867 310.256 137.212C318.673 138.558 327.005 130.259 328.867 118.677Z" fill="white"/>
</g>
<g opacity="0.5">
<path d="M303.622 161.181C305.205 156.037 302.894 150.768 298.461 149.411C294.028 148.055 289.152 151.126 287.569 156.269C285.987 161.413 288.298 166.682 292.73 168.038C297.163 169.395 302.04 166.324 303.622 161.181Z" fill="white"/>
</g>
<g opacity="0.5">
<path d="M140.491 153.32C140.491 153.32 121.523 97.0986 151.649 73.9359C181.775 50.7732 225.761 49.9729 224.788 52.8047C224.788 52.8047 176.327 65.5481 158.054 104.332C143.963 134.221 140.491 153.32 140.491 153.32Z" fill="white"/>
</g>
<path d="M68.7252 210.065C105.138 210.065 134.657 180.629 134.657 144.317C134.657 108.005 105.138 78.5686 68.7252 78.5686C32.3121 78.5686 2.79346 108.005 2.79346 144.317C2.79346 180.629 32.3121 210.065 68.7252 210.065Z" fill="#FFD62C"/>
<path d="M134.657 144.317C134.657 180.623 105.148 210.05 68.7406 210.05C43.3063 210.05 21.2364 195.69 10.2478 174.652C22.0698 192.258 42.1951 203.847 65.052 203.847C101.46 203.847 130.984 174.421 130.984 138.099C130.984 127.172 128.314 116.876 123.576 107.811C130.567 118.261 134.657 130.804 134.657 144.317Z" fill="#FFB42E"/>
<g opacity="0.7">
<path d="M131.524 124.294C122.48 103.255 102.741 87.8645 79.1119 84.9403V84.9711C79.2199 87.4335 74.3429 89.6498 68.2467 89.9114C62.1351 90.1731 57.1038 88.3878 56.9957 85.9099V85.8945C27.2709 92.2508 4.98496 118.615 4.98496 150.165C4.98496 157.122 6.0653 163.817 8.07165 170.096C4.67629 162.185 2.80884 153.459 2.80884 144.301C2.80884 107.995 32.3176 78.5532 68.7406 78.5532C98.1413 78.5686 123.051 97.776 131.524 124.294Z" fill="white"/>
</g>
<path d="M68.7252 212.851C30.8361 212.851 0 182.101 0 144.317C0 106.533 30.8361 75.783 68.7252 75.783C106.614 75.783 137.45 106.533 137.45 144.317C137.45 182.101 106.63 212.851 68.7252 212.851ZM68.7252 81.3697C33.9227 81.3697 5.60235 109.611 5.60235 144.317C5.60235 179.023 33.9227 207.264 68.7252 207.264C103.528 207.264 131.848 179.023 131.848 144.317C131.848 109.611 103.528 81.3697 68.7252 81.3697Z" fill="#371A45"/>
<path d="M68.7252 193.736C96.0947 193.736 118.282 171.61 118.282 144.317C118.282 117.024 96.0947 94.8979 68.7252 94.8979C41.3557 94.8979 19.1683 117.024 19.1683 144.317C19.1683 171.61 41.3557 193.736 68.7252 193.736Z" fill="#FF9C43"/>
<path d="M68.7252 193.736C96.0947 193.736 118.282 171.61 118.282 144.317C118.282 117.024 96.0947 94.8979 68.7252 94.8979C41.3557 94.8979 19.1683 117.024 19.1683 144.317C19.1683 171.61 41.3557 193.736 68.7252 193.736Z" fill="#FF9C43"/>
<path d="M118.282 144.317C118.282 171.604 96.0888 193.736 68.7252 193.736C46.3313 193.736 27.4099 178.93 21.2673 158.584C28.7063 176.499 46.4084 189.119 67.0584 189.119C94.4374 189.119 116.615 166.987 116.615 139.7C116.615 134.744 115.89 129.958 114.516 125.433C116.955 131.25 118.282 137.622 118.282 144.317Z" fill="#FF7A45"/>
<path d="M19.1683 144.317C19.1683 117.03 41.3617 94.8979 68.7252 94.8979C91.1191 94.8979 110.041 109.704 116.183 130.05C108.744 112.12 91.042 99.5151 70.3766 99.5151C42.9976 99.5151 20.8197 121.647 20.8197 148.934C20.8197 153.89 21.5451 158.676 22.9187 163.201C20.511 157.383 19.1683 150.996 19.1683 144.317Z" fill="#FF7A45"/>
<path d="M82.0134 154.275C82.0134 160.246 77.3988 164.848 71.1945 166.279V173.466H63.1228V166.141C56.8568 164.494 51.949 159.523 51.4397 159.03L57.2118 153.274C57.644 153.782 62.1197 158.445 67.3053 158.445C71.1945 158.445 73.7256 156.506 73.7256 154.351C73.7256 147.887 52.3811 146.656 52.3811 134.298C52.3811 128.326 56.9186 123.724 63.1228 122.37V115.183H71.1945V122.508C77.4605 124.155 82.3684 129.049 82.8777 129.557L77.1827 135.283C76.6734 134.713 72.136 130.25 67.0121 130.25C63.1228 130.25 60.5917 132.051 60.5917 134.205C60.6072 140.685 82.0134 141.901 82.0134 154.275Z" fill="#FFD62C"/>
<path d="M300.52 298.761C300.119 298.761 299.718 298.653 299.363 298.407C298.391 297.76 298.128 296.467 298.776 295.498C299.656 294.19 320.368 263.393 340.138 265.779C341.296 265.917 342.114 266.964 341.975 268.118C341.836 269.272 340.802 270.088 339.629 269.949C322.436 267.872 302.465 297.529 302.264 297.837C301.878 298.437 301.199 298.761 300.52 298.761Z" fill="#371A45"/>
<path d="M188.427 296.052V310.996C188.427 314.967 190.279 318.707 193.443 321.123C196.607 323.539 198.459 327.279 198.459 331.25V348.026" fill="white"/>
<path d="M198.459 350.811C196.915 350.811 195.65 349.565 195.65 348.01V331.235C195.65 328.156 194.184 325.201 191.73 323.324C187.902 320.4 185.618 315.782 185.618 310.981V296.036C185.618 294.497 186.868 293.235 188.427 293.235C189.97 293.235 191.236 294.482 191.236 296.036V310.981C191.236 314.059 192.702 317.014 195.156 318.891C198.984 321.816 201.268 326.433 201.268 331.235V348.01C201.268 349.565 200.002 350.811 198.459 350.811Z" fill="#371A45"/>
<path d="M235.622 322.031C235.622 327.187 232.227 331.342 228.045 331.342H220.961V312.704H228.045C232.227 312.72 235.622 316.891 235.622 322.031Z" fill="#22A7F0"/>
<g opacity="0.7">
<path d="M235.144 318.784C233.755 316.952 231.78 315.798 229.573 315.798H222.504V331.342H220.961V312.704H228.045C231.286 312.704 234.064 315.244 235.144 318.784Z" fill="white"/>
</g>
<path d="M235.623 322.031C235.623 327.187 232.227 331.342 228.029 331.342H220.945V312.704H224.757V321.846H231.826C233.169 321.846 234.434 321.415 235.53 320.661C235.592 321.108 235.623 321.569 235.623 322.031Z" fill="#1C7AEA"/>
<path d="M228.029 333.435H220.945C219.788 333.435 218.846 332.497 218.846 331.342V312.704C218.846 311.55 219.788 310.611 220.945 310.611H228.029C233.369 310.611 237.722 315.736 237.722 322.031C237.722 328.326 233.369 333.435 228.029 333.435ZM223.044 329.249H228.029C231.054 329.249 233.508 326.017 233.508 322.031C233.508 318.045 231.054 314.813 228.029 314.813H223.044V329.249Z" fill="#371A45"/>
<path d="M220.945 331.342C225.13 331.342 228.523 327.173 228.523 322.031C228.523 316.889 225.13 312.72 220.945 312.72C216.76 312.72 213.367 316.889 213.367 322.031C213.367 327.173 216.76 331.342 220.945 331.342Z" fill="#22A7F0"/>
<g opacity="0.7">
<path d="M228.523 322.031C228.523 322.585 228.477 323.139 228.4 323.678C227.767 319.322 224.665 316.013 220.945 316.013C217.21 316.013 214.124 319.322 213.491 323.678C213.414 323.139 213.367 322.585 213.367 322.031C213.367 316.891 216.763 312.72 220.945 312.72C225.143 312.72 228.523 316.891 228.523 322.031Z" fill="white"/>
</g>
<path d="M228.523 322.031C228.523 327.187 225.128 331.358 220.945 331.358C216.763 331.358 213.367 327.187 213.367 322.031C213.367 321.723 213.383 321.416 213.414 321.108C214.648 324.14 217.21 326.202 220.158 326.202C224.094 326.202 227.319 322.524 227.69 317.814C228.23 319.092 228.523 320.523 228.523 322.031Z" fill="#1C7AEA"/>
<path d="M220.945 333.451C215.605 333.451 211.269 328.326 211.269 322.031C211.269 315.736 215.605 310.611 220.945 310.611C226.285 310.611 230.622 315.736 230.622 322.031C230.622 328.326 226.285 333.451 220.945 333.451ZM220.945 314.813C217.92 314.813 215.466 318.045 215.466 322.031C215.466 326.017 217.92 329.249 220.945 329.249C223.97 329.249 226.424 326.017 226.424 322.031C226.424 318.045 223.97 314.813 220.945 314.813Z" fill="#371A45"/>
</g>
<defs>
<linearGradient id="paint0_linear_73_2100" x1="274.058" y1="419.124" x2="327.643" y2="356.065" gradientUnits="userSpaceOnUse">
<stop stop-color="white"/>
<stop offset="1"/>
</linearGradient>
<linearGradient id="paint1_linear_73_2100" x1="300.413" y1="441.833" x2="352.479" y2="380.563" gradientUnits="userSpaceOnUse">
<stop stop-color="white"/>
<stop offset="1"/>
</linearGradient>
<clipPath id="clip0_73_2100">
<rect width="384" height="482" fill="white"/>
</clipPath>
</defs>
</svg>
