<svg width="40" height="40" viewBox="0 0 40 40" fill="none" xmlns="http://www.w3.org/2000/svg">
<path d="M1.81861 20.0032C1.81811 16.5884 2.7793 13.2425 4.59209 10.3487C6.40488 7.45482 8.996 5.12998 12.0687 3.64037C15.1415 2.15076 18.5716 1.55661 21.9663 1.92594C25.361 2.29527 28.5831 3.61316 31.2636 5.7287H28.4976C28.258 5.73102 28.029 5.82783 27.8604 5.99808C27.6917 6.16834 27.5972 6.39827 27.5972 6.63789C27.5972 6.87751 27.6917 7.10744 27.8604 7.27769C28.029 7.44795 28.258 7.54476 28.4976 7.54708H33.6408C33.8819 7.54708 34.1132 7.45128 34.2837 7.28077C34.4542 7.11026 34.55 6.87899 34.55 6.63785V1.4945C34.55 1.25336 34.4542 1.02209 34.2837 0.851576C34.1132 0.681061 33.8819 0.585267 33.6408 0.585267C33.3996 0.585267 33.1683 0.681061 32.9978 0.851576C32.8273 1.02209 32.7315 1.25336 32.7315 1.4945V4.5733C28.767 1.30248 23.6956 -0.316762 18.5692 0.051428C13.4428 0.419618 8.65485 2.74699 5.19846 6.55079C1.74207 10.3546 -0.117492 15.3429 0.005489 20.481C0.12847 25.6192 2.22456 30.5128 5.85897 34.1469C6.02946 34.3174 6.26069 34.4131 6.50179 34.4131C6.7429 34.4131 6.97413 34.3174 7.14462 34.1469C7.3151 33.9764 7.41088 33.7452 7.41088 33.504C7.41088 33.2629 7.3151 33.0317 7.14462 32.8612C5.45078 31.1766 4.10789 29.1728 3.19368 26.9657C2.27947 24.7586 1.81209 22.3921 1.81861 20.0032Z" fill="#FD5D07"/>
<path d="M12.0561 36.3648C11.5403 36.1139 11.0297 35.8347 10.5389 35.5355C10.3331 35.4099 10.0858 35.3711 9.85142 35.4278C9.61705 35.4845 9.41481 35.632 9.28917 35.8378C9.16353 36.0436 9.1248 36.2909 9.18149 36.5253C9.23819 36.7596 9.38566 36.9619 9.59147 37.0875C10.1318 37.4174 10.6938 37.7242 11.2616 38.0003C11.4782 38.103 11.7265 38.116 11.9525 38.0366C12.1786 37.9571 12.3642 37.7916 12.4689 37.5761C12.5736 37.3606 12.589 37.1124 12.5118 36.8856C12.4345 36.6587 12.2708 36.4716 12.0563 36.3648H12.0561Z" fill="#FD5D07"/>
<path d="M36.3726 12.074C36.4247 12.1814 36.4974 12.2776 36.5866 12.3569C36.6758 12.4363 36.7798 12.4973 36.8926 12.5365C37.0053 12.5757 37.1247 12.5922 37.2439 12.5853C37.3631 12.5783 37.4798 12.5479 37.5873 12.4959C37.6947 12.4438 37.7909 12.3711 37.8702 12.2819C37.9496 12.1927 38.0106 12.0887 38.0498 11.976C38.089 11.8632 38.1055 11.7438 38.0986 11.6246C38.0916 11.5054 38.0612 11.3887 38.0092 11.2813C37.7352 10.7152 37.429 10.1532 37.0991 9.61059C37.037 9.50856 36.9555 9.41976 36.8591 9.34925C36.7627 9.27875 36.6534 9.22791 36.5374 9.19965C36.303 9.14259 36.0556 9.18094 35.8496 9.30629C35.6436 9.43163 35.4957 9.63369 35.4387 9.86802C35.3816 10.1023 35.42 10.3497 35.5453 10.5558C35.8452 11.0491 36.1236 11.5599 36.3726 12.074Z" fill="#FD5D07"/>
<path d="M22.1597 38.059C21.5857 38.1272 21.0049 38.1678 20.4332 38.1815C20.1954 38.1892 19.9702 38.2897 19.8058 38.4616C19.6413 38.6334 19.5508 38.8629 19.5535 39.1007C19.5563 39.3385 19.6522 39.5658 19.8206 39.7337C19.989 39.9017 20.2165 39.997 20.4543 39.9991H20.476C21.1047 39.9845 21.7426 39.9395 22.373 39.8651C22.4917 39.8512 22.6065 39.8141 22.7108 39.7558C22.8151 39.6975 22.9069 39.6193 22.981 39.5255C23.0551 39.4318 23.1099 39.3243 23.1424 39.2093C23.1749 39.0943 23.1845 38.9741 23.1705 38.8554C23.1565 38.7368 23.1192 38.622 23.0608 38.5178C23.0025 38.4135 22.9241 38.3218 22.8302 38.2478C22.7364 38.1739 22.6289 38.1191 22.5139 38.0867C22.3988 38.0544 22.2786 38.045 22.1599 38.0591L22.1597 38.059Z" fill="#FD5D07"/>
<path d="M16.9854 37.9369C16.4199 37.8423 15.8512 37.7194 15.2953 37.5704C15.1799 37.5393 15.0594 37.5312 14.9408 37.5467C14.8222 37.5622 14.7079 37.6009 14.6043 37.6607C14.5007 37.7204 14.4099 37.8 14.3371 37.8949C14.2643 37.9898 14.2109 38.0981 14.18 38.2136C14.1491 38.3291 14.1413 38.4496 14.1571 38.5682C14.1728 38.6867 14.2118 38.801 14.2718 38.9045C14.3317 39.0079 14.4115 39.0986 14.5065 39.1712C14.6016 39.2437 14.71 39.2969 14.8256 39.3275C15.4374 39.4909 16.0633 39.6264 16.6863 39.7302C16.8043 39.7505 16.9252 39.7472 17.0419 39.7206C17.1587 39.6941 17.2691 39.6447 17.3667 39.5753C17.4643 39.5059 17.5473 39.418 17.6108 39.3165C17.6743 39.2149 17.7172 39.1019 17.7369 38.9838C17.7566 38.8656 17.7528 38.7448 17.7256 38.6281C17.6985 38.5115 17.6486 38.4014 17.5788 38.3041C17.5089 38.2068 17.4206 38.1242 17.3188 38.0612C17.2169 37.9981 17.1037 37.9558 16.9854 37.9367V37.9369Z" fill="#FD5D07"/>
<path d="M39.1131 19.5647C38.872 19.5588 38.6385 19.6489 38.4639 19.8151C38.2892 19.9814 38.1877 20.2102 38.1817 20.4512C38.167 21.0261 38.1253 21.6069 38.0569 22.1777C38.0284 22.4172 38.0962 22.6582 38.2452 22.8477C38.3943 23.0373 38.6126 23.1599 38.852 23.1886C38.8883 23.1927 38.9247 23.1948 38.9612 23.1948C39.1834 23.1945 39.3979 23.1128 39.564 22.9652C39.7301 22.8176 39.8365 22.6143 39.8629 22.3936C39.9375 21.7663 39.9836 21.1283 39.9993 20.4965C40.0024 20.3772 39.9819 20.2583 39.939 20.1469C39.8961 20.0354 39.8316 19.9335 39.7493 19.847C39.667 19.7604 39.5685 19.691 39.4593 19.6425C39.3501 19.5941 39.2325 19.5677 39.1131 19.5647Z" fill="#FD5D07"/>
<path d="M36.3222 29.9654C36.1226 29.8301 35.8776 29.7795 35.6408 29.8247C35.404 29.8699 35.1948 30.0072 35.0591 30.2064C34.736 30.6819 34.3866 31.1475 34.0199 31.5902C33.9419 31.6819 33.883 31.7882 33.8464 31.9029C33.8098 32.0175 33.7964 32.1383 33.8069 32.2582C33.8174 32.3781 33.8516 32.4948 33.9076 32.6013C33.9635 32.7079 34.0401 32.8023 34.1328 32.8791C34.2255 32.9559 34.3325 33.0134 34.4477 33.0485C34.5628 33.0836 34.6838 33.0954 34.8035 33.0833C34.9233 33.0713 35.0395 33.0355 35.1453 32.9782C35.2512 32.9209 35.3446 32.8431 35.4201 32.7494C35.8232 32.2629 36.2081 31.751 36.5632 31.228C36.6303 31.1293 36.6773 31.0183 36.7015 30.9014C36.7257 30.7845 36.7266 30.664 36.7043 30.5468C36.6819 30.4295 36.6366 30.3178 36.571 30.2181C36.5055 30.1183 36.4209 30.0324 36.3222 29.9654Z" fill="#FD5D07"/>
<path d="M37.5744 15.313C37.7218 15.867 37.8444 16.4352 37.9389 17.0035C37.9742 17.2158 38.0835 17.4087 38.2476 17.5479C38.4116 17.6872 38.6197 17.7637 38.8349 17.764C38.885 17.7639 38.935 17.7597 38.9845 17.7516C39.1023 17.732 39.2151 17.6895 39.3164 17.6263C39.4178 17.5632 39.5057 17.4807 39.5752 17.3836C39.6446 17.2864 39.6943 17.1766 39.7213 17.0602C39.7483 16.9439 39.7521 16.8234 39.7325 16.7056C39.629 16.0806 39.4938 15.4544 39.3319 14.845C39.2685 14.6135 39.1162 14.4164 38.908 14.2967C38.6999 14.1771 38.4529 14.1446 38.2209 14.2064C37.9889 14.2682 37.7908 14.4192 37.6697 14.6265C37.5487 14.8338 37.5145 15.0806 37.5747 15.313H37.5744Z" fill="#FD5D07"/>
<path d="M31.5726 34.0314C31.1282 34.399 30.6625 34.7484 30.1888 35.0694C30.09 35.1364 30.0053 35.2221 29.9396 35.3219C29.874 35.4216 29.8286 35.5332 29.8061 35.6505C29.7836 35.7677 29.7844 35.8882 29.8085 36.0052C29.8325 36.1221 29.8794 36.2331 29.9464 36.332C30.0134 36.4308 30.0992 36.5154 30.1989 36.5811C30.2986 36.6467 30.4103 36.6921 30.5275 36.7146C30.6447 36.7371 30.7653 36.7363 30.8822 36.7123C30.9991 36.6882 31.1102 36.6413 31.209 36.5743C31.7302 36.2214 32.2421 35.8374 32.7313 35.4333C32.824 35.3574 32.9008 35.264 32.9572 35.1584C33.0137 35.0527 33.0487 34.937 33.0603 34.8178C33.0719 34.6986 33.0599 34.5782 33.0248 34.4637C32.9898 34.3492 32.9325 34.2427 32.8562 34.1503C32.7798 34.058 32.6861 33.9817 32.5802 33.9257C32.4743 33.8697 32.3584 33.8352 32.2391 33.8242C32.1198 33.8131 31.9996 33.8258 31.8852 33.8613C31.7708 33.8969 31.6646 33.9547 31.5726 34.0314Z" fill="#FD5D07"/>
<path d="M38.464 24.9646C38.2343 24.8916 37.9851 24.9128 37.7709 25.0234C37.5568 25.134 37.3953 25.325 37.3218 25.5545C37.1478 26.1 36.9445 26.6449 36.7176 27.1745C36.6681 27.2846 36.6409 27.4035 36.6378 27.5242C36.6346 27.645 36.6556 27.7651 36.6994 27.8776C36.7432 27.9902 36.809 28.0928 36.8929 28.1797C36.9768 28.2665 37.0772 28.3357 37.1882 28.3833C37.2992 28.4309 37.4185 28.4559 37.5393 28.4569C37.66 28.4578 37.7798 28.4347 37.8915 28.3889C38.0032 28.3431 38.1047 28.2754 38.19 28.19C38.2753 28.1045 38.3427 28.0029 38.3883 27.891C38.6387 27.3081 38.8624 26.7074 39.0538 26.1068C39.0901 25.9931 39.1037 25.8733 39.0937 25.7544C39.0838 25.6354 39.0504 25.5195 38.9957 25.4134C38.9409 25.3074 38.8657 25.2131 38.7745 25.1361C38.6833 25.0591 38.5778 25.0008 38.464 24.9646Z" fill="#FD5D07"/>
<path d="M27.1575 36.7258C26.6331 36.9505 26.088 37.1533 25.537 37.3291C25.4233 37.3654 25.3178 37.4237 25.2266 37.5007C25.1354 37.5777 25.0602 37.672 25.0054 37.778C24.9507 37.8841 24.9173 37.9999 24.9073 38.1189C24.8972 38.2378 24.9107 38.3576 24.947 38.4714C24.9833 38.5851 25.0416 38.6906 25.1186 38.7818C25.1956 38.873 25.2899 38.9482 25.3959 39.0029C25.502 39.0577 25.6178 39.0911 25.7368 39.1011C25.8558 39.1111 25.9755 39.0976 26.0893 39.0614C26.6953 38.8683 27.2955 38.645 27.8731 38.3977C28.0948 38.3028 28.2697 38.1236 28.3593 37.8997C28.449 37.6758 28.446 37.4255 28.351 37.2037C28.2561 36.982 28.0769 36.8071 27.853 36.7175C27.6291 36.6278 27.3788 36.6308 27.1571 36.7258H27.1575Z" fill="#FD5D07"/>
<path d="M12.3131 18.146C12.3131 16.656 11.3329 15.4619 9.81674 15.1039C8.98365 14.9066 8.10828 14.9975 7.33351 15.3617C6.55874 15.726 5.93033 16.3422 5.55084 17.1096C5.49743 17.2164 5.46559 17.3327 5.45712 17.4518C5.44866 17.5709 5.46374 17.6905 5.5015 17.8038C5.53926 17.9171 5.59897 18.0219 5.67721 18.1121C5.75545 18.2023 5.8507 18.2762 5.95751 18.3296C6.06432 18.383 6.1806 18.4149 6.29971 18.4233C6.41883 18.4318 6.53845 18.4167 6.65174 18.3789C6.76502 18.3412 6.86977 18.2815 6.95998 18.2032C7.05019 18.125 7.12411 18.0297 7.17752 17.9229C7.37165 17.5201 7.69818 17.1961 8.10253 17.0051C8.50688 16.8141 8.96454 16.7677 9.39899 16.8737C9.65607 16.9343 10.4946 17.2055 10.4946 18.146C10.4946 19.0943 9.39942 19.8257 8.23984 20.6002C6.93425 21.4716 5.45494 22.4595 5.45494 24.0949C5.45494 24.3361 5.55074 24.5673 5.72125 24.7379C5.89177 24.9084 6.12303 25.0042 6.36418 25.0042H11.4039C11.645 25.0042 11.8763 24.9084 12.0468 24.7379C12.2173 24.5673 12.3131 24.3361 12.3131 24.0949C12.3131 23.8538 12.2173 23.6225 12.0468 23.452C11.8763 23.2815 11.645 23.1857 11.4039 23.1857H7.80171C8.18256 22.8248 8.72109 22.4652 9.2494 22.1123C10.6857 21.1534 12.3131 20.0666 12.3131 18.146Z" fill="#FD5D07"/>
<path d="M20.9116 21.1387C20.9116 20.8976 20.8158 20.6663 20.6452 20.4959C20.4747 20.3254 20.2435 20.2296 20.0024 20.2296H19.2636V15.3994C19.2636 15.2111 19.2051 15.0274 19.0962 14.8738C18.9873 14.7202 18.8334 14.6041 18.6558 14.5417C18.4781 14.4792 18.2855 14.4735 18.1044 14.5252C17.9234 14.577 17.7628 14.6836 17.645 14.8305L13.0422 20.57C12.9351 20.7037 12.8679 20.865 12.8484 21.0352C12.829 21.2054 12.858 21.3776 12.9321 21.5321C13.0062 21.6865 13.1225 21.8169 13.2675 21.9082C13.4125 21.9994 13.5803 22.0479 13.7516 22.048H17.4452V24.6051C17.444 24.7252 17.4667 24.8444 17.5119 24.9557C17.557 25.0671 17.6238 25.1683 17.7084 25.2537C17.7929 25.3391 17.8935 25.4068 18.0044 25.4531C18.1153 25.4993 18.2343 25.5231 18.3544 25.5231C18.4745 25.5231 18.5935 25.4993 18.7044 25.4531C18.8153 25.4068 18.9159 25.3391 19.0004 25.2537C19.085 25.1683 19.1518 25.0671 19.1969 24.9557C19.2421 24.8444 19.2648 24.7252 19.2636 24.6051V22.048H20.0024C20.2435 22.048 20.4748 21.9522 20.6453 21.7816C20.8158 21.6111 20.9116 21.3799 20.9116 21.1387ZM17.4452 20.2296H15.6467L17.4452 17.9863V20.2296Z" fill="#FD5D07"/>
<path d="M25.5657 13.9965C25.4486 13.9728 25.328 13.9725 25.2107 13.9956C25.0935 14.0186 24.982 14.0646 24.8826 14.1309C24.7832 14.1972 24.6979 14.2824 24.6315 14.3817C24.5651 14.481 24.519 14.5925 24.4958 14.7097L22.4501 24.9382C22.4266 25.0553 22.4265 25.1758 22.4496 25.293C22.4728 25.4101 22.5188 25.5215 22.585 25.6209C22.6512 25.7202 22.7363 25.8056 22.8355 25.872C22.9347 25.9385 23.046 25.9847 23.163 26.0082C23.2801 26.0316 23.4006 26.0318 23.5178 26.0086C23.6349 25.9855 23.7463 25.9395 23.8457 25.8733C23.945 25.8071 24.0304 25.722 24.0968 25.6228C24.1633 25.5236 24.2095 25.4123 24.233 25.2952L26.2787 15.0667C26.3022 14.9496 26.3024 14.829 26.2793 14.7118C26.2562 14.5946 26.2102 14.4832 26.144 14.3838C26.0778 14.2844 25.9926 14.199 25.8934 14.1326C25.7942 14.0661 25.6828 14.0199 25.5657 13.9965Z" fill="#FD5D07"/>
<path d="M30.2312 25.0037C30.4108 25.0036 30.5863 24.9504 30.7357 24.8508C30.885 24.7511 31.0016 24.6096 31.0707 24.4438L34.4803 16.261C34.5379 16.1228 34.5605 15.9725 34.5461 15.8235C34.5317 15.6744 34.4807 15.5313 34.3976 15.4067C34.3145 15.2821 34.202 15.18 34.07 15.1094C33.9379 15.0388 33.7905 15.0019 33.6407 15.002H29.0379C28.7968 15.002 28.5655 15.0977 28.395 15.2683C28.2245 15.4388 28.1287 15.67 28.1287 15.9112C28.1287 16.1523 28.2245 16.3836 28.395 16.5541C28.5655 16.7246 28.7968 16.8204 29.0379 16.8204H32.2769L29.3921 23.7446C29.3348 23.8827 29.3124 24.0329 29.327 24.1818C29.3415 24.3307 29.3925 24.4737 29.4755 24.5982C29.5584 24.7227 29.6708 24.8248 29.8026 24.8955C29.9344 24.9662 30.0816 25.0034 30.2312 25.0037Z" fill="#FD5D07"/>
</svg>
