<svg width="50" height="51" viewBox="0 0 50 51" fill="none" xmlns="http://www.w3.org/2000/svg">
<path d="M44.5312 2.0625H5.46875C3.3125 2.0625 1.5625 3.8125 1.5625 5.96875V38.7812C1.5625 40.9375 3.3125 42.6875 5.46875 42.6875H32.5312C32.9609 42.6875 33.3125 42.3359 33.3125 41.9062C33.3125 41.4766 32.9609 41.125 32.5312 41.125H5.46875C4.17969 41.125 3.125 40.0703 3.125 38.7812V8.3125H46.875V38.7812C46.875 39.25 46.7344 39.7031 46.4766 40.0859C46.2344 40.4453 46.3281 40.9297 46.6875 41.1719C47.0469 41.4141 47.5312 41.3203 47.7734 40.9609C48.2109 40.3125 48.4375 39.5625 48.4375 38.7812V5.96875C48.4375 3.8125 46.6875 2.0625 44.5312 2.0625ZM3.125 5.96875C3.125 4.67969 4.17969 3.625 5.46875 3.625H34.375V6.75H3.125V5.96875ZM35.9375 6.75V3.625H44.5312C45.8203 3.625 46.875 4.67969 46.875 5.96875V6.75H35.9375Z" fill="#FD5D07"/>
<path d="M39.625 37.1953C38.5781 36.3047 37.0859 36.2188 35.9375 36.8906L33.8047 34.7578C35.6094 32.6953 36.7109 30.0078 36.7109 27.0547C36.7109 25.8828 36.5391 24.7344 36.2031 23.6328C36.125 23.2813 35.8125 23.0234 35.4375 23.0234C35.0078 23.0234 34.6563 23.375 34.6563 23.8125C34.6563 23.8906 34.6719 23.9688 34.6953 24.0469C35 25.0156 35.1484 26.0234 35.1484 27.0547C35.1484 32.6563 30.5938 37.2109 24.9922 37.2109C19.3906 37.2109 14.8359 32.6563 14.8359 27.0547C14.8359 21.4531 19.3906 16.8984 24.9922 16.8984C27.3281 16.8984 29.5234 17.6719 31.3359 19.1328C31.6719 19.4063 32.1641 19.3516 32.4375 19.0156C32.7109 18.6797 32.6562 18.1875 32.3203 17.9141C30.2188 16.2266 27.6875 15.3359 24.9922 15.3359C18.5312 15.3359 13.2734 20.5938 13.2734 27.0547C13.2734 33.5156 18.5312 38.7734 24.9922 38.7734C27.9453 38.7734 30.6328 37.6719 32.6953 35.8594L34.8203 37.9844C34.1484 39.125 34.2266 40.6172 35.125 41.6719L40.3594 47.8125C40.9375 48.4844 41.7734 48.8906 42.6563 48.9297H42.7812C43.625 48.9297 44.4375 48.5937 45.0313 48L45.9297 47.1016C46.5547 46.4766 46.8906 45.6094 46.8594 44.7266C46.8281 43.8438 46.4219 43.0078 45.7422 42.4297L39.6016 37.1953H39.625ZM44.8438 46L43.9453 46.8984C43.625 47.2188 43.1953 47.3906 42.7344 47.375C42.2813 47.3594 41.8672 47.1562 41.5703 46.8047L36.3359 40.6641C35.7891 40.0234 35.8281 39.0625 36.4219 38.4687C36.7344 38.1562 37.1484 38 37.5625 38C37.9375 38 38.3125 38.125 38.6094 38.3828L44.75 43.6172C45.1016 43.9141 45.2969 44.3281 45.3203 44.7813C45.3359 45.2344 45.1719 45.6641 44.8516 45.9922L44.8438 46Z" fill="#FD5D07"/>
<path d="M23.9922 23.3828C23.6875 23.0781 23.1953 23.0781 22.8906 23.3828L18.2031 28.0703C17.8984 28.375 17.8984 28.8672 18.2031 29.1719C18.3594 29.3281 18.5547 29.3984 18.7578 29.3984C18.9609 29.3984 19.1563 29.3203 19.3125 29.1719L23.4453 25.0391L26.7969 28.3906C26.9453 28.5391 27.1563 28.6094 27.3594 28.6172C27.5703 28.6172 27.7734 28.5234 27.9141 28.375L39.8438 15.7422V18.4688C39.8438 18.8984 40.1953 19.25 40.625 19.25C41.0547 19.25 41.4062 18.8984 41.4062 18.4688V13.7812C41.4062 13.3516 41.0547 13 40.625 13H35.9375C35.5078 13 35.1562 13.3516 35.1562 13.7812C35.1562 14.2109 35.5078 14.5625 35.9375 14.5625H38.8125L27.3281 26.7266L23.9922 23.3906V23.3828Z" fill="#FD5D07"/>
</svg>
