<svg width="100" height="100" viewBox="0 0 100 100" fill="none" xmlns="http://www.w3.org/2000/svg">
<g clip-path="url(#clip0_380_731)">
<path d="M98.5352 82.4024C97.726 82.4024 97.0703 83.0582 97.0703 83.8672V93.6549C97.0703 93.7908 96.9598 93.9016 96.8236 93.9016H91.2576V72.4999C91.2576 71.6909 90.602 71.035 89.7928 71.035C88.9836 71.035 88.328 71.6909 88.328 72.4999V93.9018H77.5721L80.4832 90.6992C80.9329 90.2045 81.1448 89.502 81.0504 88.8197C81.0483 88.8051 81.0461 88.7906 81.0436 88.776L77.7711 69.4409L78.3733 68.5344L78.5301 68.6458C79.067 69.0272 79.7518 69.1663 80.4143 69.0008C81.0649 68.8382 81.61 68.4005 81.9096 67.8005V67.8003L85.2395 61.1263L92.8459 64.0721C93.1461 64.2026 97.0695 66.0016 97.0695 70.6825V77.0309C97.0697 77.8401 97.7254 78.4959 98.5346 78.4959C99.3438 78.4959 99.9994 77.8401 99.9994 77.0311V70.6827C99.9994 63.9229 94.2016 61.4618 93.9549 61.3602C93.9455 61.3563 93.9363 61.3526 93.927 61.3491L80.9745 56.3327V53.6647C82.9963 52.0382 84.4162 49.6939 84.8426 47.0214C85.851 46.8948 86.7866 46.4911 87.5629 45.8234C88.6762 44.8659 89.3151 43.4728 89.3151 42.0015C89.3151 40.8271 88.9074 39.7033 88.1776 38.8107V34.8579C88.1776 27.1224 81.8842 20.8293 74.1491 20.8293C70.6762 20.8293 67.4966 22.1004 65.044 24.1984C65.0124 23.0759 64.6106 22.0064 63.9104 21.1502V17.1976C63.9104 9.4621 57.6171 3.16895 49.8819 3.16895C42.1464 3.16895 35.8533 9.46229 35.8533 17.1976V21.2533C35.1492 22.0947 34.7552 23.1091 34.7204 24.1859C33.1556 22.8486 31.2828 21.8418 29.1955 21.2922C28.4119 21.0859 27.6117 21.5533 27.4056 22.3357C27.1996 23.1181 27.6667 23.9195 28.4492 24.1255C33.315 25.4068 36.7134 29.8203 36.7134 34.8577V37.0486C36.6501 37.0355 36.447 37.0005 36.4392 36.9993C36.4193 36.5859 36.3146 36.3333 36.0892 36.0091C35.7142 35.4702 35.0408 34.799 32.8747 32.4708C32.1029 31.6417 30.8544 31.4896 29.9068 32.1091C26.1968 34.5326 21.6896 35.7677 17.5068 35.5222C16.1443 35.4423 15.2933 36.041 14.9306 37.022C14.8982 37.0273 14.5359 37.1003 14.5158 37.1052V34.8577C14.5158 30.0005 17.7615 25.6308 22.4086 24.231C23.1832 23.9978 23.622 23.1806 23.3888 22.4058C23.1554 21.631 22.3371 21.1922 21.5634 21.4257C18.7373 22.2769 16.1968 24.0492 14.4107 26.4156C12.5625 28.8636 11.5857 31.783 11.5857 34.8579V38.9138C10.8478 39.7954 10.4488 40.8669 10.4488 42.0015C10.4488 44.5093 12.2965 46.6964 14.9289 47.0226C15.3601 49.6325 16.7761 52.1354 19.0109 53.8372V56.3335L6.07284 61.3495C6.06366 61.353 6.05448 61.3567 6.0453 61.3604C5.79804 61.4618 0 63.9227 0 70.6825V93.6549C0 95.4067 1.425 96.8315 3.17675 96.8315H48.2882C48.9187 96.8315 49.5052 96.6445 50.0001 96.3266C50.4946 96.6445 51.0813 96.8315 51.712 96.8315H96.8236C98.5752 96.8315 100 95.4067 100 93.6549V83.8672C100 83.0582 99.3443 82.4024 98.5352 82.4024ZM14.7855 43.9958C13.9267 43.6841 13.3781 42.8898 13.3781 42.0011C13.3781 41.1392 14.0031 40.431 14.7855 40.0948V43.9958ZM82.4957 60.0636L79.6204 65.8264C79.62 65.826 76.4264 63.5579 76.3811 63.5257C77.7588 61.8249 77.1116 62.6239 79.9764 59.088L82.4957 60.0636ZM74.2635 61.485L70.4751 56.8087V55.4034C71.7065 55.8292 73.0331 56.0257 74.2817 56.0261C74.2819 56.0261 74.2823 56.0261 74.2825 56.0261H74.2827C75.5737 56.0259 76.8807 55.7808 78.0448 55.3427V56.8177L74.2635 61.485ZM75.9835 66.8372L75.4446 67.6483H73.0831L72.5442 66.8372L74.2639 65.6159L75.9835 66.8372ZM49.9962 43.8245L46.2077 39.1482V37.7429C47.4343 38.1669 48.7595 38.3652 50.0144 38.3656C50.0146 38.3656 50.0149 38.3656 50.0151 38.3656H50.0153C51.304 38.3656 52.6108 38.1212 53.7774 37.6824V39.1572L49.9962 43.8245ZM51.7159 49.1771L51.1771 49.9882H48.8155L48.2767 49.1771L49.9964 47.9558L51.7159 49.1771ZM38.4605 29.2216C38.6999 29.2869 38.946 29.3312 39.1958 29.3621C39.6271 31.972 41.0431 34.4749 43.2778 36.1767V38.673L40.2894 39.8314C40.1161 39.4675 39.8995 39.1247 39.6425 38.8105V34.8579C39.6425 32.8701 39.2238 30.9591 38.4605 29.2216ZM57.7804 27.6705C57.7804 31.9581 54.2827 35.4353 50.0153 35.4353C45.2007 35.4353 41.9831 31.7038 41.9831 27.6705V20.8088C46.6087 20.9939 51.414 19.623 55.3427 17.1777C56.6636 18.5941 57.4495 19.417 57.7806 19.799C57.7804 23.4461 57.7804 24.8543 57.7804 27.6705ZM60.5755 29.3611C60.8239 29.3298 61.0688 29.2853 61.3069 29.2203C60.546 30.9468 60.1202 32.8531 60.1202 34.8579V38.9136C59.895 39.1825 59.7013 39.4691 59.5409 39.7697L56.7073 38.6724V36.0044C58.729 34.3777 60.1491 32.0333 60.5755 29.3611ZM44.2782 41.4298L47.8743 45.8685L45.422 47.6103C45.4206 47.6112 45.4196 47.6122 45.4183 47.6132L44.64 48.1661L41.7644 42.4034L44.2782 41.4298ZM53.3677 44.3173L55.7089 41.4275L58.2282 42.403L55.353 48.1661L54.5729 47.6122C54.5722 47.6116 54.5714 47.6109 54.5706 47.6103L52.1138 45.8652L53.3677 44.3173ZM54.106 50.8741L54.2628 50.9855C54.8104 51.3745 55.4977 51.503 56.147 51.3405C56.7975 51.1778 57.3427 50.7401 57.6423 50.1401V50.1399L60.1145 45.1851C60.9639 46.2319 62.1925 46.8687 63.4577 47.0267C63.9046 49.8274 65.4184 52.2177 67.5454 53.8372V56.3333L55.0915 61.1616L53.5036 51.7808L54.106 50.8741ZM68.5456 59.0901L72.1417 63.5288C70.5694 64.6458 68.9887 65.7686 68.9073 65.8264L66.0317 60.0638L68.5456 59.0901ZM82.0475 45.331C82.0479 49.514 78.6508 53.0958 74.2827 53.0958C69.3038 53.0958 66.2505 49.1962 66.2505 45.331V38.4693C70.843 38.6527 75.6545 37.2999 79.6098 34.8382C80.9307 36.2546 81.7166 37.0775 82.0477 37.4595C82.0475 41.1064 82.0475 42.5148 82.0475 45.331ZM86.3854 42.0013C86.3854 42.8915 85.835 43.6843 84.978 43.9958V40.0109C85.8639 40.3335 86.3854 41.1431 86.3854 42.0013ZM63.0501 34.8577C63.0501 28.7378 68.0292 23.7589 74.1489 23.7589C80.2688 23.7589 85.2475 28.738 85.2475 34.8577V37.0486C85.1809 37.0347 84.9977 37.0031 84.9733 36.9993C84.9534 36.5855 84.8481 36.3324 84.6233 36.0091C84.2383 35.4562 83.5723 34.7964 81.4088 32.4708C80.6534 31.6599 79.4077 31.4773 78.4409 32.1091C74.8315 34.4669 70.2713 35.7988 65.9321 35.5169C64.7132 35.437 63.8302 36.0339 63.4647 37.0222C63.4321 37.0275 63.0704 37.1005 63.0499 37.1054L63.0501 34.8577ZM63.3206 40.095V43.9939C62.4593 43.6833 61.9132 42.8868 61.9132 42.0011C61.913 41.1392 62.5376 40.4314 63.3206 40.095ZM62.1177 24.341C62.1177 24.9578 61.8507 25.5412 61.3852 25.9414C61.1854 26.1132 60.9577 26.2453 60.7102 26.3353V22.3504C61.5862 22.6683 62.1177 23.4736 62.1177 24.341ZM49.8814 6.09863C56.0013 6.09863 60.9802 11.0775 60.9802 17.1974V19.3882C60.9139 19.3746 60.7304 19.3427 60.7059 19.339C60.6843 18.8904 60.555 18.6146 60.2911 18.2578C59.8989 17.7269 59.1759 16.997 57.1415 14.8103C56.3733 13.9855 55.1257 13.8263 54.1735 14.4486C50.3618 16.9388 45.7378 18.1508 41.5466 17.8506C40.5212 17.773 39.5558 18.3925 39.1976 19.3615C39.165 19.3668 38.8031 19.4398 38.7827 19.4447V17.1976C38.7827 11.0775 43.7616 6.09863 49.8814 6.09863ZM39.0529 22.4345V26.3355C38.1941 26.0238 37.6454 25.2294 37.6454 24.3408C37.6454 23.4837 38.2656 22.773 39.0529 22.4345ZM36.4427 40.0109C37.2622 40.3091 37.7886 41.0241 37.8407 41.8739C37.9064 42.8189 37.3257 43.6734 36.4427 43.9941V40.0109ZM36.307 47.0263C37.6886 46.8534 38.9568 46.1253 39.7884 45.0052L42.3505 50.1399C42.3505 50.1399 42.3505 50.1399 42.3507 50.1401C42.6501 50.7403 43.1952 51.1778 43.8458 51.3405C44.489 51.5013 45.1771 51.3782 45.73 50.9855L45.8868 50.8741L46.489 51.7806L44.9017 61.1589L32.44 56.3325V53.6657H32.4398C34.5146 51.9929 35.8906 49.6292 36.307 47.0263ZM25.7285 61.485L21.94 56.8087V55.4034C23.1666 55.8274 24.4919 56.0257 25.7468 56.0259C25.747 56.0259 25.7474 56.0259 25.7476 56.0259C27.0574 56.0259 28.3621 55.7743 29.5097 55.3427V56.8177L25.7285 61.485ZM27.4484 66.8372L26.9095 67.6483H24.548L24.0091 66.8372L25.7289 65.6159L27.4484 66.8372ZM31.4412 59.088L33.9607 60.0638L31.0853 65.8264L30.3052 65.2725C30.3044 65.2719 30.3037 65.2712 30.3029 65.2706L27.846 63.5257L31.4412 59.088ZM17.7154 45.331V38.4693C22.3656 38.655 27.174 37.2659 31.0747 34.8382C32.3831 36.2413 33.1812 37.0771 33.5126 37.4595C33.5126 41.1066 33.5126 42.515 33.5126 45.331C33.5126 49.5913 30.039 53.0958 25.7476 53.0958C20.9697 53.0958 17.7154 49.4069 17.7154 45.331ZM20.0107 59.0901L23.6068 63.5288L21.1545 65.2706C21.1531 65.2716 21.1521 65.2725 21.1507 65.2735L20.3724 65.8264L17.4968 60.0638L20.0107 59.0901ZM11.6724 93.902V72.4999C11.6724 71.6909 11.0168 71.035 10.2076 71.035C9.39842 71.035 8.74276 71.6909 8.74276 72.4999V93.9018H3.17675C3.04042 93.9018 2.92988 93.791 2.92988 93.6551V70.6825C2.92988 65.9776 6.89413 64.1843 7.15077 64.0733L14.7525 61.1263L18.0828 67.8003C18.0828 67.8003 18.0828 67.8003 18.083 67.8005C18.3824 68.4007 18.9275 68.8382 19.5783 69.0008C20.2214 69.1616 20.9095 69.0385 21.4625 68.6458L21.6193 68.5344L22.2214 69.4409L18.949 88.776C18.9464 88.7905 18.9443 88.8051 18.9422 88.8197C18.848 89.5016 19.0599 90.2041 19.5097 90.6996L22.4205 93.9018H11.6724V93.902ZM21.8892 88.9612L25.0003 70.5782H26.4572L29.5685 88.9612L25.7289 93.1852L21.8892 88.9612ZM48.5349 93.6549C48.5349 93.791 48.4243 93.9018 48.2882 93.9018H42.7226V72.4999C42.7226 71.6909 42.0669 71.035 41.2577 71.035C40.4486 71.035 39.7929 71.6909 39.7929 72.4999V93.9018H29.0371L31.9482 90.6992C32.3978 90.2045 32.6097 89.502 32.5154 88.8197C32.5132 88.8051 32.5111 88.7906 32.5085 88.776L29.2361 69.4409L29.8382 68.5344L29.9951 68.6458C30.3871 68.9243 30.8511 69.0696 31.322 69.0696C32.1812 69.0696 32.9814 68.5882 33.3747 67.8005V67.8003L36.7046 61.1264L44.3111 64.0723C46.5282 65.0368 48.5347 67.5241 48.5347 70.6825L48.5349 93.6549ZM49.9999 65.3595C49.3931 64.3817 48.5853 63.477 47.6114 62.705L49.2679 52.9181H50.7247L52.3819 62.71C51.3821 63.504 50.5849 64.4169 49.9999 65.3595ZM60.2073 93.902V72.4999C60.2073 71.6909 59.5516 71.035 58.7425 71.035C57.9333 71.035 57.2776 71.6909 57.2776 72.4999V93.9018H51.7118C51.5757 93.9018 51.4649 93.791 51.4649 93.6551V70.6825C51.4649 68.9411 52.011 67.3372 53.1743 65.9897C53.9499 65.1001 54.9786 64.3798 55.686 64.0733L63.2878 61.1261L66.618 67.8003C66.618 67.8003 66.618 67.8003 66.6182 67.8005C66.9176 68.4007 67.4628 68.8382 68.1133 69.0008C68.7565 69.1616 69.4446 69.0385 69.9975 68.6458L70.1544 68.5344L70.7565 69.4409L67.4841 88.776C67.4815 88.7905 67.4794 88.8051 67.4772 88.8197C67.3831 89.5016 67.595 90.2041 68.0448 90.6996L70.9555 93.9018H60.2073V93.902ZM70.4241 88.9613L73.5354 70.5784H74.9922L78.1036 88.9613L74.2637 93.1854L70.4241 88.9613Z" fill="#FD5D07"/>
</g>
<defs>
<clipPath id="clip0_380_731">
<rect width="100" height="100" fill="white"/>
</clipPath>
</defs>
</svg>
