<svg width="100" height="100" viewBox="0 0 100 100" fill="none" xmlns="http://www.w3.org/2000/svg">
<path d="M47.0762 81.8467H50.1531V84.9236H47.0762V81.8467Z" fill="#FD5D07"/>
<path d="M47.0762 88.9238H50.1531V92.0008H47.0762V88.9238Z" fill="#FD5D07"/>
<path d="M87.2299 47.0771C92.3068 43.0771 95.076 37.2309 95.076 30.7694C95.076 19.0771 85.2299 9.69248 73.6914 10.154C68.7683 10.3079 63.9991 12.3079 60.4606 15.8463C57.3837 14.3079 53.5375 13.5386 49.2299 13.5386H49.076C48.7683 13.6925 27.8452 12.4617 29.2299 36.0002C28.6145 41.6925 31.5375 50.154 37.5375 55.6925V61.2309L32.6145 66.4617L18.1529 70.9232C12.6145 73.0771 8.61447 77.8463 7.53755 83.6925L5.07601 95.5386C4.76832 97.3848 6.15293 99.2309 8.15293 99.2309H89.5375C91.3837 99.2309 92.9222 97.5386 92.4606 95.5386L89.9991 83.8463C88.9222 78.0002 84.9222 73.2309 79.3837 71.0771L65.076 66.6156L59.9991 61.2309V55.5386C61.6914 54.0002 63.076 52.154 64.3068 50.154C66.1529 53.6925 65.3837 56.3079 65.5375 60.154C65.5375 61.8463 66.9222 63.2309 68.6145 63.2309H80.4606C82.1529 63.2309 83.5375 61.8463 83.5375 60.154C83.3837 54.9232 82.9222 50.4617 87.2299 47.0771ZM48.3068 16.6156C56.7683 16.6156 65.2299 19.3848 65.2299 27.8463V36.0002C61.6914 34.154 57.8452 29.3848 56.3068 26.154C55.8452 25.2309 54.4606 24.9233 53.8452 25.6925C50.6145 29.2309 45.2299 30.0002 40.9222 27.3848C40.1529 26.9232 39.076 27.2309 38.6145 28.154C37.8452 30.154 35.2299 35.0771 32.1529 36.4617C31.2299 23.2309 38.3068 16.6156 48.3068 16.6156ZM38.9222 64.154L46.4606 71.8463L40.9222 77.3848L35.2299 68.154L38.9222 64.154ZM86.9222 84.4617L89.3837 96.154H77.076V87.6925C77.076 86.7694 76.4606 86.154 75.5375 86.154C74.6145 86.154 73.9991 86.7694 73.9991 87.6925V96.154H23.3837V87.6925C23.3837 86.7694 22.7683 86.154 21.8452 86.154C20.9222 86.154 20.3068 86.7694 20.3068 87.6925V96.154H7.99908L10.4606 84.3079C11.3837 79.5386 14.6145 75.5386 19.076 73.8463L32.6145 69.6925L39.3837 80.4617C39.8452 81.2309 41.076 81.3848 41.8452 80.7694L48.7683 73.8463L55.6914 80.7694C56.4606 81.5386 57.5375 81.3848 58.1529 80.4617L64.9222 69.6925L78.4606 73.8463C82.7683 75.6925 85.9991 79.5386 86.9222 84.4617ZM56.4606 77.2309L50.9222 71.6925L58.4606 64.0002L62.1529 68.0002L56.4606 77.2309ZM56.9222 61.2309L48.7683 69.5386L40.6145 61.2309V58.154C43.2299 59.8463 45.9991 60.7694 48.7683 60.7694C51.6914 60.7694 54.4606 59.6925 56.9222 58.154V61.2309ZM48.6145 57.6925C40.4606 57.6925 33.3837 47.8463 32.3068 39.6925C36.4606 38.7694 39.5375 33.6925 40.7683 30.9233C45.2299 32.9233 50.6145 32.3079 54.4606 29.3848C56.6145 32.9233 60.7683 37.8463 64.9222 39.3848C63.9991 48.0002 56.7683 57.6925 48.6145 57.6925ZM68.3068 28.0002C68.3068 23.6925 66.4606 20.154 63.076 17.5386C66.1529 14.9233 69.8452 13.3848 73.6914 13.2309C83.8452 12.9233 91.9991 20.9233 91.9991 30.7694C91.9991 36.154 89.5375 41.2309 85.3837 44.6156C82.6145 46.7694 80.9222 50.0002 80.4606 53.5386H75.9991V38.6156L77.5375 39.5386C78.9222 40.4617 80.1529 38.6156 82.9222 37.2309C83.6914 36.7694 83.8452 35.8463 83.3837 35.0771C82.9222 34.3079 81.9991 34.154 81.2299 34.6156L78.1529 36.4617L75.076 34.6156C75.076 34.6156 75.076 34.6156 74.9222 34.6156C73.9991 34.154 72.7683 34.7694 72.7683 35.8463V36.0002V53.6925H68.3068C67.9991 51.3848 67.076 49.0771 65.6914 47.2309C69.5375 39.2309 67.8452 34.0002 68.3068 28.0002ZM80.3068 60.154H68.4606V56.6156H80.3068V60.154Z" fill="#FD5D07"/>
<path d="M75.9988 5.53876V2.30799C75.9988 1.38492 75.3834 0.769531 74.4603 0.769531C73.5373 0.769531 72.9219 1.38492 72.9219 2.30799V5.53876C72.9219 6.46184 73.5373 7.07722 74.4603 7.07722C75.3834 7.07722 75.9988 6.46184 75.9988 5.53876Z" fill="#FD5D07"/>
<path d="M65.8446 9.07689C66.6138 8.7692 67.0754 7.84612 66.6138 7.07689L65.2292 3.84612C65.0754 3.07689 64.1523 2.7692 63.3831 3.07689C62.6138 3.38459 62.1523 4.30766 62.6138 5.07689L63.9984 8.30766C64.1523 9.07689 65.0754 9.53843 65.8446 9.07689Z" fill="#FD5D07"/>
<path d="M85.0766 8.30766L86.4612 5.07689C86.7689 4.30766 86.4612 3.38459 85.692 3.07689C84.9227 2.7692 83.9997 3.07689 83.692 3.84612L82.3074 7.07689C81.9997 7.84612 82.3074 8.7692 83.0766 9.07689C83.8458 9.53843 84.7689 9.07689 85.0766 8.30766Z" fill="#FD5D07"/>
</svg>
