<svg width="44" height="35" viewBox="0 0 44 35" fill="none" xmlns="http://www.w3.org/2000/svg">
<path fill-rule="evenodd" clip-rule="evenodd" d="M4.07438 16.6875H14.75C15.7114 16.6875 16.6334 17.0694 17.3133 17.7492C17.9931 18.4291 18.375 19.3511 18.375 20.3125V31.1875C18.375 32.1489 17.9931 33.0709 17.3133 33.7508C16.6334 34.4306 15.7114 34.8125 14.75 34.8125H3.875C2.91359 34.8125 1.99156 34.4306 1.31174 33.7508C0.631918 33.0709 0.25 32.1489 0.25 31.1875V19.1344C0.2511 15.8526 1.06228 12.6219 2.61156 9.72881C4.16085 6.83576 6.40032 4.36989 9.13125 2.55L12.3756 0.375L14.3694 3.38375L11.125 5.55875C9.24059 6.82155 7.64027 8.46349 6.42626 10.3797C5.21224 12.2959 4.41123 14.4442 4.07438 16.6875ZM29.4494 16.6875H40.125C41.0864 16.6875 42.0084 17.0694 42.6883 17.7492C43.3681 18.4291 43.75 19.3511 43.75 20.3125V31.1875C43.75 32.1489 43.3681 33.0709 42.6883 33.7508C42.0084 34.4306 41.0864 34.8125 40.125 34.8125H29.25C28.2886 34.8125 27.3666 34.4306 26.6867 33.7508C26.0069 33.0709 25.625 32.1489 25.625 31.1875V19.1344C25.6261 15.8526 26.4373 12.6219 27.9866 9.72881C29.5358 6.83576 31.7753 4.36989 34.5062 2.55L37.7688 0.375L39.7444 3.38375L36.5 5.55875C34.6156 6.82155 33.0153 8.46349 31.8013 10.3797C30.5872 12.2959 29.7862 14.4442 29.4494 16.6875Z" fill="#FD5D07"/>
</svg>
