<svg width="30" height="20" viewBox="0 0 30 20" fill="none" xmlns="http://www.w3.org/2000/svg">
<path d="M15 0.332031C6.72896 0.332031 0 7.03475 0 15.2734C0 15.7588 0.393516 16.1523 0.878906 16.1523H6.21094C6.69633 16.1523 7.08984 15.7588 7.08984 15.2734C7.08984 10.9602 10.5983 7.36328 15 7.36328C16.7809 7.36328 18.426 7.95502 19.7495 8.95193L13.1111 13.1869C12.0925 13.8367 11.4844 14.9453 11.4844 16.1523C11.4844 18.0909 13.0615 19.668 15 19.668C16.3617 19.668 17.6131 18.8701 18.1882 17.6354L21.431 10.6729C22.3615 11.97 22.9102 13.5588 22.9102 15.2734C22.9102 15.7588 23.3037 16.1523 23.7891 16.1523H29.1211C29.6065 16.1523 30 15.7588 30 15.2734C30 7.03475 23.271 0.332031 15 0.332031ZM5.3724 14.3945H1.78793C1.98633 11.4088 3.18727 8.69178 5.05834 6.57479L7.57377 9.09022C6.35133 10.5559 5.55416 12.3877 5.3724 14.3945ZM14.1211 5.64584C12.1143 5.8276 10.2825 6.62477 8.81678 7.84727L6.30656 5.33705C8.42748 3.49545 11.1412 2.31496 14.1211 2.11961V5.64584ZM16.5947 16.8932C16.3071 17.511 15.681 17.9102 15 17.9102C14.0307 17.9102 13.2422 17.1216 13.2422 16.1523C13.2422 15.5487 13.5466 14.9941 14.0565 14.6688L19.1416 11.4248L16.5947 16.8932ZM21.1832 7.84727C19.7175 6.62482 17.8857 5.8276 15.8789 5.64584V2.11937C18.8587 2.31473 21.5722 3.49574 23.6931 5.3374L21.1832 7.84727ZM24.6276 14.3945C24.4458 12.3877 23.6487 10.5559 22.4262 9.09022L24.9417 6.57467C26.8129 8.69178 28.0146 11.4088 28.2131 14.3945H24.6276Z" fill="#001233"/>
</svg>
