<svg width="30" height="30" viewBox="0 0 30 30" fill="none" xmlns="http://www.w3.org/2000/svg">
<path d="M7.35131 17.1875C7.1831 17.1879 7.0179 17.1429 6.87311 17.0573C6.72832 16.9717 6.60929 16.8486 6.52856 16.701C5.71961 15.2219 5.30116 13.5609 5.31273 11.875C5.31273 9.13996 6.39923 6.51693 8.3332 4.58296C10.2672 2.64899 12.8902 1.5625 15.6252 1.5625C18.3603 1.5625 20.9833 2.64899 22.9173 4.58296C24.8512 6.51693 25.9377 9.13996 25.9377 11.875C25.9399 13.3627 25.6158 14.8328 24.988 16.1816C24.8829 16.4065 24.693 16.5805 24.4599 16.6655C24.2267 16.7506 23.9694 16.7398 23.7442 16.6354C23.519 16.5311 23.3444 16.3417 23.2586 16.1088C23.1728 15.876 23.1828 15.6186 23.2864 15.3931C23.7996 14.2914 24.0646 13.0904 24.0627 11.875C24.0627 9.63724 23.1738 7.49113 21.5914 5.90879C20.0091 4.32645 17.863 3.4375 15.6252 3.4375C13.3875 3.4375 11.2414 4.32645 9.65902 5.90879C8.07668 7.49113 7.18773 9.63724 7.18773 11.875C7.1769 13.2453 7.51552 14.5958 8.17162 15.799C8.24995 15.9416 8.2898 16.1022 8.28725 16.2649C8.28469 16.4276 8.23982 16.5868 8.15705 16.7269C8.07428 16.867 7.95646 16.9832 7.81518 17.0639C7.67391 17.1447 7.51404 17.1873 7.35131 17.1875Z" fill="#001233"/>
<path d="M15.6251 12.1874C15.0866 12.1873 14.5601 12.0276 14.1124 11.7283C13.6646 11.4291 13.3156 11.0038 13.1096 10.5062C12.9035 10.0087 12.8496 9.46118 12.9547 8.93298C13.0598 8.40478 13.3191 7.9196 13.6999 7.53879C14.0807 7.15797 14.5659 6.89863 15.0941 6.79355C15.6223 6.68847 16.1698 6.74237 16.6674 6.94844C17.1649 7.1545 17.5902 7.50348 17.8895 7.95125C18.1887 8.39901 18.3485 8.92545 18.3485 9.464C18.3485 9.71264 18.2497 9.9511 18.0739 10.1269C17.8981 10.3027 17.6597 10.4015 17.411 10.4015C17.1624 10.4015 16.9239 10.3027 16.7481 10.1269C16.5723 9.9511 16.4735 9.71264 16.4735 9.464C16.4735 9.2962 16.4238 9.13218 16.3305 8.99266C16.2373 8.85314 16.1048 8.7444 15.9498 8.68019C15.7948 8.61598 15.6242 8.59918 15.4596 8.63191C15.295 8.66465 15.1439 8.74545 15.0252 8.8641C14.9066 8.98275 14.8258 9.13392 14.793 9.29849C14.7603 9.46306 14.7771 9.63364 14.8413 9.78866C14.9055 9.94369 15.0143 10.0762 15.1538 10.1694C15.2933 10.2626 15.4573 10.3124 15.6251 10.3124C15.8738 10.3124 16.1122 10.4112 16.288 10.587C16.4639 10.7628 16.5626 11.0012 16.5626 11.2499C16.5626 11.4985 16.4639 11.737 16.288 11.9128C16.1122 12.0886 15.8738 12.1874 15.6251 12.1874Z" fill="#001233"/>
<path d="M15.6252 15.7587C14.9033 15.7579 14.2111 15.4708 13.7006 14.9604C13.19 14.4499 12.9028 13.7578 12.9019 13.0359C12.9019 12.7873 13.0006 12.5488 13.1764 12.373C13.3523 12.1972 13.5907 12.0984 13.8394 12.0984C14.088 12.0984 14.3265 12.1972 14.5023 12.373C14.6781 12.5488 14.7769 12.7873 14.7769 13.0359C14.7769 13.2037 14.8266 13.3677 14.9198 13.5072C15.0131 13.6467 15.1456 13.7555 15.3006 13.8197C15.4556 13.8839 15.6262 13.9007 15.7908 13.868C15.9553 13.8352 16.1065 13.7544 16.2251 13.6358C16.3438 13.5171 16.4246 13.366 16.4573 13.2014C16.4901 13.0368 16.4733 12.8663 16.4091 12.7112C16.3448 12.5562 16.2361 12.4237 16.0966 12.3305C15.9571 12.2373 15.793 12.1875 15.6252 12.1875C15.3766 12.1875 15.1381 12.0887 14.9623 11.9129C14.7865 11.7371 14.6877 11.4986 14.6877 11.25C14.6877 11.0014 14.7865 10.7629 14.9623 10.5871C15.1381 10.4113 15.3766 10.3125 15.6252 10.3125C15.9833 10.3117 16.3381 10.3816 16.6691 10.5181C17.0002 10.6546 17.301 10.8551 17.5545 11.108C17.808 11.361 18.0091 11.6614 18.1463 11.9922C18.2835 12.3229 18.3542 12.6775 18.3542 13.0356C18.3542 13.3937 18.2835 13.7483 18.1463 14.079C18.0091 14.4098 17.808 14.7102 17.5545 14.9632C17.301 15.2161 17.0002 15.4166 16.6691 15.5531C16.3381 15.6896 15.9833 15.7594 15.6252 15.7587Z" fill="#001233"/>
<path d="M15.625 8.61634C15.3764 8.61627 15.138 8.51748 14.9622 8.34168C14.7864 8.16588 14.6876 7.92746 14.6875 7.67884V6.25C14.6875 6.00136 14.7863 5.7629 14.9621 5.58709C15.1379 5.41127 15.3764 5.3125 15.625 5.3125C15.8736 5.3125 16.1121 5.41127 16.2879 5.58709C16.4637 5.7629 16.5625 6.00136 16.5625 6.25V7.67884C16.5624 7.92746 16.4636 8.16588 16.2878 8.34168C16.112 8.51748 15.8736 8.61627 15.625 8.61634Z" fill="#001233"/>
<path d="M15.625 17.1876C15.3764 17.1876 15.138 17.0888 14.9622 16.913C14.7864 16.7372 14.6876 16.4987 14.6875 16.2501V14.8213C14.6875 14.6982 14.7117 14.5763 14.7589 14.4625C14.806 14.3488 14.875 14.2454 14.9621 14.1584C15.0491 14.0713 15.1525 14.0023 15.2662 13.9552C15.38 13.908 15.5019 13.8838 15.625 13.8838C15.7481 13.8838 15.87 13.908 15.9838 13.9552C16.0975 14.0023 16.2009 14.0713 16.2879 14.1584C16.375 14.2454 16.444 14.3488 16.4911 14.4625C16.5383 14.5763 16.5625 14.6982 16.5625 14.8213V16.2501C16.5624 16.4987 16.4636 16.7372 16.2878 16.913C16.112 17.0888 15.8736 17.1876 15.625 17.1876Z" fill="#001233"/>
<path d="M16.6028 28.4374H3.75C3.17006 28.4367 2.61407 28.206 2.20398 27.7959C1.7939 27.3858 1.5632 26.8298 1.5625 26.2499V17.4999C1.5632 16.9199 1.7939 16.364 2.20398 15.9539C2.61407 15.5438 3.17006 15.3131 3.75 15.3124H9.30786C9.76698 15.3122 10.2215 15.4041 10.6445 15.5825C11.0676 15.7608 11.4506 16.0221 11.771 16.351C12.0914 16.6798 12.3427 17.0695 12.5101 17.497C12.6774 17.9245 12.7574 18.3813 12.7454 18.8402L12.7124 20.0621H13.6645C14.3753 20.0621 15.0735 19.8756 15.6897 19.5214L23.2678 15.1641C24.0595 14.709 24.9928 14.5667 25.8842 14.7651C26.7755 14.9636 27.5603 15.4884 28.0841 16.2364C28.6079 16.9844 28.8328 17.9014 28.7145 18.8068C28.5963 19.7123 28.1434 20.5407 27.4451 21.1291L20.4297 27.0409C19.358 27.9421 18.003 28.4366 16.6028 28.4374ZM3.75 17.1874C3.66717 17.1875 3.58778 17.2205 3.5292 17.2791C3.47063 17.3377 3.43766 17.4171 3.4375 17.4999V26.2499C3.43766 26.3327 3.47063 26.4121 3.5292 26.4707C3.58778 26.5293 3.66717 26.5622 3.75 26.5624H16.6028C17.5609 26.5619 18.4881 26.2234 19.2212 25.6066L26.2366 19.6947C26.4622 19.5048 26.6372 19.2618 26.7456 18.9876C26.8541 18.7133 26.8927 18.4164 26.858 18.1235C26.8232 17.8306 26.7162 17.5509 26.5466 17.3097C26.377 17.0684 26.1501 16.8731 25.8862 16.7412C25.6236 16.6091 25.3322 16.5444 25.0384 16.553C24.7445 16.5615 24.4574 16.643 24.2029 16.7901L16.6248 21.1474C15.7238 21.6643 14.7033 21.9366 13.6645 21.9372H8.97339C8.72475 21.9372 8.48629 21.8384 8.31047 21.6626C8.13466 21.4868 8.03589 21.2483 8.03589 20.9997C8.03589 20.751 8.13466 20.5126 8.31047 20.3368C8.48629 20.161 8.72475 20.0622 8.97339 20.0622H10.8374L10.8704 18.7914C10.8758 18.5828 10.8394 18.3752 10.7633 18.1809C10.6872 17.9866 10.573 17.8094 10.4274 17.6599C10.2817 17.5105 10.1077 17.3916 9.91539 17.3105C9.72312 17.2293 9.51655 17.1875 9.30786 17.1874L3.75 17.1874Z" fill="#001233"/>
</svg>
