<svg width="30" height="30" viewBox="0 0 30 30" fill="none" xmlns="http://www.w3.org/2000/svg">
<g clip-path="url(#clip0_199_9552)">
<path d="M19.7871 2.69555C21.498 3.26391 22.9863 4.33617 24.2578 5.59008H22.9805C22.5234 5.59008 22.1543 5.95922 22.1543 6.41625C22.1543 6.87328 22.5234 7.24242 22.9805 7.24242L26.0391 7.23656C26.4961 7.23656 26.8652 6.86742 26.8652 6.41039L26.8594 3.3518C26.8594 2.89477 26.4902 2.52562 26.0332 2.52562C25.5762 2.52562 25.207 2.89477 25.207 3.3518V4.21898C23.8184 2.90062 22.1836 1.8518 20.3848 1.15453C11.2148 -2.40797 3.16406 3.885 1.14257 9.61547C0.25195 12.1291 -0.111332 14.801 0.328122 17.426C0.398434 17.8713 0.820309 18.1819 1.27734 18.1057C1.72851 18.0295 2.0332 17.6077 1.95703 17.1565C1.57031 14.8245 1.77539 12.4045 2.68359 10.2131C4.74609 5.23266 10.834 -0.275157 19.7871 2.69555Z" fill="#001233"/>
<path d="M29.6719 12.5747C29.5957 12.1235 29.1738 11.8188 28.7227 11.895C28.2715 11.9711 27.9668 12.393 28.043 12.8442C28.4297 15.1762 28.2246 17.5961 27.3164 19.7876C25.248 24.768 19.1602 30.2758 10.207 27.3051C8.49609 26.7368 7.00781 25.6645 5.73633 24.4106H7.01367C7.4707 24.4106 7.83984 24.0415 7.83984 23.5844C7.83984 23.1274 7.4707 22.7583 7.01367 22.7583L3.95508 22.7641C3.49805 22.7641 3.12891 23.1333 3.12891 23.5903L3.13477 26.6489C3.13477 27.1059 3.50391 27.475 3.96094 27.475C4.41797 27.475 4.78711 27.1059 4.78711 26.6489V25.7817C6.17578 27.1001 7.81055 28.1489 9.60937 28.8461C18.7793 32.4145 26.8359 26.1157 28.8574 20.3911C29.748 17.8715 30.1113 15.1997 29.6719 12.5747Z" fill="#001233"/>
<path d="M15.0352 5.22656C9.65039 5.22656 5.26758 9.60937 5.26758 14.9941C5.26758 20.3789 9.65039 24.7617 15.0352 24.7617C20.4199 24.7617 24.8086 20.3789 24.8086 14.9941C24.8086 9.60937 20.4199 5.22656 15.0352 5.22656ZM21.2402 9.77344H18.5742C18.3457 8.85938 18.0527 8.02734 17.6953 7.33594C19.0898 7.81641 20.3086 8.66602 21.2402 9.77344ZM15.0352 6.87891C15.6035 6.87891 16.3301 7.94531 16.8516 9.77344H13.2129C13.7344 7.94531 14.4668 6.87891 15.0352 6.87891ZM7.75195 11.4258H11.1621C11.0273 12.3105 10.9453 13.2363 10.9102 14.1738H6.94922C7.05469 13.1895 7.33594 12.2695 7.75195 11.4258ZM7.75195 18.5684C7.33594 17.7246 7.05469 16.7988 6.95508 15.8203H10.916C10.9453 16.7578 11.0273 17.6836 11.168 18.5684H7.75195ZM8.83008 20.2207H11.4961C11.7246 21.1348 12.0176 21.9668 12.375 22.6582C10.9805 22.1719 9.76172 21.3223 8.83008 20.2207ZM11.4961 9.77344H8.83008C9.76172 8.66602 10.9805 7.82227 12.375 7.33594C12.0176 8.02734 11.7246 8.85352 11.4961 9.77344ZM15.0352 23.1152C14.4668 23.1152 13.7402 22.0488 13.2188 20.2207H16.8574C16.3301 22.0488 15.5977 23.1152 15.0352 23.1152ZM17.2207 18.5684H12.8437C12.7031 17.7422 12.6035 16.8223 12.5684 15.8203H17.4961C17.4609 16.8223 17.3613 17.7422 17.2207 18.5684ZM12.5684 14.168C12.6035 13.166 12.7031 12.252 12.8437 11.4199H17.2207C17.3613 12.2461 17.4609 13.166 17.4961 14.168H12.5684ZM17.6953 22.6582C18.0527 21.9668 18.3457 21.1348 18.5742 20.2207H21.2402C20.3086 21.3223 19.0898 22.1719 17.6953 22.6582ZM22.3125 18.5684H18.9023C19.0371 17.6836 19.1191 16.7578 19.1543 15.8203H23.1152C23.0098 16.7988 22.7285 17.7246 22.3125 18.5684ZM23.1094 14.168H19.1484C19.1191 13.2305 19.0371 12.3047 18.8965 11.4199H22.3066C22.7285 12.2695 23.0098 13.1895 23.1094 14.168Z" fill="#001233"/>
</g>
<defs>
<clipPath id="clip0_199_9552">
<rect width="30" height="30" fill="white"/>
</clipPath>
</defs>
</svg>
