<svg width="30" height="30" viewBox="0 0 30 30" fill="none" xmlns="http://www.w3.org/2000/svg">
<path d="M20 16.25L28.705 21.3275L24.9887 22.39L27.645 26.9913L25.48 28.2413L22.8238 23.6413L20.045 26.3288L20 16.25ZM17.5 7.5H20V10H26.25C26.5815 10 26.8995 10.1317 27.1339 10.3661C27.3682 10.6005 27.5 10.9185 27.5 11.25V16.25H25V12.5H12.5V25H17.5V27.5H11.25C10.9185 27.5 10.6005 27.3682 10.3661 27.1339C10.1317 26.8995 10 26.5815 10 26.25V20H7.5V17.5H10V11.25C10 10.9185 10.1317 10.6005 10.3661 10.3661C10.6005 10.1317 10.9185 10 11.25 10H17.5V7.5ZM5 17.5V20H2.5V17.5H5ZM5 12.5V15H2.5V12.5H5ZM5 7.5V10H2.5V7.5H5ZM5 2.5V5H2.5V2.5H5ZM10 2.5V5H7.5V2.5H10ZM15 2.5V5H12.5V2.5H15ZM20 2.5V5H17.5V2.5H20Z" fill="#001233"/>
</svg>
