<svg width="24" height="24" viewBox="0 0 24 24" fill="none" xmlns="http://www.w3.org/2000/svg">
<g clip-path="url(#clip0_199_9559)">
<path d="M24 12C24 10.9001 23.5959 9.84267 22.8621 9.02255C21.9054 7.95347 22.125 6.81642 22.125 6.375C22.125 3.89367 20.1063 1.875 17.625 1.875C17.2619 1.875 16.0681 2.11387 14.9775 1.13794C14.1573 0.404156 13.1 0 12 0C10.9 0 9.84267 0.404156 9.02259 1.13789C7.93458 2.11144 6.7448 1.875 6.375 1.875C3.7508 1.875 1.66552 4.12556 1.89164 6.76458C1.96223 7.58536 1.68755 8.40834 1.13789 9.02259C0.404109 9.84267 0 10.9001 0 12C0 13.0999 0.404109 14.1573 1.13789 14.9775C2.09461 16.0465 1.875 17.1836 1.875 17.625C1.875 20.2583 4.13536 22.3346 6.76462 22.1083C7.56131 22.0398 8.38406 22.2908 9.02259 22.8621C9.84267 23.5958 10.9 24 12 24C13.1 24 14.1573 23.5958 14.9774 22.8621C16.0676 21.8866 17.2615 22.125 17.625 22.125C20.2492 22.125 22.3345 19.8744 22.1084 17.2354C22.0378 16.4146 22.3125 15.5917 22.8621 14.9774C23.5959 14.1573 24 13.0999 24 12ZM21.4648 13.7271C20.5718 14.725 20.1255 16.0623 20.2402 17.3961C20.3732 18.9417 19.1512 20.25 17.625 20.25C17.3177 20.25 15.4375 19.9344 13.7271 21.4648C13.2513 21.8905 12.638 22.125 12 22.125C11.362 22.125 10.7487 21.8905 10.2728 21.4648C9.26859 20.5662 7.94339 20.125 6.60394 20.2402C5.05847 20.3728 3.75 19.1518 3.75 17.625C3.75 17.2657 4.04006 15.4088 2.53519 13.7271C2.10947 13.2513 1.875 12.638 1.875 12C1.875 11.362 2.10947 10.7487 2.53519 10.2729C3.42816 9.27497 3.8745 7.93772 3.7598 6.60394C3.62677 5.05833 4.8488 3.75 6.375 3.75C6.68222 3.75 8.56256 4.06552 10.2729 2.53519C10.7487 2.10947 11.362 1.875 12 1.875C12.638 1.875 13.2513 2.10947 13.7272 2.53523C15.4417 4.06936 17.3756 3.75 17.625 3.75C19.0725 3.75 20.25 4.92759 20.25 6.375C20.25 6.7343 19.9599 8.59116 21.4648 10.2729C21.8905 10.7487 22.125 11.362 22.125 12C22.125 12.638 21.8905 13.2513 21.4648 13.7271Z" fill="#001233"/>
<path d="M11.0624 12.549L9.85032 11.3369L8.52441 12.6627L11.0624 15.2006L15.4753 10.7877L14.1494 9.46191L11.0624 12.549Z" fill="#001233"/>
<path d="M12 4.5C7.86445 4.5 4.5 7.8645 4.5 12C4.5 16.1355 7.86445 19.5 12 19.5C16.1355 19.5 19.5 16.1355 19.5 12C19.5 7.8645 16.1355 4.5 12 4.5ZM12 17.625C8.89838 17.625 6.375 15.1016 6.375 12C6.375 8.89838 8.89838 6.375 12 6.375C15.1016 6.375 17.625 8.89838 17.625 12C17.625 15.1016 15.1016 17.625 12 17.625Z" fill="#001233"/>
</g>
<defs>
<clipPath id="clip0_199_9559">
<rect width="24" height="24" fill="white"/>
</clipPath>
</defs>
</svg>
