<svg width="30" height="30" viewBox="0 0 30 30" fill="none" xmlns="http://www.w3.org/2000/svg">
<g clip-path="url(#clip0_199_9564)">
<path d="M21.8096 22.1158C22.1799 22.2786 22.6121 22.1104 22.7749 21.74L25.8658 14.7088C26.0785 14.2247 25.724 13.6816 25.1953 13.6816H21.3271C20.9226 13.6816 20.5947 14.0095 20.5947 14.4141C20.5947 14.8186 20.9226 15.1465 21.3271 15.1465H24.0732L21.4338 21.1506C21.2711 21.5209 21.4393 21.953 21.8096 22.1158Z" fill="#001233"/>
<path d="M14.6093 16.3115C14.6468 16.3186 14.6582 16.3186 14.6719 16.3186C15.0734 16.3186 15.4007 15.9948 15.4042 15.5925C15.4063 15.3432 15.4104 14.8516 15.415 14.2434H15.5865C15.9956 14.2434 16.3264 13.908 16.3188 13.4972C16.3114 13.094 15.9655 12.7785 15.5622 12.7785H15.4247C15.4348 11.0764 15.4403 9.23338 15.4192 8.98143C15.3745 8.44523 15.0541 8.00853 14.6028 7.86873C14.156 7.73027 13.6789 7.90553 13.327 8.33742C13.0366 8.69361 11.4315 11.5482 10.5357 13.1546C10.2634 13.6428 10.6166 14.2434 11.1755 14.2434H13.9499C13.9467 14.6845 13.9434 15.1092 13.9401 15.4957C13.9366 15.8936 14.2183 16.2376 14.6093 16.3115ZM12.4154 12.7785C13.0003 11.7315 13.5731 10.7248 13.969 10.0538C13.9696 10.7515 13.9656 11.7465 13.9595 12.7785H12.4154Z" fill="#001233"/>
<path d="M7.98794 11.6632C6.89482 13.225 6.24255 14.079 5.89216 14.5379C5.45816 15.1062 5.27851 15.3414 5.40431 15.7505C5.47784 15.9896 5.65907 16.1731 5.90165 16.254C5.99921 16.2865 6.09876 16.3199 7.43646 16.3199C7.96116 16.3199 8.67659 16.3147 9.65675 16.3024C10.0612 16.2973 10.385 15.9653 10.3799 15.5609C10.3749 15.1564 10.0419 14.8341 9.63835 14.8377C8.903 14.847 8.12124 14.8528 7.49118 14.8535C7.87767 14.3384 8.42845 13.5885 9.18806 12.5032C9.62517 11.8787 9.90999 11.2893 10.0347 10.7515C10.0541 10.6443 10.0841 10.428 10.0876 10.3194C10.0876 8.94246 8.96745 7.82227 7.59056 7.82227C6.40005 7.82227 5.36956 8.66924 5.14034 9.83607C5.06236 10.233 5.32093 10.6179 5.71784 10.6959C6.11476 10.7738 6.49972 10.5154 6.57771 10.1184C6.67234 9.63674 7.09831 9.28711 7.59056 9.28711C8.1462 9.28711 8.60066 9.72838 8.62204 10.2789L8.59972 10.4536C8.51253 10.8008 8.30687 11.2075 7.98794 11.6632Z" fill="#001233"/>
<path d="M28.8621 9.25833C28.6768 8.80973 28.1629 8.59633 27.7142 8.78167C27.2656 8.96706 27.0522 9.48098 27.2375 9.92958C29.2892 14.8952 28.1605 20.558 24.3621 24.3564C21.8609 26.8575 18.5355 28.235 14.9984 28.235C12.2495 28.235 9.62932 27.4018 7.42385 25.8568H9.15781C9.6432 25.8568 10.0367 25.4633 10.0367 24.9779C10.0367 24.4925 9.6432 24.099 9.15781 24.099H5.01465C4.52926 24.099 4.13574 24.4925 4.13574 24.9779V29.1211C4.13574 29.6065 4.52926 30 5.01465 30C5.50004 30 5.89355 29.6065 5.89355 29.1211V26.9147C8.49588 28.9108 11.6638 29.9928 14.9985 29.9928C19.0051 29.9928 22.772 28.4325 25.6051 25.5994C27.7426 23.4619 29.1699 20.7681 29.7327 17.8094C30.2817 14.9226 29.9807 11.9657 28.8621 9.25833Z" fill="#001233"/>
<path d="M2.76461 20.0689C0.709491 15.1019 1.83725 9.43676 5.63764 5.63637C8.13877 3.13523 11.4642 1.75781 15.0013 1.75781C17.7549 1.75781 20.3797 2.5933 22.5876 4.14322H20.8419C20.3565 4.14322 19.963 4.53674 19.963 5.02213C19.963 5.50752 20.3565 5.90104 20.8419 5.90104H24.9851C25.4705 5.90104 25.864 5.50752 25.864 5.02213V0.878906C25.864 0.393516 25.4705 0 24.9851 0C24.4997 0 24.1062 0.393516 24.1062 0.878906V3.07781C21.5039 1.08182 18.336 0 15.0013 0C10.9947 0 7.22781 1.56023 4.39469 4.39342C2.25625 6.53186 0.82873 9.22676 0.266464 12.1867C-0.282208 15.0751 0.0199604 18.033 1.14039 20.741C1.32596 21.1896 1.84 21.4027 2.28853 21.2171C2.73695 21.0316 2.95018 20.5175 2.76461 20.0689Z" fill="#001233"/>
<path d="M15.6079 20.9542C15.9838 21.1037 16.4096 20.9201 16.5592 20.5443L20.2879 11.1693C20.4374 10.7934 20.2539 10.3675 19.878 10.2181C19.5022 10.0686 19.0763 10.2521 18.9268 10.6279L15.1981 20.003C15.0485 20.3788 15.232 20.8047 15.6079 20.9542Z" fill="#001233"/>
</g>
<defs>
<clipPath id="clip0_199_9564">
<rect width="30" height="30" fill="white"/>
</clipPath>
</defs>
</svg>
