<svg width="60" height="60" viewBox="0 0 60 60" fill="none" xmlns="http://www.w3.org/2000/svg">
<path d="M42.2172 15.0928C42.5833 15.4589 42.5833 16.0525 42.2172 16.4186C42.0342 16.6016 41.7942 16.6931 41.5543 16.6931C41.3143 16.6931 41.0744 16.6016 40.8914 16.4186C34.886 10.4132 25.1143 10.4132 19.1089 16.4186C18.7427 16.7848 18.1493 16.7848 17.783 16.4186C17.417 16.0525 17.417 15.4589 17.783 15.0928C24.5196 8.35629 35.4806 8.35629 42.2172 15.0928ZM30.0001 14.3897C26.549 14.3897 23.3043 15.7336 20.864 18.1739C20.4979 18.54 20.4979 19.1336 20.864 19.4996C21.2302 19.8659 21.8237 19.8659 22.1899 19.4996C24.2761 17.4135 27.0498 16.2646 30 16.2646C32.9502 16.2646 35.7239 17.4135 37.81 19.4996C37.9931 19.6827 38.233 19.7742 38.473 19.7742C38.7128 19.7742 38.9529 19.6827 39.1359 19.4996C39.502 19.1336 39.502 18.54 39.1359 18.1739C36.6957 15.7336 33.4511 14.3897 30.0001 14.3897ZM30.0001 18.747C27.7127 18.747 25.5625 19.6377 23.9451 21.255C23.579 21.6211 23.579 22.2146 23.9451 22.5807C24.3113 22.947 24.9048 22.9467 25.271 22.5807C26.534 21.3176 28.2136 20.622 30 20.622C31.7864 20.622 33.4658 21.3176 34.7289 22.5807C34.912 22.7638 35.152 22.8553 35.3919 22.8553C35.6319 22.8553 35.8718 22.7638 36.0548 22.5807C36.4209 22.2146 36.4209 21.6211 36.0548 21.255C34.4376 19.6377 32.2873 18.747 30.0001 18.747ZM33.2268 26.331C33.2268 28.1102 31.7792 29.5579 30.0001 29.5579C28.2209 29.5579 26.7733 28.1102 26.7733 26.331C26.7733 24.5517 28.2209 23.1042 30.0001 23.1042C31.7792 23.1042 33.2268 24.5518 33.2268 26.331ZM31.3518 26.331C31.3518 25.5857 30.7454 24.9792 30.0001 24.9792C29.2548 24.9792 28.6483 25.5855 28.6483 26.331C28.6483 27.0764 29.2548 27.6829 30.0001 27.6829C30.7454 27.6829 31.3518 27.0764 31.3518 26.331ZM59.7549 48.4328V56.5168C59.7549 57.7267 58.7707 58.7109 57.5608 58.7109H42.9788C41.7691 58.7109 40.7848 57.7267 40.7848 56.5168V46.5018C40.7848 45.292 41.769 44.3078 42.9788 44.3078H45.1553C45.3665 44.3078 45.5716 44.379 45.7372 44.5102L47.9213 46.2388H49.3325V40.3813H30.9376V46.2388H37.2911C38.5009 46.2388 39.4852 47.223 39.4852 48.4329V56.517C39.4852 57.7268 38.501 58.7111 37.2911 58.7111H22.709C21.4993 58.7111 20.515 57.7268 20.515 56.517V46.5019C20.515 45.2921 21.4992 44.3079 22.709 44.3079H24.8855C25.0967 44.3079 25.3018 44.3791 25.4674 44.5103L27.6515 46.2389H29.0626V40.3814H10.6677V46.2389H17.0212C18.2309 46.2389 19.2153 47.2232 19.2153 48.433V56.5171C19.2153 57.7269 18.2311 58.7112 17.0212 58.7112H2.4391C1.22937 58.7112 0.245117 57.7269 0.245117 56.5171V46.502C0.245117 45.2923 1.22926 44.308 2.4391 44.308H4.61562C4.8268 44.308 5.03188 44.3793 5.19746 44.5104L7.3816 46.239H8.79265V39.444C8.79265 38.9263 9.21242 38.5065 9.73015 38.5065H29.0626V34.0534H17.3956C11.4247 34.0534 6.56703 29.1957 6.56703 23.2249C6.56703 20.6658 7.48777 18.1754 9.15969 16.2127C10.659 14.4526 12.6734 13.2206 14.896 12.6902C15.2319 6.34688 20.4983 1.28906 26.9237 1.28906C30.4672 1.28906 33.8465 2.87227 36.1244 5.56195C37.0916 5.06789 38.1615 4.80996 39.2629 4.80996C43.0749 4.80996 46.1763 7.91121 46.1763 11.7233C46.1763 12.1429 46.1388 12.5589 46.0643 12.9677C48.0167 13.6329 49.7691 14.8609 51.0695 16.4903C52.5937 18.4001 53.4331 20.7919 53.4331 23.2249C53.4331 29.1957 48.5755 34.0534 42.6045 34.0534H30.9376V38.5065H50.27C50.7877 38.5065 51.2075 38.9263 51.2075 39.444V46.239H57.5609C58.7707 46.2388 59.7549 47.223 59.7549 48.4328ZM17.3956 32.1782H42.6044C47.5415 32.1782 51.558 28.1617 51.558 23.2247C51.558 19.0843 48.7426 15.5066 44.7113 14.5241C44.4567 14.462 44.2398 14.2963 44.113 14.067C43.9862 13.8376 43.9611 13.5657 44.0439 13.3171C44.2147 12.8045 44.3012 12.2682 44.3012 11.7232C44.3012 8.94504 42.041 6.68484 39.2628 6.68484C38.2439 6.68484 37.2624 6.98754 36.4245 7.56C36.0069 7.84547 35.4376 7.74797 35.1387 7.33922C33.2277 4.72488 30.1565 3.16406 26.9237 3.16406C21.316 3.16406 16.754 7.72617 16.754 13.3337L16.7555 13.4508C16.7606 13.9145 16.4259 14.3122 15.968 14.3863C11.6776 15.0816 8.44203 18.8811 8.44203 23.2246C8.44203 28.1617 12.4585 32.1782 17.3956 32.1782ZM17.0212 48.1138H7.05547C6.8443 48.1138 6.63922 48.0425 6.47363 47.9114L4.28949 46.1828H2.4391C2.26613 46.1828 2.12012 46.3289 2.12012 46.5018V56.5168C2.12012 56.6898 2.26613 56.8359 2.4391 56.8359H17.0212C17.1942 56.8359 17.3403 56.6898 17.3403 56.5168V48.4328C17.3403 48.2598 17.1942 48.1138 17.0212 48.1138ZM37.2911 48.1138H27.3254C27.1142 48.1138 26.9091 48.0425 26.7436 47.9114L24.5594 46.1828H22.709C22.5361 46.1828 22.39 46.3289 22.39 46.5018V56.5168C22.39 56.6898 22.5361 56.8359 22.709 56.8359H37.2911C37.4641 56.8359 37.6102 56.6898 37.6102 56.5168V48.4328C37.6101 48.2598 37.464 48.1138 37.2911 48.1138ZM57.8799 48.4328C57.8799 48.2598 57.7338 48.1137 57.5608 48.1137H47.5951C47.3839 48.1137 47.1788 48.0424 47.0132 47.9113L44.8291 46.1827H42.9787C42.8057 46.1827 42.6597 46.3288 42.6597 46.5016V56.5167C42.6597 56.6897 42.8057 56.8358 42.9787 56.8358H57.5608C57.7338 56.8358 57.8799 56.6897 57.8799 56.5167V48.4328Z" fill="#FD5D07"/>
</svg>
