<svg width="61" height="59" viewBox="0 0 61 59" fill="none" xmlns="http://www.w3.org/2000/svg">
<path d="M36.6986 12.6148C39.087 12.6148 41.03 10.6719 41.03 8.28343C41.03 5.895 39.087 3.95203 36.6986 3.95203C34.3102 3.95203 32.3672 5.895 32.3672 8.28343C32.3672 10.6719 34.3102 12.6148 36.6986 12.6148ZM36.6986 5.37371C38.3004 5.37371 39.6083 6.68166 39.6083 8.28343C39.6083 9.8852 38.3004 11.1932 36.6986 11.1932C35.0968 11.1932 33.7889 9.8852 33.7889 8.28343C33.7889 6.68166 35.0968 5.37371 36.6986 5.37371Z" fill="#FD5D07"/>
<path d="M5.53524 22.3866L4.31259 23.6092C4.03773 23.8841 4.03773 24.339 4.31259 24.6139C4.45476 24.7561 4.63484 24.8224 4.81492 24.8224C4.995 24.8224 5.17508 24.7561 5.31725 24.6139L6.5399 23.3913C6.81476 23.1164 6.81476 22.6615 6.5399 22.3866C6.26504 22.1117 5.8101 22.1023 5.53524 22.3866Z" fill="#FD5D07"/>
<path d="M9.58212 22.3866L8.35946 23.6092C8.08461 23.8841 8.08461 24.339 8.35946 24.6139C8.50163 24.7561 8.68171 24.8224 8.86179 24.8224C9.04188 24.8224 9.22196 24.7561 9.36412 24.6139L10.5868 23.3913C10.8616 23.1164 10.8616 22.6615 10.5868 22.3866C10.3119 22.1117 9.86645 22.1023 9.58212 22.3866Z" fill="#FD5D07"/>
<path d="M13.629 22.3866L12.4063 23.6092C12.1315 23.8841 12.1315 24.339 12.4063 24.6139C12.5485 24.7561 12.7286 24.8224 12.9087 24.8224C13.0888 24.8224 13.2688 24.7561 13.411 24.6139L14.6336 23.3913C14.9085 23.1164 14.9085 22.6615 14.6336 22.3866C14.3588 22.1117 13.9133 22.1023 13.629 22.3866Z" fill="#FD5D07"/>
<path d="M17.6856 22.3866L16.463 23.6092C16.1881 23.8841 16.1881 24.339 16.463 24.6139C16.6051 24.7561 16.7852 24.8224 16.9653 24.8224C17.1454 24.8224 17.3255 24.7561 17.4676 24.6139L18.6903 23.3913C18.9651 23.1164 18.9651 22.6615 18.6903 22.3866C18.4154 22.1117 17.9605 22.1023 17.6856 22.3866Z" fill="#FD5D07"/>
<path d="M21.733 22.3866L20.5103 23.6092C20.2355 23.8841 20.2355 24.339 20.5103 24.6139C20.6525 24.7561 20.8326 24.8224 21.0127 24.8224C21.1928 24.8224 21.3728 24.7561 21.515 24.6139L22.7377 23.3913C23.0125 23.1164 23.0125 22.6615 22.7377 22.3866C22.4628 22.1117 22.0079 22.1023 21.733 22.3866Z" fill="#FD5D07"/>
<path d="M25.7799 22.3866L24.5572 23.6092C24.2824 23.8841 24.2824 24.339 24.5572 24.6139C24.6994 24.7561 24.8795 24.8224 25.0595 24.8224C25.2396 24.8224 25.4197 24.7561 25.5619 24.6139L26.7845 23.3913C27.0594 23.1164 27.0594 22.6615 26.7845 22.3866C26.5097 22.1117 26.0642 22.1023 25.7799 22.3866Z" fill="#FD5D07"/>
<path d="M5.53524 27.0023L4.31259 28.225C4.03773 28.4998 4.03773 28.9548 4.31259 29.2296C4.45476 29.3718 4.63484 29.4381 4.81492 29.4381C4.995 29.4381 5.17508 29.3718 5.31725 29.2296L6.5399 28.007C6.81476 27.7321 6.81476 27.2772 6.5399 27.0023C6.25556 26.718 5.8101 26.718 5.53524 27.0023Z" fill="#FD5D07"/>
<path d="M9.58212 27.0026L8.35946 28.2252C8.08461 28.5001 8.08461 28.955 8.35946 29.2299C8.50163 29.372 8.68171 29.4384 8.86179 29.4384C9.04188 29.4384 9.22196 29.372 9.36412 29.2299L10.5868 28.0072C10.8616 27.7324 10.8616 27.2774 10.5868 27.0026C10.3119 26.7277 9.85697 26.7182 9.58212 27.0026Z" fill="#FD5D07"/>
<path d="M13.629 27.0023L12.4063 28.225C12.1315 28.4998 12.1315 28.9548 12.4063 29.2296C12.5485 29.3718 12.7286 29.4381 12.9087 29.4381C13.0888 29.4381 13.2688 29.3718 13.411 29.2296L14.6336 28.007C14.9085 27.7321 14.9085 27.2772 14.6336 27.0023C14.3588 26.718 13.9133 26.718 13.629 27.0023Z" fill="#FD5D07"/>
<path d="M17.6856 27.0023L16.463 28.225C16.1881 28.4998 16.1881 28.9548 16.463 29.2296C16.6051 29.3718 16.7852 29.4381 16.9653 29.4381C17.1454 29.4381 17.3255 29.3718 17.4676 29.2296L18.6903 28.007C18.9651 27.7321 18.9651 27.2772 18.6903 27.0023C18.406 26.718 17.9605 26.718 17.6856 27.0023Z" fill="#FD5D07"/>
<path d="M21.733 27.0026L20.5103 28.2252C20.2355 28.5001 20.2355 28.955 20.5103 29.2299C20.6525 29.372 20.8326 29.4384 21.0127 29.4384C21.1928 29.4384 21.3728 29.372 21.515 29.2299L22.7377 28.0072C23.0125 27.7324 23.0125 27.2774 22.7377 27.0026C22.4628 26.7277 22.0079 26.7182 21.733 27.0026Z" fill="#FD5D07"/>
<path d="M25.7799 27.0023L24.5572 28.225C24.2824 28.4998 24.2824 28.9548 24.5572 29.2296C24.6994 29.3718 24.8795 29.4381 25.0595 29.4381C25.2396 29.4381 25.4197 29.3718 25.5619 29.2296L26.7845 28.007C27.0594 27.7321 27.0594 27.2772 26.7845 27.0023C26.5097 26.718 26.0642 26.718 25.7799 27.0023Z" fill="#FD5D07"/>
<path d="M5.53502 40.3191L4.31237 41.5417C4.02804 41.8166 4.02804 42.2715 4.31237 42.5464C4.45454 42.6885 4.63462 42.7549 4.8147 42.7549C4.99478 42.7549 5.17486 42.6885 5.31703 42.5464L6.53968 41.3237C6.81454 41.0489 6.81454 40.5939 6.53968 40.3191C6.26482 40.0442 5.80988 40.0442 5.53502 40.3191Z" fill="#FD5D07"/>
<path d="M9.58212 40.3191L8.35946 41.5417C8.08461 41.8166 8.08461 42.2715 8.35946 42.5464C8.50163 42.6885 8.68171 42.7549 8.86179 42.7549C9.04188 42.7549 9.22196 42.6885 9.36412 42.5464L10.5868 41.3237C10.8616 41.0489 10.8616 40.5939 10.5868 40.3191C10.3119 40.0442 9.86645 40.0442 9.58212 40.3191Z" fill="#FD5D07"/>
<path d="M13.629 40.3191L12.4063 41.5417C12.1315 41.8166 12.1315 42.2715 12.4063 42.5464C12.5485 42.6885 12.7286 42.7549 12.9087 42.7549C13.0888 42.7549 13.2688 42.6885 13.411 42.5464L14.6336 41.3237C14.9085 41.0489 14.9085 40.5939 14.6336 40.3191C14.3588 40.0442 13.9133 40.0442 13.629 40.3191Z" fill="#FD5D07"/>
<path d="M17.6856 40.3191L16.463 41.5417C16.1881 41.8166 16.1881 42.2715 16.463 42.5464C16.6051 42.6885 16.7852 42.7549 16.9653 42.7549C17.1454 42.7549 17.3255 42.6885 17.4676 42.5464L18.6903 41.3237C18.9651 41.0489 18.9651 40.5939 18.6903 40.3191C18.4154 40.0442 17.9605 40.0442 17.6856 40.3191Z" fill="#FD5D07"/>
<path d="M21.733 40.3191L20.5103 41.5417C20.2355 41.8166 20.2355 42.2715 20.5103 42.5464C20.6525 42.6885 20.8326 42.7549 21.0127 42.7549C21.1928 42.7549 21.3728 42.6885 21.515 42.5464L22.7377 41.3237C23.0125 41.0489 23.0125 40.5939 22.7377 40.3191C22.4628 40.0442 22.0079 40.0442 21.733 40.3191Z" fill="#FD5D07"/>
<path d="M25.7799 40.3191L24.5572 41.5417C24.2824 41.8166 24.2824 42.2715 24.5572 42.5464C24.6994 42.6885 24.8795 42.7549 25.0595 42.7549C25.2396 42.7549 25.4197 42.6885 25.5619 42.5464L26.7845 41.3237C27.0594 41.0489 27.0594 40.5939 26.7845 40.3191C26.5097 40.0442 26.0642 40.0442 25.7799 40.3191Z" fill="#FD5D07"/>
<path d="M5.53524 44.9347L4.31259 46.1573C4.03773 46.4322 4.03773 46.8871 4.31259 47.162C4.45476 47.3041 4.63484 47.3705 4.81492 47.3705C4.995 47.3705 5.17508 47.3041 5.31725 47.162L6.5399 45.9393C6.81476 45.6645 6.81476 45.2095 6.5399 44.9347C6.26504 44.6598 5.8101 44.6598 5.53524 44.9347Z" fill="#FD5D07"/>
<path d="M9.58212 44.9347L8.35946 46.1573C8.08461 46.4322 8.08461 46.8871 8.35946 47.162C8.50163 47.3041 8.68171 47.3705 8.86179 47.3705C9.04188 47.3705 9.22196 47.3041 9.36412 47.162L10.5868 45.9393C10.8616 45.6645 10.8616 45.2095 10.5868 44.9347C10.3119 44.6598 9.86645 44.6598 9.58212 44.9347Z" fill="#FD5D07"/>
<path d="M13.629 44.9347L12.4063 46.1573C12.1315 46.4322 12.1315 46.8871 12.4063 47.162C12.5485 47.3041 12.7286 47.3705 12.9087 47.3705C13.0888 47.3705 13.2688 47.3041 13.411 47.162L14.6336 45.9393C14.9085 45.6645 14.9085 45.2095 14.6336 44.9347C14.3588 44.6598 13.9133 44.6598 13.629 44.9347Z" fill="#FD5D07"/>
<path d="M17.6856 44.9347L16.463 46.1573C16.1881 46.4322 16.1881 46.8871 16.463 47.162C16.6051 47.3041 16.7852 47.3705 16.9653 47.3705C17.1454 47.3705 17.3255 47.3041 17.4676 47.162L18.6903 45.9393C18.9651 45.6645 18.9651 45.2095 18.6903 44.9347C18.4154 44.6598 17.9605 44.6598 17.6856 44.9347Z" fill="#FD5D07"/>
<path d="M21.733 44.9347L20.5103 46.1573C20.2355 46.4322 20.2355 46.8871 20.5103 47.162C20.6525 47.3041 20.8326 47.3705 21.0127 47.3705C21.1928 47.3705 21.3728 47.3041 21.515 47.162L22.7377 45.9393C23.0125 45.6645 23.0125 45.2095 22.7377 44.9347C22.4628 44.6598 22.0079 44.6598 21.733 44.9347Z" fill="#FD5D07"/>
<path d="M25.7799 44.9347L24.5572 46.1573C24.2824 46.4322 24.2824 46.8871 24.5572 47.162C24.6994 47.3041 24.8795 47.3705 25.0595 47.3705C25.2396 47.3705 25.4197 47.3041 25.5619 47.162L26.7845 45.9393C27.0594 45.6645 27.0594 45.2095 26.7845 44.9347C26.5097 44.6598 26.0642 44.6598 25.7799 44.9347Z" fill="#FD5D07"/>
<path d="M4.81492 6.89026C4.995 6.89026 5.17508 6.82391 5.31725 6.68175L6.5399 5.45909C6.81476 5.18424 6.81476 4.7293 6.5399 4.45444C6.26504 4.17958 5.8101 4.17958 5.53524 4.45444L4.31259 5.67709C4.03773 5.95195 4.03773 6.40689 4.31259 6.68175C4.44528 6.81444 4.62536 6.89026 4.81492 6.89026Z" fill="#FD5D07"/>
<path d="M8.86179 6.89026C9.04188 6.89026 9.22196 6.82391 9.36412 6.68175L10.5868 5.45909C10.8616 5.18424 10.8616 4.7293 10.5868 4.45444C10.3119 4.17958 9.85697 4.17958 9.58212 4.45444L8.35946 5.67709C8.08461 5.95195 8.08461 6.40689 8.35946 6.68175C8.49216 6.81444 8.68171 6.89026 8.86179 6.89026Z" fill="#FD5D07"/>
<path d="M12.9087 6.89026C13.0888 6.89026 13.2688 6.82391 13.411 6.68175L14.6336 5.45909C14.9085 5.18424 14.9085 4.7293 14.6336 4.45444C14.3588 4.17958 13.9038 4.17958 13.629 4.45444L12.4063 5.67709C12.1315 5.95195 12.1315 6.40689 12.4063 6.68175C12.5485 6.81444 12.7286 6.89026 12.9087 6.89026Z" fill="#FD5D07"/>
<path d="M16.9653 6.89026C17.1454 6.89026 17.3255 6.82391 17.4676 6.68175L18.6903 5.45909C18.9651 5.18424 18.9651 4.7293 18.6903 4.45444C18.4154 4.17958 17.9605 4.17958 17.6856 4.45444L16.463 5.67709C16.1881 5.95195 16.1881 6.40689 16.463 6.68175C16.5957 6.81444 16.7758 6.89026 16.9653 6.89026Z" fill="#FD5D07"/>
<path d="M21.0127 6.89026C21.1928 6.89026 21.3728 6.82391 21.515 6.68175L22.7377 5.45909C23.0125 5.18424 23.0125 4.7293 22.7377 4.45444C22.4628 4.17958 22.0079 4.17958 21.733 4.45444L20.5103 5.67709C20.2355 5.95195 20.2355 6.40689 20.5103 6.68175C20.643 6.81444 20.8326 6.89026 21.0127 6.89026Z" fill="#FD5D07"/>
<path d="M25.0595 6.89026C25.2396 6.89026 25.4197 6.82391 25.5619 6.68175L26.7845 5.45909C27.0594 5.18424 27.0594 4.7293 26.7845 4.45444C26.5097 4.17958 26.0547 4.17958 25.7799 4.45444L24.5572 5.67709C24.2824 5.95195 24.2824 6.40689 24.5572 6.68175C24.6994 6.81444 24.8795 6.89026 25.0595 6.89026Z" fill="#FD5D07"/>
<path d="M6.5399 9.06088C6.26504 8.78602 5.8101 8.78602 5.53524 9.06088L4.31259 10.293C4.03773 10.5679 4.03773 11.0228 4.31259 11.2977C4.45476 11.4398 4.63484 11.5062 4.81492 11.5062C4.995 11.5062 5.17508 11.4398 5.31725 11.2977L6.5399 10.075C6.81476 9.79068 6.81476 9.34522 6.5399 9.06088Z" fill="#FD5D07"/>
<path d="M8.86179 11.5062C9.04188 11.5062 9.22196 11.4399 9.36412 11.2977L10.5868 10.0751C10.8616 9.8002 10.8616 9.34526 10.5868 9.0704C10.3119 8.79554 9.85697 8.79554 9.58212 9.0704L8.35946 10.2931C8.08461 10.5679 8.08461 11.0229 8.35946 11.2977C8.49216 11.4304 8.68171 11.5062 8.86179 11.5062Z" fill="#FD5D07"/>
<path d="M12.9087 11.5062C13.0888 11.5062 13.2688 11.4399 13.411 11.2977L14.6336 10.0751C14.9085 9.8002 14.9085 9.34526 14.6336 9.0704C14.3588 8.79554 13.9038 8.79554 13.629 9.0704L12.4063 10.2931C12.1315 10.5679 12.1315 11.0229 12.4063 11.2977C12.5485 11.4304 12.7286 11.5062 12.9087 11.5062Z" fill="#FD5D07"/>
<path d="M16.9653 11.5062C17.1454 11.5062 17.3255 11.4399 17.4676 11.2977L18.6903 10.0751C18.9651 9.8002 18.9651 9.34526 18.6903 9.0704C18.4154 8.79554 17.9605 8.79554 17.6856 9.0704L16.463 10.2931C16.1881 10.5679 16.1881 11.0229 16.463 11.2977C16.5957 11.4304 16.7758 11.5062 16.9653 11.5062Z" fill="#FD5D07"/>
<path d="M21.0127 11.5062C21.1928 11.5062 21.3728 11.4399 21.515 11.2977L22.7377 10.0751C23.0125 9.8002 23.0125 9.34526 22.7377 9.0704C22.4628 8.79554 22.0079 8.79554 21.733 9.0704L20.5103 10.2931C20.2355 10.5679 20.2355 11.0229 20.5103 11.2977C20.643 11.4304 20.8326 11.5062 21.0127 11.5062Z" fill="#FD5D07"/>
<path d="M25.0595 11.5062C25.2396 11.5062 25.4197 11.4399 25.5619 11.2977L26.7845 10.0751C27.0594 9.8002 27.0594 9.34526 26.7845 9.0704C26.5097 8.79554 26.0547 8.79554 25.7799 9.0704L24.5572 10.2931C24.2824 10.5679 24.2824 11.0229 24.5572 11.2977C24.6994 11.4304 24.8795 11.5062 25.0595 11.5062Z" fill="#FD5D07"/>
<path d="M36.6986 30.5472C39.087 30.5472 41.03 28.6042 41.03 26.2158C41.03 23.8274 39.087 21.8844 36.6986 21.8844C34.3102 21.8844 32.3672 23.8274 32.3672 26.2158C32.3672 28.6042 34.3102 30.5472 36.6986 30.5472ZM36.6986 23.3061C38.3004 23.3061 39.6083 24.614 39.6083 26.2158C39.6083 27.8176 38.3004 29.1255 36.6986 29.1255C35.0968 29.1255 33.7889 27.8176 33.7889 26.2158C33.7889 24.614 35.0968 23.3061 36.6986 23.3061Z" fill="#FD5D07"/>
<path d="M55.9576 34.5849C55.9386 34.5659 55.9292 34.547 55.9102 34.5375C53.3512 31.533 49.7306 29.7038 45.8257 29.3815V20.2827C45.8257 18.9937 44.7737 17.9417 43.4752 17.9417H41.0678V15.7523H43.4752C44.7737 15.7523 45.8257 14.7002 45.8257 13.4018V2.35052C45.8257 1.05205 44.7737 0 43.4752 0H2.35052C1.05205 0 0 1.05205 0 2.35052V13.3923C0 14.6908 1.05205 15.7428 2.35052 15.7428H4.75791V17.9322H2.35052C1.05205 17.9322 0 18.9843 0 20.2733V31.3245C0 32.623 1.05205 33.675 2.35052 33.675H4.75791V35.8739H2.35052C1.05205 35.8739 0 36.9259 0 38.2244V49.2662C0 50.5647 1.05205 51.6262 2.35052 51.6262H31.8079C33.3243 54.2231 35.6085 56.3557 38.4424 57.6541C38.9732 57.9006 39.5418 58.128 40.12 58.3081C41.5701 58.7631 43.0771 59 44.6125 59C46.2806 59 47.9108 58.7251 49.4652 58.1849H49.4747C50.2424 57.9195 51.0101 57.5783 51.7494 57.1802C51.7684 57.1708 51.7968 57.1518 51.8157 57.1423C56.5168 54.5169 59.4455 49.56 59.4455 44.1765C59.4455 41.3521 58.6493 38.6035 57.1423 36.2341C56.8011 35.6559 56.3936 35.1062 55.9576 34.5849ZM50.83 56.0334C50.4509 56.2325 50.0623 56.4125 49.6643 56.5642L43.4183 39.1059H46.2143L49.8538 51.1049C49.9486 51.4082 50.2235 51.6072 50.5362 51.6072H50.5457C50.8585 51.6072 51.1333 51.3987 51.2186 51.0954L53.7587 42.2431C53.8156 42.0345 53.7777 41.8071 53.6545 41.627C53.0858 40.8403 51.702 38.4803 52.138 37.0492C52.356 36.3383 52.8014 35.8076 53.408 35.5611C53.9104 35.3526 54.4696 35.381 54.9719 35.6085C55.3036 36.0066 55.6069 36.4236 55.8818 36.8501C56.3083 38.8974 55.133 42.3189 55.1141 42.3757L50.83 56.0334ZM39.8925 56.6874C39.703 56.6116 39.5039 56.5452 39.3144 56.4599L33.476 38.0728H35.9687L41.0299 53.1711L39.8925 56.6874ZM41.7502 50.8395L37.4757 38.0728H37.8263C38.2149 38.0728 38.5372 37.7505 38.5372 37.3619C38.5372 36.9733 38.2149 36.6511 37.8263 36.6511H36.49H33.4949C35.9782 32.9737 40.1295 30.7369 44.6125 30.7369C47.9014 30.7369 51.0291 31.95 53.4554 34.092C53.2564 34.13 53.0574 34.1868 52.8583 34.2626C51.8537 34.6702 51.1144 35.5232 50.7732 36.6511C50.1476 38.6888 51.702 41.2858 52.2991 42.1862L50.5173 48.3942L47.7023 39.1059H48.0341C48.4226 39.1059 48.7449 38.7836 48.7449 38.395C48.7449 38.0064 48.4226 37.6842 48.0341 37.6842H41.2289C40.8403 37.6842 40.5181 38.0064 40.5181 38.395C40.5181 38.7836 40.8403 39.1059 41.2289 39.1059H41.9208L43.769 44.2713L41.7502 50.8395ZM1.42169 13.3923V2.35052C1.42169 1.83871 1.83871 1.42169 2.35052 1.42169H43.4847C43.9965 1.42169 44.4135 1.83871 44.4135 2.35052V13.3923C44.4135 13.9041 43.9965 14.3211 43.4847 14.3211H2.35052C1.83871 14.3211 1.42169 13.9041 1.42169 13.3923ZM6.17012 15.7428H39.6461V17.9322H6.17012V15.7428ZM1.42169 31.334V20.2827C1.42169 19.7709 1.83871 19.3634 2.35052 19.3634H5.4498H5.45928H5.46876H40.3475H40.3569H40.3664H43.4752C43.987 19.3634 44.404 19.7804 44.404 20.2827V29.3247C41.2289 29.372 38.2244 30.4241 35.7602 32.2628H2.35052C1.83871 32.2533 1.42169 31.8363 1.42169 31.334ZM6.17012 33.675H34.1015C33.4381 34.3385 32.8315 35.0778 32.2912 35.8739H6.17012V33.675ZM2.35052 50.195C1.83871 50.195 1.42169 49.778 1.42169 49.2567V38.2244C1.42169 37.7126 1.83871 37.2956 2.35052 37.2956H31.4572C30.3577 39.3997 29.7796 41.7597 29.7796 44.1481C29.7796 46.2712 30.244 48.3184 31.0781 50.195H2.35052ZM31.1918 44.1481C31.1918 42.3473 31.5709 40.5749 32.2628 38.9353L37.5325 55.5406C33.6371 53.1142 31.1918 48.8112 31.1918 44.1481ZM41.2384 57.1329L42.4516 53.3891V53.3796L44.5462 46.5271L48.3089 57.0381C46.0247 57.692 43.551 57.7205 41.2384 57.1329ZM52.6877 54.8582L56.4599 42.8307C56.4978 42.7359 56.9907 41.2858 57.2466 39.6177C57.7679 41.0583 58.0333 42.5843 58.0333 44.1481C58.0333 48.3942 56.0239 52.3465 52.6877 54.8582Z" fill="#FD5D07"/>
<path d="M60.1182 33.5423C58.1184 29.1067 54.3272 27.0973 51.5123 26.1969C51.1332 26.0737 50.7351 26.2822 50.6214 26.6613C50.4982 27.031 50.7067 27.4385 51.0858 27.5523C53.6353 28.3674 57.0474 30.1682 58.8292 34.1299C58.9525 34.3953 59.2084 34.547 59.4737 34.547C59.5685 34.547 59.6728 34.528 59.7676 34.4806C60.1277 34.3195 60.2794 33.9025 60.1182 33.5423Z" fill="#FD5D07"/>
<path d="M48.1668 26.9265C48.1857 26.9265 48.4795 26.9549 48.9724 27.0307C49.0103 27.0402 49.0482 27.0402 49.0956 27.0402C49.4368 27.0402 49.7401 26.7938 49.797 26.4431C49.8633 26.0545 49.5979 25.6849 49.2093 25.628C48.6122 25.5237 48.2615 25.5048 48.2615 25.5048C47.8729 25.4669 47.5317 25.7702 47.5033 26.1682C47.4844 26.5568 47.7782 26.898 48.1668 26.9265Z" fill="#FD5D07"/>
</svg>
