<svg width="30" height="30" viewBox="0 0 30 30" fill="none" xmlns="http://www.w3.org/2000/svg">
<g clip-path="url(#clip0_1_19706)">
<path d="M15 0.936508C7.23905 0.936508 0.9375 7.23805 0.9375 14.999C0.9375 22.7599 7.23905 29.0615 15 29.0615C22.761 29.0615 29.0625 22.7599 29.0625 14.999C29.0625 12.8419 28.5744 10.7978 27.7048 8.97021L26.3086 10.3664C26.045 10.6315 25.6855 10.781 25.3116 10.7811H24.9234C25.476 12.0772 25.7822 13.5025 25.7822 14.999C25.7822 20.9478 20.9488 25.7811 15 25.7811C9.05123 25.7811 4.21783 20.9478 4.21783 14.999C4.21783 9.05024 9.05123 4.21678 15 4.21678C16.4968 4.21678 17.9224 4.5228 19.2188 5.07557V4.68738C19.2188 4.31349 19.3683 3.95403 19.6335 3.69039L21.0287 2.29423C19.2011 1.42459 17.1571 0.936508 15 0.936508ZM23.8934 0.936508C23.7735 0.940085 23.6594 0.989496 23.5748 1.07465L20.2945 4.35498C20.2507 4.39853 20.2159 4.45035 20.1922 4.50739C20.1685 4.56442 20.1563 4.62555 20.1563 4.68732V7.77544L13.9664 13.9653C13.3989 14.5327 13.3989 15.4679 13.9664 16.0353C14.5338 16.6027 15.4662 16.6 16.0336 16.0317L22.2226 9.84279H25.3116C25.3734 9.84278 25.4345 9.8306 25.4915 9.80689C25.5486 9.78317 25.6004 9.74844 25.6439 9.70465L28.9243 6.42427C28.9895 6.3586 29.0339 6.27511 29.0517 6.18426C29.0696 6.09342 29.0602 5.99931 29.0246 5.91382C28.9891 5.82834 28.929 5.75528 28.852 5.70388C28.775 5.65248 28.6845 5.62503 28.5919 5.625H26.4404L26.814 5.25151C27.3814 4.68408 27.3841 3.75164 26.8168 3.18422C26.5331 2.9005 26.157 2.7585 25.7813 2.7585C25.4057 2.7585 25.0305 2.90058 24.7468 3.18422L24.3742 3.55684V1.40262C24.3739 1.3402 24.3612 1.27845 24.3368 1.22101C24.3124 1.16356 24.2768 1.1116 24.232 1.06811C24.1872 1.02462 24.1342 0.990492 24.0761 0.967758C24.018 0.945025 23.9558 0.934929 23.8934 0.936508ZM15 7.49716C10.8634 7.49716 7.49817 10.8624 7.49817 14.999C7.49817 19.1356 10.8634 22.4972 15 22.4972C19.1366 22.4972 22.4982 19.1356 22.4982 14.999C22.4982 13.8056 22.212 12.6801 21.7145 11.6774L19.1464 14.2455C19.1909 14.4904 19.2178 14.7415 19.2178 14.999C19.2178 17.3234 17.3244 19.2168 15 19.2168C12.6756 19.2168 10.7822 17.3234 10.7822 14.999C10.7822 12.6746 12.6756 10.7811 15 10.7811C15.2575 10.7811 15.5086 10.8081 15.7535 10.8525L18.3225 8.28356C17.3197 7.78505 16.1942 7.49716 15 7.49716Z" fill="#FD5D07"/>
</g>
<defs>
<clipPath id="clip0_1_19706">
<rect width="30" height="30" fill="white"/>
</clipPath>
</defs>
</svg>
