<svg width="30" height="30" viewBox="0 0 30 30" fill="none" xmlns="http://www.w3.org/2000/svg">
<path d="M23.372 8.51023C22.955 5.98594 21.6279 3.71411 19.6534 2.1446C17.679 0.57509 15.2012 -0.177639 12.7107 0.0354687C10.2202 0.248576 7.89861 1.41198 6.2057 3.2953C4.51278 5.17862 3.57197 7.64452 3.56955 10.2047C3.57011 10.688 3.60515 11.1705 3.67439 11.6486C2.43905 12.2291 1.42001 13.2031 0.769283 14.4254C0.118555 15.6478 -0.128985 17.0529 0.0635878 18.4311C0.256161 19.8093 0.878527 21.0868 1.83785 22.0731C2.79716 23.0593 4.04202 23.7014 5.38672 23.9036C6.12561 23.9841 6.86959 24.004 7.61158 23.9633C7.48345 23.7604 7.34367 23.5814 7.22718 23.3666C6.29947 21.7158 5.81703 19.842 5.82936 17.9372C5.82936 12.5077 9.61512 8.09258 14.2745 8.09258C18.9339 8.09258 22.708 12.5077 22.708 17.9372C22.7329 19.8556 22.2585 21.7461 21.3335 23.4144L20.9491 23.9991H22.114C24.1707 24.031 26.1558 23.2262 27.6341 21.761C29.1124 20.2958 29.9632 18.2899 30 16.1831C29.975 14.303 29.2923 12.4946 28.076 11.0866C26.8597 9.67855 25.1905 8.76436 23.372 8.51023Z" fill="#FD5D07"/>
<path d="M14.472 10C10.904 10 8.00012 13.533 8.00012 17.8859C8.01183 19.4175 8.40004 20.9189 9.12566 22.2387C9.77884 23.1726 10.5346 24.0187 11.3767 24.7588C11.6514 24.9126 11.956 24.9952 12.2659 25H16.7906C17.1005 24.9952 17.4051 24.9126 17.6798 24.7588C18.5018 24.0283 19.2387 23.1943 19.8746 22.2749C20.611 20.9468 20.9998 19.4306 21.0001 17.8859C20.9326 13.533 18.0399 10 14.472 10Z" fill="#FD5D07"/>
<path d="M17.0584 26H11.9788C11.4336 26 11 26.3367 11 26.7273V28.2088C11 29.2054 12.2389 30 13.7381 30H15.2619C16.7735 30 18 29.2054 18 28.2088V26.7273C18 26.3636 17.5664 26 17.0584 26Z" fill="#FD5D07"/>
</svg>
