<svg width="77" height="24" viewBox="0 0 77 24" fill="none" xmlns="http://www.w3.org/2000/svg">
<g clip-path="url(#clip0_9_14017)">
<mask id="mask0_9_14017" style="mask-type:luminance" maskUnits="userSpaceOnUse" x="0" y="0" width="77" height="24">
<path d="M77 0H0V24H77V0Z" fill="white"/>
</mask>
<g mask="url(#mask0_9_14017)">
<path d="M40.5717 6.03077C40.5717 6.89641 39.8735 7.59385 39.007 7.59385C38.1404 7.59385 37.4422 6.89641 37.4422 6.03077C37.4422 5.16513 38.1158 4.46769 39.007 4.46769C39.8982 4.49231 40.5717 5.18974 40.5717 6.03077ZM34.128 9.17743V9.56308C34.128 9.56308 33.3846 8.60308 31.7953 8.60308C29.1751 8.60308 27.1298 10.5969 27.1298 13.3579C27.1298 16.0985 29.1504 18.1128 31.7953 18.1128C33.4052 18.1128 34.128 17.1282 34.128 17.1282V17.5385C34.128 17.7313 34.2717 17.8749 34.4647 17.8749H36.4114V8.84103H34.4647C34.2717 8.84103 34.128 9.00923 34.128 9.17743ZM34.128 14.9662C33.7666 15.4954 33.0479 15.9508 32.1813 15.9508C30.6412 15.9508 29.4626 14.9908 29.4626 13.3538C29.4626 11.721 30.6412 10.761 32.1813 10.761C33.0232 10.761 33.7912 11.241 34.128 11.7456V14.9662ZM37.8529 8.84103H40.161V17.8749H37.8529V8.84103ZM72.3384 8.59897C70.7532 8.59897 70.0057 9.55897 70.0057 9.55897V4.49231H67.6977V17.8749H69.6443C69.8373 17.8749 69.9811 17.7067 69.9811 17.5385V17.1323C69.9811 17.1323 70.7285 18.1169 72.3138 18.1169C74.934 18.1169 76.9792 16.0985 76.9792 13.3621C76.9792 10.6174 74.9381 8.59897 72.3384 8.59897ZM71.9565 15.9262C71.0653 15.9262 70.3712 15.4708 70.0098 14.9415V11.721C70.3712 11.241 71.1392 10.7364 71.9565 10.7364C73.4966 10.7364 74.6753 11.6964 74.6753 13.3292C74.6712 14.9662 73.4966 15.9262 71.9565 15.9262ZM66.4943 12.5169V17.8995H64.1863V12.7795C64.1863 11.2903 63.7058 10.6913 62.408 10.6913C61.7098 10.6913 60.9911 11.0523 60.5311 11.5815V17.8749H58.2231V8.84103H60.0506C60.2437 8.84103 60.3874 9.00923 60.3874 9.17743V9.56308C61.0609 8.86564 61.9521 8.60308 62.8392 8.60308C63.8495 8.60308 64.6914 8.89026 65.365 9.46872C66.1822 10.1374 66.4943 11.0031 66.4943 12.5169ZM52.6213 8.59897C51.036 8.59897 50.2886 9.55897 50.2886 9.55897V4.49231H47.9805V17.8749H49.9272C50.1202 17.8749 50.2639 17.7067 50.2639 17.5385V17.1323C50.2639 17.1323 51.0114 18.1169 52.5966 18.1169C55.2168 18.1169 57.2621 16.0985 57.2621 13.3621C57.2867 10.6174 55.2415 8.59897 52.6213 8.59897ZM52.2352 15.9262C51.344 15.9262 50.65 15.4708 50.2886 14.9415V11.721C50.65 11.241 51.418 10.7364 52.2352 10.7364C53.7753 10.7364 54.954 11.6964 54.954 13.3292C54.954 14.9662 53.7753 15.9262 52.2352 15.9262ZM45.9804 8.59897C46.6786 8.59897 47.04 8.71795 47.04 8.71795V10.8554C47.04 10.8554 45.118 10.2072 43.9147 11.5774V17.8954H41.6066V8.84103H43.5533C43.7463 8.84103 43.89 9.00923 43.89 9.17743V9.56308C44.3213 9.05846 45.2617 8.59897 45.9804 8.59897ZM22.0045 17.0585C21.8854 16.7713 21.7621 16.4595 21.643 16.1928C21.45 15.7621 21.257 15.3518 21.0886 14.9662L21.064 14.9415C19.4048 11.3395 17.6265 7.6882 15.7497 4.08205L15.6757 3.93846C15.4786 3.56513 15.2856 3.18769 15.1008 2.81026C14.8585 2.37949 14.6203 1.92 14.2342 1.48923C13.4703 0.529231 12.3615 0 11.1828 0C9.97949 0 8.89938 0.529231 8.10675 1.44C7.74535 1.87077 7.4825 2.33026 7.2402 2.76103C7.05128 3.13846 6.86236 3.5159 6.66523 3.88923L6.59131 4.03282C4.73911 7.63487 2.93618 11.2862 1.277 14.8923L1.25236 14.9415C1.08398 15.3272 0.890953 15.7333 0.697929 16.1682C0.57883 16.4308 0.45973 16.7221 0.336524 17.0338C0.0244003 17.9241 -0.074165 18.7651 0.0490416 19.6308C0.311882 21.4318 1.5152 22.9456 3.17438 23.6185C3.79863 23.881 4.44752 24.0041 5.12105 24.0041C5.31407 24.0041 5.55227 23.9795 5.74529 23.9549C6.53792 23.8605 7.35519 23.5938 8.15193 23.1385C9.13758 22.5846 10.0739 21.7928 11.1335 20.64C12.1931 21.7928 13.1541 22.5846 14.1151 23.1385C14.9078 23.5938 15.725 23.8605 16.5218 23.9549C16.7148 23.9795 16.9571 24.0041 17.146 24.0041C17.8195 24.0041 18.4931 23.8851 19.0927 23.6185C20.7765 22.9456 21.9552 21.4072 22.218 19.6308C22.4151 18.7856 22.3166 17.9446 22.0045 17.0585ZM11.1582 18.3056C9.86039 16.6728 9.01848 15.1344 8.731 13.8379C8.6119 13.2841 8.58726 12.8041 8.65707 12.3733C8.70636 11.9877 8.8501 11.6513 9.04312 11.3641C9.49899 10.7159 10.2711 10.3056 11.1582 10.3056C12.0494 10.3056 12.842 10.6913 13.2732 11.3641C13.4662 11.6513 13.61 11.9877 13.6593 12.3733C13.7332 12.8041 13.7085 13.3087 13.5853 13.8379C13.302 15.1097 12.4601 16.6482 11.1582 18.3056ZM20.756 19.4338C20.5876 20.681 19.7457 21.7641 18.567 22.2441C17.9879 22.482 17.3637 22.5559 16.7394 22.482C16.1398 22.4082 15.5361 22.2195 14.9119 21.8585C14.0453 21.3785 13.1788 20.6318 12.1685 19.5282C13.7537 17.5836 14.7188 15.8031 15.0802 14.2195C15.2486 13.4728 15.2733 12.8 15.1993 12.1764C15.1049 11.5774 14.8872 11.0236 14.5505 10.5436C13.803 9.46051 12.5545 8.83692 11.1582 8.83692C9.76183 8.83692 8.51333 9.48513 7.76588 10.5436C7.42912 11.0236 7.21145 11.5774 7.11699 12.1764C7.02253 12.8 7.04307 13.4974 7.23609 14.2195C7.5975 15.8031 8.58315 17.6082 10.1438 19.5528C9.15811 20.6564 8.26692 21.4031 7.40037 21.8831C6.77612 22.2441 6.17241 22.4369 5.5728 22.5067C4.92391 22.5805 4.29967 22.482 3.74524 22.2687C2.56656 21.7887 1.72465 20.7056 1.55627 19.4585C1.48234 18.8595 1.53163 18.2564 1.77393 17.5836C1.84375 17.3415 1.96696 17.1036 2.08606 16.8164C2.25444 16.4308 2.44746 16.0246 2.64049 15.6144L2.66513 15.5651C4.32431 11.9836 6.10259 8.33231 7.9548 4.77949L8.02872 4.6359C8.22174 4.27487 8.41477 3.89333 8.60779 3.53231C8.80081 3.14667 9.01848 2.78564 9.28132 2.47385C9.78647 1.89949 10.46 1.58359 11.2033 1.58359C11.9508 1.58359 12.6202 1.89538 13.1254 2.47385C13.3882 2.78564 13.6059 3.14667 13.7989 3.53231C13.9919 3.89333 14.1849 4.27897 14.378 4.6359L14.4519 4.77949C16.2753 8.34872 18.0331 11.9549 19.7169 15.5897V15.6144C19.9099 16 20.0783 16.4308 20.2713 16.8164C20.3904 17.1036 20.5137 17.3456 20.5835 17.5836C20.7806 18.2113 20.8504 18.8103 20.756 19.4338Z" fill="#FD5D07"/>
</g>
</g>
<defs>
<clipPath id="clip0_9_14017">
<rect width="77" height="24" fill="white"/>
</clipPath>
</defs>
</svg>
