<svg width="155" height="85" viewBox="0 0 155 85" fill="none" xmlns="http://www.w3.org/2000/svg">
<path d="M1.15527 72.0469H4.4502C5.19759 72.0469 5.82878 72.1608 6.34375 72.3887C6.86328 72.6165 7.25749 72.9538 7.52637 73.4004C7.7998 73.8424 7.93652 74.387 7.93652 75.0342C7.93652 75.4899 7.8431 75.9069 7.65625 76.2852C7.47396 76.6589 7.20964 76.9779 6.86328 77.2422C6.52148 77.502 6.11133 77.6956 5.63281 77.8232L5.26367 77.9668H2.16699L2.15332 76.8936H4.49121C4.96517 76.8936 5.35938 76.8115 5.67383 76.6475C5.98828 76.4788 6.22526 76.2533 6.38477 75.9707C6.54427 75.6882 6.62402 75.376 6.62402 75.0342C6.62402 74.6514 6.54883 74.3164 6.39844 74.0293C6.24805 73.7422 6.01107 73.5212 5.6875 73.3662C5.36849 73.2067 4.95605 73.127 4.4502 73.127H2.47461V82H1.15527V72.0469ZM6.97266 82L4.55273 77.4883L5.92676 77.4814L8.38086 81.918V82H6.97266ZM13.9521 80.7354V76.9277C13.9521 76.6361 13.8929 76.3831 13.7744 76.1689C13.6605 75.9502 13.4873 75.7816 13.2549 75.6631C13.0225 75.5446 12.7354 75.4854 12.3936 75.4854C12.0745 75.4854 11.7943 75.54 11.5527 75.6494C11.3158 75.7588 11.1289 75.9023 10.9922 76.0801C10.86 76.2578 10.7939 76.4492 10.7939 76.6543H9.5293C9.5293 76.39 9.59766 76.1279 9.73438 75.8682C9.87109 75.6084 10.0671 75.3737 10.3223 75.1641C10.582 74.9499 10.8919 74.7812 11.252 74.6582C11.6165 74.5306 12.0221 74.4668 12.4688 74.4668C13.0065 74.4668 13.4805 74.5579 13.8906 74.7402C14.3053 74.9225 14.6289 75.1982 14.8613 75.5674C15.0983 75.932 15.2168 76.39 15.2168 76.9414V80.3867C15.2168 80.6328 15.2373 80.8949 15.2783 81.1729C15.3239 81.4508 15.39 81.6901 15.4766 81.8906V82H14.1572C14.0934 81.8542 14.0433 81.6605 14.0068 81.4189C13.9704 81.1729 13.9521 80.945 13.9521 80.7354ZM14.1709 77.5156L14.1846 78.4043H12.9062C12.5462 78.4043 12.2249 78.4339 11.9424 78.4932C11.6598 78.5479 11.4229 78.6322 11.2314 78.7461C11.04 78.86 10.8942 79.0036 10.7939 79.1768C10.6937 79.3454 10.6436 79.5436 10.6436 79.7715C10.6436 80.0039 10.696 80.2158 10.8008 80.4072C10.9056 80.5986 11.0628 80.7513 11.2725 80.8652C11.4867 80.9746 11.7487 81.0293 12.0586 81.0293C12.446 81.0293 12.7878 80.9473 13.084 80.7832C13.3802 80.6191 13.6149 80.4186 13.7881 80.1816C13.9658 79.9447 14.0615 79.7145 14.0752 79.4912L14.6152 80.0996C14.5833 80.291 14.4967 80.5029 14.3555 80.7354C14.2142 80.9678 14.0251 81.1911 13.7881 81.4053C13.5557 81.6149 13.2777 81.7904 12.9541 81.9316C12.6351 82.0684 12.2751 82.1367 11.874 82.1367C11.3727 82.1367 10.9329 82.0387 10.5547 81.8428C10.181 81.6468 9.88932 81.3848 9.67969 81.0566C9.47461 80.724 9.37207 80.3525 9.37207 79.9424C9.37207 79.5459 9.44954 79.1973 9.60449 78.8965C9.75944 78.5911 9.98275 78.3382 10.2744 78.1377C10.5661 77.9326 10.917 77.7777 11.3271 77.6729C11.7373 77.568 12.1953 77.5156 12.7012 77.5156H14.1709ZM20.3027 74.6035V75.5742H16.3037V74.6035H20.3027ZM17.6572 72.8057H18.9219V80.168C18.9219 80.4186 18.9606 80.6077 19.0381 80.7354C19.1156 80.863 19.2158 80.9473 19.3389 80.9883C19.4619 81.0293 19.5941 81.0498 19.7354 81.0498C19.8402 81.0498 19.9495 81.0407 20.0635 81.0225C20.182 80.9997 20.2708 80.9814 20.3301 80.9678L20.3369 82C20.2367 82.0319 20.1045 82.0615 19.9404 82.0889C19.7809 82.1208 19.5872 82.1367 19.3594 82.1367C19.0495 82.1367 18.7646 82.0752 18.5049 81.9521C18.2451 81.8291 18.0378 81.624 17.8828 81.3369C17.7324 81.0452 17.6572 80.6533 17.6572 80.1611V72.8057ZM23.1602 74.6035V82H21.8887V74.6035H23.1602ZM21.793 72.6416C21.793 72.4365 21.8545 72.2633 21.9775 72.1221C22.1051 71.9808 22.292 71.9102 22.5381 71.9102C22.7796 71.9102 22.9642 71.9808 23.0918 72.1221C23.224 72.2633 23.29 72.4365 23.29 72.6416C23.29 72.8376 23.224 73.0062 23.0918 73.1475C22.9642 73.2842 22.7796 73.3525 22.5381 73.3525C22.292 73.3525 22.1051 73.2842 21.9775 73.1475C21.8545 73.0062 21.793 72.8376 21.793 72.6416ZM26.4551 76.1826V82H25.1904V74.6035H26.3867L26.4551 76.1826ZM26.1543 78.0215L25.6279 78.001C25.6325 77.4951 25.7077 77.028 25.8535 76.5996C25.9993 76.1667 26.2044 75.7907 26.4688 75.4717C26.7331 75.1527 27.0475 74.9066 27.4121 74.7334C27.7812 74.5557 28.1891 74.4668 28.6357 74.4668C29.0003 74.4668 29.3285 74.5169 29.6201 74.6172C29.9118 74.7129 30.1602 74.8678 30.3652 75.082C30.5749 75.2962 30.7344 75.5742 30.8438 75.916C30.9531 76.2533 31.0078 76.6657 31.0078 77.1533V82H29.7363V77.1396C29.7363 76.7523 29.6794 76.4424 29.5654 76.21C29.4515 75.973 29.2852 75.8021 29.0664 75.6973C28.8477 75.5879 28.5788 75.5332 28.2598 75.5332C27.9453 75.5332 27.6582 75.5993 27.3984 75.7314C27.1432 75.8636 26.9222 76.0459 26.7354 76.2783C26.5531 76.5107 26.4095 76.7773 26.3047 77.0781C26.2044 77.3743 26.1543 77.6888 26.1543 78.0215ZM37.7207 74.6035H38.8691V81.8428C38.8691 82.4945 38.737 83.0505 38.4727 83.5107C38.2083 83.971 37.8392 84.3197 37.3652 84.5566C36.8958 84.7982 36.3535 84.9189 35.7383 84.9189C35.4831 84.9189 35.1823 84.8779 34.8359 84.7959C34.4941 84.7184 34.1569 84.584 33.8242 84.3926C33.4961 84.2057 33.2204 83.9528 32.9971 83.6338L33.6602 82.8818C33.9701 83.2555 34.2936 83.5153 34.6309 83.6611C34.9727 83.807 35.3099 83.8799 35.6426 83.8799C36.0436 83.8799 36.39 83.8047 36.6816 83.6543C36.9733 83.5039 37.1989 83.2806 37.3584 82.9844C37.5225 82.6927 37.6045 82.3327 37.6045 81.9043V76.2305L37.7207 74.6035ZM32.6279 78.3838V78.2402C32.6279 77.6751 32.694 77.1624 32.8262 76.7021C32.9629 76.2373 33.1566 75.8385 33.4072 75.5059C33.6624 75.1732 33.9701 74.918 34.3301 74.7402C34.6901 74.5579 35.0957 74.4668 35.5469 74.4668C36.0117 74.4668 36.4173 74.5488 36.7637 74.7129C37.1146 74.8724 37.4108 75.1071 37.6523 75.417C37.8984 75.7223 38.0921 76.0915 38.2334 76.5244C38.3747 76.9574 38.4727 77.4473 38.5273 77.9941V78.623C38.4772 79.1654 38.3792 79.653 38.2334 80.0859C38.0921 80.5189 37.8984 80.888 37.6523 81.1934C37.4108 81.4987 37.1146 81.7334 36.7637 81.8975C36.4128 82.057 36.0026 82.1367 35.5332 82.1367C35.0911 82.1367 34.6901 82.0433 34.3301 81.8564C33.9746 81.6696 33.6693 81.4076 33.4141 81.0703C33.1589 80.7331 32.9629 80.3366 32.8262 79.8809C32.694 79.4206 32.6279 78.9215 32.6279 78.3838ZM33.8926 78.2402V78.3838C33.8926 78.7529 33.929 79.0993 34.002 79.4229C34.0794 79.7464 34.1956 80.0312 34.3506 80.2773C34.5101 80.5234 34.7129 80.7171 34.959 80.8584C35.2051 80.9951 35.499 81.0635 35.8408 81.0635C36.2601 81.0635 36.6064 80.9746 36.8799 80.7969C37.1533 80.6191 37.3698 80.3844 37.5293 80.0928C37.6934 79.8011 37.821 79.4844 37.9121 79.1426V77.4951C37.862 77.2445 37.7845 77.0029 37.6797 76.7705C37.5794 76.5335 37.4473 76.3239 37.2832 76.1416C37.1237 75.9548 36.9255 75.8066 36.6885 75.6973C36.4515 75.5879 36.1735 75.5332 35.8545 75.5332C35.5081 75.5332 35.2096 75.6061 34.959 75.752C34.7129 75.8932 34.5101 76.0892 34.3506 76.3398C34.1956 76.5859 34.0794 76.873 34.002 77.2012C33.929 77.5247 33.8926 77.8711 33.8926 78.2402ZM40.7354 81.3301C40.7354 81.1159 40.8014 80.9359 40.9336 80.79C41.0703 80.6396 41.2663 80.5645 41.5215 80.5645C41.7767 80.5645 41.9704 80.6396 42.1025 80.79C42.2393 80.9359 42.3076 81.1159 42.3076 81.3301C42.3076 81.5397 42.2393 81.7174 42.1025 81.8633C41.9704 82.0091 41.7767 82.082 41.5215 82.082C41.2663 82.082 41.0703 82.0091 40.9336 81.8633C40.8014 81.7174 40.7354 81.5397 40.7354 81.3301ZM40.7422 75.2939C40.7422 75.0798 40.8083 74.8997 40.9404 74.7539C41.0771 74.6035 41.2731 74.5283 41.5283 74.5283C41.7835 74.5283 41.9772 74.6035 42.1094 74.7539C42.2461 74.8997 42.3145 75.0798 42.3145 75.2939C42.3145 75.5036 42.2461 75.6813 42.1094 75.8271C41.9772 75.973 41.7835 76.0459 41.5283 76.0459C41.2731 76.0459 41.0771 75.973 40.9404 75.8271C40.8083 75.6813 40.7422 75.5036 40.7422 75.2939ZM54.2432 78.6504V79.6895H47.0518V78.9443L51.5088 72.0469H52.541L51.4336 74.043L48.4873 78.6504H54.2432ZM52.8555 72.0469V82H51.5908V72.0469H52.8555ZM55.5488 81.3301C55.5488 81.1159 55.6149 80.9359 55.7471 80.79C55.8838 80.6396 56.0798 80.5645 56.335 80.5645C56.5902 80.5645 56.7839 80.6396 56.916 80.79C57.0527 80.9359 57.1211 81.1159 57.1211 81.3301C57.1211 81.5397 57.0527 81.7174 56.916 81.8633C56.7839 82.0091 56.5902 82.082 56.335 82.082C56.0798 82.082 55.8838 82.0091 55.7471 81.8633C55.6149 81.7174 55.5488 81.5397 55.5488 81.3301ZM63.2393 71.9922V82H61.9746V73.5713L59.4248 74.501V73.3594L63.041 71.9922H63.2393ZM71.4971 72.0469L67.3477 82.8545H66.2607L70.417 72.0469H71.4971ZM76.8975 71.9922V82H75.6328V73.5713L73.083 74.501V73.3594L76.6992 71.9922H76.8975ZM87.1377 80.9609V82H80.623V81.0908L83.8838 77.4609C84.2848 77.0143 84.5947 76.6361 84.8135 76.3262C85.0368 76.0117 85.1917 75.7314 85.2783 75.4854C85.3695 75.2347 85.415 74.9795 85.415 74.7197C85.415 74.3916 85.3467 74.0954 85.21 73.8311C85.0778 73.5622 84.8818 73.348 84.6221 73.1885C84.3623 73.029 84.0479 72.9492 83.6787 72.9492C83.2367 72.9492 82.8675 73.0358 82.5713 73.209C82.2796 73.3776 82.0609 73.6146 81.915 73.9199C81.7692 74.2253 81.6963 74.5762 81.6963 74.9727H80.4316C80.4316 74.4121 80.5547 73.8994 80.8008 73.4346C81.0469 72.9697 81.4115 72.6006 81.8945 72.3271C82.3776 72.0492 82.9723 71.9102 83.6787 71.9102C84.3076 71.9102 84.8454 72.0218 85.292 72.2451C85.7386 72.4639 86.0804 72.7738 86.3174 73.1748C86.5589 73.5713 86.6797 74.0361 86.6797 74.5693C86.6797 74.861 86.6296 75.1572 86.5293 75.458C86.4336 75.7542 86.2992 76.0505 86.126 76.3467C85.9574 76.6429 85.7591 76.9346 85.5312 77.2217C85.3079 77.5088 85.0687 77.7913 84.8135 78.0693L82.1475 80.9609H87.1377ZM94.7393 76.2305V77.748C94.7393 78.5638 94.6663 79.252 94.5205 79.8125C94.3747 80.373 94.165 80.8242 93.8916 81.166C93.6182 81.5078 93.2878 81.7562 92.9004 81.9111C92.5176 82.0615 92.0846 82.1367 91.6016 82.1367C91.2188 82.1367 90.8656 82.0889 90.542 81.9932C90.2184 81.8975 89.9268 81.7448 89.667 81.5352C89.4118 81.321 89.193 81.043 89.0107 80.7012C88.8285 80.3594 88.6895 79.9447 88.5938 79.457C88.498 78.9694 88.4502 78.3997 88.4502 77.748V76.2305C88.4502 75.4147 88.5231 74.7311 88.6689 74.1797C88.8193 73.6283 89.0312 73.1862 89.3047 72.8535C89.5781 72.5163 89.9062 72.2747 90.2891 72.1289C90.6764 71.9831 91.1094 71.9102 91.5879 71.9102C91.9753 71.9102 92.3307 71.958 92.6543 72.0537C92.9824 72.1449 93.2741 72.293 93.5293 72.498C93.7845 72.6986 94.001 72.9674 94.1787 73.3047C94.361 73.6374 94.5 74.0452 94.5957 74.5283C94.6914 75.0114 94.7393 75.5788 94.7393 76.2305ZM93.4678 77.9531V76.0186C93.4678 75.5719 93.4404 75.18 93.3857 74.8428C93.3356 74.501 93.2604 74.2093 93.1602 73.9678C93.0599 73.7262 92.9323 73.5303 92.7773 73.3799C92.627 73.2295 92.4515 73.1201 92.251 73.0518C92.055 72.9788 91.834 72.9424 91.5879 72.9424C91.2871 72.9424 91.0205 72.9993 90.7881 73.1133C90.5557 73.2227 90.3597 73.3981 90.2002 73.6396C90.0452 73.8812 89.9268 74.1979 89.8447 74.5898C89.7627 74.9818 89.7217 75.458 89.7217 76.0186V77.9531C89.7217 78.3997 89.7467 78.7939 89.7969 79.1357C89.8516 79.4775 89.9313 79.7738 90.0361 80.0244C90.141 80.2705 90.2686 80.4733 90.4189 80.6328C90.5693 80.7923 90.7425 80.9108 90.9385 80.9883C91.139 81.0612 91.36 81.0977 91.6016 81.0977C91.9115 81.0977 92.1826 81.0384 92.415 80.9199C92.6475 80.8014 92.8411 80.6169 92.9961 80.3662C93.1556 80.111 93.2741 79.7852 93.3516 79.3887C93.429 78.9876 93.4678 78.5091 93.4678 77.9531ZM100.522 71.9922V82H99.2578V73.5713L96.708 74.501V73.3594L100.324 71.9922H100.522ZM109.115 75.7656V82H107.851V74.6035H109.081L109.115 75.7656ZM111.426 74.5625L111.419 75.7383C111.314 75.7155 111.214 75.7018 111.118 75.6973C111.027 75.6882 110.922 75.6836 110.804 75.6836C110.512 75.6836 110.255 75.7292 110.031 75.8203C109.808 75.9115 109.619 76.0391 109.464 76.2031C109.309 76.3672 109.186 76.5632 109.095 76.791C109.008 77.0143 108.951 77.2604 108.924 77.5293L108.568 77.7344C108.568 77.2878 108.612 76.8685 108.698 76.4766C108.789 76.0846 108.928 75.7383 109.115 75.4375C109.302 75.1322 109.539 74.8952 109.826 74.7266C110.118 74.5534 110.464 74.4668 110.865 74.4668C110.956 74.4668 111.061 74.4782 111.18 74.501C111.298 74.5192 111.38 74.5397 111.426 74.5625ZM115.527 82.1367C115.012 82.1367 114.545 82.0501 114.126 81.877C113.711 81.6992 113.354 81.4508 113.053 81.1318C112.757 80.8128 112.529 80.4346 112.369 79.9971C112.21 79.5596 112.13 79.0811 112.13 78.5615V78.2744C112.13 77.6729 112.219 77.1374 112.396 76.668C112.574 76.194 112.816 75.793 113.121 75.4648C113.426 75.1367 113.773 74.8883 114.16 74.7197C114.548 74.5511 114.949 74.4668 115.363 74.4668C115.892 74.4668 116.348 74.5579 116.73 74.7402C117.118 74.9225 117.435 75.1777 117.681 75.5059C117.927 75.8294 118.109 76.2122 118.228 76.6543C118.346 77.0918 118.405 77.5703 118.405 78.0898V78.6572H112.882V77.625H117.141V77.5293C117.122 77.2012 117.054 76.8822 116.936 76.5723C116.822 76.2624 116.639 76.0072 116.389 75.8066C116.138 75.6061 115.796 75.5059 115.363 75.5059C115.076 75.5059 114.812 75.5674 114.57 75.6904C114.329 75.8089 114.121 75.9867 113.948 76.2236C113.775 76.4606 113.641 76.75 113.545 77.0918C113.449 77.4336 113.401 77.8278 113.401 78.2744V78.5615C113.401 78.9124 113.449 79.2428 113.545 79.5527C113.645 79.8581 113.789 80.127 113.976 80.3594C114.167 80.5918 114.397 80.7741 114.666 80.9062C114.939 81.0384 115.249 81.1045 115.596 81.1045C116.042 81.1045 116.421 81.0133 116.73 80.8311C117.04 80.6488 117.312 80.4049 117.544 80.0996L118.31 80.708C118.15 80.9495 117.947 81.1797 117.701 81.3984C117.455 81.6172 117.152 81.7949 116.792 81.9316C116.437 82.0684 116.015 82.1367 115.527 82.1367ZM122.035 80.8584L124.059 74.6035H125.351L122.691 82H121.844L122.035 80.8584ZM120.347 74.6035L122.432 80.8926L122.575 82H121.728L119.048 74.6035H120.347ZM127.941 74.6035V82H126.67V74.6035H127.941ZM126.574 72.6416C126.574 72.4365 126.636 72.2633 126.759 72.1221C126.886 71.9808 127.073 71.9102 127.319 71.9102C127.561 71.9102 127.745 71.9808 127.873 72.1221C128.005 72.2633 128.071 72.4365 128.071 72.6416C128.071 72.8376 128.005 73.0062 127.873 73.1475C127.745 73.2842 127.561 73.3525 127.319 73.3525C127.073 73.3525 126.886 73.2842 126.759 73.1475C126.636 73.0062 126.574 72.8376 126.574 72.6416ZM133.041 82.1367C132.526 82.1367 132.059 82.0501 131.64 81.877C131.225 81.6992 130.867 81.4508 130.566 81.1318C130.27 80.8128 130.042 80.4346 129.883 79.9971C129.723 79.5596 129.644 79.0811 129.644 78.5615V78.2744C129.644 77.6729 129.732 77.1374 129.91 76.668C130.088 76.194 130.329 75.793 130.635 75.4648C130.94 75.1367 131.286 74.8883 131.674 74.7197C132.061 74.5511 132.462 74.4668 132.877 74.4668C133.406 74.4668 133.861 74.5579 134.244 74.7402C134.632 74.9225 134.948 75.1777 135.194 75.5059C135.44 75.8294 135.623 76.2122 135.741 76.6543C135.86 77.0918 135.919 77.5703 135.919 78.0898V78.6572H130.396V77.625H134.654V77.5293C134.636 77.2012 134.568 76.8822 134.449 76.5723C134.335 76.2624 134.153 76.0072 133.902 75.8066C133.652 75.6061 133.31 75.5059 132.877 75.5059C132.59 75.5059 132.326 75.5674 132.084 75.6904C131.842 75.8089 131.635 75.9867 131.462 76.2236C131.289 76.4606 131.154 76.75 131.059 77.0918C130.963 77.4336 130.915 77.8278 130.915 78.2744V78.5615C130.915 78.9124 130.963 79.2428 131.059 79.5527C131.159 79.8581 131.302 80.127 131.489 80.3594C131.681 80.5918 131.911 80.7741 132.18 80.9062C132.453 81.0384 132.763 81.1045 133.109 81.1045C133.556 81.1045 133.934 81.0133 134.244 80.8311C134.554 80.6488 134.825 80.4049 135.058 80.0996L135.823 80.708C135.664 80.9495 135.461 81.1797 135.215 81.3984C134.969 81.6172 134.666 81.7949 134.306 81.9316C133.95 82.0684 133.529 82.1367 133.041 82.1367ZM139.269 80.6875L141.169 74.6035H142.003L141.839 75.8135L139.904 82H139.091L139.269 80.6875ZM137.99 74.6035L139.61 80.7559L139.727 82H138.872L136.726 74.6035H137.99ZM143.821 80.708L145.366 74.6035H146.624L144.478 82H143.63L143.821 80.708ZM142.188 74.6035L144.047 80.585L144.259 82H143.452L141.463 75.7998L141.299 74.6035H142.188ZM152.229 80.0381C152.229 79.8558 152.188 79.6872 152.106 79.5322C152.029 79.3727 151.867 79.2292 151.621 79.1016C151.38 78.9694 151.015 78.8555 150.527 78.7598C150.117 78.6732 149.746 78.5706 149.413 78.4521C149.085 78.3337 148.805 78.1901 148.572 78.0215C148.344 77.8529 148.169 77.6546 148.046 77.4268C147.923 77.1989 147.861 76.9323 147.861 76.627C147.861 76.3353 147.925 76.0596 148.053 75.7998C148.185 75.54 148.369 75.3099 148.606 75.1094C148.848 74.9089 149.137 74.7516 149.475 74.6377C149.812 74.5238 150.188 74.4668 150.603 74.4668C151.195 74.4668 151.701 74.5716 152.12 74.7812C152.539 74.9909 152.861 75.2712 153.084 75.6221C153.307 75.9684 153.419 76.3535 153.419 76.7773H152.154C152.154 76.5723 152.093 76.374 151.97 76.1826C151.851 75.9867 151.676 75.8249 151.443 75.6973C151.215 75.5697 150.935 75.5059 150.603 75.5059C150.252 75.5059 149.967 75.5605 149.748 75.6699C149.534 75.7747 149.377 75.9092 149.276 76.0732C149.181 76.2373 149.133 76.4105 149.133 76.5928C149.133 76.7295 149.156 76.8525 149.201 76.9619C149.251 77.0667 149.338 77.1647 149.461 77.2559C149.584 77.3424 149.757 77.4245 149.98 77.502C150.204 77.5794 150.489 77.6569 150.835 77.7344C151.441 77.8711 151.94 78.0352 152.332 78.2266C152.724 78.418 153.016 78.6527 153.207 78.9307C153.398 79.2087 153.494 79.5459 153.494 79.9424C153.494 80.266 153.426 80.5622 153.289 80.8311C153.157 81.0999 152.963 81.3324 152.708 81.5283C152.457 81.7197 152.157 81.8701 151.806 81.9795C151.459 82.0843 151.07 82.1367 150.637 82.1367C149.985 82.1367 149.434 82.0205 148.982 81.7881C148.531 81.5557 148.189 81.2549 147.957 80.8857C147.725 80.5166 147.608 80.127 147.608 79.7168H148.88C148.898 80.0632 148.998 80.3389 149.181 80.5439C149.363 80.7445 149.586 80.888 149.851 80.9746C150.115 81.0566 150.377 81.0977 150.637 81.0977C150.983 81.0977 151.272 81.0521 151.505 80.9609C151.742 80.8698 151.922 80.7445 152.045 80.585C152.168 80.4255 152.229 80.2432 152.229 80.0381Z" fill="#001233"/>
<path d="M10.6762 39.7617L13.0731 47.5271L20.8299 47.5271L14.5545 52.3263L16.9515 60.0916L10.6762 55.2924L4.40088 60.0916L6.79784 52.3263L0.52253 47.5271L8.27924 47.5271L10.6762 39.7617Z" fill="#00B67A"/>
<path d="M34.8377 39.7617L37.3608 47.5271L45.5258 47.5271L38.9202 52.3263L41.4433 60.0916L34.8377 55.2924L28.2321 60.0916L30.7552 52.3263L24.1496 47.5271L32.3146 47.5271L34.8377 39.7617Z" fill="#00B67A"/>
<path d="M59.0004 39.7617L61.3974 47.5271L69.1541 47.5271L62.8788 52.3263L65.2757 60.0916L59.0004 55.2924L52.7251 60.0916L55.1221 52.3263L48.8467 47.5271L56.6035 47.5271L59.0004 39.7617Z" fill="#00B67A"/>
<path d="M83.1619 39.7617L85.685 47.5271L93.85 47.5271L87.2444 52.3263L89.7675 60.0916L83.1619 55.2924L76.5563 60.0916L79.0794 52.3263L72.4739 47.5271L80.6388 47.5271L83.1619 39.7617Z" fill="#00B67A"/>
<path d="M107.325 39.7617L109.722 47.5271L117.478 47.5271L111.203 52.3263L113.6 60.0916L107.325 55.2924L101.049 60.0916L103.446 52.3263L97.171 47.5271L104.928 47.5271L107.325 39.7617Z" fill="#00B67A"/>
<path fill-rule="evenodd" clip-rule="evenodd" d="M11.9463 0.103516H12.809C15.8036 0.168486 18.7493 1.37294 20.8651 3.50498C20.0839 4.30236 19.2865 5.06727 18.5216 5.86491C17.3337 4.79089 15.9013 3.96077 14.3388 3.6679C12.0278 3.17962 9.53769 3.61917 7.60106 4.93733C5.48527 6.3207 4.05292 8.66439 3.74381 11.1708C3.40197 13.6446 4.1019 16.2487 5.71292 18.1691C7.25922 20.0407 9.61915 21.2125 12.0603 21.2939C14.3388 21.4241 16.7149 20.7242 18.3749 19.1294C19.6771 18.0064 20.2793 16.2974 20.4745 14.6374C17.773 14.6374 15.0712 14.6537 12.3697 14.6374V11.2847H23.746C24.3317 14.8816 23.4856 18.934 20.7514 21.5056C18.9287 23.3282 16.4061 24.4025 13.8345 24.6142C11.3444 24.8583 8.77303 24.3863 6.55954 23.1818C3.90674 21.766 1.79094 19.3735 0.749166 16.5581C-0.227391 13.9702 -0.243634 11.0408 0.667703 8.43674C1.49783 6.06057 3.09286 3.96102 5.14343 2.49643C7.11253 1.04809 9.50495 0.250449 11.9463 0.104015V0.103516Z" fill="#3780FF"/>
<path fill-rule="evenodd" clip-rule="evenodd" d="M77.209 0.950195H80.6919V24.1909C79.5364 24.1909 78.3647 24.2072 77.209 24.1747C77.2252 16.4442 77.209 8.69719 77.209 0.950195Z" fill="#38B137"/>
<path fill-rule="evenodd" clip-rule="evenodd" d="M31.4919 9.00579C33.6401 8.59873 35.9676 9.05452 37.7415 10.3402C39.3528 11.4794 40.4758 13.2696 40.8176 15.2227C41.2569 17.485 40.7037 19.9586 39.2389 21.749C37.6601 23.7509 35.0722 24.8251 32.5499 24.6622C30.2387 24.532 27.993 23.3765 26.6256 21.4886C25.0795 19.4056 24.7052 16.5411 25.5516 14.0997C26.3979 11.4794 28.7903 9.47783 31.4919 9.00579ZM31.9801 12.0979C31.1013 12.3258 30.2877 12.8303 29.7017 13.5462C28.1229 15.4341 28.2206 18.5102 29.9621 20.2679C30.9549 21.277 32.4522 21.749 33.8356 21.4724C35.1212 21.2445 36.2442 20.3819 36.8627 19.2427C37.9367 17.3058 37.6276 14.6367 35.9838 13.1232C34.9261 12.1466 33.38 11.7398 31.9801 12.0979Z" fill="#FA3913"/>
<path fill-rule="evenodd" clip-rule="evenodd" d="M48.7446 9.00594C51.2022 8.5339 53.8875 9.21759 55.7267 10.9428C58.7213 13.6283 59.0469 18.6573 56.4916 21.7494C54.9455 23.7025 52.4391 24.7765 49.9653 24.6626C47.6053 24.5976 45.2781 23.4259 43.8783 21.489C42.2997 19.357 41.9579 16.4276 42.853 13.9375C43.7481 11.3986 46.0915 9.46173 48.7443 9.00618L48.7446 9.00594ZM49.2328 12.098C48.354 12.3259 47.5404 12.8305 46.9544 13.5304C45.3921 15.3855 45.4571 18.4127 47.1333 20.1869C48.1261 21.2446 49.6722 21.7657 51.1045 21.4725C52.3739 21.2284 53.5132 20.382 54.1316 19.2428C55.1894 17.2899 54.88 14.6209 53.2203 13.1071C52.1623 12.1305 50.6162 11.7399 49.2328 12.098Z" fill="#FCBD06"/>
<path fill-rule="evenodd" clip-rule="evenodd" d="M63.3734 9.95044C65.2451 8.77847 67.735 8.45312 69.7533 9.46216C70.388 9.73879 70.909 10.2108 71.4133 10.6829C71.4295 10.2433 71.4133 9.78752 71.4295 9.33197C72.52 9.34822 73.6103 9.33197 74.7171 9.34822V23.703C74.7008 25.8675 74.1476 28.1622 72.5853 29.741C70.8763 31.4824 68.256 32.0194 65.896 31.6614C63.3734 31.287 61.1764 29.4479 60.1999 27.1207C61.1764 26.6486 62.2017 26.2743 63.2108 25.835C63.7803 27.1694 64.936 28.3089 66.3843 28.5693C67.8327 28.8296 69.5092 28.4716 70.4532 27.2671C71.4623 26.0302 71.4623 24.3377 71.4133 22.8239C70.6646 23.5563 69.802 24.2072 68.7605 24.4516C66.4983 25.0863 64.0081 24.3049 62.2667 22.7751C60.509 21.2453 59.4672 18.8854 59.5649 16.5417C59.6139 13.8889 61.1112 11.3338 63.3734 9.95044ZM66.7424 12.0335C65.7496 12.1962 64.822 12.7497 64.1873 13.5146C62.6575 15.3373 62.6575 18.2504 64.2036 20.0409C65.0824 21.0986 66.4983 21.6846 67.8654 21.5379C69.1511 21.4078 70.3393 20.5941 70.974 19.4711C72.048 17.567 71.8691 14.9792 70.4207 13.3192C69.5256 12.2939 68.0935 11.7891 66.7427 12.0335H66.7424Z" fill="#3780FF"/>
<path fill-rule="evenodd" clip-rule="evenodd" d="M84.8736 10.7799C86.8265 8.957 89.8376 8.33853 92.3437 9.29885C94.7199 10.1939 96.2334 12.4562 96.9986 14.7836C93.4667 16.2484 89.9513 17.6968 86.4196 19.1616C86.9079 20.0892 87.6563 20.9356 88.6656 21.2774C90.0817 21.7819 91.7742 21.603 92.9624 20.659C93.4342 20.3009 93.8085 19.8288 94.1666 19.3733C95.062 19.9753 95.9571 20.5612 96.8522 21.1635C95.5827 23.0679 93.4507 24.4023 91.156 24.6139C88.6171 24.923 85.9154 23.9465 84.2716 21.9611C81.5701 18.8363 81.8305 13.5957 84.8738 10.7799V10.7802L84.8736 10.7799ZM86.615 13.7908C86.0618 14.5882 85.8337 15.5648 85.8501 16.5251C88.2101 15.5485 90.57 14.572 92.9299 13.5792C92.5394 12.6678 91.5953 12.1143 90.6352 11.9679C89.0892 11.6913 87.4779 12.5211 86.6153 13.7906L86.615 13.7908Z" fill="#FA3913"/>
</svg>
