<svg width="155" height="84" viewBox="0 0 155 84" fill="none" xmlns="http://www.w3.org/2000/svg">
<path d="M1.15527 71.0469H4.4502C5.19759 71.0469 5.82878 71.1608 6.34375 71.3887C6.86328 71.6165 7.25749 71.9538 7.52637 72.4004C7.7998 72.8424 7.93652 73.387 7.93652 74.0342C7.93652 74.4899 7.8431 74.9069 7.65625 75.2852C7.47396 75.6589 7.20964 75.9779 6.86328 76.2422C6.52148 76.502 6.11133 76.6956 5.63281 76.8232L5.26367 76.9668H2.16699L2.15332 75.8936H4.49121C4.96517 75.8936 5.35938 75.8115 5.67383 75.6475C5.98828 75.4788 6.22526 75.2533 6.38477 74.9707C6.54427 74.6882 6.62402 74.376 6.62402 74.0342C6.62402 73.6514 6.54883 73.3164 6.39844 73.0293C6.24805 72.7422 6.01107 72.5212 5.6875 72.3662C5.36849 72.2067 4.95605 72.127 4.4502 72.127H2.47461V81H1.15527V71.0469ZM6.97266 81L4.55273 76.4883L5.92676 76.4814L8.38086 80.918V81H6.97266ZM13.9521 79.7354V75.9277C13.9521 75.6361 13.8929 75.3831 13.7744 75.1689C13.6605 74.9502 13.4873 74.7816 13.2549 74.6631C13.0225 74.5446 12.7354 74.4854 12.3936 74.4854C12.0745 74.4854 11.7943 74.54 11.5527 74.6494C11.3158 74.7588 11.1289 74.9023 10.9922 75.0801C10.86 75.2578 10.7939 75.4492 10.7939 75.6543H9.5293C9.5293 75.39 9.59766 75.1279 9.73438 74.8682C9.87109 74.6084 10.0671 74.3737 10.3223 74.1641C10.582 73.9499 10.8919 73.7812 11.252 73.6582C11.6165 73.5306 12.0221 73.4668 12.4688 73.4668C13.0065 73.4668 13.4805 73.5579 13.8906 73.7402C14.3053 73.9225 14.6289 74.1982 14.8613 74.5674C15.0983 74.932 15.2168 75.39 15.2168 75.9414V79.3867C15.2168 79.6328 15.2373 79.8949 15.2783 80.1729C15.3239 80.4508 15.39 80.6901 15.4766 80.8906V81H14.1572C14.0934 80.8542 14.0433 80.6605 14.0068 80.4189C13.9704 80.1729 13.9521 79.945 13.9521 79.7354ZM14.1709 76.5156L14.1846 77.4043H12.9062C12.5462 77.4043 12.2249 77.4339 11.9424 77.4932C11.6598 77.5479 11.4229 77.6322 11.2314 77.7461C11.04 77.86 10.8942 78.0036 10.7939 78.1768C10.6937 78.3454 10.6436 78.5436 10.6436 78.7715C10.6436 79.0039 10.696 79.2158 10.8008 79.4072C10.9056 79.5986 11.0628 79.7513 11.2725 79.8652C11.4867 79.9746 11.7487 80.0293 12.0586 80.0293C12.446 80.0293 12.7878 79.9473 13.084 79.7832C13.3802 79.6191 13.6149 79.4186 13.7881 79.1816C13.9658 78.9447 14.0615 78.7145 14.0752 78.4912L14.6152 79.0996C14.5833 79.291 14.4967 79.5029 14.3555 79.7354C14.2142 79.9678 14.0251 80.1911 13.7881 80.4053C13.5557 80.6149 13.2777 80.7904 12.9541 80.9316C12.6351 81.0684 12.2751 81.1367 11.874 81.1367C11.3727 81.1367 10.9329 81.0387 10.5547 80.8428C10.181 80.6468 9.88932 80.3848 9.67969 80.0566C9.47461 79.724 9.37207 79.3525 9.37207 78.9424C9.37207 78.5459 9.44954 78.1973 9.60449 77.8965C9.75944 77.5911 9.98275 77.3382 10.2744 77.1377C10.5661 76.9326 10.917 76.7777 11.3271 76.6729C11.7373 76.568 12.1953 76.5156 12.7012 76.5156H14.1709ZM20.3027 73.6035V74.5742H16.3037V73.6035H20.3027ZM17.6572 71.8057H18.9219V79.168C18.9219 79.4186 18.9606 79.6077 19.0381 79.7354C19.1156 79.863 19.2158 79.9473 19.3389 79.9883C19.4619 80.0293 19.5941 80.0498 19.7354 80.0498C19.8402 80.0498 19.9495 80.0407 20.0635 80.0225C20.182 79.9997 20.2708 79.9814 20.3301 79.9678L20.3369 81C20.2367 81.0319 20.1045 81.0615 19.9404 81.0889C19.7809 81.1208 19.5872 81.1367 19.3594 81.1367C19.0495 81.1367 18.7646 81.0752 18.5049 80.9521C18.2451 80.8291 18.0378 80.624 17.8828 80.3369C17.7324 80.0452 17.6572 79.6533 17.6572 79.1611V71.8057ZM23.1602 73.6035V81H21.8887V73.6035H23.1602ZM21.793 71.6416C21.793 71.4365 21.8545 71.2633 21.9775 71.1221C22.1051 70.9808 22.292 70.9102 22.5381 70.9102C22.7796 70.9102 22.9642 70.9808 23.0918 71.1221C23.224 71.2633 23.29 71.4365 23.29 71.6416C23.29 71.8376 23.224 72.0062 23.0918 72.1475C22.9642 72.2842 22.7796 72.3525 22.5381 72.3525C22.292 72.3525 22.1051 72.2842 21.9775 72.1475C21.8545 72.0062 21.793 71.8376 21.793 71.6416ZM26.4551 75.1826V81H25.1904V73.6035H26.3867L26.4551 75.1826ZM26.1543 77.0215L25.6279 77.001C25.6325 76.4951 25.7077 76.028 25.8535 75.5996C25.9993 75.1667 26.2044 74.7907 26.4688 74.4717C26.7331 74.1527 27.0475 73.9066 27.4121 73.7334C27.7812 73.5557 28.1891 73.4668 28.6357 73.4668C29.0003 73.4668 29.3285 73.5169 29.6201 73.6172C29.9118 73.7129 30.1602 73.8678 30.3652 74.082C30.5749 74.2962 30.7344 74.5742 30.8438 74.916C30.9531 75.2533 31.0078 75.6657 31.0078 76.1533V81H29.7363V76.1396C29.7363 75.7523 29.6794 75.4424 29.5654 75.21C29.4515 74.973 29.2852 74.8021 29.0664 74.6973C28.8477 74.5879 28.5788 74.5332 28.2598 74.5332C27.9453 74.5332 27.6582 74.5993 27.3984 74.7314C27.1432 74.8636 26.9222 75.0459 26.7354 75.2783C26.5531 75.5107 26.4095 75.7773 26.3047 76.0781C26.2044 76.3743 26.1543 76.6888 26.1543 77.0215ZM37.7207 73.6035H38.8691V80.8428C38.8691 81.4945 38.737 82.0505 38.4727 82.5107C38.2083 82.971 37.8392 83.3197 37.3652 83.5566C36.8958 83.7982 36.3535 83.9189 35.7383 83.9189C35.4831 83.9189 35.1823 83.8779 34.8359 83.7959C34.4941 83.7184 34.1569 83.584 33.8242 83.3926C33.4961 83.2057 33.2204 82.9528 32.9971 82.6338L33.6602 81.8818C33.9701 82.2555 34.2936 82.5153 34.6309 82.6611C34.9727 82.807 35.3099 82.8799 35.6426 82.8799C36.0436 82.8799 36.39 82.8047 36.6816 82.6543C36.9733 82.5039 37.1989 82.2806 37.3584 81.9844C37.5225 81.6927 37.6045 81.3327 37.6045 80.9043V75.2305L37.7207 73.6035ZM32.6279 77.3838V77.2402C32.6279 76.6751 32.694 76.1624 32.8262 75.7021C32.9629 75.2373 33.1566 74.8385 33.4072 74.5059C33.6624 74.1732 33.9701 73.918 34.3301 73.7402C34.6901 73.5579 35.0957 73.4668 35.5469 73.4668C36.0117 73.4668 36.4173 73.5488 36.7637 73.7129C37.1146 73.8724 37.4108 74.1071 37.6523 74.417C37.8984 74.7223 38.0921 75.0915 38.2334 75.5244C38.3747 75.9574 38.4727 76.4473 38.5273 76.9941V77.623C38.4772 78.1654 38.3792 78.653 38.2334 79.0859C38.0921 79.5189 37.8984 79.888 37.6523 80.1934C37.4108 80.4987 37.1146 80.7334 36.7637 80.8975C36.4128 81.057 36.0026 81.1367 35.5332 81.1367C35.0911 81.1367 34.6901 81.0433 34.3301 80.8564C33.9746 80.6696 33.6693 80.4076 33.4141 80.0703C33.1589 79.7331 32.9629 79.3366 32.8262 78.8809C32.694 78.4206 32.6279 77.9215 32.6279 77.3838ZM33.8926 77.2402V77.3838C33.8926 77.7529 33.929 78.0993 34.002 78.4229C34.0794 78.7464 34.1956 79.0312 34.3506 79.2773C34.5101 79.5234 34.7129 79.7171 34.959 79.8584C35.2051 79.9951 35.499 80.0635 35.8408 80.0635C36.2601 80.0635 36.6064 79.9746 36.8799 79.7969C37.1533 79.6191 37.3698 79.3844 37.5293 79.0928C37.6934 78.8011 37.821 78.4844 37.9121 78.1426V76.4951C37.862 76.2445 37.7845 76.0029 37.6797 75.7705C37.5794 75.5335 37.4473 75.3239 37.2832 75.1416C37.1237 74.9548 36.9255 74.8066 36.6885 74.6973C36.4515 74.5879 36.1735 74.5332 35.8545 74.5332C35.5081 74.5332 35.2096 74.6061 34.959 74.752C34.7129 74.8932 34.5101 75.0892 34.3506 75.3398C34.1956 75.5859 34.0794 75.873 34.002 76.2012C33.929 76.5247 33.8926 76.8711 33.8926 77.2402ZM40.7354 80.3301C40.7354 80.1159 40.8014 79.9359 40.9336 79.79C41.0703 79.6396 41.2663 79.5645 41.5215 79.5645C41.7767 79.5645 41.9704 79.6396 42.1025 79.79C42.2393 79.9359 42.3076 80.1159 42.3076 80.3301C42.3076 80.5397 42.2393 80.7174 42.1025 80.8633C41.9704 81.0091 41.7767 81.082 41.5215 81.082C41.2663 81.082 41.0703 81.0091 40.9336 80.8633C40.8014 80.7174 40.7354 80.5397 40.7354 80.3301ZM40.7422 74.2939C40.7422 74.0798 40.8083 73.8997 40.9404 73.7539C41.0771 73.6035 41.2731 73.5283 41.5283 73.5283C41.7835 73.5283 41.9772 73.6035 42.1094 73.7539C42.2461 73.8997 42.3145 74.0798 42.3145 74.2939C42.3145 74.5036 42.2461 74.6813 42.1094 74.8271C41.9772 74.973 41.7835 75.0459 41.5283 75.0459C41.2731 75.0459 41.0771 74.973 40.9404 74.8271C40.8083 74.6813 40.7422 74.5036 40.7422 74.2939ZM54.2432 77.6504V78.6895H47.0518V77.9443L51.5088 71.0469H52.541L51.4336 73.043L48.4873 77.6504H54.2432ZM52.8555 71.0469V81H51.5908V71.0469H52.8555ZM55.5488 80.3301C55.5488 80.1159 55.6149 79.9359 55.7471 79.79C55.8838 79.6396 56.0798 79.5645 56.335 79.5645C56.5902 79.5645 56.7839 79.6396 56.916 79.79C57.0527 79.9359 57.1211 80.1159 57.1211 80.3301C57.1211 80.5397 57.0527 80.7174 56.916 80.8633C56.7839 81.0091 56.5902 81.082 56.335 81.082C56.0798 81.082 55.8838 81.0091 55.7471 80.8633C55.6149 80.7174 55.5488 80.5397 55.5488 80.3301ZM63.2393 70.9922V81H61.9746V72.5713L59.4248 73.501V72.3594L63.041 70.9922H63.2393ZM71.4971 71.0469L67.3477 81.8545H66.2607L70.417 71.0469H71.4971ZM76.8975 70.9922V81H75.6328V72.5713L73.083 73.501V72.3594L76.6992 70.9922H76.8975ZM87.1377 79.9609V81H80.623V80.0908L83.8838 76.4609C84.2848 76.0143 84.5947 75.6361 84.8135 75.3262C85.0368 75.0117 85.1917 74.7314 85.2783 74.4854C85.3695 74.2347 85.415 73.9795 85.415 73.7197C85.415 73.3916 85.3467 73.0954 85.21 72.8311C85.0778 72.5622 84.8818 72.348 84.6221 72.1885C84.3623 72.029 84.0479 71.9492 83.6787 71.9492C83.2367 71.9492 82.8675 72.0358 82.5713 72.209C82.2796 72.3776 82.0609 72.6146 81.915 72.9199C81.7692 73.2253 81.6963 73.5762 81.6963 73.9727H80.4316C80.4316 73.4121 80.5547 72.8994 80.8008 72.4346C81.0469 71.9697 81.4115 71.6006 81.8945 71.3271C82.3776 71.0492 82.9723 70.9102 83.6787 70.9102C84.3076 70.9102 84.8454 71.0218 85.292 71.2451C85.7386 71.4639 86.0804 71.7738 86.3174 72.1748C86.5589 72.5713 86.6797 73.0361 86.6797 73.5693C86.6797 73.861 86.6296 74.1572 86.5293 74.458C86.4336 74.7542 86.2992 75.0505 86.126 75.3467C85.9574 75.6429 85.7591 75.9346 85.5312 76.2217C85.3079 76.5088 85.0687 76.7913 84.8135 77.0693L82.1475 79.9609H87.1377ZM94.7393 75.2305V76.748C94.7393 77.5638 94.6663 78.252 94.5205 78.8125C94.3747 79.373 94.165 79.8242 93.8916 80.166C93.6182 80.5078 93.2878 80.7562 92.9004 80.9111C92.5176 81.0615 92.0846 81.1367 91.6016 81.1367C91.2188 81.1367 90.8656 81.0889 90.542 80.9932C90.2184 80.8975 89.9268 80.7448 89.667 80.5352C89.4118 80.321 89.193 80.043 89.0107 79.7012C88.8285 79.3594 88.6895 78.9447 88.5938 78.457C88.498 77.9694 88.4502 77.3997 88.4502 76.748V75.2305C88.4502 74.4147 88.5231 73.7311 88.6689 73.1797C88.8193 72.6283 89.0312 72.1862 89.3047 71.8535C89.5781 71.5163 89.9062 71.2747 90.2891 71.1289C90.6764 70.9831 91.1094 70.9102 91.5879 70.9102C91.9753 70.9102 92.3307 70.958 92.6543 71.0537C92.9824 71.1449 93.2741 71.293 93.5293 71.498C93.7845 71.6986 94.001 71.9674 94.1787 72.3047C94.361 72.6374 94.5 73.0452 94.5957 73.5283C94.6914 74.0114 94.7393 74.5788 94.7393 75.2305ZM93.4678 76.9531V75.0186C93.4678 74.5719 93.4404 74.18 93.3857 73.8428C93.3356 73.501 93.2604 73.2093 93.1602 72.9678C93.0599 72.7262 92.9323 72.5303 92.7773 72.3799C92.627 72.2295 92.4515 72.1201 92.251 72.0518C92.055 71.9788 91.834 71.9424 91.5879 71.9424C91.2871 71.9424 91.0205 71.9993 90.7881 72.1133C90.5557 72.2227 90.3597 72.3981 90.2002 72.6396C90.0452 72.8812 89.9268 73.1979 89.8447 73.5898C89.7627 73.9818 89.7217 74.458 89.7217 75.0186V76.9531C89.7217 77.3997 89.7467 77.7939 89.7969 78.1357C89.8516 78.4775 89.9313 78.7738 90.0361 79.0244C90.141 79.2705 90.2686 79.4733 90.4189 79.6328C90.5693 79.7923 90.7425 79.9108 90.9385 79.9883C91.139 80.0612 91.36 80.0977 91.6016 80.0977C91.9115 80.0977 92.1826 80.0384 92.415 79.9199C92.6475 79.8014 92.8411 79.6169 92.9961 79.3662C93.1556 79.111 93.2741 78.7852 93.3516 78.3887C93.429 77.9876 93.4678 77.5091 93.4678 76.9531ZM100.522 70.9922V81H99.2578V72.5713L96.708 73.501V72.3594L100.324 70.9922H100.522ZM109.115 74.7656V81H107.851V73.6035H109.081L109.115 74.7656ZM111.426 73.5625L111.419 74.7383C111.314 74.7155 111.214 74.7018 111.118 74.6973C111.027 74.6882 110.922 74.6836 110.804 74.6836C110.512 74.6836 110.255 74.7292 110.031 74.8203C109.808 74.9115 109.619 75.0391 109.464 75.2031C109.309 75.3672 109.186 75.5632 109.095 75.791C109.008 76.0143 108.951 76.2604 108.924 76.5293L108.568 76.7344C108.568 76.2878 108.612 75.8685 108.698 75.4766C108.789 75.0846 108.928 74.7383 109.115 74.4375C109.302 74.1322 109.539 73.8952 109.826 73.7266C110.118 73.5534 110.464 73.4668 110.865 73.4668C110.956 73.4668 111.061 73.4782 111.18 73.501C111.298 73.5192 111.38 73.5397 111.426 73.5625ZM115.527 81.1367C115.012 81.1367 114.545 81.0501 114.126 80.877C113.711 80.6992 113.354 80.4508 113.053 80.1318C112.757 79.8128 112.529 79.4346 112.369 78.9971C112.21 78.5596 112.13 78.0811 112.13 77.5615V77.2744C112.13 76.6729 112.219 76.1374 112.396 75.668C112.574 75.194 112.816 74.793 113.121 74.4648C113.426 74.1367 113.773 73.8883 114.16 73.7197C114.548 73.5511 114.949 73.4668 115.363 73.4668C115.892 73.4668 116.348 73.5579 116.73 73.7402C117.118 73.9225 117.435 74.1777 117.681 74.5059C117.927 74.8294 118.109 75.2122 118.228 75.6543C118.346 76.0918 118.405 76.5703 118.405 77.0898V77.6572H112.882V76.625H117.141V76.5293C117.122 76.2012 117.054 75.8822 116.936 75.5723C116.822 75.2624 116.639 75.0072 116.389 74.8066C116.138 74.6061 115.796 74.5059 115.363 74.5059C115.076 74.5059 114.812 74.5674 114.57 74.6904C114.329 74.8089 114.121 74.9867 113.948 75.2236C113.775 75.4606 113.641 75.75 113.545 76.0918C113.449 76.4336 113.401 76.8278 113.401 77.2744V77.5615C113.401 77.9124 113.449 78.2428 113.545 78.5527C113.645 78.8581 113.789 79.127 113.976 79.3594C114.167 79.5918 114.397 79.7741 114.666 79.9062C114.939 80.0384 115.249 80.1045 115.596 80.1045C116.042 80.1045 116.421 80.0133 116.73 79.8311C117.04 79.6488 117.312 79.4049 117.544 79.0996L118.31 79.708C118.15 79.9495 117.947 80.1797 117.701 80.3984C117.455 80.6172 117.152 80.7949 116.792 80.9316C116.437 81.0684 116.015 81.1367 115.527 81.1367ZM122.035 79.8584L124.059 73.6035H125.351L122.691 81H121.844L122.035 79.8584ZM120.347 73.6035L122.432 79.8926L122.575 81H121.728L119.048 73.6035H120.347ZM127.941 73.6035V81H126.67V73.6035H127.941ZM126.574 71.6416C126.574 71.4365 126.636 71.2633 126.759 71.1221C126.886 70.9808 127.073 70.9102 127.319 70.9102C127.561 70.9102 127.745 70.9808 127.873 71.1221C128.005 71.2633 128.071 71.4365 128.071 71.6416C128.071 71.8376 128.005 72.0062 127.873 72.1475C127.745 72.2842 127.561 72.3525 127.319 72.3525C127.073 72.3525 126.886 72.2842 126.759 72.1475C126.636 72.0062 126.574 71.8376 126.574 71.6416ZM133.041 81.1367C132.526 81.1367 132.059 81.0501 131.64 80.877C131.225 80.6992 130.867 80.4508 130.566 80.1318C130.27 79.8128 130.042 79.4346 129.883 78.9971C129.723 78.5596 129.644 78.0811 129.644 77.5615V77.2744C129.644 76.6729 129.732 76.1374 129.91 75.668C130.088 75.194 130.329 74.793 130.635 74.4648C130.94 74.1367 131.286 73.8883 131.674 73.7197C132.061 73.5511 132.462 73.4668 132.877 73.4668C133.406 73.4668 133.861 73.5579 134.244 73.7402C134.632 73.9225 134.948 74.1777 135.194 74.5059C135.44 74.8294 135.623 75.2122 135.741 75.6543C135.86 76.0918 135.919 76.5703 135.919 77.0898V77.6572H130.396V76.625H134.654V76.5293C134.636 76.2012 134.568 75.8822 134.449 75.5723C134.335 75.2624 134.153 75.0072 133.902 74.8066C133.652 74.6061 133.31 74.5059 132.877 74.5059C132.59 74.5059 132.326 74.5674 132.084 74.6904C131.842 74.8089 131.635 74.9867 131.462 75.2236C131.289 75.4606 131.154 75.75 131.059 76.0918C130.963 76.4336 130.915 76.8278 130.915 77.2744V77.5615C130.915 77.9124 130.963 78.2428 131.059 78.5527C131.159 78.8581 131.302 79.127 131.489 79.3594C131.681 79.5918 131.911 79.7741 132.18 79.9062C132.453 80.0384 132.763 80.1045 133.109 80.1045C133.556 80.1045 133.934 80.0133 134.244 79.8311C134.554 79.6488 134.825 79.4049 135.058 79.0996L135.823 79.708C135.664 79.9495 135.461 80.1797 135.215 80.3984C134.969 80.6172 134.666 80.7949 134.306 80.9316C133.95 81.0684 133.529 81.1367 133.041 81.1367ZM139.269 79.6875L141.169 73.6035H142.003L141.839 74.8135L139.904 81H139.091L139.269 79.6875ZM137.99 73.6035L139.61 79.7559L139.727 81H138.872L136.726 73.6035H137.99ZM143.821 79.708L145.366 73.6035H146.624L144.478 81H143.63L143.821 79.708ZM142.188 73.6035L144.047 79.585L144.259 81H143.452L141.463 74.7998L141.299 73.6035H142.188ZM152.229 79.0381C152.229 78.8558 152.188 78.6872 152.106 78.5322C152.029 78.3727 151.867 78.2292 151.621 78.1016C151.38 77.9694 151.015 77.8555 150.527 77.7598C150.117 77.6732 149.746 77.5706 149.413 77.4521C149.085 77.3337 148.805 77.1901 148.572 77.0215C148.344 76.8529 148.169 76.6546 148.046 76.4268C147.923 76.1989 147.861 75.9323 147.861 75.627C147.861 75.3353 147.925 75.0596 148.053 74.7998C148.185 74.54 148.369 74.3099 148.606 74.1094C148.848 73.9089 149.137 73.7516 149.475 73.6377C149.812 73.5238 150.188 73.4668 150.603 73.4668C151.195 73.4668 151.701 73.5716 152.12 73.7812C152.539 73.9909 152.861 74.2712 153.084 74.6221C153.307 74.9684 153.419 75.3535 153.419 75.7773H152.154C152.154 75.5723 152.093 75.374 151.97 75.1826C151.851 74.9867 151.676 74.8249 151.443 74.6973C151.215 74.5697 150.935 74.5059 150.603 74.5059C150.252 74.5059 149.967 74.5605 149.748 74.6699C149.534 74.7747 149.377 74.9092 149.276 75.0732C149.181 75.2373 149.133 75.4105 149.133 75.5928C149.133 75.7295 149.156 75.8525 149.201 75.9619C149.251 76.0667 149.338 76.1647 149.461 76.2559C149.584 76.3424 149.757 76.4245 149.98 76.502C150.204 76.5794 150.489 76.6569 150.835 76.7344C151.441 76.8711 151.94 77.0352 152.332 77.2266C152.724 77.418 153.016 77.6527 153.207 77.9307C153.398 78.2087 153.494 78.5459 153.494 78.9424C153.494 79.266 153.426 79.5622 153.289 79.8311C153.157 80.0999 152.963 80.3324 152.708 80.5283C152.457 80.7197 152.157 80.8701 151.806 80.9795C151.459 81.0843 151.07 81.1367 150.637 81.1367C149.985 81.1367 149.434 81.0205 148.982 80.7881C148.531 80.5557 148.189 80.2549 147.957 79.8857C147.725 79.5166 147.608 79.127 147.608 78.7168H148.88C148.898 79.0632 148.998 79.3389 149.181 79.5439C149.363 79.7445 149.586 79.888 149.851 79.9746C150.115 80.0566 150.377 80.0977 150.637 80.0977C150.983 80.0977 151.272 80.0521 151.505 79.9609C151.742 79.8698 151.922 79.7445 152.045 79.585C152.168 79.4255 152.229 79.2432 152.229 79.0381Z" fill="#001233"/>
<path d="M10.6762 38.7617L13.0731 46.5271L20.8299 46.5271L14.5545 51.3263L16.9515 59.0916L10.6762 54.2924L4.40088 59.0916L6.79784 51.3263L0.52253 46.5271L8.27924 46.5271L10.6762 38.7617Z" fill="#00B67A"/>
<path d="M34.8377 38.7617L37.3608 46.5271L45.5258 46.5271L38.9202 51.3263L41.4433 59.0916L34.8377 54.2924L28.2321 59.0916L30.7552 51.3263L24.1496 46.5271L32.3146 46.5271L34.8377 38.7617Z" fill="#00B67A"/>
<path d="M59.0004 38.7617L61.3974 46.5271L69.1541 46.5271L62.8788 51.3263L65.2757 59.0916L59.0004 54.2924L52.7251 59.0916L55.1221 51.3263L48.8467 46.5271L56.6035 46.5271L59.0004 38.7617Z" fill="#00B67A"/>
<path d="M83.1619 38.7617L85.685 46.5271L93.85 46.5271L87.2444 51.3263L89.7675 59.0916L83.1619 54.2924L76.5563 59.0916L79.0794 51.3263L72.4739 46.5271L80.6388 46.5271L83.1619 38.7617Z" fill="#00B67A"/>
<path d="M107.325 38.7617L109.722 46.5271L117.478 46.5271L111.203 51.3263L113.6 59.0916L107.325 54.2924L101.049 59.0916L103.446 51.3263L97.171 46.5271L104.928 46.5271L107.325 38.7617Z" fill="#00B67A"/>
<g clip-path="url(#clip0_327_2560)">
<path d="M13.6474 0C6.11073 0 0 5.82151 0 13.0015C0 20.1814 6.11073 26.0029 13.6474 26.0029C21.1841 26.0029 27.2948 20.1814 27.2948 13.0015C27.2917 5.82151 21.1841 0 13.6474 0ZM19.905 18.7501C19.6602 19.132 19.137 19.2544 18.7361 19.0183C15.5323 17.1526 11.4993 16.7299 6.7472 17.7648C6.28821 17.8639 5.83227 17.5928 5.72824 17.1555C5.6242 16.7182 5.90877 16.2839 6.36777 16.1848C11.5666 15.0537 16.025 15.5434 19.6235 17.6365C20.0243 17.8697 20.1498 18.3682 19.905 18.7501ZM21.5757 15.2111C21.2667 15.6892 20.6119 15.8379 20.1131 15.5434C16.4473 13.395 10.8537 12.7741 6.51464 14.0276C5.95161 14.1908 5.35798 13.8877 5.18662 13.3513C5.01833 12.8149 5.3335 12.2494 5.89653 12.0861C10.8537 10.6548 17.0134 11.3486 21.2269 13.8148C21.7257 14.1121 21.8817 14.736 21.5757 15.2111ZM21.7196 11.5235C17.3193 9.03689 10.0642 8.80659 5.86593 10.0222C5.19274 10.2175 4.47977 9.85312 4.27476 9.2118C4.06974 8.57047 4.45223 7.89124 5.12542 7.69593C9.94485 6.3025 17.9589 6.57069 23.0231 9.43626C23.629 9.78024 23.8279 10.5265 23.4699 11.1037C23.1088 11.678 22.3224 11.8675 21.7196 11.5235ZM37.1264 12.0016C34.7703 11.4652 34.3511 11.0891 34.3511 10.3021C34.3511 9.55578 35.0885 9.05438 36.184 9.05438C37.2458 9.05438 38.3015 9.43626 39.403 10.2204C39.4367 10.2437 39.4795 10.2525 39.5193 10.2467C39.5591 10.2408 39.5958 10.2204 39.6203 10.1854L40.7708 8.64043C40.8167 8.5763 40.8045 8.48884 40.7402 8.43929C39.4245 7.43357 37.9465 6.94674 36.2146 6.94674C33.6717 6.94674 31.8939 8.40139 31.8939 10.4828C31.8939 12.7158 33.4269 13.5058 36.0769 14.115C38.3321 14.6106 38.7115 15.0246 38.7115 15.765C38.7115 16.5871 37.9434 17.0972 36.7042 17.0972C35.3302 17.0972 34.2072 16.657 32.9527 15.6192C32.9221 15.593 32.8792 15.5813 32.8394 15.5843C32.7966 15.5872 32.7599 15.6047 32.7323 15.6367L31.441 17.1001C31.386 17.1613 31.3951 17.2517 31.4563 17.3042C32.9159 18.546 34.7121 19.2019 36.6491 19.2019C39.3908 19.2019 41.1625 17.7735 41.1625 15.5668C41.1686 13.7011 39.9967 12.6691 37.1264 12.0045V12.0016ZM47.3712 9.78899C46.1839 9.78899 45.2078 10.235 44.4061 11.1474V10.1184C44.4061 10.0368 44.3357 9.96973 44.2531 9.96973H42.1448C42.0591 9.96973 41.9918 10.0368 41.9918 10.1184V21.5457C41.9918 21.6273 42.0621 21.6944 42.1448 21.6944H44.2531C44.3387 21.6944 44.4061 21.6273 44.4061 21.5457V17.9397C45.2108 18.7996 46.1839 19.2194 47.3712 19.2194C49.5805 19.2194 51.8142 17.6015 51.8142 14.5057C51.8173 11.4069 49.5805 9.78899 47.3712 9.78899ZM49.3601 14.5027C49.3601 16.0798 48.3412 17.1788 46.8816 17.1788C45.4403 17.1788 44.351 16.0303 44.351 14.5027C44.351 12.9781 45.4403 11.8267 46.8816 11.8267C48.3167 11.8267 49.3601 12.9519 49.3601 14.5027ZM57.5425 9.78899C54.6998 9.78899 52.4721 11.8762 52.4721 14.5377C52.4721 17.173 54.6845 19.2369 57.5088 19.2369C60.3637 19.2369 62.5975 17.1584 62.5975 14.5057C62.5944 11.8587 60.376 9.78899 57.5425 9.78899ZM57.5425 17.1963C56.0308 17.1963 54.8895 16.039 54.8895 14.5027C54.8895 12.9606 55.9911 11.8442 57.5057 11.8442C59.0265 11.8442 60.1771 13.0015 60.1771 14.5377C60.1771 16.0769 59.0694 17.1963 57.5425 17.1963ZM68.6685 9.97264H66.3459V7.71051C66.3459 7.62888 66.2786 7.56475 66.1929 7.56475H64.0846C63.999 7.56475 63.9286 7.6318 63.9286 7.71051V9.97264H62.9127C62.827 9.97264 62.7597 10.0397 62.7597 10.1213V11.85C62.7597 11.9316 62.827 11.9987 62.9127 11.9987H63.9286V16.4675C63.9286 18.2749 64.871 19.1903 66.7346 19.1903C67.4904 19.1903 68.1207 19.0416 68.7113 18.7209C68.7603 18.6947 68.7878 18.6451 68.7878 18.5927V16.9485C68.7878 16.899 68.7603 16.8494 68.7144 16.8232C68.6685 16.797 68.6103 16.794 68.5644 16.8174C68.1574 17.0127 67.7658 17.103 67.3251 17.103C66.6489 17.103 66.3459 16.8115 66.3459 16.1527V11.9957H68.6685C68.7541 11.9957 68.8215 11.9287 68.8215 11.8471V10.1184C68.8245 10.0397 68.7572 9.97264 68.6685 9.97264ZM76.7559 9.98139V9.70445C76.7559 8.88822 77.0833 8.52383 77.8208 8.52383C78.2614 8.52383 78.6133 8.60837 79.008 8.73372C79.057 8.74829 79.109 8.74246 79.1457 8.71331C79.1855 8.68416 79.21 8.64043 79.21 8.59379V6.9001C79.21 6.83597 79.1672 6.77767 79.0998 6.76018C78.6806 6.64066 78.1482 6.52113 77.3465 6.52113C75.3973 6.52113 74.3691 7.56766 74.3691 9.54412V9.96973H73.3563C73.2706 9.96973 73.2002 10.0368 73.2002 10.1155V11.8529C73.2002 11.9345 73.2706 12.0016 73.3563 12.0016H74.3691V18.8958C74.3691 18.9775 74.4365 19.0445 74.5221 19.0445H76.6305C76.7161 19.0445 76.7865 18.9775 76.7865 18.8958V11.9928H78.7571L81.7742 18.8842C81.4315 19.6071 81.0949 19.7529 80.6359 19.7529C80.2657 19.7529 79.874 19.6479 79.4732 19.4381C79.4364 19.4176 79.3905 19.4147 79.3508 19.4264C79.311 19.441 79.2773 19.4672 79.259 19.5051L78.5429 21.0006C78.5093 21.0705 78.5368 21.1551 78.6102 21.19C79.3569 21.5748 80.0301 21.741 80.8624 21.741C82.4199 21.741 83.2828 21.0501 84.0417 19.1903L87.7014 10.1796C87.7197 10.133 87.7136 10.0834 87.6861 10.0426C87.6585 10.0018 87.6096 9.97847 87.5606 9.97847H85.3636C85.2962 9.97847 85.2381 10.0193 85.2167 10.0776L82.9676 16.1994L80.5044 10.0718C80.4829 10.0135 80.4248 9.97847 80.3605 9.97847L76.7559 9.98139ZM72.0681 9.97264H69.9598C69.8741 9.97264 69.8037 10.0397 69.8037 10.1213V18.89C69.8037 18.9716 69.8741 19.0387 69.9598 19.0387H72.0681C72.1537 19.0387 72.2241 18.9716 72.2241 18.89V10.1184C72.2241 10.0805 72.2088 10.0426 72.1782 10.0135C72.1476 9.98722 72.1078 9.97264 72.0681 9.97264ZM71.0246 5.97892C70.1893 5.97892 69.5099 6.62316 69.5099 7.41899C69.5099 8.21482 70.1893 8.86198 71.0246 8.86198C71.86 8.86198 72.5362 8.21774 72.5362 7.41899C72.5362 6.62316 71.86 5.97892 71.0246 5.97892ZM89.5068 12.7916C88.6714 12.7916 88.0227 12.1532 88.0227 11.3777C88.0227 10.6023 88.6806 9.95515 89.5159 9.95515C90.3513 9.95515 91 10.5936 91 11.369C91 12.1444 90.3391 12.7916 89.5068 12.7916ZM89.5159 10.0951C88.754 10.0951 88.1787 10.6723 88.1787 11.3777C88.1787 12.0832 88.7509 12.6516 89.5068 12.6516C90.2656 12.6516 90.8439 12.0774 90.8439 11.369C90.8439 10.6635 90.2717 10.0951 89.5159 10.0951ZM89.8433 11.5147L90.2626 12.0744H89.9076L89.5282 11.5614H89.2038V12.0744H88.907V10.5906H89.6016C89.9627 10.5906 90.2014 10.7685 90.2014 11.0629C90.2075 11.3078 90.0575 11.4564 89.8433 11.5147ZM89.5924 10.8443H89.2069V11.3136H89.5924C89.7852 11.3136 89.9015 11.2232 89.9015 11.0775C89.9015 10.9259 89.7852 10.8443 89.5924 10.8443Z" fill="#089250"/>
</g>
<defs>
<clipPath id="clip0_327_2560">
<rect width="91" height="26" fill="white"/>
</clipPath>
</defs>
</svg>
