<svg width="202" height="87" viewBox="0 0 202 87" fill="none" xmlns="http://www.w3.org/2000/svg">
<g clip-path="url(#clip0_327_2561)">
<path d="M27.3312 9.21484H37.8616V11.2148H33.721V22.4578H31.4442V11.2148H27.322V9.21484H27.3312ZM37.4117 12.869H39.358V14.7195H39.3948C39.459 14.4578 39.5784 14.2055 39.7528 13.9625C39.9272 13.7195 40.1384 13.4859 40.3863 13.2896C40.6342 13.084 40.9096 12.9251 41.2126 12.7943C41.5155 12.6728 41.8277 12.6074 42.1398 12.6074C42.3785 12.6074 42.553 12.6167 42.6448 12.6261C42.7366 12.6354 42.8284 12.6541 42.9294 12.6634V14.7008C42.7825 14.6728 42.6356 14.6541 42.4795 14.6354C42.3234 14.6167 42.1765 14.6074 42.0296 14.6074C41.6808 14.6074 41.3503 14.6821 41.0381 14.8223C40.726 14.9625 40.4597 15.1775 40.2302 15.4485C40.0007 15.7289 39.8171 16.0653 39.6794 16.4765C39.5417 16.8877 39.4774 17.355 39.4774 17.8877V22.4485H37.4025V12.869H37.4117ZM52.4682 22.4578H50.4301V21.1214H50.3934C50.1363 21.6074 49.7599 21.9905 49.2549 22.2803C48.75 22.57 48.2359 22.7195 47.7126 22.7195C46.4732 22.7195 45.5734 22.4111 45.0226 21.7849C44.4717 21.1588 44.1963 20.2148 44.1963 18.9532V12.869H46.2712V18.7476C46.2712 19.5887 46.4272 20.1868 46.7486 20.5326C47.0607 20.8784 47.5106 21.056 48.0798 21.056C48.5205 21.056 48.8785 20.9905 49.1723 20.8504C49.4661 20.7102 49.7048 20.5326 49.8792 20.299C50.0628 20.0747 50.1914 19.7943 50.274 19.4765C50.3566 19.1588 50.3934 18.813 50.3934 18.4391V12.8784H52.4682V22.4578ZM56.0028 19.3831C56.0671 19.9999 56.2966 20.4298 56.6914 20.6821C57.0953 20.9251 57.5727 21.056 58.1328 21.056C58.3256 21.056 58.5459 21.0373 58.7938 21.0092C59.0417 20.9812 59.2804 20.9158 59.4915 20.8317C59.7119 20.7476 59.8863 20.6167 60.0332 20.4485C60.1709 20.2803 60.2352 20.0653 60.226 19.7943C60.2168 19.5233 60.1158 19.299 59.9322 19.1307C59.7486 18.9532 59.5191 18.8223 59.2345 18.7102C58.9499 18.6074 58.6285 18.5139 58.2613 18.4391C57.8941 18.3644 57.5268 18.2803 57.1504 18.1962C56.7648 18.112 56.3884 17.9999 56.0304 17.8784C55.6723 17.7569 55.351 17.5887 55.0664 17.3737C54.7818 17.1681 54.5523 16.8971 54.387 16.57C54.2126 16.2429 54.1299 15.841 54.1299 15.355C54.1299 14.8317 54.2585 14.4018 54.5063 14.0466C54.7542 13.6915 55.0756 13.4111 55.452 13.1962C55.8376 12.9812 56.2599 12.8317 56.7281 12.7382C57.1963 12.6541 57.6462 12.6074 58.0685 12.6074C58.5551 12.6074 59.0233 12.6634 59.464 12.7662C59.9047 12.869 60.3086 13.0373 60.6667 13.2803C61.0247 13.5139 61.3185 13.8223 61.5572 14.1962C61.7959 14.57 61.9428 15.0279 62.0071 15.5606H59.8404C59.7394 15.056 59.5191 14.7102 59.161 14.5419C58.803 14.3644 58.3898 14.2803 57.9308 14.2803C57.7839 14.2803 57.6095 14.2896 57.4075 14.3176C57.2055 14.3457 57.0219 14.3924 56.8383 14.4578C56.6638 14.5233 56.5169 14.6261 56.3884 14.7569C56.2691 14.8877 56.2048 15.056 56.2048 15.2709C56.2048 15.5326 56.2966 15.7382 56.471 15.8971C56.6455 16.056 56.875 16.1868 57.1596 16.299C57.4442 16.4018 57.7655 16.4952 58.1328 16.57C58.5 16.6448 58.8764 16.7289 59.262 16.813C59.6384 16.8971 60.0056 17.0092 60.3729 17.1307C60.7401 17.2522 61.0614 17.4205 61.346 17.6354C61.6306 17.8504 61.8602 18.112 62.0346 18.4298C62.209 18.7476 62.3008 19.1494 62.3008 19.6167C62.3008 20.1868 62.1723 20.6634 61.9152 21.0653C61.6582 21.4578 61.3277 21.7849 60.9237 22.0279C60.5198 22.2709 60.0607 22.4578 59.565 22.57C59.0692 22.6821 58.5734 22.7382 58.0869 22.7382C57.4901 22.7382 56.9393 22.6728 56.4343 22.5326C55.9294 22.3924 55.4887 22.1868 55.1215 21.9158C54.7542 21.6354 54.4604 21.2896 54.2493 20.8784C54.0381 20.4672 53.928 19.9719 53.9096 19.4018H56.0028V19.3831ZM62.8517 12.869H64.4216V9.99054H66.4965V12.869H68.3693V14.4485H66.4965V19.57C66.4965 19.7943 66.5056 19.9812 66.524 20.1494C66.5424 20.3083 66.5883 20.4485 66.6525 20.5606C66.7168 20.6728 66.8178 20.7569 66.9555 20.813C67.0932 20.869 67.2676 20.8971 67.5063 20.8971C67.6532 20.8971 67.8001 20.8971 67.947 20.8877C68.0939 20.8784 68.2408 20.8597 68.3877 20.8223V22.4578C68.1582 22.4859 67.9287 22.5046 67.7175 22.5326C67.4972 22.5606 67.2768 22.57 67.0473 22.57C66.4965 22.57 66.0558 22.5139 65.7253 22.4111C65.3948 22.3083 65.1285 22.1494 64.9449 21.9438C64.7521 21.7382 64.6328 21.4859 64.5593 21.1775C64.495 20.869 64.4491 20.5139 64.44 20.1214V14.4672H62.87V12.869H62.8517ZM69.8383 12.869H71.803V14.1681H71.8397C72.1335 13.6074 72.5374 13.2148 73.0607 12.9719C73.584 12.7289 74.1441 12.6074 74.7592 12.6074C75.5028 12.6074 76.1455 12.7382 76.6963 13.0092C77.2472 13.2709 77.7062 13.6354 78.0734 14.1027C78.4407 14.57 78.7069 15.112 78.8905 15.7289C79.0741 16.3457 79.1659 17.0092 79.1659 17.7102C79.1659 18.355 79.0833 18.9812 78.9181 19.5793C78.7528 20.1868 78.5049 20.7195 78.1744 21.1868C77.8439 21.6541 77.4216 22.0186 76.9075 22.299C76.3934 22.5793 75.7966 22.7195 75.0989 22.7195C74.7959 22.7195 74.4929 22.6915 74.19 22.6354C73.887 22.5793 73.5932 22.4859 73.3178 22.3644C73.0424 22.2429 72.7761 22.084 72.5466 21.8877C72.3079 21.6915 72.1151 21.4672 71.9499 21.2148H71.9131V25.9999H69.8383V12.869ZM77.0911 17.6728C77.0911 17.2429 77.036 16.8223 76.9258 16.4111C76.8157 15.9999 76.6504 15.6448 76.4301 15.327C76.2097 15.0092 75.9343 14.7569 75.613 14.57C75.2825 14.3831 74.9061 14.2803 74.4837 14.2803C73.6116 14.2803 72.9506 14.5887 72.5099 15.2055C72.0692 15.8223 71.8489 16.6448 71.8489 17.6728C71.8489 18.1588 71.9039 18.6074 72.0233 19.0186C72.1426 19.4298 72.3079 19.7849 72.5466 20.084C72.7761 20.3831 73.0515 20.6167 73.3729 20.7849C73.6942 20.9625 74.0706 21.0466 74.4929 21.0466C74.9703 21.0466 75.3651 20.9438 75.6956 20.7476C76.0261 20.5513 76.2924 20.2896 76.5035 19.9812C76.7147 19.6634 76.8708 19.3083 76.9626 18.9064C77.0452 18.5046 77.0911 18.0933 77.0911 17.6728ZM80.7542 9.21484H82.8291V11.2148H80.7542V9.21484ZM80.7542 12.869H82.8291V22.4578H80.7542V12.869ZM84.6836 9.21484H86.7585V22.4578H84.6836V9.21484ZM93.1208 22.7195C92.3679 22.7195 91.6977 22.5887 91.1102 22.3363C90.5226 22.084 90.0268 21.7289 89.6137 21.2896C89.2097 20.841 88.8976 20.3083 88.6864 19.6915C88.4753 19.0747 88.3651 18.3924 88.3651 17.6541C88.3651 16.9251 88.4753 16.2522 88.6864 15.6354C88.8976 15.0186 89.2097 14.4859 89.6137 14.0373C90.0176 13.5887 90.5226 13.2429 91.1102 12.9905C91.6977 12.7382 92.3679 12.6074 93.1208 12.6074C93.8736 12.6074 94.5438 12.7382 95.1313 12.9905C95.7189 13.2429 96.2147 13.598 96.6278 14.0373C97.0318 14.4859 97.3439 15.0186 97.5551 15.6354C97.7662 16.2522 97.8764 16.9251 97.8764 17.6541C97.8764 18.3924 97.7662 19.0747 97.5551 19.6915C97.3439 20.3083 97.0318 20.841 96.6278 21.2896C96.2239 21.7382 95.7189 22.084 95.1313 22.3363C94.5438 22.5887 93.8736 22.7195 93.1208 22.7195ZM93.1208 21.0466C93.5798 21.0466 93.9838 20.9438 94.3234 20.7476C94.6631 20.5513 94.9386 20.2896 95.1589 19.9719C95.3792 19.6541 95.5353 19.2896 95.6455 18.8877C95.7465 18.4859 95.8016 18.0747 95.8016 17.6541C95.8016 17.2429 95.7465 16.841 95.6455 16.4298C95.5445 16.0186 95.3792 15.6634 95.1589 15.3457C94.9386 15.0279 94.6631 14.7756 94.3234 14.5793C93.9838 14.3831 93.5798 14.2803 93.1208 14.2803C92.6617 14.2803 92.2578 14.3831 91.9181 14.5793C91.5784 14.7756 91.303 15.0373 91.0826 15.3457C90.8623 15.6634 90.7062 16.0186 90.596 16.4298C90.495 16.841 90.44 17.2429 90.44 17.6541C90.44 18.0747 90.495 18.4859 90.596 18.8877C90.697 19.2896 90.8623 19.6541 91.0826 19.9719C91.303 20.2896 91.5784 20.5513 91.9181 20.7476C92.2578 20.9532 92.6617 21.0466 93.1208 21.0466ZM98.4823 12.869H100.052V9.99054H102.127V12.869H104V14.4485H102.127V19.57C102.127 19.7943 102.136 19.9812 102.155 20.1494C102.173 20.3083 102.219 20.4485 102.283 20.5606C102.347 20.6728 102.448 20.7569 102.586 20.813C102.724 20.869 102.898 20.8971 103.137 20.8971C103.284 20.8971 103.431 20.8971 103.578 20.8877C103.725 20.8784 103.871 20.8597 104.018 20.8223V22.4578C103.789 22.4859 103.559 22.5046 103.348 22.5326C103.128 22.5606 102.907 22.57 102.678 22.57C102.127 22.57 101.686 22.5139 101.356 22.4111C101.025 22.3083 100.759 22.1494 100.576 21.9438C100.383 21.7382 100.263 21.4859 100.19 21.1775C100.126 20.869 100.08 20.5139 100.071 20.1214V14.4672H98.5007V12.869H98.4823Z" fill="#001233"/>
<path d="M24.9075 9.21495H15.3962L12.4583 0L9.5113 9.21495L0 9.20561L7.70268 14.9065L4.75565 24.1121L12.4583 18.4206L20.1518 24.1121L17.214 14.9065L24.9075 9.21495Z" fill="#00B67A"/>
<path d="M17.8757 16.9904L17.2146 14.9062L12.459 18.4203L17.8757 16.9904Z" fill="#005128"/>
</g>
<g clip-path="url(#clip1_327_2561)">
<path d="M24.5625 38H0V63H24.5625V38Z" fill="#00B67A"/>
<path d="M51.1719 38H26.6094V63H51.1719V38Z" fill="#00B67A"/>
<path d="M77.7812 38H53.2188V63H77.7812V38Z" fill="#00B67A"/>
<path d="M104.391 38H79.8281V63H104.391V38Z" fill="#00B67A"/>
<path d="M131 38H118.719V63H131V38Z" fill="#DCDCE6"/>
<path d="M118.719 38H106.438V63H118.719V38Z" fill="#00B67A"/>
<path d="M12.2805 54.849L16.016 53.8854L17.5768 58.7812L12.2805 54.849ZM20.8773 48.5208H14.3018L12.2805 42.2188L10.2592 48.5208H3.68359L9.00547 52.4271L6.98418 58.7292L12.3061 54.8229L15.5811 52.4271L20.8773 48.5208Z" fill="white"/>
<path d="M38.8898 54.849L42.6254 53.8854L44.1861 58.7812L38.8898 54.849ZM47.4867 48.5208H40.9111L38.8898 42.2188L36.8686 48.5208H30.293L35.6148 52.4271L33.5936 58.7292L38.9154 54.8229L42.1904 52.4271L47.4867 48.5208Z" fill="white"/>
<path d="M65.4992 54.849L69.2348 53.8854L70.7955 58.7812L65.4992 54.849ZM74.0961 48.5208H67.5205L65.4992 42.2188L63.4779 48.5208H56.9023L62.2242 52.4271L60.2029 58.7292L65.5248 54.8229L68.7998 52.4271L74.0961 48.5208Z" fill="white"/>
<path d="M92.1086 54.849L95.8441 53.8854L97.4049 58.7812L92.1086 54.849ZM100.705 48.5208H94.1299L92.1086 42.2188L90.0873 48.5208H83.5117L88.8336 52.4271L86.8123 58.7292L92.1342 54.8229L95.4092 52.4271L100.705 48.5208Z" fill="white"/>
<path d="M118.718 54.849L122.454 53.8854L124.014 58.7812L118.718 54.849ZM127.315 48.5208H120.739L118.718 42.2188L116.697 48.5208H110.121L115.443 52.4271L113.422 58.7292L118.744 54.8229L122.019 52.4271L127.315 48.5208Z" fill="white"/>
</g>
<path d="M4.83301 75.0469V85H3.53418V75.0469H4.83301ZM8.03223 75.0469V76.127H0.341797V75.0469H8.03223ZM10.0625 78.7656V85H8.79785V77.6035H10.0283L10.0625 78.7656ZM12.373 77.5625L12.3662 78.7383C12.2614 78.7155 12.1611 78.7018 12.0654 78.6973C11.9743 78.6882 11.8695 78.6836 11.751 78.6836C11.4593 78.6836 11.2018 78.7292 10.9785 78.8203C10.7552 78.9115 10.5661 79.0391 10.4111 79.2031C10.2562 79.3672 10.1331 79.5632 10.042 79.791C9.9554 80.0143 9.89844 80.2604 9.87109 80.5293L9.51562 80.7344C9.51562 80.2878 9.55892 79.8685 9.64551 79.4766C9.73665 79.0846 9.87565 78.7383 10.0625 78.4375C10.2493 78.1322 10.4863 77.8952 10.7734 77.7266C11.0651 77.5534 11.4115 77.4668 11.8125 77.4668C11.9036 77.4668 12.0085 77.4782 12.127 77.501C12.2454 77.5192 12.3275 77.5397 12.373 77.5625ZM18.0674 83.291V77.6035H19.3389V85H18.1289L18.0674 83.291ZM18.3066 81.7324L18.833 81.7188C18.833 82.2109 18.7806 82.6667 18.6758 83.0859C18.5755 83.5007 18.4115 83.8607 18.1836 84.166C17.9557 84.4714 17.6572 84.7106 17.2881 84.8838C16.9189 85.0524 16.4701 85.1367 15.9414 85.1367C15.5814 85.1367 15.251 85.0843 14.9502 84.9795C14.654 84.8747 14.3988 84.7129 14.1846 84.4941C13.9704 84.2754 13.804 83.9906 13.6855 83.6396C13.5716 83.2887 13.5146 82.8672 13.5146 82.375V77.6035H14.7793V82.3887C14.7793 82.7214 14.8158 82.9971 14.8887 83.2158C14.9661 83.43 15.0687 83.6009 15.1963 83.7285C15.3285 83.8516 15.4743 83.9382 15.6338 83.9883C15.7979 84.0384 15.9665 84.0635 16.1396 84.0635C16.6774 84.0635 17.1035 83.9609 17.418 83.7559C17.7324 83.5462 17.958 83.266 18.0947 82.915C18.236 82.5596 18.3066 82.1654 18.3066 81.7324ZM25.5732 83.0381C25.5732 82.8558 25.5322 82.6872 25.4502 82.5322C25.3727 82.3727 25.2109 82.2292 24.9648 82.1016C24.7233 81.9694 24.3587 81.8555 23.8711 81.7598C23.4609 81.6732 23.0895 81.5706 22.7568 81.4521C22.4287 81.3337 22.1484 81.1901 21.916 81.0215C21.6882 80.8529 21.5127 80.6546 21.3896 80.4268C21.2666 80.1989 21.2051 79.9323 21.2051 79.627C21.2051 79.3353 21.2689 79.0596 21.3965 78.7998C21.5286 78.54 21.7132 78.3099 21.9502 78.1094C22.1917 77.9089 22.4811 77.7516 22.8184 77.6377C23.1556 77.5238 23.5316 77.4668 23.9463 77.4668C24.5387 77.4668 25.0446 77.5716 25.4639 77.7812C25.8831 77.9909 26.2044 78.2712 26.4277 78.6221C26.651 78.9684 26.7627 79.3535 26.7627 79.7773H25.498C25.498 79.5723 25.4365 79.374 25.3135 79.1826C25.195 78.9867 25.0195 78.8249 24.7871 78.6973C24.5592 78.5697 24.279 78.5059 23.9463 78.5059C23.5954 78.5059 23.3105 78.5605 23.0918 78.6699C22.8776 78.7747 22.7204 78.9092 22.6201 79.0732C22.5244 79.2373 22.4766 79.4105 22.4766 79.5928C22.4766 79.7295 22.4993 79.8525 22.5449 79.9619C22.5951 80.0667 22.6816 80.1647 22.8047 80.2559C22.9277 80.3424 23.1009 80.4245 23.3242 80.502C23.5475 80.5794 23.8324 80.6569 24.1787 80.7344C24.7848 80.8711 25.2839 81.0352 25.6758 81.2266C26.0677 81.418 26.3594 81.6527 26.5508 81.9307C26.7422 82.2087 26.8379 82.5459 26.8379 82.9424C26.8379 83.266 26.7695 83.5622 26.6328 83.8311C26.5007 84.0999 26.307 84.3324 26.0518 84.5283C25.8011 84.7197 25.5003 84.8701 25.1494 84.9795C24.8031 85.0843 24.4134 85.1367 23.9805 85.1367C23.3288 85.1367 22.7773 85.0205 22.3262 84.7881C21.875 84.5557 21.5332 84.2549 21.3008 83.8857C21.0684 83.5166 20.9521 83.127 20.9521 82.7168H22.2236C22.2419 83.0632 22.3421 83.3389 22.5244 83.5439C22.7067 83.7445 22.93 83.888 23.1943 83.9746C23.4587 84.0566 23.7207 84.0977 23.9805 84.0977C24.3268 84.0977 24.6162 84.0521 24.8486 83.9609C25.0856 83.8698 25.2656 83.7445 25.3887 83.585C25.5117 83.4255 25.5732 83.2432 25.5732 83.0381ZM31.5957 77.6035V78.5742H27.5967V77.6035H31.5957ZM28.9502 75.8057H30.2148V83.168C30.2148 83.4186 30.2536 83.6077 30.3311 83.7354C30.4085 83.863 30.5088 83.9473 30.6318 83.9883C30.7549 84.0293 30.887 84.0498 31.0283 84.0498C31.1331 84.0498 31.2425 84.0407 31.3564 84.0225C31.4749 83.9997 31.5638 83.9814 31.623 83.9678L31.6299 85C31.5296 85.0319 31.3975 85.0615 31.2334 85.0889C31.0739 85.1208 30.8802 85.1367 30.6523 85.1367C30.3424 85.1367 30.0576 85.0752 29.7979 84.9521C29.5381 84.8291 29.3307 84.624 29.1758 84.3369C29.0254 84.0452 28.9502 83.6533 28.9502 83.1611V75.8057ZM38.5752 82.4844C38.5752 82.252 38.5387 82.0469 38.4658 81.8691C38.3975 81.6868 38.2744 81.5228 38.0967 81.377C37.9235 81.2311 37.682 81.0921 37.3721 80.96C37.0667 80.8278 36.6794 80.6934 36.21 80.5566C35.7178 80.4108 35.2734 80.249 34.877 80.0713C34.4805 79.889 34.141 79.6816 33.8584 79.4492C33.5758 79.2168 33.3594 78.9502 33.209 78.6494C33.0586 78.3486 32.9834 78.0046 32.9834 77.6172C32.9834 77.2298 33.0632 76.8721 33.2227 76.5439C33.3822 76.2158 33.61 75.931 33.9062 75.6895C34.207 75.4434 34.5648 75.252 34.9795 75.1152C35.3942 74.9785 35.8568 74.9102 36.3672 74.9102C37.1146 74.9102 37.748 75.0537 38.2676 75.3408C38.7917 75.6234 39.1904 75.9948 39.4639 76.4551C39.7373 76.9108 39.874 77.3984 39.874 77.918H38.5615C38.5615 77.5443 38.4818 77.2139 38.3223 76.9268C38.1628 76.6351 37.9212 76.4072 37.5977 76.2432C37.2741 76.0745 36.8639 75.9902 36.3672 75.9902C35.8978 75.9902 35.5104 76.0609 35.2051 76.2021C34.8997 76.3434 34.6719 76.5348 34.5215 76.7764C34.3757 77.0179 34.3027 77.2936 34.3027 77.6035C34.3027 77.8132 34.346 78.0046 34.4326 78.1777C34.5238 78.3464 34.6628 78.5036 34.8496 78.6494C35.041 78.7952 35.2826 78.9297 35.5742 79.0527C35.8704 79.1758 36.2236 79.2943 36.6338 79.4082C37.1989 79.5677 37.6865 79.7454 38.0967 79.9414C38.5068 80.1374 38.8441 80.3584 39.1084 80.6045C39.3773 80.846 39.5755 81.1217 39.7031 81.4316C39.8353 81.737 39.9014 82.0833 39.9014 82.4707C39.9014 82.8763 39.8193 83.2432 39.6553 83.5713C39.4912 83.8994 39.2565 84.1797 38.9512 84.4121C38.6458 84.6445 38.279 84.8245 37.8506 84.9521C37.4268 85.0752 36.9528 85.1367 36.4287 85.1367C35.9684 85.1367 35.515 85.0729 35.0684 84.9453C34.6263 84.8177 34.223 84.6263 33.8584 84.3711C33.4984 84.1159 33.209 83.8014 32.9902 83.4277C32.776 83.0495 32.6689 82.612 32.6689 82.1152H33.9814C33.9814 82.457 34.0475 82.751 34.1797 82.9971C34.3118 83.2386 34.4919 83.4391 34.7197 83.5986C34.9521 83.7581 35.2142 83.8766 35.5059 83.9541C35.8021 84.027 36.1097 84.0635 36.4287 84.0635C36.889 84.0635 37.2786 83.9997 37.5977 83.8721C37.9167 83.7445 38.1582 83.5622 38.3223 83.3252C38.4909 83.0882 38.5752 82.8079 38.5752 82.4844ZM44.3516 84.0977C44.6523 84.0977 44.9303 84.0361 45.1855 83.9131C45.4408 83.79 45.6504 83.6214 45.8145 83.4072C45.9785 83.1885 46.0719 82.9401 46.0947 82.6621H47.2979C47.2751 83.0996 47.127 83.5075 46.8535 83.8857C46.5846 84.2594 46.2314 84.5625 45.7939 84.7949C45.3564 85.0228 44.8757 85.1367 44.3516 85.1367C43.7956 85.1367 43.3102 85.0387 42.8955 84.8428C42.4854 84.6468 42.1436 84.3779 41.8701 84.0361C41.6012 83.6943 41.3984 83.3024 41.2617 82.8604C41.1296 82.4137 41.0635 81.9421 41.0635 81.4453V81.1582C41.0635 80.6615 41.1296 80.1921 41.2617 79.75C41.3984 79.3034 41.6012 78.9092 41.8701 78.5674C42.1436 78.2256 42.4854 77.9567 42.8955 77.7607C43.3102 77.5648 43.7956 77.4668 44.3516 77.4668C44.9303 77.4668 45.4362 77.5853 45.8691 77.8223C46.3021 78.0547 46.6416 78.3737 46.8877 78.7793C47.1383 79.1803 47.2751 79.6361 47.2979 80.1465H46.0947C46.0719 79.8411 45.9854 79.5654 45.835 79.3193C45.6891 79.0732 45.4886 78.8773 45.2334 78.7314C44.9827 78.5811 44.6888 78.5059 44.3516 78.5059C43.9642 78.5059 43.6383 78.5833 43.374 78.7383C43.1143 78.8887 42.9069 79.0938 42.752 79.3535C42.6016 79.6087 42.4922 79.8936 42.4238 80.208C42.36 80.5179 42.3281 80.8346 42.3281 81.1582V81.4453C42.3281 81.7689 42.36 82.0879 42.4238 82.4023C42.4876 82.7168 42.5947 83.0016 42.7451 83.2568C42.9001 83.512 43.1074 83.7171 43.3672 83.8721C43.6315 84.0225 43.9596 84.0977 44.3516 84.0977ZM48.3848 81.3838V81.2266C48.3848 80.6934 48.4622 80.1989 48.6172 79.7432C48.7721 79.2829 48.9954 78.8841 49.2871 78.5469C49.5788 78.2051 49.932 77.9408 50.3467 77.7539C50.7614 77.5625 51.2262 77.4668 51.7412 77.4668C52.2607 77.4668 52.7279 77.5625 53.1426 77.7539C53.5618 77.9408 53.9173 78.2051 54.209 78.5469C54.5052 78.8841 54.7308 79.2829 54.8857 79.7432C55.0407 80.1989 55.1182 80.6934 55.1182 81.2266V81.3838C55.1182 81.917 55.0407 82.4115 54.8857 82.8672C54.7308 83.3229 54.5052 83.7217 54.209 84.0635C53.9173 84.4007 53.5641 84.665 53.1494 84.8564C52.7393 85.0433 52.2744 85.1367 51.7549 85.1367C51.2354 85.1367 50.7682 85.0433 50.3535 84.8564C49.9388 84.665 49.5833 84.4007 49.2871 84.0635C48.9954 83.7217 48.7721 83.3229 48.6172 82.8672C48.4622 82.4115 48.3848 81.917 48.3848 81.3838ZM49.6494 81.2266V81.3838C49.6494 81.7529 49.6927 82.1016 49.7793 82.4297C49.8659 82.7533 49.9958 83.0404 50.1689 83.291C50.3467 83.5417 50.5677 83.7399 50.832 83.8857C51.0964 84.027 51.404 84.0977 51.7549 84.0977C52.1012 84.0977 52.4043 84.027 52.6641 83.8857C52.9284 83.7399 53.1471 83.5417 53.3203 83.291C53.4935 83.0404 53.6234 82.7533 53.71 82.4297C53.8011 82.1016 53.8467 81.7529 53.8467 81.3838V81.2266C53.8467 80.862 53.8011 80.5179 53.71 80.1943C53.6234 79.8662 53.4912 79.5768 53.3135 79.3262C53.1403 79.071 52.9215 78.8704 52.6572 78.7246C52.3975 78.5788 52.0921 78.5059 51.7412 78.5059C51.3949 78.5059 51.0895 78.5788 50.8252 78.7246C50.5654 78.8704 50.3467 79.071 50.1689 79.3262C49.9958 79.5768 49.8659 79.8662 49.7793 80.1943C49.6927 80.5179 49.6494 80.862 49.6494 81.2266ZM57.9688 78.7656V85H56.7041V77.6035H57.9346L57.9688 78.7656ZM60.2793 77.5625L60.2725 78.7383C60.1676 78.7155 60.0674 78.7018 59.9717 78.6973C59.8805 78.6882 59.7757 78.6836 59.6572 78.6836C59.3656 78.6836 59.1081 78.7292 58.8848 78.8203C58.6615 78.9115 58.4723 79.0391 58.3174 79.2031C58.1624 79.3672 58.0394 79.5632 57.9482 79.791C57.8617 80.0143 57.8047 80.2604 57.7773 80.5293L57.4219 80.7344C57.4219 80.2878 57.4652 79.8685 57.5518 79.4766C57.6429 79.0846 57.7819 78.7383 57.9688 78.4375C58.1556 78.1322 58.3926 77.8952 58.6797 77.7266C58.9714 77.5534 59.3177 77.4668 59.7188 77.4668C59.8099 77.4668 59.9147 77.4782 60.0332 77.501C60.1517 77.5192 60.2337 77.5397 60.2793 77.5625ZM64.3809 85.1367C63.8659 85.1367 63.3988 85.0501 62.9795 84.877C62.5648 84.6992 62.207 84.4508 61.9062 84.1318C61.61 83.8128 61.3822 83.4346 61.2227 82.9971C61.0632 82.5596 60.9834 82.0811 60.9834 81.5615V81.2744C60.9834 80.6729 61.0723 80.1374 61.25 79.668C61.4277 79.194 61.6693 78.793 61.9746 78.4648C62.2799 78.1367 62.6263 77.8883 63.0137 77.7197C63.401 77.5511 63.8021 77.4668 64.2168 77.4668C64.7454 77.4668 65.2012 77.5579 65.584 77.7402C65.9714 77.9225 66.2881 78.1777 66.5342 78.5059C66.7803 78.8294 66.9626 79.2122 67.0811 79.6543C67.1995 80.0918 67.2588 80.5703 67.2588 81.0898V81.6572H61.7354V80.625H65.9941V80.5293C65.9759 80.2012 65.9076 79.8822 65.7891 79.5723C65.6751 79.2624 65.4928 79.0072 65.2422 78.8066C64.9915 78.6061 64.6497 78.5059 64.2168 78.5059C63.9297 78.5059 63.6654 78.5674 63.4238 78.6904C63.1823 78.8089 62.9749 78.9867 62.8018 79.2236C62.6286 79.4606 62.4941 79.75 62.3984 80.0918C62.3027 80.4336 62.2549 80.8278 62.2549 81.2744V81.5615C62.2549 81.9124 62.3027 82.2428 62.3984 82.5527C62.4987 82.8581 62.6423 83.127 62.8291 83.3594C63.0205 83.5918 63.2507 83.7741 63.5195 83.9062C63.793 84.0384 64.1029 84.1045 64.4492 84.1045C64.8958 84.1045 65.2741 84.0133 65.584 83.8311C65.8939 83.6488 66.165 83.4049 66.3975 83.0996L67.1631 83.708C67.0036 83.9495 66.8008 84.1797 66.5547 84.3984C66.3086 84.6172 66.0055 84.7949 65.6455 84.9316C65.29 85.0684 64.8685 85.1367 64.3809 85.1367ZM78.7979 81.6504V82.6895H71.6064V81.9443L76.0635 75.0469H77.0957L75.9883 77.043L73.042 81.6504H78.7979ZM77.4102 75.0469V85H76.1455V75.0469H77.4102ZM80.1035 84.3301C80.1035 84.1159 80.1696 83.9359 80.3018 83.79C80.4385 83.6396 80.6344 83.5645 80.8896 83.5645C81.1449 83.5645 81.3385 83.6396 81.4707 83.79C81.6074 83.9359 81.6758 84.1159 81.6758 84.3301C81.6758 84.5397 81.6074 84.7174 81.4707 84.8633C81.3385 85.0091 81.1449 85.082 80.8896 85.082C80.6344 85.082 80.4385 85.0091 80.3018 84.8633C80.1696 84.7174 80.1035 84.5397 80.1035 84.3301ZM89.9131 82.3066C89.9131 82.9128 89.7718 83.4277 89.4893 83.8516C89.2113 84.2708 88.833 84.5898 88.3545 84.8086C87.8805 85.0273 87.3451 85.1367 86.748 85.1367C86.151 85.1367 85.6133 85.0273 85.1348 84.8086C84.6562 84.5898 84.278 84.2708 84 83.8516C83.722 83.4277 83.583 82.9128 83.583 82.3066C83.583 81.9102 83.6582 81.5479 83.8086 81.2197C83.9635 80.887 84.18 80.5977 84.458 80.3516C84.7406 80.1055 85.0732 79.9163 85.4561 79.7842C85.8434 79.6475 86.2695 79.5791 86.7344 79.5791C87.3451 79.5791 87.8896 79.6976 88.3682 79.9346C88.8467 80.167 89.2227 80.4883 89.4961 80.8984C89.7741 81.3086 89.9131 81.778 89.9131 82.3066ZM88.6416 82.2793C88.6416 81.9102 88.5618 81.5843 88.4023 81.3018C88.2428 81.0146 88.0195 80.7913 87.7324 80.6318C87.4453 80.4723 87.1126 80.3926 86.7344 80.3926C86.347 80.3926 86.012 80.4723 85.7295 80.6318C85.4515 80.7913 85.235 81.0146 85.0801 81.3018C84.9251 81.5843 84.8477 81.9102 84.8477 82.2793C84.8477 82.6621 84.9229 82.9902 85.0732 83.2637C85.2282 83.5326 85.4469 83.7399 85.7295 83.8857C86.0166 84.027 86.3561 84.0977 86.748 84.0977C87.14 84.0977 87.4772 84.027 87.7598 83.8857C88.0423 83.7399 88.2588 83.5326 88.4092 83.2637C88.5641 82.9902 88.6416 82.6621 88.6416 82.2793ZM89.6807 77.6377C89.6807 78.1208 89.5531 78.556 89.2979 78.9434C89.0426 79.3307 88.694 79.6361 88.252 79.8594C87.8099 80.0827 87.3086 80.1943 86.748 80.1943C86.1784 80.1943 85.6702 80.0827 85.2236 79.8594C84.7816 79.6361 84.4352 79.3307 84.1846 78.9434C83.9339 78.556 83.8086 78.1208 83.8086 77.6377C83.8086 77.0589 83.9339 76.5667 84.1846 76.1611C84.4398 75.7555 84.7884 75.4456 85.2305 75.2314C85.6725 75.0173 86.1761 74.9102 86.7412 74.9102C87.3109 74.9102 87.8167 75.0173 88.2588 75.2314C88.7008 75.4456 89.0472 75.7555 89.2979 76.1611C89.5531 76.5667 89.6807 77.0589 89.6807 77.6377ZM88.416 77.6582C88.416 77.3255 88.3454 77.0316 88.2041 76.7764C88.0628 76.5212 87.8669 76.3206 87.6162 76.1748C87.3656 76.0244 87.0739 75.9492 86.7412 75.9492C86.4085 75.9492 86.1169 76.0199 85.8662 76.1611C85.6201 76.2979 85.4264 76.4938 85.2852 76.749C85.1484 77.0042 85.0801 77.3073 85.0801 77.6582C85.0801 78 85.1484 78.2985 85.2852 78.5537C85.4264 78.8089 85.6224 79.0072 85.873 79.1484C86.1237 79.2897 86.4154 79.3604 86.748 79.3604C87.0807 79.3604 87.3701 79.2897 87.6162 79.1484C87.8669 79.0072 88.0628 78.8089 88.2041 78.5537C88.3454 78.2985 88.416 78 88.416 77.6582Z" fill="#001233"/>
<path d="M123.349 83.9609V85H116.834V84.0908L120.095 80.4609C120.496 80.0143 120.806 79.6361 121.024 79.3262C121.248 79.0117 121.403 78.7314 121.489 78.4854C121.58 78.2347 121.626 77.9795 121.626 77.7197C121.626 77.3916 121.558 77.0954 121.421 76.8311C121.289 76.5622 121.093 76.348 120.833 76.1885C120.573 76.029 120.259 75.9492 119.89 75.9492C119.448 75.9492 119.078 76.0358 118.782 76.209C118.491 76.3776 118.272 76.6146 118.126 76.9199C117.98 77.2253 117.907 77.5762 117.907 77.9727H116.643C116.643 77.4121 116.766 76.8994 117.012 76.4346C117.258 75.9697 117.622 75.6006 118.105 75.3271C118.589 75.0492 119.183 74.9102 119.89 74.9102C120.519 74.9102 121.056 75.0218 121.503 75.2451C121.95 75.4639 122.291 75.7738 122.528 76.1748C122.77 76.5713 122.891 77.0361 122.891 77.5693C122.891 77.861 122.84 78.1572 122.74 78.458C122.645 78.7542 122.51 79.0505 122.337 79.3467C122.168 79.6429 121.97 79.9346 121.742 80.2217C121.519 80.5088 121.28 80.7913 121.024 81.0693L118.358 83.9609H123.349ZM125.987 83.4961V84.5146C125.987 84.9294 125.882 85.3669 125.673 85.8271C125.463 86.292 125.169 86.6794 124.791 86.9893L124.073 86.4902C124.219 86.2897 124.342 86.0846 124.442 85.875C124.543 85.6699 124.618 85.4557 124.668 85.2324C124.723 85.0137 124.75 84.7812 124.75 84.5352V83.4961H125.987ZM131.62 74.9922V85H130.355V76.5713L127.806 77.501V76.3594L131.422 74.9922H131.62ZM141.86 83.9609V85H135.346V84.0908L138.606 80.4609C139.007 80.0143 139.317 79.6361 139.536 79.3262C139.759 79.0117 139.914 78.7314 140.001 78.4854C140.092 78.2347 140.138 77.9795 140.138 77.7197C140.138 77.3916 140.069 77.0954 139.933 76.8311C139.8 76.5622 139.604 76.348 139.345 76.1885C139.085 76.029 138.771 75.9492 138.401 75.9492C137.959 75.9492 137.59 76.0358 137.294 76.209C137.002 76.3776 136.784 76.6146 136.638 76.9199C136.492 77.2253 136.419 77.5762 136.419 77.9727H135.154C135.154 77.4121 135.277 76.8994 135.523 76.4346C135.77 75.9697 136.134 75.6006 136.617 75.3271C137.1 75.0492 137.695 74.9102 138.401 74.9102C139.03 74.9102 139.568 75.0218 140.015 75.2451C140.461 75.4639 140.803 75.7738 141.04 76.1748C141.282 76.5713 141.402 77.0361 141.402 77.5693C141.402 77.861 141.352 78.1572 141.252 78.458C141.156 78.7542 141.022 79.0505 140.849 79.3467C140.68 79.6429 140.482 79.9346 140.254 80.2217C140.031 80.5088 139.791 80.7913 139.536 81.0693L136.87 83.9609H141.86ZM149.94 81.6504V82.6895H142.749V81.9443L147.206 75.0469H148.238L147.131 77.043L144.185 81.6504H149.94ZM148.553 75.0469V85H147.288V75.0469H148.553ZM155.963 78.7656V85H154.698V77.6035H155.929L155.963 78.7656ZM158.273 77.5625L158.267 78.7383C158.162 78.7155 158.062 78.7018 157.966 78.6973C157.875 78.6882 157.77 78.6836 157.651 78.6836C157.36 78.6836 157.102 78.7292 156.879 78.8203C156.656 78.9115 156.466 79.0391 156.312 79.2031C156.157 79.3672 156.034 79.5632 155.942 79.791C155.856 80.0143 155.799 80.2604 155.771 80.5293L155.416 80.7344C155.416 80.2878 155.459 79.8685 155.546 79.4766C155.637 79.0846 155.776 78.7383 155.963 78.4375C156.15 78.1322 156.387 77.8952 156.674 77.7266C156.965 77.5534 157.312 77.4668 157.713 77.4668C157.804 77.4668 157.909 77.4782 158.027 77.501C158.146 77.5192 158.228 77.5397 158.273 77.5625ZM162.375 85.1367C161.86 85.1367 161.393 85.0501 160.974 84.877C160.559 84.6992 160.201 84.4508 159.9 84.1318C159.604 83.8128 159.376 83.4346 159.217 82.9971C159.057 82.5596 158.978 82.0811 158.978 81.5615V81.2744C158.978 80.6729 159.066 80.1374 159.244 79.668C159.422 79.194 159.663 78.793 159.969 78.4648C160.274 78.1367 160.62 77.8883 161.008 77.7197C161.395 77.5511 161.796 77.4668 162.211 77.4668C162.74 77.4668 163.195 77.5579 163.578 77.7402C163.965 77.9225 164.282 78.1777 164.528 78.5059C164.774 78.8294 164.957 79.2122 165.075 79.6543C165.194 80.0918 165.253 80.5703 165.253 81.0898V81.6572H159.729V80.625H163.988V80.5293C163.97 80.2012 163.902 79.8822 163.783 79.5723C163.669 79.2624 163.487 79.0072 163.236 78.8066C162.986 78.6061 162.644 78.5059 162.211 78.5059C161.924 78.5059 161.66 78.5674 161.418 78.6904C161.176 78.8089 160.969 78.9867 160.796 79.2236C160.623 79.4606 160.488 79.75 160.393 80.0918C160.297 80.4336 160.249 80.8278 160.249 81.2744V81.5615C160.249 81.9124 160.297 82.2428 160.393 82.5527C160.493 82.8581 160.636 83.127 160.823 83.3594C161.015 83.5918 161.245 83.7741 161.514 83.9062C161.787 84.0384 162.097 84.1045 162.443 84.1045C162.89 84.1045 163.268 84.0133 163.578 83.8311C163.888 83.6488 164.159 83.4049 164.392 83.0996L165.157 83.708C164.998 83.9495 164.795 84.1797 164.549 84.3984C164.303 84.6172 164 84.7949 163.64 84.9316C163.284 85.0684 162.863 85.1367 162.375 85.1367ZM168.883 83.8584L170.906 77.6035H172.198L169.539 85H168.691L168.883 83.8584ZM167.194 77.6035L169.279 83.8926L169.423 85H168.575L165.896 77.6035H167.194ZM174.789 77.6035V85H173.518V77.6035H174.789ZM173.422 75.6416C173.422 75.4365 173.483 75.2633 173.606 75.1221C173.734 74.9808 173.921 74.9102 174.167 74.9102C174.409 74.9102 174.593 74.9808 174.721 75.1221C174.853 75.2633 174.919 75.4365 174.919 75.6416C174.919 75.8376 174.853 76.0062 174.721 76.1475C174.593 76.2842 174.409 76.3525 174.167 76.3525C173.921 76.3525 173.734 76.2842 173.606 76.1475C173.483 76.0062 173.422 75.8376 173.422 75.6416ZM179.889 85.1367C179.374 85.1367 178.907 85.0501 178.487 84.877C178.073 84.6992 177.715 84.4508 177.414 84.1318C177.118 83.8128 176.89 83.4346 176.73 82.9971C176.571 82.5596 176.491 82.0811 176.491 81.5615V81.2744C176.491 80.6729 176.58 80.1374 176.758 79.668C176.936 79.194 177.177 78.793 177.482 78.4648C177.788 78.1367 178.134 77.8883 178.521 77.7197C178.909 77.5511 179.31 77.4668 179.725 77.4668C180.253 77.4668 180.709 77.5579 181.092 77.7402C181.479 77.9225 181.796 78.1777 182.042 78.5059C182.288 78.8294 182.47 79.2122 182.589 79.6543C182.707 80.0918 182.767 80.5703 182.767 81.0898V81.6572H177.243V80.625H181.502V80.5293C181.484 80.2012 181.415 79.8822 181.297 79.5723C181.183 79.2624 181.001 79.0072 180.75 78.8066C180.499 78.6061 180.158 78.5059 179.725 78.5059C179.438 78.5059 179.173 78.5674 178.932 78.6904C178.69 78.8089 178.483 78.9867 178.31 79.2236C178.136 79.4606 178.002 79.75 177.906 80.0918C177.811 80.4336 177.763 80.8278 177.763 81.2744V81.5615C177.763 81.9124 177.811 82.2428 177.906 82.5527C178.007 82.8581 178.15 83.127 178.337 83.3594C178.528 83.5918 178.758 83.7741 179.027 83.9062C179.301 84.0384 179.611 84.1045 179.957 84.1045C180.404 84.1045 180.782 84.0133 181.092 83.8311C181.402 83.6488 181.673 83.4049 181.905 83.0996L182.671 83.708C182.511 83.9495 182.309 84.1797 182.062 84.3984C181.816 84.6172 181.513 84.7949 181.153 84.9316C180.798 85.0684 180.376 85.1367 179.889 85.1367ZM186.116 83.6875L188.017 77.6035H188.851L188.687 78.8135L186.752 85H185.938L186.116 83.6875ZM184.838 77.6035L186.458 83.7559L186.574 85H185.72L183.573 77.6035H184.838ZM190.669 83.708L192.214 77.6035H193.472L191.325 85H190.478L190.669 83.708ZM189.035 77.6035L190.895 83.585L191.106 85H190.3L188.311 78.7998L188.146 77.6035H189.035ZM199.077 83.0381C199.077 82.8558 199.036 82.6872 198.954 82.5322C198.877 82.3727 198.715 82.2292 198.469 82.1016C198.227 81.9694 197.863 81.8555 197.375 81.7598C196.965 81.6732 196.593 81.5706 196.261 81.4521C195.933 81.3337 195.652 81.1901 195.42 81.0215C195.192 80.8529 195.017 80.6546 194.894 80.4268C194.771 80.1989 194.709 79.9323 194.709 79.627C194.709 79.3353 194.773 79.0596 194.9 78.7998C195.033 78.54 195.217 78.3099 195.454 78.1094C195.696 77.9089 195.985 77.7516 196.322 77.6377C196.66 77.5238 197.035 77.4668 197.45 77.4668C198.043 77.4668 198.549 77.5716 198.968 77.7812C199.387 77.9909 199.708 78.2712 199.932 78.6221C200.155 78.9684 200.267 79.3535 200.267 79.7773H199.002C199.002 79.5723 198.94 79.374 198.817 79.1826C198.699 78.9867 198.523 78.8249 198.291 78.6973C198.063 78.5697 197.783 78.5059 197.45 78.5059C197.099 78.5059 196.814 78.5605 196.596 78.6699C196.382 78.7747 196.224 78.9092 196.124 79.0732C196.028 79.2373 195.98 79.4105 195.98 79.5928C195.98 79.7295 196.003 79.8525 196.049 79.9619C196.099 80.0667 196.186 80.1647 196.309 80.2559C196.432 80.3424 196.605 80.4245 196.828 80.502C197.051 80.5794 197.336 80.6569 197.683 80.7344C198.289 80.8711 198.788 81.0352 199.18 81.2266C199.572 81.418 199.863 81.6527 200.055 81.9307C200.246 82.2087 200.342 82.5459 200.342 82.9424C200.342 83.266 200.273 83.5622 200.137 83.8311C200.005 84.0999 199.811 84.3324 199.556 84.5283C199.305 84.7197 199.004 84.8701 198.653 84.9795C198.307 85.0843 197.917 85.1367 197.484 85.1367C196.833 85.1367 196.281 85.0205 195.83 84.7881C195.379 84.5557 195.037 84.2549 194.805 83.8857C194.572 83.5166 194.456 83.127 194.456 82.7168H195.728C195.746 83.0632 195.846 83.3389 196.028 83.5439C196.211 83.7445 196.434 83.888 196.698 83.9746C196.963 84.0566 197.225 84.0977 197.484 84.0977C197.831 84.0977 198.12 84.0521 198.353 83.9609C198.59 83.8698 198.77 83.7445 198.893 83.585C199.016 83.4255 199.077 83.2432 199.077 83.0381Z" fill="#001233"/>
<rect x="103" y="73" width="1" height="14" fill="#001233"/>
<defs>
<clipPath id="clip0_327_2561">
<rect width="104" height="26" fill="white"/>
</clipPath>
<clipPath id="clip1_327_2561">
<rect width="131" height="25" fill="white" transform="translate(0 38)"/>
</clipPath>
</defs>
</svg>
