<svg width="82" height="20" viewBox="0 0 82 20" fill="none" xmlns="http://www.w3.org/2000/svg">
<g clip-path="url(#clip0_189_8841)">
<path d="M21.4349 7.08844H29.6936V8.6269H26.4463V17.2754H24.6606V8.6269H21.4277V7.08844H21.4349ZM29.3408 9.89937H30.8672V11.3228H30.896C30.9464 11.1215 31.04 10.9274 31.1769 10.7405C31.3137 10.5536 31.4793 10.3738 31.6737 10.2229C31.8681 10.0647 32.0841 9.9425 32.3217 9.84185C32.5593 9.7484 32.8041 9.69807 33.0489 9.69807C33.2361 9.69807 33.3729 9.70526 33.4449 9.71245C33.5169 9.71964 33.5889 9.73402 33.6681 9.74121V11.3084C33.5529 11.2869 33.4377 11.2725 33.3153 11.2581C33.1929 11.2437 33.0777 11.2365 32.9625 11.2365C32.6889 11.2365 32.4297 11.294 32.1849 11.4019C31.9401 11.5097 31.7313 11.6751 31.5513 11.8836C31.3713 12.0992 31.2273 12.358 31.1192 12.6743C31.0112 12.9907 30.9608 13.3501 30.9608 13.7599V17.2682H29.3336V9.89937H29.3408ZM41.1492 17.2754H39.5507V16.2473H39.5219C39.3203 16.6211 39.0251 16.9159 38.6291 17.1388C38.2331 17.3616 37.8299 17.4766 37.4195 17.4766C36.4474 17.4766 35.7418 17.2394 35.3098 16.7577C34.8778 16.2761 34.6618 15.55 34.6618 14.5795V9.89937H36.289V14.4213C36.289 15.0683 36.4114 15.5284 36.6634 15.7944C36.9082 16.0604 37.261 16.197 37.7075 16.197C38.0531 16.197 38.3339 16.1467 38.5643 16.0388C38.7947 15.931 38.9819 15.7944 39.1187 15.6147C39.2627 15.4421 39.3635 15.2265 39.4283 14.982C39.4931 14.7376 39.5219 14.4716 39.5219 14.1841V9.90656H41.1492V17.2754ZM43.9213 14.9102C43.9717 15.3846 44.1517 15.7153 44.4613 15.9094C44.7781 16.0963 45.1525 16.197 45.5917 16.197C45.7429 16.197 45.9157 16.1826 46.1101 16.161C46.3045 16.1395 46.4917 16.0892 46.6574 16.0245C46.8302 15.9598 46.967 15.8591 47.0822 15.7297C47.1902 15.6003 47.2406 15.435 47.2334 15.2265C47.2262 15.018 47.147 14.8454 47.003 14.716C46.859 14.5795 46.679 14.4788 46.4557 14.3925C46.2325 14.3135 45.9805 14.2416 45.6925 14.1841C45.4045 14.1265 45.1165 14.0618 44.8213 13.9971C44.5189 13.9324 44.2237 13.8462 43.9429 13.7527C43.6621 13.6593 43.41 13.5298 43.1868 13.3645C42.9636 13.2063 42.7836 12.9979 42.654 12.7462C42.5172 12.4946 42.4524 12.1855 42.4524 11.8117C42.4524 11.4091 42.5532 11.0784 42.7476 10.8052C42.942 10.532 43.194 10.3163 43.4893 10.151C43.7917 9.98564 44.1229 9.87061 44.4901 9.79872C44.8573 9.73402 45.2101 9.69807 45.5413 9.69807C45.9229 9.69807 46.2901 9.74121 46.6358 9.82029C46.9814 9.89937 47.2982 10.0288 47.579 10.2157C47.8598 10.3954 48.0902 10.6327 48.2774 10.9202C48.4646 11.2078 48.5798 11.56 48.6302 11.9698H46.931C46.8518 11.5816 46.679 11.3156 46.3981 11.1862C46.1173 11.0496 45.7933 10.9849 45.4333 10.9849C45.3181 10.9849 45.1813 10.9921 45.0229 11.0137C44.8645 11.0352 44.7205 11.0712 44.5765 11.1215C44.4397 11.1718 44.3245 11.2509 44.2237 11.3516C44.1301 11.4522 44.0797 11.5816 44.0797 11.747C44.0797 11.9483 44.1517 12.1064 44.2885 12.2286C44.4253 12.3508 44.6053 12.4515 44.8285 12.5378C45.0517 12.6168 45.3037 12.6887 45.5917 12.7462C45.8797 12.8038 46.1749 12.8685 46.4773 12.9332C46.7726 12.9979 47.0606 13.0841 47.3486 13.1776C47.6366 13.271 47.8886 13.4004 48.1118 13.5658C48.335 13.7311 48.515 13.9324 48.6518 14.1769C48.7886 14.4213 48.8606 14.7304 48.8606 15.0899C48.8606 15.5284 48.7598 15.8951 48.5582 16.2042C48.3566 16.5061 48.0974 16.7577 47.7806 16.9447C47.4638 17.1316 47.1038 17.2754 46.715 17.3616C46.3261 17.4479 45.9373 17.491 45.5557 17.491C45.0877 17.491 44.6557 17.4407 44.2597 17.3329C43.8637 17.225 43.5181 17.0669 43.23 16.8584C42.942 16.6427 42.7116 16.3767 42.546 16.0604C42.3804 15.7441 42.294 15.3631 42.2796 14.9245H43.9213V14.9102ZM49.2926 9.89937H50.5239V7.68513H52.1511V9.89937H53.62V11.1143H52.1511V15.0539C52.1511 15.2265 52.1583 15.3703 52.1727 15.4997C52.1871 15.6219 52.2231 15.7297 52.2735 15.816C52.3239 15.9022 52.4031 15.9669 52.5111 16.0101C52.6191 16.0532 52.7559 16.0748 52.9432 16.0748C53.0584 16.0748 53.1736 16.0748 53.2888 16.0676C53.404 16.0604 53.5192 16.046 53.6344 16.0173V17.2754C53.4544 17.2969 53.2744 17.3113 53.1088 17.3329C52.936 17.3544 52.7631 17.3616 52.5831 17.3616C52.1511 17.3616 51.8055 17.3185 51.5463 17.2394C51.2871 17.1603 51.0783 17.0381 50.9343 16.88C50.7831 16.7218 50.6895 16.5277 50.6319 16.2905C50.5815 16.0532 50.5455 15.78 50.5383 15.4781V11.1287H49.307V9.89937H49.2926ZM54.772 9.89937H56.3129V10.8986H56.3417C56.5721 10.4673 56.8889 10.1654 57.2993 9.97845C57.7097 9.79153 58.1489 9.69807 58.6313 9.69807C59.2146 9.69807 59.7186 9.79872 60.1506 10.0072C60.5826 10.2085 60.9426 10.4889 61.2306 10.8483C61.5186 11.2078 61.7274 11.6247 61.8714 12.0992C62.0154 12.5737 62.0875 13.0841 62.0875 13.6233C62.0875 14.1194 62.0227 14.601 61.893 15.0611C61.7634 15.5284 61.569 15.9382 61.3098 16.2976C61.0506 16.6571 60.7194 16.9375 60.3162 17.1531C59.913 17.3688 59.445 17.4766 58.8978 17.4766C58.6601 17.4766 58.4225 17.4551 58.1849 17.4119C57.9473 17.3688 57.7169 17.2969 57.5009 17.2035C57.2849 17.11 57.0761 16.9878 56.8961 16.8368C56.7089 16.6859 56.5577 16.5133 56.4281 16.3192H56.3993V20H54.772V9.89937ZM60.4602 13.5946C60.4602 13.2639 60.417 12.9403 60.3306 12.624C60.2442 12.3077 60.1146 12.0345 59.9418 11.7901C59.769 11.5457 59.553 11.3516 59.301 11.2078C59.0418 11.064 58.7465 10.9849 58.4153 10.9849C57.7313 10.9849 57.2129 11.2222 56.8673 11.6966C56.5217 12.1711 56.3489 12.8038 56.3489 13.5946C56.3489 13.9684 56.3921 14.3135 56.4857 14.6298C56.5793 14.9461 56.7089 15.2193 56.8961 15.4493C57.0761 15.6794 57.2921 15.8591 57.5441 15.9885C57.7961 16.1251 58.0913 16.1898 58.4225 16.1898C58.797 16.1898 59.1066 16.1107 59.3658 15.9598C59.625 15.8088 59.8338 15.6075 59.9994 15.3703C60.165 15.1258 60.2874 14.8526 60.3594 14.5435C60.4242 14.2344 60.4602 13.9181 60.4602 13.5946ZM63.3331 7.08844H64.9603V8.6269H63.3331V7.08844ZM63.3331 9.89937H64.9603V17.2754H63.3331V9.89937ZM66.4148 7.08844H68.042V17.2754H66.4148V7.08844ZM73.0318 17.4766C72.4414 17.4766 71.9158 17.376 71.455 17.1819C70.9941 16.9878 70.6053 16.7146 70.2813 16.3767C69.9645 16.0316 69.7197 15.6219 69.5541 15.1474C69.3885 14.6729 69.3021 14.1481 69.3021 13.5802C69.3021 13.0194 69.3885 12.5018 69.5541 12.0273C69.7197 11.5529 69.9645 11.1431 70.2813 10.798C70.5981 10.4529 70.9941 10.1869 71.455 9.99283C71.9158 9.79872 72.4414 9.69807 73.0318 9.69807C73.6222 9.69807 74.1478 9.79872 74.6087 9.99283C75.0695 10.1869 75.4583 10.4601 75.7823 10.798C76.0991 11.1431 76.3439 11.5529 76.5095 12.0273C76.6751 12.5018 76.7615 13.0194 76.7615 13.5802C76.7615 14.1481 76.6751 14.6729 76.5095 15.1474C76.3439 15.6219 76.0991 16.0316 75.7823 16.3767C75.4655 16.7218 75.0695 16.9878 74.6087 17.1819C74.1478 17.376 73.6222 17.4766 73.0318 17.4766ZM73.0318 16.1898C73.3918 16.1898 73.7086 16.1107 73.975 15.9598C74.2415 15.8088 74.4575 15.6075 74.6303 15.3631C74.8031 15.1186 74.9255 14.8383 75.0119 14.5291C75.0911 14.22 75.1343 13.9037 75.1343 13.5802C75.1343 13.2639 75.0911 12.9547 75.0119 12.6384C74.9327 12.3221 74.8031 12.0489 74.6303 11.8045C74.4575 11.56 74.2415 11.3659 73.975 11.215C73.7086 11.064 73.3918 10.9849 73.0318 10.9849C72.6718 10.9849 72.355 11.064 72.0886 11.215C71.8222 11.3659 71.6062 11.5672 71.4334 11.8045C71.2606 12.0489 71.1381 12.3221 71.0517 12.6384C70.9725 12.9547 70.9293 13.2639 70.9293 13.5802C70.9293 13.9037 70.9725 14.22 71.0517 14.5291C71.1309 14.8383 71.2606 15.1186 71.4334 15.3631C71.6062 15.6075 71.8222 15.8088 72.0886 15.9598C72.355 16.1179 72.6718 16.1898 73.0318 16.1898ZM77.2367 9.89937H78.468V7.68513H80.0952V9.89937H81.5641V11.1143H80.0952V15.0539C80.0952 15.2265 80.1024 15.3703 80.1168 15.4997C80.1312 15.6219 80.1672 15.7297 80.2176 15.816C80.268 15.9022 80.3472 15.9669 80.4553 16.0101C80.5633 16.0532 80.7001 16.0748 80.8873 16.0748C81.0025 16.0748 81.1177 16.0748 81.2329 16.0676C81.3481 16.0604 81.4633 16.046 81.5785 16.0173V17.2754C81.3985 17.2969 81.2185 17.3113 81.0529 17.3329C80.8801 17.3544 80.7073 17.3616 80.5273 17.3616C80.0952 17.3616 79.7496 17.3185 79.4904 17.2394C79.2312 17.1603 79.0224 17.0381 78.8784 16.88C78.7272 16.7218 78.6336 16.5277 78.576 16.2905C78.5256 16.0532 78.4896 15.78 78.4824 15.4781V11.1287H77.2511V9.89937H77.2367Z" fill="#FD5D07"/>
<path d="M19.5342 7.08842H12.0748L9.77072 0L7.45944 7.08842L0 7.08124L6.041 11.4666L3.72972 18.5478L9.77072 14.1697L15.8045 18.5478L13.5004 11.4666L19.5342 7.08842Z" fill="#FD5D07"/>
<path d="M14.0186 13.0697L13.5002 11.4666L9.77051 14.1697L14.0186 13.0697Z" fill="#005128"/>
</g>
<defs>
<clipPath id="clip0_189_8841">
<rect width="81.5642" height="20" fill="white"/>
</clipPath>
</defs>
</svg>
