<svg width="18" height="16" viewBox="0 0 18 16" fill="none" xmlns="http://www.w3.org/2000/svg">
<path d="M7.67775 15.6816C7.6754 15.6816 7.67267 15.6816 7.67033 15.6816C7.57345 15.6797 7.48204 15.6383 7.41642 15.5672L0.718763 8.28438C0.603919 8.15938 0.593372 7.9711 0.693763 7.83399C0.794153 7.69727 0.976966 7.6504 1.13087 7.72227L7.26095 10.5926C7.31251 10.6168 7.37345 10.6051 7.4129 10.5641L16.7637 0.791022C16.8902 0.6586 17.0973 0.644147 17.241 0.758209C17.3848 0.872272 17.418 1.07696 17.3176 1.23048L8.01603 15.4797C8.00275 15.5004 7.98712 15.5191 7.96993 15.5367L7.92892 15.5777C7.86212 15.6441 7.7715 15.6816 7.67775 15.6816Z" fill="#FD5D07"/>
</svg>
