<svg width="96" height="18" viewBox="0 0 96 18" fill="none" xmlns="http://www.w3.org/2000/svg">
<path d="M18 0H0V18H18V0Z" fill="#FD5D07"/>
<path d="M37.5 0H19.5V18H37.5V0Z" fill="#FD5D07"/>
<path d="M57 0H39V18H57V0Z" fill="#FD5D07"/>
<path d="M76.5 0H58.5V18H76.5V0Z" fill="#FD5D07"/>
<path d="M96 0H87V18H96V0Z" fill="#DCDCE6"/>
<path d="M87 0H78V18H87V0Z" fill="#FD5D07"/>
<path d="M9.00019 12.1313L11.7377 11.4375L12.8814 14.9625L9.00019 12.1313ZM15.3002 7.57501H10.4814L9.00019 3.03751L7.51894 7.57501H2.7002L6.60019 10.3875L5.11894 14.925L9.01894 12.1125L11.4189 10.3875L15.3002 7.57501Z" fill="white"/>
<path d="M28.5002 12.1313L31.2377 11.4375L32.3814 14.9625L28.5002 12.1313ZM34.8002 7.57501H29.9814L28.5002 3.03751L27.0189 7.57501H22.2002L26.1002 10.3875L24.6189 14.925L28.5189 12.1125L30.9189 10.3875L34.8002 7.57501Z" fill="white"/>
<path d="M48.0002 12.1313L50.7377 11.4375L51.8814 14.9625L48.0002 12.1313ZM54.3002 7.57501H49.4814L48.0002 3.03751L46.5189 7.57501H41.7002L45.6002 10.3875L44.1189 14.925L48.0189 12.1125L50.4189 10.3875L54.3002 7.57501Z" fill="white"/>
<path d="M67.5002 12.1313L70.2377 11.4375L71.3814 14.9625L67.5002 12.1313ZM73.8002 7.57501H68.9814L67.5002 3.03751L66.0189 7.57501H61.2002L65.1002 10.3875L63.6189 14.925L67.5189 12.1125L69.9189 10.3875L73.8002 7.57501Z" fill="white"/>
<path d="M87.0002 12.1313L89.7377 11.4375L90.8814 14.9625L87.0002 12.1313ZM93.3002 7.57501H88.4814L87.0002 3.03751L85.5189 7.57501H80.7002L84.6002 10.3875L83.1189 14.925L87.0189 12.1125L89.4189 10.3875L93.3002 7.57501Z" fill="white"/>
</svg>
