<svg width="260" height="260" viewBox="0 0 260 260" fill="none" xmlns="http://www.w3.org/2000/svg">
<path fill-rule="evenodd" clip-rule="evenodd" d="M93.4911 151.945L66.2077 124.662C56.7208 115.175 53.4466 99.233 63.4218 89.2578L76.3309 76.3486L89.2401 63.4395C99.2153 53.4643 115.174 56.7559 124.644 66.2254L151.945 93.5261C162.799 104.381 151.186 128.354 139.761 139.779C128.319 151.187 104.363 162.817 93.4911 151.945Z" fill="url(#paint0_linear_123_38424)"/>
<path fill-rule="evenodd" clip-rule="evenodd" d="M85.4237 143.878L66.2076 124.662C61.4641 119.918 58.2912 113.57 57.5207 107.173L81.134 130.786C84.5098 134.128 85.7096 138.745 85.4237 143.878ZM107.138 57.5212C113.552 58.2744 119.9 61.482 124.627 66.2081L143.843 85.4242C138.727 85.6928 134.11 84.493 130.734 81.1172L107.138 57.5212Z" fill="url(#paint1_linear_123_38424)"/>
<path fill-rule="evenodd" clip-rule="evenodd" d="M89.7294 133.652L52.0762 95.9986C47.0211 90.9436 46.0122 86.8282 47.5827 85.2577C49.1532 83.6872 53.2686 84.6961 58.3237 89.7511L95.9768 127.404C100.305 131.732 98.8565 134.081 97.6312 135.306C96.4058 136.531 94.0573 137.98 89.7294 133.652Z" fill="url(#paint2_linear_123_38424)"/>
<path fill-rule="evenodd" clip-rule="evenodd" d="M127.404 95.9771L89.751 58.3239C84.6959 53.2689 83.687 49.1535 85.2575 47.583C86.828 46.0125 90.9434 47.0214 95.9985 52.0765L133.652 89.7297C137.98 94.0576 136.531 96.4061 135.306 97.6314C134.081 98.8568 131.732 100.305 127.404 95.9771Z" fill="url(#paint3_linear_123_38424)"/>
<path fill-rule="evenodd" clip-rule="evenodd" d="M118.668 191.791L93.4002 160.138C87.304 152.489 88.5323 142.016 94.1412 136.407C99.7502 130.798 110.206 129.552 117.872 135.666L149.526 160.934L134.08 176.38L118.668 191.791Z" fill="url(#paint4_linear_123_38424)"/>
<path fill-rule="evenodd" clip-rule="evenodd" d="M115.585 187.949L93.4176 160.155C89.6941 155.5 88.7173 149.794 89.7639 144.766C92.6513 145.272 95.4362 146.573 97.7386 148.875L119.448 170.549C123.62 174.756 119.745 183.79 115.585 187.949Z" fill="url(#paint5_linear_123_38424)"/>
<path fill-rule="evenodd" clip-rule="evenodd" d="M115.727 190.197L147.914 158.01L153.66 162.479L120.196 195.942L115.727 190.197Z" fill="url(#paint6_linear_123_38424)"/>
<path fill-rule="evenodd" clip-rule="evenodd" d="M191.791 118.668L160.138 93.4005C152.489 87.3044 142.016 88.5326 136.407 94.1416C130.798 99.7505 129.552 110.206 135.666 117.873L160.934 149.526L176.363 134.097L191.791 118.668Z" fill="url(#paint7_linear_123_38424)"/>
<path fill-rule="evenodd" clip-rule="evenodd" d="M187.949 115.586L160.155 93.4178C155.5 89.6943 149.794 88.7175 144.766 89.7641C145.272 92.6515 146.573 95.4364 148.875 97.7389L170.549 119.448C174.756 123.62 183.79 119.745 187.949 115.586Z" fill="url(#paint8_linear_123_38424)"/>
<path fill-rule="evenodd" clip-rule="evenodd" d="M190.197 115.727L158.01 147.914L162.479 153.66L195.942 120.196L190.197 115.727Z" fill="url(#paint9_linear_123_38424)"/>
<path fill-rule="evenodd" clip-rule="evenodd" d="M115.529 162.35L78.9142 125.736C70.8122 117.634 67.6804 104.354 75.6709 96.3636L86.0086 86.0259L96.3463 75.6883C104.337 67.6977 117.617 70.8296 125.718 78.9315L162.333 115.546C171.612 124.825 162.62 144.343 153.473 153.49C144.326 162.637 124.808 171.629 115.529 162.35Z" fill="url(#paint10_linear_123_38424)"/>
<path fill-rule="evenodd" clip-rule="evenodd" d="M111.807 158.628L78.9141 125.736C72.0413 118.863 68.7407 108.245 72.8077 100.3C73.0154 100.508 73.2404 100.698 73.4481 100.906L110.063 137.521C115.152 142.61 114.733 150.785 111.807 158.628ZM117.83 152.847C119.28 151.397 121.648 151.384 123.119 152.855C124.591 154.327 124.594 156.678 123.127 158.144C121.678 159.594 119.31 159.608 117.838 158.136C116.367 156.665 116.38 154.297 117.83 152.847ZM152.847 117.83C154.297 116.38 156.665 116.367 158.136 117.838C159.608 119.31 159.611 121.661 158.144 123.128C156.695 124.577 154.327 124.591 152.855 123.119C151.384 121.648 151.397 119.28 152.847 117.83ZM100.3 72.8078C108.228 68.7581 118.863 72.0415 125.736 78.9142L158.628 111.807C150.768 114.716 142.61 115.118 137.52 110.028L100.923 73.431C100.698 73.2405 100.49 73.0328 100.3 72.8078Z" fill="url(#paint11_linear_123_38424)"/>
<path fill-rule="evenodd" clip-rule="evenodd" d="M133.931 158.213L54.2964 78.5788C38.6292 62.9116 33.4636 42.2826 37.8645 37.8818C42.2653 33.4809 62.8943 38.6466 78.5615 54.3138L158.196 133.948L146.063 146.081L133.931 158.213Z" fill="url(#paint12_linear_123_38424)"/>
<path fill-rule="evenodd" clip-rule="evenodd" d="M40.9232 59.7174C36.085 49.5637 35.1377 40.6086 37.8645 37.8818C40.5913 35.155 49.5637 36.085 59.7002 40.9405C63.0222 43.089 66.345 45.6869 69.4438 48.7857L144.335 123.677L142.574 125.437L114.598 97.461C103.519 86.3815 88.942 82.7463 85.8356 85.8528C82.7118 88.9765 86.3815 103.553 97.4438 114.616L125.42 142.592L123.659 144.352L48.7684 69.461C45.6869 66.3795 43.0717 63.0395 40.9232 59.7174Z" fill="url(#paint13_linear_123_38424)"/>
<path fill-rule="evenodd" clip-rule="evenodd" d="M58.0503 58.0674C54.892 61.2256 53.8969 65.9947 54.0055 69.1753L51.5472 66.7171C50.8501 63.017 51.0841 57.8319 54.4494 54.4665C57.832 51.0839 62.9999 50.8672 66.6999 51.5643L69.1582 54.0226C65.9776 53.914 61.2085 54.9091 58.0503 58.0674Z" fill="url(#paint14_linear_123_38424)"/>
<path fill-rule="evenodd" clip-rule="evenodd" d="M136.634 151.217L88.836 103.419C79.4356 94.0187 76.3397 81.6378 78.9802 78.9973C81.6207 76.3568 94.0016 79.4527 103.402 88.8531L151.2 136.651L143.917 143.934L136.634 151.217Z" fill="url(#paint15_linear_123_38424)"/>
<path fill-rule="evenodd" clip-rule="evenodd" d="M94.7858 94.803C92.4387 97.1501 92.1857 101.177 92.674 103.978L90.2157 101.52C89.1389 98.1994 88.6652 93.7219 91.1849 91.2022C93.6874 88.6997 98.1822 89.1561 101.503 90.2329L103.961 92.6912C101.177 92.1856 97.1329 92.4559 94.7858 94.803Z" fill="url(#paint16_linear_123_38424)"/>
<path fill-rule="evenodd" clip-rule="evenodd" d="M147.721 178.596L122.453 146.943C116.357 139.293 117.586 128.821 123.194 123.212C128.803 117.603 139.259 116.357 146.926 122.471L178.579 147.739L163.15 163.167L147.721 178.596Z" fill="url(#paint17_linear_123_38424)"/>
<path fill-rule="evenodd" clip-rule="evenodd" d="M118.759 138.934C117.609 133.055 119.415 127.026 123.212 123.229C127.008 119.432 133.055 117.644 138.917 118.777L157.925 137.785C165.629 145.489 162.134 154.281 158.199 158.216C154.264 162.151 145.471 165.646 137.768 157.943L118.759 138.934Z" fill="url(#paint18_linear_123_38424)"/>
<path fill-rule="evenodd" clip-rule="evenodd" d="M144.798 176.984L176.984 144.798L182.73 149.266L149.266 182.73L144.798 176.984Z" fill="url(#paint19_linear_123_38424)"/>
<path fill-rule="evenodd" clip-rule="evenodd" d="M166.085 182.98C167.208 194.183 172.218 203.438 178.865 209.671C178.533 207.648 179.911 204.504 181.967 203.937C196.345 213.034 210.477 219.261 223.062 220.594C220.696 210.704 216.757 200.655 211.973 191.798C213.369 189.778 215.132 189.4 217.382 191.028C211.484 177.779 201.341 168.775 184.588 166.381C187.78 173.68 173.594 188.316 166.085 182.98Z" fill="url(#paint20_linear_123_38424)"/>
<path fill-rule="evenodd" clip-rule="evenodd" d="M166.085 182.98C170.088 189.918 173.139 195.419 178.625 199.801C178.812 197.468 180.986 195.259 183.059 194.674C187.973 197.862 198.683 204.637 209.299 206.797C207.593 198.67 206.015 195.643 201.231 186.786C202.628 184.766 204.89 183.646 207.138 184.133C203.584 177.093 191.384 167.792 184.606 166.364C187.78 173.68 173.595 188.316 166.085 182.98Z" fill="url(#paint21_linear_123_38424)"/>
<path fill-rule="evenodd" clip-rule="evenodd" d="M142.092 181.975C150.372 182.801 157.188 186.51 161.811 191.409C160.324 191.165 157.992 192.181 157.58 193.701C164.303 204.325 168.9 214.755 169.899 224.073C162.585 222.316 155.165 219.418 148.626 215.881C147.141 216.916 146.849 218.212 148.062 219.873C138.255 215.52 131.588 208.025 129.841 195.646C135.237 198.005 146.041 187.513 142.092 181.975Z" fill="url(#paint22_linear_123_38424)"/>
<path fill-rule="evenodd" clip-rule="evenodd" d="M142.092 181.975C147.213 184.956 151.278 187.192 154.517 191.225C152.788 191.36 151.166 192.983 150.736 194.486C153.11 198.137 158.1 206.061 159.686 213.893C153.686 212.622 151.454 211.461 144.915 207.924C143.43 208.959 142.603 210.617 142.968 212.295C137.762 209.676 130.903 200.643 129.841 195.646C135.237 198.005 146.041 187.513 142.092 181.975Z" fill="url(#paint23_linear_123_38424)"/>
<path fill-rule="evenodd" clip-rule="evenodd" d="M181.976 142.092C182.801 150.372 186.51 157.188 191.409 161.811C191.165 160.324 192.181 157.992 193.702 157.58C204.325 164.303 214.755 168.9 224.073 169.899C222.316 162.585 219.418 155.165 215.882 148.626C216.916 147.141 218.212 146.849 219.873 148.062C215.503 138.272 208.025 131.623 195.646 129.84C198.005 135.237 187.513 146.041 181.976 142.092Z" fill="url(#paint24_linear_123_38424)"/>
<path fill-rule="evenodd" clip-rule="evenodd" d="M181.976 142.092C184.957 147.213 187.193 151.278 191.225 154.517C191.361 152.788 192.983 151.166 194.486 150.736C198.12 153.093 206.027 158.1 213.859 159.685C212.588 153.685 211.427 151.454 207.89 144.915C208.925 143.43 210.583 142.603 212.26 142.968C209.642 137.761 200.609 130.903 195.612 129.84C198.006 135.237 187.513 146.041 181.976 142.092Z" fill="url(#paint25_linear_123_38424)"/>
<defs>
<linearGradient id="paint0_linear_123_38424" x1="139.753" y1="139.757" x2="76.3273" y2="76.3311" gradientUnits="userSpaceOnUse">
<stop stop-color="#276B9C"/>
<stop offset="1" stop-color="#EBF9FF"/>
</linearGradient>
<linearGradient id="paint1_linear_123_38424" x1="114.646" y1="114.65" x2="82.3338" y2="82.3378" gradientUnits="userSpaceOnUse">
<stop stop-color="#87D5ED"/>
<stop offset="1" stop-color="white"/>
</linearGradient>
<linearGradient id="paint2_linear_123_38424" x1="97.6341" y1="135.306" x2="47.5785" y2="85.25" gradientUnits="userSpaceOnUse">
<stop stop-color="#87D5ED"/>
<stop offset="1" stop-color="white"/>
</linearGradient>
<linearGradient id="paint3_linear_123_38424" x1="135.302" y1="97.6377" x2="85.2465" y2="47.5821" gradientUnits="userSpaceOnUse">
<stop stop-color="#87D5ED"/>
<stop offset="1" stop-color="white"/>
</linearGradient>
<linearGradient id="paint4_linear_123_38424" x1="134.091" y1="176.374" x2="94.1456" y2="136.429" gradientUnits="userSpaceOnUse">
<stop stop-color="#850534"/>
<stop offset="1" stop-color="#FF4345"/>
</linearGradient>
<linearGradient id="paint5_linear_123_38424" x1="120.885" y1="182.633" x2="86.3886" y2="148.137" gradientUnits="userSpaceOnUse">
<stop stop-color="#CC0A34"/>
<stop offset="1" stop-color="#FF8A5C"/>
</linearGradient>
<linearGradient id="paint6_linear_123_38424" x1="136.921" y1="179.205" x2="131.827" y2="174.11" gradientUnits="userSpaceOnUse">
<stop stop-color="#FF9838"/>
<stop offset="1" stop-color="#FFF28F"/>
</linearGradient>
<linearGradient id="paint7_linear_123_38424" x1="176.371" y1="134.094" x2="136.426" y2="94.1493" gradientUnits="userSpaceOnUse">
<stop stop-color="#850534"/>
<stop offset="1" stop-color="#FF4345"/>
</linearGradient>
<linearGradient id="paint8_linear_123_38424" x1="182.63" y1="120.889" x2="148.134" y2="86.3921" gradientUnits="userSpaceOnUse">
<stop stop-color="#CC0A34"/>
<stop offset="1" stop-color="#FF8A5C"/>
</linearGradient>
<linearGradient id="paint9_linear_123_38424" x1="179.201" y1="136.925" x2="174.107" y2="131.83" gradientUnits="userSpaceOnUse">
<stop stop-color="#FF9838"/>
<stop offset="1" stop-color="#FFF28F"/>
</linearGradient>
<linearGradient id="paint10_linear_123_38424" x1="153.479" y1="153.482" x2="86.0217" y2="86.0252" gradientUnits="userSpaceOnUse">
<stop stop-color="#276B9C"/>
<stop offset="1" stop-color="#EBF9FF"/>
</linearGradient>
<linearGradient id="paint11_linear_123_38424" x1="140.614" y1="140.618" x2="86.5543" y2="86.5578" gradientUnits="userSpaceOnUse">
<stop stop-color="#87D5ED"/>
<stop offset="1" stop-color="white"/>
</linearGradient>
<linearGradient id="paint12_linear_123_38424" x1="146.065" y1="146.068" x2="37.8714" y2="37.8749" gradientUnits="userSpaceOnUse">
<stop stop-color="#276B9C"/>
<stop offset="1" stop-color="#EBF9FF"/>
</linearGradient>
<linearGradient id="paint13_linear_123_38424" x1="134.011" y1="134.014" x2="37.8715" y2="37.8748" gradientUnits="userSpaceOnUse">
<stop stop-color="#87D5ED"/>
<stop offset="1" stop-color="white"/>
</linearGradient>
<linearGradient id="paint14_linear_123_38424" x1="61.5856" y1="61.5888" x2="54.4522" y2="54.4554" gradientUnits="userSpaceOnUse">
<stop stop-color="#0F3B61"/>
<stop offset="1" stop-color="#42B2CC"/>
</linearGradient>
<linearGradient id="paint15_linear_123_38424" x1="143.927" y1="143.93" x2="78.9851" y2="78.9881" gradientUnits="userSpaceOnUse">
<stop stop-color="#87D5ED"/>
<stop offset="1" stop-color="white"/>
</linearGradient>
<linearGradient id="paint16_linear_123_38424" x1="98.3199" y1="98.3232" x2="91.1867" y2="91.19" gradientUnits="userSpaceOnUse">
<stop stop-color="#0F3B61"/>
<stop offset="1" stop-color="#42B2CC"/>
</linearGradient>
<linearGradient id="paint17_linear_123_38424" x1="163.16" y1="163.163" x2="123.214" y2="123.218" gradientUnits="userSpaceOnUse">
<stop stop-color="#850534"/>
<stop offset="1" stop-color="#FF4345"/>
</linearGradient>
<linearGradient id="paint18_linear_123_38424" x1="158.205" y1="158.209" x2="123.214" y2="123.218" gradientUnits="userSpaceOnUse">
<stop stop-color="#CC0A34"/>
<stop offset="1" stop-color="#FF8A5C"/>
</linearGradient>
<linearGradient id="paint19_linear_123_38424" x1="165.99" y1="165.993" x2="160.896" y2="160.899" gradientUnits="userSpaceOnUse">
<stop stop-color="#FF9838"/>
<stop offset="1" stop-color="#FFF28F"/>
</linearGradient>
<linearGradient id="paint20_linear_123_38424" x1="221.822" y1="221.826" x2="174.528" y2="174.532" gradientUnits="userSpaceOnUse">
<stop stop-color="#CC0A34"/>
<stop offset="1" stop-color="#FF8A5C"/>
</linearGradient>
<linearGradient id="paint21_linear_123_38424" x1="208.81" y1="207.272" x2="175.299" y2="173.762" gradientUnits="userSpaceOnUse">
<stop stop-color="#FF9838"/>
<stop offset="1" stop-color="#FFF28F"/>
</linearGradient>
<linearGradient id="paint22_linear_123_38424" x1="170.803" y1="223.156" x2="135.86" y2="188.213" gradientUnits="userSpaceOnUse">
<stop stop-color="#CC0A34"/>
<stop offset="1" stop-color="#FF8A5C"/>
</linearGradient>
<linearGradient id="paint23_linear_123_38424" x1="160.051" y1="213.542" x2="135.291" y2="188.782" gradientUnits="userSpaceOnUse">
<stop stop-color="#FF9838"/>
<stop offset="1" stop-color="#FFF28F"/>
</linearGradient>
<linearGradient id="paint24_linear_123_38424" x1="223.153" y1="170.806" x2="188.21" y2="135.863" gradientUnits="userSpaceOnUse">
<stop stop-color="#CC0A34"/>
<stop offset="1" stop-color="#FF8A5C"/>
</linearGradient>
<linearGradient id="paint25_linear_123_38424" x1="213.539" y1="160.054" x2="188.779" y2="135.294" gradientUnits="userSpaceOnUse">
<stop stop-color="#FF9838"/>
<stop offset="1" stop-color="#FFF28F"/>
</linearGradient>
</defs>
</svg>
