
<svg width="26" height="24" viewBox="0 0 47 46" fill="none" xmlns="http://www.w3.org/2000/svg">
<ellipse cx="23.5" cy="23" rx="23.5" ry="23" fill="#FD5D07"/>
<path d="M14.1667 13H32.8333C33.1428 13 33.4395 13.1054 33.6583 13.2929C33.8771 13.4804 34 13.7348 34 14V18C34 18.2652 33.8771 18.5196 33.6583 18.7071C33.4395 18.8946 33.1428 19 32.8333 19H14.1667C13.8572 19 13.5605 18.8946 13.3417 18.7071C13.1229 18.5196 13 18.2652 13 18V14C13 13.7348 13.1229 13.4804 13.3417 13.2929C13.5605 13.1054 13.8572 13 14.1667 13ZM14.1667 21H32.8333C33.1428 21 33.4395 21.1054 33.6583 21.2929C33.8771 21.4804 34 21.7348 34 22V26C34 26.2652 33.8771 26.5196 33.6583 26.7071C33.4395 26.8946 33.1428 27 32.8333 27H14.1667C13.8572 27 13.5605 26.8946 13.3417 26.7071C13.1229 26.5196 13 26.2652 13 26V22C13 21.7348 13.1229 21.4804 13.3417 21.2929C13.5605 21.1054 13.8572 21 14.1667 21ZM14.1667 29H32.8333C33.1428 29 33.4395 29.1054 33.6583 29.2929C33.8771 29.4804 34 29.7348 34 30V34C34 34.2652 33.8771 34.5196 33.6583 34.7071C33.4395 34.8946 33.1428 35 32.8333 35H14.1667C13.8572 35 13.5605 34.8946 13.3417 34.7071C13.1229 34.5196 13 34.2652 13 34V30C13 29.7348 13.1229 29.4804 13.3417 29.2929C13.5605 29.1054 13.8572 29 14.1667 29ZM20 17H21.1667V15H20V17ZM20 25H21.1667V23H20V25ZM20 33H21.1667V31H20V33ZM15.3333 15V17H17.6667V15H15.3333ZM15.3333 23V25H17.6667V23H15.3333ZM15.3333 31V33H17.6667V31H15.3333Z" fill="white"/>
<path d="M33.573 19.7333C33.2974 19.3255 32.9068 19.021 32.4574 18.8638L28.2642 17.385C26.7907 16.8717 25.2008 16.8717 23.7273 17.385L19.5418 18.8629C19.0928 19.0222 18.7023 19.3271 18.4257 19.7344C18.149 20.1418 18.0001 20.631 18 21.133V25.9007C17.9995 27.1872 18.3072 28.4528 18.8942 29.5788C19.4812 30.7047 20.3283 31.6542 21.356 32.3382L24.8021 34.6433C25.1629 34.8766 25.5774 35 26 35C26.4226 35 26.8371 34.8766 27.1979 34.6433L30.6448 32.3382C31.6724 31.6541 32.5194 30.7046 33.1062 29.5786C33.6931 28.4527 34.0006 27.1871 34 25.9007V21.1339C34.0007 20.6311 33.8507 20.1409 33.573 19.7333ZM28.9137 25.997H23.088C22.8704 25.997 22.6616 25.9054 22.5078 25.7422C22.3539 25.5791 22.2674 25.3578 22.2674 25.1271C22.2674 24.8964 22.3539 24.6751 22.5078 24.512C22.6616 24.3488 22.8704 24.2572 23.088 24.2572H28.9137C29.1268 24.2644 29.3288 24.3593 29.4771 24.5216C29.6254 24.684 29.7083 24.9011 29.7083 25.1271C29.7083 25.3531 29.6254 25.5702 29.4771 25.7326C29.3288 25.8949 29.1268 25.9898 28.9137 25.997Z" fill="#D9D9D9"/>
</svg>
