<svg width="26" height="24" viewBox="0 0 47 46" fill="none" xmlns="http://www.w3.org/2000/svg">
    <ellipse cx="23.5" cy="23" rx="23.5" ry="23" fill="#FD5D07"/>
    <g clip-path="url(#clip0_0_1)">
        <path d="M31.1649 19C31.0968 18.993 31.0281 18.993 30.9599 19H16.9599C16.8702 19.0014 16.7811 19.0149 16.6949 19.04L23.9199 26.235L31.1649 19Z" fill="white"/>
        <path d="M31.905 19.695L24.625 26.945C24.4376 27.1313 24.1842 27.2358 23.92 27.2358C23.6558 27.2358 23.4023 27.1313 23.215 26.945L16 19.75C15.9778 19.8315 15.966 19.9155 15.965 20V30C15.965 30.2652 16.0703 30.5196 16.2579 30.7071C16.4454 30.8947 16.6997 31 16.965 31H30.965C31.2302 31 31.4845 30.8947 31.6721 30.7071C31.8596 30.5196 31.965 30.2652 31.965 30V20C31.961 19.8958 31.9407 19.7929 31.905 19.695ZM17.65 30H16.955V29.285L20.59 25.68L21.295 26.385L17.65 30ZM30.955 30H30.255L26.61 26.385L27.315 25.68L30.95 29.285L30.955 30Z" fill="white"/>
    </g>
    <defs>
        <clipPath id="clip0_0_1">
            <rect width="18" height="18" fill="white" transform="translate(15 16)"/>
        </clipPath>
    </defs>
</svg>
