<svg width="26" height="26" viewBox="0 0 47 46" fill="none" xmlns="http://www.w3.org/2000/svg">
    <ellipse cx="23.5" cy="23" rx="23.5" ry="23" fill="#FD5D07"/>
    <path d="M12.75 28.8125C12.7506 29.3842 12.9879 29.9323 13.4097 30.3365C13.8315 30.7408 14.4035 30.9682 15 30.9688H21.2756L21.0881 32.4062H18.75C18.5511 32.4062 18.3603 32.482 18.2197 32.6168C18.079 32.7516 18 32.9344 18 33.125C18 33.3156 18.079 33.4984 18.2197 33.6332C18.3603 33.768 18.5511 33.8438 18.75 33.8438H29.25C29.4489 33.8438 29.6397 33.768 29.7803 33.6332C29.921 33.4984 30 33.3156 30 33.125C30 32.9344 29.921 32.7516 29.7803 32.6168C29.6397 32.482 29.4489 32.4062 29.25 32.4062H26.9119L26.7244 30.9688H33C33.5965 30.9682 34.1685 30.7408 34.5903 30.3365C35.0121 29.9323 35.2494 29.3842 35.25 28.8125V26.6562H12.75V28.8125ZM24 28.0938C24.1483 28.0938 24.2933 28.1359 24.4167 28.2149C24.54 28.2939 24.6361 28.4061 24.6929 28.5374C24.7497 28.6688 24.7645 28.8133 24.7356 28.9527C24.7067 29.0921 24.6352 29.2202 24.5303 29.3207C24.4254 29.4213 24.2918 29.4897 24.1463 29.5174C24.0008 29.5452 23.85 29.5309 23.713 29.4765C23.5759 29.4221 23.4588 29.33 23.3764 29.2118C23.294 29.0936 23.25 28.9547 23.25 28.8125C23.25 28.6219 23.329 28.4391 23.4697 28.3043C23.6103 28.1695 23.8011 28.0938 24 28.0938ZM35.25 17.3125C35.2494 16.7408 35.0121 16.1927 34.5903 15.7885C34.1685 15.3842 33.5965 15.1568 33 15.1562H15C14.4035 15.1568 13.8315 15.3842 13.4097 15.7885C12.9879 16.1927 12.7506 16.7408 12.75 17.3125V25.9375H35.25V17.3125Z" fill="#FFE5E5"/>
</svg>
