<svg width="26" height="24" viewBox="0 0 60 59" fill="none" xmlns="http://www.w3.org/2000/svg">
    <ellipse cx="30" cy="29.5" rx="30" ry="29.5" fill="#FD5D07"/>
    <g clip-path="url(#clip0_0_1)">
        <path d="M31.5 17.6277C24.1625 17.6277 18.2125 23.3918 18.2125 30.5C18.2125 37.6082 24.1625 43.3723 31.5 43.3723C38.8375 43.3723 44.7875 37.6082 44.7875 30.5C44.7875 23.3918 38.8375 17.6277 31.5 17.6277ZM25.4125 25.6744C25.4125 22.423 28.1437 19.7771 31.5 19.7771C34.8563 19.7771 37.5875 22.423 37.5875 25.6744V27.285C37.5875 27.5877 37.3438 27.8238 37.0312 27.8238H35.925C35.6125 27.8238 35.3687 27.5877 35.3687 27.285V25.6744C35.3687 20.7035 27.6187 20.7035 27.6187 25.6744V27.285C27.6187 27.5877 27.375 27.8238 27.0625 27.8238H25.9563C25.6438 27.8238 25.4 27.5877 25.4 27.285V25.6744H25.4125ZM40.3563 38.0078C40.3563 38.5951 39.8562 39.0795 39.25 39.0795H23.75C23.1438 39.0795 22.6438 38.5951 22.6438 38.0078V29.4283C22.6438 28.841 23.1438 28.3566 23.75 28.3566H39.25C39.8562 28.3566 40.3563 28.841 40.3563 29.4283V38.0078ZM24.8562 29.6947V37.7414C24.8562 37.8928 24.7375 38.0078 24.5813 38.0078H24.025C23.8687 38.0078 23.75 37.8928 23.75 37.7414V29.6947C23.75 29.5434 23.8687 29.4283 24.025 29.4283H24.5813C24.7375 29.4283 24.8562 29.5434 24.8562 29.6947ZM33.7125 32.6434C33.7125 33.4305 33.2625 34.1207 32.6063 34.484V36.3973C32.6063 36.7 32.3625 36.9361 32.05 36.9361H30.9438C30.6313 36.9361 30.3875 36.7 30.3875 36.3973V34.484C29.7312 34.1146 29.2812 33.4305 29.2812 32.6434C29.2812 31.4506 30.2687 30.5 31.4937 30.5C32.7187 30.5 33.7125 31.4566 33.7125 32.6434ZM31.5 15.4844C22.9375 15.4844 16 22.2051 16 30.5C16 38.7949 22.9375 45.5156 31.5 45.5156C40.0625 45.5156 47 38.7949 47 30.5C47 22.2051 40.0625 15.4844 31.5 15.4844ZM31.5 44.4439C23.5625 44.4439 17.1063 38.1895 17.1063 30.5C17.1063 22.8105 23.5625 16.5561 31.5 16.5561C39.4375 16.5561 45.8937 22.8105 45.8937 30.5C45.8937 38.1895 39.4375 44.4439 31.5 44.4439Z" fill="white"/>
    </g>
    <defs>
        <clipPath id="clip0_0_1">
            <rect width="31" height="31" fill="white" transform="translate(16 15)"/>
        </clipPath>
    </defs>
</svg>
