<svg width="26" height="24" viewBox="0 0 47 46" fill="none" xmlns="http://www.w3.org/2000/svg">
    <path d="M47 23C47 35.7025 36.4787 46 23.5 46C10.5213 46 0 35.7025 0 23C0 10.2975 10.5213 0 23.5 0C36.4787 0 47 10.2975 47 23Z" fill="#FD5D07"/>
    <path d="M29 34C30.103 34 31 33.103 31 32V16C31 14.897 30.103 14 29 14H19C17.897 14 17 14.897 17 16V32C17 33.103 17.897 34 19 34H29ZM24 29C24.2652 29 24.5196 29.1054 24.7071 29.2929C24.8946 29.4804 25 29.7348 25 30C25 30.2652 24.8946 30.5196 24.7071 30.7071C24.5196 30.8946 24.2652 31 24 31C23.7348 31 23.4804 30.8946 23.2929 30.7071C23.1054 30.5196 23 30.2652 23 30C23 29.7348 23.1054 29.4804 23.2929 29.2929C23.4804 29.1054 23.7348 29 24 29Z" fill="white"/>
</svg>
