<svg width="58" height="57" viewBox="0 0 58 57" fill="none" xmlns="http://www.w3.org/2000/svg">
<path d="M7.50916 38.582C6.22734 38.582 5.18188 39.6275 5.18188 40.9093V47.3729C5.18188 48.6548 6.22734 49.7002 7.50916 49.7002H20.7728C22.0546 49.7002 23.1001 48.6548 23.1001 47.3729V40.9093C23.1001 39.6275 22.0546 38.582 20.7728 38.582H7.50916ZM21.7819 40.9093V47.3729C21.7819 47.9275 21.3364 48.3729 20.7819 48.3729H7.50916C6.95461 48.3729 6.50916 47.9275 6.50916 47.3729V40.9093C6.50916 40.3548 6.95461 39.9093 7.50916 39.9093H20.7728C21.3273 39.9093 21.7819 40.3548 21.7819 40.9093Z" fill="#001233"/>
<path d="M13.1273 54.7728H15.1636C15.5273 54.7728 15.8273 54.4728 15.8273 54.1092C15.8273 53.7456 15.5273 53.4456 15.1636 53.4456H13.1273C12.7636 53.4456 12.4636 53.7456 12.4636 54.1092C12.4636 54.4728 12.7636 54.7728 13.1273 54.7728Z" fill="#001233"/>
<path d="M56.2818 51.2092H55.8909V39.7001C55.8909 37.5183 54.1181 35.7456 51.9363 35.7456H45.7363V33.1638C45.7363 31.2274 44.1636 29.6547 42.2272 29.6547H32.0727C30.8727 29.6547 29.8909 28.6728 29.8909 27.4728V25.3456C36.2272 25.0456 42.1545 23.7365 42.1545 21.2638V5.14557V4.89103C42.1545 4.73648 42.0909 4.60921 41.9909 4.49102C40.8909 2.09102 33.709 0.981934 26.9818 0.981934C19.6818 0.981934 11.8181 2.28193 11.8181 5.13648V21.2547C11.8181 23.7274 17.7454 25.0365 24.0818 25.3365V27.4638C24.0818 28.6638 23.1 29.6456 21.9 29.6456H11.7363C9.79995 29.6456 8.22722 31.2183 8.22722 33.1547V35.7365H6.06359C3.88177 35.7365 2.10904 37.5092 2.10904 39.691V51.2001H1.71813C1.1545 51.2001 0.699951 51.6547 0.699951 52.2183V53.3001C0.699951 55.3365 2.36359 57.0001 4.39995 57.0001H23.8909C25.9272 57.0001 27.5909 55.3365 27.5909 53.3001V52.2183C27.5909 51.6547 27.1363 51.2001 26.5727 51.2001H26.1818V39.7001C26.1818 37.5183 24.409 35.7456 22.2272 35.7456H9.5545V33.1638C9.5545 31.9638 10.5363 30.9819 11.7363 30.9819H21.8909C23.8272 30.9819 25.4 29.4092 25.4 27.4728V25.391C25.9272 25.4001 26.4545 25.4092 26.9727 25.4092C27.5 25.4092 28.0272 25.4001 28.5545 25.391V27.4728C28.5545 29.4092 30.1272 30.9819 32.0636 30.9819H42.2181C43.4272 30.9819 44.3999 31.9638 44.3999 33.1638V35.7456H35.7636C33.5818 35.7456 31.809 37.5183 31.809 39.7001V51.2092H31.4181C30.8545 51.2092 30.4 51.6638 30.4 52.2274V53.3092C30.4 55.3456 32.0636 57.0092 34.1 57.0092H53.5909C55.6272 57.0092 57.2909 55.3456 57.2909 53.3092V52.2274C57.3 51.6638 56.8454 51.2092 56.2818 51.2092ZM26.2636 53.3092C26.2636 54.6183 25.1999 55.6819 23.8909 55.6819H4.39995C3.09086 55.6819 2.02722 54.6183 2.02722 53.3092V52.5365H26.2727V53.3092H26.2636ZM24.8545 39.7001V51.2092H3.43631V39.7001C3.43631 38.2547 4.61813 37.0728 6.06359 37.0728H8.89086H22.2272C23.6818 37.0728 24.8545 38.2456 24.8545 39.7001ZM13.1454 6.98193C15.6909 8.55466 21.4909 9.29103 26.9818 9.29103C32.4727 9.29103 38.2818 8.55466 40.8272 6.98193V13.1638C40.8272 14.1183 35.9454 15.991 26.9818 15.991C18.0272 15.991 13.1454 14.1274 13.1454 13.1638V6.98193ZM26.9818 2.3183C35.9363 2.3183 40.8181 4.18193 40.8181 5.14557C40.8181 6.10012 35.9363 7.97284 26.9727 7.97284C18.0181 7.97284 13.1363 6.10921 13.1363 5.14557C13.1454 4.18193 18.0272 2.3183 26.9818 2.3183ZM13.1454 21.2638V15.0001C15.6909 16.5728 21.4909 17.3092 26.9818 17.3092C32.4727 17.3092 38.2818 16.5728 40.8272 15.0001V21.2547C40.8272 22.2092 35.9454 24.0819 26.9818 24.0819C18.0272 24.0819 13.1454 22.2183 13.1454 21.2638ZM33.1454 39.7001C33.1454 38.2547 34.3272 37.0728 35.7727 37.0728H45.0727H51.9363C53.3818 37.0728 54.5636 38.2547 54.5636 39.7001V51.2092H33.1454V39.7001ZM55.9818 53.3092C55.9818 54.6183 54.9181 55.6819 53.609 55.6819H34.109C32.7999 55.6819 31.7363 54.6183 31.7363 53.3092V52.5365H55.9818V53.3092Z" fill="#001233"/>
<path d="M50.4909 38.582H37.2181C35.9363 38.582 34.8909 39.6275 34.8909 40.9093V47.3729C34.8909 48.6548 35.9363 49.7002 37.2181 49.7002H50.4818C51.7636 49.7002 52.8091 48.6548 52.8091 47.3729V40.9093C52.8091 39.6275 51.7727 38.582 50.4909 38.582ZM51.4909 47.3729C51.4909 47.9275 51.0454 48.3729 50.4909 48.3729H37.2181C36.6636 48.3729 36.2181 47.9275 36.2181 47.3729V40.9093C36.2181 40.3548 36.6636 39.9093 37.2181 39.9093H50.4818C51.0363 39.9093 51.4818 40.3548 51.4818 40.9093V47.3729H51.4909Z" fill="#001233"/>
<path d="M42.8362 54.7728H44.8726C45.2362 54.7728 45.5362 54.4728 45.5362 54.1092C45.5362 53.7456 45.2362 53.4456 44.8726 53.4456H42.8362C42.4726 53.4456 42.1726 53.7456 42.1726 54.1092C42.1726 54.4728 42.4726 54.7728 42.8362 54.7728Z" fill="#001233"/>
<path d="M16.6546 13.8093C17.9364 13.8093 18.9728 12.7729 18.9728 11.4911C18.9728 10.2093 17.9364 9.16382 16.6546 9.16382C15.3728 9.16382 14.3364 10.2093 14.3364 11.4911C14.3455 12.7638 15.3819 13.8093 16.6546 13.8093ZM16.6546 10.482C17.2092 10.482 17.6455 10.9184 17.6455 11.482C17.6455 12.0275 17.2001 12.4729 16.6546 12.4729C16.1092 12.4729 15.6637 12.0275 15.6637 11.482C15.6637 10.9365 16.1092 10.482 16.6546 10.482Z" fill="#001233"/>
<path d="M16.6546 17.6091C15.3728 17.6091 14.3364 18.6546 14.3364 19.9364C14.3364 21.2182 15.3728 22.2546 16.6546 22.2546C17.9364 22.2546 18.9728 21.2182 18.9728 19.9364C18.9819 18.6546 17.9364 17.6091 16.6546 17.6091ZM16.6546 20.9364C16.1092 20.9364 15.6637 20.491 15.6637 19.9455C15.6637 19.391 16.1092 18.9455 16.6546 18.9455C17.2092 18.9455 17.6455 19.3819 17.6455 19.9455C17.6546 20.491 17.2092 20.9364 16.6546 20.9364Z" fill="#001233"/>
</svg>
