<svg width="58" height="58" viewBox="0 0 58 58" fill="none" xmlns="http://www.w3.org/2000/svg">
<path d="M45.9184 53.0989C45.9184 53.4121 45.6632 53.6615 45.35 53.6615H31.8882C31.5692 53.6615 31.3198 53.4121 31.3198 53.0989V53.0931C31.3256 52.7741 31.5692 52.5305 31.8882 52.5305H45.35C45.6632 52.5305 45.9184 52.7799 45.9184 53.0989Z" fill="#001233"/>
<path d="M26.1142 53.6642H12.6518C12.3381 53.6642 12.0837 53.4101 12.0837 53.0961C12.0837 52.7821 12.3381 52.5281 12.6518 52.5281H26.1142C26.4279 52.5281 26.6822 52.7821 26.6822 53.0961C26.6822 53.4101 26.4279 53.6642 26.1142 53.6642Z" fill="#001233"/>
<path d="M29.5682 45.7271V50.2047C29.5682 50.5179 29.313 50.7731 28.9998 50.7731C28.6866 50.7731 28.4314 50.5179 28.4314 50.2047V45.7271C28.4314 45.4139 28.6866 45.1587 28.9998 45.1587C29.313 45.1587 29.5682 45.4139 29.5682 45.7271Z" fill="#001233"/>
<path d="M32.4104 52.5305C32.1726 51.0805 31.0242 49.9262 29.5684 49.6884C29.3828 49.6536 29.1914 49.6362 29 49.6362C28.8086 49.6362 28.6172 49.6536 28.4316 49.6884C26.9758 49.9262 25.8274 51.0805 25.5896 52.5305C25.5606 52.7161 25.5432 52.9016 25.5432 53.093C25.5432 53.2845 25.5606 53.4759 25.5954 53.6614C25.8622 55.3028 27.2832 56.5499 29 56.5499C30.7168 56.5499 32.1378 55.3028 32.4046 53.6614C32.4394 53.4759 32.4568 53.2845 32.4568 53.093C32.4568 52.9016 32.4394 52.7161 32.4104 52.5305ZM29 55.413C27.7182 55.413 26.6858 54.3807 26.68 53.0988V53.093C26.68 51.8112 27.7182 50.773 29 50.773C30.2818 50.773 31.32 51.8112 31.32 53.093V53.0988C31.3142 54.3807 30.2818 55.413 29 55.413Z" fill="#001233"/>
<path d="M8.47369 11.861V15.2539C11.3447 19.3777 19.3371 22.2719 28.9999 22.2719V21.1352C17.6841 21.1352 8.47369 16.9765 8.47369 11.861ZM8.47369 11.861V15.2539C11.3447 19.3777 19.3371 22.2719 28.9999 22.2719V21.1352C17.6841 21.1352 8.47369 16.9765 8.47369 11.861ZM8.47369 11.861V15.2539C11.3447 19.3777 19.3371 22.2719 28.9999 22.2719V21.1352C17.6841 21.1352 8.47369 16.9765 8.47369 11.861ZM28.9999 1.44995C16.8547 1.44995 7.33691 6.02035 7.33691 11.861C7.33691 13.0558 7.73712 14.1983 8.47369 15.2539C11.3447 19.3777 19.3371 22.2719 28.9999 22.2719C38.6627 22.2719 46.6551 19.3777 49.5261 15.2539C50.2627 14.1983 50.6629 13.0558 50.6629 11.861C50.6629 6.02035 41.1451 1.44995 28.9999 1.44995ZM28.9999 21.1352C17.6841 21.1352 8.47369 16.9765 8.47369 11.861C8.47369 6.74535 17.6841 2.58673 28.9999 2.58673C40.3157 2.58673 49.5261 6.74535 49.5261 11.861C49.5261 16.9765 40.3157 21.1352 28.9999 21.1352ZM8.47369 11.861V15.2539C11.3447 19.3777 19.3371 22.2719 28.9999 22.2719V21.1352C17.6841 21.1352 8.47369 16.9765 8.47369 11.861ZM8.47369 11.861V15.2539C11.3447 19.3777 19.3371 22.2719 28.9999 22.2719V21.1352C17.6841 21.1352 8.47369 16.9765 8.47369 11.861Z" fill="#001233"/>
<path d="M22.142 27.7473C22.1123 27.7473 22.0818 27.7451 22.0513 27.7401C17.8756 27.07 14.2768 25.8263 11.6443 24.1432C11.38 23.974 11.3026 23.6229 11.4715 23.3583C11.641 23.0942 11.9919 23.0177 12.2562 23.1858C14.7586 24.7856 18.2081 25.9727 22.2316 26.6184C22.5411 26.6683 22.7519 26.9596 22.7023 27.2691C22.6576 27.5487 22.4163 27.7473 22.142 27.7473Z" fill="#001233"/>
<path d="M50.6629 11.8609V23.8727C50.6629 25.0675 50.2627 26.2101 49.5261 27.2715C46.6551 31.3895 38.6627 34.2837 28.9999 34.2837C19.3371 34.2837 11.3447 31.3895 8.47369 27.2715C7.73712 26.2101 7.33691 25.0675 7.33691 23.8727V11.8609C7.33691 11.5477 7.59212 11.2925 7.9053 11.2925C8.21853 11.2925 8.47369 11.5477 8.47369 11.8609V23.8727C8.47369 28.9883 17.6841 33.1469 28.9999 33.1469C40.3157 33.1469 49.5261 28.9883 49.5261 23.8727V11.8609C49.5261 11.5477 49.7813 11.2925 50.0945 11.2925C50.4077 11.2925 50.6629 11.5477 50.6629 11.8609Z" fill="#001233"/>
<path d="M46.597 22.1443V24.6267C46.597 24.9457 46.3418 25.1951 46.0286 25.1951C45.7154 25.1951 45.4602 24.9457 45.4602 24.6267V22.1443C45.4602 21.8311 45.7154 21.5759 46.0286 21.5759C46.3418 21.5759 46.597 21.8311 46.597 22.1443Z" fill="#001233"/>
<path d="M42.5661 23.8728V26.3552C42.5661 26.6684 42.3167 26.9236 42.0034 26.9236C41.6845 26.9236 41.4351 26.6684 41.4351 26.3552V23.8728C41.4351 23.5596 41.6845 23.3044 42.0034 23.3044C42.3167 23.3044 42.5661 23.5596 42.5661 23.8728Z" fill="#001233"/>
<path d="M22.1422 39.7583C22.1125 39.7583 22.0822 39.7561 22.0517 39.7511C17.8757 39.0815 14.2769 37.8378 11.6445 36.1542C11.3802 35.985 11.3028 35.6339 11.472 35.3693C11.6406 35.1052 11.9929 35.0287 12.2564 35.1967C14.7587 36.7971 18.208 37.9843 22.2315 38.6294C22.5413 38.6788 22.7521 38.9706 22.7024 39.2801C22.6578 39.5597 22.4165 39.7583 22.1422 39.7583Z" fill="#001233"/>
<path d="M50.6629 23.8728V35.8846C50.6629 41.6324 41.4409 46.1507 29.5683 46.2898C29.3827 46.2957 29.1913 46.2957 28.9999 46.2957C28.8085 46.2957 28.6171 46.2957 28.4315 46.2898C16.5589 46.1507 7.33691 41.6324 7.33691 35.8846V23.8728C7.33691 23.5596 7.59212 23.3044 7.9053 23.3044C8.21853 23.3044 8.47369 23.5596 8.47369 23.8728V35.8846C8.47369 41.0002 17.6841 45.1588 28.9999 45.1588C40.3157 45.1588 49.5261 41.0002 49.5261 35.8846V23.8728C49.5261 23.5596 49.7813 23.3044 50.0945 23.3044C50.4077 23.3044 50.6629 23.5596 50.6629 23.8728Z" fill="#001233"/>
<path d="M46.597 34.1561V36.6385C46.597 36.9516 46.3418 37.2068 46.0286 37.2068C45.7154 37.2068 45.4602 36.9516 45.4602 36.6385V34.1561C45.4602 33.8428 45.7154 33.5876 46.0286 33.5876C46.3418 33.5876 46.597 33.8428 46.597 34.1561Z" fill="#001233"/>
<path d="M42.5661 35.8846V38.3669C42.5661 38.6802 42.3167 38.9354 42.0034 38.9354C41.6845 38.9354 41.4351 38.6802 41.4351 38.3669V35.8846C41.4351 35.5713 41.6845 35.3162 42.0034 35.3162C42.3167 35.3162 42.5661 35.5713 42.5661 35.8846Z" fill="#001233"/>
<path opacity="0.72" d="M42.0037 26.9236C41.6847 26.9236 41.4353 26.6684 41.4353 26.3552V23.8728C41.4353 23.5596 41.6847 23.3044 42.0037 23.3044C42.3169 23.3044 42.5663 23.5596 42.5663 23.8728V26.3552C42.5663 26.6684 42.3169 26.9236 42.0037 26.9236Z" fill="#001233"/>
<path opacity="0.72" d="M42.0037 38.9354C41.6847 38.9354 41.4353 38.6802 41.4353 38.3669V35.8846C41.4353 35.5713 41.6847 35.3162 42.0037 35.3162C42.3169 35.3162 42.5663 35.5713 42.5663 35.8846V38.3669C42.5663 38.6802 42.3169 38.9354 42.0037 38.9354Z" fill="#001233"/>
<path opacity="0.72" d="M50.663 11.861V35.8845C50.663 41.6323 41.441 46.1506 29.5684 46.2897V49.6885C31.0242 49.9263 32.1726 51.0806 32.4104 52.5306H45.3502C45.6634 52.5306 45.9186 52.7799 45.9186 53.0989C45.9186 53.4121 45.6634 53.6615 45.3502 53.6615H32.4046C32.1378 55.3029 30.7168 56.5499 29 56.5499V55.4131C30.2818 55.4131 31.3142 54.3808 31.32 53.0989V53.0931C31.32 51.8113 30.2818 50.7731 29 50.7731V45.1587C40.3158 45.1587 49.5262 41.0002 49.5262 35.8845V27.2715C46.6552 31.3895 38.6628 34.2837 29 34.2837V33.1469C40.3158 33.1469 49.5262 28.9883 49.5262 23.8727V15.2539C46.6552 19.3777 38.6628 22.2719 29 22.2719V21.1352C40.3158 21.1352 49.5262 16.9765 49.5262 11.861C49.5262 6.74535 40.3158 2.58673 29 2.58673V1.44995C41.1452 1.44995 50.663 6.02035 50.663 11.861Z" fill="#001233"/>
<path opacity="0.72" d="M46.0288 37.2071C45.7157 37.2071 45.4604 36.9519 45.4604 36.6387V34.1563C45.4604 33.8431 45.7157 33.5879 46.0288 33.5879C46.3421 33.5879 46.5973 33.8431 46.5973 34.1563V36.6387C46.5973 36.9519 46.3421 37.2071 46.0288 37.2071Z" fill="#001233"/>
<path opacity="0.72" d="M46.0288 25.1951C45.7157 25.1951 45.4604 24.9457 45.4604 24.6267V22.1443C45.4604 21.8311 45.7157 21.5759 46.0288 21.5759C46.3421 21.5759 46.5973 21.8311 46.5973 22.1443V24.6267C46.5973 24.9457 46.3421 25.1951 46.0288 25.1951Z" fill="#001233"/>
</svg>
