<svg width="59" height="53" viewBox="0 0 59 53" fill="none" xmlns="http://www.w3.org/2000/svg">
<path d="M37.1101 31.059H7.83901C3.6547 31.059 0.25 27.6544 0.25 23.4693C0.25 19.285 3.6547 15.8803 7.83901 15.8803C8.82285 15.8803 9.79057 16.0721 10.6945 16.4413C11.2719 11.77 15.265 8.14337 20.0897 8.14337C21.0078 8.14337 21.9101 8.27493 22.7829 8.53493C24.2536 3.78785 28.7272 0.433594 33.7611 0.433594C39.533 0.433594 44.3257 4.6764 45.1256 10.2803C46.1017 9.99016 47.1127 9.84365 48.1428 9.84365C53.9916 9.84365 58.7501 14.6022 58.7501 20.4514C58.7501 22.2775 58.2782 24.0781 57.3855 25.6589C57.1576 26.0653 56.644 26.2092 56.238 25.9789C55.8329 25.7502 55.6902 25.2362 55.9187 24.8313C56.669 23.5021 57.0655 21.9869 57.0655 20.4513C57.0655 15.5308 53.0629 11.5282 48.1427 11.5282C46.9577 11.5282 45.8037 11.7585 44.713 12.2134C44.4594 12.3195 44.1701 12.2948 43.9378 12.1475C43.7059 12.0003 43.5603 11.7494 43.5475 11.4748C43.3069 6.22757 39.0083 2.11813 33.7611 2.11813C29.1939 2.11813 25.1666 5.35396 24.1857 9.8131C24.1323 10.0557 23.9744 10.263 23.7539 10.3781C23.533 10.4942 23.2734 10.5073 23.0432 10.4111C22.1007 10.0243 21.1069 9.82791 20.0898 9.82791C15.7987 9.82791 12.3072 13.3187 12.3072 17.6101C12.3082 17.6241 12.316 17.7599 12.3163 17.7738C12.3225 18.0847 12.1567 18.3742 11.8857 18.5257C11.6138 18.6786 11.281 18.6679 11.0196 18.5001C10.065 17.8882 8.9652 17.5649 7.83914 17.5649C4.58355 17.5649 1.9348 20.2136 1.9348 23.4692C1.9348 26.7257 4.58355 29.3745 7.83914 29.3745H37.1103C37.5755 29.3745 37.9526 29.7512 37.9526 30.2167C37.9523 30.6824 37.5752 31.059 37.1101 31.059Z" fill="#001233"/>
<path d="M38.7948 31.0591H37.1102C36.6451 31.0591 36.2678 30.6824 36.2678 30.2168C36.2678 29.7513 36.6451 29.3745 37.1102 29.3745H38.7948C39.2599 29.3745 39.637 29.7513 39.637 30.2168C39.637 30.6824 39.2599 31.0591 38.7948 31.0591Z" fill="#001233"/>
<path d="M48.1427 31.059H45.9892C45.5241 31.059 45.147 30.6824 45.147 30.2167C45.147 29.7512 45.5241 29.3744 45.9892 29.3744H48.1427C48.582 29.3744 49.025 29.3423 49.4592 29.2781C49.9162 29.2041 50.3472 29.5282 50.4151 29.9887C50.483 30.4485 50.1646 30.8771 49.7045 30.9446C49.1889 31.0204 48.6633 31.059 48.1427 31.059Z" fill="#001233"/>
<path d="M55.7008 27.4768C55.513 27.4768 55.3241 27.4141 55.1678 27.2858C54.8076 26.9914 54.7548 26.4609 55.0494 26.1005C55.3752 25.7032 55.6676 25.2764 55.9189 24.8313C56.1477 24.426 56.6617 24.2818 57.0665 24.5114C57.4714 24.7402 57.6142 25.2542 57.3856 25.6589C57.087 26.1886 56.7399 26.6962 56.3533 27.1683C56.1865 27.3715 55.9447 27.4768 55.7008 27.4768Z" fill="#001233"/>
<path d="M14.2896 22.3293C13.9293 22.3293 13.596 22.0965 13.4846 21.7338C12.7193 19.2406 10.4507 17.565 7.8391 17.565C7.37396 17.565 6.99683 17.1883 6.99683 16.7228C6.99683 16.2572 7.37396 15.8804 7.8391 15.8804C11.1952 15.8804 14.1111 18.0338 15.0953 21.2401C15.2319 21.6844 14.9818 22.1557 14.5373 22.2922C14.4549 22.3177 14.3715 22.3293 14.2896 22.3293Z" fill="#001233"/>
<path d="M23.946 16.9177C23.6177 16.9177 23.3061 16.7251 23.1699 16.4035C22.5698 14.9863 22.2659 13.481 22.2659 11.9288C22.2659 9.58203 22.9688 7.32406 24.2987 5.40019C24.5627 5.01695 25.0863 4.92062 25.4709 5.18634C25.8535 5.45024 25.9493 5.97518 25.6847 6.35764C24.55 7.99941 23.9504 9.92588 23.9504 11.9288C23.9504 13.254 24.2099 14.5388 24.721 15.7472C24.9025 16.1756 24.7022 16.67 24.2736 16.851C24.1669 16.8964 24.0554 16.9177 23.946 16.9177Z" fill="#001233"/>
<path d="M40.1098 15.7383C39.9445 15.7383 39.7772 15.6897 39.6312 15.5886C39.2486 15.3236 39.1533 14.799 39.4185 14.4164C41.402 11.553 44.6635 9.84375 48.1425 9.84375C48.6077 9.84375 48.9849 10.2205 48.9849 10.686C48.9849 11.1515 48.6077 11.5284 48.1425 11.5284C45.2158 11.5284 42.4722 12.9662 40.803 15.3755C40.6396 15.6116 40.3767 15.7383 40.1098 15.7383Z" fill="#001233"/>
<path d="M34.352 52.5665H24.6479C23.215 52.5665 22.0491 51.4011 22.0491 49.9681V40.2644C22.0491 38.8315 23.2152 37.665 24.6479 37.665H34.352C35.7849 37.665 36.9505 38.8315 36.9505 40.2644V49.9681C36.9503 51.4011 35.7847 52.5665 34.352 52.5665ZM24.6478 39.3497C24.1435 39.3497 23.7335 39.7602 23.7335 40.2644V49.9681C23.7335 50.4724 24.1435 50.8821 24.6478 50.8821H34.3519C34.8558 50.8821 35.2657 50.4725 35.2657 49.9681V40.2644C35.2657 39.7602 34.8556 39.3497 34.3519 39.3497H24.6478Z" fill="#001233"/>
<path d="M29.4999 39.3497C29.0346 39.3497 28.6575 38.9731 28.6575 38.5074V30.2168C28.6575 29.7513 29.0346 29.3745 29.4999 29.3745C29.965 29.3745 30.3421 29.7513 30.3421 30.2168V38.5074C30.3421 38.9729 29.965 39.3497 29.4999 39.3497Z" fill="#001233"/>
<path d="M57.9076 45.9581H36.1083C35.6431 45.9581 35.2659 45.5814 35.2659 45.1158C35.2659 44.6503 35.6431 44.2734 36.1083 44.2734H57.9076C58.3727 44.2734 58.75 44.6503 58.75 45.1158C58.75 45.5814 58.3727 45.9581 57.9076 45.9581Z" fill="#001233"/>
<path d="M22.8913 45.9581H1.0924C0.62726 45.9581 0.25 45.5814 0.25 45.1158C0.25 44.6503 0.62726 44.2734 1.0924 44.2734H22.8913C23.3566 44.2734 23.7337 44.6503 23.7337 45.1158C23.7337 45.5814 23.3566 45.9581 22.8913 45.9581Z" fill="#001233"/>
<path d="M29.4999 49.3495C27.1654 49.3495 25.2666 47.45 25.2666 45.1157C25.2666 44.6502 25.6437 44.2733 26.1089 44.2733C26.574 44.2733 26.9513 44.6502 26.9513 45.1157C26.9513 46.5214 28.0946 47.6649 29.4999 47.6649C30.9056 47.6649 32.049 46.5214 32.049 45.1157C32.049 43.7108 30.9056 42.5675 29.4999 42.5675C29.0347 42.5675 28.6575 42.1906 28.6575 41.7251C28.6575 41.2596 29.0347 40.8828 29.4999 40.8828C31.8343 40.8828 33.7335 42.7812 33.7335 45.1157C33.7335 47.4502 31.8343 49.3495 29.4999 49.3495Z" fill="#001233"/>
</svg>
