<svg width="57" height="57" viewBox="0 0 57 57" fill="none" xmlns="http://www.w3.org/2000/svg">
<g clip-path="url(#clip0_85_1156)">
<path d="M25.709 7.40112H16.0279C15.5325 7.40112 15.1306 7.80302 15.1306 8.29843C15.1306 8.79384 15.5325 9.19573 16.0279 9.19573H25.709C26.2044 9.19573 26.6063 8.79384 26.6063 8.29843C26.6074 7.80302 26.2055 7.40112 25.709 7.40112Z" fill="#001233"/>
<path d="M25.709 13.8948H16.0279C15.5325 13.8948 15.1306 14.2967 15.1306 14.7921C15.1306 15.2875 15.5325 15.6894 16.0279 15.6894H25.709C26.2044 15.6894 26.6063 15.2875 26.6063 14.7921C26.6074 14.2967 26.2055 13.8948 25.709 13.8948Z" fill="#001233"/>
<path d="M25.8069 49.1492H31.1941V43.7632H25.8069V49.1492ZM27.6026 45.5589H29.3983V47.3546H27.6026V45.5589Z" fill="#001233"/>
<path d="M10.5439 2.46369H31.193V21.3182C31.193 21.8136 31.5949 22.2155 32.0903 22.2155C32.5857 22.2155 32.9876 21.8136 32.9876 21.3182V0.667969H9.27475L0.667969 9.27474V11.4423H10.5439V2.46369ZM8.74816 9.64658H2.83553L8.74816 3.73395V9.64658Z" fill="#001233"/>
<path d="M6.49377 40.1717H2.46369V19.0728C2.46369 18.5774 2.0618 18.1755 1.56639 18.1755C1.07098 18.1755 0.667969 18.5774 0.667969 19.0728V41.9675H6.49377C6.98918 41.9675 7.39107 41.5656 7.39107 41.0702C7.39219 40.5736 6.99029 40.1717 6.49377 40.1717Z" fill="#001233"/>
<path d="M26.6074 23.1129C26.6074 22.6175 26.2055 22.2156 25.7101 22.2156H6.95239V32.9409C6.95239 33.4363 7.35429 33.8382 7.8497 33.8382C8.34511 33.8382 8.747 33.4363 8.747 32.9409V24.0102H25.7078C26.2055 24.0113 26.6074 23.6094 26.6074 23.1129Z" fill="#001233"/>
<path d="M40.1717 36.5802H36.5802V32.0915C36.5802 30.6041 35.3745 29.3984 33.8872 29.3984H23.114C21.6266 29.3984 20.4209 30.6041 20.4209 32.0915V36.5802H16.8295C15.3422 36.5802 14.1365 37.7859 14.1365 39.2732V53.6379C14.1365 55.1253 15.3422 56.3309 16.8295 56.3309H40.1728C41.6601 56.3309 42.8658 55.1253 42.8658 53.6379V39.2732C42.8647 37.7859 41.659 36.5802 40.1717 36.5802ZM22.2156 32.0915C22.2156 31.5961 22.6175 31.1942 23.1129 31.1942H33.8861C34.3815 31.1942 34.7834 31.5961 34.7834 32.0915V36.5802H22.2144V32.0915H22.2156ZM41.069 53.639C41.069 54.1344 40.6671 54.5363 40.1717 54.5363H16.8284C16.333 54.5363 15.9311 54.1344 15.9311 53.639V39.2732C15.9311 38.7778 16.333 38.3759 16.8284 38.3759H17.7257V41.069C17.7257 41.5644 18.1276 41.9663 18.623 41.9663C19.1184 41.9663 19.5203 41.5644 19.5203 41.069V38.3759H37.4764V41.069C37.4764 41.5644 37.8783 41.9663 38.3737 41.9663C38.8691 41.9663 39.271 41.5644 39.271 41.069V38.3759H40.1683C40.6637 38.3759 41.0656 38.7778 41.0656 39.2732V53.639H41.069Z" fill="#001233"/>
<path d="M55.0507 5.56754L54.7858 5.42281C54.4362 5.25693 54.051 5.15674 53.6391 5.15674H38.5029C38.0075 5.15674 37.6056 5.55863 37.6056 6.05404C37.6056 6.54945 38.0075 6.95135 38.5029 6.95135H52.8386L42.8647 14.7877L39.0573 11.7963C38.4684 11.3332 37.6045 11.7529 37.6045 12.5022C37.6045 12.7771 37.7314 13.0377 37.9474 13.208L39.958 14.7877L37.9273 16.4799C37.7225 16.6503 37.6045 16.903 37.6045 17.1702C37.6045 17.9316 38.4929 18.348 39.0774 17.8604L41.4019 15.9233L42.8636 17.0711L44.3254 15.9233L52.9522 23.1129H38.5018C38.0064 23.1129 37.6045 23.5147 37.6045 24.0102C37.6045 24.5056 38.0064 24.9075 38.5018 24.9075H53.6369C54.0499 24.9075 54.4362 24.8073 54.7858 24.6403L55.0073 24.52C55.7955 24.0502 56.3299 23.1975 56.3299 22.2133V7.85088C56.3321 6.88455 55.8167 6.04291 55.0507 5.56754ZM54.5364 22.0931L45.7715 14.7888L54.5364 7.90209V22.0931Z" fill="#001233"/>
</g>
<defs>
<clipPath id="clip0_85_1156">
<rect width="57" height="57" fill="white"/>
</clipPath>
</defs>
</svg>
