<svg width="43" height="43" viewBox="0 0 43 43" fill="none" xmlns="http://www.w3.org/2000/svg">
<path d="M5.38181 28.6863C4.42044 28.6863 3.63635 29.4704 3.63635 30.4317V35.2795C3.63635 36.2408 4.42044 37.0249 5.38181 37.0249H15.3295C16.2909 37.0249 17.075 36.2408 17.075 35.2795V30.4317C17.075 29.4704 16.2909 28.6863 15.3295 28.6863H5.38181ZM16.0864 30.4317V35.2795C16.0864 35.6954 15.7523 36.0295 15.3364 36.0295H5.38181C4.9659 36.0295 4.63181 35.6954 4.63181 35.2795V30.4317C4.63181 30.0158 4.9659 29.6817 5.38181 29.6817H15.3295C15.7454 29.6817 16.0864 30.0158 16.0864 30.4317Z" fill="#FD5D07"/>
<path d="M9.59551 40.8294H11.1228C11.3955 40.8294 11.6205 40.6044 11.6205 40.3317C11.6205 40.059 11.3955 39.834 11.1228 39.834H9.59551C9.32278 39.834 9.09778 40.059 9.09778 40.3317C9.09778 40.6044 9.32278 40.8294 9.59551 40.8294Z" fill="#FD5D07"/>
<path d="M41.9614 38.1568H41.6682V29.525C41.6682 27.8886 40.3387 26.5591 38.7023 26.5591H34.0523V24.6227C34.0523 23.1704 32.8728 21.9909 31.4205 21.9909H23.8046C22.9046 21.9909 22.1682 21.2545 22.1682 20.3545V18.7591C26.9205 18.5341 31.3659 17.5522 31.3659 15.6977V3.60906V3.41815C31.3659 3.30224 31.3182 3.20678 31.2432 3.11815C30.4182 1.31815 25.0318 0.486328 19.9864 0.486328C14.5114 0.486328 8.61366 1.46133 8.61366 3.60224V15.6909C8.61366 17.5454 13.0591 18.5272 17.8114 18.7522V20.3477C17.8114 21.2477 17.075 21.9841 16.175 21.9841H8.5523C7.10002 21.9841 5.92048 23.1636 5.92048 24.6159V26.5522H4.29775C2.66139 26.5522 1.33184 27.8818 1.33184 29.5182V38.15H1.03866C0.615934 38.15 0.275024 38.4909 0.275024 38.9136V39.725C0.275024 41.2522 1.52275 42.5 3.05002 42.5H17.6682C19.1955 42.5 20.4432 41.2522 20.4432 39.725V38.9136C20.4432 38.4909 20.1023 38.15 19.6796 38.15H19.3864V29.525C19.3864 27.8886 18.0568 26.5591 16.4205 26.5591H6.91593V24.6227C6.91593 23.7227 7.6523 22.9863 8.5523 22.9863H16.1682C17.6205 22.9863 18.8 21.8068 18.8 20.3545V18.7931C19.1955 18.8 19.5909 18.8068 19.9796 18.8068C20.375 18.8068 20.7705 18.8 21.1659 18.7931V20.3545C21.1659 21.8068 22.3455 22.9863 23.7978 22.9863H31.4137C32.3205 22.9863 33.05 23.7227 33.05 24.6227V26.5591H26.5728C24.9364 26.5591 23.6068 27.8886 23.6068 29.525V38.1568H23.3137C22.8909 38.1568 22.55 38.4977 22.55 38.9204V39.7318C22.55 41.2591 23.7978 42.5068 25.325 42.5068H39.9432C41.4705 42.5068 42.7182 41.2591 42.7182 39.7318V38.9204C42.725 38.4977 42.3841 38.1568 41.9614 38.1568ZM19.4478 39.7318C19.4478 40.7136 18.65 41.5113 17.6682 41.5113H3.05002C2.06821 41.5113 1.27048 40.7136 1.27048 39.7318V39.1522H19.4546V39.7318H19.4478ZM18.3909 29.525V38.1568H2.3273V29.525C2.3273 28.4409 3.21366 27.5545 4.29775 27.5545H6.41821H16.4205C17.5114 27.5545 18.3909 28.4341 18.3909 29.525ZM9.60912 4.98633C11.5182 6.16587 15.8682 6.71815 19.9864 6.71815C24.1046 6.71815 28.4614 6.16587 30.3705 4.98633V9.62269C30.3705 10.3386 26.7091 11.7431 19.9864 11.7431C13.2705 11.7431 9.60912 10.3454 9.60912 9.62269V4.98633ZM19.9864 1.4886C26.7023 1.4886 30.3637 2.88633 30.3637 3.60906C30.3637 4.32497 26.7023 5.72951 19.9796 5.72951C13.2637 5.72951 9.6023 4.33178 9.6023 3.60906C9.60912 2.88633 13.2705 1.4886 19.9864 1.4886ZM9.60912 15.6977V11C11.5182 12.1795 15.8682 12.7318 19.9864 12.7318C24.1046 12.7318 28.4614 12.1795 30.3705 11V15.6909C30.3705 16.4068 26.7091 17.8113 19.9864 17.8113C13.2705 17.8113 9.60912 16.4136 9.60912 15.6977ZM24.6091 29.525C24.6091 28.4409 25.4955 27.5545 26.5796 27.5545H33.5546H38.7023C39.7864 27.5545 40.6728 28.4409 40.6728 29.525V38.1568H24.6091V29.525ZM41.7364 39.7318C41.7364 40.7136 40.9387 41.5113 39.9568 41.5113H25.3318C24.35 41.5113 23.5523 40.7136 23.5523 39.7318V39.1522H41.7364V39.7318Z" fill="#FD5D07"/>
<path d="M37.6182 28.6863H27.6637C26.7023 28.6863 25.9182 29.4704 25.9182 30.4317V35.2795C25.9182 36.2408 26.7023 37.0249 27.6637 37.0249H37.6114C38.5728 37.0249 39.3569 36.2408 39.3569 35.2795V30.4317C39.3569 29.4704 38.5796 28.6863 37.6182 28.6863ZM38.3682 35.2795C38.3682 35.6954 38.0341 36.0295 37.6182 36.0295H27.6637C27.2478 36.0295 26.9137 35.6954 26.9137 35.2795V30.4317C26.9137 30.0158 27.2478 29.6817 27.6637 29.6817H37.6114C38.0273 29.6817 38.3614 30.0158 38.3614 30.4317V35.2795H38.3682Z" fill="#FD5D07"/>
<path d="M31.8774 40.8294H33.4046C33.6774 40.8294 33.9024 40.6044 33.9024 40.3317C33.9024 40.059 33.6774 39.834 33.4046 39.834H31.8774C31.6046 39.834 31.3796 40.059 31.3796 40.3317C31.3796 40.6044 31.6046 40.8294 31.8774 40.8294Z" fill="#FD5D07"/>
<path d="M12.241 10.1069C13.2023 10.1069 13.9796 9.32962 13.9796 8.36826C13.9796 7.40689 13.2023 6.6228 12.241 6.6228C11.2796 6.6228 10.5023 7.40689 10.5023 8.36826C10.5091 9.3228 11.2864 10.1069 12.241 10.1069ZM12.241 7.61144C12.6569 7.61144 12.9841 7.93871 12.9841 8.36144C12.9841 8.77053 12.65 9.10462 12.241 9.10462C11.8319 9.10462 11.4978 8.77053 11.4978 8.36144C11.4978 7.95235 11.8319 7.61144 12.241 7.61144Z" fill="#FD5D07"/>
<path d="M12.241 12.9568C11.2796 12.9568 10.5023 13.7409 10.5023 14.7022C10.5023 15.6636 11.2796 16.4409 12.241 16.4409C13.2023 16.4409 13.9796 15.6636 13.9796 14.7022C13.9864 13.7409 13.2023 12.9568 12.241 12.9568ZM12.241 15.4522C11.8319 15.4522 11.4978 15.1182 11.4978 14.7091C11.4978 14.2932 11.8319 13.9591 12.241 13.9591C12.6569 13.9591 12.9841 14.2863 12.9841 14.7091C12.991 15.1182 12.6569 15.4522 12.241 15.4522Z" fill="#FD5D07"/>
</svg>
