<svg width="44" height="44" viewBox="0 0 44 44" fill="none" xmlns="http://www.w3.org/2000/svg">
<path fill-rule="evenodd" clip-rule="evenodd" d="M36.8862 38.8977H10.9658C10.7126 38.8977 10.5075 38.6925 10.5075 38.4394C10.5075 38.1862 10.7126 37.981 10.9658 37.981H36.4279V2.01772H7.423V22.0312C7.423 22.2843 7.21784 22.4895 6.96466 22.4895C6.71152 22.4895 6.50635 22.2843 6.50635 22.0312V1.55942C6.50635 1.30624 6.71152 1.10107 6.96466 1.10107H36.8861C37.1393 1.10107 37.3444 1.30624 37.3444 1.55942V38.4392C37.3444 38.6925 37.1394 38.8977 36.8862 38.8977Z" fill="#FD5D07"/>
<path fill-rule="evenodd" clip-rule="evenodd" d="M40.8873 42.8988H10.9658C10.7126 42.8988 10.5074 42.6937 10.5074 42.4405V38.4394C10.5074 38.1863 10.7126 37.9811 10.9658 37.9811C11.2189 37.9811 11.4241 38.1863 11.4241 38.4394V41.9823L40.429 41.9823V6.01895H36.8861C36.6329 6.01895 36.4278 5.81378 36.4278 5.56064C36.4278 5.30746 36.6329 5.10229 36.8861 5.10229H40.8871C41.1403 5.10229 41.3455 5.30746 41.3455 5.56064V42.4405C41.3456 42.6937 41.1405 42.8988 40.8873 42.8988Z" fill="#FD5D07"/>
<path fill-rule="evenodd" clip-rule="evenodd" d="M14.5496 15.0197C13.7097 15.0197 12.9278 14.6033 12.4581 13.9059C12.3167 13.6959 12.3723 13.411 12.5822 13.2697C12.792 13.1284 13.077 13.1837 13.2184 13.3938C13.5175 13.838 14.0151 14.1031 14.5496 14.1031C15.4338 14.1031 16.1531 13.3837 16.1531 12.4995C16.1531 11.6888 15.4725 10.9634 14.6361 10.8825C13.348 10.7459 12.3799 9.66857 12.3799 8.37606C12.3799 6.9864 13.5105 5.85596 14.9 5.85596C15.7401 5.85596 16.5219 6.27238 16.9915 6.96993C17.1329 7.17987 17.0773 7.46468 16.8673 7.6061C16.6575 7.74753 16.3726 7.69204 16.2311 7.48187C15.9321 7.03773 15.4344 6.77261 14.9 6.77261C14.0157 6.77261 13.2964 7.49195 13.2964 8.37619C13.2964 9.19865 13.912 9.88402 14.7284 9.97057C16.0393 10.0974 17.0695 11.2085 17.0695 12.4996C17.0697 13.8891 15.9391 15.0197 14.5496 15.0197Z" fill="#FD5D07"/>
<path fill-rule="evenodd" clip-rule="evenodd" d="M21.4133 15.0197C20.5733 15.0197 19.7914 14.6033 19.3218 13.9059C19.1803 13.6959 19.236 13.411 19.4459 13.2697C19.6559 13.1284 19.9406 13.1837 20.0821 13.3938C20.3812 13.838 20.8788 14.1031 21.4133 14.1031C22.2975 14.1031 23.0167 13.3837 23.0167 12.4995C23.0167 11.6888 22.3361 10.9634 21.4997 10.8825C20.2117 10.7459 19.2435 9.66857 19.2435 8.37606C19.2435 6.9864 20.3741 5.85596 21.7636 5.85596C22.6036 5.85596 23.3855 6.27238 23.855 6.96979C23.9966 7.17973 23.9409 7.46468 23.7309 7.60597C23.5211 7.74739 23.236 7.69167 23.0948 7.4818C22.7957 7.0377 22.2979 6.77258 21.7636 6.77258C20.8794 6.77258 20.16 7.49191 20.16 8.37615C20.16 9.19862 20.7757 9.88399 21.5921 9.9705C22.9031 10.0974 23.9333 11.2085 23.9333 12.4996C23.9334 13.8891 22.8028 15.0197 21.4133 15.0197Z" fill="#FD5D07"/>
<path fill-rule="evenodd" clip-rule="evenodd" d="M31.0127 14.992H26.5657C26.3126 14.992 26.1074 14.7869 26.1074 14.5337V6.31427C26.1074 6.06112 26.3126 5.85596 26.5657 5.85596C26.8189 5.85596 27.0241 6.06112 27.0241 6.31427V14.0754H31.0127C31.2658 14.0754 31.471 14.2805 31.471 14.5337C31.471 14.7869 31.2658 14.992 31.0127 14.992Z" fill="#FD5D07"/>
<path fill-rule="evenodd" clip-rule="evenodd" d="M32.2648 29.2721H19.8034C19.5503 29.2721 19.3451 29.067 19.3451 28.8138C19.3451 28.5606 19.5503 28.3555 19.8034 28.3555H32.2648C32.518 28.3555 32.7231 28.5606 32.7231 28.8138C32.7231 29.067 32.5179 29.2721 32.2648 29.2721Z" fill="#FD5D07"/>
<path fill-rule="evenodd" clip-rule="evenodd" d="M32.2647 34.143H19.1555C18.9023 34.143 18.6971 33.9378 18.6971 33.6847C18.6971 33.4315 18.9023 33.2263 19.1555 33.2263H32.2647C32.5179 33.2263 32.7231 33.4315 32.7231 33.6847C32.7231 33.9378 32.5178 34.143 32.2647 34.143Z" fill="#FD5D07"/>
<path fill-rule="evenodd" clip-rule="evenodd" d="M32.2647 24.401H18.8316C18.5785 24.401 18.3733 24.1959 18.3733 23.9427C18.3733 23.6895 18.5785 23.4844 18.8316 23.4844H32.2647C32.5179 23.4844 32.7231 23.6895 32.7231 23.9427C32.7231 24.1959 32.5179 24.401 32.2647 24.401Z" fill="#FD5D07"/>
<path fill-rule="evenodd" clip-rule="evenodd" d="M32.2648 19.5302H11.5862C11.333 19.5302 11.1278 19.325 11.1278 19.0718C11.1278 18.8187 11.333 18.6135 11.5862 18.6135H32.2648C32.518 18.6135 32.7231 18.8187 32.7231 19.0718C32.7231 19.325 32.5179 19.5302 32.2648 19.5302Z" fill="#FD5D07"/>
<path fill-rule="evenodd" clip-rule="evenodd" d="M11.1332 29.9212H6.38718C6.134 29.9212 5.92883 29.716 5.92883 29.4628V27.0899C5.92883 25.5287 7.19888 24.2585 8.7601 24.2585C10.3213 24.2585 11.5914 25.5287 11.5914 27.0899V29.4628C11.5915 29.7161 11.3863 29.9212 11.1332 29.9212ZM6.84549 29.0046H10.6748V27.09C10.6748 26.0342 9.81595 25.1753 8.7601 25.1753C7.70429 25.1753 6.84539 26.0342 6.84539 27.09L6.84549 29.0046Z" fill="#FD5D07"/>
<path fill-rule="evenodd" clip-rule="evenodd" d="M12.2118 35.1524H5.30865C5.05551 35.1524 4.85034 34.9472 4.85034 34.6941V29.4628C4.85034 29.2096 5.05551 29.0045 5.30865 29.0045L12.2118 29.0044C12.465 29.0044 12.6702 29.2096 12.6702 29.4627V34.694C12.6702 34.9472 12.4649 35.1524 12.2118 35.1524ZM5.767 34.2358H11.7535V29.9211L5.767 29.9211V34.2358Z" fill="#FD5D07"/>
<path fill-rule="evenodd" clip-rule="evenodd" d="M8.76016 38.8978C3.92976 38.8978 0.00012207 34.9681 0.00012207 30.1377C0.00012207 25.3073 3.9298 21.3777 8.76016 21.3777C13.5906 21.3777 17.5202 25.3074 17.5202 30.1377C17.5202 34.9681 13.5905 38.8978 8.76016 38.8978ZM8.76016 22.2942C4.43524 22.2942 0.91674 25.8127 0.91674 30.1376C0.91674 34.4625 4.43527 37.9811 8.76016 37.9811C13.085 37.9811 16.6036 34.4625 16.6036 30.1376C16.6036 25.8127 13.0851 22.2942 8.76016 22.2942Z" fill="#FD5D07"/>
<path fill-rule="evenodd" clip-rule="evenodd" d="M43.5414 42.8989C43.2882 42.8989 43.083 42.6937 43.083 42.4406V32.2134C43.083 31.9603 43.2882 31.7551 43.5414 31.7551C43.7945 31.7551 43.9997 31.9603 43.9997 32.2134V42.4406C43.9997 42.6937 43.7945 42.8989 43.5414 42.8989Z" fill="#FD5D07"/>
<path fill-rule="evenodd" clip-rule="evenodd" d="M43.5414 42.8989C43.2882 42.8989 43.083 42.6937 43.083 42.4406V32.2134C43.083 31.9603 43.2882 31.7551 43.5414 31.7551C43.7945 31.7551 43.9997 31.9603 43.9997 32.2134V42.4406C43.9997 42.6937 43.7945 42.8989 43.5414 42.8989Z" fill="#FD5D07"/>
<path fill-rule="evenodd" clip-rule="evenodd" d="M4.31064 12.2448C4.05746 12.2448 3.85229 12.0396 3.85229 11.7864V1.55942C3.85229 1.30624 4.05746 1.10107 4.31064 1.10107C4.56378 1.10107 4.76895 1.30624 4.76895 1.55942V11.7865C4.76895 12.0395 4.56365 12.2448 4.31064 12.2448Z" fill="#FD5D07"/>
</svg>
