<svg width="40" height="40" viewBox="0 0 40 40" fill="none" xmlns="http://www.w3.org/2000/svg">
<g clip-path="url(#clip0_83_759)">
<path d="M37.1241 6.60517C37.2545 5.96393 36.6248 5.42917 36.0124 5.6626L35.0818 6.01799C32.2687 2.48802 26.6701 3.42247 25.1411 7.64954C25.031 7.95384 25.1884 8.28969 25.4928 8.39985C25.7968 8.50993 26.1329 8.35258 26.2431 8.04813C27.4 4.84988 31.553 3.95293 33.916 6.46322L33.2851 6.70416C32.6736 6.93759 32.5594 7.75618 33.0844 8.14782L35.2695 9.77812L35.2696 9.7782C35.7591 10.1432 36.4607 9.87406 36.5821 9.27703L37.1241 6.60517ZM35.5401 8.51797L34.2807 7.57829L35.8527 6.97798L35.5401 8.51797Z" fill="#FD5D07"/>
<path d="M35.644 10.8232C35.3397 10.7134 35.0038 10.8707 34.8938 11.1752C33.7174 14.4319 29.4633 15.2741 27.1445 12.6828L27.7661 12.4454C28.3774 12.2119 28.4919 11.3933 27.9668 11.0018L25.7815 9.37124C25.2925 9.0064 24.5904 9.27539 24.4691 9.87257L23.927 12.5442C23.7966 13.1857 24.427 13.7205 25.0387 13.4868L25.9895 13.1237C28.7621 16.7427 34.4518 15.848 35.9959 11.5732C36.1059 11.269 35.9483 10.9332 35.644 10.8232ZM25.1984 12.1716L25.511 10.6315L26.7704 11.5712L25.1984 12.1716Z" fill="#FD5D07"/>
<path d="M25.8712 1.43558C16.4266 -1.27315 0 0.571054 0 5.45023V34.5604C0 37.9832 8.02564 39.83 15.5771 39.83C23.1285 39.83 31.1541 37.9831 31.1541 34.5604C31.1541 33.3077 31.1541 27.1804 31.1541 26.0562C31.1541 25.7326 30.8919 25.4703 30.5682 25.4703C30.2445 25.4703 29.9823 25.7326 29.9823 26.0562V27.2829C29.9823 29.1558 24.1772 31.3806 15.5771 31.3806C6.97713 31.3806 1.17187 29.1558 1.17187 27.2829V22.114C6.24214 26.3091 24.9139 26.3074 29.9822 22.114V23.3219C29.9822 23.6456 30.2444 23.9078 30.5681 23.9078C30.8918 23.9078 31.1541 23.6456 31.1541 23.3219C31.1541 22.4699 31.1541 19.9246 31.1541 19.0258C32.5929 18.9364 33.9965 18.519 35.2453 17.8045C35.5261 17.6438 35.6236 17.2858 35.4628 17.005C35.3021 16.7241 34.9442 16.6266 34.6633 16.7874C29.1852 19.9215 22.3872 15.9412 22.3095 9.7177C22.2519 5.1111 25.9826 1.35253 30.5681 1.35253C35.1227 1.35253 38.8281 5.05797 38.8281 9.61255C38.8281 11.6845 38.0574 13.6661 36.6581 15.1924C36.4394 15.4309 36.4554 15.8016 36.694 16.0203C36.9324 16.239 37.3031 16.2229 37.5219 15.9844C39.1199 14.2413 40.0001 11.9785 40.0001 9.61255C40 2.38073 32.1377 -2.17807 25.8712 1.43558ZM29.9822 29.3925V34.5604C29.9822 36.4334 24.1772 38.6581 15.577 38.6581C6.97713 38.6582 1.17187 36.4334 1.17187 34.5604V29.3925C6.24237 33.586 24.9129 33.585 29.9822 29.3925ZM24.7476 17.0354C26.2496 18.2176 28.0642 18.9097 29.9822 19.0265V20.0053C29.9822 21.8786 24.1757 24.1031 15.577 24.1031C6.97838 24.1031 1.17187 21.8786 1.17187 20.0054V14.8375C4.87426 17.8995 16.6674 18.9477 24.7476 17.0354ZM23.6921 16.0675C13.5764 18.1429 1.17187 15.6539 1.17187 12.7278V7.55983C4.67715 10.46 14.4567 11.2199 21.1683 10.3877C21.3401 12.5164 22.2222 14.5041 23.6921 16.0675ZM21.1448 9.2081C11.1149 10.4857 1.17187 8.01389 1.17187 5.45023C1.17187 2.37049 14.658 -0.0915968 24.5949 2.31057C22.5601 3.96782 21.2625 6.4289 21.1448 9.2081Z" fill="#FD5D07"/>
</g>
<defs>
<clipPath id="clip0_83_759">
<rect width="40" height="40" fill="white"/>
</clipPath>
</defs>
</svg>
