<svg width="40" height="40" viewBox="0 0 40 40" fill="none" xmlns="http://www.w3.org/2000/svg">
<path d="M16.1538 34.2307H1.53842C1.32604 34.2307 1.15381 34.0585 1.15381 33.8461V30.7691C1.15381 30.5567 1.32604 30.3845 1.53842 30.3845H16.1538C16.3662 30.3845 16.5384 30.5567 16.5384 30.7691V33.8461C16.5384 34.0585 16.3662 34.2307 16.1538 34.2307ZM1.92304 33.4614H15.7692V31.1538H1.92304V33.4614Z" fill="#FD5D07"/>
<path d="M38.4614 34.2307H23.846C23.6336 34.2307 23.4614 34.0585 23.4614 33.8461V30.7691C23.4614 30.5567 23.6336 30.3845 23.846 30.3845H38.4614C38.6739 30.3845 38.846 30.5567 38.846 30.7691V33.8461C38.846 34.0585 38.6739 34.2307 38.4614 34.2307ZM24.2307 33.4614H38.0768V31.1538H24.2307V33.4614Z" fill="#FD5D07"/>
<path d="M23.8461 36.5384H16.1538C15.9414 36.5384 15.7692 36.3663 15.7692 36.1538V28.4615C15.7692 28.2491 15.9414 28.0769 16.1538 28.0769H23.8461C24.0585 28.0769 24.2307 28.2491 24.2307 28.4615V36.1538C24.2307 36.3663 24.0585 36.5384 23.8461 36.5384ZM16.5384 35.7692H23.4615V28.8461H16.5384V35.7692Z" fill="#FD5D07"/>
<path d="M21.5384 28.8459H18.4615C18.2491 28.8459 18.0769 28.6738 18.0769 28.4613V19.2306C18.0769 19.0182 18.2491 18.8459 18.4615 18.8459H21.5384C21.7509 18.8459 21.9231 19.0182 21.9231 19.2306V28.4613C21.9231 28.6738 21.7509 28.8459 21.5384 28.8459ZM18.8461 28.0767H21.1538V19.6152H18.8461V28.0767Z" fill="#FD5D07"/>
<path d="M38.4615 19.6153H1.53842C1.32604 19.6153 1.15381 19.443 1.15381 19.2307V3.84604C1.15381 3.63366 1.32604 3.46143 1.53842 3.46143H38.4615C38.674 3.46143 38.8461 3.63366 38.8461 3.84604V19.2307C38.8461 19.443 38.674 19.6153 38.4615 19.6153ZM1.92304 18.846H38.0769V4.23066H1.92304V18.846Z" fill="#FD5D07"/>
<path d="M30.7689 16.5383C30.7111 16.5383 30.6523 16.5252 30.5972 16.4976C30.4072 16.4026 30.3302 16.1716 30.4253 15.9816L35.0406 6.75085C35.1356 6.56085 35.3666 6.48369 35.5566 6.57885C35.7466 6.67385 35.8236 6.90485 35.7286 7.09485L31.1132 16.3256C31.0458 16.4604 30.91 16.5383 30.7689 16.5383Z" fill="#FD5D07"/>
<path d="M35.3849 16.5385C35.2438 16.5385 35.108 16.4606 35.0406 16.3258L30.4252 7.09506C30.3302 6.90506 30.4072 6.67406 30.5971 6.57906C30.7873 6.48398 31.0182 6.56106 31.1131 6.75106L35.7285 15.9818C35.8235 16.1718 35.7465 16.4028 35.5566 16.4978C35.5014 16.5254 35.4427 16.5385 35.3849 16.5385Z" fill="#FD5D07"/>
<path d="M27.6923 16.1537C28.1172 16.1537 28.4616 15.8093 28.4616 15.3845C28.4616 14.9596 28.1172 14.6152 27.6923 14.6152C27.2675 14.6152 26.9231 14.9596 26.9231 15.3845C26.9231 15.8093 27.2675 16.1537 27.6923 16.1537Z" fill="#FD5D07"/>
<path d="M22.3077 11.9229C20.8231 11.9229 19.6154 10.7152 19.6154 9.23064C19.6154 7.7461 20.8231 6.53833 22.3077 6.53833C23.7922 6.53833 25 7.7461 25 9.23064C25 10.7152 23.7922 11.9229 22.3077 11.9229ZM22.3077 7.30756C21.2473 7.30756 20.3846 8.17025 20.3846 9.23064C20.3846 10.291 21.2473 11.1537 22.3077 11.1537C23.368 11.1537 24.2307 10.291 24.2307 9.23064C24.2307 8.17025 23.368 7.30756 22.3077 7.30756Z" fill="#FD5D07"/>
<path d="M22.3077 16.5384C20.8231 16.5384 19.6154 15.3307 19.6154 13.8461C19.6154 12.3616 20.8231 11.1538 22.3077 11.1538C23.7922 11.1538 25 12.3616 25 13.8461C25 15.3307 23.7922 16.5384 22.3077 16.5384ZM22.3077 11.923C21.2473 11.923 20.3846 12.7857 20.3846 13.8461C20.3846 14.9065 21.2473 15.7692 22.3077 15.7692C23.368 15.7692 24.2307 14.9065 24.2307 13.8461C24.2307 12.7857 23.368 11.923 22.3077 11.923Z" fill="#FD5D07"/>
<path d="M14.6154 11.9229C13.1309 11.9229 11.9231 10.7152 11.9231 9.23064C11.9231 7.7461 13.1309 6.53833 14.6154 6.53833C16.0999 6.53833 17.3077 7.7461 17.3077 9.23064C17.3077 10.7152 16.0999 11.9229 14.6154 11.9229ZM14.6154 7.30756C13.555 7.30756 12.6923 8.17025 12.6923 9.23064C12.6923 10.291 13.555 11.1537 14.6154 11.1537C15.6758 11.1537 16.5385 10.291 16.5385 9.23064C16.5385 8.17025 15.6758 7.30756 14.6154 7.30756Z" fill="#FD5D07"/>
<path d="M14.6154 16.5384C13.1309 16.5384 11.9231 15.3307 11.9231 13.8461C11.9231 12.3616 13.1309 11.1538 14.6154 11.1538C16.0999 11.1538 17.3077 12.3616 17.3077 13.8461C17.3077 15.3307 16.0999 16.5384 14.6154 16.5384ZM14.6154 11.923C13.555 11.923 12.6923 12.7857 12.6923 13.8461C12.6923 14.9065 13.555 15.7692 14.6154 15.7692C15.6758 15.7692 16.5385 14.9065 16.5385 13.8461C16.5385 12.7857 15.6758 11.923 14.6154 11.923Z" fill="#FD5D07"/>
<path d="M6.92302 11.9229C5.43848 11.9229 4.23071 10.7152 4.23071 9.23064C4.23071 7.7461 5.43848 6.53833 6.92302 6.53833C8.40756 6.53833 9.61533 7.7461 9.61533 9.23064C9.61533 10.7152 8.40756 11.9229 6.92302 11.9229ZM6.92302 7.30756C5.86264 7.30756 4.99994 8.17025 4.99994 9.23064C4.99994 10.291 5.86264 11.1537 6.92302 11.1537C7.98341 11.1537 8.8461 10.291 8.8461 9.23064C8.8461 8.17025 7.98341 7.30756 6.92302 7.30756Z" fill="#FD5D07"/>
<path d="M6.92302 16.5384C5.43848 16.5384 4.23071 15.3307 4.23071 13.8461C4.23071 12.3616 5.43848 11.1538 6.92302 11.1538C8.40756 11.1538 9.61533 12.3616 9.61533 13.8461C9.61533 15.3307 8.40756 16.5384 6.92302 16.5384ZM6.92302 11.923C5.86264 11.923 4.99994 12.7857 4.99994 13.8461C4.99994 14.9065 5.86264 15.7692 6.92302 15.7692C7.98341 15.7692 8.8461 14.9065 8.8461 13.8461C8.8461 12.7857 7.98341 11.923 6.92302 11.923Z" fill="#FD5D07"/>
</svg>
