<svg width="48" height="50" viewBox="0 0 48 50" fill="none" xmlns="http://www.w3.org/2000/svg">
<path d="M47.9915 26.8859C47.9932 23.9646 46.8429 21.1605 44.7901 19.082V1.5625C44.7901 1.3553 44.7078 1.15659 44.5613 1.01007C44.4148 0.86356 44.2161 0.78125 44.0089 0.78125H0.789551C0.58235 0.78125 0.383636 0.86356 0.237124 1.01007C0.0906108 1.15659 0.00830078 1.3553 0.00830078 1.5625V37.2012C0.00830078 37.4084 0.0906108 37.6071 0.237124 37.7536C0.383636 37.9001 0.58235 37.9824 0.789551 37.9824H33.7493V46.11C33.7539 46.9315 34.0835 47.7178 34.666 48.2971C35.2486 48.8764 36.0367 49.2015 36.8583 49.2015C37.6798 49.2015 38.4679 48.8764 39.0505 48.2971C39.633 47.7178 39.9626 46.9315 39.9672 46.11V37.5769C42.2801 36.9009 44.312 35.494 45.7585 33.5668C47.205 31.6395 47.9884 29.2956 47.9915 26.8859ZM43.2276 2.34375V9.28818H1.5708V2.34375H43.2276ZM1.5708 10.8507H43.2276V17.7602C41.7059 16.6964 39.9422 16.0303 38.0971 15.8226C36.2521 15.6149 34.3844 15.8723 32.6643 16.5712C30.9442 17.2701 29.4263 18.3883 28.2489 19.824C27.0716 21.2597 26.2723 22.9671 25.9237 24.7908C23.0981 22.5069 19.5728 21.2645 15.9396 21.2723H15.9321C13.1539 21.2747 10.4245 22.0034 8.01483 23.3861C5.60511 24.7689 3.59874 26.7575 2.19473 29.1549C2.15477 29.207 2.12156 29.2639 2.0959 29.3243C1.90957 29.6505 1.73454 29.9836 1.5708 30.3236V10.8507ZM31.1021 36.4199C31.0957 36.4199 31.0896 36.419 31.0831 36.419H23.6612C23.624 34.3971 23.3881 32.3837 22.957 30.4078H26.2961C27.1398 32.9191 28.8473 35.0495 31.1145 36.4199H31.1021ZM15.9367 22.8348H15.9389C17.45 22.8363 18.9822 24.2871 20.143 26.8157C20.4427 27.4758 20.7017 28.1536 20.9187 28.8453H10.9542C11.1711 28.1536 11.4302 27.4758 11.7299 26.8157C12.8905 24.2874 14.4225 22.8367 15.9334 22.8348H15.9367ZM25.8977 28.8453H22.5555C21.8873 26.5713 20.9495 24.687 19.8267 23.3668C22.0315 23.9849 24.0554 25.124 25.7278 26.6881C25.7267 26.754 25.7253 26.8197 25.7253 26.8858C25.725 27.5428 25.7829 28.1985 25.898 28.8453H25.8977ZM21.3515 30.4078C21.8091 32.3801 22.0594 34.3948 22.0981 36.419H9.77393C9.81263 34.3948 10.0629 32.3801 10.5206 30.4078H21.3515ZM9.31699 28.8453H4.25713C6.15778 26.192 8.90254 24.2621 12.0425 23.3714C10.9213 24.6913 9.98486 26.5738 9.31738 28.8453H9.31699ZM3.28076 30.4078H8.91494C8.48388 32.3837 8.24802 34.3971 8.21074 36.419H1.59228C1.70435 34.3152 2.28112 32.2622 3.28115 30.4078H3.28076ZM38.4043 46.11C38.4011 46.518 38.2367 46.9082 37.947 47.1955C37.6574 47.4829 37.2659 47.6442 36.8579 47.6442C36.4498 47.6442 36.0583 47.4829 35.7687 47.1955C35.479 46.9082 35.3147 46.518 35.3114 46.11V37.9111C36.3374 38.0549 37.3784 38.0549 38.4043 37.9111V46.11ZM36.858 36.4565C34.9652 36.4565 33.1149 35.8953 31.541 34.8437C29.9672 33.7921 28.7405 32.2974 28.0162 30.5486C27.2918 28.7999 27.1023 26.8756 27.4716 25.0192C27.8409 23.1627 28.7523 21.4574 30.0908 20.119C31.4292 18.7806 33.1345 17.8691 34.9909 17.4998C36.8474 17.1305 38.7717 17.3201 40.5204 18.0444C42.2692 18.7688 43.7638 19.9954 44.8154 21.5692C45.867 23.1431 46.4283 24.9934 46.4283 26.8862C46.4254 29.4235 45.4162 31.856 43.6222 33.6501C41.8281 35.4442 39.3956 36.4535 36.8584 36.4565H36.858ZM36.858 19.0503C35.3082 19.0503 33.7933 19.5099 32.5047 20.3709C31.2161 21.2319 30.2118 22.4556 29.6187 23.8874C29.0256 25.3192 28.8705 26.8948 29.1728 28.4147C29.4752 29.9347 30.2215 31.3309 31.3173 32.4268C32.4132 33.5226 33.8094 34.2689 35.3294 34.5712C36.8494 34.8736 38.4249 34.7184 39.8567 34.1253C41.2885 33.5322 42.5122 32.5279 43.3732 31.2393C44.2342 29.9507 44.6938 28.4357 44.6937 26.8859C44.6914 24.8086 43.8651 22.817 42.3962 21.348C40.9273 19.8791 38.9358 19.0527 36.8584 19.0503H36.858ZM36.858 33.1593C35.6173 33.1593 34.4044 32.7914 33.3728 32.1021C32.3412 31.4127 31.5371 30.433 31.0623 29.2867C30.5875 28.1404 30.4632 26.8791 30.7053 25.6622C30.9473 24.4453 31.5448 23.3276 32.4221 22.4502C33.2994 21.5729 34.4172 20.9754 35.6341 20.7333C36.851 20.4913 38.1123 20.6155 39.2586 21.0903C40.4049 21.5651 41.3846 22.3691 42.074 23.4007C42.7633 24.4324 43.1312 25.6452 43.1312 26.8859C43.1294 28.5491 42.4679 30.1435 41.2919 31.3196C40.116 32.4957 38.5215 33.1573 36.8584 33.1593H36.858ZM4.13232 12.5504C4.33726 12.52 4.54588 12.5722 4.71232 12.6956C4.87875 12.8189 4.98936 13.0034 5.01982 13.2083L5.47178 16.2521L6.11025 14.6396C6.1679 14.4939 6.26798 14.369 6.39751 14.2809C6.52704 14.1929 6.68005 14.1458 6.83667 14.1458C6.99329 14.1458 7.1463 14.1929 7.27583 14.2809C7.40536 14.369 7.50544 14.4939 7.56308 14.6396L8.20137 16.2519L8.65332 13.2084C8.68517 13.0047 8.79624 12.8219 8.96232 12.6997C9.12839 12.5776 9.33602 12.526 9.53994 12.5563C9.74386 12.5866 9.92755 12.6963 10.051 12.8614C10.1744 13.0265 10.2275 13.2337 10.1988 13.4379L9.31934 19.3609C9.2941 19.531 9.21347 19.688 9.08992 19.8076C8.96638 19.9272 8.80684 20.0027 8.63602 20.0224C8.46521 20.0421 8.29267 20.0049 8.14516 19.9165C7.99764 19.8282 7.88339 19.6937 7.82012 19.5338L6.83662 17.0494L5.85303 19.5338C5.78975 19.6937 5.6755 19.8282 5.52799 19.9165C5.38047 20.0049 5.20793 20.0421 5.03712 20.0224C4.86631 20.0027 4.70676 19.9272 4.58322 19.8076C4.45968 19.688 4.37904 19.531 4.35381 19.3609L3.47422 13.4375C3.44391 13.2326 3.4962 13.024 3.61961 12.8577C3.74302 12.6913 3.92744 12.5808 4.13232 12.5504ZM11.5676 13.4379C11.5371 13.2329 11.5894 13.0243 11.7128 12.8578C11.8362 12.6914 12.0207 12.5808 12.2256 12.5503C12.4306 12.5199 12.6392 12.5721 12.8057 12.6956C12.9721 12.819 13.0828 13.0034 13.1132 13.2084L13.565 16.252L14.2035 14.6396C14.2612 14.4939 14.3612 14.369 14.4908 14.2809C14.6203 14.1929 14.7733 14.1458 14.9299 14.1458C15.0866 14.1458 15.2396 14.1929 15.3691 14.2809C15.4986 14.369 15.5987 14.4939 15.6563 14.6396L16.2948 16.252L16.7468 13.2084C16.7786 13.0047 16.8897 12.8219 17.0558 12.6997C17.2218 12.5776 17.4295 12.526 17.6334 12.5563C17.8373 12.5866 18.021 12.6963 18.1444 12.8614C18.2678 13.0265 18.321 13.2337 18.2923 13.4379L17.4128 19.3609C17.3876 19.531 17.3069 19.688 17.1834 19.8076C17.0598 19.9272 16.9003 20.0027 16.7295 20.0224C16.5587 20.0421 16.3861 20.0049 16.2386 19.9165C16.0911 19.8282 15.9768 19.6937 15.9136 19.5338L14.93 17.0493L13.9464 19.5338C13.8831 19.6937 13.7689 19.8282 13.6213 19.9165C13.4738 20.0049 13.3013 20.0421 13.1305 20.0224C12.9597 20.0027 12.8001 19.9272 12.6766 19.8076C12.553 19.688 12.4724 19.531 12.4472 19.3609L11.5676 13.4379ZM19.6608 13.4379C19.6304 13.2329 19.6826 13.0243 19.8061 12.8578C19.9295 12.6914 20.1139 12.5808 20.3189 12.5503C20.5239 12.5199 20.7325 12.5721 20.899 12.6956C21.0654 12.819 21.176 13.0034 21.2064 13.2084L21.6583 16.252L22.2968 14.6396C22.3544 14.4939 22.4545 14.369 22.584 14.2809C22.7136 14.1929 22.8666 14.1458 23.0232 14.1458C23.1798 14.1458 23.3328 14.1929 23.4623 14.2809C23.5919 14.369 23.692 14.4939 23.7496 14.6396L24.388 16.252L24.8399 13.2084C24.8718 13.0047 24.9829 12.8219 25.1489 12.6997C25.315 12.5776 25.5226 12.526 25.7266 12.5563C25.9305 12.5866 26.1142 12.6963 26.2376 12.8614C26.361 13.0265 26.4142 13.2337 26.3854 13.4379L25.506 19.3609C25.4807 19.531 25.4001 19.688 25.2765 19.8076C25.153 19.9272 24.9935 20.0027 24.8226 20.0224C24.6518 20.0421 24.4793 20.0049 24.3318 19.9165C24.1843 19.8282 24.07 19.6937 24.0067 19.5338L23.0233 17.0493L22.0397 19.5338C21.9765 19.6937 21.8622 19.8282 21.7147 19.9165C21.5672 20.0049 21.3946 20.0421 21.2238 20.0224C21.053 20.0027 20.8935 19.9272 20.7699 19.8076C20.6464 19.688 20.5658 19.531 20.5405 19.3609L19.6608 13.4379ZM3.46572 5.83652C3.46572 5.62932 3.54803 5.43061 3.69455 5.2841C3.84106 5.13758 4.03977 5.05527 4.24697 5.05527H7.30928C7.51648 5.05527 7.71519 5.13758 7.8617 5.2841C8.00822 5.43061 8.09053 5.62932 8.09053 5.83652C8.09053 6.04372 8.00822 6.24244 7.8617 6.38895C7.71519 6.53546 7.51648 6.61777 7.30928 6.61777H4.24697C4.03977 6.61777 3.84106 6.53546 3.69455 6.38895C3.54803 6.24244 3.46572 6.04372 3.46572 5.83652ZM10.9531 5.83652C10.9531 5.62932 11.0354 5.43061 11.1819 5.2841C11.3285 5.13758 11.5272 5.05527 11.7344 5.05527H14.7967C15.0039 5.05527 15.2026 5.13758 15.3491 5.2841C15.4956 5.43061 15.5779 5.62932 15.5779 5.83652C15.5779 6.04372 15.4956 6.24244 15.3491 6.38895C15.2026 6.53546 15.0039 6.61777 14.7967 6.61777H11.7343C11.5271 6.61777 11.3284 6.53546 11.1818 6.38895C11.0353 6.24244 10.9531 6.04372 10.9531 5.83652ZM18.4405 5.83652C18.4405 5.62932 18.5228 5.43061 18.6693 5.2841C18.8159 5.13758 19.0146 5.05527 19.2218 5.05527H22.2841C22.4913 5.05527 22.69 5.13758 22.8365 5.2841C22.983 5.43061 23.0653 5.62932 23.0653 5.83652C23.0653 6.04372 22.983 6.24244 22.8365 6.38895C22.69 6.53546 22.4913 6.61777 22.2841 6.61777H19.2218C19.0146 6.61777 18.8159 6.53546 18.6693 6.38895C18.5228 6.24244 18.4405 6.04372 18.4405 5.83652ZM25.928 5.83652C25.928 5.62932 26.0103 5.43061 26.1569 5.2841C26.3034 5.13758 26.5021 5.05527 26.7093 5.05527H29.7714C29.9786 5.05527 30.1773 5.13758 30.3238 5.2841C30.4703 5.43061 30.5526 5.62932 30.5526 5.83652C30.5526 6.04372 30.4703 6.24244 30.3238 6.38895C30.1773 6.53546 29.9786 6.61777 29.7714 6.61777H26.7093C26.5021 6.61777 26.3034 6.53546 26.1569 6.38895C26.0103 6.24244 25.928 6.04372 25.928 5.83652Z" fill="#FD5D07"/>
</svg>
