<svg width="50" height="50" viewBox="0 0 50 50" fill="none" xmlns="http://www.w3.org/2000/svg">
<path d="M27.5419 27.1694C30.1856 27.1694 32.3365 25.0186 32.3365 22.3747C32.3365 19.7309 30.1856 17.5801 27.5419 17.5801C24.8981 17.5801 22.7472 19.7309 22.7472 22.3747C22.7472 25.0186 24.898 27.1694 27.5419 27.1694ZM27.5419 19.1783C29.3044 19.1783 30.7383 20.6122 30.7383 22.3747C30.7383 24.1373 29.3044 25.5712 27.5419 25.5712C25.7793 25.5712 24.3454 24.1373 24.3454 22.3747C24.3454 20.6122 25.7793 19.1783 27.5419 19.1783Z" fill="#FD5D07"/>
<path d="M15.5974 40.7546C16.2991 40.7546 16.959 40.4813 17.4553 39.985L18.0047 39.4355C18.4674 39.7702 19.0287 39.9555 19.6079 39.9555C20.0978 39.9555 20.5733 39.8241 20.9895 39.58C20.8638 40.4343 20.6655 41.2772 20.3913 42.1001L19.9451 43.4391L23.421 42.6666C25.0373 42.3074 26.498 41.3984 27.534 40.1069C28.5701 38.8153 29.1405 37.1922 29.1405 35.5366C29.1405 34.6709 29.0017 33.8156 28.728 32.9944L28.6504 32.7615L29.7395 31.7813C34.4373 27.5531 37.1316 21.5032 37.1316 15.183C37.1316 13.8612 36.0561 12.7857 34.7343 12.7857H34.4064C28.9331 12.7857 23.618 14.8302 19.5512 18.447V12.7857C19.5512 11.9045 18.8342 11.1875 17.953 11.1875H6.76546C5.88425 11.1875 5.16724 11.9045 5.16724 12.7857V20.7768C5.16724 21.658 5.88425 22.375 6.76546 22.375H9.59501C8.63268 23.1013 7.83048 24.052 7.26591 25.1812L5.4724 28.7679H8.17499C8.8003 28.7679 9.41471 28.8546 10.0105 29.0229C9.97838 29.1915 9.9618 29.3642 9.9618 29.5389V29.6183C9.9618 30.172 10.1284 30.7068 10.4368 31.1584L9.99367 31.6015C9.45776 32.1374 9.16269 32.8499 9.16269 33.6077C9.16269 33.9453 9.22313 34.2778 9.3383 34.5899C5.23067 35.4418 1.95622 38.5957 0.993494 42.7676L0.167114 46.3483H4.99174C8.99478 46.3483 12.5951 43.9265 14.1555 40.3231C14.5794 40.6016 15.0789 40.7546 15.5974 40.7546ZM15.5974 39.1563C15.2966 39.1563 15.0118 39.0253 14.816 38.7969L11.0593 34.4141C10.8669 34.1897 10.761 33.9033 10.761 33.6077C10.761 33.2768 10.89 32.9655 11.1239 32.7316L11.4945 32.361L16.8872 38.2929L16.3252 38.8549C16.1307 39.0493 15.8723 39.1563 15.5974 39.1563ZM14.2619 33.0292L18.7569 29.0337C18.9497 28.8623 19.198 28.7679 19.4559 28.7679H19.5834C19.8644 28.7679 20.1287 28.8774 20.3275 29.0762L20.8412 29.5899C21.0399 29.7886 21.1493 30.0529 21.1493 30.3339C21.1493 30.6342 21.0206 30.9208 20.7961 31.1203L16.2224 35.1859L14.2619 33.0292ZM27.5423 35.5366C27.5423 38.2315 25.705 40.5218 23.0743 41.1065L22.288 41.2812C22.5416 40.2344 22.69 39.1653 22.7334 38.0867L27.3405 33.9404C27.4739 34.4615 27.5423 34.9964 27.5423 35.5366ZM34.7343 14.3839C35.1749 14.3839 35.5334 14.7424 35.5334 15.183C35.5334 16.5562 35.3947 17.9151 35.129 19.2423L30.6234 14.7367C31.8646 14.5046 33.1307 14.3839 34.4064 14.3839H34.7343ZM28.7923 15.1659L34.6817 21.0552C33.6054 24.6935 31.5409 28.0098 28.6704 30.5933L20.3677 38.0657C20.1587 38.2537 19.8889 38.3572 19.6081 38.3572C19.2888 38.3572 18.9826 38.2218 18.7678 37.9854L17.2978 36.3684L21.8582 32.3148C22.4235 31.8123 22.7478 31.0902 22.7478 30.3338C22.7478 29.6258 22.4721 28.9602 21.9714 28.4596L21.4577 27.9458C20.9571 27.4452 20.2915 27.1696 19.5836 27.1696H19.4561C18.8064 27.1696 18.1809 27.4073 17.6953 27.8391L13.187 31.8464L11.8556 30.3818C11.6652 30.1724 11.5603 29.9012 11.5603 29.6181V29.5387C11.5603 29.2469 11.6708 28.9695 11.8715 28.7577L19.3558 20.8575C21.9397 18.1301 25.222 16.1747 28.7923 15.1659ZM6.76546 20.7768V12.7857H17.953V20.0144L16.859 21.1692C16.0613 20.9094 15.2319 20.7768 14.3924 20.7768H6.76546ZM8.05842 27.1697L8.69521 25.896C9.7812 23.7242 11.9642 22.375 14.3924 22.375C14.801 22.375 15.2067 22.415 15.6054 22.4924L10.7786 27.5874C9.93843 27.3116 9.0656 27.1697 8.17499 27.1697H8.05842ZM4.99174 44.7501H2.17618L2.55076 43.1269C3.42429 39.3416 6.52973 36.5397 10.3477 36.0397L12.9327 39.0555C11.7899 42.4286 8.58394 44.7501 4.99174 44.7501Z" fill="#FD5D07"/>
<path d="M6.6356 41.5532H6.19939C6.56997 40.4024 7.45768 39.501 8.61619 39.1149L8.11076 37.5986C6.34912 38.1859 5.02839 39.612 4.57799 41.4136L4.14368 43.1514H6.6357C8.49173 43.1514 10.1331 41.9685 10.72 40.2076L9.20374 39.7023C8.83465 40.8095 7.8026 41.5532 6.6356 41.5532Z" fill="#FD5D07"/>
<path d="M34.5969 46.3481C33.195 46.3481 31.8635 46.8061 30.7733 47.6513C29.9011 46.8102 28.7572 46.3481 27.542 46.3481C26.3771 46.3481 25.2775 46.7729 24.4201 47.5491C23.328 46.3581 21.8092 45.638 20.1768 45.5567L20.1603 45.4904C19.6983 43.6429 18.0456 42.3525 16.1412 42.3525C15.0347 42.3525 13.9943 42.7834 13.2118 43.5659L12.5929 44.1848L13.723 45.3148L14.3418 44.696C14.8224 44.2154 15.4614 43.9508 16.1411 43.9508C17.3108 43.9508 18.3259 44.7434 18.6096 45.8781L18.9269 47.1472H19.8661C21.4024 47.1472 22.8284 47.9104 23.6806 49.1887L24.2213 49.9997L25.3788 48.8423C25.9565 48.2646 26.7248 47.9463 27.5419 47.9463C28.3591 47.9463 29.1275 48.2646 29.7052 48.8424L30.7384 49.8756L31.3035 49.3105C32.1832 48.4308 33.3528 47.9463 34.5969 47.9463H34.8711C36.1152 47.9463 37.2848 48.4308 38.1644 49.3104L39.2946 48.1803C38.1131 46.9989 36.5421 46.3481 34.8711 46.3481H34.5969Z" fill="#FD5D07"/>
<path d="M36.7543 43.1519H35.8643L35.6303 42.9179C34.7507 42.0382 33.5811 41.5537 32.337 41.5537C31.0928 41.5537 29.9231 42.0382 29.0436 42.9178L28.5754 43.386L29.7055 44.5161L30.1737 44.0478C30.7514 43.4701 31.5197 43.1518 32.3368 43.1518C33.154 43.1518 33.9224 43.4701 34.5001 44.0479L35.2024 44.75H36.7543C38.654 44.75 40.3619 45.8056 41.2116 47.5048L42.6411 46.79C41.5189 44.546 39.2632 43.1519 36.7543 43.1519Z" fill="#FD5D07"/>
<path d="M49.6639 46.4527C49.3218 45.7683 48.863 45.1718 48.3188 44.6804V1.59822C48.3188 0.717001 47.6018 0 46.7206 0H3.56863C2.68741 0 1.97041 0.717001 1.97041 1.59822V27.4374C1.46697 27.2638 0.928872 27.1697 0.372192 27.1697V28.768C1.88681 28.768 3.20124 29.7942 3.56863 31.2637L3.74384 31.9644H4.97816C5.77567 31.9644 6.49277 32.4076 6.84938 33.1209L8.27888 32.4061C7.64979 31.1478 6.38499 30.3662 4.97816 30.3662H4.96198C4.66991 29.5735 4.18445 28.8878 3.56853 28.3566V7.9911H46.7205V43.6495C46.1227 43.3888 45.478 43.2245 44.8074 43.1711C43.6366 41.1962 41.5423 39.9806 39.2234 39.9559L39.1865 39.8821C38.2234 37.9557 36.2871 36.759 34.1334 36.759C32.24 36.759 30.4827 37.6996 29.4326 39.2748L29.2744 39.5122L30.6041 40.3989L30.7624 40.1615C31.5155 39.0317 32.7757 38.3573 34.1334 38.3573C35.6779 38.3573 37.0664 39.2154 37.7571 40.5969L38.2356 41.5537H39.1513C41.051 41.5537 42.7589 42.6092 43.6085 44.3084L43.8294 44.7501H44.3232C45.9902 44.7501 47.4889 45.6763 48.2345 47.1675L48.4032 47.5049L49.8327 46.7901L49.6639 46.4527ZM3.56863 6.39288V1.59822H46.7206V6.39288H3.56863Z" fill="#FD5D07"/>
<path d="M5.16724 3.19653H6.76546V4.79475H5.16724V3.19653Z" fill="#FD5D07"/>
<path d="M8.3634 3.19629H9.96162V4.79451H8.3634V3.19629Z" fill="#FD5D07"/>
<path d="M11.5597 3.19629H13.1579V4.79451H11.5597V3.19629Z" fill="#FD5D07"/>
<path d="M35.5339 30.3662C34.6527 30.3662 33.9357 31.0832 33.9357 31.9644V33.5626C33.9357 34.4439 34.6527 35.1609 35.5339 35.1609H43.525C44.4062 35.1609 45.1232 34.4439 45.1232 33.5626V31.9644C45.1232 31.0832 44.4062 30.3662 43.525 30.3662H35.5339ZM35.5339 31.9644H38.7303V33.5626H35.5339V31.9644ZM43.525 33.5626H40.3285V31.9644H43.525L43.526 33.5626C43.526 33.5626 43.5256 33.5626 43.525 33.5626Z" fill="#FD5D07"/>
<path d="M37.132 25.5713H45.1231V27.1695H37.132V25.5713Z" fill="#FD5D07"/>
<path d="M38.7296 20.7773H45.1225V22.3756H38.7296V20.7773Z" fill="#FD5D07"/>
<path d="M38.7299 15.9822H45.1227V17.5804H38.7299V15.9822Z" fill="#FD5D07"/>
</svg>
