<svg width="50" height="50" viewBox="0 0 50 50" fill="none" xmlns="http://www.w3.org/2000/svg">
<path d="M44.5312 1.5625H5.46875C3.3125 1.5625 1.5625 3.3125 1.5625 5.46875V38.2812C1.5625 40.4375 3.3125 42.1875 5.46875 42.1875H32.5312C32.9609 42.1875 33.3125 41.8359 33.3125 41.4062C33.3125 40.9766 32.9609 40.625 32.5312 40.625H5.46875C4.17969 40.625 3.125 39.5703 3.125 38.2812V7.8125H46.875V38.2812C46.875 38.75 46.7344 39.2031 46.4766 39.5859C46.2344 39.9453 46.3281 40.4297 46.6875 40.6719C47.0469 40.9141 47.5312 40.8203 47.7734 40.4609C48.2109 39.8125 48.4375 39.0625 48.4375 38.2812V5.46875C48.4375 3.3125 46.6875 1.5625 44.5312 1.5625ZM3.125 5.46875C3.125 4.17969 4.17969 3.125 5.46875 3.125H34.375V6.25H3.125V5.46875ZM35.9375 6.25V3.125H44.5312C45.8203 3.125 46.875 4.17969 46.875 5.46875V6.25H35.9375Z" fill="#FD5D07"/>
<path d="M39.625 36.6953C38.5781 35.8047 37.0859 35.7188 35.9375 36.3906L33.8047 34.2578C35.6094 32.1953 36.7109 29.5078 36.7109 26.5547C36.7109 25.3828 36.5391 24.2344 36.2031 23.1328C36.125 22.7813 35.8125 22.5234 35.4375 22.5234C35.0078 22.5234 34.6563 22.875 34.6563 23.3125C34.6563 23.3906 34.6719 23.4688 34.6953 23.5469C35 24.5156 35.1484 25.5234 35.1484 26.5547C35.1484 32.1563 30.5938 36.7109 24.9922 36.7109C19.3906 36.7109 14.8359 32.1563 14.8359 26.5547C14.8359 20.9531 19.3906 16.3984 24.9922 16.3984C27.3281 16.3984 29.5234 17.1719 31.3359 18.6328C31.6719 18.9063 32.1641 18.8516 32.4375 18.5156C32.7109 18.1797 32.6563 17.6875 32.3203 17.4141C30.2187 15.7266 27.6875 14.8359 24.9922 14.8359C18.5312 14.8359 13.2734 20.0938 13.2734 26.5547C13.2734 33.0156 18.5312 38.2734 24.9922 38.2734C27.9453 38.2734 30.6328 37.1719 32.6953 35.3594L34.8203 37.4844C34.1484 38.625 34.2266 40.1172 35.125 41.1719L40.3594 47.3125C40.9375 47.9844 41.7734 48.3906 42.6563 48.4297H42.7812C43.625 48.4297 44.4375 48.0938 45.0313 47.5L45.9297 46.6016C46.5547 45.9766 46.8906 45.1094 46.8594 44.2266C46.8281 43.3438 46.4219 42.5078 45.7422 41.9297L39.6016 36.6953H39.625ZM44.8438 45.5L43.9453 46.3984C43.625 46.7188 43.1953 46.8906 42.7344 46.875C42.2813 46.8594 41.8672 46.6562 41.5703 46.3047L36.3359 40.1641C35.7891 39.5234 35.8281 38.5625 36.4219 37.9687C36.7344 37.6562 37.1484 37.5 37.5625 37.5C37.9375 37.5 38.3125 37.625 38.6094 37.8828L44.75 43.1172C45.1016 43.4141 45.2969 43.8281 45.3203 44.2813C45.3359 44.7344 45.1719 45.1641 44.8516 45.4922L44.8438 45.5Z" fill="#FD5D07"/>
<path d="M23.9922 22.8828C23.6875 22.5781 23.1953 22.5781 22.8906 22.8828L18.2031 27.5703C17.8984 27.875 17.8984 28.3672 18.2031 28.6719C18.3594 28.8281 18.5547 28.8984 18.7578 28.8984C18.9609 28.8984 19.1563 28.8203 19.3125 28.6719L23.4453 24.5391L26.7969 27.8906C26.9453 28.0391 27.1563 28.1094 27.3594 28.1172C27.5703 28.1172 27.7734 28.0234 27.9141 27.875L39.8438 15.2422V17.9688C39.8438 18.3984 40.1953 18.75 40.625 18.75C41.0547 18.75 41.4062 18.3984 41.4062 17.9688V13.2812C41.4062 12.8516 41.0547 12.5 40.625 12.5H35.9375C35.5078 12.5 35.1562 12.8516 35.1562 13.2812C35.1562 13.7109 35.5078 14.0625 35.9375 14.0625H38.8125L27.3281 26.2266L23.9922 22.8906V22.8828Z" fill="#FD5D07"/>
</svg>
