<svg width="50" height="50" viewBox="0 0 50 50" fill="none" xmlns="http://www.w3.org/2000/svg">
<path fill-rule="evenodd" clip-rule="evenodd" d="M16.5047 3.1252H10.9375C9.64219 3.1252 8.59375 4.17441 8.59375 5.46895V9.3752H3.90625C1.74922 9.3752 0 11.1244 0 13.2814V17.9689C0 19.5705 0.964062 20.9471 2.34375 21.5502V23.7627C0.964062 24.3658 0 25.7424 0 27.3439V32.0314C0 33.633 0.964062 35.0096 2.34375 35.6127V37.8252C0.964062 38.4283 0 39.8049 0 41.4064V46.0939C0 48.251 1.74922 50.0002 3.90625 50.0002H28.9062C30.5078 50.0002 31.8844 49.0361 32.4875 47.6564H44.5312C45.8266 47.6564 46.875 46.6072 46.875 45.3127V31.933C48.2226 31.5861 49.2187 30.3627 49.2187 28.9064C49.2187 27.1807 47.8195 25.7814 46.0937 25.7814C44.368 25.7814 42.9687 27.1807 42.9687 28.9064C42.9687 30.3627 43.9648 31.5861 45.3125 31.933V45.3127C45.3125 45.7447 44.9633 46.0939 44.5312 46.0939H32.8125V42.9689H38.2812C39.5766 42.9689 40.625 41.9197 40.625 40.6252V36.6205C41.9726 36.2736 42.9687 35.0502 42.9687 33.5939C42.9687 31.8682 41.5695 30.4689 39.8437 30.4689C38.118 30.4689 36.7187 31.8682 36.7187 33.5939C36.7187 35.0502 37.7148 36.2736 39.0625 36.6205V40.6252C39.0625 41.0572 38.7133 41.4064 38.2812 41.4064H32.8125C32.8125 39.8049 31.8484 38.4283 30.4687 37.8252V35.6127C31.8484 35.0096 32.8125 33.633 32.8125 32.0314V30.4689C32.8125 30.0377 32.4625 29.6877 32.0312 29.6877C31.6 29.6877 31.25 30.0377 31.25 30.4689V32.0314C31.25 33.326 30.2008 34.3752 28.9062 34.3752H3.90625C2.61172 34.3752 1.5625 33.326 1.5625 32.0314V27.3439C1.5625 26.0494 2.61172 25.0002 3.90625 25.0002H25C25.4312 25.0002 25.7812 24.6502 25.7812 24.2189C25.7812 23.7877 25.4312 23.4377 25 23.4377H3.90625V21.8752H23.4375C23.8687 21.8752 24.2187 21.5252 24.2187 21.0939C24.2187 20.6627 23.8687 20.3127 23.4375 20.3127H3.90625C2.61172 20.3127 1.5625 19.2635 1.5625 17.9689V13.2814C1.5625 11.9869 2.61172 10.9377 3.90625 10.9377H20.3125C20.7437 10.9377 21.0937 10.5877 21.0937 10.1564C21.0937 9.7252 20.7437 9.3752 20.3125 9.3752H10.1562V5.46895C10.1562 5.03691 10.5055 4.6877 10.9375 4.6877H16.5047C16.8523 6.03457 18.0766 7.03145 19.5312 7.03145C21.2562 7.03145 22.6562 5.63145 22.6562 3.90645C22.6562 2.18145 21.2562 0.781445 19.5312 0.781445C18.0766 0.781445 16.8523 1.77832 16.5047 3.1252ZM28.9062 48.4377H3.90625C2.61172 48.4377 1.5625 47.3885 1.5625 46.0939V41.4064C1.5625 40.1119 2.61172 39.0627 3.90625 39.0627H28.9062C30.2008 39.0627 31.25 40.1119 31.25 41.4064V46.0939C31.25 47.3885 30.2008 48.4377 28.9062 48.4377ZM7.8125 43.7502C7.8125 42.4564 6.7625 41.4064 5.46875 41.4064C4.175 41.4064 3.125 42.4564 3.125 43.7502C3.125 45.0439 4.175 46.0939 5.46875 46.0939C6.7625 46.0939 7.8125 45.0439 7.8125 43.7502ZM17.1875 43.7502C17.1875 42.4564 16.1375 41.4064 14.8437 41.4064C13.55 41.4064 12.5 42.4564 12.5 43.7502C12.5 45.0439 13.55 46.0939 14.8437 46.0939C16.1375 46.0939 17.1875 45.0439 17.1875 43.7502ZM12.5 43.7502C12.5 42.4564 11.45 41.4064 10.1562 41.4064C8.8625 41.4064 7.8125 42.4564 7.8125 43.7502C7.8125 45.0439 8.8625 46.0939 10.1562 46.0939C11.45 46.0939 12.5 45.0439 12.5 43.7502ZM19.5312 44.5314H28.125C28.5562 44.5314 28.9062 44.1814 28.9062 43.7502C28.9062 43.3189 28.5562 42.9689 28.125 42.9689H19.5312C19.1 42.9689 18.75 43.3189 18.75 43.7502C18.75 44.1814 19.1 44.5314 19.5312 44.5314ZM6.25 43.7502C6.25 44.1814 5.9 44.5314 5.46875 44.5314C5.0375 44.5314 4.6875 44.1814 4.6875 43.7502C4.6875 43.3189 5.0375 42.9689 5.46875 42.9689C5.9 42.9689 6.25 43.3189 6.25 43.7502ZM15.625 43.7502C15.625 44.1814 15.275 44.5314 14.8437 44.5314C14.4125 44.5314 14.0625 44.1814 14.0625 43.7502C14.0625 43.3189 14.4125 42.9689 14.8437 42.9689C15.275 42.9689 15.625 43.3189 15.625 43.7502ZM10.9375 43.7502C10.9375 44.1814 10.5875 44.5314 10.1562 44.5314C9.725 44.5314 9.375 44.1814 9.375 43.7502C9.375 43.3189 9.725 42.9689 10.1562 42.9689C10.5875 42.9689 10.9375 43.3189 10.9375 43.7502ZM28.9062 35.9377H3.90625V37.5002H28.9062V35.9377ZM39.8437 35.1564C38.9805 35.1564 38.2812 34.4572 38.2812 33.5939C38.2812 32.7307 38.9805 32.0314 39.8437 32.0314C40.707 32.0314 41.4062 32.7307 41.4062 33.5939C41.4062 34.4572 40.707 35.1564 39.8437 35.1564ZM7.8125 29.6877C7.8125 28.3939 6.7625 27.3439 5.46875 27.3439C4.175 27.3439 3.125 28.3939 3.125 29.6877C3.125 30.9814 4.175 32.0314 5.46875 32.0314C6.7625 32.0314 7.8125 30.9814 7.8125 29.6877ZM17.1875 29.6877C17.1875 28.3939 16.1375 27.3439 14.8437 27.3439C13.55 27.3439 12.5 28.3939 12.5 29.6877C12.5 30.9814 13.55 32.0314 14.8437 32.0314C16.1375 32.0314 17.1875 30.9814 17.1875 29.6877ZM12.5 29.6877C12.5 28.3939 11.45 27.3439 10.1562 27.3439C8.8625 27.3439 7.8125 28.3939 7.8125 29.6877C7.8125 30.9814 8.8625 32.0314 10.1562 32.0314C11.45 32.0314 12.5 30.9814 12.5 29.6877ZM10.9375 29.6877C10.9375 30.1189 10.5875 30.4689 10.1562 30.4689C9.725 30.4689 9.375 30.1189 9.375 29.6877C9.375 29.2564 9.725 28.9064 10.1562 28.9064C10.5875 28.9064 10.9375 29.2564 10.9375 29.6877ZM6.25 29.6877C6.25 30.1189 5.9 30.4689 5.46875 30.4689C5.0375 30.4689 4.6875 30.1189 4.6875 29.6877C4.6875 29.2564 5.0375 28.9064 5.46875 28.9064C5.9 28.9064 6.25 29.2564 6.25 29.6877ZM15.625 29.6877C15.625 30.1189 15.275 30.4689 14.8437 30.4689C14.4125 30.4689 14.0625 30.1189 14.0625 29.6877C14.0625 29.2564 14.4125 28.9064 14.8437 28.9064C15.275 28.9064 15.625 29.2564 15.625 29.6877ZM46.0937 30.4689C45.2305 30.4689 44.5312 29.7697 44.5312 28.9064C44.5312 28.0432 45.2305 27.3439 46.0937 27.3439C46.957 27.3439 47.6562 28.0432 47.6562 28.9064C47.6562 29.7697 46.957 30.4689 46.0937 30.4689ZM19.5312 30.4689H28.125C28.5562 30.4689 28.9062 30.1189 28.9062 29.6877C28.9062 29.2564 28.5562 28.9064 28.125 28.9064H19.5312C19.1 28.9064 18.75 29.2564 18.75 29.6877C18.75 30.1189 19.1 30.4689 19.5312 30.4689ZM37.1 29.5885L38.9492 28.5564C46.6164 24.2775 50.8852 16.0986 49.8461 7.7166C49.8156 7.47129 49.6711 7.25566 49.457 7.13379L37.1055 0.102539C36.8656 -0.0341797 36.5719 -0.0341797 36.3328 0.102539L23.9812 7.13379C23.7664 7.25566 23.6227 7.47129 23.5922 7.7166C22.5531 16.0986 26.8211 24.2775 34.4883 28.5564L36.3383 29.5885C36.575 29.7205 36.8633 29.7205 37.1 29.5885ZM38.1875 27.1924L36.7187 28.0119L35.25 27.1924C28.2695 23.2963 24.3133 15.9189 25.0992 8.29551C25.0992 8.29473 36.7187 1.67988 36.7187 1.67988L48.3391 8.29473C49.1242 15.9189 45.168 23.2963 38.1875 27.1924ZM36.0219 25.833L36.0203 25.8322C36.0203 25.8322 36.2867 25.9814 36.3297 26.0057C36.5562 26.1322 36.718 26.1088 36.718 26.1088C36.718 26.1088 36.8797 26.1322 37.1062 26.0057C37.1492 25.9814 37.4164 25.833 37.4164 25.833H37.4148L37.4258 25.8275C43.4867 22.4447 47.0656 16.2283 46.8664 9.68613C46.8578 9.41348 46.7086 9.16504 46.4719 9.03066L37.1047 3.69863C36.8648 3.56191 36.5711 3.56191 36.332 3.69863L26.9656 9.03066C26.7289 9.16504 26.5797 9.41348 26.5711 9.68613C26.3719 16.2283 29.9508 22.4447 36.0117 25.8275L36.0219 25.833ZM36.7187 24.4322C31.35 21.4119 28.1117 15.9619 28.1258 10.1682L36.7187 5.27676L45.3117 10.1682C45.3258 15.9619 42.0875 21.4119 36.7187 24.4322ZM7.8125 15.6252C7.8125 14.3314 6.7625 13.2814 5.46875 13.2814C4.175 13.2814 3.125 14.3314 3.125 15.6252C3.125 16.9189 4.175 17.9689 5.46875 17.9689C6.7625 17.9689 7.8125 16.9189 7.8125 15.6252ZM17.1875 15.6252C17.1875 14.3314 16.1375 13.2814 14.8437 13.2814C13.55 13.2814 12.5 14.3314 12.5 15.6252C12.5 16.9189 13.55 17.9689 14.8437 17.9689C16.1375 17.9689 17.1875 16.9189 17.1875 15.6252ZM12.5 15.6252C12.5 14.3314 11.45 13.2814 10.1562 13.2814C8.8625 13.2814 7.8125 14.3314 7.8125 15.6252C7.8125 16.9189 8.8625 17.9689 10.1562 17.9689C11.45 17.9689 12.5 16.9189 12.5 15.6252ZM35.9375 15.4916V17.1541C35.9375 17.5846 36.2875 17.9346 36.7187 17.9354C37.15 17.9354 37.5 17.5846 37.5 17.1541V15.4916C38.4102 15.1697 39.0625 14.301 39.0625 13.2814C39.0625 11.9877 38.0125 10.9377 36.7187 10.9377C35.425 10.9377 34.375 11.9877 34.375 13.2814C34.375 14.301 35.0273 15.1697 35.9375 15.4916ZM19.5312 16.4064H21.0937C21.525 16.4064 21.875 16.0564 21.875 15.6252C21.875 15.1939 21.525 14.8439 21.0937 14.8439H19.5312C19.1 14.8439 18.75 15.1939 18.75 15.6252C18.75 16.0564 19.1 16.4064 19.5312 16.4064ZM10.9375 15.6252C10.9375 16.0564 10.5875 16.4064 10.1562 16.4064C9.725 16.4064 9.375 16.0564 9.375 15.6252C9.375 15.1939 9.725 14.8439 10.1562 14.8439C10.5875 14.8439 10.9375 15.1939 10.9375 15.6252ZM6.25 15.6252C6.25 16.0564 5.9 16.4064 5.46875 16.4064C5.0375 16.4064 4.6875 16.0564 4.6875 15.6252C4.6875 15.1939 5.0375 14.8439 5.46875 14.8439C5.9 14.8439 6.25 15.1939 6.25 15.6252ZM15.625 15.6252C15.625 16.0564 15.275 16.4064 14.8437 16.4064C14.4125 16.4064 14.0625 16.0564 14.0625 15.6252C14.0625 15.1939 14.4125 14.8439 14.8437 14.8439C15.275 14.8439 15.625 15.1939 15.625 15.6252ZM36.7359 14.0627C37.1594 14.0533 37.5 13.7064 37.5 13.2814C37.5 12.8502 37.15 12.5002 36.7187 12.5002C36.2875 12.5002 35.9375 12.8502 35.9375 13.2814C35.9375 13.7064 36.2781 14.0533 36.7016 14.0627H36.7187C36.7242 14.0619 36.7305 14.0627 36.7359 14.0627ZM17.9687 3.90645C17.9687 3.04395 18.6687 2.34395 19.5312 2.34395C20.3937 2.34395 21.0937 3.04395 21.0937 3.90645C21.0937 4.76895 20.3937 5.46895 19.5312 5.46895C18.6687 5.46895 17.9687 4.76895 17.9687 3.90645Z" fill="#FD5D07"/>
</svg>
