<svg width="267" height="197" viewBox="0 0 267 197" fill="none" xmlns="http://www.w3.org/2000/svg">
<path d="M90.2093 196.538L83.4803 135.3L83.6165 106.95L109.988 118.978L119.359 196.538H90.2093Z" fill="white"/>
<path d="M90.2094 197H119.359C119.496 197 119.618 196.946 119.7 196.851C119.782 196.756 119.823 196.62 119.809 196.497L110.424 118.937C110.41 118.774 110.301 118.652 110.165 118.584L83.8073 106.557C83.6711 106.489 83.5076 106.502 83.3714 106.584C83.2352 106.665 83.1671 106.815 83.1671 106.964L83.0172 135.314C83.0172 135.327 83.0172 135.355 83.0172 135.368L89.7599 196.606C89.7871 196.824 89.9778 197 90.2094 197ZM118.855 196.09H90.618L83.9299 135.287L84.0661 107.658L109.566 119.291L118.855 196.09Z" fill="black"/>
<path d="M80.0478 196.538L50.639 196.674C54.4802 173.706 58.7165 123.463 59.3703 120.228C60.2149 116.029 95.2222 124.781 95.2222 124.781L90.7407 145.982L80.0478 196.538Z" fill="white"/>
<path d="M50.6389 197H80.3338C80.5517 197 80.7288 196.851 80.7833 196.633L91.4762 145.248C91.5307 145.004 91.3672 144.759 91.122 144.718C90.8768 144.664 90.6316 144.827 90.5908 145.072L79.9796 196.09H51.1837C53.7718 180.08 56.7005 151.459 58.4576 134.294C59.3022 126.059 59.9015 120.106 60.1194 119.073C60.1331 119.033 60.1467 118.91 60.3783 118.761C63.7428 116.654 86.804 121.859 95.4128 124.047C95.658 124.115 95.9032 123.966 95.9577 123.721C96.0258 123.477 95.8759 123.232 95.6307 123.178C94.3503 122.851 64.2604 115.254 59.8879 118C59.5201 118.231 59.2885 118.53 59.2204 118.897C59.0025 119.97 58.4304 125.624 57.5586 134.199C55.7878 151.554 52.8183 180.597 50.203 196.47C50.1757 196.606 50.2166 196.742 50.2983 196.837C50.3801 196.932 50.5027 197 50.6389 197Z" fill="black"/>
<path d="M71.0434 17.3354L71.2069 18.7352L71.561 21.8066C70.4032 21.6435 66.957 21.1679 62.5708 24.715C62.3529 24.8916 62.1486 25.0683 61.9306 25.2586C57.1359 29.5123 57.5173 32.842 59.5469 37.8568C63.5788 47.8049 67.0932 59.7916 51.8098 62.8222C36.5265 65.8664 33.8975 38.183 41.8661 28.1397C47.4237 21.1271 55.6647 18.545 61.9715 17.6616C65.84 17.118 68.973 17.1995 70.3215 17.2675C70.7982 17.3082 71.0434 17.3354 71.0434 17.3354Z" fill="black"/>
<path d="M49.5352 63.5294C50.298 63.5294 51.088 63.4478 51.9053 63.2848C57.0134 62.2655 60.4596 60.159 62.1623 56.9924C64.9956 51.7602 62.7753 44.6253 59.9693 37.6942C57.9396 32.6658 57.7489 29.5808 62.244 25.6124C62.462 25.4221 62.6663 25.2455 62.8706 25.0824C67.0933 21.644 70.417 22.1197 71.5067 22.2692C71.6429 22.2828 71.7927 22.242 71.8881 22.1469C71.9834 22.0517 72.0379 21.9158 72.0243 21.7663L71.5067 17.2815C71.4794 17.0641 71.316 16.901 71.098 16.8874C71.098 16.8874 70.8392 16.8602 70.3625 16.8331C68.8505 16.7515 65.7311 16.6836 61.9171 17.2272C55.7738 18.097 47.2331 20.6519 41.5121 27.882C35.9681 34.881 35.4369 49.776 40.4496 57.9574C42.7108 61.6403 45.8165 63.5294 49.5352 63.5294ZM70.09 21.2499C68.3465 21.2499 65.5541 21.7256 62.2985 24.3757C62.0806 24.5524 61.8626 24.729 61.6447 24.9329C56.7818 29.241 56.9861 32.7201 59.1383 38.0339C61.8626 44.7612 64.0285 51.665 61.3723 56.5711C59.7785 59.5202 56.6184 61.4229 51.7282 62.4014C46.2115 63.5022 42.9832 60.3357 41.226 57.4817C36.4721 49.7216 36.9761 35.0713 42.2204 28.4392C47.7644 21.4538 56.0599 18.9667 62.0397 18.1241C65.772 17.5941 68.8232 17.6485 70.308 17.7436C70.4306 17.7572 70.5395 17.7572 70.6349 17.7708L71.0435 21.3043C70.7847 21.2771 70.4578 21.2499 70.09 21.2499Z" fill="black"/>
<path d="M71.2074 18.7496L71.5615 21.821C70.4037 21.6579 66.9575 21.1823 62.5713 24.7294C61.6451 22.3918 61.8221 19.1709 61.972 17.676C65.8405 17.1324 68.9734 17.2139 70.322 17.2819L71.2074 18.7496Z" fill="#FEC524"/>
<path d="M144.709 36.2403C144.709 36.2403 148.537 27.4881 148.591 24.1449C148.632 20.8153 147.692 16.2217 150.757 17.4313C153.822 18.6408 153.509 22.0248 153.509 22.0248C153.509 22.0248 159.693 7.89088 163.03 8.82862C166.367 9.77994 160.319 19.8096 160.319 19.8096C160.319 19.8096 167.798 23.0441 167.512 27.6512C167.375 29.8392 161.436 40.7523 158.821 42.3287C157.581 44.5032 143.456 38.4011 144.709 36.2403Z" fill="white"/>
<path d="M157.513 43.2388C158.317 43.2388 158.862 43.0486 159.162 42.6681C161.913 40.847 167.838 29.9611 167.975 27.6915C168.234 23.4649 162.649 20.4479 160.973 19.6325C162.008 17.8521 165.278 11.8996 164.311 9.45333C164.106 8.9233 163.698 8.55637 163.153 8.40687C160.101 7.53709 155.647 16.3164 153.781 20.3256C153.481 19.1704 152.746 17.7434 150.921 17.0231C150.103 16.697 149.449 16.7106 148.959 17.0639C147.897 17.8114 147.992 19.8907 148.087 22.0787C148.115 22.7718 148.142 23.4921 148.142 24.1445C148.101 27.2702 144.518 35.5739 144.314 36.036C144.014 36.5796 144.232 37.2319 144.968 37.9522C145.526 38.4958 146.371 39.1074 147.474 39.7461C149.477 40.8877 152.092 42.0157 154.299 42.6545C155.62 43.0486 156.696 43.2388 157.513 43.2388ZM162.662 9.23588C162.744 9.23588 162.826 9.24947 162.894 9.26306C163.166 9.3446 163.343 9.50769 163.452 9.7659C164.229 11.7229 161.164 17.5124 159.924 19.5781C159.856 19.6868 159.843 19.8227 159.884 19.945C159.924 20.0674 160.02 20.1761 160.129 20.2169C160.197 20.244 167.321 23.3698 167.048 27.61C166.926 29.6893 161.109 40.4121 158.576 41.9342C158.508 41.9749 158.453 42.0293 158.412 42.0973C157.908 42.9806 152.283 41.4721 147.897 38.9443C146.861 38.3463 146.058 37.7755 145.567 37.2999C145.131 36.865 145.009 36.566 145.077 36.4573C145.091 36.4437 145.091 36.4301 145.104 36.4165C145.268 36.0496 148.973 27.542 149.014 24.1445C149.027 23.4649 148.986 22.7311 148.959 22.0244C148.877 20.2576 148.796 18.2463 149.449 17.7842C149.681 17.6211 150.049 17.6483 150.553 17.8521C153.263 18.9258 153.032 21.8613 153.018 21.9836C153.005 22.201 153.141 22.4049 153.359 22.4593C153.577 22.5136 153.795 22.4049 153.89 22.201C156.165 17.0775 160.428 9.23588 162.662 9.23588Z" fill="black"/>
<path d="M160.183 19.9316L156.873 25.558C156.328 26.4821 156.614 27.6373 157.499 28.1673C158.385 28.6837 159.543 28.3576 160.088 27.447L163.398 21.8206C163.942 20.8965 163.656 19.7277 162.771 19.2113C162.321 18.9531 161.817 18.8987 161.354 19.0346C160.878 19.1569 160.455 19.4831 160.183 19.9316Z" fill="white"/>
<path d="M158.412 28.8745C158.616 28.8745 158.834 28.8473 159.039 28.793C159.638 28.6299 160.142 28.2358 160.469 27.6922L163.779 22.0658C164.446 20.9378 164.092 19.4836 162.989 18.8449C162.458 18.5323 161.817 18.4508 161.218 18.6274C160.619 18.7905 160.101 19.1846 159.788 19.7418L156.478 25.3682C156.151 25.9118 156.056 26.5506 156.205 27.1486C156.355 27.7601 156.723 28.2766 157.268 28.5891C157.622 28.7658 158.017 28.8745 158.412 28.8745ZM161.858 19.4157C162.104 19.4157 162.335 19.4836 162.539 19.6059C163.207 20 163.411 20.8834 163.003 21.5901L159.693 27.2165C159.488 27.5563 159.175 27.8009 158.794 27.9096C158.426 28.0183 158.044 27.964 157.717 27.7737C157.39 27.5834 157.173 27.2709 157.077 26.9039C156.982 26.5234 157.05 26.1293 157.254 25.7895L160.564 20.1631C160.769 19.8234 161.082 19.5787 161.463 19.47C161.6 19.4293 161.722 19.4157 161.858 19.4157Z" fill="black"/>
<path d="M163.316 21.9708L160.115 27.3934C159.597 28.2767 159.87 29.4047 160.714 29.9076C161.572 30.4104 162.689 30.0978 163.207 29.2145L166.408 23.7919C166.926 22.9086 166.667 21.7806 165.809 21.2777C165.386 21.0331 164.882 20.9787 164.433 21.101C163.983 21.2369 163.575 21.5359 163.316 21.9708Z" fill="white"/>
<path d="M161.613 30.6004C161.818 30.6004 162.022 30.5732 162.226 30.5188C162.812 30.3557 163.302 29.9752 163.616 29.4452L166.803 24.0226C167.457 22.9218 167.103 21.522 166.04 20.8833C165.523 20.5843 164.91 20.5027 164.31 20.6658C163.725 20.8289 163.234 21.2094 162.921 21.7395L159.72 27.162C159.407 27.692 159.311 28.3036 159.461 28.9016C159.611 29.4995 159.965 29.9888 160.496 30.3014C160.837 30.5052 161.218 30.6004 161.613 30.6004ZM164.937 21.4948C165.169 21.4948 165.387 21.5492 165.591 21.6715C166.231 22.052 166.422 22.8946 166.027 23.5606L162.826 28.9831C162.635 29.3093 162.335 29.5403 161.968 29.649C161.613 29.7442 161.259 29.7034 160.946 29.5267C160.633 29.35 160.428 29.0511 160.333 28.6977C160.251 28.3444 160.306 27.9638 160.496 27.6377L163.697 22.2151C163.888 21.889 164.188 21.6579 164.556 21.5492C164.692 21.5084 164.814 21.4948 164.937 21.4948Z" fill="black"/>
<path d="M165.836 24.7972L163.139 29.3771C162.703 30.1246 162.989 31.1031 163.779 31.5652C164.569 32.0273 165.563 31.7962 166.013 31.0488L168.478 26.8493C168.914 26.1019 168.86 24.7428 168.07 24.2808C167.675 24.0497 167.225 23.9954 166.83 24.0769C166.422 24.1721 166.054 24.4303 165.836 24.7972Z" fill="white"/>
<path d="M164.664 32.2582C165.373 32.2582 166.04 31.9185 166.408 31.2797L168.874 27.0803C169.146 26.6182 169.255 25.9931 169.187 25.4087C169.105 24.7156 168.792 24.1856 168.301 23.8866C167.825 23.6012 167.253 23.5196 166.721 23.642C166.176 23.7643 165.727 24.0904 165.454 24.5661L162.757 29.146C162.199 30.1109 162.553 31.3613 163.561 31.9592C163.902 32.1495 164.283 32.2582 164.664 32.2582ZM167.198 24.4981C167.416 24.4981 167.648 24.5525 167.838 24.6748C168.07 24.8107 168.233 25.1233 168.288 25.5174C168.342 25.9115 168.261 26.3464 168.097 26.6318L165.632 30.8312C165.318 31.3612 164.596 31.5243 164.024 31.1846C163.452 30.8448 163.234 30.1381 163.547 29.6081L166.231 25.0282C166.381 24.7699 166.626 24.5933 166.926 24.5253C167.021 24.4981 167.103 24.4981 167.198 24.4981Z" fill="black"/>
<path d="M153.508 22.0249C153.508 22.0249 154.339 25.4225 152.95 27.4474C152.95 27.4474 154.707 28.8608 155.279 30.9809C155.837 33.101 154.639 34.6503 154.639 34.6503" fill="white"/>
<path d="M154.625 35.1125C154.762 35.1125 154.898 35.0582 154.98 34.9358C155.034 34.8679 156.314 33.1827 155.701 30.8723C155.252 29.16 154.08 27.8961 153.522 27.366C154.721 25.1916 153.972 22.0522 153.944 21.9163C153.89 21.6717 153.645 21.5222 153.399 21.5902C153.154 21.6445 153.004 21.8891 153.072 22.1338C153.086 22.161 153.835 25.3683 152.582 27.1894C152.446 27.3796 152.487 27.6514 152.664 27.8009C152.677 27.8145 154.312 29.16 154.83 31.1034C155.32 32.9652 154.312 34.3243 154.271 34.3786C154.121 34.5825 154.162 34.8543 154.353 35.0174C154.421 35.0853 154.516 35.1125 154.625 35.1125Z" fill="black"/>
<path d="M160.033 45.4404L155.865 52.0861L139.764 41.0779L144.096 34.3099C147.27 30.5454 163.534 40.5887 160.033 45.4404Z" fill="#FD5D07"/>
<path d="M155.879 52.5486C155.906 52.5486 155.947 52.5486 155.974 52.535C156.097 52.5078 156.206 52.4399 156.26 52.3312L160.415 45.6991C161.913 43.6062 160.415 40.5076 156.41 37.3954C151.901 33.9027 145.785 31.6195 143.755 34.0386C143.742 34.0522 143.728 34.0658 143.715 34.0794L139.383 40.8473C139.247 41.0512 139.301 41.323 139.506 41.4589L155.606 52.4671C155.688 52.5214 155.783 52.5486 155.879 52.5486ZM146.357 33.9435C148.823 33.9435 152.8 35.751 155.851 38.1157C158.617 40.263 161.068 43.2392 159.665 45.1827C159.665 45.1962 159.652 45.1962 159.652 45.2098L155.742 51.4614L140.391 40.9697L144.464 34.6094C144.872 34.1473 145.526 33.9435 146.357 33.9435Z" fill="black"/>
<path d="M99.2674 48.689C105.029 49.3685 117.37 54.8862 128.758 59.6971L139.805 39.5971C143.81 33.8348 160.714 46.6776 156.696 52.4535C156.696 52.4535 144.109 78.0577 136.427 80.6942C127.273 83.8335 98.4501 72.2818 98.4501 72.2818L99.2674 48.689Z" fill="white"/>
<path d="M132.368 81.686C134.002 81.686 135.433 81.5093 136.577 81.1152C144.287 78.4651 156.396 54.0977 157.091 52.6707C158.003 51.3389 157.99 49.5993 157.05 47.6287C154.87 43.008 148.169 38.0883 143.524 37.6942C141.685 37.5447 140.282 38.1019 139.437 39.325C139.424 39.3386 139.424 39.3522 139.41 39.3658L128.567 59.0989C127.246 58.5417 125.911 57.9709 124.576 57.4001C114.66 53.1871 104.416 48.8246 99.3219 48.2131C99.1993 48.1995 99.063 48.2403 98.9677 48.3218C98.8723 48.4033 98.8179 48.5257 98.8042 48.648L97.987 72.2544C97.987 72.4446 98.0959 72.6213 98.273 72.6892C99.3082 73.1241 120.844 81.686 132.368 81.686ZM142.938 38.6047C143.101 38.6047 143.265 38.6183 143.442 38.6319C147.746 38.9853 154.189 43.7419 156.233 48.05C156.777 49.2188 157.241 50.8904 156.328 52.2086C156.314 52.2222 156.301 52.2494 156.287 52.263C156.164 52.5212 143.701 77.7312 136.277 80.2726C127.886 83.1538 101.978 73.1921 98.9132 71.9825L99.7033 49.2052C104.825 49.9934 114.673 54.1928 124.222 58.2563C125.679 58.8815 127.151 59.5066 128.594 60.1182C128.812 60.2133 129.058 60.1182 129.167 59.9143L140.2 39.8415C140.772 39.0124 141.698 38.6047 142.938 38.6047Z" fill="black"/>
<path d="M100.916 49.0558C98.9271 48.3899 96.8021 47.8463 94.5818 47.3978C91.6668 46.8134 88.6156 46.4193 85.578 46.2155C83.5212 46.0796 81.4643 46.0252 79.4756 46.066C76.5469 46.1339 73.7545 46.3786 71.2482 46.827C67.4205 47.5065 61.5497 48.9879 59.629 50.5644C54.5891 54.6822 57.6267 77.4052 56.6868 97.682C55.9785 112.917 53.4993 128.437 54.521 129.103C54.4529 133.628 114.537 134.96 114.605 130.435L110.356 92.5584C110.356 92.5584 114.769 83.4122 113.121 76.8073C111.459 70.2024 106.787 65.2555 106.787 65.2555C106.787 65.2555 106.678 60.7435 105.615 56.449" fill="white"/>
<path d="M90.9583 133.696C96.7474 133.696 101.978 133.52 106.01 133.166C114.02 132.473 115.055 131.345 115.068 130.448C115.068 130.435 115.068 130.408 115.068 130.394L110.832 92.6401C111.363 91.4849 115.15 83.0589 113.57 76.6986C112.031 70.5694 107.999 65.9079 107.236 65.0789C107.209 64.2091 107.004 60.1728 106.051 56.3539C105.996 56.1093 105.738 55.9598 105.506 56.0278C105.261 56.0821 105.111 56.3267 105.179 56.5714C106.214 60.7572 106.337 65.2284 106.337 65.2828C106.337 65.3915 106.378 65.5002 106.46 65.5817C106.5 65.6361 111.077 70.5286 112.685 76.9297C114.278 83.3035 110.001 92.2867 109.96 92.3683C109.919 92.4498 109.906 92.5313 109.919 92.6129L114.169 130.448C114.128 130.571 113.611 131.603 105.942 132.269C100.956 132.704 94.1048 132.881 86.6539 132.759C78.5491 132.636 70.5669 132.188 64.7505 131.508C55.0928 130.394 54.9975 129.13 54.9975 129.116C54.9975 128.994 54.943 128.858 54.8476 128.777C54.5207 128.043 55.0247 122.96 55.556 117.592C56.1281 111.884 56.8364 104.776 57.1633 97.7092C57.4766 90.8597 57.354 83.8743 57.2178 77.1335C56.9726 64.4673 56.7683 53.5271 59.9285 50.9314C61.5903 49.5724 66.9299 48.0638 71.3297 47.2892C73.7815 46.8543 76.5195 46.5961 79.4889 46.5417C81.5049 46.5009 83.5482 46.5553 85.5505 46.6912C88.6154 46.8951 91.6257 47.2892 94.4999 47.86C96.7474 48.3085 98.8588 48.8521 100.779 49.4908C101.011 49.5724 101.27 49.4364 101.351 49.2054C101.433 48.9744 101.297 48.7162 101.065 48.6346C99.1176 47.9823 96.9654 47.4251 94.6769 46.963C91.7756 46.3786 88.7243 45.9845 85.6186 45.7807C83.589 45.6447 81.5186 45.5904 79.4753 45.6312C76.465 45.6991 73.6726 45.9573 71.1798 46.3922C68.0333 46.9494 61.5086 48.4715 59.3564 50.2247C55.8556 53.0922 56.0463 63.7063 56.3051 77.1471C56.4277 83.8743 56.5639 90.8461 56.2506 97.6685C55.9237 104.722 55.2154 111.802 54.6433 117.497C53.8124 125.787 53.6081 128.451 54.0712 129.266C54.1257 129.959 54.8613 131.291 64.6279 132.405C70.4715 133.085 78.4946 133.533 86.6266 133.656C88.0977 133.683 89.5416 133.696 90.9583 133.696Z" fill="black"/>
<path d="M94.2961 59.3434C91.0269 59.7919 88.0847 55.2527 88.0847 55.2527C88.0847 55.2527 86.1641 48.2537 85.5783 46.2288C88.6159 46.4326 91.6672 46.8267 94.5822 47.4111C95.9307 51.0533 96.9387 58.9765 94.2961 59.3434Z" fill="#FD5D07"/>
<path d="M93.8328 59.8191C94.0098 59.8191 94.1869 59.8055 94.3504 59.7783C94.8952 59.6968 95.372 59.3706 95.6989 58.827C97.1564 56.4215 96.0258 50.0069 95.0042 47.248C94.9497 47.0986 94.8271 46.9898 94.6637 46.9626C91.7623 46.3783 88.7111 45.9841 85.5917 45.7803C85.4419 45.7667 85.3057 45.8347 85.2103 45.9434C85.115 46.0521 85.0877 46.2152 85.1286 46.3511C85.7007 48.3489 87.6077 55.2935 87.635 55.3615C87.6486 55.4022 87.6622 55.443 87.6895 55.4838C87.8257 55.674 90.55 59.8191 93.8328 59.8191ZM94.2414 58.8949C91.4762 59.2755 88.8609 55.5653 88.5204 55.0625C88.3297 54.3966 86.8858 49.1099 86.2047 46.7316C88.9562 46.9355 91.6669 47.3024 94.255 47.8052C95.3175 50.8902 96.0531 56.503 94.9361 58.3649C94.7454 58.6775 94.5138 58.8542 94.2414 58.8949Z" fill="black"/>
<path d="M88.0977 55.2535C88.0977 55.2535 87.4574 62.6195 83.6979 62.538C77.7317 62.4021 71.2887 52.0055 71.2478 46.8411C73.7542 46.3927 76.5466 46.148 79.4752 46.0801L81.0145 47.942L88.0977 55.2535Z" fill="#FD5D07"/>
<path d="M83.7661 62.9727C87.8253 62.9727 88.52 55.5932 88.5472 55.2806C88.5609 55.1447 88.5064 55.0224 88.4246 54.9273L81.3551 47.6157L79.8295 45.781C79.7477 45.6723 79.6115 45.6179 79.4753 45.6179C79.4753 45.6179 79.4753 45.6179 79.4617 45.6179C76.4513 45.6859 73.6589 45.9441 71.1662 46.379C70.9482 46.4197 70.7848 46.61 70.7984 46.8275C70.8393 52.3723 77.4866 62.8232 83.6844 62.9727C83.7116 62.9727 83.7388 62.9727 83.7661 62.9727ZM87.621 55.4029C87.4848 56.5309 86.6811 62.0622 83.7661 62.0622C83.7525 62.0622 83.7252 62.0622 83.7116 62.0622C78.263 61.9399 72.0516 52.4946 71.7247 47.208C74.0131 46.8275 76.5467 46.5964 79.2846 46.5285L80.6876 48.2137L87.621 55.4029Z" fill="black"/>
<path d="M77.1327 31.2393C77.1327 31.2393 76.8058 43.0357 75.3483 46.4468C75.3483 46.4468 80.5517 55.2262 88.0844 55.2398C93.3015 55.2533 91.3945 46.9904 91.3945 46.9904C91.3945 46.9904 91.0403 40.6981 93.7374 37.3005C96.4617 33.903 77.1327 31.2393 77.1327 31.2393Z" fill="white"/>
<path d="M88.0981 55.7017C89.3649 55.7017 90.3593 55.2532 91.054 54.3834C92.9065 52.0595 91.9666 47.4524 91.8577 46.9359C91.8304 46.4331 91.6397 40.6844 94.1052 37.5858C94.5684 37.0014 94.5003 36.4714 94.364 36.1316C93.1381 33.0738 78.8219 31.0217 77.2009 30.7906C77.0783 30.777 76.9421 30.8042 76.8468 30.8994C76.7514 30.9809 76.6833 31.1032 76.6833 31.2255C76.6833 31.3478 76.3428 42.9811 74.9398 46.27C74.8853 46.4059 74.8989 46.5554 74.967 46.6777C75.1849 47.0447 80.3884 55.6881 88.0981 55.7017ZM77.5687 31.7691C83.5485 32.6253 92.7567 34.5959 93.5195 36.485C93.574 36.6073 93.6012 36.784 93.3969 37.0286C90.6181 40.5213 90.9314 46.7593 90.945 47.0311C90.945 47.0582 90.945 47.0854 90.9587 47.1126C90.9723 47.1534 91.9939 51.7605 90.3457 53.8398C89.8144 54.4921 89.0789 54.8183 88.0981 54.8183C81.5189 54.8047 76.6697 47.6834 75.866 46.4331C77.1056 43.1171 77.5006 34.0387 77.5687 31.7691Z" fill="black"/>
<path d="M112.235 103.241C112.235 103.241 117.82 94.8691 114.742 94.0265C111.65 93.1839 102.646 104.912 102.646 104.912" fill="white"/>
<path d="M102.646 105.361C102.782 105.361 102.918 105.306 103 105.184C106.419 100.74 112.576 93.9039 114.619 94.4611C114.878 94.529 115.041 94.6785 115.123 94.9096C115.682 96.3909 113.407 100.658 111.854 102.996C111.718 103.2 111.772 103.485 111.977 103.621C112.181 103.757 112.467 103.702 112.603 103.499C113.039 102.846 116.867 97.0025 115.968 94.597C115.777 94.0805 115.396 93.7408 114.851 93.5913C111.554 92.6943 103.218 103.417 102.278 104.64C102.128 104.844 102.169 105.116 102.36 105.279C102.455 105.333 102.551 105.361 102.646 105.361Z" fill="black"/>
<path d="M131.864 123.666L114.469 122.389C112.535 122.253 111.077 120.568 111.227 118.638L113.379 89.3915C113.516 87.4617 115.205 86.0076 117.139 86.1571L134.534 87.4345C136.468 87.5704 137.925 89.2556 137.776 91.1855L135.623 120.432C135.487 122.362 133.798 123.816 131.864 123.666Z" fill="#BF92FB"/>
<path d="M132.123 124.129C134.18 124.129 135.923 122.539 136.073 120.459L138.225 91.2129C138.389 89.0385 136.74 87.1358 134.561 86.9727L117.166 85.6952C116.104 85.6137 115.082 85.9535 114.279 86.6466C113.475 87.3397 112.984 88.3046 112.916 89.351L110.764 118.597C110.601 120.772 112.249 122.674 114.428 122.838L131.823 124.115C131.932 124.129 132.027 124.129 132.123 124.129ZM116.88 86.5922C116.962 86.5922 117.03 86.5922 117.112 86.6058L134.506 87.8833C136.196 88.0056 137.462 89.4734 137.34 91.1586L135.188 120.405C135.133 121.22 134.752 121.954 134.139 122.498C133.526 123.028 132.736 123.286 131.918 123.232L114.524 121.954C112.835 121.832 111.568 120.364 111.69 118.679L113.843 89.4326C113.897 88.6172 114.279 87.8833 114.891 87.3397C115.45 86.8504 116.145 86.5922 116.88 86.5922Z" fill="black"/>
<path d="M102.646 104.912L104.24 117.497C104.24 117.497 121.58 119.712 125.544 116.98C128.227 115.118 126.497 114.113 126.497 114.113C129.603 112.237 126.511 110.511 126.511 110.511C127.886 110.131 129.058 108.595 127.777 107.521C126.524 106.475 119.918 107.1 119.632 107.141C119.945 107.032 127.41 105.578 126.483 103.58C124.999 100.386 110.26 102.778 110.26 102.778" fill="white"/>
<path d="M116.771 118.788C120.585 118.788 124.195 118.448 125.789 117.347C126.947 116.545 127.519 115.743 127.492 114.982C127.478 114.656 127.355 114.384 127.206 114.167C127.968 113.596 128.336 112.971 128.323 112.305C128.309 111.585 127.832 110.987 127.41 110.606C128.091 110.212 128.609 109.587 128.745 108.935C128.881 108.282 128.649 107.644 128.064 107.168C127.383 106.597 125.585 106.461 123.732 106.461C125.503 105.836 126.524 105.184 126.865 104.477C127.042 104.11 127.042 103.73 126.879 103.376C125.299 99.9651 111.718 102.072 110.179 102.316C109.933 102.357 109.77 102.588 109.797 102.833C109.838 103.077 110.07 103.254 110.315 103.213C115.886 102.316 125.081 101.664 126.048 103.757C126.102 103.865 126.102 103.961 126.048 104.083C125.83 104.531 124.74 105.469 119.904 106.597C119.659 106.652 119.509 106.692 119.469 106.706C119.251 106.787 119.128 107.005 119.182 107.236C119.237 107.453 119.441 107.603 119.673 107.589C123.01 107.263 126.756 107.263 127.478 107.875C127.791 108.146 127.914 108.432 127.846 108.758C127.723 109.315 127.097 109.872 126.375 110.076C126.198 110.131 126.075 110.28 126.048 110.457C126.02 110.633 126.116 110.81 126.279 110.905C126.593 111.082 127.41 111.68 127.41 112.332C127.423 112.903 126.783 113.406 126.238 113.732C126.102 113.814 126.02 113.963 126.02 114.126C126.02 114.289 126.102 114.439 126.252 114.52C126.266 114.52 126.565 114.724 126.579 115.05C126.579 115.295 126.429 115.825 125.271 116.627C121.798 119.019 107.1 117.401 104.635 117.116L103.095 104.885C103.068 104.64 102.837 104.463 102.591 104.491C102.346 104.518 102.169 104.749 102.196 104.993L103.79 117.578C103.817 117.782 103.981 117.945 104.185 117.972C104.607 117.986 110.941 118.788 116.771 118.788Z" fill="black"/>
<path d="M120.027 111.626C120.041 111.626 120.054 111.626 120.081 111.626L126.565 110.946C126.811 110.919 127.001 110.702 126.974 110.443C126.947 110.199 126.742 110.022 126.47 110.036L119.986 110.715C119.741 110.742 119.55 110.96 119.577 111.218C119.605 111.449 119.795 111.626 120.027 111.626Z" fill="black"/>
<path d="M119.945 115.064C119.959 115.064 119.972 115.064 119.986 115.064L126.524 114.548C126.77 114.534 126.96 114.317 126.947 114.058C126.933 113.814 126.715 113.624 126.456 113.637L119.918 114.154C119.673 114.167 119.482 114.385 119.496 114.643C119.523 114.887 119.714 115.064 119.945 115.064Z" fill="black"/>
<path d="M103.654 118.651L95.8077 119.086L95.508 101.677L103.545 101.297C108.462 101.65 109.647 118.679 103.654 118.651Z" fill="#FD5D07"/>
<path d="M95.8075 119.549C95.8211 119.549 95.8211 119.549 95.8347 119.549L103.667 119.114C106.269 119.114 107.985 116.219 108.149 111.571C108.326 106.584 106.623 101.066 103.572 100.862C103.558 100.862 103.531 100.862 103.517 100.862L95.4806 101.243C95.2354 101.256 95.0447 101.46 95.0447 101.705L95.3443 119.114C95.3443 119.236 95.3988 119.358 95.4942 119.44C95.5759 119.508 95.6849 119.549 95.8075 119.549ZM103.653 118.203C103.64 118.203 103.64 118.203 103.626 118.203L96.257 118.611L95.9709 102.112L103.531 101.759C105.915 101.949 107.399 107.059 107.236 111.53C107.127 114.765 106.119 118.203 103.653 118.203Z" fill="black"/>
<path d="M97.0064 119.861C97.0064 119.861 94.9768 120.051 91.7349 120.242C80.9058 120.867 55.9239 124.373 49.2221 117.089C42.2479 109.533 50.4072 71.004 51.96 62.2791C53.5946 53.0648 60.3781 50.075 60.3781 50.075L69.8723 64.7661C72.5421 71.9418 67.366 100.916 67.366 100.916L93.2605 100.441L97.1971 100.182C102.646 100.346 102.455 120.011 97.0064 119.861Z" fill="white"/>
<path d="M70.7985 122.634C83.0988 122.634 95.8212 120.527 97.0472 120.323C98.0279 120.337 99.4173 119.793 100.453 117.225C101.147 115.512 101.556 113.175 101.638 110.647C101.787 105.455 100.453 99.8427 97.2106 99.7475L67.9107 100.468C68.6327 96.3228 72.8009 71.3709 70.2945 64.6302C70.2128 64.3991 69.9404 64.2768 69.7088 64.3583C69.4772 64.4399 69.3546 64.7117 69.4364 64.9427C72.0245 71.9282 66.9573 100.563 66.9164 100.862C66.8891 100.998 66.93 101.134 67.0253 101.242C67.1207 101.351 67.2433 101.406 67.3795 101.406L97.2106 100.672C97.9871 100.699 98.6954 101.256 99.2947 102.357C101.311 106.081 101.188 114.575 99.0632 118.026C98.4774 118.991 97.7964 119.467 97.0199 119.44C96.9927 119.44 96.9654 119.44 96.9246 119.44C96.5432 119.508 57.9943 125.977 49.549 116.817C43.2149 109.954 49.7941 73.0154 52.5865 60.621C54.0304 54.2336 60.5279 50.537 60.596 50.5098C60.8139 50.3875 60.8957 50.1157 60.7731 49.8983C60.6505 49.6808 60.3781 49.5993 60.1601 49.7216C59.8741 49.8847 53.2404 53.6492 51.7148 60.4308C51.6058 60.9064 41.0355 108.907 48.8951 117.442C52.6138 121.451 61.5768 122.634 70.7985 122.634Z" fill="black"/>
<path d="M77.1733 32.3803C77.1733 32.3803 77.0916 32.3395 76.9418 32.258C75.8248 31.66 71.1663 28.874 72.9915 24.7697C75.062 20.1219 80.1428 23.4787 80.1428 23.4787C80.1428 23.4787 84.8286 6.47718 96.8564 8.17597C98.5864 8.42059 100.112 9.94271 101.338 12.2259C105.874 20.6247 106.446 39.2027 99.1585 41.2412C92.6338 43.0623 86.94 40.5753 82.9761 37.7757" fill="white"/>
<path d="M94.6906 42.3146C96.1617 42.3146 97.7009 42.1244 99.281 41.6759C101.12 41.1594 102.564 39.6917 103.585 37.2998C106.269 31.0211 105.356 18.7218 101.733 12.0082C100.357 9.45324 98.6953 7.98549 96.9109 7.72727C85.8911 6.16439 80.8375 19.8362 79.8704 22.7989C78.9713 22.3233 77.0507 21.5078 75.2663 22.0243C74.0812 22.364 73.1686 23.2338 72.5692 24.5929C70.5941 29.0233 75.5387 32.0132 76.6693 32.6383C76.6829 32.6519 76.6966 32.6655 76.7238 32.6655C76.8736 32.747 76.969 32.7878 76.969 32.7878C77.1869 32.8965 77.4594 32.8014 77.5683 32.584C77.6773 32.3529 77.5819 32.0947 77.364 31.9724C77.364 31.9724 77.2959 31.9452 77.1869 31.8773C77.1733 31.8637 77.1597 31.8637 77.1461 31.8501C75.852 31.157 71.7656 28.6156 73.4001 24.9462C73.8905 23.8454 74.5988 23.1523 75.5115 22.8805C77.5002 22.2961 79.8567 23.8318 79.8704 23.8454C79.993 23.9269 80.1428 23.9405 80.279 23.8862C80.4152 23.8318 80.5242 23.7231 80.5514 23.5872C80.5923 23.4241 85.2645 6.97981 96.761 8.62423C98.2322 8.82809 99.6761 10.1463 100.902 12.4431C104.43 18.9665 105.302 30.8716 102.714 36.9464C101.815 39.0665 100.561 40.3712 98.995 40.8061C92.4839 42.6272 86.8173 39.9635 83.194 37.4085C82.9897 37.259 82.7036 37.3134 82.5674 37.5172C82.4176 37.7211 82.4721 38.0065 82.6764 38.1424C85.6186 40.1945 89.8005 42.3146 94.6906 42.3146Z" fill="black"/>
<path d="M101.338 12.2398C97.3605 15.7053 87.5257 15.1753 85.7958 16.0315C83.63 17.1051 84.0114 27.1076 82.5675 26.6727C81.1236 26.2378 80.1429 23.4926 80.1429 23.4926C80.1429 23.4926 75.0621 20.1494 72.9916 24.7837C71.1663 28.8879 75.8249 31.674 76.9418 32.2719C76.9418 32.2719 74.7215 35.6287 69.9676 30.478C64.6961 24.7701 62.0535 11.968 75.8249 4.03125C88.1523 -3.07648 103.136 1.38114 103.013 8.71991C102.986 10.2148 102.36 11.3564 101.338 12.2398Z" fill="black"/>
<path d="M74.749 33.7939C74.8443 33.7939 74.9397 33.7939 75.035 33.7803C76.547 33.658 77.2962 32.5572 77.3235 32.5164C77.3643 32.4621 77.378 32.3941 77.3916 32.3262C77.4188 32.1359 77.3235 31.9456 77.16 31.8641C75.866 31.171 71.7795 28.6296 73.4141 24.9602C73.9045 23.8594 74.6128 23.1663 75.5254 22.8945C77.2553 22.3916 79.2577 23.4789 79.7753 23.7779C80.0341 24.4302 80.9877 26.659 82.4452 27.0939C82.6631 27.1618 82.881 27.1211 83.0717 26.9988C83.712 26.5911 83.9299 25.1777 84.2977 22.5275C84.6246 20.1492 85.0605 16.8876 86.014 16.4255C86.4907 16.1809 87.921 16.0586 89.5692 15.8955C93.4786 15.5285 98.8318 15.0121 101.651 12.5659C102.837 11.533 103.463 10.2419 103.49 8.71979C103.531 6.27353 102.033 4.03113 99.2541 2.40029C93.9553 -0.711889 84.1478 -1.28268 75.6344 3.62342C68.2652 7.87719 66.0312 13.2182 65.4727 16.9419C64.5737 22.8129 67.0528 27.9365 69.6682 30.7633C71.4798 32.7882 73.1961 33.7939 74.749 33.7939ZM76.2201 32.3805C75.9477 32.598 75.5254 32.8426 74.9397 32.897C73.632 32.9921 72.0383 32.0544 70.2948 30.1789C67.9382 27.6239 65.4727 22.6499 66.3309 17.105C67.1073 12.0358 70.4718 7.65974 76.0567 4.43884C84.2704 -0.30418 93.6965 0.239433 98.7637 3.21571C101.243 4.66988 102.591 6.62688 102.551 8.73338C102.523 10.0109 102.033 11.0437 101.025 11.9135C98.4368 14.1695 93.0291 14.6859 89.4466 15.0257C87.5668 15.2024 86.2047 15.3383 85.5781 15.6508C84.2023 16.3304 83.7801 19.4425 83.3714 22.446C83.1807 23.8866 82.9083 25.8164 82.595 26.2377C81.6279 25.8572 80.7969 24.0497 80.5518 23.3566C80.5245 23.2614 80.4564 23.1799 80.3747 23.1255C80.2657 23.0576 77.6504 21.3588 75.253 22.0519C74.0679 22.3916 73.1553 23.2614 72.5559 24.6205C70.7988 28.5752 74.5991 31.3884 76.2201 32.3805Z" fill="black"/>
<path d="M91.8482 24.8901C91.7097 24.1524 92.0591 23.4681 92.6285 23.3618C93.1978 23.2554 93.7716 23.7673 93.91 24.505C94.0484 25.2428 93.6991 25.927 93.1297 26.0334C92.5604 26.1397 91.9866 25.6279 91.8482 24.8901Z" fill="black"/>
<path d="M98.4883 22.8105C98.3499 22.0728 98.6992 21.3885 99.2686 21.2822C99.8379 21.1759 100.412 21.6877 100.55 22.4254C100.689 23.1632 100.339 23.8474 99.7699 23.9538C99.2005 24.0601 98.6267 23.5483 98.4883 22.8105Z" fill="black"/>
<path d="M93.3149 20.5842C93.3149 20.5842 91.3535 19.7688 89.5827 21.9296L93.3149 20.5842Z" fill="white"/>
<path d="M89.5692 22.3919C89.7055 22.3919 89.8281 22.3375 89.9234 22.2288C91.449 20.3805 93.07 20.9921 93.1381 21.0193C93.3697 21.1144 93.6285 21.0057 93.7238 20.7746C93.8192 20.5436 93.7102 20.2854 93.4786 20.1902C93.3833 20.1495 91.1902 19.2797 89.2151 21.658C89.0516 21.8483 89.0789 22.1337 89.2832 22.2967C89.3649 22.3511 89.4739 22.3919 89.5692 22.3919Z" fill="black"/>
<path d="M100.834 19.0217C100.834 19.0217 98.873 18.2063 97.1022 20.3671L100.834 19.0217Z" fill="white"/>
<path d="M97.102 20.8155C97.2382 20.8155 97.3608 20.7611 97.4561 20.6524C98.9817 18.8041 100.603 19.4157 100.671 19.4428C100.902 19.538 101.161 19.4292 101.257 19.1982C101.352 18.9672 101.243 18.709 101.011 18.6138C100.916 18.5731 98.7093 17.7033 96.7478 20.0816C96.5843 20.2718 96.6116 20.5572 96.8159 20.7203C96.8976 20.7747 96.993 20.8155 97.102 20.8155Z" fill="black"/>
<path d="M97.1569 24.5671C97.9333 26.5106 98.7233 28.4404 99.4998 30.3838C99.6224 30.6964 99.7586 31.0361 99.7177 31.3759C99.6768 31.8244 99.3499 32.1913 98.9549 32.4223C98.5599 32.6534 98.124 32.7349 97.6881 32.83" fill="white"/>
<path d="M97.7015 33.2779C97.7288 33.2779 97.7696 33.2779 97.7969 33.2644C98.2464 33.1692 98.7504 33.0605 99.1999 32.8023C99.7584 32.4761 100.126 31.9597 100.181 31.4161C100.221 30.954 100.058 30.5463 99.9218 30.2065L97.5789 24.3899C97.4836 24.1588 97.2248 24.0501 96.9932 24.1453C96.7616 24.2404 96.6527 24.4986 96.748 24.7296L99.0773 30.5463C99.1863 30.8181 99.2952 31.0899 99.268 31.3209C99.2408 31.6199 98.9683 31.8781 98.7368 32.014C98.4098 32.2043 98.0012 32.2858 97.6062 32.381C97.361 32.4353 97.2111 32.6664 97.252 32.911C97.2929 33.142 97.4836 33.2779 97.7015 33.2779Z" fill="black"/>
<path d="M94.5545 36.1721C95.9847 36.9196 97.7419 37.0283 99.2539 36.4711L94.5545 36.1721Z" fill="white"/>
<path d="M97.2517 37.2734C97.9873 37.2734 98.7229 37.1511 99.4176 36.8929C99.6491 36.8113 99.7717 36.5395 99.69 36.3085C99.6083 36.0775 99.3494 35.9551 99.1043 36.0367C97.7149 36.5531 96.0939 36.4444 94.7726 35.7649C94.5547 35.6426 94.2823 35.7377 94.1597 35.9551C94.0507 36.1726 94.1324 36.4444 94.3504 36.5667C95.2358 37.0424 96.2437 37.2734 97.2517 37.2734Z" fill="black"/>
<path d="M90.8901 77.5956C91.0944 77.5956 91.2851 77.4597 91.326 77.2422C93.0151 69.8083 92.1433 61.9124 88.8605 55.0221C88.7515 54.791 88.4791 54.6959 88.2611 54.8046C88.0296 54.9134 87.9342 55.1852 88.0432 55.4026C91.2306 62.1162 92.0888 69.7948 90.4406 77.0248C90.3861 77.2694 90.5359 77.5141 90.7811 77.5684C90.822 77.5956 90.8492 77.5956 90.8901 77.5956Z" fill="black"/>
<path d="M92.9769 64.0799C92.3033 63.9212 91.8862 63.2478 92.0453 62.5758C92.2043 61.9037 92.8793 61.4876 93.5529 61.6463C94.2264 61.805 94.6435 62.4784 94.4845 63.1504C94.3254 63.8224 93.6505 64.2386 92.9769 64.0799Z" fill="#FD5D07"/>
<path d="M93.3436 68.595C92.8542 68.1068 92.8542 67.3151 93.3436 66.8268C93.833 66.3386 94.6264 66.3386 95.1158 66.8268C95.6052 67.3151 95.6052 68.1068 95.1158 68.595C94.6264 69.0833 93.833 69.0833 93.3436 68.595Z" fill="#FD5D07"/>
<path d="M93.8211 73.5838C93.3317 73.0955 93.3317 72.3039 93.8211 71.8156C94.3105 71.3273 95.104 71.3273 95.5934 71.8156C96.0828 72.3039 96.0828 73.0955 95.5934 73.5838C95.104 74.0721 94.3105 74.0721 93.8211 73.5838Z" fill="#FD5D07"/>
<path d="M83.521 18.5728C83.9433 16.2081 85.7549 14.1016 88.0434 13.3406C89.3374 12.9057 90.7677 12.8649 92.1434 12.8241L92.7837 12.797C94.4863 12.729 96.2571 12.5523 97.7555 11.669C99.2266 10.7992 100.48 8.93731 100.03 7.07544L99.1449 7.29289C99.4991 8.73346 98.4774 10.1876 97.2924 10.8943C95.9711 11.669 94.3365 11.8321 92.7564 11.8864L92.1162 11.9136C90.6723 11.9544 89.1739 12.0087 87.7573 12.4844C85.1692 13.3542 83.1124 15.7461 82.6356 18.4234L83.521 18.5728Z" fill="white"/>
<path d="M69.1911 20.0543L70.0765 19.8912C69.6679 17.7032 69.9539 15.3792 70.8802 13.3543C71.8065 11.3293 73.3865 9.60333 75.3208 8.48892L74.8713 7.70068C72.7736 8.91022 71.0709 10.7857 70.0629 12.9737C69.0549 15.1754 68.7416 17.6896 69.1911 20.0543Z" fill="white"/>
<path d="M93.7373 5.41769L94.4048 4.80613C92.525 2.75399 89.4466 1.84344 86.7359 2.56372L86.9674 3.4335C89.3648 2.80835 92.0755 3.59659 93.7373 5.41769Z" fill="white"/>
<path d="M219.354 135.48C196.377 135.48 172 131.98 172 125.398V102.014H173.401V125.398C173.401 129.459 192.314 134.08 219.354 134.08C246.533 134.08 265.306 129.599 265.306 125.398V102.014H266.707V125.398C266.707 131.98 242.33 135.48 219.354 135.48Z" fill="#FD5D07"/>
<path d="M219.354 112.096C196.377 112.096 172 108.595 172 102.014C172 100.334 173.541 98.7935 176.623 97.5332L177.184 98.7935C174.802 99.9137 173.401 101.034 173.401 102.014C173.401 106.075 192.314 110.696 219.354 110.696C246.533 110.696 265.306 106.215 265.306 102.014C265.306 100.894 263.765 99.6336 260.963 98.5134L261.524 97.2532C265.026 98.6534 266.707 100.194 266.707 102.014C266.707 108.595 242.33 112.096 219.354 112.096Z" fill="#FD5D07"/>
<path d="M219.354 104.394C196.377 104.394 172 100.894 172 94.3125V70.9282H173.401V94.3125C173.401 98.3732 192.314 102.994 219.354 102.994C246.533 102.994 265.306 98.5133 265.306 94.3125V70.9282H266.707V94.3125C266.707 100.894 242.33 104.394 219.354 104.394Z" fill="#FD5D07"/>
<path d="M219.354 80.8701C196.377 80.8701 172 77.3695 172 70.7883C172 69.388 172.981 68.1278 175.082 67.0076L175.783 68.2678C174.242 69.1079 173.401 69.9481 173.401 70.7883C173.401 74.849 192.314 79.4698 219.354 79.4698C246.533 79.4698 265.306 74.989 265.306 70.7883C265.306 69.9481 264.466 69.1079 262.785 68.2678L263.485 67.0076C265.587 68.1278 266.707 69.388 266.707 70.7883C266.707 77.3695 242.33 80.8701 219.354 80.8701Z" fill="#FD5D07"/>
<path d="M209.687 95.7129C208.006 95.7129 206.745 94.4526 206.745 92.7723C206.745 91.092 208.006 89.8318 209.687 89.8318C211.368 89.8318 212.629 91.092 212.629 92.7723C212.629 94.4526 211.368 95.7129 209.687 95.7129ZM209.687 91.232C208.846 91.232 208.146 91.9322 208.146 92.7723C208.146 93.6125 208.846 94.3126 209.687 94.3126C210.527 94.3126 211.228 93.6125 211.228 92.7723C211.368 91.9322 210.667 91.232 209.687 91.232Z" fill="#FD5D07"/>
<path d="M219.354 95.7129C217.673 95.7129 216.412 94.4526 216.412 92.7723C216.412 91.092 217.673 89.8318 219.354 89.8318C221.035 89.8318 222.296 91.092 222.296 92.7723C222.296 94.4526 220.895 95.7129 219.354 95.7129ZM219.354 91.232C218.513 91.232 217.813 91.9322 217.813 92.7723C217.813 93.6125 218.513 94.3126 219.354 94.3126C220.194 94.3126 220.895 93.6125 220.895 92.7723C220.895 91.9322 220.194 91.232 219.354 91.232Z" fill="#FD5D07"/>
<path d="M219.354 125.958C217.673 125.958 216.412 124.698 216.412 123.018C216.412 121.338 217.673 120.077 219.354 120.077C221.035 120.077 222.296 121.338 222.296 123.018C222.296 124.698 220.895 125.958 219.354 125.958ZM219.354 121.478C218.513 121.478 217.813 122.178 217.813 123.018C217.813 123.858 218.513 124.558 219.354 124.558C220.194 124.558 220.895 123.858 220.895 123.018C220.895 122.178 220.194 121.478 219.354 121.478Z" fill="#FD5D07"/>
<path d="M228.881 125.958C227.199 125.958 225.938 124.698 225.938 123.018C225.938 121.338 227.199 120.077 228.881 120.077C230.562 120.077 231.823 121.338 231.823 123.018C231.823 124.698 230.422 125.958 228.881 125.958ZM228.881 121.478C228.04 121.478 227.339 122.178 227.339 123.018C227.339 123.858 228.04 124.558 228.881 124.558C229.721 124.558 230.422 123.858 230.422 123.018C230.422 122.178 229.721 121.478 228.881 121.478Z" fill="#FD5D07"/>
<path d="M219.354 74.149C196.377 74.149 172 70.6483 172 64.0671V40.6829H173.401V64.0671C173.401 68.1279 192.314 72.7487 219.354 72.7487C246.533 72.7487 265.306 68.2679 265.306 64.0671V40.6829H266.707V64.0671C266.707 70.6483 242.33 74.149 219.354 74.149Z" fill="#FD5D07"/>
<path d="M219.354 50.6246C196.377 50.6246 172 47.124 172 40.5428C172 35.9219 184.049 33.5415 191.194 32.4213L191.334 33.8215C178.024 35.7819 173.261 38.7224 173.261 40.5428C173.261 44.6035 192.174 49.2243 219.214 49.2243C246.393 49.2243 265.166 44.7435 265.166 40.5428C265.166 38.5824 260.263 35.6419 246.533 33.6815L246.673 32.2812C254.098 33.4015 266.427 35.9219 266.427 40.5428C266.707 47.124 242.33 50.6246 219.354 50.6246Z" fill="#FD5D07"/>
<path d="M209.687 64.4873C208.006 64.4873 206.745 63.227 206.745 61.5467C206.745 59.8664 208.006 58.6062 209.687 58.6062C211.368 58.6062 212.629 59.8664 212.629 61.5467C212.769 63.227 211.368 64.4873 209.687 64.4873ZM209.687 60.0065C208.846 60.0065 208.146 60.7066 208.146 61.5467C208.146 62.3869 208.846 63.087 209.687 63.087C210.527 63.087 211.228 62.3869 211.228 61.5467C211.368 60.7066 210.667 60.0065 209.687 60.0065Z" fill="#FD5D07"/>
<path d="M228.881 64.4873C227.199 64.4873 225.798 63.227 225.798 61.5467C225.798 59.8664 227.059 58.6062 228.74 58.6062C230.422 58.6062 231.683 59.8664 231.683 61.5467C231.823 63.227 230.422 64.4873 228.881 64.4873ZM228.881 60.0065C228.04 60.0065 227.339 60.7066 227.339 61.5467C227.339 62.3869 228.04 63.087 228.881 63.087C229.721 63.087 230.422 62.3869 230.422 61.5467C230.422 60.7066 229.721 60.0065 228.881 60.0065Z" fill="#FD5D07"/>
<path d="M219.354 46.1439C202.542 46.1439 185.45 43.7635 185.45 39.1427C185.45 37.6024 187.271 36.2021 190.914 35.0819L191.334 36.4822C187.972 37.4624 186.851 38.5826 186.851 39.1427C186.851 41.5231 199.179 44.7437 219.354 44.7437C239.528 44.7437 251.857 41.5231 251.857 39.1427C251.857 38.4425 250.456 37.3223 246.673 36.3422L247.094 34.9419C251.297 36.0621 253.258 37.4624 253.258 39.1427C253.258 43.7635 236.166 46.1439 219.354 46.1439Z" fill="#FD5D07"/>
<path d="M218.653 46.1439C197.919 46.1439 191.614 43.3434 191.334 43.2033L190.914 43.0633V31.1611H192.315V42.0831C193.996 42.6432 201.141 44.7436 218.513 44.7436C236.166 44.7436 244.011 42.6432 245.973 42.0831V31.1611H247.374V43.0633L246.953 43.2033C246.813 43.3434 239.388 46.1439 218.653 46.1439Z" fill="#FD5D07"/>
<path d="M219.354 37.3223C208.006 37.3223 191.054 35.6419 191.054 31.1611C191.054 26.6803 208.006 25 219.354 25C230.702 25 247.654 26.6803 247.654 31.1611C247.514 35.6419 230.702 37.3223 219.354 37.3223ZM219.354 26.2602C202.682 26.2602 192.455 29.0607 192.455 31.0211C192.455 32.9815 202.682 35.782 219.354 35.782C236.026 35.782 246.253 32.9815 246.253 31.0211C246.113 29.0607 235.886 26.2602 219.354 26.2602Z" fill="#FD5D07"/>
<path d="M209.687 127.779C207.025 127.779 204.923 125.678 204.923 123.018C204.923 120.357 207.025 118.257 209.687 118.257C212.349 118.257 214.45 120.357 214.45 123.018C214.45 125.678 212.349 127.779 209.687 127.779ZM209.687 119.657C207.865 119.657 206.324 121.198 206.324 123.018C206.324 124.838 207.865 126.379 209.687 126.379C211.508 126.379 213.049 124.838 213.049 123.018C213.049 121.198 211.648 119.657 209.687 119.657Z" fill="#FD5D07"/>
<path d="M228.881 97.5332C226.219 97.5332 224.117 95.4328 224.117 92.7723C224.117 90.1118 226.219 88.0115 228.881 88.0115C231.542 88.0115 233.644 90.1118 233.644 92.7723C233.504 95.2928 231.402 97.5332 228.881 97.5332ZM228.881 89.4117C227.059 89.4117 225.518 90.952 225.518 92.7723C225.518 94.5927 227.059 96.133 228.881 96.133C230.702 96.133 232.243 94.5927 232.243 92.7723C232.103 90.952 230.702 89.4117 228.881 89.4117Z" fill="#FD5D07"/>
<path d="M219.354 66.3076C216.692 66.3076 214.59 64.2072 214.59 61.5468C214.59 58.8863 216.692 56.7859 219.354 56.7859C222.016 56.7859 224.117 58.8863 224.117 61.5468C223.977 64.2072 221.876 66.3076 219.354 66.3076ZM219.354 58.1861C217.532 58.1861 215.991 59.7264 215.991 61.5468C215.991 63.3671 217.532 64.9074 219.354 64.9074C221.175 64.9074 222.716 63.3671 222.716 61.5468C222.576 59.7264 221.175 58.1861 219.354 58.1861Z" fill="#FD5D07"/>
<path d="M259.243 149.445V169.767C259.243 172.545 256.978 174.805 254.194 174.805H177.457C174.673 174.805 172.408 172.545 172.408 169.767V149.433C172.408 146.655 174.673 144.395 177.457 144.395H254.194C256.978 144.408 259.243 146.655 259.243 149.445Z" fill="black"/>
<path d="M254.194 175.224H177.457C174.45 175.224 172 172.78 172 169.78V149.445C172 146.445 174.45 144 177.457 144H254.194C257.201 144 259.652 146.445 259.652 149.445V169.767C259.652 172.78 257.201 175.224 254.194 175.224ZM177.457 144.815C174.896 144.815 172.817 146.889 172.817 149.445V169.767C172.817 172.323 174.896 174.397 177.457 174.397H254.194C256.756 174.397 258.835 172.323 258.835 169.767V149.432C258.835 146.877 256.756 144.803 254.194 144.803H177.457V144.815Z" fill="black"/>
<path d="M265.604 149.445V169.767C265.604 172.545 263.339 174.805 260.555 174.805H183.805C181.021 174.805 178.756 172.545 178.756 169.767V149.433C178.756 146.655 181.021 144.395 183.805 144.395H260.542C263.339 144.408 265.604 146.655 265.604 149.445Z" fill="white"/>
<path d="M260.555 175.224H183.805C180.798 175.224 178.348 172.78 178.348 169.78V149.445C178.348 146.445 180.798 144 183.805 144H260.542C263.549 144 266 146.445 266 149.445V169.767C266.012 172.78 263.562 175.224 260.555 175.224ZM183.805 144.815C181.244 144.815 179.165 146.889 179.165 149.445V169.767C179.165 172.323 181.244 174.397 183.805 174.397H260.542C263.104 174.397 265.183 172.323 265.183 169.767V149.432C265.183 146.877 263.104 144.803 260.542 144.803H183.805V144.815Z" fill="black"/>
<path d="M255.741 163.918C258.128 162.932 259.262 160.202 258.273 157.821C257.284 155.439 254.548 154.308 252.161 155.295C249.774 156.281 248.641 159.011 249.63 161.393C250.618 163.774 253.355 164.905 255.741 163.918Z" fill="#BF92FB"/>
<path d="M253.947 164.693C251.138 164.693 248.848 162.409 248.848 159.607C248.848 156.804 251.138 154.52 253.947 154.52C256.756 154.52 259.045 156.804 259.045 159.607C259.033 162.409 256.756 164.693 253.947 164.693ZM253.947 155.347C251.595 155.347 249.677 157.261 249.677 159.607C249.677 161.952 251.595 163.866 253.947 163.866C256.298 163.866 258.216 161.952 258.216 159.607C258.216 157.261 256.298 155.347 253.947 155.347Z" fill="black"/>
<path d="M244.866 160.687C245.459 158.179 243.902 155.665 241.388 155.073C238.874 154.48 236.355 156.034 235.761 158.542C235.167 161.05 236.724 163.564 239.238 164.156C241.753 164.749 244.272 163.195 244.866 160.687Z" fill="#FEC524"/>
<path d="M240.322 164.693C237.513 164.693 235.223 162.408 235.223 159.606C235.223 156.803 237.513 154.519 240.322 154.519C243.131 154.519 245.42 156.803 245.42 159.606C245.408 162.408 243.131 164.693 240.322 164.693ZM240.322 155.346C237.97 155.346 236.052 157.26 236.052 159.606C236.052 161.952 237.97 163.865 240.322 163.865C242.673 163.865 244.591 161.952 244.591 159.606C244.591 157.26 242.673 155.346 240.322 155.346Z" fill="black"/>
<path d="M188.124 152.554C188.293 151.837 187.849 151.119 187.13 150.95C186.412 150.781 185.692 151.225 185.522 151.941C185.353 152.658 185.798 153.376 186.516 153.545C187.234 153.715 187.954 153.271 188.124 152.554Z" fill="black"/>
<path d="M193.642 153.177C194.164 152.657 194.164 151.812 193.642 151.292C193.12 150.771 192.274 150.771 191.752 151.292C191.23 151.812 191.23 152.657 191.752 153.177C192.274 153.698 193.12 153.698 193.642 153.177Z" fill="black"/>
<path d="M199.508 153.177C200.03 152.657 200.03 151.812 199.508 151.292C198.986 150.771 198.14 150.771 197.618 151.292C197.096 151.812 197.096 152.657 197.618 153.177C198.14 153.698 198.986 153.698 199.508 153.177Z" fill="black"/>
<path d="M205.374 153.178C205.896 152.657 205.896 151.813 205.374 151.292C204.852 150.772 204.006 150.772 203.484 151.292C202.962 151.813 202.962 152.657 203.484 153.178C204.006 153.699 204.852 153.699 205.374 153.178Z" fill="black"/>
<path d="M211.239 153.179C211.761 152.658 211.761 151.814 211.239 151.293C210.717 150.772 209.871 150.772 209.349 151.293C208.827 151.814 208.827 152.658 209.349 153.179C209.871 153.7 210.717 153.7 211.239 153.179Z" fill="black"/>
<path d="M217.106 153.179C217.628 152.658 217.628 151.814 217.106 151.293C216.584 150.773 215.737 150.773 215.216 151.293C214.694 151.814 214.694 152.658 215.216 153.179C215.737 153.7 216.584 153.7 217.106 153.179Z" fill="black"/>
<path d="M188.131 162.376C188.301 161.66 187.856 160.942 187.138 160.772C186.419 160.603 185.699 161.047 185.53 161.764C185.36 162.48 185.805 163.198 186.523 163.368C187.242 163.537 187.962 163.093 188.131 162.376Z" fill="black"/>
<path d="M193.648 163.003C194.17 162.482 194.17 161.638 193.648 161.117C193.126 160.596 192.279 160.596 191.758 161.117C191.236 161.638 191.236 162.482 191.758 163.003C192.279 163.523 193.126 163.523 193.648 163.003Z" fill="black"/>
<path d="M199.513 163.003C200.035 162.483 200.035 161.638 199.513 161.118C198.991 160.597 198.145 160.597 197.623 161.118C197.101 161.638 197.101 162.483 197.623 163.003C198.145 163.524 198.991 163.524 199.513 163.003Z" fill="black"/>
<path d="M205.38 163.004C205.901 162.483 205.901 161.639 205.38 161.118C204.858 160.597 204.011 160.597 203.489 161.118C202.968 161.639 202.968 162.483 203.489 163.004C204.011 163.525 204.858 163.525 205.38 163.004Z" fill="black"/>
<path d="M211.245 163.004C211.767 162.484 211.767 161.639 211.245 161.119C210.723 160.598 209.877 160.598 209.355 161.119C208.833 161.639 208.833 162.484 209.355 163.004C209.877 163.525 210.723 163.525 211.245 163.004Z" fill="black"/>
<path d="M217.111 163.005C217.633 162.484 217.633 161.64 217.111 161.119C216.589 160.598 215.743 160.598 215.221 161.119C214.699 161.64 214.699 162.484 215.221 163.005C215.743 163.525 216.589 163.525 217.111 163.005Z" fill="black"/>
<path d="M190.712 158.09C191.234 157.57 191.234 156.725 190.712 156.205C190.19 155.684 189.344 155.684 188.822 156.205C188.3 156.725 188.3 157.57 188.822 158.09C189.344 158.611 190.19 158.611 190.712 158.09Z" fill="black"/>
<path d="M196.927 157.466C197.097 156.749 196.652 156.031 195.933 155.862C195.215 155.693 194.495 156.136 194.326 156.853C194.156 157.57 194.601 158.288 195.319 158.457C196.038 158.627 196.757 158.183 196.927 157.466Z" fill="black"/>
<path d="M202.793 157.467C202.963 156.751 202.518 156.032 201.8 155.863C201.081 155.694 200.362 156.138 200.192 156.854C200.022 157.571 200.467 158.289 201.185 158.459C201.904 158.628 202.624 158.184 202.793 157.467Z" fill="black"/>
<path d="M208.659 157.468C208.829 156.751 208.384 156.033 207.666 155.864C206.948 155.695 206.228 156.138 206.058 156.855C205.888 157.572 206.333 158.29 207.052 158.459C207.77 158.628 208.49 158.185 208.659 157.468Z" fill="black"/>
<path d="M214.526 157.468C214.696 156.752 214.251 156.034 213.533 155.864C212.814 155.695 212.094 156.139 211.925 156.856C211.755 157.572 212.2 158.291 212.918 158.46C213.637 158.629 214.357 158.185 214.526 157.468Z" fill="black"/>
<path d="M220.392 157.469C220.562 156.753 220.117 156.034 219.399 155.865C218.68 155.696 217.961 156.14 217.791 156.856C217.621 157.573 218.066 158.291 218.785 158.46C219.503 158.63 220.223 158.186 220.392 157.469Z" fill="black"/>
<path d="M190.717 167.916C191.239 167.395 191.239 166.551 190.717 166.03C190.196 165.509 189.349 165.509 188.827 166.03C188.305 166.551 188.305 167.395 188.827 167.916C189.349 168.437 190.195 168.436 190.717 167.916Z" fill="black"/>
<path d="M196.934 167.289C197.103 166.572 196.659 165.854 195.94 165.685C195.222 165.515 194.502 165.959 194.333 166.676C194.163 167.393 194.608 168.111 195.326 168.28C196.044 168.449 196.764 168.005 196.934 167.289Z" fill="black"/>
<path d="M202.801 167.29C202.97 166.573 202.525 165.855 201.807 165.685C201.089 165.516 200.369 165.96 200.199 166.677C200.03 167.393 200.474 168.112 201.193 168.281C201.911 168.45 202.631 168.006 202.801 167.29Z" fill="black"/>
<path d="M208.667 167.29C208.836 166.574 208.392 165.855 207.673 165.686C206.955 165.517 206.235 165.961 206.065 166.677C205.896 167.394 206.341 168.112 207.059 168.282C207.777 168.451 208.497 168.007 208.667 167.29Z" fill="black"/>
<path d="M214.533 167.291C214.703 166.574 214.258 165.856 213.539 165.687C212.821 165.517 212.101 165.961 211.932 166.678C211.762 167.395 212.207 168.113 212.925 168.282C213.644 168.451 214.363 168.007 214.533 167.291Z" fill="black"/>
<path d="M220.4 167.291C220.569 166.575 220.124 165.856 219.406 165.687C218.688 165.518 217.968 165.962 217.798 166.678C217.629 167.395 218.074 168.113 218.792 168.282C219.51 168.452 220.23 168.008 220.4 167.291Z" fill="black"/>
<path d="M15.6239 15.7485C13.762 15.7485 11.9843 14.6626 10.2652 13.6124C8.68349 12.6461 7.04785 11.647 5.53221 11.647C2.61932 11.647 1.52979 13.2899 1.51962 13.3064C1.28268 13.6926 0.777615 13.8135 0.391417 13.5766C0.00525902 13.3396 -0.115695 12.8345 0.12125 12.4484C0.182444 12.3487 1.66416 10.0063 5.53221 10.0063C7.50931 10.0063 9.34511 11.1278 11.1205 12.2123C12.7162 13.1872 14.2234 14.1079 15.6239 14.1079C16.8198 14.1079 17.8434 13.8134 18.6662 13.2326C19.2292 12.8353 19.4778 12.4527 19.48 12.449C19.7166 12.0626 20.2216 11.9412 20.6079 12.1778C20.9943 12.4144 21.1158 12.9194 20.8792 13.3057C20.8181 13.4055 19.3407 15.7485 15.6239 15.7485ZM20.8792 17.8584C21.1158 17.472 20.9943 16.9671 20.6079 16.7305C20.2216 16.4939 19.7166 16.6153 19.48 17.0017C19.4778 17.0054 19.2292 17.388 18.6662 17.7853C17.8434 18.3661 16.8198 18.6605 15.6239 18.6605C14.2234 18.6605 12.7162 17.7398 11.1205 16.765C9.34511 15.6805 7.50931 14.559 5.53221 14.559C1.66416 14.559 0.182444 16.9014 0.12125 17.0011C-0.115695 17.3872 0.00525902 17.8923 0.391417 18.1293C0.777615 18.3661 1.28268 18.2453 1.51962 17.8591C1.52979 17.8425 2.61932 16.1996 5.53221 16.1996C7.04785 16.1996 8.68349 17.1988 10.2652 18.1651C11.9843 19.2152 13.762 20.3393 15.6239 20.3393C19.3407 20.3392 20.8181 17.9582 20.8792 17.8584ZM20.8792 22.3701C21.1158 21.9837 20.9943 21.4788 20.6079 21.2422C20.2216 21.0055 19.7166 21.127 19.48 21.5134C19.4778 21.5171 19.2292 21.8996 18.6662 22.2969C17.8434 22.8777 16.8198 23.1722 15.6239 23.1722C14.2234 23.1722 12.7162 22.2515 11.1205 21.2767C9.34511 20.1922 7.50931 19.0707 5.53221 19.0707C1.66416 19.0707 0.182444 21.413 0.12125 21.5127C-0.115695 21.8989 0.00525902 22.404 0.391417 22.6409C0.777615 22.8778 1.28268 22.757 1.51962 22.3708C1.52979 22.3542 2.61932 20.7113 5.53221 20.7113C7.04785 20.7113 8.68349 21.7105 10.2652 22.6767C11.9843 23.7269 13.762 24.8509 15.6239 24.8509C19.3407 24.8509 20.8181 22.4699 20.8792 22.3701ZM14.3791 28.3728C14.5469 27.952 14.3418 27.4748 13.921 27.307C13.016 26.9462 12.0953 26.3838 11.1205 25.7883C9.34511 24.7038 7.50931 23.5824 5.53221 23.5824C1.66416 23.5824 0.182444 25.9247 0.12125 26.0244C-0.115695 26.4106 0.00525902 26.9156 0.391417 27.1526C0.777615 27.3895 1.28268 27.2686 1.51962 26.8824C1.52979 26.8659 2.61932 25.223 5.53221 25.223C7.04785 25.223 8.68345 26.2221 10.2652 27.1884C11.2554 27.7933 12.2792 28.4187 13.3134 28.831C13.413 28.8708 13.5158 28.8896 13.6169 28.8896C13.9428 28.8895 14.2511 28.694 14.3791 28.3728ZM20.9999 26.4505C20.9999 25.9974 20.6326 25.6302 20.1796 25.6302C19.8791 25.6302 19.617 25.7923 19.4742 26.0333C19.3892 26.1579 18.8048 26.9554 17.4978 27.3957C17.0685 27.5404 16.8377 28.0057 16.9823 28.435C17.0977 28.7775 17.4171 28.9937 17.7596 28.9937C17.8464 28.9937 17.9348 28.9797 18.0216 28.9505C20.0032 28.2829 20.8444 26.9386 20.8792 26.8817L20.8772 26.8805C20.9545 26.7554 20.9999 26.6084 20.9999 26.4505Z" fill="url(#paint0_linear_175_489)"/>
<defs>
<linearGradient id="paint0_linear_175_489" x1="10.5" y1="10.0063" x2="10.5" y2="28.9937" gradientUnits="userSpaceOnUse">
<stop stop-color="#C19BFF"/>
<stop offset="1" stop-color="#FFADCB"/>
</linearGradient>
</defs>
</svg>
