<svg width="50" height="50" viewBox="0 0 50 50" fill="none" xmlns="http://www.w3.org/2000/svg">
<g clip-path="url(#clip0_138_6811)">
<path d="M47.0845 0.213135H2.91553C1.30781 0.213135 0 1.52104 0 3.12866V18.1851C0 18.5946 0.331738 18.9263 0.741211 18.9263C1.15068 18.9263 1.48242 18.5946 1.48242 18.1851V16.4001H48.5175V46.8713C48.5175 47.6615 47.8746 48.3044 47.0844 48.3044H2.91553C2.12539 48.3044 1.48242 47.6616 1.48242 46.8713V21.875C1.48242 21.4655 1.15068 21.1337 0.741211 21.1337C0.331738 21.1337 0 21.4655 0 21.875V46.8714C0 48.4792 1.30781 49.787 2.91553 49.787H47.0845C48.6922 49.787 50 48.4792 50 46.8714V15.6588V9.34585V3.12866C50 1.52104 48.6922 0.213135 47.0845 0.213135ZM48.5175 14.9176H1.53623V10.0872H48.5175V14.9176ZM48.5175 8.60464H1.48252V3.12866C1.48252 2.33853 2.12539 1.69565 2.91563 1.69565H47.0846C47.8747 1.69565 48.5177 2.33853 48.5177 3.12866V8.60464H48.5175Z" fill="#FD5D07"/>
<path d="M44.3578 2.92651C43.1431 2.92651 42.1548 3.9148 42.1548 5.12954C42.1548 6.34429 43.1431 7.33257 44.3578 7.33257C45.5726 7.33257 46.5608 6.34429 46.5608 5.12954C46.5608 3.9148 45.5726 2.92651 44.3578 2.92651ZM44.3578 5.85024C43.9605 5.85024 43.6372 5.527 43.6372 5.12964C43.6372 4.73237 43.9604 4.40903 44.3578 4.40903C44.7552 4.40903 45.0784 4.73228 45.0784 5.12964C45.0784 5.5269 44.7551 5.85024 44.3578 5.85024Z" fill="#FD5D07"/>
<path d="M38.3876 2.92651C37.1729 2.92651 36.1846 3.9148 36.1846 5.12954C36.1846 6.34429 37.1729 7.33257 38.3876 7.33257C39.6023 7.33257 40.5906 6.34429 40.5906 5.12954C40.5906 3.9148 39.6023 2.92651 38.3876 2.92651ZM38.3876 5.85024C37.9903 5.85024 37.667 5.527 37.667 5.12964C37.667 4.73237 37.9902 4.40903 38.3876 4.40903C38.785 4.40903 39.1082 4.73228 39.1082 5.12964C39.1081 5.5269 38.7849 5.85024 38.3876 5.85024Z" fill="#FD5D07"/>
<path d="M32.4179 2.92651C31.2031 2.92651 30.2148 3.9148 30.2148 5.12954C30.2148 6.34429 31.2031 7.33257 32.4179 7.33257C33.6326 7.33257 34.6209 6.34429 34.6209 5.12954C34.6209 3.9148 33.6326 2.92651 32.4179 2.92651ZM32.418 5.85024C32.0207 5.85024 31.6974 5.527 31.6974 5.12964C31.6974 4.73237 32.0205 4.40903 32.418 4.40903C32.8154 4.40903 33.1386 4.73228 33.1386 5.12964C33.1385 5.5269 32.8152 5.85024 32.418 5.85024Z" fill="#FD5D07"/>
<path d="M25.2545 2.92651H6.41689C5.20215 2.92651 4.21387 3.9148 4.21387 5.12954C4.21387 6.34429 5.20215 7.33257 6.41689 7.33257H25.2545C26.4692 7.33257 27.4575 6.34429 27.4575 5.12954C27.4575 3.9148 26.4692 2.92651 25.2545 2.92651ZM25.2545 5.85024H6.41689C6.01953 5.85024 5.69629 5.527 5.69629 5.12964C5.69629 4.73237 6.01943 4.40903 6.41689 4.40903H25.2545C25.6519 4.40903 25.9751 4.73228 25.9751 5.12964C25.9751 5.5269 25.6518 5.85024 25.2545 5.85024Z" fill="#FD5D07"/>
<path d="M18.4414 25.8777C17.9203 25.8777 17.5327 26.2918 17.5327 26.7864C17.5327 27.2677 17.9202 27.6953 18.4414 27.6953C18.9227 27.6953 19.337 27.2677 19.337 26.7864C19.337 26.2918 18.9227 25.8777 18.4414 25.8777Z" fill="#FD5D07"/>
<path d="M24.5358 25.8241C24.2018 25.8241 24.0014 26.2251 23.1994 26.2251C22.2771 26.2251 21.8896 25.7707 21.8896 24.9954V23.9261C21.8896 23.1511 22.2771 22.6967 23.186 22.6967C23.9745 22.6967 24.215 23.0708 24.5092 23.0708C24.9233 23.0708 25.1907 22.5497 25.1907 22.2288C25.1907 21.7076 24.3088 21.1864 23.0524 21.1864C21.0343 21.1864 20.1655 22.3892 20.1655 23.9261V24.9954C20.1655 26.5591 21.0475 27.7353 23.0656 27.7353C24.322 27.7353 25.271 27.174 25.271 26.6392C25.2711 26.3052 25.0037 25.8241 24.5358 25.8241Z" fill="#FD5D07"/>
<path d="M28.7854 21.1864C27.1947 21.1864 25.8853 22.4561 25.8853 23.8995V24.9953C25.8853 26.4386 27.2217 27.7352 28.7854 27.7352C30.3356 27.7352 31.6855 26.4254 31.6855 24.9953V23.8995C31.6855 22.4159 30.3357 21.1864 28.7854 21.1864ZM29.9614 24.9954C29.9614 25.6237 29.4269 26.2251 28.7854 26.2251C28.1306 26.2251 27.6093 25.6237 27.6093 24.9954V23.8996C27.6093 23.2982 28.1307 22.6967 28.7854 22.6967C29.4269 22.6967 29.9614 23.298 29.9614 23.8996V24.9954Z" fill="#FD5D07"/>
<path d="M39.8509 21.1864C39.0759 21.1864 38.3006 21.6139 37.8327 22.5228C37.5521 21.7344 36.9238 21.1864 36.1623 21.1864C35.2802 21.1864 34.6921 21.6808 34.398 22.2022V21.8012C34.3979 21.4805 34.0503 21.2667 33.6361 21.2667C33.1282 21.2667 32.7808 21.4805 32.7808 21.8013V27.0671C32.7808 27.3344 33.1282 27.615 33.6361 27.615C34.1038 27.615 34.5048 27.3344 34.5048 27.0671V23.8996C34.5048 23.1111 35.0262 22.6967 35.5474 22.6967C36.1087 22.6967 36.6433 23.151 36.6433 23.8996V27.0804C36.6433 27.4547 37.0977 27.615 37.4986 27.615C37.9262 27.615 38.3674 27.4546 38.3674 27.0804V23.8861C38.3674 23.1111 38.8885 22.6832 39.4232 22.6832C39.9577 22.6832 40.5058 23.0975 40.5058 23.8994V27.0669C40.5058 27.3343 40.9067 27.6148 41.3611 27.6148C41.829 27.6148 42.23 27.3343 42.23 27.0669V23.8994C42.23 22.1619 41.0672 21.1864 39.8509 21.1864Z" fill="#FD5D07"/>
<path d="M18.4414 40.926C17.9203 40.926 17.5327 41.3402 17.5327 41.8347C17.5327 42.3161 17.9202 42.7436 18.4414 42.7436C18.9227 42.7436 19.337 42.3161 19.337 41.8347C19.337 41.3402 18.9227 40.926 18.4414 40.926Z" fill="#FD5D07"/>
<path d="M23.7874 36.2349C22.892 36.2349 22.2505 36.7293 21.9966 37.2507V36.8497C21.9966 36.5289 21.6489 36.315 21.2348 36.315C20.7269 36.315 20.3794 36.5289 20.3794 36.8497V42.1154C20.3794 42.3828 20.7269 42.6634 21.2348 42.6634C21.7024 42.6634 22.1034 42.3828 22.1034 42.1154V38.9479C22.1034 38.1995 22.6516 37.745 23.1995 37.745C23.841 37.745 24.3623 38.3464 24.3623 38.9479V42.1154C24.3623 42.4764 24.8167 42.6634 25.2177 42.6634C25.6452 42.6634 26.0863 42.4763 26.0863 42.1154V38.9479C26.0861 37.4645 25.0171 36.2349 23.7874 36.2349Z" fill="#FD5D07"/>
<path d="M32.0596 40.9127C31.6586 40.9127 31.2979 41.4206 30.4157 41.4206C29.4803 41.4206 28.8521 40.9127 28.8521 40.1375V39.9371H31.5651C32.1665 39.9371 32.8082 39.8837 32.8082 38.7477C32.8082 37.264 31.5251 36.235 30.0549 36.235C28.4244 36.235 27.1279 37.4645 27.1279 38.908V40.044C27.1279 41.6878 28.4646 42.7839 30.3623 42.7839C31.7924 42.7839 32.7145 42.129 32.7145 41.6746C32.7145 41.4072 32.4606 40.9127 32.0596 40.9127ZM28.852 38.5472C28.852 37.9057 29.4133 37.5047 30.0147 37.5047C30.6562 37.5047 31.1909 37.9323 31.1909 38.5606C31.1909 38.8546 31.084 38.9213 30.8032 38.9213H28.852V38.5472Z" fill="#FD5D07"/>
<path d="M36.8169 41.2067H36.2958C35.7345 41.2067 35.5474 41.0196 35.5474 40.4984V37.5713H37.1244C37.4052 37.5713 37.5656 37.264 37.5656 36.9433C37.5656 36.636 37.4052 36.3151 37.1244 36.3151H35.5475V34.0164C35.5475 33.6956 35.1197 33.4817 34.6786 33.4817C34.2776 33.4817 33.8232 33.6956 33.8232 34.0164V40.4983C33.8232 42.0085 34.692 42.6634 36.2958 42.6634H36.8169C37.3115 42.6634 37.5522 42.3025 37.5522 41.9284C37.5522 41.5675 37.3116 41.2067 36.8169 41.2067Z" fill="#FD5D07"/>
<path d="M13.0499 20.3038H6.33838C5.92891 20.3038 5.59717 20.6356 5.59717 21.045V27.7566C5.59717 28.1659 5.92891 28.4978 6.33838 28.4978H13.0499C13.4594 28.4978 13.7911 28.166 13.7911 27.7566V21.045C13.7912 20.6356 13.4594 20.3038 13.0499 20.3038ZM12.3087 27.0154H7.07959V21.7863H12.3087V27.0154Z" fill="#FD5D07"/>
<path d="M13.0499 35.1287H6.33838C5.92891 35.1287 5.59717 35.4604 5.59717 35.8699V42.5814C5.59717 42.9909 5.92891 43.3226 6.33838 43.3226H13.0499C13.4594 43.3226 13.7911 42.9909 13.7911 42.5814V35.8699C13.7912 35.4604 13.4594 35.1287 13.0499 35.1287ZM12.3087 41.8402H7.07959V36.6111H12.3087V41.8402Z" fill="#FD5D07"/>
</g>
<defs>
<clipPath id="clip0_138_6811">
<rect width="50" height="50" fill="white"/>
</clipPath>
</defs>
</svg>
